<svg width="800" height="800" viewBox="0 0 800 800" fill="none" xmlns="http://www.w3.org/2000/svg">
<path d="M151.815 468.131C151.815 468.131 126.621 463.714 122.288 465.389C103.71 472.572 63.4988 499.805 157.592 586.985" fill="#F3886D"/>
<path d="M126.874 453.937C129.485 453.998 132.09 454.226 134.687 454.499C141.056 455.169 147.408 456.144 153.718 457.249C159.733 458.3 163.769 464.015 162.718 470.03C161.667 476.045 155.92 480.081 149.905 479.03C144.619 478.111 139.298 477.325 133.968 476.718C131.985 476.492 130.022 476.282 128.03 476.155C127.146 476.099 126.235 476.081 125.343 476.124C125.011 476.242 124.693 476.387 124.374 476.53C123.338 476.995 122.303 477.509 121.311 478.061C117.203 480.351 113.395 483.478 111.155 487.687C106.588 496.269 109.831 507.06 113.593 515.28C114.282 516.785 115.035 518.256 115.811 519.718C120.876 529.254 127.408 537.975 134.343 546.218C143.979 557.671 154.561 568.266 165.53 578.437C170.253 582.828 170.547 590.213 166.155 594.937C161.763 599.659 154.347 599.922 149.624 595.53C134.51 581.436 119.94 566.552 107.749 549.811C100.124 539.341 93.2752 527.98 89.3742 515.561C85.0872 501.915 84.9742 487.212 92.8112 474.811C94.5312 472.09 96.5682 469.588 98.8432 467.311C101.849 464.304 105.282 461.728 108.937 459.561C111.478 458.055 114.111 456.749 116.843 455.624C117.789 455.234 118.643 454.904 119.624 454.624C121.964 453.957 124.458 453.879 126.874 453.937Z" fill="black"/>
<path d="M126.858 455.057C129.44 455.118 131.996 455.35 134.563 455.62C140.907 456.287 147.23 457.218 153.514 458.319C158.926 459.265 162.557 464.435 161.612 469.847C160.666 475.26 155.524 478.863 150.112 477.917C144.276 476.902 138.402 476.028 132.51 475.415C130.659 475.222 128.803 475.059 126.943 474.993C126.468 474.976 125.984 474.957 125.509 474.965C125.401 474.967 125.283 474.989 125.171 474.993C124.755 475.16 124.343 475.316 123.934 475.499C123.267 475.798 122.475 476.177 121.825 476.511C118.011 478.477 114.412 481.097 111.815 484.553C105.509 492.945 107.674 503.893 111.337 512.924C114.819 521.508 119.927 529.408 125.424 536.824C132.908 546.92 141.347 556.287 150.168 565.223C154.91 570.027 159.785 574.692 164.733 579.282C168.983 583.234 169.247 589.879 165.295 594.128C161.344 598.378 154.699 598.642 150.449 594.691C136.039 581.256 122.092 567.105 110.269 551.305C102.41 540.802 95.2621 529.427 91.0081 516.945C86.4551 503.584 85.7381 488.959 93.1171 476.455C94.7281 473.725 96.6651 471.185 98.8531 468.891C101.984 465.609 105.584 462.824 109.482 460.512C111.976 459.032 114.589 457.737 117.27 456.632C118.164 456.264 118.986 455.94 119.913 455.676C122.148 455.039 124.552 455.003 126.858 455.057Z" fill="black"/>
<path d="M598.396 445.142C598.396 445.142 575.629 391.019 548.608 370.015C521.588 349.012 504.933 241.751 504.933 241.751L519.299 124.754C519.299 124.754 577.549 104.607 604.443 107.607C631.336 110.607 693.909 368.624 683.923 432.116C683.923 432.116 630.794 443.33 598.396 445.142Z" fill="#82D4D5"/>
<path d="M599.156 96.093C601.793 96.115 604.531 96.1626 607.125 96.6867C610.006 97.2686 612.643 98.6597 614.938 100.468C618.024 102.9 620.507 106.037 622.688 109.28C625.699 113.76 628.218 118.598 630.531 123.468C637.624 138.395 643.093 154.111 648.188 169.811C657.873 199.664 665.842 230.061 672.938 260.624C680.375 292.659 686.806 324.995 691.438 357.561C692.999 368.541 694.341 379.541 695.281 390.593C696.062 399.772 696.579 409.002 696.438 418.218C696.409 420.078 696.378 421.954 696.281 423.811C696.213 425.129 696.112 426.434 696 427.749C695.927 428.611 695.846 429.421 695.75 430.28C695.704 430.69 695.645 431.09 695.594 431.499C695.446 432.685 695.378 434.264 694.938 435.374C694.595 436.237 694.526 437.275 693.844 437.905C691.567 440.009 688.796 441.53 686.281 443.343C686.049 443.51 685.458 443.537 685.188 443.593C684.476 443.74 683.774 443.885 683.062 444.03C680.681 444.515 678.292 444.97 675.906 445.437C671.162 446.364 666.413 447.26 661.656 448.124C640.975 451.88 661.65 448.129 599.094 456.624C593.209 456.982 588.271 452.786 587.25 447.124C576.135 424.594 579.376 430.223 574.656 421.749C568.807 411.248 562.395 400.979 554.781 391.655C552.095 388.366 549.255 385.187 546.156 382.28C544.034 380.288 541.669 378.594 539.531 376.624C536.437 373.773 533.814 370.451 531.469 366.968C526.923 360.216 523.38 352.788 520.281 345.28C516.329 335.705 513.091 325.844 510.188 315.905C505.433 299.633 501.6 283.088 498.281 266.468C497.239 261.246 496.236 256.024 495.312 250.78C495.013 249.081 494.72 247.358 494.438 245.655C494.321 244.954 494.112 244.212 494.094 243.499C494.068 242.493 493.997 241.474 494.031 240.468C494.074 239.223 494.318 237.985 494.469 236.749C494.618 235.53 494.789 234.312 494.938 233.093C495.533 228.218 496.123 223.343 496.719 218.468C498.43 204.451 500.141 190.454 501.844 176.437C502.806 168.514 503.756 160.578 504.719 152.655C505.311 147.78 505.908 142.906 506.5 138.03C506.722 136.202 506.934 134.359 507.156 132.53C507.304 131.311 507.446 130.093 507.594 128.874C507.668 128.265 507.77 127.671 507.844 127.061C508.019 125.616 508.049 123.887 508.438 122.468C508.594 121.897 508.546 121.224 508.938 120.78C511.006 118.432 513.437 116.425 515.688 114.249C515.848 114.094 516.682 113.918 516.906 113.843C518.03 113.463 519.153 113.087 520.281 112.718C524.237 111.424 528.232 110.163 532.219 108.968C536.658 107.637 541.119 106.362 545.594 105.155C553.498 103.023 561.461 101.053 569.5 99.4992C579.262 97.6126 589.183 96.0095 599.156 96.093ZM597.312 118.53C591.282 118.627 585.282 119.436 579.344 120.437C571.762 121.714 564.234 123.397 556.781 125.28C547.587 127.604 538.472 130.277 529.438 133.187C529.21 135.094 528.986 137 528.75 138.905C527.767 146.826 526.764 154.735 525.781 162.655C522.833 186.417 519.9 210.173 516.969 233.937C516.668 236.374 516.363 238.812 516.062 241.249C516.05 241.353 516.041 241.405 516.031 241.561C516.12 242.106 516.19 242.673 516.281 243.218C516.596 245.097 516.947 246.967 517.281 248.843C518.337 254.772 519.446 260.693 520.656 266.593C524.257 284.147 528.456 301.608 533.906 318.687C536.521 326.88 539.425 335.028 543.031 342.843C545.372 347.915 548.013 352.991 551.469 357.405C554.205 360.9 557.878 363.355 561.094 366.374C566.181 371.15 570.743 376.455 574.969 381.999C582.915 392.425 589.732 403.715 595.938 415.249C599.493 421.858 599.435 422.034 604.562 432.78C646.251 427.323 637.232 429.133 654.5 426.061C660.647 424.968 666.78 423.827 672.906 422.624C673.031 422.599 673.156 422.586 673.281 422.561C673.341 421.406 673.441 420.249 673.469 419.093C673.656 411.355 673.27 403.619 672.688 395.905C670.969 373.127 667.455 350.479 663.469 327.999C658.957 302.554 653.558 277.244 647.5 252.124C641.693 228.044 635.267 204.093 627.812 180.468C623.531 166.9 618.966 153.385 613.406 140.28C611.507 135.805 609.497 131.373 607.188 127.093C605.739 124.408 604.171 121.7 602.219 119.343C602.03 119.114 601.828 118.903 601.625 118.687C600.195 118.601 598.759 118.507 597.312 118.53Z" fill="black"/>
<path d="M598.396 445.142C598.396 445.142 575.629 391.019 548.608 370.015C521.588 349.012 504.933 241.751 504.933 241.751L519.299 124.754C519.299 124.754 577.549 104.607 604.443 107.607C631.336 110.607 693.909 368.624 683.923 432.116C683.923 432.116 630.794 443.33 598.396 445.142Z" fill="#B876D1"/>
<path d="M599.156 96.093C601.793 96.115 604.531 96.1626 607.125 96.6867C610.006 97.2686 612.643 98.6597 614.938 100.468C618.024 102.9 620.507 106.037 622.688 109.28C625.699 113.76 628.218 118.598 630.531 123.468C637.624 138.395 643.093 154.111 648.188 169.811C657.873 199.664 665.842 230.061 672.938 260.624C680.375 292.659 686.806 324.995 691.438 357.561C692.999 368.541 694.341 379.541 695.281 390.593C696.062 399.772 696.579 409.002 696.438 418.218C696.409 420.078 696.378 421.954 696.281 423.811C696.213 425.129 696.112 426.434 696 427.749C695.927 428.611 695.846 429.421 695.75 430.28C695.704 430.69 695.645 431.09 695.594 431.499C695.446 432.685 695.378 434.264 694.938 435.374C694.595 436.237 694.526 437.275 693.844 437.905C691.567 440.009 688.796 441.53 686.281 443.343C686.049 443.51 685.458 443.537 685.188 443.593C684.476 443.74 683.774 443.885 683.062 444.03C680.681 444.515 678.292 444.97 675.906 445.437C671.162 446.364 666.413 447.26 661.656 448.124C640.975 451.88 661.65 448.129 599.094 456.624C593.209 456.982 588.271 452.786 587.25 447.124C576.135 424.594 579.376 430.223 574.656 421.749C568.807 411.248 562.395 400.979 554.781 391.655C552.095 388.366 549.255 385.187 546.156 382.28C544.034 380.288 541.669 378.594 539.531 376.624C536.437 373.773 533.814 370.451 531.469 366.968C526.923 360.216 523.38 352.788 520.281 345.28C516.329 335.705 513.091 325.844 510.188 315.905C505.433 299.633 501.6 283.088 498.281 266.468C497.239 261.246 496.236 256.024 495.312 250.78C495.013 249.081 494.72 247.358 494.438 245.655C494.321 244.954 494.112 244.212 494.094 243.499C494.068 242.493 493.997 241.474 494.031 240.468C494.074 239.223 494.318 237.985 494.469 236.749C494.618 235.53 494.789 234.312 494.938 233.093C495.533 228.218 496.123 223.343 496.719 218.468C498.43 204.451 500.141 190.454 501.844 176.437C502.806 168.514 503.756 160.578 504.719 152.655C505.311 147.78 505.908 142.906 506.5 138.03C506.722 136.202 506.934 134.359 507.156 132.53C507.304 131.311 507.446 130.093 507.594 128.874C507.668 128.265 507.77 127.671 507.844 127.061C508.019 125.616 508.049 123.887 508.438 122.468C508.594 121.897 508.546 121.224 508.938 120.78C511.006 118.432 513.437 116.425 515.688 114.249C515.848 114.094 516.682 113.918 516.906 113.843C518.03 113.463 519.153 113.087 520.281 112.718C524.237 111.424 528.232 110.163 532.219 108.968C536.658 107.637 541.119 106.362 545.594 105.155C553.498 103.023 561.461 101.053 569.5 99.4992C579.262 97.6126 589.183 96.0095 599.156 96.093ZM597.312 118.53C591.282 118.627 585.282 119.436 579.344 120.437C571.762 121.714 564.234 123.397 556.781 125.28C547.587 127.604 538.472 130.277 529.438 133.187C529.21 135.094 528.986 137 528.75 138.905C527.767 146.826 526.764 154.735 525.781 162.655C522.833 186.417 519.9 210.173 516.969 233.937C516.668 236.374 516.363 238.812 516.062 241.249C516.05 241.353 516.041 241.405 516.031 241.561C516.12 242.106 516.19 242.673 516.281 243.218C516.596 245.097 516.947 246.967 517.281 248.843C518.337 254.772 519.446 260.693 520.656 266.593C524.257 284.147 528.456 301.608 533.906 318.687C536.521 326.88 539.425 335.028 543.031 342.843C545.372 347.915 548.013 352.991 551.469 357.405C554.205 360.9 557.878 363.355 561.094 366.374C566.181 371.15 570.743 376.455 574.969 381.999C582.915 392.425 589.732 403.715 595.938 415.249C599.493 421.858 599.435 422.034 604.562 432.78C646.251 427.323 637.232 429.133 654.5 426.061C660.647 424.968 666.78 423.827 672.906 422.624C673.031 422.599 673.156 422.586 673.281 422.561C673.341 421.406 673.441 420.249 673.469 419.093C673.656 411.355 673.27 403.619 672.688 395.905C670.969 373.127 667.455 350.479 663.469 327.999C658.957 302.554 653.558 277.244 647.5 252.124C641.693 228.044 635.267 204.093 627.812 180.468C623.531 166.9 618.966 153.385 613.406 140.28C611.507 135.805 609.497 131.373 607.188 127.093C605.739 124.408 604.171 121.7 602.219 119.343C602.03 119.114 601.828 118.903 601.625 118.687C600.195 118.601 598.759 118.507 597.312 118.53Z" fill="black"/>
<path d="M595.83 97.2777C598.376 97.1989 600.909 97.2073 603.45 97.3902C605.055 97.5056 606.653 97.6625 608.202 98.1212C610.067 98.6736 611.795 99.5826 613.376 100.708C616.482 102.92 618.996 105.924 621.164 109.031C624.166 113.332 626.64 117.983 628.925 122.696C635.882 137.045 641.188 152.187 646.161 167.319C655.765 196.54 663.688 226.325 670.736 256.256C678.55 289.437 685.274 322.923 690.166 356.665C691.631 366.772 692.878 376.918 693.821 387.088C694.735 396.951 695.384 406.843 695.311 416.753C695.297 418.629 695.25 420.53 695.171 422.404C695.115 423.732 695.043 425.043 694.946 426.369C694.882 427.235 694.834 428.035 694.749 428.9C694.671 429.69 694.566 430.557 694.468 431.346C694.327 432.469 694.24 433.975 693.821 435.029C693.512 435.806 693.451 436.768 692.837 437.335C690.788 439.228 688.295 440.597 686.032 442.227C685.855 442.355 685.424 442.353 685.217 442.396C684.566 442.531 683.9 442.685 683.249 442.818C680.97 443.283 678.699 443.719 676.416 444.168C671.77 445.08 667.099 445.96 662.441 446.811C651.411 448.824 640.365 450.699 629.262 452.265C619.223 453.682 629.27 452.245 599.036 455.471C593.73 455.793 589.256 452.007 588.351 446.895C576.979 423.852 580.375 429.771 575.614 421.223C569.733 410.666 563.276 400.343 555.622 390.969C552.905 387.642 550.039 384.433 546.905 381.493C544.78 379.499 542.409 377.785 540.269 375.813C537.238 373.019 534.666 369.75 532.368 366.337C528.206 360.155 524.924 353.42 522.021 346.571C518.397 338.023 515.396 329.202 512.658 320.337C507.326 303.077 503.211 285.425 499.639 267.728C498.488 262.025 497.414 256.307 496.406 250.576C496.107 248.88 495.816 247.186 495.534 245.487C495.418 244.787 495.189 244.033 495.168 243.322C495.143 242.431 495.097 241.542 495.112 240.651C495.128 239.724 495.337 238.732 495.45 237.811C495.673 235.983 495.901 234.156 496.124 232.328C496.758 227.148 497.404 221.959 498.036 216.779C500.009 200.629 501.977 184.482 503.941 168.332C505.35 156.752 506.751 145.185 508.159 133.606C508.307 132.387 508.461 131.17 508.609 129.951C508.72 129.037 508.835 128.109 508.946 127.195C509.02 126.586 509.069 125.977 509.143 125.368C509.274 124.29 509.308 122.967 509.705 121.965C510.02 121.172 510.13 120.249 510.718 119.631C512.291 117.979 514.288 116.739 516.06 115.301C516.336 115.077 516.94 114.991 517.269 114.88C518.049 114.616 518.821 114.35 519.603 114.092C522.45 113.154 525.315 112.25 528.179 111.365C537.468 108.493 546.846 105.866 556.297 103.576C563.134 101.92 570 100.486 576.935 99.3022C583.169 98.2378 589.505 97.4735 595.83 97.2777ZM599.008 117.382C595.599 117.36 592.188 117.605 588.801 117.973C576.78 119.276 564.914 122.003 553.232 125.058C544.902 127.237 536.63 129.659 528.432 132.313C528.177 134.47 527.911 136.627 527.645 138.78C526.625 147.005 525.599 155.214 524.58 163.439C521.559 187.81 518.531 212.173 515.526 236.545C515.338 238.069 515.151 239.605 514.963 241.129C514.945 241.276 514.925 241.431 514.907 241.579C515.006 242.183 515.115 242.774 515.216 243.378C515.588 245.597 515.971 247.827 516.369 250.042C517.468 256.154 518.65 262.238 519.912 268.319C523.637 286.265 527.923 304.226 533.718 321.63C536.324 329.459 539.134 337.231 542.688 344.687C544.911 349.351 547.394 353.99 550.589 358.071C551.507 359.244 552.503 360.376 553.597 361.389C554.539 362.26 555.593 362.987 556.578 363.807C557.869 364.88 559.122 366.004 560.346 367.153C565.388 371.887 569.906 377.178 574.095 382.674C582.007 393.054 588.809 404.285 594.987 415.768C598.622 422.525 598.322 422.239 603.956 434.017C647.139 428.352 637.218 430.319 654.681 427.212C660.834 426.118 666.994 424.959 673.126 423.754C673.54 423.673 673.95 423.583 674.363 423.501C674.452 422.044 674.581 420.573 674.616 419.115C674.804 411.342 674.414 403.582 673.829 395.833C672.107 373.013 668.6 350.335 664.607 327.816C660.09 302.348 654.673 277.012 648.607 251.87C642.792 227.765 636.363 203.79 628.897 180.141C624.602 166.538 620.02 152.985 614.444 139.848C612.531 135.341 610.501 130.859 608.174 126.548C606.689 123.798 605.086 121.033 603.085 118.619C602.768 118.237 602.431 117.866 602.072 117.523C602.044 117.52 602.016 117.525 601.988 117.523C600.992 117.449 600.006 117.389 599.008 117.382Z" fill="black"/>
<path d="M616.533 510.9C616.533 381.51 511.641 276.619 382.251 276.619C312.298 276.619 249.506 307.277 206.578 355.89C170.103 397.196 147.97 451.463 147.97 510.9C147.97 640.29 252.861 745.181 382.251 745.181C511.641 745.181 616.533 640.29 616.533 510.9Z" fill="#F3886D" stroke="black" stroke-width="0.0185569" stroke-miterlimit="10" stroke-linecap="round" stroke-linejoin="round"/>
<path d="M382.254 269.93C515.332 269.93 623.223 377.821 623.223 510.899C623.223 643.978 515.333 751.869 382.254 751.869C249.175 751.869 141.284 643.978 141.284 510.899C141.284 451.369 162.964 395.189 201.568 351.471C247.026 299.994 312.222 269.93 382.254 269.93ZM382.254 283.286C316.093 283.286 254.526 311.664 211.578 360.3C175.109 401.6 154.64 454.657 154.64 510.899C154.64 636.601 256.552 738.513 382.254 738.513C507.955 738.513 609.867 636.601 609.868 510.899C609.868 385.198 507.955 283.286 382.254 283.286Z" fill="black"/>
<path d="M212.655 343.819C236.999 330.393 284.284 372.2 307.038 407.651C331.758 388.967 378.117 375.793 427.776 375.793C500.966 375.793 554.008 441.101 545.028 482.529C538.222 513.925 494.147 550.744 431.657 557.519C438.052 572.6 441.807 588.075 441.807 602.873C441.807 667.453 391.432 683.206 320.394 683.206C249.357 683.206 162.467 607.919 164.847 493.916C164.883 492.163 165.686 490.876 166.984 489.867C147.805 476.575 142.675 487.11 147.816 463.152C160.319 404.884 212.655 343.819 212.655 343.819Z" fill="#F9B192"/>
<path d="M221.027 334.262C233.626 333.367 248.589 339.813 264.638 351.78C280.758 363.8 296.866 380.978 308.839 398.09C336.451 380.181 381.378 368.763 427.777 368.763C463.859 368.763 497.704 383.917 522.225 408.69C545.188 431.889 556.92 460.813 551.89 484.018C548.024 501.852 534.01 520.277 513.284 534.995C493.43 549.094 468.585 559.019 441.302 563.282C446.134 576.834 448.838 590.193 448.838 602.872C448.838 636.285 436.003 659.496 411.16 673.391C389.93 685.266 360.534 690.234 320.395 690.234C282.323 690.234 241.084 670.091 209.892 636.051C175.921 598.977 156.663 549.115 157.818 493.775C157.827 493.356 157.939 492.969 157.987 492.566C156.693 491.857 155.428 491.224 154.134 490.654C152.585 489.971 148.058 488.221 147.499 487.982C142.7 485.933 139.842 483.029 139.092 477.888C138.569 474.311 139.138 470.098 140.947 461.664C141.515 459.018 142.155 456.354 142.888 453.651C148.603 432.546 159.055 410.242 172.889 387.546C180.402 375.22 188.466 363.53 196.508 352.876C199.326 349.143 201.94 345.803 204.297 342.894C205.126 341.871 207.154 339.416 207.305 339.239C207.853 338.6 208.537 338.071 209.274 337.664C212.895 335.667 216.827 334.561 221.027 334.262ZM223.332 348.293C220.923 348.293 218.836 348.804 216.978 349.643C216.33 350.423 215.704 351.138 215.207 351.752C212.949 354.539 210.446 357.766 207.727 361.368C199.95 371.671 192.175 382.956 184.923 394.856C171.724 416.511 161.789 437.687 156.467 457.334C155.799 459.801 155.212 462.217 154.697 464.617C153.412 470.605 153.018 473.579 153.066 475.104C153.332 475.214 157.84 476.919 159.785 477.776C163.497 479.411 167.106 481.391 170.977 484.074C174.604 486.587 174.879 491.627 171.905 494.674C170.984 546.102 188.841 592.251 220.268 626.547C248.92 657.815 286.485 676.175 320.395 676.175C399.172 676.175 434.779 656.258 434.779 602.872C434.779 589.558 431.473 575.09 425.191 560.273C423.35 555.933 426.211 551.024 430.899 550.516C459.299 547.438 485.136 537.742 505.158 523.523C523.241 510.682 535.127 495.066 538.168 481.037C542.057 463.098 532.125 438.673 512.215 418.559C490.25 396.369 459.968 382.822 427.777 382.822C380.794 382.822 335.346 395.059 311.285 413.245C308.018 415.715 303.347 414.892 301.135 411.446C289.874 393.901 272.786 375.4 256.23 363.055C243.178 353.323 231.706 348.292 223.332 348.293Z" fill="black" fill-opacity="0.5"/>
<path d="M242.536 308.818C245.111 309.212 247.537 310.601 249.2 312.867C252.527 317.398 251.538 323.767 247.007 327.094C191.504 367.841 158.155 436.625 158.155 510.9C158.155 634.669 258.485 735 382.254 735C506.366 735 608.434 633.962 608.434 510.535C608.434 484.408 606.499 464.806 601.517 447.523C599.959 442.121 603.088 436.483 608.49 434.926C613.891 433.369 619.529 436.469 621.087 441.871C626.699 461.337 628.791 482.666 628.791 510.535C628.791 645.251 517.565 755.357 382.254 755.357C247.242 755.357 137.797 645.912 137.797 510.9C137.797 430.269 174.137 355.335 234.972 310.673C237.238 309.01 239.961 308.423 242.536 308.818Z" fill="black"/>
<path d="M193.218 491.37C198.655 480.821 185.346 466.067 163.491 458.418C141.636 450.769 119.511 453.121 114.074 463.671C108.636 474.22 121.945 488.974 143.8 496.623C148.703 498.338 153.618 499.551 158.356 500.281C174.741 502.804 189 499.554 193.218 491.37Z" fill="#FF497F" stroke="black" stroke-width="0.019536" stroke-miterlimit="10" stroke-linecap="round" stroke-linejoin="round"/>
<path d="M477.359 550.022C481.861 539.654 467.783 526.337 445.917 520.278C435.667 517.438 425.525 516.697 417.178 517.779C407.719 519.005 400.565 522.572 398.173 528.08C393.672 538.448 407.749 551.765 429.616 557.824C451.482 563.883 472.858 560.39 477.359 550.022Z" fill="#FF497F" stroke="black" stroke-width="0.019536" stroke-miterlimit="10" stroke-linecap="round" stroke-linejoin="round"/>
<path d="M218.72 412.881C226.673 412.881 233.51 418.778 233.51 426.602C233.51 434.426 226.674 440.296 218.72 440.296C210.767 440.296 203.93 434.426 203.93 426.602C203.93 418.778 210.767 412.881 218.72 412.881Z" fill="black"/>
<path d="M419.621 457.363C427.39 457.363 433.737 463.58 433.736 471.338C433.736 479.095 427.39 485.34 419.621 485.34C411.853 485.34 405.506 479.095 405.506 471.338C405.506 463.58 411.852 457.363 419.621 457.363Z" fill="black"/>
<path d="M253.897 549.532C256.788 549.209 259.75 550.603 261.264 553.3C261.783 554.235 262.294 555.146 262.979 555.971C265.273 558.74 268.225 558.973 271.527 558.052C273.178 557.592 274.754 556.914 276.25 556.084C276.7 555.834 277.14 555.576 277.572 555.297C277.706 555.21 277.834 555.106 277.966 555.015C277.984 555.002 278 555.003 278.022 554.987C280.861 554.919 283.74 554.325 286.542 554.79C287.452 554.942 287.88 556.056 288.51 556.731C288.909 557.158 289.165 557.85 289.41 558.389C289.499 558.587 289.574 558.782 289.663 558.98C289.687 559.035 289.722 559.094 289.747 559.149C289.759 559.176 289.788 559.26 289.775 559.233C289.961 559.631 290.148 560.046 290.337 560.442C290.531 560.847 290.728 561.249 290.928 561.651C291.321 562.441 291.691 563.153 292.109 563.929C295.368 569.983 299.641 576.179 305.718 579.703C310.206 582.305 315.44 582.784 320.395 581.306C322.116 580.792 323.779 580.076 325.344 579.197C325.783 578.95 326.217 578.686 326.638 578.409C326.783 578.314 326.917 578.201 327.059 578.1C327.076 578.088 327.295 577.935 327.228 577.988C330.298 575.576 334.742 576.098 337.154 579.169C339.565 582.239 339.043 586.682 335.973 589.094C332.605 591.731 328.516 593.636 324.444 594.858C321.275 595.81 317.971 596.336 314.659 596.349C311.88 596.359 309.108 596.021 306.421 595.308C295.543 592.424 287.317 584.021 281.48 574.754C280.705 573.523 280.023 572.229 279.315 570.958C277.172 571.859 274.969 572.605 272.679 573.011C265.752 574.24 258.718 572.506 253.531 567.64C251.36 565.603 249.675 563.19 248.217 560.611C246.198 557.015 247.489 552.451 251.085 550.432C251.984 549.927 252.933 549.64 253.897 549.532Z" fill="black"/>
<path d="M385.458 434.616C387.362 434.776 389.217 435.656 390.547 437.231C392.653 439.75 395.493 441.466 398.42 442.882C402.716 444.96 407.336 446.436 411.945 447.634C420.064 449.746 428.359 451.052 436.689 451.993C445.876 453.03 455.19 453.651 464.441 453.623C468.345 453.607 471.51 456.749 471.527 460.653C471.543 464.557 468.402 467.722 464.497 467.739C455.47 467.782 446.407 467.239 437.42 466.445C426.857 465.512 416.272 464.07 406.012 461.328C396.218 458.71 385.873 454.8 379.132 446.875C376.47 443.725 376.853 439.02 380.003 436.359C381.578 435.029 383.554 434.456 385.458 434.616Z" fill="black"/>
<path d="M196.282 395.981C198.182 396.187 199.995 397.13 201.287 398.736C202.878 400.731 204.684 402.594 206.855 403.966C213.549 408.199 221.449 408.396 229.011 406.806C232.3 406.115 235.525 405.083 238.628 403.798C239.678 403.362 240.727 402.89 241.749 402.392C242.122 402.21 242.478 402.022 242.845 401.829C242.951 401.774 243.05 401.717 243.155 401.661C243.203 401.634 243.344 401.549 243.295 401.576C246.689 399.646 251.009 400.854 252.94 404.248C254.87 407.641 253.69 411.933 250.297 413.864C246.643 415.941 242.688 417.566 238.712 418.897C226.384 423.023 212.262 424.164 200.556 417.547C196.306 415.145 192.708 411.881 189.647 408.1C187.062 404.886 187.585 400.168 190.799 397.584C192.406 396.292 194.383 395.775 196.282 395.981Z" fill="black"/>
<path d="M138.556 446.875C147.098 446.894 156.518 448.546 165.803 451.796C177.49 455.886 187.422 462.009 193.808 469.088C201.111 477.184 203.659 486.443 199.46 494.591C193.564 506.031 176.667 510.23 157.283 507.244C152.029 506.435 146.703 505.079 141.481 503.251C129.793 499.161 119.861 493.038 113.475 485.959C106.172 477.863 103.624 468.604 107.824 460.456C112.527 451.33 124.32 446.843 138.556 446.875ZM139.794 460.962C137.563 460.907 135.388 460.999 133.355 461.215C126.262 461.969 121.695 464.257 120.336 466.895C117.567 472.267 127.735 483.545 146.12 489.98C150.531 491.523 155.02 492.648 159.42 493.326C173.501 495.495 184.601 492.759 186.975 488.152C189.744 482.78 179.548 471.502 161.163 465.067C153.897 462.524 146.485 461.127 139.794 460.962Z" fill="black"/>
<path d="M423.699 510.28C431.363 510.159 439.652 511.258 447.796 513.514C459.483 516.753 469.609 522.027 476.364 528.417C484.15 535.782 487.385 544.601 483.815 552.822C477.48 567.414 452.588 571.487 427.748 564.605C416.062 561.366 405.935 556.063 399.181 549.673C391.394 542.308 388.16 533.488 391.729 525.267C395.249 517.161 404.337 512.361 416.276 510.814C418.665 510.505 421.145 510.32 423.699 510.28ZM424.065 524.339C421.985 524.366 419.983 524.513 418.076 524.761C410.533 525.738 405.772 528.274 404.635 530.891C403.823 532.763 404.894 535.749 408.825 539.467C413.787 544.161 421.887 548.391 431.488 551.051C441.186 553.738 451.023 554.414 458.875 553.131C465.652 552.024 469.858 549.648 470.909 547.227C471.722 545.355 470.622 542.37 466.692 538.652C461.729 533.958 453.63 529.727 444.029 527.066C437.201 525.174 430.304 524.256 424.065 524.339Z" fill="black"/>
<path d="M630.677 321.367C630.677 321.367 557.016 116.601 486.219 54.582C486.219 54.582 340.846 82.7707 202.767 251.775C202.767 251.775 213.462 284.085 232.589 308.622C232.589 308.622 414.317 283.554 532.087 389.366C532.087 389.366 543.183 400.022 562.137 393.405C581.09 386.788 623.136 361.613 631.487 348.284C631.487 348.284 633.153 332.879 630.677 321.367Z" fill="#93E9CA"/>
<path d="M484.686 46.8129C486.778 47.2941 488.89 47.7044 490.967 48.2504C491.137 48.2951 491.486 48.6625 491.655 48.8129C492.369 49.4464 493.077 50.0746 493.78 50.7192C494.175 51.0809 494.545 51.4468 494.936 51.8129C498.566 55.2159 502.04 58.806 505.373 62.5004C517.995 76.4916 528.844 92.0259 538.936 107.906C550.952 126.816 561.761 146.502 571.967 166.438C586.004 193.858 598.831 221.87 610.873 250.219C617.474 265.759 623.83 281.415 629.936 297.156C631.814 302 633.678 306.853 635.498 311.719C635.88 312.741 636.557 314.667 637.186 316.375C637.946 317.358 638.552 318.448 638.81 319.75C639.125 321.337 638.941 320.627 639.123 321.344C639.41 322.473 639.509 323.625 639.654 324.781C639.801 325.949 639.902 327.046 639.998 328.219C640.259 331.427 640.34 334.657 640.31 337.875C640.286 340.537 640.181 343.188 639.998 345.844C639.94 346.681 639.887 347.508 639.81 348.344C639.789 348.575 639.825 348.903 639.748 349.125C639.319 350.355 638.945 351.614 638.436 352.812C638.072 353.668 637.38 354.359 636.81 355.094C636.231 355.842 635.536 356.671 634.904 357.375C631.903 360.718 628.467 363.695 624.967 366.5C614.591 374.815 603.21 381.967 591.623 388.469C585.257 392.041 578.749 395.41 572.06 398.344C565.549 401.2 558.85 403.518 551.686 403.812C549.039 403.921 546.394 403.77 543.78 403.344C541.554 402.981 539.341 402.414 537.217 401.656C534.505 400.688 531.892 399.415 529.498 397.812C528.759 397.318 528.062 396.782 527.373 396.219C527.155 396.041 526.927 395.874 526.717 395.688C526.683 395.658 526.652 395.617 526.592 395.562C526.64 395.605 526.516 395.478 526.467 395.438C522.918 392.317 519.368 389.245 515.686 386.281C508.126 380.196 500.216 374.495 492.03 369.281C460.09 348.938 424.569 334.978 387.78 326.281C354.295 318.366 319.853 314.6 285.467 314.25C273.859 314.132 262.24 314.412 250.655 315.156C244.995 315.52 239.31 315.966 233.686 316.719C231.482 316.03 229.221 315.441 227.061 314.625C226.768 314.514 226.62 314.196 226.405 313.969C226.368 313.929 226.237 313.751 226.186 313.688C225.307 312.598 224.481 311.471 223.655 310.344C223.25 309.791 222.864 309.246 222.467 308.688C219.731 304.844 217.161 300.866 214.748 296.812C208.955 287.083 203.982 276.867 199.655 266.406C198.467 263.534 197.319 260.637 196.249 257.719C195.927 256.842 195.617 255.977 195.311 255.094C195.252 254.922 195.05 254.569 195.061 254.375C195.175 252.373 195.12 250.36 195.405 248.375C195.472 247.913 195.85 247.556 196.092 247.156C196.758 246.054 197.845 244.982 198.655 244C201.538 240.506 204.458 237.033 207.405 233.594C217.944 221.296 228.88 209.317 240.217 197.75C287.476 149.527 341.993 107.779 402.561 77.6566C421.986 67.9965 442.082 59.4782 462.748 52.8442C468.05 51.1421 473.382 49.5564 478.78 48.1879C480.214 47.8244 481.648 47.4782 483.092 47.1566C483.39 47.0902 484.402 46.7477 484.686 46.8129ZM483.998 63.3129C481.187 63.9951 478.363 64.6655 475.592 65.4692C469.223 67.3158 462.926 69.3848 456.686 71.6254C438.361 78.2048 420.537 86.1819 403.249 95.1254C346.879 124.287 296.038 163.749 251.748 209.062C241.82 219.22 232.254 229.72 222.936 240.438C219.692 244.168 216.501 247.916 213.342 251.719C212.921 252.225 212.51 252.742 212.092 253.25C213.563 257.199 215.051 261.15 216.748 265C220.052 272.493 223.715 279.831 227.842 286.906C230.298 291.117 232.916 295.219 235.748 299.188C235.938 299.453 236.15 299.705 236.342 299.969C239.555 299.632 242.776 299.336 245.998 299.094C255.811 298.355 265.627 297.981 275.467 297.875C303.976 297.567 332.569 299.562 360.717 304.125C404.146 311.165 446.896 324.385 485.373 345.969C498.549 353.359 511.267 361.69 523.123 371.062C526.735 373.918 530.33 376.828 533.811 379.844C535.231 381.073 536.628 382.486 538.03 383.562C540.135 385.177 542.703 386.219 545.28 386.781C553.842 388.65 562.161 384.825 569.717 381.219C581.818 375.442 593.481 368.568 604.529 360.969C609.603 357.479 614.63 353.812 619.186 349.656C620.595 348.371 621.957 347.055 623.186 345.594C623.267 345.497 623.351 345.385 623.436 345.281C623.46 344.949 623.476 344.614 623.498 344.281C623.613 342.511 623.682 340.743 623.717 338.969C623.779 335.832 623.722 332.691 623.467 329.562C623.358 328.222 623.2 326.893 622.998 325.562C622.935 325.146 623.002 325.574 622.529 323C622.462 322.661 622.554 322.336 622.529 322C622.453 321.794 622.386 321.581 622.31 321.375C621.639 319.552 620.962 317.725 620.279 315.906C618.231 310.454 616.149 305.018 614.029 299.594C607.716 283.435 601.119 267.381 594.279 251.438C582.99 225.122 571.026 199.081 557.967 173.594C547.086 152.358 535.498 131.438 522.467 111.438C514.322 98.9373 505.616 86.7367 495.78 75.5004C492.725 72.0104 489.534 68.6168 486.217 65.3754C485.492 64.6672 484.738 64.0042 483.998 63.3129Z" fill="black"/>
<path d="M266.162 307.65C345.184 290.561 441.48 335.478 488.208 358.665C502.378 365.697 509.438 372.911 509.626 371.441C519.947 291.001 479.692 217.136 412.906 200.465C345.46 183.629 274.486 230.997 246.343 308.187C245.922 309.341 252.805 310.539 266.162 307.65Z" fill="#B7F2CC"/>
<path d="M421.028 329.45L467.148 306.02L415.098 301.394L442.059 274.289L403.915 276.532L397.229 207.875L342.59 265.866L322.589 243.78L325.026 284.652L301.667 281.3L323.891 307.96L421.028 329.45Z" fill="#DFFFEA"/>
<path d="M430.925 146.719C436.081 146.724 441.697 149.741 443.55 161.819C443.55 161.819 434.808 171.803 422.714 190.667C437.465 195.805 448.555 201.212 448.555 201.212C454.22 217.178 437.87 222.75 437.87 222.75C432.554 219.685 421.443 215.958 409.808 212.374C399.723 230.513 388.789 253.139 378.963 280.448C378.963 280.448 362.988 291.039 356.159 274.177C356.159 274.177 369.861 239.171 386.302 205.57C378.475 203.486 367.913 200.649 367.913 200.649C358.581 193.714 373.114 181.698 373.114 181.698C380.62 181.007 389.14 181.905 397.689 183.638C405.779 168.988 413.936 156.291 421.083 149.728C421.083 149.728 425.768 146.714 430.925 146.719Z" fill="#FFA0CA"/>
<path d="M637.391 320.717C637.391 320.717 563.73 115.95 492.933 53.9316C492.933 53.9316 347.559 82.1204 209.481 251.124C209.481 251.124 220.176 283.434 239.303 307.971C239.303 307.971 421.031 282.904 538.801 388.716C538.801 388.716 549.897 399.372 568.851 392.755C587.804 386.138 629.849 360.962 638.2 347.634C638.2 347.634 639.866 332.228 637.391 320.717Z" fill="#AF93E5"/>
<path d="M272.875 306.999C351.897 289.91 448.192 334.827 494.921 358.014C509.091 365.045 516.15 372.259 516.339 370.79C526.66 290.35 486.404 216.484 419.619 199.813C352.173 182.978 281.198 230.346 253.056 307.536C252.635 308.69 259.518 309.888 272.875 306.999Z" fill="#ABACE3"/>
<path d="M427.741 328.799L473.861 305.37L421.811 300.743L448.772 273.639L410.628 275.882L403.942 207.225L349.303 265.215L329.302 243.13L331.739 284.002L308.38 280.649L330.604 307.31L427.741 328.799Z" fill="#C3C4E1"/>
<path d="M437.637 146.068C442.793 146.073 448.409 149.09 450.261 161.167C450.261 161.167 441.52 171.151 429.426 190.016C444.177 195.153 455.266 200.56 455.266 200.56C460.932 216.526 444.582 222.098 444.582 222.098C439.266 219.033 428.155 215.307 416.52 211.723C406.435 229.861 395.501 252.487 385.675 279.796C385.675 279.796 369.7 290.388 362.871 273.526C362.871 273.526 376.573 238.52 393.014 204.918C385.187 202.834 374.624 199.998 374.624 199.998C365.293 193.062 379.826 181.046 379.826 181.046C387.332 180.356 395.852 181.253 404.401 182.987C412.491 168.336 420.648 155.64 427.795 149.076C427.795 149.076 432.48 146.063 437.637 146.068Z" fill="#FFD000"/>
<path d="M484.263 44.65C486.92 45.2511 489.612 45.7657 492.249 46.4495C492.452 46.5023 492.563 46.7115 492.727 46.8431C492.764 46.8732 492.904 46.9986 492.952 47.04C493.681 47.6759 494.424 48.334 495.145 48.9801C495.528 49.3234 495.917 49.6469 496.298 49.9923C496.679 50.3381 497.043 50.6847 497.422 51.0327C501.437 54.7156 505.368 58.5228 509.176 62.4204C524.266 77.8696 537.517 94.9048 548.878 113.257C551.812 117.995 550.326 124.213 545.588 127.147C540.85 130.082 534.632 128.623 531.698 123.886C522.246 108.632 511.441 94.3577 499.194 81.2313C494.927 76.6578 490.493 72.2294 485.922 67.9596C485.089 67.1811 484.235 66.4221 483.391 65.654C482.474 65.8864 481.55 66.111 480.636 66.3569C475.546 67.7272 470.511 69.2768 465.509 70.9401C450.449 75.9481 435.723 81.9599 421.364 88.7106C378.721 108.757 338.757 135.053 302.678 165.303C275.953 187.711 251.041 212.178 228.025 238.381C224.064 242.892 220.149 247.44 216.3 252.047C215.843 252.594 215.406 253.157 214.951 253.706C216.269 257.152 217.542 260.626 219.028 263.997C222.292 271.405 225.915 278.653 229.994 285.647C232.259 289.532 234.659 293.33 237.248 297.007C237.726 297.686 238.221 298.361 238.71 299.032C239.659 299.16 240.596 299.27 241.55 299.341C245.375 299.624 249.222 299.551 253.05 299.369C258.93 299.093 263.937 303.64 264.213 309.52C264.489 315.399 259.942 320.406 254.062 320.682C247.707 320.977 241.276 320.991 234.97 320.036C233.511 319.814 232.039 319.517 230.612 319.136C230.182 319.021 229.47 318.945 229.094 318.686C227.462 317.561 225.818 316.478 224.258 315.256C223.957 315.021 223.787 314.63 223.555 314.328C223.127 313.771 222.709 313.232 222.289 312.669C221.25 311.272 220.215 309.854 219.224 308.423C215.588 303.173 212.27 297.707 209.186 292.115C204.364 283.367 200.119 274.304 196.393 265.037C195.444 262.678 194.532 260.286 193.665 257.895C193.404 257.173 193.156 256.457 192.906 255.73C192.859 255.593 192.659 255.29 192.681 255.14C193.146 251.985 193.537 248.805 194.087 245.664C194.12 245.476 194.309 245.367 194.425 245.214C194.511 245.1 194.615 244.988 194.706 244.877C195.38 244.049 196.051 243.226 196.73 242.402C197.094 241.961 197.461 241.521 197.827 241.081C198.192 240.64 198.557 240.199 198.923 239.759C199.288 239.322 199.655 238.874 200.02 238.438C204.694 232.853 209.44 227.322 214.276 221.876C233.683 200.017 254.465 179.426 276.444 160.158C294.625 144.219 313.788 129.33 333.72 115.647C364.08 94.8059 396.36 76.6772 430.361 62.4767C441.926 57.6468 453.696 53.2817 465.677 49.5987C470.156 48.2218 474.68 46.9267 479.23 45.8028C480.446 45.5024 481.662 45.1995 482.885 44.9311C483.148 44.8736 484.014 44.5936 484.263 44.65Z" fill="black"/>
<path d="M484.855 47.6018C486.727 48.0272 488.62 48.3835 490.478 48.8671C490.513 48.8761 490.819 49.1387 490.928 49.2327C491.329 49.5773 491.717 49.9178 492.109 50.273C492.488 50.6166 492.857 50.9676 493.234 51.3134C493.623 51.6708 494.029 52.0485 494.415 52.41C498.03 55.7986 501.472 59.3599 504.79 63.0385C517.6 77.2374 528.673 93.0382 538.841 109.208C552.459 130.866 564.65 153.384 576.069 176.269C588.232 200.647 599.497 225.455 610.148 250.528C616.746 266.061 623.109 281.695 629.212 297.429C631.089 302.27 632.932 307.131 634.751 311.994C635.154 313.072 635.797 314.84 636.55 316.886C637.224 317.766 637.782 318.763 638.012 319.923C638.324 321.497 638.15 320.804 638.322 321.498C638.729 323.137 638.852 324.91 639.025 326.587C639.359 329.833 639.492 333.11 639.503 336.372C639.512 339.357 639.415 342.335 639.222 345.314C639.163 346.216 639.077 347.112 638.997 348.013C638.969 348.322 639.012 348.755 638.912 349.053C638.555 350.117 638.224 351.186 637.816 352.231C637.578 352.84 636.994 353.479 636.607 354.002C635.882 354.98 635.087 355.937 634.273 356.842C631.703 359.7 628.828 362.273 625.866 364.715C620.826 368.869 615.477 372.637 610.035 376.243C603.905 380.306 597.638 384.144 591.224 387.743C584.882 391.302 578.401 394.663 571.739 397.585C565.322 400.399 558.723 402.693 551.663 402.983C549.073 403.09 546.461 402.95 543.902 402.533C541.725 402.178 539.568 401.616 537.491 400.874C534.532 399.818 531.693 398.381 529.14 396.544C528.553 396.122 528 395.668 527.453 395.195C527.38 395.131 527.246 395.016 527.144 394.913C527.178 394.944 527.012 394.787 527.031 394.829C523.785 391.944 520.506 389.103 517.134 386.366C509.267 379.979 501.022 374.011 492.475 368.567C483.789 363.035 474.878 357.902 465.678 353.271C441.051 340.872 414.77 331.827 387.961 325.49C354.42 317.563 319.912 313.777 285.471 313.428C273.546 313.307 261.605 313.607 249.705 314.412C246.299 314.642 242.896 314.924 239.498 315.256C238.058 315.396 236.634 315.537 235.196 315.705C234.847 315.746 233.886 315.973 233.594 315.902C231.859 315.484 230.077 315.222 228.392 314.637C227.941 314.481 227.65 314.027 227.295 313.709C226.639 313.122 226.079 312.213 225.552 311.516C225.345 311.242 225.138 310.948 224.933 310.672C224.729 310.398 224.517 310.133 224.315 309.857C224.113 309.581 223.925 309.319 223.724 309.042C220.778 304.958 218.034 300.715 215.458 296.389C210.143 287.462 205.499 278.134 201.427 268.58C199.962 265.143 198.594 261.68 197.294 258.176C196.927 257.19 196.544 256.19 196.197 255.196C196.132 255.011 195.805 254.25 195.831 254.071C196.152 251.899 196.407 249.739 196.787 247.576C196.806 247.472 197.08 247.166 197.181 247.042C197.515 246.63 197.857 246.242 198.193 245.833C198.557 245.39 198.925 244.925 199.29 244.483C199.653 244.044 200.023 243.628 200.387 243.19C203.267 239.717 206.16 236.262 209.103 232.842C219.627 220.613 230.567 208.713 241.888 197.217C288.67 149.716 342.415 108.72 402.104 78.7845C421.434 69.0898 441.444 60.5752 462.023 53.9002C467.622 52.0841 473.271 50.3968 478.978 48.9515C480.405 48.5901 481.843 48.2591 483.28 47.9392C483.577 47.8732 484.572 47.5377 484.855 47.6018ZM484.264 62.448C480.536 63.3295 476.818 64.2494 473.158 65.3442C465.617 67.5993 458.167 70.1583 450.804 72.936C426.896 81.9545 403.785 93.2052 381.69 106.031C338.869 130.888 299.458 161.324 263.933 195.783C245.248 213.907 227.752 233.181 211.128 253.2C214.031 261.171 217.489 268.989 221.306 276.537C225.558 284.945 230.337 293.228 235.956 300.831C238.764 300.531 241.575 300.268 244.391 300.044C252.515 299.396 260.65 299.004 268.797 298.807C300.48 298.039 332.356 300.108 363.611 305.442C406.194 312.711 448.397 325.807 486.036 347.31C499.134 354.793 511.731 363.119 523.573 372.475C526.859 375.071 530.107 377.721 533.274 380.461C534.767 381.753 536.153 383.199 537.688 384.341C539.867 385.962 542.47 387.026 545.111 387.603C553.34 389.399 561.25 386.066 568.59 382.654C575.308 379.53 581.819 375.983 588.216 372.25C593.648 369.081 599.004 365.778 604.187 362.212C609.179 358.778 614.14 355.226 618.696 351.218C620.264 349.838 621.798 348.416 623.194 346.86C623.56 346.452 623.895 346.024 624.235 345.595C624.255 345.323 624.272 345.051 624.291 344.779C624.422 342.864 624.511 340.935 624.544 339.015C624.599 335.843 624.549 332.675 624.291 329.511C624.18 328.152 624.046 326.783 623.841 325.434C623.777 325.009 623.842 325.431 623.363 322.819C623.302 322.511 623.385 322.225 623.363 321.92C623.262 321.645 623.155 321.379 623.054 321.104C622.382 319.279 621.713 317.441 621.029 315.621C618.98 310.166 616.88 304.741 614.759 299.313C608.332 282.863 601.617 266.534 594.655 250.303C582.515 222.006 569.562 193.998 555.29 166.709C545.35 147.704 534.834 128.984 523.123 111.008C514.959 98.4761 506.242 86.2239 496.383 74.9605C493.315 71.4552 490.129 68.064 486.795 64.8099C485.969 64.0042 485.11 63.232 484.264 62.448Z" fill="black"/>
<path d="M430.924 139.688C441.073 139.698 448.376 146.945 450.494 160.748C450.808 162.799 450.202 164.895 448.835 166.456C448.791 166.506 447.845 167.607 447.429 168.115C446.22 169.59 444.834 171.373 443.267 173.429C440.187 177.474 436.875 182.229 433.454 187.291C437.246 188.757 441.152 190.198 444.617 191.706C446.519 192.533 448.239 193.29 449.734 193.983C450.645 194.406 451.292 194.71 451.646 194.883C453.302 195.691 454.573 197.112 455.189 198.848C459.051 209.73 455.736 218.729 448.216 224.801C446.489 226.195 444.671 227.325 442.846 228.231C442.199 228.552 441.608 228.846 441.046 229.074C440.672 229.227 440.365 229.337 440.146 229.412C438.228 230.066 436.109 229.862 434.354 228.849C430.969 226.898 423.411 224.175 413.266 220.92C402.978 239.997 393.635 260.42 385.57 282.836C385.057 284.259 384.103 285.458 382.842 286.294C382.544 286.492 382.097 286.788 381.521 287.11C380.62 287.613 379.631 288.109 378.54 288.572C374.095 290.458 369.437 291.314 364.734 290.428C358.07 289.172 352.764 284.546 349.635 276.818C348.96 275.152 348.951 273.291 349.607 271.617C349.635 271.545 351.225 267.526 351.856 265.965C353.657 261.51 355.707 256.573 357.958 251.231C363.843 237.268 370.043 223.382 376.319 210.179C371.435 208.872 366.113 207.46 366.084 207.452C365.228 207.222 364.433 206.827 363.722 206.299C358.993 202.784 357.06 197.731 357.986 192.381C358.655 188.513 360.648 184.92 363.525 181.443C364.626 180.113 365.792 178.898 366.956 177.787C367.669 177.107 368.26 176.585 368.643 176.269C369.733 175.368 371.058 174.824 372.467 174.695C378.854 174.107 386.179 174.723 393.977 175.988C402.328 161.313 409.695 150.646 416.33 144.552C416.626 144.281 416.949 144.038 417.286 143.821C417.573 143.637 417.976 143.388 418.524 143.09C419.379 142.625 420.332 142.168 421.364 141.74C424.423 140.471 427.623 139.685 430.924 139.688ZM430.924 153.747C429.709 153.746 428.245 154.088 426.762 154.703C426.079 154.986 425.73 155.186 425.384 155.378C419.603 160.879 412.348 171.641 403.846 187.038C402.362 189.727 399.293 191.135 396.282 190.525C388.646 188.976 381.878 188.355 376.066 188.613C375.487 189.197 374.911 189.769 374.379 190.412C373.054 192.013 372.262 193.443 371.989 194.433C375.209 195.295 386.762 198.407 388.1 198.763C392.38 199.903 394.574 204.682 392.627 208.661C392.005 209.932 391.369 211.214 390.743 212.513C383.98 226.552 377.271 241.619 370.92 256.686C368.696 261.962 366.679 266.858 364.903 271.251C364.63 271.927 364.371 272.607 363.947 273.669C364.985 275.294 366.078 276.354 367.349 276.594C368.889 276.884 370.91 276.508 373.029 275.609C373.196 275.539 373.215 275.51 373.366 275.441C382.192 251.35 392.313 229.331 403.649 208.942C405.264 206.039 408.713 204.674 411.888 205.652C423.927 209.361 432.19 212.266 437.784 214.875C438.327 214.544 438.887 214.267 439.387 213.863C441.921 211.817 443.033 209.483 442.536 206.187C441.425 205.68 440.319 205.16 438.993 204.584C433.844 202.343 428.27 200.123 422.432 198.032C421.759 197.791 421.081 197.536 420.408 197.301C416.115 195.806 414.328 190.696 416.78 186.87C422.176 178.453 427.343 171.125 432.076 164.91C433.496 163.045 434.708 161.484 435.872 160.045C435.223 157.583 434.445 155.659 433.51 154.731C432.811 154.036 432.057 153.748 430.924 153.747Z" fill="black"/>
<path d="M572.028 600.51C572.028 600.51 625.011 570.082 646.679 579.968C683.143 596.606 717.559 664.828 694.816 688.511C672.073 712.194 658.191 716.344 630.419 722.366C602.647 728.388 551.153 716.154 523.945 684.714" fill="#F3886D"/>
<path d="M702.229 654.67C702.229 654.67 616.699 611.053 529.229 690.24L542.932 710.048L564.621 717.941L591.941 724.246L619.959 724.122L644.11 718.105C644.11 718.105 662.33 710.01 666.25 708.491C670.171 706.972 686.948 695.609 686.948 695.609L700.082 681.369L702.229 654.67Z" fill="#F9B192"/>
<path d="M643.608 634.646C649.509 634.84 655.396 635.436 661.21 636.474C664.543 637.069 667.92 637.752 671.135 638.836C674.834 640.085 676.8 644.106 675.55 647.805C674.3 651.504 670.307 653.47 666.608 652.22C666.639 652.23 666.526 652.201 666.496 652.192C666.39 652.158 666.293 652.139 666.187 652.107C665.933 652.031 665.683 651.953 665.427 651.882C664.685 651.676 663.928 651.496 663.178 651.32C661.1 650.831 659.018 650.405 656.908 650.083C650.391 649.089 643.785 648.715 637.197 648.902C617.677 649.456 598.571 654.696 581.018 663.129C577.297 664.908 572.843 663.335 571.064 659.615C569.285 655.894 570.858 651.44 574.579 649.661C581.862 646.195 589.353 643.185 597.073 640.832C612.12 636.245 627.887 634.13 643.608 634.646Z" fill="black"/>
<path d="M617.486 636.784C620.196 636.287 623.076 637.402 624.685 639.849C626.618 642.777 628.437 645.8 630.224 648.818C633.413 654.206 636.316 659.778 637.928 665.858C638.957 669.851 636.551 673.911 632.558 674.94C628.564 675.969 624.505 673.591 623.476 669.598C622.605 666.083 621.073 662.73 619.511 659.475C617.55 655.39 615.347 651.437 612.875 647.637C610.73 644.375 611.637 639.997 614.9 637.852C615.715 637.316 616.583 636.95 617.486 636.784Z" fill="black"/>
<path d="M627.187 566.096C629.608 565.983 632.043 566.013 634.526 566.264C646.436 567.472 657.224 573.154 666.468 580.52C674.543 586.955 681.543 594.669 687.669 602.958C692.962 610.121 697.594 617.774 701.475 625.79C706.296 635.749 710.092 646.381 711.682 657.366C712.656 664.099 712.783 671.036 711.4 677.724C710.323 682.932 708.292 687.945 705.158 692.26C703.658 694.326 701.881 696.153 700.097 697.968C698.685 699.405 697.252 700.824 695.795 702.214C686.245 711.329 675.758 718.958 663.487 723.977C655.726 727.152 647.602 729.264 639.446 731.147C631.207 733.05 622.984 734.682 614.534 735.253C596.397 736.478 578.074 733.563 561.166 726.902C546.777 721.232 533.865 713.052 521.97 703.226C517.434 699.475 516.785 692.747 520.536 688.212C524.288 683.676 531.015 683.054 535.551 686.806C543.345 693.261 551.656 698.989 560.745 703.479C574.24 710.146 589.07 713.945 604.13 714.305C610.003 714.445 615.894 714.099 621.704 713.236C626.09 712.586 630.429 711.6 634.751 710.621C640.634 709.289 646.488 707.847 652.184 705.841C656.694 704.254 661.064 702.274 665.174 699.824C671.108 696.288 676.47 691.875 681.483 687.143C683.013 685.698 684.505 684.229 685.981 682.729C686.959 681.735 687.956 680.768 688.737 679.607C689.967 677.78 690.728 675.65 691.183 673.506C692.261 668.431 691.856 663.082 690.958 658.013C689.521 649.89 686.656 642.045 683.113 634.619C679.827 627.729 675.854 621.17 671.332 615.021C666.516 608.472 661.07 602.334 654.799 597.138C648.716 592.099 641.633 587.657 633.682 586.509C626.314 585.445 619.114 587.442 612.172 589.715C606.877 591.45 601.171 588.571 599.435 583.276C597.699 577.98 600.578 572.274 605.874 570.538C612.896 568.234 619.925 566.435 627.187 566.096Z" fill="black"/>
<path d="M637.704 570.961C642.139 571.132 646.105 571.982 649.598 573.576C668.768 582.323 687.82 604.027 699.31 628.631C711.609 654.966 713.111 679.631 699.901 693.386C688.215 705.555 678.377 713.134 667.565 718.383C658.312 722.875 649.541 725.414 631.912 729.236C616.459 732.587 595.351 730.758 574.861 724.288C552.323 717.17 532.307 705.12 518.625 689.309L529.254 680.115C541.092 693.794 558.867 704.493 579.078 710.875C597.386 716.657 616.086 718.272 628.931 715.487C645.524 711.889 653.475 709.595 661.436 705.73C670.609 701.276 679.138 694.68 689.75 683.629C697.832 675.214 696.681 656.208 686.573 634.564C676.385 612.749 659.514 593.563 643.75 586.37C638.462 583.957 628.643 584.811 615.969 588.732C610.156 590.53 603.962 592.907 597.552 595.705C592.066 598.1 586.723 600.67 581.778 603.24C580.05 604.138 578.492 604.971 577.138 605.715C576.669 605.973 575.594 606.581 575.536 606.615L568.534 594.411C568.878 594.214 569.51 593.855 570.39 593.371C571.837 592.576 573.484 591.705 575.311 590.756C580.522 588.048 586.13 585.33 591.928 582.799C598.787 579.805 605.45 577.258 611.808 575.291C621.635 572.251 630.313 570.676 637.704 570.961Z" fill="black"/>
<path opacity="0.197261" d="M523.805 389.432C523.805 389.432 527.393 729.626 217.265 681.568L266.852 722.562L335.638 747.575L444.786 743.027L522.1 694.138L559.612 718.785L617.845 727.543L667.263 709.203L696.998 685.126L697.561 660.647L660.297 646.614L593.464 649.285C593.464 649.285 569.553 612.179 572.436 602.482L605.239 585.757L608.791 449.757L593.694 418.561L579.164 393.196L545.782 397.912L523.805 389.432Z" fill="black"/>
<path opacity="0.197261" d="M143.977 522.189L97.2016 515.834L146.35 580.85L143.977 522.189Z" fill="black"/>
</svg>
