<svg width="800" height="800" viewBox="0 0 800 800" fill="none" xmlns="http://www.w3.org/2000/svg">
<path d="M143.846 528.352C143.846 402.596 245.792 300.65 371.548 300.65C497.304 300.65 599.25 402.596 599.25 528.352C599.25 654.109 497.304 756.055 371.548 756.055C245.792 756.055 143.846 654.109 143.846 528.352Z" fill="#F3886D"/>
<path d="M392.107 427.534C349.696 427.534 299.882 443.31 274.41 477.661C264.032 443.918 232.629 419.4 195.483 419.4C185.267 419.4 175.484 421.256 166.453 424.648C166.453 424.648 128.106 499.603 147.008 566.89C153.963 591.65 192.475 586.011 195.544 577.538C198.614 569.065 187.039 581.778 190.257 581.397C186.568 591.24 187.102 603.357 187.102 614.472C187.102 664.624 240.517 706.287 291.14 706.287C341.764 706.287 382.804 665.647 382.804 615.494C382.804 607.768 381.713 600.302 379.88 593.14C433.189 579.974 475.213 539.412 473.157 509.926C470.229 467.942 449.939 427.534 392.107 427.534Z" fill="#F9B192"/>
<path d="M371.541 290.459C240.162 290.459 133.664 396.985 133.664 528.363C133.664 659.742 240.162 766.24 371.541 766.24C502.919 766.24 609.417 659.742 609.417 528.363C609.417 396.985 502.919 290.458 371.541 290.459ZM371.541 310.816C491.675 310.816 589.06 408.229 589.06 528.363C589.06 648.498 491.675 745.883 371.541 745.883C251.406 745.883 154.021 648.498 154.021 528.363C154.021 408.229 251.406 310.816 371.541 310.816Z" fill="black"/>
<path d="M378.4 495.354C373.799 494.918 370.511 497.697 368.362 501.793C366.905 504.572 365.963 508.127 365.607 511.887C365.25 515.648 365.512 519.316 366.422 522.319C367.763 526.746 370.452 530.094 375.054 530.53C379.656 530.966 382.916 528.187 385.064 524.091C386.522 521.312 387.491 517.757 387.848 513.996C388.204 510.236 387.914 506.568 387.004 503.565C385.663 499.137 383.002 495.79 378.4 495.354Z" fill="black"/>
<path d="M202.074 482.475C197.473 482.039 194.214 484.818 192.064 488.914C190.607 491.693 189.637 495.248 189.281 499.008C188.925 502.769 189.214 506.437 190.124 509.44C191.466 513.867 194.155 517.215 198.757 517.651C203.358 518.087 206.617 515.28 208.766 511.183C210.224 508.405 211.194 504.878 211.55 501.117C211.906 497.357 211.617 493.689 210.707 490.686C209.365 486.258 206.676 482.911 202.074 482.475Z" fill="black"/>
<path d="M259.041 616.148C258.17 616.198 257.286 616.414 256.454 616.823C253.126 618.46 251.753 622.493 253.389 625.821C255.154 629.41 257.337 632.886 259.8 636.028C262.064 638.915 264.706 641.679 268.011 643.366C269.768 644.263 271.711 644.824 273.691 644.885C276.87 644.982 280.08 643.814 282.941 642.551C289.02 639.869 294.709 636.114 300.009 632.119C303.131 629.754 303.752 625.315 301.387 622.194C299.021 619.072 294.583 618.45 291.461 620.816C289.159 622.589 286.741 624.234 284.291 625.793C282.934 626.656 281.559 627.505 280.158 628.295C278.611 629.168 277.026 629.967 275.378 630.629C274.968 630.793 274.538 630.933 274.112 631.051C274.084 631.059 274.061 631.077 274.028 631.079C273.959 631.043 273.889 631 273.831 630.966C273.478 630.758 273.167 630.53 272.847 630.264C272.176 629.705 271.59 629.039 271.019 628.38C270.574 627.866 270.164 627.376 269.754 626.833C269.134 626.012 268.545 625.164 267.983 624.303C267.059 622.886 266.204 621.404 265.452 619.888C264.224 617.392 261.654 615.999 259.041 616.148Z" fill="black"/>
<path d="M195.495 412.715C184.651 412.715 174.064 414.658 164.115 418.395C162.558 418.979 161.274 420.119 160.516 421.6C160.293 422.036 159.899 422.831 159.363 423.962C158.487 425.812 157.511 427.953 156.467 430.373C153.499 437.255 150.544 444.982 147.779 453.401C137.252 485.456 132.416 518.16 136.532 548.918C137.439 555.695 138.781 562.277 140.581 568.684C144.578 582.915 156.958 590.461 172.354 591.347C175.345 591.52 178.309 591.39 181.183 591.066C180.702 594.895 180.475 599.11 180.424 604.029C180.404 605.918 180.406 607.409 180.424 610.721C180.434 612.623 180.424 613.438 180.424 614.46C180.424 640.5 193.636 665.467 215.824 684.277C237.07 702.288 264.677 712.957 291.152 712.957C345.453 712.957 389.48 669.352 389.48 615.501C389.48 609.641 388.717 603.779 387.596 597.899C439.385 582.9 482.131 542.575 479.822 509.468C478.132 485.224 471.159 464.233 458.368 448.734C443.423 430.624 421.255 420.841 392.095 420.841C347.42 420.841 303.025 436.775 276.587 464.817C262.301 433.615 230.966 412.715 195.495 412.715ZM195.495 426.071C229.05 426.071 258.325 448.054 268.039 479.635C269.649 484.869 276.503 486.03 279.764 481.632C301.818 451.889 346.766 434.225 392.095 434.225C417.384 434.225 435.752 442.291 448.077 457.225C458.892 470.331 464.983 488.715 466.495 510.396C467.335 522.45 458.686 538.147 442.763 552.714C425.811 568.222 402.73 580.615 378.289 586.652C374.687 587.541 372.476 591.211 373.396 594.806C375.186 601.798 376.124 608.673 376.124 615.501C376.124 661.947 338.105 699.601 291.152 699.601C267.927 699.601 243.349 690.114 224.456 674.098C205.09 657.681 193.78 636.29 193.78 614.46C193.78 613.406 193.761 605.966 193.78 604.169C193.858 596.61 194.415 591.122 195.664 586.567C198.607 584.764 200.84 582.527 201.821 579.819C202.458 578.062 202.804 576.57 202.749 575.039C202.618 571.329 199.934 567.994 195.635 567.953C192.581 567.925 190.619 569.244 188.156 571.665C186.687 573.109 185.289 574.866 184.388 576.417C184.294 576.579 184.249 576.735 184.163 576.895C180.854 577.767 176.996 578.243 173.113 578.02C162.87 577.43 155.665 573.039 153.431 565.085C151.804 559.294 150.601 553.313 149.775 547.146C145.966 518.679 150.508 487.895 160.46 457.591C163.094 449.57 165.911 442.187 168.727 435.659C169.638 433.547 170.463 431.748 171.229 430.12C178.978 427.504 187.128 426.071 195.495 426.071Z" fill="black" fill-opacity="0.5"/>
<path d="M371.94 589.881C372.573 577.462 389.248 568.907 409.184 570.773C429.121 572.64 444.769 584.221 444.136 596.64C443.503 609.059 426.828 617.614 406.892 615.748C386.955 613.881 371.307 602.3 371.94 589.881Z" fill="#FF497F" stroke="black" stroke-width="0.0185569" stroke-miterlimit="10" stroke-linecap="round" stroke-linejoin="round"/>
<path d="M127.852 580.278C127.852 568.78 144.479 559.459 164.989 559.459C185.498 559.459 202.125 568.78 202.125 580.278C202.125 591.776 185.498 601.097 164.989 601.097C144.479 601.097 127.852 591.776 127.852 580.278Z" fill="#FF497F" stroke="black" stroke-width="0.0188804" stroke-miterlimit="10" stroke-linecap="round" stroke-linejoin="round"/>
<path d="M401.261 563.904C381.777 564.689 366.033 574.58 365.27 589.548C364.415 606.334 383.21 620.231 406.266 622.39C429.493 624.564 449.933 614.077 450.805 596.971C451.661 580.185 432.865 566.288 409.809 564.129C406.906 563.858 404.045 563.792 401.261 563.904ZM402.526 577.204C404.473 577.157 406.491 577.234 408.572 577.429C425.388 579.003 437.888 588.243 437.477 596.296C437.083 604.028 424.149 610.648 407.503 609.09C390.687 607.515 378.188 598.276 378.598 590.223C378.943 583.457 388.898 577.534 402.526 577.204Z" fill="black"/>
<path d="M164.986 552.656C141.222 552.656 121.066 563.96 121.066 580.268C121.066 596.576 141.222 607.88 164.986 607.88C188.75 607.88 208.906 596.576 208.906 580.268C208.906 563.96 188.75 552.656 164.986 552.656ZM164.986 566.265C182.242 566.265 195.325 573.58 195.325 580.268C195.325 586.956 182.242 594.299 164.986 594.299C147.73 594.299 134.647 586.956 134.647 580.268C134.647 573.58 147.73 566.265 164.986 566.265Z" fill="black"/>
<path d="M561.744 530.894C561.744 530.894 603.667 498.673 637.816 503.404C671.965 508.135 681.888 592.226 648.483 627.8C615.078 663.373 578.35 665.171 551.33 650.632" fill="#F3886D"/>
<path d="M561.744 530.894C561.744 530.894 603.667 498.673 637.816 503.404C671.965 508.135 681.888 592.226 648.483 627.8C615.078 663.373 578.35 665.171 551.33 650.632" stroke="black" stroke-width="0.0192069" stroke-miterlimit="10" stroke-linejoin="round"/>
<path d="M666.148 538.592C603.263 561.446 571.295 611.471 555.139 652.497C581.743 664.902 616.619 661.75 648.49 627.81C668.023 607.008 672.536 568.218 666.148 538.592Z" fill="#F9B192"/>
<path d="M636.102 547.175C635.182 547.143 634.233 547.276 633.319 547.625C616.225 554.198 602.379 566.857 590.58 580.551C585.574 586.36 580.741 592.418 576.549 598.855C574.524 601.962 575.382 606.138 578.489 608.163C581.596 610.188 585.771 609.301 587.796 606.194C592.438 599.102 597.93 592.489 603.711 586.315C613.498 575.862 624.84 566.007 638.38 560.868C642.039 559.47 643.883 555.389 642.485 551.73C641.437 548.986 638.865 547.273 636.102 547.175Z" fill="black"/>
<path d="M608.827 568.037C606.251 567.578 603.537 568.657 602.021 570.989C600 574.098 600.882 578.275 603.991 580.296C603.954 580.272 604.068 580.328 604.103 580.352C604.183 580.409 604.247 580.462 604.327 580.521C604.507 580.652 604.686 580.806 604.861 580.943C605.305 581.288 605.734 581.639 606.155 582.011C607.385 583.1 608.546 584.287 609.557 585.582C612.788 589.724 614.672 594.644 614.646 599.922C614.657 603.839 617.843 607.019 621.76 607.008C625.677 606.997 628.857 603.812 628.846 599.894C628.819 596.739 628.457 593.626 627.581 590.587C625.701 584.067 621.74 578.29 616.896 573.604C615.17 571.935 613.317 570.334 611.301 569.021C610.524 568.516 609.686 568.19 608.827 568.037Z" fill="black"/>
<path d="M629.381 488.689C619.78 488.955 609.662 491.481 599.183 495.831L606.887 514.361C617.837 509.816 627.745 507.925 636.045 509.075C646.204 510.482 655.83 527.933 658.286 552.882C660.937 579.812 654.509 606.715 641.162 620.927C613.63 650.247 582.452 655.981 556.078 641.791L546.574 659.477C581.109 678.059 622.164 670.509 655.812 634.677C693.291 594.765 683.49 495.388 638.801 489.195C635.716 488.768 632.581 488.601 629.381 488.689Z" fill="black"/>
<path d="M629.803 496.028C626.743 496.071 623.613 496.322 620.412 496.787C607.648 498.641 594.254 503.658 580.765 510.818C574.784 513.993 569.176 517.371 564.092 520.772C562.305 521.966 560.701 523.086 559.311 524.09C558.461 524.704 557.877 525.152 557.54 525.411C554.513 527.738 553.948 532.085 556.275 535.112C558.601 538.139 562.92 538.704 565.947 536.377C565.993 536.342 566.976 535.622 567.409 535.309C568.667 534.4 570.124 533.371 571.768 532.272C576.484 529.118 581.719 525.963 587.261 523.021C599.464 516.543 611.443 512.073 622.408 510.481C627.582 509.729 632.408 509.639 636.86 510.256C640.642 510.78 644.125 508.132 644.649 504.351C645.173 500.569 642.554 497.087 638.772 496.562C635.865 496.159 632.863 495.985 629.803 496.028Z" fill="black"/>
<path d="M240.239 365.274C240.239 365.274 199.8 323.942 266.776 278.647C333.753 233.353 560.368 291.412 560.368 291.412L567.471 321.845C567.471 321.845 575.045 361.336 558.454 382.445C541.862 403.555 364.176 435.611 240.239 365.274Z" fill="#DFFFEA"/>
<path d="M236.854 362.332C236.854 362.332 196.415 321 263.392 275.706C330.368 230.411 556.984 288.471 556.984 288.471L564.087 318.903C564.087 318.903 571.661 358.394 555.069 379.504C538.478 400.614 360.792 432.669 236.854 362.332Z" fill="#C3C4E1"/>
<path d="M358.634 254.694C315.631 254.026 282.941 259.647 263.033 273.111C239.6 288.958 226.626 305.821 222.712 323.189C219.683 336.627 222.267 349.101 228.364 360.023C229.863 362.709 231.466 365.091 233.087 367.165C233.667 367.907 234.218 368.567 234.718 369.133C235.043 369.501 235.305 369.773 235.477 369.949C235.914 370.395 236.396 370.765 236.94 371.073C293.697 403.284 365.777 417.047 439.81 414.825C498.938 413.05 552.736 400.512 563.697 386.566C569.327 379.403 572.806 370.292 574.55 359.714C576.317 348.995 576.213 337.717 574.972 327.041C574.773 325.325 574.541 323.771 574.325 322.401C574.192 321.557 574.084 320.926 574.016 320.574C573.999 320.487 566.874 289.897 566.874 289.897C566.308 287.472 564.45 285.566 562.038 284.948C561.971 284.931 558.219 283.99 556.724 283.627C552.462 282.592 547.566 281.436 542.102 280.196C526.502 276.656 509.487 273.125 491.603 269.821C461.71 264.299 432.477 260.018 405 257.421C388.468 255.859 372.968 254.916 358.634 254.694ZM359.533 268.106C373.176 268.343 387.953 269.201 403.735 270.693C430.782 273.249 459.653 277.497 489.185 282.952C506.881 286.221 523.718 289.741 539.15 293.243C544.547 294.468 549.376 295.598 553.574 296.617C553.92 296.701 554.274 296.801 554.784 296.927L560.913 323.104C560.954 323.315 561.029 323.787 561.138 324.482C561.327 325.678 561.523 327.056 561.7 328.587C562.81 338.13 562.898 348.239 561.363 357.549C559.957 366.08 557.281 373.146 553.209 378.328C550.287 382.045 536.817 387.582 517.64 392.049C495.593 397.185 468.168 400.605 439.388 401.469C368.004 403.611 298.69 390.464 244.447 359.967C244.19 359.671 244.026 359.466 243.603 358.926C242.389 357.374 241.18 355.556 240.032 353.5C235.426 345.248 233.497 336.023 235.73 326.113C238.829 312.364 249.706 298.26 270.512 284.189C287.836 272.474 318.604 267.396 359.533 268.106Z" fill="black"/>
<path d="M168.625 212.444C171.406 154.867 279.349 129.544 411.676 135.929C544.002 142.314 649.009 181.498 646.228 239.075C643.446 296.652 543.262 339.659 410.935 333.274C278.609 326.889 165.843 270.021 168.625 212.444Z" fill="#93E9CA"/>
<path d="M368.691 161.19L348.342 194.156L399.692 168.717L414.52 200.989L427.603 171.508L476.273 190.348L462.317 156.331L416.962 145.516L372.479 144.992L368.691 161.19Z" fill="#DFFFEA"/>
<path d="M178.529 244.283C208.632 289.486 303.298 328.082 410.923 333.275C505.193 337.824 582.943 317.234 620.992 284.238C420.809 340.93 210.003 257.529 178.529 244.283Z" fill="#82D4D5"/>
<path d="M312.979 319.168C312.979 319.168 269.262 281.059 275.227 239.066C281.19 197.074 333.618 153.839 414.621 158.311C495.625 162.784 543.184 194.218 548.404 247.079C553.623 299.94 499.996 327.431 500.166 331.285C500.166 331.285 587.662 333.018 595.371 247.68C603.08 162.342 444.145 131.509 410.296 135.055C376.447 138.601 227.719 143.81 218.892 226.156C210.065 308.502 312.979 319.168 312.979 319.168Z" fill="#B7F2CC"/>
<path d="M165.238 209.5C168.02 151.923 275.963 126.6 408.29 132.985C540.616 139.37 645.623 178.554 642.841 236.131C640.06 293.708 539.875 336.715 407.549 330.33C275.223 323.945 162.457 267.077 165.238 209.5Z" fill="#AF93E5"/>
<path d="M365.306 158.246L344.957 191.212L396.307 165.773L411.135 198.045L424.218 168.564L472.888 187.404L458.932 153.387L413.577 142.572L369.094 142.049L365.306 158.246Z" fill="#C2C4E0"/>
<path d="M175.143 241.34C205.246 286.543 299.911 325.139 407.537 330.333C501.807 334.882 579.557 314.291 617.605 281.295C417.422 337.987 206.617 254.587 175.143 241.34Z" fill="#B876D1"/>
<path d="M309.595 316.225C309.595 316.225 265.878 278.115 271.841 236.122C277.805 194.13 330.233 150.895 411.237 155.368C492.24 159.84 539.799 191.274 545.019 244.135C550.238 296.996 496.611 324.487 496.78 328.341C496.78 328.341 584.277 330.074 591.986 244.736C599.695 159.398 440.76 128.565 406.911 132.111C373.062 135.658 224.335 140.866 215.508 223.212C206.681 305.558 309.595 316.225 309.595 316.225Z" fill="#ABACE3"/>
<path d="M266.099 319.139C263.528 319.627 261.371 321.621 260.784 324.34C259.819 328.767 258.923 333.217 258.085 337.668C257.205 342.345 256.407 347.095 256.426 351.868C256.465 355.785 259.68 358.908 263.596 358.869C267.513 358.83 270.664 355.644 270.626 351.727C270.563 348.245 271.081 344.739 271.525 341.296C272.138 336.556 272.925 331.827 273.915 327.152C274.697 323.527 272.395 319.976 268.77 319.195C267.864 319 266.956 318.976 266.099 319.139Z" fill="black"/>
<path d="M299.334 328.586C295.678 327.966 292.193 330.413 291.573 334.069C290.713 339.074 289.953 344.127 289.352 349.169C288.846 353.416 288.451 357.754 288.987 362.018C289.5 365.902 293.089 368.634 296.972 368.12C300.855 367.606 303.587 364.046 303.074 360.163C302.619 356.983 302.969 353.643 303.186 350.462C303.51 345.721 304.04 341.007 304.817 336.319C305.437 332.662 302.99 329.206 299.334 328.586Z" fill="black"/>
<path d="M346.995 339.298C344.416 339.745 342.226 341.706 341.596 344.416C339.397 353.761 336.932 363.026 334.707 372.365C333.82 376.18 336.206 379.998 340.021 380.884C343.837 381.771 347.655 379.385 348.541 375.57C350.663 366.207 352.55 356.809 354.699 347.452C355.539 343.84 353.278 340.222 349.666 339.383C348.763 339.173 347.854 339.149 346.995 339.298Z" fill="black"/>
<path d="M400.136 347.004C396.442 346.686 393.2 349.411 392.882 353.106C392.042 362.549 390.909 371.952 390.042 381.393C389.706 385.295 392.607 388.733 396.509 389.069C400.412 389.405 403.849 386.533 404.185 382.63C404.947 373.18 405.45 363.706 406.238 354.259C406.556 350.564 403.831 347.323 400.136 347.004Z" fill="black"/>
<path d="M460.534 349.479C456.826 349.379 453.744 352.295 453.645 356.002C453.369 365.282 452.822 374.56 452.52 383.839C452.415 387.754 455.493 391.016 459.409 391.121C463.324 391.227 466.586 388.12 466.691 384.204C466.888 374.923 466.861 365.649 467.085 356.368C467.185 352.661 464.241 349.578 460.534 349.479Z" fill="black"/>
<path d="M503.609 345.288C499.904 345.455 497.031 348.585 497.198 352.29C497.621 362.269 497.758 372.255 498.154 382.235C498.33 386.148 501.664 389.188 505.577 389.012C509.49 388.835 512.502 385.529 512.326 381.617C511.824 371.64 511.085 361.677 510.61 351.699C510.444 347.994 507.314 345.122 503.609 345.288Z" fill="black"/>
<path d="M537.014 335.757C533.327 336.158 530.653 339.465 531.053 343.152C532.005 352.218 532.338 361.412 531.84 370.511C531.648 374.423 534.676 377.742 538.589 377.934C542.501 378.126 545.82 375.126 546.012 371.214C546.44 361.365 545.493 351.478 544.409 341.69C544.009 338.003 540.701 335.357 537.014 335.757Z" fill="black"/>
<path d="M362.712 127.995C315.049 128.621 272.739 133.848 239.612 143.459C191.217 157.501 163.132 180.645 161.613 212.095C158.558 275.333 275.294 333.756 410.596 340.284C544.115 346.727 650.164 303.38 653.253 239.426C654.773 207.973 628.956 181.36 582.34 161.82C539.133 143.71 479.042 132.129 412.002 128.894C395.067 128.077 378.599 127.786 362.712 127.995ZM361.868 142.054C377.644 141.832 394.154 142.125 411.327 142.953C546.468 149.474 641.58 189.328 639.194 238.723C637.986 263.724 614.981 287.089 574.495 303.647C532.079 320.994 474.395 329.299 411.271 326.254C348.141 323.207 287.334 308.323 242.255 285.764C198.636 263.935 174.462 237.224 175.644 212.77C177.699 170.228 251.433 143.606 361.868 142.054Z" fill="black"/>
<path d="M452.267 125.153C446.749 124.626 441.856 128.689 441.329 134.207C440.803 139.724 444.865 144.618 450.383 145.145C563.76 155.962 638.327 194.844 636.214 238.58C634.973 264.271 608.744 288.616 562.967 304.826C557.742 306.676 555.016 312.394 556.865 317.619C558.715 322.844 564.462 325.599 569.687 323.749C622.297 305.12 654.541 275.183 656.262 239.564C659.111 180.592 575.338 136.895 452.267 125.153Z" fill="black"/>
<path d="M370.894 120.458C316.854 120.696 268.729 127.387 232.217 139.972C186.812 155.622 160.001 180.136 158.464 211.954C156.811 246.153 187.582 278.852 239.78 303.702C244.856 306.118 250.945 303.97 253.361 298.894C255.778 293.818 253.629 287.758 248.553 285.341C202.964 263.637 177.643 236.738 178.793 212.938C180.974 167.797 268.979 137.456 393.782 141.097C399.401 141.26 404.106 136.847 404.27 131.227C404.434 125.608 400.02 120.903 394.4 120.739C386.456 120.508 378.614 120.424 370.894 120.458Z" fill="black"/>
<path d="M241.804 286.044C239.044 285.859 236.206 286.722 233.959 288.687C227.646 294.25 222.187 300.816 218.719 308.538C213.2 320.829 212.751 334.671 216.329 347.566C217.426 351.518 218.812 355.503 220.772 359.122C223.468 364.09 229.695 365.924 234.662 363.227C239.629 360.531 241.464 354.305 238.767 349.337C238.781 349.362 238.561 348.93 238.514 348.831C238.34 348.461 238.167 348.084 238.008 347.706C237.48 346.453 237.032 345.182 236.63 343.882C235.546 340.37 234.886 336.707 234.803 333.029C234.749 330.687 234.923 328.334 235.337 326.028C236.858 317.546 241.781 310.514 248.187 304.967C252.681 301.038 253.128 294.194 249.199 289.699C247.234 287.452 244.564 286.229 241.804 286.044Z" fill="black"/>
<path d="M572.245 309.101C570.912 308.896 569.501 308.946 568.111 309.297C562.554 310.703 559.198 316.366 560.604 321.922C560.596 321.89 560.624 321.974 560.632 322.007C560.648 322.073 560.673 322.138 560.688 322.204C560.726 322.367 560.737 322.546 560.773 322.71C560.89 323.25 561.007 323.769 561.11 324.312C561.423 325.956 561.702 327.631 561.925 329.289C562.582 334.17 562.877 339.099 562.769 344.023C562.442 358.91 558.795 373.97 549.216 385.694C545.405 390.397 546.115 397.319 550.819 401.13C555.523 404.942 562.444 404.203 566.256 399.499C570.725 393.946 574.404 387.841 577.137 381.251C582.613 368.048 584.209 353.544 583.661 339.355C583.477 334.615 583.025 329.905 582.339 325.212C581.928 322.401 581.433 319.561 580.736 316.805C579.682 312.637 576.243 309.714 572.245 309.101Z" fill="black"/>
<path d="M419.144 127.853C415.562 127.781 412.359 127.9 409.584 128.19C409.628 128.186 383.07 130.472 372.047 131.705C352.028 133.945 333.642 136.917 316.205 141.068C288.97 147.552 266.13 156.466 248.609 168.511C227.327 183.143 214.535 202.032 212.028 225.422C209.702 247.127 214.44 265.651 225.272 280.955C234.267 293.663 247.065 303.652 262.612 311.294C273.477 316.634 285.067 320.521 296.635 323.216C300.681 324.158 304.435 324.898 307.826 325.437C309.894 325.766 311.408 325.967 312.268 326.056C318.98 326.751 322.613 318.399 317.526 313.965C317.484 313.928 316.487 313.043 316.064 312.643C314.834 311.482 313.479 310.118 311.987 308.566C307.706 304.113 303.41 299.076 299.418 293.58C286.395 275.647 279.619 257.303 282.07 240.043C284.817 220.698 298.635 201.224 320.535 187.069C345.002 171.255 377.461 163.19 414.252 165.222C492.305 169.531 536.695 198.951 541.513 247.748C543.651 269.405 535.335 287.923 519.44 304.63C514.597 309.721 509.879 313.895 503.413 319.054C502.862 319.494 500.773 321.145 500.292 321.529C499.177 322.42 498.384 323.054 497.705 323.638C496.785 324.429 496.077 325.097 495.484 325.775C494.023 327.443 493.15 329.034 493.263 331.595C493.423 335.238 496.393 338.13 500.039 338.203C500.089 338.204 500.063 338.201 500.18 338.203C501.444 338.215 503.301 338.18 505.635 338.034C509.201 337.81 513.082 337.371 517.219 336.712C528.764 334.875 540.266 331.505 551.073 326.196C579.963 312.004 598.783 286.663 602.247 248.31C604.261 226.016 596.125 206.036 579.444 188.784C565.309 174.166 545.304 161.746 521.071 151.641C487.151 137.496 444.218 128.36 419.144 127.853ZM418.497 141.715C427.296 141.918 439.739 143.351 453.279 145.933C474.44 149.967 496.319 156.3 515.757 164.406C564.439 184.707 591.593 212.776 588.498 247.045C585.486 280.391 569.717 301.654 544.999 313.796C537.546 317.458 529.618 320.059 521.577 321.81C524.304 319.359 526.882 316.891 529.478 314.162C547.907 294.792 557.877 272.591 555.291 246.398C549.68 189.569 499.112 156.059 415.011 151.416C375.372 149.227 340.015 158.013 313.027 175.457C287.944 191.67 271.724 214.528 268.376 238.103C265.327 259.577 273.296 281.118 288.227 301.678C289.782 303.818 291.418 305.804 293.036 307.807C284.712 305.489 276.456 302.7 268.714 298.894C255.09 292.198 244.102 283.603 236.575 272.969C227.698 260.427 223.808 245.256 225.778 226.884C229.618 191.054 263.387 167.846 319.41 154.509C336.233 150.504 354.064 147.608 373.565 145.427C384.371 144.218 410.876 141.955 411.018 141.94C413.048 141.727 415.565 141.647 418.497 141.715Z" fill="black"/>
<path d="M399.013 43.8008L397.833 68.7414L362.966 67.7572L361.926 104.985L396.089 105.941L394.363 128.996L444.188 131.358L445.97 107.347L476.084 108.191L477.125 70.9627L447.714 70.1473L448.838 46.1346L399.013 43.8008Z" fill="#FFA0CA"/>
<path d="M395.628 40.8574L394.447 65.7979L359.581 64.8138L358.541 102.042L392.704 102.998L390.978 126.052L440.803 128.414L442.585 104.404L472.699 105.247L473.74 68.0192L444.328 67.2038L445.453 43.1912L395.628 40.8574Z" fill="#FFD000"/>
<path d="M399.489 33.7709C393.954 33.5117 389.263 37.7965 389.001 43.331L388.298 58.4303L363.245 57.7273C357.703 57.5709 353.081 61.9426 352.926 67.4842L351.885 104.712C351.73 110.253 356.101 114.848 361.642 115.003L385.599 115.678L385.121 126.054C384.863 131.59 389.144 136.284 394.681 136.541C400.217 136.799 404.911 132.518 405.169 126.981L406.125 106.399C406.385 100.79 401.981 96.0683 396.368 95.9113L372.243 95.2365L372.721 78.0565L397.549 78.7594C403.015 78.9137 407.609 74.6895 407.868 69.2275L408.571 54.2969L438.348 55.6747L437.701 69.6774C437.438 75.289 441.814 80.0097 447.43 80.1653L466.803 80.6996L466.325 97.8796L446.249 97.3172C440.782 97.1641 436.214 101.415 435.958 106.877L434.945 128.415C434.685 133.952 438.94 138.643 444.477 138.903C450.014 139.164 454.733 134.88 454.993 129.343L455.556 117.646L475.801 118.209C481.341 118.364 485.965 114.021 486.12 108.48L487.16 71.252C487.315 65.7104 482.945 61.0863 477.403 60.9327L458.227 60.3985L458.874 46.5926C459.133 41.0559 454.85 36.3641 449.314 36.1047L399.489 33.7709Z" fill="black"/>
<path opacity="0.203921" d="M648.463 238.965C648.463 238.965 398.105 313.918 186.121 246.135L231.953 289.184L297.102 312.747L339.476 323.122L407.774 377.474C340.238 378.343 269.113 371.501 231.7 343.929L234.428 362.965L270.953 381.27L325.304 398.337L370.968 404.776C370.968 404.776 454.826 420.716 478.04 438.04C496.033 451.467 530.878 461.946 545.955 502.034C447.981 743.339 217.36 691.831 217.36 691.831L276.379 737.129L330.647 752.931L389.947 754.112L453.297 741.459L503.375 711.879L558.486 654.547L590.652 660.902L624.703 646.871L655.942 610.43L671.873 536.54L606.251 565.225C571.682 561.595 576.181 519.116 576.181 519.116L601.339 499.875L585.479 459.437L587.531 457.778L555.646 389.874L561.325 380.145L562 380.117L562.225 378.599L571.223 363.19C571.223 363.19 567.191 363.814 564.334 364.258L572.207 310.891C622.548 293.49 648.463 238.965 648.463 238.965Z" fill="black"/>
</svg>
