<svg width="800" height="800" viewBox="0 0 800 800" fill="none" xmlns="http://www.w3.org/2000/svg">
<path d="M151.696 468.164C151.696 468.164 126.489 463.745 122.154 465.421C103.568 472.607 63.3372 499.853 157.476 587.076" fill="#F3886D"/>
<path d="M126.093 453.906C123.837 453.875 121.605 454.056 119.499 454.656C117.499 455.227 115.561 456.111 113.687 457C111.427 458.072 109.23 459.275 107.124 460.625C103.45 462.98 100.019 465.756 97.0933 469C94.8875 471.445 92.9599 474.144 91.3745 477.031C84.79 489.022 85.2093 502.833 89.2183 515.594C93.1213 528.017 99.9649 539.4 107.593 549.875C119.79 566.623 134.409 581.524 149.53 595.625C154.253 600.017 161.638 599.754 166.03 595.031C170.422 590.308 170.159 582.923 165.437 578.531C154.462 568.356 143.858 557.741 134.218 546.281C126.923 537.61 120.006 528.393 114.874 518.25C113.93 516.384 113.068 514.5 112.28 512.562C109.168 504.906 106.88 495.459 110.999 487.719C113.241 483.507 117.075 480.384 121.187 478.094C122.179 477.541 123.213 477.028 124.249 476.562C124.568 476.419 124.886 476.275 125.218 476.156C126.567 476.084 127.949 476.179 129.28 476.281C131.354 476.44 133.404 476.684 135.468 476.938C140.254 477.525 145.028 478.236 149.78 479.062C155.795 480.113 161.542 476.077 162.593 470.062C163.644 464.047 159.608 458.332 153.593 457.281C146.69 456.072 139.727 455.026 132.749 454.375C130.606 454.175 128.349 453.937 126.093 453.906Z" fill="black"/>
<path d="M126.728 455.085C129.311 455.146 131.868 455.377 134.436 455.647C140.783 456.315 147.11 457.247 153.397 458.348C158.811 459.294 162.444 464.467 161.498 469.882C160.552 475.296 155.407 478.901 149.993 477.955C144.154 476.94 138.277 476.065 132.383 475.452C130.531 475.259 128.674 475.096 126.813 475.03C126.337 475.013 125.853 474.994 125.378 475.002C125.27 475.003 125.152 475.025 125.04 475.03C124.624 475.196 124.211 475.353 123.803 475.536C123.135 475.836 122.342 476.214 121.693 476.549C117.876 478.516 114.276 481.137 111.678 484.594C105.369 492.99 107.535 503.944 111.2 512.979C114.683 521.566 119.793 529.471 125.293 536.89C132.78 546.991 141.223 556.363 150.049 565.303C154.793 570.109 159.67 574.776 164.621 579.369C168.873 583.322 169.137 589.97 165.184 594.222C161.23 598.473 154.582 598.738 150.33 594.784C135.913 581.343 121.96 567.186 110.131 551.378C102.268 540.87 95.117 529.489 90.861 517.002C86.3055 503.634 85.5883 489.002 92.9709 476.493C94.5828 473.761 96.5205 471.22 98.7096 468.925C101.842 465.642 105.443 462.855 109.343 460.542C111.839 459.062 114.453 457.765 117.135 456.66C118.03 456.292 118.852 455.968 119.78 455.704C122.016 455.067 124.421 455.03 126.728 455.085Z" fill="black"/>
<path d="M598.489 445.166C598.489 445.166 575.711 391.017 548.678 370.003C521.645 348.989 504.982 241.677 504.982 241.677L519.354 124.625C519.354 124.625 577.633 104.468 604.539 107.469C631.445 110.471 694.048 368.611 684.057 432.133C684.057 432.133 630.903 443.353 598.489 445.166Z" fill="#82D4D5"/>
<path d="M597.061 95.9686C587.401 96.0992 577.727 97.7114 568.28 99.6248C556.133 102.085 544.149 105.285 532.28 108.844C528.292 110.04 524.3 111.268 520.343 112.562C519.214 112.931 518.093 113.308 516.968 113.688C516.744 113.763 515.909 113.97 515.749 114.125C513.499 116.301 511.068 118.308 508.999 120.656C508.608 121.1 508.655 121.773 508.499 122.344C508.11 123.764 508.05 125.491 507.874 126.938C507.8 127.547 507.729 128.14 507.655 128.75C507.581 129.36 507.511 129.984 507.437 130.594C506.547 137.911 505.669 145.214 504.78 152.531C503.743 161.068 502.693 169.62 501.655 178.156C499.951 192.18 498.242 206.196 496.53 220.219C496.009 224.487 495.489 228.763 494.968 233.031C494.744 234.86 494.535 236.671 494.311 238.5C494.235 239.127 494.114 239.775 494.093 240.406C494.058 241.412 494.13 242.4 494.155 243.406C494.178 244.304 494.445 245.274 494.593 246.156C494.899 247.986 495.206 249.799 495.53 251.625C496.494 257.052 497.533 262.472 498.624 267.875C502.011 284.65 505.931 301.343 510.811 317.75C513.753 327.638 517.032 337.465 521.061 346.969C523.994 353.885 527.327 360.694 531.53 366.938C533.876 370.422 536.497 373.741 539.593 376.594C541.731 378.565 544.094 380.289 546.218 382.281C549.318 385.19 552.187 388.365 554.874 391.656C562.492 400.985 568.897 411.275 574.749 421.781C579.472 430.259 576.222 424.615 587.343 447.156C588.363 452.819 593.302 457.014 599.187 456.656C662.781 447.973 641.783 451.802 662.78 447.969C668.546 446.916 674.314 445.836 680.061 444.688C681.62 444.376 683.161 444.039 684.718 443.719C685.042 443.652 686.151 443.558 686.405 443.375C688.92 441.562 691.691 440.042 693.968 437.938C694.65 437.307 694.718 436.238 695.061 435.375C695.503 434.265 695.601 432.718 695.749 431.531C695.8 431.122 695.829 430.691 695.874 430.281C695.97 429.423 696.05 428.611 696.124 427.75C696.194 426.923 696.26 425.984 696.311 425.156C696.397 423.796 696.485 422.425 696.53 421.062C696.577 419.634 696.582 418.211 696.593 416.781C696.666 406.829 696.011 396.873 695.093 386.969C694.147 376.774 692.906 366.601 691.437 356.469C686.537 322.678 679.796 289.166 671.968 255.938C664.981 226.28 657.137 196.777 647.655 167.812C642.445 151.896 636.879 135.908 629.437 120.875C627.284 116.528 624.966 112.232 622.187 108.25C620.156 105.341 617.86 102.55 615.061 100.344C613.145 98.8326 610.973 97.6014 608.624 96.906C605.005 95.835 600.803 95.9179 597.061 95.9686ZM597.343 118.375C598.808 118.358 600.269 118.479 601.718 118.562C601.921 118.779 602.122 118.99 602.311 119.219C604.483 121.842 606.2 124.874 607.78 127.875C610.107 132.293 612.137 136.863 614.061 141.469C619.37 154.175 623.795 167.249 627.937 180.375C635.395 204.012 641.815 227.971 647.624 252.062C653.685 277.195 659.079 302.511 663.593 327.969C667.581 350.459 671.092 373.117 672.811 395.906C673.394 403.624 673.78 411.383 673.593 419.125C673.565 420.276 673.465 421.412 673.405 422.562C673.049 422.633 672.699 422.712 672.343 422.781C666.098 424.003 659.828 425.174 653.561 426.281C636.625 429.274 645.366 427.518 604.655 432.812C599.518 422.048 599.589 421.865 596.03 415.25C589.822 403.711 582.98 392.431 575.03 382C570.803 376.453 566.244 371.121 561.155 366.344C557.938 363.323 554.268 360.872 551.53 357.375C547.753 352.551 544.961 346.943 542.468 341.375C539.161 333.991 536.426 326.36 533.968 318.656C528.36 301.085 524.071 283.099 520.405 265.031C519.244 259.308 518.17 253.564 517.155 247.812C516.846 246.058 516.541 244.288 516.249 242.531C516.186 242.152 516.123 241.786 516.061 241.406C516.069 241.304 516.084 241.26 516.093 241.188C516.168 240.578 516.268 239.953 516.343 239.344C516.568 237.515 516.773 235.704 516.999 233.875C519.932 210.1 522.894 186.335 525.843 162.562C526.826 154.638 527.797 146.705 528.78 138.781C529.017 136.875 529.271 134.971 529.499 133.062C538.539 130.151 547.674 127.482 556.874 125.156C564.718 123.174 572.615 121.47 580.593 120.125C586.117 119.194 591.733 118.441 597.343 118.375Z" fill="black"/>
<path d="M595.923 97.1332C598.47 97.0543 601.004 97.0629 603.546 97.2458C605.151 97.3613 606.75 97.5181 608.3 97.9771C610.167 98.5297 611.895 99.4392 613.477 100.565C616.585 102.779 619.1 105.784 621.269 108.892C624.272 113.196 626.747 117.849 629.033 122.564C635.994 136.919 641.302 152.069 646.278 167.208C655.886 196.443 663.813 226.242 670.864 256.187C678.682 289.384 685.409 322.886 690.303 356.644C691.769 366.756 693.017 376.907 693.96 387.082C694.875 396.949 695.524 406.846 695.451 416.761C695.437 418.637 695.389 420.54 695.31 422.415C695.254 423.743 695.183 425.055 695.085 426.381C695.021 427.248 694.973 428.049 694.888 428.913C694.811 429.704 694.706 430.572 694.607 431.361C694.467 432.485 694.379 433.991 693.96 435.046C693.651 435.823 693.589 436.785 692.975 437.353C690.926 439.247 688.432 440.616 686.168 442.248C685.99 442.376 685.559 442.373 685.352 442.416C684.7 442.552 684.034 442.705 683.383 442.838C681.103 443.304 678.83 443.74 676.547 444.189C671.899 445.101 667.225 445.982 662.566 446.833C651.53 448.847 640.479 450.723 629.371 452.29C619.326 453.708 629.378 452.27 599.13 455.497C593.821 455.82 589.345 452.031 588.44 446.917C577.063 423.863 580.46 429.786 575.696 421.233C569.813 410.671 563.353 400.343 555.695 390.964C552.977 387.636 550.109 384.426 546.974 381.484C544.848 379.489 542.476 377.774 540.335 375.802C537.302 373.006 534.729 369.736 532.43 366.321C528.266 360.136 524.983 353.397 522.078 346.545C518.453 337.993 515.45 329.168 512.71 320.299C507.377 303.031 503.26 285.371 499.686 267.665C498.534 261.959 497.46 256.238 496.451 250.505C496.152 248.808 495.86 247.113 495.579 245.413C495.462 244.713 495.233 243.959 495.213 243.247C495.187 242.356 495.142 241.466 495.157 240.575C495.172 239.647 495.381 238.655 495.494 237.733C495.718 235.904 495.946 234.077 496.169 232.248C496.803 227.065 497.449 221.874 498.082 216.691C500.056 200.534 502.024 184.379 503.99 168.221C505.399 156.636 506.8 145.064 508.209 133.479C508.358 132.26 508.511 131.041 508.66 129.822C508.771 128.907 508.886 127.98 508.997 127.065C509.071 126.455 509.12 125.846 509.194 125.237C509.325 124.158 509.359 122.835 509.757 121.833C510.071 121.039 510.181 120.116 510.769 119.498C512.343 117.844 514.342 116.604 516.114 115.166C516.391 114.941 516.995 114.855 517.324 114.744C518.105 114.48 518.876 114.214 519.659 113.956C522.507 113.017 525.374 112.113 528.239 111.227C537.533 108.354 546.915 105.725 556.37 103.435C563.211 101.777 570.08 100.344 577.018 99.1586C583.256 98.0937 589.594 97.3291 595.923 97.1332ZM599.101 117.247C595.691 117.225 592.279 117.471 588.89 117.838C576.864 119.142 564.992 121.871 553.304 124.927C544.97 127.106 536.694 129.53 528.492 132.185C528.237 134.344 527.971 136.501 527.704 138.655C526.685 146.884 525.658 155.097 524.638 163.326C521.616 187.709 518.586 212.083 515.58 236.467C515.392 237.992 515.205 239.529 515.017 241.053C514.999 241.201 514.979 241.355 514.961 241.503C515.059 242.108 515.169 242.699 515.27 243.303C515.642 245.524 516.026 247.755 516.424 249.97C517.523 256.086 518.705 262.172 519.968 268.256C523.695 286.211 527.983 304.18 533.781 321.593C536.388 329.425 539.199 337.201 542.755 344.66C544.979 349.327 547.463 353.968 550.66 358.051C551.578 359.224 552.575 360.357 553.67 361.37C554.611 362.242 555.666 362.97 556.651 363.789C557.943 364.863 559.197 365.988 560.421 367.137C565.466 371.874 569.986 377.167 574.177 382.666C582.093 393.051 588.898 404.287 595.079 415.776C598.716 422.536 598.416 422.25 604.053 434.033C647.256 428.365 637.331 430.333 654.801 427.225C660.958 426.13 667.12 424.971 673.255 423.765C673.669 423.684 674.08 423.594 674.493 423.512C674.581 422.054 674.711 420.583 674.746 419.124C674.934 411.347 674.544 403.584 673.959 395.831C672.236 373 668.727 350.311 664.732 327.781C660.213 302.301 654.793 276.954 648.725 251.799C642.907 227.683 636.475 203.697 629.005 180.036C624.708 166.427 620.124 152.867 614.546 139.724C612.631 135.215 610.6 130.731 608.272 126.418C606.787 123.666 605.182 120.9 603.181 118.485C602.864 118.103 602.527 117.732 602.168 117.388C602.14 117.385 602.112 117.39 602.083 117.388C601.087 117.314 600.101 117.254 599.101 117.247Z" fill="black"/>
<path d="M616.636 510.955C616.636 381.503 511.695 276.562 382.243 276.562C312.256 276.562 249.434 307.235 206.486 355.871C169.994 397.196 147.85 451.49 147.85 510.955C147.85 640.407 252.791 745.348 382.243 745.348C511.695 745.348 616.636 640.407 616.636 510.955Z" fill="#F3886D" stroke="black" stroke-width="0.0185569" stroke-miterlimit="10" stroke-linecap="round" stroke-linejoin="round"/>
<path d="M382.245 269.869C515.387 269.869 623.33 377.811 623.33 510.953C623.33 644.095 515.387 752.038 382.245 752.038C249.103 752.038 141.16 644.095 141.16 510.953C141.16 451.395 162.851 395.188 201.474 351.449C246.953 299.947 312.18 269.869 382.245 269.869ZM382.245 283.231C316.053 283.231 254.457 311.623 211.489 360.282C175.002 401.601 154.523 454.684 154.523 510.953C154.523 636.715 256.484 738.676 382.245 738.676C508.007 738.676 609.967 636.715 609.968 510.953C609.968 385.192 508.007 283.231 382.245 283.231Z" fill="black"/>
<path d="M212.566 343.794C236.921 330.361 284.229 372.188 306.994 407.655C331.725 388.963 378.107 375.783 427.79 375.783C501.015 375.783 554.081 441.122 545.097 482.569C538.288 513.98 494.192 550.817 431.672 557.595C438.07 572.683 441.827 588.166 441.827 602.971C441.827 667.581 391.428 683.342 320.356 683.342C249.285 683.342 162.354 608.019 164.734 493.962C164.771 492.208 165.575 490.92 166.872 489.911C147.685 476.612 142.552 487.153 147.695 463.184C160.205 404.887 212.566 343.794 212.566 343.794Z" fill="#F9B192"/>
<path d="M220.942 334.233C233.547 333.337 248.517 339.786 264.573 351.759C280.701 363.785 296.817 380.97 308.796 398.091C336.421 380.173 381.369 368.75 427.791 368.75C463.89 368.75 497.751 383.912 522.284 408.696C545.258 431.907 556.995 460.844 551.962 484.06C548.094 501.903 534.074 520.336 513.338 535.062C493.475 549.167 468.618 559.097 441.322 563.362C446.156 576.92 448.861 590.286 448.861 602.971C448.861 636.4 436.02 659.621 411.165 673.524C389.925 685.404 360.515 690.374 320.357 690.374C282.266 690.374 241.009 670.222 209.802 636.165C175.814 599.074 156.547 549.188 157.703 493.821C157.711 493.403 157.824 493.015 157.871 492.612C156.577 491.903 155.313 491.27 154.017 490.699C152.468 490.016 147.938 488.265 147.378 488.026C142.577 485.976 139.718 483.07 138.967 477.927C138.445 474.348 139.013 470.134 140.824 461.696C141.392 459.048 142.032 456.383 142.765 453.678C148.483 432.563 158.941 410.249 172.781 387.542C180.297 375.21 188.365 363.515 196.411 352.856C199.231 349.121 201.846 345.779 204.204 342.869C205.033 341.845 207.062 339.389 207.214 339.212C207.762 338.573 208.446 338.043 209.183 337.637C212.806 335.639 216.74 334.532 220.942 334.233ZM223.248 348.27C220.838 348.271 218.75 348.782 216.891 349.621C216.243 350.401 215.616 351.117 215.119 351.731C212.86 354.519 210.356 357.748 207.636 361.351C199.854 371.66 192.077 382.95 184.821 394.856C171.616 416.521 161.676 437.707 156.352 457.363C155.684 459.831 155.095 462.249 154.58 464.649C153.294 470.641 152.9 473.616 152.948 475.142C153.214 475.252 157.726 476.957 159.672 477.815C163.385 479.451 166.995 481.432 170.868 484.116C174.496 486.631 174.771 491.672 171.796 494.722C170.875 546.174 188.741 592.344 220.182 626.657C248.848 657.94 286.431 676.309 320.357 676.309C399.171 676.309 434.795 656.383 434.795 602.971C434.795 589.65 431.488 575.175 425.203 560.352C423.361 556.009 426.224 551.098 430.913 550.59C459.327 547.51 485.177 537.809 505.208 523.584C523.299 510.737 535.192 495.113 538.234 481.078C542.124 463.13 532.188 438.694 512.269 418.57C490.293 396.369 459.996 382.816 427.791 382.816C380.785 382.816 335.315 395.059 311.243 413.254C307.974 415.724 303.301 414.901 301.088 411.453C289.821 393.9 272.726 375.391 256.162 363.039C243.104 353.302 231.627 348.27 223.248 348.27Z" fill="black" fill-opacity="0.5"/>
<path d="M242.461 308.774C245.037 309.169 247.464 310.558 249.128 312.825C252.457 317.359 251.468 323.731 246.934 327.059C191.404 367.826 158.039 436.643 158.039 510.953C158.039 634.781 258.418 735.159 382.245 735.159C506.417 735.159 608.533 634.074 608.533 510.588C608.533 484.449 606.598 464.837 601.613 447.546C600.054 442.141 603.185 436.501 608.589 434.943C613.993 433.385 619.634 436.487 621.192 441.891C626.807 461.366 628.9 482.706 628.9 510.588C628.9 645.368 517.621 755.526 382.245 755.526C247.169 755.526 137.672 646.029 137.672 510.953C137.672 430.284 174.029 355.313 234.894 310.631C237.161 308.967 239.885 308.379 242.461 308.774Z" fill="black"/>
<path d="M193.117 491.416C198.557 480.861 185.242 466.101 163.376 458.448C141.511 450.795 119.375 453.148 113.935 463.703C108.495 474.258 121.811 489.018 143.676 496.671C148.581 498.387 153.499 499.6 158.239 500.33C174.632 502.855 188.897 499.603 193.117 491.416Z" fill="#FF497F" stroke="black" stroke-width="0.019536" stroke-miterlimit="10" stroke-linecap="round" stroke-linejoin="round"/>
<path d="M477.396 550.095C481.9 539.722 467.816 526.4 445.939 520.338C435.684 517.496 425.537 516.755 417.186 517.837C407.722 519.064 400.565 522.633 398.173 528.144C393.669 538.516 407.753 551.839 429.63 557.901C451.507 563.963 472.892 560.468 477.396 550.095Z" fill="#FF497F" stroke="black" stroke-width="0.019536" stroke-miterlimit="10" stroke-linecap="round" stroke-linejoin="round"/>
<path d="M138.432 446.899C146.978 446.918 156.401 448.57 165.691 451.821C177.384 455.914 187.32 462.04 193.71 469.122C201.016 477.222 203.566 486.485 199.364 494.637C193.465 506.082 176.561 510.283 157.167 507.296C151.911 506.487 146.583 505.13 141.357 503.302C129.664 499.209 119.728 493.083 113.339 486.001C106.032 477.902 103.483 468.638 107.684 460.486C112.39 451.356 124.188 446.867 138.432 446.899ZM139.67 460.992C137.438 460.937 135.261 461.029 133.227 461.245C126.132 462 121.563 464.289 120.203 466.928C117.433 472.302 127.605 483.586 145.999 490.024C150.412 491.568 154.904 492.693 159.305 493.371C173.393 495.541 184.498 492.804 186.874 488.195C189.644 482.821 179.443 471.537 161.049 465.099C153.78 462.555 146.364 461.157 139.67 460.992Z" fill="black"/>
<path d="M423.71 510.334C431.377 510.213 439.67 511.312 447.818 513.57C459.51 516.809 469.641 522.086 476.399 528.479C484.189 535.848 487.425 544.672 483.854 552.897C477.516 567.496 452.612 571.57 427.761 564.684C416.069 561.444 405.937 556.139 399.179 549.746C391.389 542.377 388.153 533.554 391.724 525.328C395.246 517.218 404.338 512.417 416.283 510.869C418.672 510.559 421.154 510.375 423.71 510.334ZM424.075 524.4C421.994 524.428 419.991 524.575 418.083 524.822C410.537 525.8 405.773 528.336 404.637 530.955C403.824 532.828 404.895 535.814 408.828 539.535C413.793 544.231 421.896 548.463 431.502 551.125C441.204 553.813 451.047 554.49 458.902 553.206C465.682 552.098 469.89 549.722 470.942 547.299C471.755 545.426 470.655 542.439 466.722 538.719C461.758 534.023 453.654 529.79 444.049 527.129C437.218 525.236 430.318 524.317 424.075 524.4Z" fill="black"/>
<path d="M366.609 438.717C369.338 438.454 372.085 439.813 373.473 442.374C376.73 448.388 382.615 451.112 391.224 451.18C396.6 451.222 402.571 450.212 408.553 448.451C410.632 447.838 412.544 447.162 414.264 446.51C414.856 446.285 415.37 446.073 415.811 445.891C416.057 445.789 416.235 445.746 416.289 445.722C419.841 444.148 423.998 445.742 425.572 449.295C427.146 452.847 425.524 457.005 421.971 458.578C421.43 458.818 420.523 459.2 419.271 459.675C417.231 460.449 414.958 461.208 412.519 461.926C405.318 464.047 398.054 465.328 391.112 465.273C377.828 465.169 367.113 460.18 361.095 449.07C359.245 445.654 360.521 441.383 363.937 439.533C364.791 439.071 365.7 438.805 366.609 438.717Z" fill="black"/>
<path d="M199.256 408.533C201.053 408.411 202.885 408.971 204.348 410.249C210.19 415.351 215.501 417.732 220.355 418.069C223.847 418.312 226.992 417.492 229.751 415.959C231.167 415.172 232.081 414.419 232.395 414.103C235.129 411.342 239.593 411.341 242.354 414.074C245.114 416.808 245.143 421.244 242.41 424.005C242.032 424.387 241.461 424.915 240.694 425.524C239.507 426.466 238.133 427.394 236.587 428.253C231.583 431.032 225.806 432.552 219.398 432.107C211.353 431.547 203.161 427.901 195.093 420.854C192.167 418.298 191.862 413.85 194.418 410.924C195.696 409.461 197.46 408.654 199.256 408.533Z" fill="black"/>
<path d="M250.147 509.608C251.936 509.81 253.634 510.705 254.845 512.224C257.522 515.584 260.59 517.22 264.212 517.626C268.4 518.094 273.298 516.869 278.278 514.475C279.819 513.734 281.238 512.957 282.498 512.168C283.222 511.715 283.71 511.384 283.904 511.24C287.03 508.932 291.443 509.577 293.75 512.703C296.058 515.828 295.385 520.241 292.259 522.549C291.788 522.896 291.022 523.443 289.981 524.096C288.298 525.15 286.42 526.182 284.383 527.162C277.234 530.599 269.882 532.417 262.637 531.607C255.35 530.791 248.884 527.295 243.845 520.973C241.424 517.935 241.932 513.521 244.971 511.099C246.49 509.888 248.358 509.406 250.147 509.608Z" fill="black"/>
<path d="M630.79 321.33C630.79 321.33 557.093 116.466 486.264 54.417C486.264 54.417 340.82 82.6192 202.676 251.704C202.676 251.704 213.376 284.03 232.512 308.578C232.512 308.578 414.326 283.499 532.153 389.361C532.153 389.361 543.255 400.022 562.217 393.402C581.18 386.782 623.245 361.594 631.6 348.26C631.6 348.26 633.267 332.847 630.79 321.33Z" fill="#93E9CA"/>
<path d="M484.75 46.656C484.62 46.6261 484.344 46.7235 484.219 46.7498C483.763 46.8451 483.298 46.96 482.844 47.0623C481.137 47.4468 479.443 47.8734 477.75 48.3123C472.063 49.7862 466.427 51.4571 460.844 53.281C440.255 60.0067 420.287 68.6083 400.938 78.3123C361.123 98.2796 323.903 123.366 289.719 151.875C272.032 166.625 255.077 182.29 239.031 198.812C227.72 210.46 216.784 222.453 206.219 234.781C203.631 237.801 201.094 240.839 198.562 243.906C197.752 244.889 196.666 245.96 196 247.062C195.759 247.462 195.379 247.819 195.312 248.281C195.027 250.266 195.082 252.279 194.969 254.281C194.952 254.584 195.248 255.132 195.344 255.406C195.693 256.405 196.069 257.383 196.438 258.375C197.583 261.461 198.789 264.527 200.062 267.562C204.274 277.6 209.086 287.394 214.656 296.75C217.421 301.394 220.369 305.951 223.562 310.312C224.388 311.44 225.246 312.566 226.125 313.656C226.177 313.721 226.306 313.866 226.344 313.906C226.559 314.134 226.707 314.483 227 314.594C229.169 315.413 231.412 315.963 233.625 316.656C239.872 315.82 246.181 315.382 252.469 315C263.922 314.305 275.402 314.07 286.875 314.219C320.79 314.659 354.755 318.443 387.781 326.25C424.588 334.951 460.138 348.897 492.094 369.25C500.284 374.466 508.187 380.162 515.75 386.25C519.434 389.216 522.981 392.315 526.531 395.438C526.493 395.405 526.588 395.497 526.625 395.531C526.636 395.541 526.645 395.553 526.656 395.562C526.753 395.65 526.87 395.727 526.969 395.812C527.211 396.022 527.468 396.239 527.719 396.438C528.469 397.033 529.226 397.575 530.031 398.094C532.297 399.555 534.743 400.75 537.281 401.656C539.407 402.415 541.617 402.981 543.844 403.344C546.459 403.77 549.103 403.921 551.75 403.812C559.495 403.494 566.726 400.817 573.719 397.656C580.174 394.738 586.461 391.425 592.625 387.938C604.415 381.267 616.037 373.936 626.5 365.312C629.879 362.528 633.18 359.58 636 356.219C636.659 355.433 637.221 354.713 637.812 353.875C638.064 353.519 638.361 353.182 638.531 352.781C639.041 351.583 639.415 350.324 639.844 349.094C639.978 348.71 639.934 348.182 639.969 347.781C640.038 346.972 640.104 346.154 640.156 345.344C640.351 342.345 640.447 339.349 640.438 336.344C640.425 332.478 640.265 328.587 639.781 324.75C639.636 323.594 639.777 324.763 638.938 319.719C638.683 318.438 638.085 317.317 637.344 316.344C637.311 316.255 637.252 316.082 637.188 315.906C636.588 314.278 635.952 312.656 635.344 311.031C633.467 306.023 631.563 301.016 629.625 296.031C623.426 280.085 616.987 264.24 610.281 248.5C598.439 220.702 585.833 193.212 572.062 166.312C561.545 145.767 550.369 125.519 537.938 106.062C527.858 90.2866 516.945 74.916 504.281 61.0936C501.301 57.8407 498.219 54.6735 495 51.656C494.609 51.2898 494.207 50.9242 493.812 50.5623C493.109 49.9175 492.402 49.2898 491.688 48.656C491.518 48.5057 491.201 48.1382 491.031 48.0936C488.954 47.5475 486.843 47.1373 484.75 46.656ZM484.062 63.1248C485.16 64.1514 486.279 65.1901 487.344 66.2498C490.67 69.5596 493.813 73.0079 496.875 76.5623C506.694 87.9588 515.441 100.309 523.594 112.938C536.197 132.459 547.439 152.828 558.031 173.5C571.097 199 583.08 225.047 594.375 251.375C601.218 267.326 607.808 283.396 614.125 299.562C616.246 304.99 618.357 310.42 620.406 315.875C621.09 317.695 621.766 319.52 622.438 321.344C622.511 321.543 622.583 321.739 622.656 321.938C622.681 322.277 622.588 322.595 622.656 322.938C623.309 326.821 623.167 325.691 623.312 326.844C623.429 327.77 623.518 328.6 623.594 329.531C623.849 332.661 623.906 335.799 623.844 338.938C623.806 340.851 623.693 342.778 623.562 344.688C623.549 344.887 623.546 345.082 623.531 345.281C623.251 345.624 622.964 345.974 622.688 346.281C621.311 347.813 619.795 349.234 618.25 350.594C613.485 354.786 608.306 358.468 603.062 362.031C597.849 365.574 592.443 368.886 587 372.062C580.918 375.612 574.698 378.937 568.312 381.906C561.145 385.239 553.419 388.537 545.375 386.781C544.369 386.562 543.368 386.274 542.406 385.906C538.379 384.364 536.132 381.769 532.875 379C529.695 376.297 526.461 373.651 523.188 371.062C511.326 361.686 498.588 353.363 485.406 345.969C446.91 324.375 404.137 311.137 360.688 304.094C332.077 299.456 303.04 297.447 274.062 297.844C264.392 297.976 254.706 298.377 245.062 299.125C242.11 299.354 239.164 299.628 236.219 299.938C235.672 299.182 235.125 298.376 234.625 297.656C232.193 294.154 229.898 290.527 227.75 286.844C223.389 279.368 219.54 271.624 216.094 263.688C214.599 260.245 213.283 256.709 211.969 253.188C212.737 252.256 213.505 251.331 214.281 250.406C217.462 246.615 220.69 242.828 223.938 239.094C233.224 228.413 242.809 217.982 252.75 207.906C297.382 162.667 348.209 123.199 404.875 94.156C421.669 85.5488 438.952 77.8475 456.719 71.4686C463.411 69.0657 470.158 66.8463 477 64.906C479.332 64.2447 481.703 63.6998 484.062 63.1248ZM210.375 249.156C210.374 249.154 210.406 249.154 210.406 249.156C210.405 249.177 210.407 249.198 210.406 249.219C210.399 249.197 210.382 249.178 210.375 249.156Z" fill="black"/>
<path d="M266.101 307.605C345.16 290.508 441.501 335.446 488.252 358.645C502.429 365.679 509.492 372.897 509.68 371.427C520.006 290.948 479.732 217.047 412.914 200.369C345.436 183.525 274.428 230.916 246.272 308.143C245.851 309.297 252.736 310.495 266.101 307.605Z" fill="#B7F2CC"/>
<path d="M421.041 329.415L467.183 305.974L415.108 301.346L442.082 274.228L403.92 276.472L397.231 207.783L342.565 265.801L322.555 243.705L324.993 284.596L301.623 281.242L323.858 307.915L421.041 329.415Z" fill="#DFFFEA"/>
<path d="M430.94 146.598C436.099 146.603 441.718 149.621 443.571 161.704C443.571 161.704 434.825 171.693 422.726 190.567C437.484 195.706 448.579 201.116 448.579 201.116C454.247 217.09 437.889 222.664 437.889 222.664C432.571 219.598 421.454 215.87 409.814 212.284C399.724 230.431 388.785 253.068 378.954 280.39C378.954 280.39 362.972 290.986 356.139 274.116C356.139 274.116 369.847 239.094 386.296 205.476C378.466 203.391 367.898 200.553 367.898 200.553C358.562 193.614 373.103 181.593 373.103 181.593C380.612 180.902 389.136 181.8 397.689 183.534C405.782 168.877 413.944 156.174 421.094 149.608C421.094 149.608 425.781 146.593 430.94 146.598Z" fill="#FFA0CA"/>
<path d="M484.305 44.4811C486.964 45.0826 489.657 45.5974 492.295 46.2815C492.498 46.3343 492.609 46.5437 492.773 46.6754C492.81 46.7054 492.95 46.8309 492.998 46.8723C493.728 47.5085 494.471 48.167 495.192 48.8133C495.575 49.1568 495.965 49.4805 496.345 49.8261C496.727 50.172 497.091 50.5188 497.471 50.8669C501.488 54.5516 505.421 58.3606 509.23 62.2601C524.327 77.7166 537.584 94.7599 548.951 113.121C551.887 117.861 550.399 124.082 545.66 127.018C540.92 129.954 534.699 128.495 531.763 123.755C522.306 108.494 511.496 94.2126 499.243 81.0799C494.974 76.5042 490.538 72.0737 485.965 67.8019C485.131 67.023 484.277 66.2636 483.433 65.4952C482.516 65.7277 481.59 65.9524 480.676 66.1984C475.584 67.5694 470.546 69.1197 465.542 70.7838C450.475 75.7942 435.742 81.8089 421.376 88.5628C378.712 108.62 338.73 134.927 302.634 165.192C275.896 187.611 250.972 212.09 227.945 238.305C223.982 242.818 220.065 247.368 216.215 251.977C215.757 252.524 215.32 253.088 214.864 253.637C216.184 257.085 217.457 260.561 218.943 263.933C222.209 271.345 225.834 278.596 229.915 285.594C232.181 289.48 234.582 293.28 237.172 296.959C237.65 297.638 238.146 298.314 238.635 298.984C239.584 299.113 240.522 299.223 241.476 299.294C245.303 299.577 249.152 299.504 252.982 299.322C258.865 299.046 263.874 303.595 264.15 309.477C264.426 315.36 259.877 320.369 253.995 320.646C247.637 320.941 241.203 320.954 234.894 319.998C233.433 319.777 231.961 319.48 230.533 319.098C230.103 318.983 229.39 318.907 229.014 318.648C227.382 317.522 225.737 316.439 224.176 315.216C223.876 314.981 223.705 314.59 223.472 314.288C223.044 313.731 222.626 313.192 222.207 312.628C221.167 311.231 220.132 309.812 219.14 308.38C215.502 303.127 212.182 297.659 209.097 292.064C204.273 283.313 200.026 274.245 196.298 264.974C195.349 262.613 194.436 260.22 193.569 257.828C193.307 257.106 193.059 256.389 192.809 255.662C192.762 255.525 192.562 255.222 192.584 255.072C193.05 251.916 193.441 248.734 193.991 245.591C194.024 245.403 194.213 245.294 194.329 245.141C194.415 245.027 194.519 244.915 194.61 244.804C195.284 243.975 195.955 243.152 196.635 242.328C197 241.886 197.367 241.447 197.732 241.006C198.098 240.565 198.463 240.124 198.83 239.684C199.194 239.246 199.561 238.799 199.927 238.362C204.603 232.774 209.351 227.241 214.189 221.792C233.606 199.923 254.398 179.322 276.387 160.044C294.576 144.098 313.749 129.202 333.691 115.513C364.065 94.661 396.36 76.5236 430.378 62.3163C441.948 57.4842 453.723 53.117 465.711 49.4322C470.192 48.0547 474.718 46.7589 479.27 45.6345C480.486 45.334 481.703 45.0309 482.927 44.7624C483.189 44.7049 484.056 44.4247 484.305 44.4811Z" fill="black"/>
<path d="M484.895 47.4349C486.769 47.8604 488.662 48.2169 490.521 48.7008C490.556 48.7098 490.862 48.9725 490.971 49.0665C491.373 49.4113 491.761 49.7519 492.153 50.1074C492.532 50.4511 492.901 50.8023 493.278 51.1482C493.668 51.5058 494.074 51.8837 494.46 52.2454C498.077 55.6356 501.52 59.1986 504.84 62.879C517.656 77.0847 528.735 92.893 538.907 109.07C552.532 130.739 564.729 153.267 576.153 176.163C588.322 200.553 599.592 225.373 610.248 250.458C616.849 265.998 623.216 281.64 629.321 297.381C631.199 302.224 633.043 307.087 634.863 311.953C635.266 313.031 635.91 314.8 636.663 316.848C637.337 317.727 637.895 318.726 638.126 319.886C638.438 321.46 638.263 320.767 638.435 321.461C638.843 323.102 638.966 324.875 639.139 326.553C639.473 329.8 639.606 333.08 639.617 336.343C639.626 339.329 639.529 342.308 639.336 345.288C639.277 346.192 639.191 347.088 639.111 347.989C639.083 348.299 639.126 348.732 639.026 349.03C638.668 350.094 638.337 351.163 637.929 352.209C637.691 352.818 637.107 353.458 636.719 353.981C635.994 354.96 635.199 355.917 634.384 356.822C631.813 359.682 628.937 362.256 625.973 364.699C620.931 368.855 615.58 372.625 610.135 376.233C604.002 380.297 597.732 384.138 591.316 387.739C584.971 391.299 578.486 394.661 571.821 397.584C565.401 400.4 558.798 402.695 551.735 402.986C549.144 403.092 546.531 402.953 543.971 402.536C541.793 402.181 539.635 401.617 537.557 400.876C534.596 399.819 531.756 398.381 529.202 396.544C528.614 396.121 528.061 395.667 527.514 395.193C527.44 395.13 527.307 395.014 527.204 394.912C527.239 394.943 527.072 394.786 527.092 394.828C523.844 391.942 520.564 389.099 517.19 386.36C509.319 379.971 501.07 374 492.519 368.553C483.829 363.018 474.913 357.883 465.71 353.25C441.071 340.845 414.777 331.795 387.955 325.456C354.398 317.525 319.874 313.737 285.416 313.388C273.486 313.267 261.539 313.567 249.634 314.372C246.226 314.603 242.822 314.884 239.422 315.216C237.981 315.357 236.556 315.498 235.118 315.666C234.768 315.707 233.807 315.934 233.514 315.863C231.779 315.445 229.996 315.182 228.31 314.597C227.859 314.441 227.568 313.987 227.213 313.669C226.557 313.081 225.996 312.172 225.469 311.475C225.262 311.201 225.055 310.906 224.85 310.631C224.646 310.356 224.433 310.091 224.231 309.815C224.029 309.539 223.841 309.277 223.64 308.999C220.693 304.914 217.947 300.668 215.37 296.34C210.052 287.41 205.406 278.077 201.332 268.518C199.866 265.079 198.498 261.615 197.197 258.11C196.83 257.122 196.447 256.122 196.1 255.128C196.035 254.943 195.708 254.182 195.734 254.003C196.054 251.829 196.31 249.668 196.691 247.504C196.709 247.401 196.984 247.095 197.084 246.97C197.418 246.558 197.76 246.17 198.097 245.76C198.461 245.317 198.83 244.852 199.194 244.41C199.557 243.97 199.928 243.555 200.291 243.116C203.173 239.641 206.067 236.185 209.012 232.764C219.541 220.528 230.486 208.623 241.813 197.121C288.617 149.598 342.388 108.582 402.105 78.6325C421.444 68.9331 441.464 60.4145 462.053 53.7363C467.654 51.9193 473.306 50.2313 479.016 48.7852C480.443 48.4236 481.882 48.0925 483.32 47.7725C483.616 47.7064 484.613 47.3708 484.895 47.4349ZM484.304 62.2882C480.574 63.17 476.855 64.0904 473.192 65.1857C465.648 67.4419 458.195 70.0022 450.828 72.7812C426.909 81.8039 403.787 93.06 381.682 105.892C338.84 130.76 299.41 161.211 263.868 195.687C245.174 213.82 227.67 233.103 211.037 253.131C213.943 261.106 217.402 268.928 221.221 276.479C225.475 284.891 230.256 293.178 235.877 300.785C238.687 300.485 241.5 300.222 244.317 299.997C252.445 299.349 260.583 298.957 268.735 298.759C300.433 297.991 332.324 300.061 363.593 305.398C406.197 312.67 448.42 325.773 486.077 347.286C499.181 354.772 511.785 363.103 523.632 372.463C526.919 375.06 530.169 377.711 533.337 380.453C534.831 381.746 536.218 383.192 537.754 384.335C539.933 385.956 542.538 387.021 545.18 387.598C553.413 389.395 561.327 386.061 568.67 382.647C575.392 379.521 581.905 375.973 588.306 372.238C593.74 369.067 599.099 365.763 604.284 362.195C609.279 358.759 614.242 355.205 618.8 351.196C620.369 349.816 621.904 348.393 623.301 346.836C623.667 346.428 624.002 346 624.342 345.57C624.362 345.298 624.379 345.026 624.398 344.754C624.529 342.838 624.618 340.908 624.651 338.987C624.706 335.813 624.656 332.644 624.398 329.479C624.287 328.118 624.152 326.749 623.948 325.4C623.883 324.975 623.949 325.396 623.47 322.783C623.408 322.475 623.492 322.189 623.47 321.883C623.369 321.609 623.261 321.342 623.16 321.067C622.488 319.242 621.819 317.403 621.135 315.582C619.085 310.124 616.983 304.696 614.861 299.266C608.431 282.808 601.714 266.471 594.748 250.233C582.603 221.922 569.642 193.901 555.364 166.599C545.42 147.585 534.899 128.856 523.182 110.871C515.014 98.3335 506.292 86.0754 496.429 74.8066C493.359 71.2997 490.172 67.9068 486.836 64.6512C486.01 63.8451 485.15 63.0725 484.304 62.2882Z" fill="black"/>
<path d="M430.94 139.565C441.095 139.575 448.401 146.825 450.52 160.635C450.834 162.687 450.228 164.784 448.86 166.346C448.816 166.396 447.87 167.497 447.453 168.005C446.244 169.481 444.857 171.265 443.29 173.322C440.208 177.368 436.895 182.126 433.472 187.191C437.266 188.658 441.174 190.099 444.64 191.608C446.543 192.435 448.264 193.192 449.76 193.886C450.671 194.308 451.318 194.613 451.673 194.786C453.33 195.594 454.601 197.016 455.218 198.753C459.081 209.64 455.765 218.644 448.241 224.718C446.513 226.113 444.694 227.244 442.868 228.15C442.221 228.471 441.629 228.765 441.068 228.994C440.693 229.146 440.387 229.257 440.167 229.331C438.248 229.985 436.129 229.782 434.372 228.769C430.986 226.816 423.424 224.092 413.274 220.836C402.981 239.922 393.634 260.355 385.565 282.781C385.052 284.205 384.098 285.405 382.836 286.241C382.538 286.439 382.09 286.735 381.514 287.057C380.613 287.56 379.623 288.057 378.532 288.52C374.085 290.407 369.425 291.263 364.719 290.376C358.052 289.12 352.744 284.492 349.613 276.761C348.938 275.094 348.929 273.232 349.585 271.556C349.613 271.485 351.204 267.464 351.835 265.902C353.637 261.445 355.688 256.505 357.94 251.161C363.828 237.192 370.031 223.299 376.31 210.09C371.424 208.782 366.099 207.369 366.07 207.361C365.214 207.131 364.418 206.736 363.707 206.208C358.976 202.691 357.042 197.636 357.968 192.283C358.637 188.413 360.631 184.818 363.51 181.34C364.611 180.009 365.777 178.793 366.942 177.683C367.655 177.002 368.247 176.48 368.63 176.163C369.721 175.262 371.046 174.718 372.456 174.588C378.846 174 386.175 174.617 393.976 175.882C402.332 161.2 409.701 150.528 416.34 144.431C416.636 144.16 416.959 143.917 417.297 143.7C417.583 143.516 417.986 143.267 418.534 142.969C419.39 142.504 420.344 142.046 421.376 141.618C424.437 140.349 427.638 139.561 430.94 139.565ZM430.94 153.63C429.725 153.629 428.26 153.972 426.777 154.587C426.094 154.87 425.744 155.07 425.399 155.262C419.615 160.766 412.356 171.533 403.85 186.938C402.365 189.628 399.294 191.037 396.283 190.426C388.643 188.877 381.871 188.255 376.056 188.513C375.477 189.098 374.901 189.67 374.368 190.313C373.043 191.915 372.251 193.345 371.977 194.336C375.2 195.199 386.757 198.312 388.096 198.668C392.379 199.809 394.574 204.59 392.626 208.571C392.003 209.842 391.367 211.125 390.741 212.425C383.974 226.47 377.263 241.544 370.908 256.619C368.684 261.897 366.665 266.796 364.888 271.191C364.615 271.867 364.356 272.547 363.932 273.61C364.971 275.235 366.064 276.296 367.336 276.536C368.876 276.826 370.899 276.45 373.018 275.551C373.185 275.48 373.204 275.451 373.356 275.382C382.185 251.28 392.311 229.251 403.653 208.852C405.268 205.947 408.719 204.582 411.896 205.561C423.94 209.271 432.208 212.177 437.804 214.788C438.347 214.456 438.907 214.179 439.408 213.775C441.943 211.728 443.056 209.393 442.559 206.095C441.446 205.588 440.34 205.069 439.014 204.492C433.862 202.25 428.286 200.028 422.445 197.937C421.772 197.696 421.093 197.44 420.419 197.206C416.125 195.71 414.336 190.597 416.79 186.769C422.188 178.348 427.358 171.017 432.094 164.798C433.514 162.933 434.726 161.371 435.891 159.932C435.242 157.468 434.463 155.544 433.528 154.615C432.828 153.919 432.075 153.631 430.94 153.63Z" fill="black"/>
<path d="M572.11 600.604C572.11 600.604 625.118 570.162 646.797 580.053C683.278 596.698 717.71 664.953 694.957 688.648C672.203 712.342 658.314 716.494 630.529 722.519C602.743 728.544 551.225 716.304 524.004 684.849" fill="#F3886D"/>
<path d="M702.37 654.791C702.37 654.791 616.8 611.153 529.289 690.378L542.998 710.195L564.698 718.092L592.031 724.4L620.062 724.275L644.224 718.256C644.224 718.256 662.453 710.157 666.375 708.637C670.297 707.117 687.083 695.749 687.083 695.749L700.223 681.502L702.37 654.791Z" fill="#F9B192"/>
<path d="M643.723 634.759C649.627 634.953 655.517 635.549 661.333 636.587C664.668 637.183 668.047 637.866 671.264 638.95C674.964 640.201 676.931 644.224 675.68 647.924C674.43 651.625 670.435 653.592 666.734 652.341C666.765 652.351 666.652 652.323 666.622 652.313C666.516 652.279 666.419 652.26 666.312 652.228C666.058 652.152 665.809 652.074 665.553 652.003C664.811 651.797 664.052 651.617 663.302 651.441C661.223 650.952 659.14 650.525 657.029 650.203C650.51 649.208 643.9 648.834 637.309 649.021C617.779 649.576 598.664 654.818 581.103 663.256C577.381 665.036 572.924 663.462 571.144 659.739C569.365 656.017 570.939 651.561 574.661 649.781C581.948 646.313 589.443 643.302 597.166 640.948C612.22 636.359 627.995 634.243 643.723 634.759Z" fill="black"/>
<path d="M617.589 636.897C620.3 636.4 623.181 637.515 624.791 639.963C626.725 642.893 628.545 645.917 630.333 648.937C633.523 654.327 636.428 659.902 638.041 665.985C639.07 669.98 636.663 674.041 632.667 675.071C628.672 676.101 624.611 673.721 623.581 669.726C622.71 666.21 621.178 662.855 619.615 659.599C617.652 655.511 615.448 651.557 612.976 647.756C610.83 644.492 611.737 640.112 615.001 637.966C615.817 637.429 616.685 637.063 617.589 636.897Z" fill="black"/>
<path d="M627.295 566.175C629.717 566.062 632.153 566.092 634.638 566.344C646.553 567.551 657.347 573.237 666.595 580.606C674.674 587.044 681.677 594.761 687.806 603.055C693.101 610.221 697.736 617.877 701.618 625.898C706.442 635.861 710.24 646.499 711.83 657.489C712.804 664.225 712.932 671.166 711.548 677.856C710.471 683.066 708.439 688.082 705.303 692.4C703.803 694.466 702.025 696.294 700.24 698.11C698.827 699.548 697.393 700.967 695.936 702.358C686.381 711.477 675.89 719.11 663.613 724.132C655.848 727.308 647.72 729.421 639.561 731.305C631.317 733.209 623.09 734.842 614.636 735.412C596.49 736.638 578.159 733.722 561.243 727.058C546.847 721.385 533.929 713.201 522.028 703.371C517.49 699.618 516.84 692.887 520.594 688.349C524.347 683.811 531.078 683.189 535.616 686.942C543.413 693.401 551.728 699.132 560.821 703.624C574.323 710.294 589.16 714.095 604.228 714.455C610.103 714.595 615.997 714.248 621.81 713.386C626.197 712.735 630.539 711.749 634.863 710.77C640.749 709.436 646.606 707.994 652.304 705.987C656.816 704.399 661.189 702.418 665.301 699.967C671.237 696.429 676.602 692.014 681.617 687.28C683.148 685.834 684.641 684.364 686.118 682.863C687.095 681.87 688.093 680.902 688.875 679.741C690.105 677.912 690.867 675.781 691.322 673.636C692.4 668.559 691.995 663.207 691.097 658.136C689.659 650.01 686.792 642.16 683.248 634.731C679.96 627.837 675.986 621.275 671.461 615.123C666.643 608.571 661.194 602.43 654.92 597.232C648.835 592.19 641.748 587.747 633.794 586.598C626.422 585.534 619.218 587.532 612.273 589.805C606.975 591.542 601.266 588.661 599.53 583.363C597.793 578.065 600.674 572.356 605.972 570.62C612.998 568.314 620.03 566.515 627.295 566.175Z" fill="black"/>
<path d="M637.818 571.042C642.254 571.213 646.222 572.063 649.717 573.658C668.896 582.409 687.957 604.123 699.453 628.739C711.758 655.086 713.259 679.763 700.044 693.525C688.352 705.7 678.51 713.282 667.693 718.534C658.435 723.028 649.66 725.568 632.022 729.392C616.563 732.745 595.444 730.915 574.944 724.441C552.395 717.32 532.37 705.264 518.682 689.446L529.315 680.247C541.159 693.933 558.943 704.637 579.164 711.023C597.48 716.807 616.189 718.423 629.041 715.636C645.641 712.037 653.596 709.741 661.56 705.875C670.738 701.419 679.271 694.82 689.888 683.764C697.974 675.344 696.823 656.33 686.71 634.675C676.517 612.849 659.638 593.654 643.866 586.458C638.576 584.044 628.752 584.898 616.072 588.821C610.256 590.62 604.059 592.998 597.646 595.797C592.157 598.193 586.812 600.765 581.864 603.336C580.136 604.234 578.578 605.068 577.223 605.812C576.753 606.07 575.678 606.678 575.619 606.712L568.615 594.503C568.959 594.306 569.591 593.946 570.471 593.462C571.919 592.667 573.566 591.796 575.394 590.846C580.608 588.137 586.219 585.417 592.02 582.885C598.882 579.89 605.548 577.342 611.909 575.374C621.74 572.332 630.423 570.757 637.818 571.042Z" fill="black"/>
<path opacity="0.197261" d="M523.864 389.428C523.864 389.428 527.453 729.784 217.178 681.703L266.788 722.717L335.607 747.742L444.808 743.192L522.158 694.279L559.688 718.938L617.948 727.701L667.391 709.352L697.139 685.263L697.703 660.773L660.421 646.733L593.557 649.405C593.557 649.405 569.634 612.281 572.518 602.579L605.337 585.847L608.891 449.781L593.787 418.571L579.249 393.193L545.852 397.912L523.864 389.428Z" fill="black"/>
<path opacity="0.197261" d="M143.856 522.249L97.0586 515.89L146.23 580.937L143.856 522.249Z" fill="black"/>
</svg>
