<svg width="800" height="800" viewBox="0 0 800 800" fill="none" xmlns="http://www.w3.org/2000/svg">
<path d="M143.723 528.414C143.723 402.597 245.717 300.603 371.533 300.603C497.35 300.603 599.344 402.597 599.344 528.414C599.344 654.23 497.35 756.224 371.533 756.224C245.717 756.224 143.723 654.23 143.723 528.414Z" fill="#F3886D"/>
<path d="M392.102 427.547C349.671 427.547 299.833 443.331 274.349 477.698C263.966 443.939 232.548 419.41 195.385 419.41C185.164 419.41 175.376 421.266 166.34 424.66C166.34 424.66 127.975 499.65 146.886 566.97C153.845 591.741 192.375 586.1 195.446 577.623C198.517 569.146 186.937 581.864 190.156 581.483C186.465 591.331 186.999 603.454 186.999 614.574C186.999 664.75 240.44 706.433 291.087 706.433C341.735 706.433 382.795 665.773 382.795 615.597C382.795 607.867 381.703 600.397 379.87 593.233C433.204 580.059 475.248 539.478 473.191 509.978C470.262 467.974 449.962 427.547 392.102 427.547Z" fill="#F9B192"/>
<path d="M371.527 290.406C240.086 290.406 133.537 396.984 133.537 528.425C133.537 659.865 240.086 766.415 371.527 766.415C502.968 766.415 609.517 659.866 609.517 528.425C609.517 396.984 502.968 290.406 371.527 290.406ZM371.527 310.773C491.719 310.773 589.15 408.233 589.15 528.425C589.15 648.617 491.719 746.048 371.527 746.048C251.335 746.048 153.904 648.617 153.904 528.425C153.904 408.233 251.335 310.773 371.527 310.773Z" fill="black"/>
<path d="M382.812 472.407C378.209 471.971 374.92 474.751 372.77 478.849C371.311 481.629 370.369 485.186 370.013 488.948C369.656 492.711 369.918 496.38 370.829 499.385C372.171 503.814 374.861 507.163 379.465 507.599C384.069 508.035 387.33 505.256 389.48 501.157C390.938 498.377 391.908 494.82 392.265 491.058C392.621 487.296 392.331 483.626 391.421 480.621C390.079 476.192 387.416 472.843 382.812 472.407Z" fill="black"/>
<path d="M203.654 461.237C199.05 460.801 195.79 463.581 193.64 467.679C192.181 470.459 191.211 474.016 190.855 477.778C190.498 481.541 190.788 485.21 191.699 488.215C193.041 492.644 195.731 495.993 200.335 496.429C204.939 496.865 208.199 494.057 210.35 489.959C211.808 487.179 212.778 483.65 213.135 479.888C213.491 476.126 213.201 472.456 212.291 469.451C210.949 465.022 208.258 461.673 203.654 461.237Z" fill="black"/>
<path d="M195.397 412.721C184.549 412.721 173.956 414.665 164.003 418.403C162.445 418.989 161.16 420.129 160.402 421.61C160.179 422.047 159.784 422.842 159.249 423.973C158.372 425.824 157.396 427.966 156.351 430.387C153.381 437.272 150.425 445.004 147.659 453.427C137.127 485.497 132.288 518.216 136.406 548.989C137.313 555.769 138.656 562.354 140.457 568.765C144.457 583.003 156.842 590.552 172.245 591.439C175.238 591.611 178.203 591.482 181.079 591.157C180.597 594.987 180.37 599.205 180.319 604.126C180.299 606.016 180.302 607.508 180.319 610.821C180.329 612.725 180.319 613.539 180.319 614.563C180.319 640.615 193.538 665.594 215.736 684.412C236.992 702.432 264.612 713.106 291.1 713.106C345.427 713.106 389.475 669.481 389.475 615.603C389.475 609.741 388.711 603.876 387.59 597.993C439.403 582.987 482.17 542.643 479.86 509.521C478.169 485.264 471.193 464.264 458.396 448.757C443.444 430.639 421.265 420.851 392.091 420.851C347.395 420.851 302.979 436.793 276.528 464.848C262.235 433.632 230.886 412.721 195.397 412.721ZM195.397 426.083C228.969 426.083 258.258 448.077 267.976 479.673C269.586 484.909 276.444 486.071 279.707 481.671C301.772 451.914 346.74 434.241 392.091 434.241C417.393 434.241 435.769 442.311 448.1 457.253C458.92 470.364 465.014 488.758 466.526 510.449C467.367 522.508 458.714 538.213 442.783 552.786C425.823 568.302 402.731 580.701 378.279 586.741C374.675 587.631 372.463 591.302 373.384 594.899C375.174 601.894 376.112 608.772 376.112 615.603C376.112 662.071 338.075 699.744 291.1 699.744C267.864 699.744 243.274 690.252 224.373 674.229C204.998 657.804 193.681 636.403 193.681 614.563C193.681 613.508 193.663 606.064 193.681 604.267C193.76 596.704 194.317 591.213 195.566 586.656C198.511 584.852 200.746 582.614 201.727 579.905C202.364 578.147 202.71 576.654 202.655 575.123C202.524 571.411 199.839 568.074 195.538 568.033C192.482 568.005 190.519 569.325 188.055 571.747C186.585 573.191 185.187 574.949 184.285 576.501C184.191 576.663 184.146 576.819 184.06 576.979C180.75 577.852 176.89 578.328 173.005 578.104C162.757 577.515 155.548 573.121 153.313 565.164C151.685 559.37 150.482 553.386 149.656 547.216C145.845 518.735 150.389 487.937 160.346 457.618C162.981 449.593 165.799 442.207 168.616 435.676C169.528 433.563 170.354 431.763 171.12 430.134C178.873 427.517 187.026 426.083 195.397 426.083Z" fill="black" fill-opacity="0.5"/>
<path d="M371.927 589.973C372.561 577.547 389.244 568.989 409.19 570.856C429.136 572.723 444.792 584.31 444.158 596.735C443.525 609.16 426.842 617.719 406.896 615.852C386.95 613.984 371.294 602.398 371.927 589.973Z" fill="#FF497F" stroke="black" stroke-width="0.0185569" stroke-miterlimit="10" stroke-linecap="round" stroke-linejoin="round"/>
<path d="M127.721 580.364C127.721 568.861 144.356 559.535 164.875 559.535C185.395 559.535 202.03 568.861 202.03 580.364C202.03 591.868 185.395 601.193 164.875 601.193C144.356 601.193 127.721 591.868 127.721 580.364Z" fill="#FF497F" stroke="black" stroke-width="0.0188804" stroke-miterlimit="10" stroke-linecap="round" stroke-linejoin="round"/>
<path d="M401.261 563.983C381.767 564.767 366.016 574.663 365.253 589.638C364.397 606.432 383.201 620.336 406.268 622.496C429.506 624.671 449.955 614.179 450.828 597.065C451.684 580.271 432.88 566.367 409.813 564.208C406.908 563.936 404.046 563.871 401.261 563.983ZM402.527 577.289C404.474 577.242 406.493 577.319 408.575 577.514C425.399 579.089 437.905 588.333 437.494 596.39C437.099 604.126 424.159 610.748 407.506 609.189C390.681 607.614 378.176 598.371 378.587 590.313C378.932 583.544 388.892 577.619 402.527 577.289Z" fill="black"/>
<path d="M164.875 552.73C141.1 552.73 120.934 564.039 120.934 580.355C120.934 596.671 141.099 607.98 164.875 607.98C188.65 607.98 208.816 596.671 208.816 580.355C208.816 564.039 188.651 552.73 164.875 552.73ZM164.875 566.346C182.139 566.346 195.228 573.664 195.229 580.355C195.229 587.046 182.14 594.392 164.875 594.392C147.611 594.392 134.521 587.046 134.521 580.355C134.521 573.664 147.611 566.346 164.875 566.346Z" fill="black"/>
<path d="M561.821 530.958C561.821 530.958 603.764 498.721 637.929 503.454C672.094 508.188 682.023 592.319 648.602 627.909C615.181 663.5 578.435 665.298 551.402 650.752" fill="#F3886D"/>
<path d="M561.821 530.958C561.821 530.958 603.764 498.721 637.929 503.454C672.094 508.188 682.023 592.319 648.602 627.909C615.181 663.5 578.435 665.298 551.402 650.752" stroke="black" stroke-width="0.0192069" stroke-miterlimit="10" stroke-linejoin="round"/>
<path d="M666.275 538.658C603.36 561.523 571.377 611.571 555.213 652.618C581.829 665.028 616.722 661.874 648.608 627.918C668.151 607.107 672.666 568.298 666.275 538.658Z" fill="#F9B192"/>
<path d="M636.214 547.244C635.293 547.212 634.344 547.345 633.429 547.695C616.327 554.27 602.474 566.936 590.669 580.636C585.662 586.448 580.827 592.51 576.632 598.95C574.606 602.058 575.464 606.235 578.573 608.261C581.681 610.287 585.858 609.4 587.884 606.292C592.529 599.197 598.023 592.58 603.807 586.403C613.599 575.945 624.946 566.086 638.492 560.944C642.153 559.546 643.998 555.462 642.6 551.802C641.551 549.056 638.977 547.342 636.214 547.244Z" fill="black"/>
<path d="M608.929 568.118C606.351 567.659 603.637 568.738 602.121 571.072C600.098 574.182 600.979 578.361 604.09 580.383C604.053 580.359 604.167 580.415 604.202 580.439C604.283 580.496 604.347 580.549 604.428 580.608C604.608 580.74 604.786 580.893 604.962 581.03C605.406 581.376 605.835 581.726 606.256 582.099C607.487 583.188 608.649 584.376 609.66 585.672C612.893 589.816 614.777 594.738 614.752 600.019C614.763 603.938 617.95 607.119 621.869 607.108C625.788 607.097 628.968 603.91 628.957 599.991C628.93 596.834 628.568 593.719 627.692 590.679C625.811 584.156 621.849 578.376 617.002 573.688C615.276 572.018 613.42 570.417 611.403 569.102C610.625 568.597 609.788 568.271 608.929 568.118Z" fill="black"/>
<path d="M629.491 488.732C619.886 488.997 609.763 491.525 599.279 495.877L606.986 514.415C617.941 509.869 627.854 507.976 636.159 509.127C646.322 510.535 655.953 527.994 658.41 552.955C661.063 579.898 654.631 606.814 641.278 621.033C613.733 650.367 582.54 656.103 556.153 641.906L546.645 659.601C581.197 678.192 622.271 670.638 655.935 634.789C693.432 594.858 683.626 495.433 638.915 489.238C635.83 488.81 632.693 488.643 629.491 488.732Z" fill="black"/>
<path d="M629.913 496.074C626.852 496.117 623.721 496.368 620.518 496.833C607.748 498.688 594.348 503.707 580.853 510.871C574.868 514.048 569.258 517.427 564.171 520.829C562.384 522.024 560.778 523.145 559.388 524.149C558.537 524.764 557.954 525.212 557.616 525.471C554.588 527.799 554.022 532.148 556.35 535.176C558.678 538.205 562.999 538.77 566.027 536.442C566.073 536.407 567.056 535.687 567.49 535.373C568.748 534.464 570.206 533.435 571.851 532.335C576.569 529.18 581.806 526.023 587.351 523.08C599.56 516.599 611.545 512.127 622.515 510.533C627.692 509.781 632.52 509.691 636.974 510.308C640.758 510.832 644.243 508.184 644.767 504.401C645.291 500.617 642.671 497.133 638.887 496.608C635.979 496.205 632.975 496.031 629.913 496.074Z" fill="black"/>
<path d="M240.162 365.257C240.162 365.257 199.704 323.905 266.713 278.59C333.721 233.274 560.445 291.361 560.445 291.361L567.551 321.807C567.551 321.807 575.129 361.317 558.529 382.437C541.929 403.557 364.159 435.628 240.162 365.257Z" fill="#DFFFEA"/>
<path d="M358.615 254.623C315.592 253.955 282.887 259.58 262.969 273.049C239.524 288.904 226.545 305.775 222.628 323.151C219.598 336.596 222.183 349.076 228.283 360.003C229.783 362.69 231.386 365.074 233.009 367.148C233.589 367.89 234.14 368.551 234.64 369.117C234.965 369.485 235.228 369.758 235.4 369.933C235.837 370.38 236.319 370.75 236.863 371.059C293.647 403.285 365.761 417.054 439.83 414.831C498.987 413.055 552.81 400.511 563.776 386.559C569.409 379.392 572.89 370.277 574.635 359.694C576.402 348.97 576.298 337.686 575.057 327.005C574.857 325.288 574.625 323.734 574.41 322.363C574.276 321.519 574.168 320.887 574.1 320.535C574.083 320.448 566.955 289.844 566.955 289.844C566.388 287.417 564.529 285.511 562.116 284.893C562.049 284.875 558.295 283.934 556.799 283.57C552.535 282.535 547.638 281.379 542.171 280.138C526.564 276.597 509.54 273.063 491.647 269.758C461.74 264.233 432.493 259.95 405.003 257.352C388.463 255.789 372.956 254.846 358.615 254.623ZM359.515 268.042C373.165 268.279 387.948 269.138 403.737 270.63C430.797 273.187 459.682 277.437 489.228 282.895C506.933 286.166 523.778 289.688 539.217 293.191C544.617 294.417 549.448 295.547 553.649 296.567C553.994 296.651 554.349 296.751 554.858 296.876L560.991 323.067C561.031 323.277 561.107 323.75 561.216 324.445C561.404 325.641 561.601 327.02 561.779 328.552C562.888 338.1 562.977 348.213 561.441 357.527C560.034 366.063 557.357 373.133 553.283 378.316C550.36 382.036 536.883 387.575 517.697 392.044C495.639 397.182 468.201 400.604 439.408 401.468C367.99 403.612 298.643 390.459 244.374 359.947C244.116 359.651 243.952 359.446 243.53 358.906C242.315 357.353 241.106 355.534 239.957 353.477C235.349 345.22 233.418 335.991 235.653 326.077C238.754 312.321 249.635 298.21 270.451 284.133C287.783 272.412 318.566 267.332 359.515 268.042Z" fill="black"/>
<path d="M168.513 212.352C171.296 154.748 279.291 129.413 411.68 135.801C544.07 142.189 649.127 181.392 646.344 238.996C643.561 296.601 543.329 339.628 410.939 333.24C278.55 326.852 165.73 269.957 168.513 212.352Z" fill="#93E9CA"/>
<path d="M368.675 161.075L348.316 194.057L399.691 168.605L414.526 200.893L427.615 171.398L476.308 190.247L462.346 156.214L416.969 145.393L372.465 144.87L368.675 161.075Z" fill="#DFFFEA"/>
<path d="M178.424 244.208C208.54 289.433 303.251 328.048 410.929 333.244C505.243 337.795 583.03 317.194 621.097 284.183C420.818 340.902 209.913 257.461 178.424 244.208Z" fill="#82D4D5"/>
<path d="M312.939 319.129C312.939 319.129 269.201 281.001 275.167 238.989C281.133 196.976 333.587 153.72 414.629 158.195C495.671 162.67 543.253 194.119 548.474 247.005C553.696 299.891 500.044 327.396 500.213 331.251C500.213 331.251 587.751 332.985 595.464 247.606C603.177 162.228 444.166 131.38 410.301 134.928C376.436 138.476 227.638 143.686 218.807 226.072C209.976 308.457 312.939 319.129 312.939 319.129Z" fill="#B7F2CC"/>
<path d="M266.035 319.1C263.463 319.589 261.305 321.584 260.718 324.304C259.752 328.733 258.856 333.185 258.017 337.639C257.137 342.318 256.339 347.07 256.358 351.845C256.397 355.764 259.613 358.888 263.531 358.85C267.45 358.811 270.603 355.623 270.564 351.704C270.501 348.22 271.019 344.713 271.464 341.268C272.077 336.526 272.864 331.794 273.855 327.118C274.637 323.491 272.335 319.938 268.707 319.156C267.801 318.961 266.892 318.937 266.035 319.1Z" fill="black"/>
<path d="M299.286 328.552C295.628 327.932 292.142 330.38 291.522 334.038C290.661 339.045 289.9 344.101 289.299 349.144C288.793 353.394 288.398 357.734 288.934 362C289.448 365.885 293.038 368.619 296.923 368.105C300.808 367.591 303.541 364.029 303.027 360.144C302.572 356.963 302.923 353.621 303.14 350.438C303.464 345.695 303.995 340.979 304.772 336.288C305.392 332.63 302.944 329.173 299.286 328.552Z" fill="black"/>
<path d="M346.968 339.27C344.389 339.718 342.197 341.68 341.567 344.39C339.367 353.74 336.901 363.009 334.675 372.353C333.788 376.17 336.175 379.989 339.992 380.876C343.809 381.764 347.629 379.376 348.516 375.56C350.639 366.192 352.527 356.79 354.676 347.428C355.516 343.814 353.255 340.195 349.641 339.355C348.737 339.145 347.828 339.121 346.968 339.27Z" fill="black"/>
<path d="M400.137 346.978C396.441 346.66 393.198 349.386 392.88 353.083C392.039 362.53 390.905 371.937 390.038 381.383C389.702 385.287 392.604 388.726 396.509 389.063C400.413 389.399 403.852 386.525 404.188 382.62C404.95 373.166 405.454 363.688 406.242 354.236C406.561 350.539 403.834 347.297 400.137 346.978Z" fill="black"/>
<path d="M460.563 349.454C456.854 349.354 453.771 352.271 453.671 355.98C453.396 365.264 452.848 374.547 452.546 383.83C452.441 387.748 455.52 391.011 459.438 391.116C463.356 391.221 466.619 388.113 466.724 384.196C466.921 374.91 466.894 365.631 467.118 356.346C467.218 352.637 464.272 349.553 460.563 349.454Z" fill="black"/>
<path d="M503.66 345.262C499.954 345.429 497.08 348.56 497.247 352.267C497.67 362.251 497.807 372.241 498.203 382.227C498.379 386.142 501.714 389.182 505.63 389.006C509.545 388.83 512.557 385.523 512.381 381.608C511.879 371.627 511.14 361.658 510.665 351.676C510.498 347.97 507.367 345.096 503.66 345.262Z" fill="black"/>
<path d="M537.079 335.726C533.391 336.126 530.715 339.436 531.116 343.124C532.068 352.194 532.401 361.392 531.903 370.496C531.711 374.41 534.741 377.731 538.655 377.923C542.569 378.115 545.889 375.113 546.081 371.199C546.51 361.346 545.562 351.454 544.478 341.661C544.077 337.973 540.768 335.325 537.079 335.726Z" fill="black"/>
<path d="M362.695 127.864C315.01 128.491 272.68 133.72 239.536 143.336C191.119 157.384 163.02 180.54 161.5 212.005C158.444 275.272 275.236 333.723 410.602 340.255C544.185 346.701 650.284 303.333 653.375 239.348C654.895 207.88 629.066 181.255 582.428 161.706C539.2 143.586 479.081 132.001 412.009 128.764C395.066 127.947 378.59 127.655 362.695 127.864ZM361.851 141.93C377.635 141.708 394.153 142.001 411.334 142.83C546.538 149.354 641.697 189.226 639.309 238.645C638.101 263.658 615.084 287.034 574.579 303.6C532.143 320.956 474.432 329.265 411.277 326.217C348.117 323.17 287.281 308.279 242.181 285.708C198.541 263.869 174.356 237.146 175.538 212.68C177.594 170.117 251.363 143.483 361.851 141.93Z" fill="black"/>
<path d="M452.292 125.023C446.771 124.496 441.876 128.561 441.349 134.081C440.822 139.601 444.886 144.497 450.407 145.024C563.838 155.846 638.44 194.747 636.326 238.504C635.085 264.208 608.843 288.564 563.044 304.781C557.817 306.632 555.089 312.354 556.94 317.581C558.791 322.809 564.54 325.565 569.768 323.714C622.403 305.076 654.663 275.125 656.384 239.489C659.234 180.489 575.421 136.77 452.292 125.023Z" fill="black"/>
<path d="M370.88 120.325C316.815 120.563 268.666 127.257 232.137 139.848C186.71 155.505 159.887 180.031 158.348 211.864C156.696 246.08 187.481 278.794 239.704 303.656C244.782 306.074 250.874 303.924 253.291 298.846C255.709 293.767 253.559 287.704 248.481 285.286C202.87 263.572 177.537 236.66 178.687 212.848C180.869 167.686 268.916 137.331 393.779 140.973C399.401 141.137 404.108 136.721 404.272 131.099C404.436 125.477 400.02 120.77 394.398 120.606C386.449 120.374 378.604 120.291 370.88 120.325Z" fill="black"/>
<path d="M241.729 285.99C238.968 285.804 236.129 286.668 233.881 288.634C227.564 294.2 222.103 300.769 218.634 308.495C213.112 320.791 212.663 334.64 216.243 347.541C217.34 351.495 218.726 355.482 220.687 359.103C223.385 364.073 229.615 365.908 234.584 363.21C239.554 360.512 241.389 354.283 238.691 349.313C238.705 349.338 238.485 348.906 238.438 348.807C238.264 348.436 238.091 348.059 237.932 347.681C237.404 346.427 236.955 345.156 236.553 343.856C235.468 340.342 234.808 336.676 234.725 332.997C234.671 330.654 234.845 328.3 235.259 325.992C236.781 317.507 241.707 310.472 248.115 304.922C252.612 300.991 253.059 294.144 249.128 289.647C247.162 287.398 244.491 286.175 241.729 285.99Z" fill="black"/>
<path d="M572.329 309.057C570.996 308.853 569.583 308.903 568.194 309.254C562.634 310.661 559.276 316.326 560.682 321.885C560.674 321.853 560.703 321.937 560.711 321.97C560.726 322.035 560.752 322.101 560.767 322.166C560.804 322.33 560.816 322.509 560.851 322.673C560.969 323.214 561.085 323.733 561.189 324.276C561.502 325.92 561.781 327.597 562.005 329.256C562.661 334.139 562.957 339.07 562.849 343.996C562.521 358.891 558.873 373.958 549.289 385.687C545.476 390.393 546.187 397.317 550.893 401.131C555.599 404.944 562.523 404.205 566.337 399.499C570.808 393.943 574.489 387.835 577.224 381.242C582.702 368.033 584.299 353.522 583.75 339.327C583.567 334.584 583.114 329.872 582.428 325.176C582.017 322.364 581.521 319.523 580.824 316.765C579.769 312.596 576.329 309.671 572.329 309.057Z" fill="black"/>
<path d="M419.153 127.723C415.57 127.651 412.365 127.77 409.589 128.061C409.633 128.056 383.062 130.344 372.033 131.577C352.005 133.818 333.61 136.792 316.165 140.945C288.917 147.432 266.066 156.35 248.537 168.401C227.244 183.04 214.447 201.938 211.938 225.339C209.611 247.054 214.351 265.587 225.188 280.898C234.188 293.612 246.992 303.606 262.547 311.252C273.417 316.595 285.012 320.484 296.585 323.179C300.634 324.122 304.389 324.862 307.782 325.402C309.851 325.731 311.366 325.931 312.226 326.02C318.942 326.716 322.576 318.36 317.487 313.924C317.444 313.887 316.447 313.001 316.024 312.602C314.793 311.44 313.437 310.075 311.945 308.523C307.662 304.067 303.364 299.028 299.37 293.529C286.341 275.587 279.561 257.235 282.013 239.967C284.762 220.613 298.587 201.13 320.497 186.968C344.975 171.146 377.45 163.077 414.258 165.11C492.349 169.422 536.76 198.855 541.58 247.675C543.72 269.343 535.4 287.869 519.497 304.584C514.652 309.678 509.931 313.853 503.463 319.016C502.911 319.456 500.821 321.107 500.34 321.491C499.224 322.383 498.431 323.017 497.752 323.601C496.831 324.393 496.123 325.062 495.53 325.739C494.068 327.408 493.195 329 493.307 331.562C493.467 335.207 496.439 338.101 500.087 338.173C500.137 338.174 500.111 338.172 500.227 338.173C501.493 338.186 503.35 338.151 505.685 338.004C509.253 337.781 513.136 337.341 517.275 336.682C528.826 334.844 540.333 331.472 551.145 326.161C580.049 311.962 598.878 286.609 602.344 248.238C604.359 225.933 596.218 205.944 579.529 188.684C565.388 174.059 545.374 161.633 521.129 151.522C487.193 137.37 444.239 128.231 419.153 127.723ZM418.506 141.592C427.309 141.795 439.758 143.229 453.305 145.812C474.475 149.848 496.365 156.184 515.812 164.294C564.517 184.605 591.685 212.686 588.588 246.972C585.574 280.334 569.798 301.607 545.069 313.755C537.612 317.418 529.68 320.021 521.635 321.773C524.363 319.321 526.943 316.851 529.54 314.121C547.977 294.742 557.952 272.53 555.365 246.325C549.751 189.469 499.16 155.943 415.018 151.297C375.361 149.108 339.986 157.898 312.986 175.35C287.891 191.57 271.663 214.439 268.314 238.026C265.263 259.51 273.236 281.061 288.174 301.631C289.73 303.773 291.366 305.759 292.985 307.763C284.657 305.444 276.397 302.653 268.651 298.846C255.021 292.146 244.027 283.548 236.497 272.909C227.616 260.361 223.724 245.182 225.695 226.802C229.537 190.955 263.322 167.735 319.372 154.392C336.203 150.385 354.042 147.488 373.552 145.305C384.363 144.096 410.881 141.832 411.023 141.817C413.055 141.604 415.572 141.524 418.506 141.592Z" fill="black"/>
<path d="M399.013 43.6304L397.832 68.5828L362.949 67.5982L361.908 104.844L396.087 105.8L394.36 128.866L444.209 131.229L445.992 107.207L476.121 108.051L477.162 70.8052L447.736 69.9894L448.862 45.9653L399.013 43.6304Z" fill="#FFA0CA"/>
<path d="M399.489 33.5961C393.952 33.3367 389.259 37.6236 388.997 43.1607L388.293 58.2672L363.228 57.5639C357.684 57.4074 353.059 61.7812 352.904 67.3255L351.863 104.571C351.708 110.114 356.082 114.712 361.625 114.867L385.593 115.542L385.114 125.923C384.857 131.462 389.14 136.159 394.679 136.416C400.219 136.673 404.915 132.391 405.172 126.851L406.128 106.259C406.389 100.647 401.983 95.9231 396.367 95.7661L372.23 95.091L372.709 77.9028L397.548 78.6061C403.017 78.7604 407.614 74.5342 407.873 69.0696L408.576 54.1319L438.367 55.5103L437.72 69.5197C437.457 75.134 441.835 79.8569 447.453 80.0126L466.836 80.5471L466.357 97.7353L446.272 97.1727C440.803 97.0195 436.233 101.272 435.976 106.737L434.963 128.286C434.703 133.825 438.96 138.519 444.499 138.779C450.039 139.039 454.76 134.754 455.021 129.214L455.583 117.512L475.838 118.074C481.381 118.23 486.007 113.884 486.162 108.341L487.203 71.095C487.358 65.5509 482.985 60.9245 477.441 60.7709L458.256 60.2364L458.903 46.4239C459.162 40.8845 454.877 36.1905 449.338 35.931L399.489 33.5961Z" fill="black"/>
<path opacity="0.203921" d="M648.582 238.888C648.582 238.888 398.105 313.876 186.02 246.061L231.874 289.13L297.054 312.704L339.448 323.084L407.779 377.462C340.21 378.332 269.052 371.487 231.621 343.901L234.35 362.946L270.892 381.26L325.27 398.335L370.955 404.777C370.955 404.777 454.853 420.724 478.079 438.057C496.08 451.49 530.941 461.974 546.026 502.081C448.005 743.501 217.274 691.969 217.274 691.969L276.321 737.289L330.615 753.098L389.943 754.28L453.322 741.621L503.425 712.027L558.561 654.667L590.743 661.025L624.811 646.987L656.065 610.529L672.004 536.604L606.35 565.302C571.765 561.671 576.266 519.172 576.266 519.172L601.436 499.922L585.568 459.465L587.621 457.805L555.72 389.868L561.402 380.135L562.079 380.106L562.303 378.587L571.306 363.171C571.306 363.171 567.272 363.796 564.413 364.24L572.29 310.847C622.655 293.438 648.582 238.888 648.582 238.888Z" fill="black"/>
<path d="M239.115 581.76C239.115 581.76 276.782 590.548 294.431 586.537C312.079 582.526 290.872 623.606 263.345 614.222C248.241 609.074 239.115 581.76 239.115 581.76Z" fill="#AC3A34" stroke="black" stroke-width="0.0188804" stroke-miterlimit="10" stroke-linejoin="round"/>
<path d="M238.75 574.955C234.442 575.159 231.199 579.515 232.674 583.928C232.784 584.26 232.982 584.802 233.264 585.56C233.723 586.789 234.248 588.15 234.868 589.611C236.641 593.79 238.728 597.989 241.113 601.932C246.777 611.3 253.275 617.986 261.142 620.668C276.416 625.874 291.627 619.145 301.229 606.518C305.308 601.155 307.8 595.294 307.7 590.342C307.54 582.439 301.097 578.05 292.931 579.906C288.195 580.982 280.875 581.048 271.86 580.215C266.569 579.726 260.909 578.95 255.094 577.965C251.421 577.342 247.902 576.69 244.686 576.024C243.563 575.791 240.833 575.191 240.663 575.152C240.015 575 239.365 574.925 238.75 574.955ZM250.79 590.989C251.493 591.114 252.099 591.262 252.816 591.383C258.947 592.423 264.958 593.25 270.623 593.774C279.601 594.604 287.131 594.572 293.212 593.606C292.56 595.082 291.637 596.684 290.427 598.275C284.05 606.661 274.545 610.857 265.531 607.784C261.382 606.369 256.92 601.781 252.759 594.9C252.016 593.67 251.471 592.281 250.79 590.989Z" fill="black"/>
</svg>
