<svg width="800" height="800" viewBox="0 0 800 800" fill="none" xmlns="http://www.w3.org/2000/svg">
<path d="M183.858 514.203C183.858 514.203 170.976 479.707 144.777 491.278C118.577 502.85 113.556 569.004 180.146 617.473" fill="#F3886D"/>
<path d="M183.858 514.203C183.858 514.203 170.976 479.707 144.777 491.278C118.577 502.85 113.556 569.004 180.146 617.473" stroke="black" stroke-width="0.01875" stroke-miterlimit="10" stroke-linecap="round" stroke-linejoin="round"/>
<path d="M135.588 498.711C167.359 523.7 173.931 563.16 173.931 563.16C173.931 563.16 174.958 593.086 174.803 613.234C122.402 571.816 119.115 519.529 135.588 498.711Z" fill="#F9B192"/>
<path d="M135.588 498.711C167.359 523.7 173.931 563.16 173.931 563.16C173.931 563.16 174.958 593.086 174.803 613.234C122.402 571.816 119.115 519.529 135.588 498.711Z" fill="#F9B192"/>
<path d="M154.79 482.148C158.921 482.081 162.921 482.926 166.718 484.595C172.702 487.226 177.786 491.729 182.134 497.508C184.481 500.628 186.473 503.933 188.126 507.241C188.706 508.402 189.196 509.464 189.617 510.448C189.881 511.066 190.07 511.561 190.18 511.855C191.484 515.348 189.706 519.214 186.213 520.519C182.72 521.823 178.825 520.046 177.52 516.552C177.482 516.451 177.39 516.184 177.211 515.765C176.892 515.019 176.486 514.175 176.029 513.261C174.72 510.64 173.147 508.023 171.332 505.609C164.545 496.587 156.99 493.262 147.504 497.451C137.207 501.999 131.089 518.877 134.339 539.479C138.337 564.82 155.087 590.861 184.131 612.002C187.146 614.196 187.789 618.439 185.594 621.454C183.4 624.469 179.185 625.139 176.17 622.945C144.314 599.758 125.578 570.579 121.005 541.589C116.898 515.559 125.243 492.524 142.047 485.102C146.39 483.184 150.66 482.215 154.79 482.148Z" fill="black"/>
<path d="M600.595 373.457L648.958 375.137C648.958 375.137 688.068 274.446 645.148 169.941C602.228 65.4351 437.663 13.8091 371.27 52.1525C371.27 52.1525 361.73 74.4066 381.317 111.812" fill="#ABACE3"/>
<path d="M617.921 346.909C617.921 346.909 659.362 336.953 654.138 307.429C648.915 277.905 618.494 288.093 612.776 288.54C612.776 288.54 656.455 274.3 646.02 243.485C635.585 212.671 602.788 222.041 594.679 227.392C594.679 227.392 638.735 207.115 621.523 177.789C604.311 148.463 571.316 170.504 563.618 175.069C563.618 175.069 599.758 144.95 574.672 120.294C549.586 95.6388 518.752 124.968 518.752 124.968L492.845 92.1353C492.845 92.1353 489.98 61.1201 464.353 57.1002C438.726 53.0803 423.613 79.0267 417.057 102.172L416.537 61.0812L427.808 41.6457L401.746 41.064L375.799 48.1876L368.67 58.8064C368.67 58.8064 368.77 80.0086 369.829 82.2076C370.887 84.4066 372.763 97.8269 374.048 104.5C375.333 111.174 384.299 137.379 384.299 137.379L473.455 245.521C473.455 245.521 529.846 332.24 535.059 343.613C540.271 354.986 574.39 388.157 582.446 387.209C590.502 386.262 617.921 346.909 617.921 346.909Z" fill="#C3C4E1"/>
<path d="M616.43 327.686C616.43 327.686 640.728 320.744 639.993 309.115C639.258 297.487 619.235 305.393 615.176 304.28" fill="#FFD000"/>
<path d="M609.992 270.439C609.992 270.439 641.26 259.95 628.619 243.54C615.978 227.131 598.938 249.498 598.938 249.498" fill="#FFD000"/>
<path d="M582.841 212.412C582.841 212.412 610.595 202.367 606.798 188.222C603.002 174.077 576.532 186.65 570.934 193.653" fill="#FFD000"/>
<path d="M550.715 166.519C550.715 166.519 569.817 150.604 563.914 137.137C558.01 123.669 539.989 132.499 531.965 142.937" fill="#FFD000"/>
<path d="M468.024 113.15C468.024 113.15 476.164 84.9068 466.361 76.0511C456.557 67.1955 442.412 79.9333 437.453 107.366" fill="#FFD000"/>
<path d="M595.593 374.044L643.956 375.725C643.956 375.725 683.066 275.033 640.146 170.528C597.226 66.0225 432.661 14.3965 366.268 52.7399C366.268 52.7399 356.728 74.9939 376.315 112.4" fill="#B7F2CC"/>
<path d="M612.919 347.496C612.919 347.496 654.36 337.541 649.136 308.016C643.913 278.492 613.492 288.68 607.774 289.127C607.774 289.127 651.453 274.887 641.018 244.073C630.583 213.259 597.786 222.629 589.677 227.979C589.677 227.979 633.733 207.702 616.521 178.376C599.309 149.05 566.314 171.091 558.616 175.656C558.616 175.656 594.756 145.537 569.67 120.881C544.585 96.2262 513.75 125.556 513.75 125.556L487.843 92.7227C487.843 92.7227 484.978 61.7075 459.351 57.6876C433.724 53.6677 418.611 79.6141 412.055 102.759L411.535 61.6686L422.806 42.2331L396.744 41.6514L370.797 48.775L363.668 59.3938C363.668 59.3938 363.768 80.596 364.827 82.7949C365.885 84.9939 367.761 98.4143 369.046 105.088C370.331 111.761 379.298 137.967 379.298 137.967L468.453 246.108C468.453 246.108 524.844 332.827 530.057 344.2C535.269 355.573 569.388 388.744 577.444 387.797C585.5 386.849 612.919 347.496 612.919 347.496Z" fill="#DFFFEA"/>
<path d="M611.428 328.273C611.428 328.273 635.726 321.331 634.991 309.703C634.256 298.074 614.233 305.98 610.174 304.868" fill="#FFA0CA"/>
<path d="M604.99 271.027C604.99 271.027 636.258 260.537 623.617 244.128C610.976 227.718 593.936 250.085 593.936 250.085" fill="#FFA0CA"/>
<path d="M577.839 213C577.839 213 605.593 202.955 601.796 188.809C598 174.664 571.53 187.238 565.932 194.24" fill="#FFA0CA"/>
<path d="M545.713 167.106C545.713 167.106 564.815 151.191 558.912 137.724C553.008 124.257 534.987 133.087 526.963 143.524" fill="#FFA0CA"/>
<path d="M463.022 113.737C463.022 113.737 471.163 85.4941 461.359 76.6385C451.555 67.7829 437.41 80.5208 432.451 107.953" fill="#FFA0CA"/>
<path d="M434.332 33.3701C436.944 33.6836 439.267 35.5216 440.042 38.2087C441.075 41.7915 438.983 45.5307 435.401 46.5637C435.068 46.6595 434.264 46.9521 433.15 47.4639C431.224 48.3487 429.303 49.4983 427.524 50.924C423.071 54.492 420.326 59.1008 419.872 65.1866C419.516 69.9551 419.492 75.9414 419.76 82.8249C419.986 88.6593 420.404 94.9006 420.969 101.279C421.276 104.745 421.625 108.018 421.954 111.013C422.069 112.058 422.355 114.619 422.376 114.782C422.837 118.482 420.225 121.86 416.524 122.321C412.824 122.783 409.447 120.142 408.985 116.442C408.978 116.387 408.654 113.585 408.535 112.504C408.196 109.419 407.838 106.025 407.522 102.461C406.939 95.8749 406.521 89.4104 406.285 83.3312C405.999 75.9803 405.998 69.5271 406.397 64.1738C407.151 54.0756 411.877 46.1503 419.084 40.3748C421.786 38.2099 424.649 36.4911 427.524 35.1705C428.54 34.7036 429.493 34.3324 430.365 34.0172C430.929 33.813 431.359 33.6534 431.659 33.5671C432.555 33.3088 433.461 33.2657 434.332 33.3701Z" fill="black"/>
<path d="M420.237 33.3701C448.999 32.9163 481.943 39.2082 514.448 51.768C575.925 75.5224 625.59 117.319 646.384 167.95C660.025 201.165 666.483 236.007 666.976 271.501C667.356 298.891 664.188 325.035 658.677 349.003C656.852 356.94 654.902 364.081 652.938 370.298C652.246 372.49 651.608 374.417 651.025 376.065C650.668 377.077 650.39 377.783 650.238 378.175C649.198 380.851 646.581 382.579 643.711 382.479L595.354 380.791C591.627 380.662 588.726 377.541 588.855 373.815C588.985 370.088 592.106 367.159 595.832 367.288L639.21 368.807C639.498 367.944 639.742 367.207 640.054 366.219C641.912 360.336 643.798 353.569 645.54 345.993C650.821 323.023 653.837 297.935 653.473 271.698C653.003 237.825 646.855 204.659 633.894 173.098C614.669 126.288 567.87 86.8931 509.582 64.3708C456.5 43.8601 402.7 41.1966 371.879 57.4505C371.815 57.7041 371.745 57.8727 371.682 58.1538C370.623 62.9002 370.301 68.928 371.204 76.1296C372.46 86.1511 375.975 97.2134 382.288 109.268C384.017 112.572 382.75 116.653 379.446 118.383C376.143 120.113 372.062 118.845 370.332 115.542C363.279 102.073 359.273 89.431 357.814 77.7894C356.714 69.0134 357.126 61.4604 358.517 55.2281C358.819 53.873 359.162 52.6632 359.501 51.6273C359.727 50.9384 359.914 50.4291 360.064 50.0801C360.638 48.7404 361.615 47.6303 362.877 46.9013C378.005 38.1648 397.866 33.7231 420.237 33.3701Z" fill="black"/>
<path d="M627.761 296.566C629.661 296.688 631.401 297.02 633.05 297.607C638.118 299.41 641.38 303.557 641.742 309.282C642.051 314.17 640 318.546 636.369 322.306C633.757 325.012 630.366 327.371 626.354 329.48C623.483 330.989 620.463 332.283 617.437 333.39C615.615 334.056 614.158 334.516 613.273 334.768C609.688 335.793 605.971 333.712 604.947 330.127C603.922 326.541 605.975 322.796 609.56 321.772C609.678 321.738 609.962 321.651 610.376 321.519C611.097 321.288 611.918 321.024 612.795 320.703C615.296 319.788 617.794 318.726 620.081 317.524C625.424 314.715 628.14 311.895 628.183 310.266C627.166 309.993 625.433 309.946 622.95 310.21C621.755 310.337 620.519 310.49 618.787 310.772C618.494 310.82 616.832 311.119 616.368 311.194C615.422 311.347 614.662 311.446 613.977 311.532C611.694 311.816 610.097 311.862 608.379 311.391C604.782 310.406 602.667 306.689 603.652 303.093C604.638 299.497 608.355 297.381 611.951 298.367C611.531 298.251 611.35 298.225 611.276 298.226C611.489 298.221 611.839 298.201 612.317 298.142C612.81 298.08 613.403 297.989 614.202 297.86C614.631 297.791 616.271 297.519 616.593 297.466C618.553 297.146 620.018 296.922 621.516 296.763C623.786 296.522 625.861 296.445 627.761 296.566Z" fill="black"/>
<path d="M611.332 231.386C613.185 231.249 615.058 231.377 616.959 231.808C621.526 232.844 625.591 235.607 628.971 239.994C633.985 246.504 634.668 253.617 631.305 260.024C628.903 264.601 624.735 268.367 619.322 271.67C616.652 273.299 613.837 274.716 611.023 275.918C609.324 276.643 607.978 277.156 607.141 277.437C603.606 278.623 599.775 276.696 598.589 273.161C597.403 269.626 599.302 265.823 602.837 264.637C602.933 264.605 603.172 264.494 603.54 264.356C604.187 264.113 604.915 263.822 605.706 263.484C607.963 262.52 610.226 261.395 612.289 260.136C615.805 257.991 618.298 255.754 619.35 253.75C620.235 252.063 620.11 250.612 618.281 248.237C616.739 246.235 615.325 245.279 613.977 244.974C611.525 244.418 607.968 245.954 604.103 249.249C602.811 250.351 601.603 251.544 600.53 252.738C600.158 253.151 599.847 253.53 599.573 253.863C599.425 254.044 599.344 254.142 599.32 254.172C597.061 257.139 592.806 257.726 589.84 255.466C586.874 253.207 586.314 248.953 588.574 245.986C588.965 245.474 589.601 244.694 590.487 243.708C591.937 242.095 593.573 240.471 595.354 238.953C600.442 234.616 605.775 231.799 611.332 231.386Z" fill="black"/>
<path d="M597.073 173.695C598.197 173.764 599.284 173.908 600.336 174.145C606.021 175.43 610.216 179.241 611.786 185.088C613.324 190.82 611.799 196.343 608.072 201.236C605.375 204.777 601.626 207.916 597.045 210.772C594.102 212.607 590.983 214.214 587.874 215.611C586 216.453 584.508 217.054 583.598 217.383C580.092 218.652 576.231 216.838 574.962 213.332C573.693 209.826 575.507 205.965 579.013 204.696C579.136 204.652 579.429 204.529 579.857 204.358C580.602 204.061 581.425 203.725 582.332 203.318C584.922 202.154 587.524 200.805 589.9 199.323C596.502 195.205 599.457 191.304 598.733 188.605C598.296 186.978 595.799 186.415 589.871 188.127C583.68 189.915 576.666 193.998 574.681 196.482C572.352 199.394 568.085 199.879 565.172 197.551C562.26 195.222 561.803 190.983 564.131 188.07C568.066 183.148 577.467 177.661 586.13 175.158C590.012 174.037 593.701 173.489 597.073 173.695Z" fill="black"/>
<path d="M549.078 124.122C556.027 124.218 561.914 127.777 565.085 135.009C566.227 137.614 566.796 140.374 566.801 143.195C566.811 150.291 563.52 157.177 558.164 163.871C556.408 166.066 554.52 168.074 552.651 169.891C551.512 170.998 550.608 171.804 550.034 172.282C547.17 174.669 542.913 174.303 540.526 171.438C538.139 168.574 538.533 164.317 541.398 161.93C541.452 161.885 541.585 161.746 541.82 161.536C542.24 161.161 542.737 160.717 543.255 160.214C544.744 158.766 546.236 157.155 547.615 155.432C551.23 150.914 553.303 146.564 553.298 143.195C553.296 142.197 553.115 141.304 552.735 140.438C551.513 137.651 549.556 136.978 545.618 138.131C540.976 139.49 535.61 143.349 532.312 147.639C530.039 150.596 525.816 151.15 522.86 148.877C519.903 146.605 519.349 142.353 521.622 139.397C526.607 132.913 534.355 127.384 541.848 125.191C544.334 124.463 546.761 124.09 549.078 124.122Z" fill="black"/>
<path d="M453.669 66.197C458.127 65.7342 462.583 67.1602 466.469 70.6699C471.909 75.5837 473.784 83.3344 473.502 93.1186C473.37 97.6788 472.754 102.464 471.814 107.269C471.444 109.16 471.031 110.93 470.632 112.529C470.389 113.509 470.219 114.219 470.098 114.639C469.065 118.222 465.298 120.286 461.715 119.253C458.132 118.22 456.069 114.481 457.101 110.898C457.116 110.848 457.432 109.745 457.551 109.266C457.896 107.88 458.24 106.337 458.564 104.681C459.373 100.547 459.891 96.4581 459.999 92.7248C460.177 86.5359 459.14 82.2465 457.411 80.6846C455.53 78.986 453.615 79.2595 450.49 82.4569C445.866 87.1885 441.806 96.3278 439.66 108.197C438.997 111.867 435.509 114.29 431.839 113.627C428.17 112.963 425.719 109.475 426.382 105.806C428.97 91.4904 434.104 79.8986 440.841 73.0048C444.75 69.0057 449.211 66.6598 453.669 66.197Z" fill="black"/>
<path d="M332.459 127.815C332.459 127.815 330.074 49.1031 319.982 40.2962C319.982 40.2962 301.451 33.3741 288.057 94.1053C288.057 94.1053 285.122 121.627 301.635 147.681" fill="#AF93E5"/>
<path d="M327.457 128.402C327.457 128.402 325.072 49.6905 314.981 40.8836C314.981 40.8836 296.449 33.9614 283.055 94.6926C283.055 94.6926 280.12 122.214 296.633 148.268" fill="#93E9CA"/>
<path d="M312.747 33.8768C313.815 33.8486 314.86 33.9351 315.842 34.13C316.434 34.2475 316.921 34.3982 317.333 34.5519C318.094 34.8363 318.802 35.2553 319.414 35.7897C325.623 41.208 328.805 56.9746 331.37 83.5847C332.312 93.3539 333.046 103.807 333.593 114.248C333.784 117.899 333.95 121.301 334.071 124.347C334.113 125.415 334.21 128.151 334.211 128.201C334.324 131.928 331.384 135.036 327.657 135.149C323.93 135.262 320.821 132.321 320.708 128.595C320.704 128.432 320.609 125.926 320.568 124.881C320.449 121.89 320.306 118.544 320.118 114.951C319.581 104.692 318.872 94.4289 317.952 84.8787C316.922 74.1973 315.681 65.0973 314.266 58.0978C313.501 54.3078 312.698 51.2107 311.875 48.927C311.741 48.5545 311.612 48.3733 311.481 48.0549C311.05 48.2559 310.71 48.3056 310.187 48.6738C306.525 51.2546 302.488 56.9144 298.485 66.5372C295.317 74.1523 292.381 83.879 289.736 95.7937C289.721 95.9749 289.727 96.0999 289.708 96.4407C289.454 100.879 289.658 106.632 290.692 113.179C292.21 122.785 295.257 132.204 300.173 141C300.861 142.233 301.58 143.461 302.339 144.658C304.335 147.807 303.407 151.973 300.257 153.969C297.108 155.965 292.914 155.037 290.917 151.887C290.025 150.479 289.195 149.032 288.386 147.583C282.642 137.304 279.112 126.358 277.358 115.26C276.163 107.694 275.899 101.001 276.205 95.653C276.249 94.8797 276.309 94.3095 276.345 93.9651C276.372 93.7171 276.404 93.4773 276.458 93.2337C279.289 80.3986 282.491 69.8498 286.023 61.361C290.929 49.5671 296.428 41.8703 302.423 37.6464C306.014 35.1165 309.544 33.9615 312.747 33.8768Z" fill="black"/>
<path d="M638.693 701.27C638.693 701.27 424.456 845.523 182.802 694.925C182.802 694.925 152.67 513.509 221.001 398.495C221.001 398.495 184.303 396.972 177.708 392.449C171.114 387.927 169.235 369.071 147.508 356.592C147.508 356.592 144.856 339.131 148.695 321.198C148.695 321.198 137.951 304.989 138.939 298.487C138.939 298.487 229.711 156.756 358.771 107.259C358.771 107.259 451.943 83.7192 532.579 149.727C613.214 215.735 617.798 301.715 617.797 362.266C617.797 422.816 587.037 525.136 638.693 701.27Z" fill="#AF93E5"/>
<path d="M467.897 267.138L469.866 268.292L476.814 272.343C476.814 272.343 495.006 345.536 443.479 374.459C391.951 403.382 367.356 383.77 367.356 383.77L322.964 395.586C322.964 395.586 309.879 461.355 201.156 450.273C199.535 450.107 198.288 449.815 196.74 449.626L200.34 433.085L206.501 414.94L217.36 398.68C217.36 398.68 258.702 395.236 266.196 391.535C273.69 387.833 291.572 373.007 293.342 366.92L371.744 344.584C371.744 344.584 387.443 376.688 426.431 359.746C476.495 337.992 471.497 271.921 471.497 271.921L467.897 267.138Z" fill="#B876D1"/>
<path d="M556.369 172.195C614.015 234.364 617.807 308.388 617.807 362.278C617.807 422.829 587.024 525.126 638.68 701.26C638.68 701.26 623.686 711.212 597.637 723.118C594.904 711.382 550.828 517.932 583.796 373.334C601.766 294.521 562.306 210.479 556.34 178.863C555.927 176.671 556.007 174.451 556.369 172.195Z" fill="#B876D1"/>
<path d="M247.867 259.952C291.84 264.608 290.809 290.178 290.809 290.178L303.215 360.534L291.673 370.605C291.673 370.605 279.148 385.96 261.477 392.93C243.805 399.9 241.215 397.097 220.988 398.483C220.988 398.483 184.316 396.986 177.722 392.463C171.127 387.941 169.236 369.075 147.509 356.596C147.509 356.596 144.852 339.14 148.69 321.207C148.69 321.207 137.941 304.979 138.929 298.477C138.929 298.477 159.393 271.6 172.658 254.299C190.166 251.982 242.37 259.37 247.867 259.952Z" fill="#ABACE3"/>
<path d="M150.181 282.442C177.944 293.819 199.917 288.209 199.917 288.209C199.917 288.209 220.815 279.509 229.962 285.171C239.108 290.833 243.465 312.176 243.465 312.176C246.949 329.162 208.188 345.709 208.188 345.709C234.756 378.81 232.128 394.038 232.128 394.038C232.128 394.038 218.746 402.256 220.988 398.483C220.988 398.483 184.316 396.986 177.722 392.463C171.127 387.941 169.236 369.075 147.509 356.596C147.509 356.596 144.852 339.14 148.69 321.207C148.69 321.207 137.941 304.979 138.929 298.477C138.929 298.477 143.43 291.792 150.181 282.442Z" fill="#C3C4E1"/>
<path d="M633.691 701.857C633.691 701.857 419.454 846.11 177.8 695.512C177.8 695.512 147.668 514.097 215.999 399.083C215.999 399.083 179.301 397.559 172.706 393.037C166.112 388.514 164.233 369.659 142.506 357.179C142.506 357.179 139.854 339.719 143.693 321.786C143.693 321.786 132.949 305.576 133.937 299.074C133.937 299.074 224.709 157.344 353.769 107.846C353.769 107.846 446.941 84.3063 527.577 150.314C608.212 216.322 612.796 302.303 612.795 362.853C612.795 423.403 582.035 525.723 633.691 701.857Z" fill="#93E9CA"/>
<path d="M551.367 172.783C609.013 234.952 612.806 308.975 612.806 362.866C612.806 423.416 582.023 525.713 633.679 701.847C633.679 701.847 618.685 711.799 592.636 723.705C589.903 711.97 545.827 518.519 578.795 373.921C596.765 295.109 557.305 211.066 551.339 179.45C550.926 177.258 551.005 175.039 551.367 172.783Z" fill="#82D4D5"/>
<path d="M462.895 267.726L464.864 268.879L471.812 272.93C471.812 272.93 490.004 346.123 438.477 375.046C386.95 403.969 362.354 384.358 362.354 384.358L317.963 396.173C317.963 396.173 304.877 461.942 196.154 450.86C194.533 450.695 193.286 450.402 191.738 450.213L195.338 433.672L201.499 415.527L212.358 399.267C212.358 399.267 253.7 395.824 261.194 392.122C268.688 388.42 286.57 373.594 288.34 367.507L366.742 345.171C366.742 345.171 382.441 377.275 421.429 360.334C471.493 338.579 466.495 272.508 466.495 272.508L462.895 267.726Z" fill="#82D4D5"/>
<path d="M242.865 260.54C286.838 265.196 285.808 290.765 285.808 290.765L298.213 361.121L286.671 371.192C286.671 371.192 274.146 386.548 256.475 393.517C238.803 400.487 236.213 397.685 215.986 399.07C215.986 399.07 179.314 397.573 172.72 393.05C166.125 388.528 164.234 369.663 142.507 357.183C142.507 357.183 139.85 339.727 143.688 321.794C143.688 321.794 132.939 305.566 133.927 299.064C133.927 299.064 154.391 272.187 167.656 254.886C185.164 252.569 237.368 259.958 242.865 260.54Z" fill="#B7F2CC"/>
<path d="M145.179 283.029C172.942 294.407 194.915 288.796 194.915 288.796C194.915 288.796 215.813 280.096 224.96 285.758C234.106 291.42 238.463 312.764 238.463 312.764C241.947 329.749 203.186 346.296 203.186 346.296C229.754 379.397 227.126 394.626 227.126 394.626C227.126 394.626 213.744 402.844 215.986 399.07C215.986 399.07 179.314 397.573 172.72 393.05C166.125 388.528 164.234 369.663 142.507 357.183C142.507 357.183 139.85 339.727 143.688 321.794C143.688 321.794 132.939 305.566 133.927 299.064C133.927 299.064 138.428 292.38 145.179 283.029Z" fill="#DFFFEA"/>
<path d="M449.426 189.124C449.426 189.124 426.587 193.441 412.938 189.795" stroke="black" stroke-width="0.01875" stroke-miterlimit="10" stroke-linecap="round" stroke-linejoin="round"/>
<path d="M448.172 182.494C451.836 181.802 455.356 184.203 456.049 187.867C456.741 191.531 454.34 195.079 450.676 195.772C450.266 195.849 449.555 195.95 448.566 196.11C446.943 196.372 445.137 196.653 443.193 196.897C437.425 197.621 431.644 198.024 426.173 197.994C420.502 197.964 415.479 197.447 411.208 196.306C407.605 195.344 405.463 191.666 406.425 188.064C407.388 184.462 411.065 182.319 414.668 183.282C417.668 184.083 421.616 184.495 426.23 184.519C431.043 184.545 436.274 184.135 441.505 183.479C443.283 183.256 444.929 183.041 446.4 182.803C446.909 182.721 448.111 182.506 448.172 182.494Z" fill="black"/>
<path d="M198.731 357.657L143.83 353.688" stroke="black" stroke-width="0.01875" stroke-miterlimit="10" stroke-linecap="round" stroke-linejoin="round"/>
<path d="M144.326 346.949L199.21 350.916C202.929 351.185 205.724 354.426 205.455 358.145C205.186 361.865 201.972 364.659 198.253 364.391L143.341 360.424C139.622 360.155 136.827 356.914 137.096 353.194C137.365 349.475 140.607 346.68 144.326 346.949Z" fill="black"/>
<path d="M196.883 328.254C196.883 328.254 218.769 274.546 224.846 307.817" stroke="black" stroke-width="0.01875" stroke-miterlimit="10" stroke-linecap="round" stroke-linejoin="round"/>
<path d="M217.074 290.209C218.348 290.073 219.663 290.175 221.04 290.546C226.851 292.113 229.842 297.655 231.477 306.609C232.147 310.277 229.716 313.788 226.048 314.458C222.38 315.128 218.869 312.696 218.199 309.028C217.89 307.335 217.514 306.546 217.158 305.484C217.011 305.647 216.948 305.667 216.793 305.85C214.833 308.153 212.585 311.596 210.266 315.836C208.482 319.098 206.748 322.633 205.146 326.16C204.585 327.397 204.094 328.539 203.655 329.564C203.503 329.92 203.139 330.757 203.121 330.802C201.714 334.255 197.797 335.922 194.344 334.515C190.891 333.108 189.224 329.163 190.631 325.71C190.744 325.431 190.96 324.925 191.249 324.247C191.726 323.133 192.248 321.894 192.853 320.562C194.583 316.751 196.461 312.953 198.423 309.366C201.146 304.389 203.835 300.23 206.497 297.101C209.835 293.175 213.251 290.617 217.074 290.209Z" fill="black"/>
<path d="M212.361 399.269C212.361 399.269 253.707 395.821 261.201 392.12C268.695 388.418 286.571 373.597 288.341 367.51L366.738 345.174C366.738 345.174 382.433 377.27 421.421 360.328C471.485 338.574 466.481 272.52 466.481 272.52" stroke="black" stroke-width="0.01875" stroke-miterlimit="10" stroke-linecap="round" stroke-linejoin="round"/>
<path d="M465.979 265.791C469.697 265.509 472.927 268.29 473.209 272.008C473.232 272.314 473.264 272.835 473.293 273.555C473.497 278.554 473.348 284.831 472.562 291.925C471.407 302.347 469.054 312.644 465.248 322.334C457.352 342.433 443.98 357.899 424.12 366.529C401.566 376.329 383.237 372.525 369.967 360.143C367.538 357.876 365.525 355.483 363.778 353.054L293.028 373.196C290.736 376.898 286.701 381.114 281.354 385.798C275.261 391.135 268.527 396.036 264.194 398.176C260.2 400.149 251.53 401.724 238.201 403.381C232.665 404.069 226.73 404.691 220.815 405.265C218.747 405.466 213.014 405.988 212.911 405.997C209.195 406.307 205.934 403.552 205.625 399.836C205.315 396.12 208.098 392.86 211.813 392.55C211.905 392.542 217.489 392.044 219.521 391.847C225.325 391.284 231.139 390.633 236.541 389.962C247.869 388.554 256.208 387.065 258.202 386.08C261.283 384.558 267.178 380.273 272.464 375.643C277.691 371.065 281.543 366.718 281.86 365.628C282.509 363.398 284.268 361.651 286.502 361.015L364.876 338.679C368.02 337.783 371.372 339.258 372.809 342.195C372.823 342.224 372.9 342.391 373.062 342.673C373.368 343.208 373.756 343.83 374.215 344.502C375.557 346.465 377.224 348.458 379.194 350.297C383.233 354.066 388.02 356.734 393.626 357.892C400.789 359.372 409.063 358.318 418.719 354.123C435.02 347.039 446.035 334.351 452.701 317.383C456.037 308.893 458.111 299.745 459.143 290.434C459.849 284.065 459.996 278.474 459.818 274.117C459.796 273.558 459.774 273.173 459.762 273.02C459.481 269.302 462.261 266.072 465.979 265.791Z" fill="black"/>
<path d="M633.691 701.857C633.691 701.857 419.454 846.11 177.8 695.512C177.8 695.512 147.668 514.097 215.999 399.083C215.999 399.083 179.301 397.559 172.706 393.037C166.112 388.514 164.233 369.659 142.506 357.179C142.506 357.179 139.854 339.719 143.693 321.786C143.693 321.786 132.949 305.576 133.937 299.074C133.937 299.074 224.709 157.344 353.769 107.846C353.769 107.846 446.941 84.3063 527.577 150.314C608.212 216.322 612.796 302.303 612.795 362.853C612.795 423.403 582.035 525.723 633.691 701.857Z" stroke="black" stroke-width="0.01875" stroke-miterlimit="10" stroke-linecap="round" stroke-linejoin="round"/>
<mask id="mask0_415_16088" style="mask-type:luminance" maskUnits="userSpaceOnUse" x="111" y="20" width="578" height="760">
<path d="M688.172 20.8687H111.812V779.152H688.172V20.8687Z" fill="white"/>
<path d="M494.597 35.9524C495.547 36.0844 496.599 36.3802 497.747 36.8807C501.192 38.3822 511.631 46.8354 520.843 60.7079C521.171 61.2021 521.475 61.7753 521.799 62.2832C572.887 84.1887 619.977 121.419 640.148 170.532C683.067 275.037 643.945 375.721 643.945 375.721L612.466 374.624C612.465 374.654 612.468 374.679 612.466 374.709C611.402 395.301 608.039 420.181 605.799 450.297C604.636 465.976 603.861 483.228 603.802 501.89C629.677 491.805 649.553 502.297 663.834 515.281C666.402 517.615 668.404 520.327 669.882 523.354C670.326 524.263 670.628 525.263 670.979 526.224C671.214 526.864 671.516 527.474 671.711 528.137C671.924 528.86 672.022 529.639 672.189 530.387C673.547 536.487 673.476 543.305 672.105 550.501C671.865 551.761 671.517 553.05 671.204 554.327C671.202 554.336 671.207 554.346 671.204 554.355C671.202 554.363 671.207 554.375 671.204 554.383C670.517 557.182 669.711 560.01 668.701 562.85C668.493 563.435 668.218 564.009 667.998 564.595C667.987 564.622 667.98 564.651 667.969 564.679C667.934 564.773 667.893 564.866 667.857 564.96C667.333 566.332 666.845 567.698 666.253 569.067C665.816 570.082 665.207 571.068 664.734 572.078C663.731 574.229 662.679 576.348 661.527 578.463C661 579.431 660.593 580.433 660.036 581.389C659.68 582.002 659.223 582.554 658.855 583.161C658.837 583.19 658.816 583.217 658.799 583.246C657.34 585.657 655.779 587.973 654.157 590.278C654.064 590.411 653.969 590.541 653.876 590.672C653.331 591.44 652.889 592.282 652.328 593.035C652.159 593.263 651.965 593.456 651.794 593.682C649.171 597.154 646.407 600.495 643.495 603.556C640.393 606.817 636.993 609.479 633.424 611.658C631.64 612.748 629.822 613.728 627.967 614.584C624.256 616.295 620.441 617.548 616.63 618.466C615.814 618.663 614.997 618.778 614.182 618.944C618.75 644.636 624.953 672.098 633.677 701.847C633.677 701.847 620.292 710.875 596.432 722.045C595.288 722.581 593.825 723.16 592.634 723.705C519.253 757.245 356.156 806.661 177.811 695.517C177.811 695.517 171.917 659.942 171.256 610.392C138.2 582.791 126.189 550.961 126.837 526.843C126.845 526.525 126.853 526.201 126.865 525.886C126.941 524.022 127.091 522.218 127.315 520.457C127.39 519.859 127.477 519.269 127.568 518.684C127.828 517.038 128.14 515.441 128.525 513.902C128.645 513.419 128.787 512.967 128.919 512.496C129.364 510.911 129.807 509.36 130.381 507.91C130.504 507.601 130.675 507.341 130.803 507.038C133.976 499.539 138.789 493.933 144.785 491.285C162.041 483.663 173.391 495.937 179.217 505.266C179.886 501.482 180.441 497.711 181.215 493.929C184.217 479.242 188.088 464.624 192.889 450.382C192.514 450.322 192.14 450.262 191.736 450.213L195.336 433.672L201.497 415.527L212.356 399.267L213.115 398.873C210.94 398.774 205.323 398.547 196.827 397.748C186.829 396.802 176.016 395.312 172.719 393.05C169.428 390.793 167.291 384.936 163.295 378.113C163.289 378.102 163.273 378.095 163.267 378.085C161.262 374.665 158.809 371.016 155.474 367.423C152.139 363.829 147.938 360.303 142.506 357.183C142.506 357.183 139.849 339.727 143.687 321.794C143.687 321.794 135.462 309.367 134.067 301.905C133.867 300.84 133.802 299.877 133.926 299.064C133.926 299.064 138.367 292.485 144.982 283.31C144.99 283.299 145.002 283.293 145.01 283.282C145.072 283.196 145.116 283.116 145.178 283.029C146.924 280.611 147.967 279.054 150.13 276.165C174.598 243.481 225.408 182.803 292.024 139.813C280.817 116.597 283.05 94.6904 283.05 94.6904C296.443 33.9592 314.979 40.8753 314.979 40.8753C323.295 48.1332 326.276 100.612 327.103 119.643C335.797 115.322 344.679 111.343 353.772 107.856C353.772 107.856 355.23 107.47 357.935 106.956C360.529 106.462 364.394 105.865 369.103 105.296C369.095 105.253 369.055 105.141 369.047 105.099C367.762 98.4255 365.886 84.9899 364.827 82.7909C363.769 80.592 363.674 59.3857 363.674 59.3857L364.968 57.4446C365.006 57.2588 365.042 56.9725 365.08 56.7976C365.669 54.1268 366.262 52.7467 366.262 52.7467C367.169 52.2229 368.16 51.7743 369.103 51.2839L370.791 48.7802L396.756 41.663L400.273 41.7474C410.319 40.2619 421.194 39.8536 432.595 40.4252C432.816 40.3521 433.552 40.0595 433.552 40.0595L433.439 40.5096C450.234 41.4212 468.097 44.5491 486.157 49.6242L485.96 42.0569C485.96 42.0569 487.947 35.0282 494.597 35.9524Z" fill="black"/>
</mask>
<g mask="url(#mask0_415_16088)">
<path d="M494.597 35.9524C495.547 36.0844 496.599 36.3802 497.747 36.8807C501.192 38.3822 511.631 46.8354 520.843 60.7079C521.171 61.2021 521.475 61.7753 521.799 62.2832C572.887 84.1887 619.977 121.419 640.148 170.532C683.067 275.037 643.945 375.721 643.945 375.721L612.466 374.624C612.465 374.654 612.468 374.679 612.466 374.709C611.402 395.301 608.039 420.181 605.799 450.297C604.636 465.976 603.861 483.228 603.802 501.89C629.677 491.805 649.553 502.297 663.834 515.281C666.402 517.615 668.404 520.327 669.882 523.354C670.326 524.263 670.628 525.263 670.979 526.224C671.214 526.864 671.516 527.474 671.711 528.137C671.924 528.86 672.022 529.639 672.189 530.387C673.547 536.487 673.476 543.305 672.105 550.501C671.865 551.761 671.517 553.05 671.204 554.327C671.202 554.336 671.207 554.346 671.204 554.355C671.202 554.363 671.207 554.375 671.204 554.383C670.517 557.182 669.711 560.01 668.701 562.85C668.493 563.435 668.218 564.009 667.998 564.595C667.987 564.622 667.98 564.651 667.969 564.679C667.934 564.773 667.893 564.866 667.857 564.96C667.333 566.332 666.845 567.698 666.253 569.067C665.816 570.082 665.207 571.068 664.734 572.078C663.731 574.229 662.679 576.348 661.527 578.463C661 579.431 660.593 580.433 660.036 581.389C659.68 582.002 659.223 582.554 658.855 583.161C658.837 583.19 658.816 583.217 658.799 583.246C657.34 585.657 655.779 587.973 654.157 590.278C654.064 590.411 653.969 590.541 653.876 590.672C653.331 591.44 652.889 592.282 652.328 593.035C652.159 593.263 651.965 593.456 651.794 593.682C649.171 597.154 646.407 600.495 643.495 603.556C640.393 606.817 636.993 609.479 633.424 611.658C631.64 612.748 629.822 613.728 627.967 614.584C624.256 616.295 620.441 617.548 616.63 618.466C615.814 618.663 614.997 618.778 614.182 618.944C618.75 644.636 624.953 672.098 633.677 701.847C633.677 701.847 620.292 710.875 596.432 722.045C595.288 722.581 593.825 723.16 592.634 723.705C519.253 757.245 356.156 806.661 177.811 695.517C177.811 695.517 171.917 659.942 171.256 610.392C138.2 582.791 126.189 550.961 126.837 526.843C126.845 526.525 126.853 526.201 126.865 525.886C126.941 524.022 127.091 522.218 127.315 520.457C127.39 519.859 127.477 519.269 127.568 518.684C127.828 517.038 128.14 515.441 128.525 513.902C128.645 513.419 128.787 512.967 128.919 512.496C129.364 510.911 129.807 509.36 130.381 507.91C130.504 507.601 130.675 507.341 130.803 507.038C133.976 499.539 138.789 493.933 144.785 491.285C162.041 483.663 173.391 495.937 179.217 505.266C179.886 501.482 180.441 497.711 181.215 493.929C184.217 479.242 188.088 464.624 192.889 450.382C192.514 450.322 192.14 450.262 191.736 450.213L195.336 433.672L201.497 415.527L212.356 399.267L213.115 398.873C210.94 398.774 205.323 398.547 196.827 397.748C186.829 396.802 176.016 395.312 172.719 393.05C169.428 390.793 167.291 384.936 163.295 378.113C163.289 378.102 163.273 378.095 163.267 378.085C161.262 374.665 158.809 371.016 155.474 367.423C152.139 363.829 147.938 360.303 142.506 357.183C142.506 357.183 139.849 339.727 143.687 321.794C143.687 321.794 135.462 309.367 134.067 301.905C133.867 300.84 133.802 299.877 133.926 299.064C133.926 299.064 138.367 292.485 144.982 283.31C144.99 283.299 145.002 283.293 145.01 283.282C145.072 283.196 145.116 283.116 145.178 283.029C146.924 280.611 147.967 279.054 150.13 276.165C174.598 243.481 225.408 182.803 292.024 139.813C280.817 116.597 283.05 94.6904 283.05 94.6904C296.443 33.9592 314.979 40.8753 314.979 40.8753C323.295 48.1332 326.276 100.612 327.103 119.643C335.797 115.322 344.679 111.343 353.772 107.856C353.772 107.856 355.23 107.47 357.935 106.956C360.529 106.462 364.394 105.865 369.103 105.296C369.095 105.253 369.055 105.141 369.047 105.099C367.762 98.4255 365.886 84.9899 364.827 82.7909C363.769 80.592 363.674 59.3857 363.674 59.3857L364.968 57.4446C365.006 57.2588 365.042 56.9725 365.08 56.7976C365.669 54.1268 366.262 52.7467 366.262 52.7467C367.169 52.2229 368.16 51.7743 369.103 51.2839L370.791 48.7802L396.756 41.663L400.273 41.7474C410.319 40.2619 421.194 39.8536 432.595 40.4252C432.816 40.3521 433.552 40.0595 433.552 40.0595L433.439 40.5096C450.234 41.4212 468.097 44.5491 486.157 49.6242L485.96 42.0569C485.96 42.0569 487.947 35.0282 494.597 35.9524Z" stroke="black" stroke-width="0.0375" stroke-miterlimit="10" stroke-linecap="round" stroke-linejoin="round"/>
</g>
<path d="M390.726 97.0313C400.171 96.8752 410.089 97.3053 420.376 98.466C448.497 101.639 476.008 109.959 501.845 124.544C512.247 130.416 522.279 137.236 531.861 145.079C569.926 176.239 593.904 213.519 606.887 256.676C616.603 288.977 619.546 319.619 619.546 362.843C619.546 370.644 619.078 379.347 618.111 390.525C617.728 394.946 617.287 399.594 616.648 406.025C616.714 405.363 615.345 418.853 614.96 422.791C610.691 466.518 609.31 498.385 611.331 536.92C614.016 588.087 623.04 641.574 640.166 699.968C640.994 702.791 639.906 705.808 637.465 707.451C636.662 707.992 635.168 708.963 632.992 710.292C629.414 712.479 625.186 714.913 620.39 717.522C606.737 724.949 591.012 732.351 573.41 739.268C521.812 759.543 465.029 771.487 404.792 770.859C327.115 770.049 249.622 748.219 174.228 701.234C172.582 700.208 171.451 698.534 171.134 696.621C171.077 696.278 170.993 695.636 170.852 694.708C170.621 693.179 170.341 691.374 170.065 689.335C169.279 683.529 168.49 676.877 167.758 669.474C165.512 646.757 164.24 622.083 164.438 596.361C164.695 562.99 167.433 530.507 173.159 499.843C179.773 464.422 190.212 432.575 204.891 405.125C200.907 404.841 196.881 404.562 193.132 404.168C180.772 402.869 172.879 401.338 168.883 398.598C166.773 397.151 165.156 395.202 163.51 392.522C162.437 390.775 158.732 383.748 158.7 383.689C156.661 379.979 154.735 376.998 152.426 374.18C148.866 369.834 144.578 366.159 139.148 363.04C137.365 362.016 136.138 360.236 135.829 358.202C135.697 357.333 135.503 355.824 135.323 353.785C134.467 344.109 134.739 333.562 136.617 323.235C136.526 323.089 136.488 323.053 136.392 322.897C135.176 320.919 133.961 318.837 132.819 316.708C131.94 315.07 131.163 313.469 130.456 311.926C127.927 306.408 126.652 301.985 127.249 298.057C127.391 297.122 127.751 296.238 128.262 295.441C128.338 295.322 129.407 293.679 129.865 292.994C131.165 291.049 132.709 288.799 134.479 286.27C139.52 279.067 145.423 271.042 152.145 262.415C171.338 237.782 193.243 213.152 217.55 190.146C259.723 150.231 304.555 119.476 351.342 101.532C351.592 101.437 351.843 101.373 352.102 101.307C352.711 101.153 353.803 100.913 355.337 100.604C357.834 100.101 360.73 99.5776 363.973 99.113C372.328 97.9164 381.281 97.1874 390.726 97.0313ZM390.979 110.534C382.105 110.68 373.703 111.384 365.886 112.504C362.899 112.931 360.261 113.372 358.009 113.826C357.235 113.982 356.569 114.121 356.012 114.248C355.966 114.258 355.969 114.266 355.928 114.276C311.079 131.526 267.743 161.246 226.834 199.964C203.057 222.467 181.578 246.587 162.779 270.714C156.203 279.153 150.447 286.987 145.534 294.006C143.821 296.455 142.336 298.612 141.09 300.476C140.998 300.614 140.907 300.762 140.78 300.955C140.834 301.214 140.859 301.425 140.949 301.742C141.305 302.999 141.919 304.549 142.721 306.3C143.303 307.57 143.966 308.919 144.718 310.322C145.725 312.198 146.811 314.069 147.897 315.836C148.277 316.454 149.274 317.971 149.332 318.058C150.335 319.572 150.669 321.431 150.288 323.206C148.209 332.921 147.972 343.263 148.797 352.604C148.818 352.839 148.832 353 148.854 353.223C154.355 356.787 158.981 360.89 162.863 365.628C165.764 369.168 168.109 372.784 170.515 377.162C170.748 377.586 174.218 384.161 175.016 385.461C175.76 386.672 176.287 387.288 176.535 387.458C176.931 387.73 179.102 388.42 182.274 389.034C185.557 389.669 189.736 390.242 194.567 390.75C199.307 391.248 204.401 391.639 209.505 391.959C211.293 392.071 216.207 392.322 216.284 392.325C221.391 392.537 224.408 398.143 221.798 402.537C205.158 430.545 193.554 464.205 186.437 502.318C180.869 532.139 178.193 563.825 177.941 596.445C177.747 621.658 179.003 645.887 181.205 668.152C181.92 675.39 182.69 681.886 183.455 687.534C183.613 688.699 183.804 689.911 184.018 691.36C256.436 735.884 330.592 756.581 404.932 757.356C463.304 757.964 518.415 746.397 568.487 726.721C585.552 720.016 600.769 712.819 613.947 705.651C618.5 703.174 622.45 700.871 625.819 698.815C609.332 641.34 600.491 588.366 597.828 537.623C595.765 498.297 597.212 465.809 601.542 421.469C601.928 417.512 603.269 404.027 603.201 404.703C603.835 398.325 604.26 393.696 604.636 389.343C605.572 378.519 606.043 370.191 606.043 362.843C606.043 320.826 603.2 291.349 593.946 260.586C581.716 219.932 559.23 184.95 523.309 155.544C514.331 148.195 504.937 141.796 495.206 136.303C471.033 122.657 445.284 114.863 418.885 111.885C409.208 110.793 399.854 110.389 390.979 110.534Z" fill="black"/>
<path d="M390.726 97.0313C400.171 96.8752 410.089 97.3053 420.376 98.466C448.497 101.639 476.008 109.959 501.845 124.544C512.247 130.416 522.279 137.236 531.861 145.079C569.926 176.239 593.904 213.519 606.887 256.676C616.603 288.977 619.546 319.619 619.546 362.843C619.546 370.644 619.078 379.347 618.111 390.525C617.728 394.946 617.287 399.594 616.648 406.025C616.714 405.363 615.345 418.853 614.96 422.791C610.691 466.518 609.31 498.385 611.331 536.92C614.016 588.087 623.04 641.574 640.166 699.968C640.994 702.791 639.906 705.808 637.465 707.451C636.662 707.992 635.168 708.963 632.992 710.292C629.414 712.479 625.186 714.913 620.39 717.522C606.737 724.949 591.012 732.351 573.41 739.268C521.812 759.543 465.029 771.487 404.792 770.859C327.115 770.049 249.622 748.219 174.228 701.234C172.582 700.208 171.451 698.534 171.134 696.621C171.077 696.278 170.993 695.636 170.852 694.708C170.621 693.179 170.341 691.374 170.065 689.335C169.279 683.529 168.49 676.877 167.758 669.474C165.512 646.757 164.24 622.083 164.438 596.361C164.695 562.99 167.433 530.507 173.159 499.843C179.773 464.422 190.212 432.575 204.891 405.125C200.907 404.841 196.881 404.562 193.132 404.168C180.772 402.869 172.879 401.338 168.883 398.598C166.773 397.151 165.156 395.202 163.51 392.522C162.437 390.775 158.732 383.748 158.7 383.689C156.661 379.979 154.735 376.998 152.426 374.18C148.866 369.834 144.578 366.159 139.148 363.04C137.365 362.016 136.138 360.236 135.829 358.202C135.697 357.333 135.503 355.824 135.323 353.785C134.467 344.109 134.739 333.562 136.617 323.235C136.526 323.089 136.488 323.053 136.392 322.897C135.176 320.919 133.961 318.837 132.819 316.708C131.94 315.07 131.163 313.469 130.456 311.926C127.927 306.408 126.652 301.985 127.249 298.057C127.391 297.122 127.751 296.238 128.262 295.441C128.338 295.322 129.407 293.679 129.865 292.994C131.165 291.049 132.709 288.799 134.479 286.27C139.52 279.067 145.423 271.042 152.145 262.415C171.338 237.782 193.243 213.152 217.55 190.146C259.723 150.231 304.555 119.476 351.342 101.532C351.592 101.437 351.843 101.373 352.102 101.307C352.711 101.153 353.803 100.913 355.337 100.604C357.834 100.101 360.73 99.5776 363.973 99.113C372.328 97.9164 381.281 97.1874 390.726 97.0313ZM390.979 110.534C382.105 110.68 373.703 111.384 365.886 112.504C362.899 112.931 360.261 113.372 358.009 113.826C357.235 113.982 356.569 114.121 356.012 114.248C355.966 114.258 355.969 114.266 355.928 114.276C311.079 131.526 267.743 161.246 226.834 199.964C203.057 222.467 181.578 246.587 162.779 270.714C156.203 279.153 150.447 286.987 145.534 294.006C143.821 296.455 142.336 298.612 141.09 300.476C140.998 300.614 140.907 300.762 140.78 300.955C140.834 301.214 140.859 301.425 140.949 301.742C141.305 302.999 141.919 304.549 142.721 306.3C143.303 307.57 143.966 308.919 144.718 310.322C145.725 312.198 146.811 314.069 147.897 315.836C148.277 316.454 149.274 317.971 149.332 318.058C150.335 319.572 150.669 321.431 150.288 323.206C148.209 332.921 147.972 343.263 148.797 352.604C148.818 352.839 148.832 353 148.854 353.223C154.355 356.787 158.981 360.89 162.863 365.628C165.764 369.168 168.109 372.784 170.515 377.162C170.748 377.586 174.218 384.161 175.016 385.461C175.76 386.672 176.287 387.288 176.535 387.458C176.931 387.73 179.102 388.42 182.274 389.034C185.557 389.669 189.736 390.242 194.567 390.75C199.307 391.248 204.401 391.639 209.505 391.959C211.293 392.071 216.207 392.322 216.284 392.325C221.391 392.537 224.408 398.143 221.798 402.537C205.158 430.545 193.554 464.205 186.437 502.318C180.869 532.139 178.193 563.825 177.941 596.445C177.747 621.658 179.003 645.887 181.205 668.152C181.92 675.39 182.69 681.886 183.455 687.534C183.613 688.699 183.804 689.911 184.018 691.36C256.436 735.884 330.592 756.581 404.932 757.356C463.304 757.964 518.415 746.397 568.487 726.721C585.552 720.016 600.769 712.819 613.947 705.651C618.5 703.174 622.45 700.871 625.819 698.815C609.332 641.34 600.491 588.366 597.828 537.623C595.765 498.297 597.212 465.809 601.542 421.469C601.928 417.512 603.269 404.027 603.201 404.703C603.835 398.325 604.26 393.696 604.636 389.343C605.572 378.519 606.043 370.191 606.043 362.843C606.043 320.826 603.2 291.349 593.946 260.586C581.716 219.932 559.23 184.95 523.309 155.544C514.331 148.195 504.937 141.796 495.206 136.303C471.033 122.657 445.284 114.863 418.885 111.885C409.208 110.793 399.854 110.389 390.979 110.534Z" fill="black"/>
<path d="M490.452 22.5397C492.352 22.277 494.346 22.2761 496.444 22.5678C498.69 22.88 500.935 23.5478 503.14 24.5089C510.501 27.7178 521.936 38.6574 530.849 51.543C587.801 76.8372 632.739 116.961 652.629 165.39C666.61 199.431 673.225 235.115 673.727 271.417C674.114 299.382 670.887 326.055 665.26 350.522C663.392 358.641 661.398 365.938 659.38 372.324C658.665 374.589 657.991 376.597 657.383 378.316C657.002 379.393 656.716 380.167 656.539 380.622C654.459 385.975 649.225 389.402 643.486 389.202L624.948 388.555C624.685 391.811 624.554 394.322 624.188 398.204C623.717 403.201 621.899 421.407 621.685 423.607C620.667 434.057 619.911 442.61 619.265 451.288C618.45 462.273 617.971 473.458 617.662 484.736C626.001 483.889 634.143 484.632 642.023 486.987C653.267 490.347 663.392 496.646 672.912 505.3C676.719 508.761 679.782 512.828 682.026 517.425C682.595 518.591 682.922 519.448 683.433 520.913C683.453 520.971 683.613 521.465 683.658 521.588C683.646 521.557 683.987 522.399 684.108 522.713C684.31 523.241 684.505 523.753 684.67 524.317C684.84 524.892 684.971 525.459 685.092 526.033C685.165 526.376 685.368 527.415 685.374 527.439C687.139 535.369 687.09 544.034 685.374 553.039C685.166 554.128 684.965 554.986 684.586 556.499C684.565 556.584 684.393 557.269 684.333 557.512C684.331 557.518 684.334 557.534 684.333 557.54C684.33 557.563 684.336 557.544 684.333 557.568C684.33 557.592 684.336 557.572 684.333 557.596C683.478 561.077 682.544 564.27 681.435 567.386C681.239 567.936 681.07 568.36 680.816 568.961C680.794 569.015 680.679 569.223 680.648 569.299C680.642 569.311 680.62 569.355 680.62 569.355C680.595 569.425 680.622 569.38 680.591 569.467C680.522 569.652 679.678 571.894 679.494 572.365C679.211 573.093 678.934 573.762 678.65 574.418C678.258 575.328 677.944 575.933 677.356 577.035C677.342 577.061 677.004 577.705 676.962 577.794C675.794 580.3 674.626 582.641 673.39 584.911C673.333 585.015 673.035 585.62 673.024 585.643C672.483 586.764 672.191 587.335 671.702 588.175C671.453 588.602 671.21 588.987 670.942 589.384C670.782 589.623 670.314 590.313 670.295 590.341C670.316 590.31 670.003 590.791 669.902 590.931C668.504 593.204 667.033 595.448 665.204 598.049C665.126 598.159 664.916 598.441 664.894 598.471C664.9 598.463 664.648 598.881 664.641 598.893C664.042 599.859 663.708 600.367 663.15 601.115C662.815 601.565 662.604 601.803 662.25 602.212C659.289 606.104 656.315 609.679 653.276 612.874C649.453 616.893 645.181 620.297 640.476 623.17C638.23 624.542 635.927 625.787 633.612 626.855C632.355 627.435 631.053 627.897 629.758 628.402C634.221 651.402 639.706 674.422 646.637 698.055C648.292 703.698 646.111 709.761 641.236 713.049C640.695 713.414 639.743 714.032 638.395 714.878C636.222 716.24 633.657 717.781 630.743 719.463C622.506 724.218 612.959 729.233 602.162 734.288C601.449 734.622 600.932 734.827 599.686 735.357C599.653 735.371 598.554 735.837 598.251 735.976C576.008 746.143 551.661 755.083 525.448 762.11C493.169 770.764 459.607 776.088 425.075 777.357C339.648 780.495 253.946 758.879 170.656 706.973C167.362 704.92 165.13 701.547 164.496 697.718C164.434 697.343 164.331 696.683 164.186 695.72C163.95 694.155 163.679 692.312 163.399 690.235C162.602 684.341 161.803 677.615 161.064 670.121C159.411 653.373 158.38 635.273 157.969 616.503C128.032 589.581 112.54 556.753 113.353 526.483C113.357 526.309 113.372 525.587 113.381 525.358C113.474 523.087 113.642 520.897 113.916 518.747C114 518.075 114.102 517.398 114.225 516.609C114.56 514.49 114.962 512.506 115.435 510.617C115.546 510.168 115.641 509.816 115.801 509.267C115.817 509.211 115.894 508.913 115.913 508.845C116.676 506.134 117.117 504.727 117.826 502.937C117.994 502.511 118.171 502.113 118.36 501.727C118.465 501.515 118.641 501.167 118.642 501.165C118.572 501.298 118.505 501.442 118.36 501.784C122.844 491.186 129.998 483.057 139.318 478.941C150.374 474.058 161.235 474.394 170.825 479.11C173.037 469.791 175.541 460.622 178.393 451.682C178.236 450.265 178.212 448.826 178.533 447.35L182.134 430.808C182.242 430.311 182.392 429.8 182.556 429.318L188.717 411.173C188.801 410.925 188.956 410.712 189.054 410.47C177.427 409.137 169.912 407.506 165.086 404.196C162.053 402.116 159.868 399.499 157.772 396.095C156.599 394.188 152.727 386.815 151.696 385.039C151.648 384.97 151.663 385.001 151.612 384.926C149.705 381.675 147.847 379.031 145.591 376.6C142.883 373.682 139.665 371.127 135.774 368.892C132.207 366.843 129.782 363.281 129.163 359.214C129.116 358.905 129.045 358.424 128.966 357.78C128.843 356.777 128.712 355.636 128.6 354.376C127.762 344.916 127.958 334.705 129.557 324.529C128.654 323.005 127.741 321.486 126.884 319.887C125.945 318.134 125.065 316.417 124.296 314.739C122.599 311.035 121.416 307.64 120.808 304.387C120.344 301.903 120.207 299.52 120.583 297.044C120.884 295.066 121.601 293.161 122.721 291.503C122.874 291.275 125.006 288.165 125.872 286.917C128.337 283.363 131.085 279.495 134.03 275.412C134.051 275.387 134.037 275.408 134.058 275.383C134.135 275.269 134.153 275.234 134.226 275.13C134.737 274.423 138.119 269.671 139.318 268.069C155.333 246.677 174.269 224.23 195.609 202.411C220.795 176.66 247.484 153.744 275.417 134.671C273.071 127.905 271.372 121.038 270.41 114.163C269.388 106.867 269.197 100.434 269.481 95.2308C269.527 94.3932 269.578 93.7469 269.622 93.3179C269.675 92.8006 269.763 92.2784 269.875 91.7707C272.789 78.5614 276.108 67.6305 279.806 58.7446C285.164 45.8684 291.38 37.1486 298.541 32.1043C304.876 27.6421 311.441 26.3897 317.136 27.5189C318.094 27.7089 318.952 27.9448 319.696 28.2222C321.22 28.7909 322.634 29.6282 323.859 30.6978C328.706 34.9274 331.232 41.1202 333.424 50.474C334.93 56.9009 336.198 64.9165 337.278 74.3012C338.184 82.1708 338.858 90.6062 339.444 99.1692C342.611 97.8259 345.776 96.4662 348.924 95.259C349.377 95.0852 349.861 94.9328 350.331 94.8089C350.657 94.7225 351.146 94.598 351.822 94.4432C352.284 94.3374 352.901 94.2159 353.425 94.1056C353.101 92.2252 352.842 90.6178 352.666 89.7171C352.491 88.828 352.357 88.1194 352.244 87.6635C352.21 87.5295 352.183 87.4523 352.187 87.4666C352.28 87.762 352.413 88.1238 352.666 88.6481C350.923 85.0276 350.708 82.1217 350.387 71.6006C350.305 68.9333 350.255 66.0822 350.218 63.2456C350.205 62.2548 350.162 59.5052 350.162 59.4479C350.15 56.7615 350.95 54.144 352.44 51.9087L352.525 51.7962C352.976 50.1558 353.423 48.3946 353.847 47.4077C354.996 44.7336 356.981 42.5058 359.501 41.0501C359.665 40.9558 359.857 40.8528 360.008 40.7687C361.804 38.3549 364.296 36.5598 367.209 35.7614L393.175 28.6442C394.442 28.2967 395.771 28.1344 397.085 28.166L399.982 28.2222C409.69 26.8989 420.091 26.4953 431.039 26.9282C433.384 26.4683 435.638 26.6202 437.734 27.322C449.916 28.1858 462.57 30.0671 475.487 33.0045C475.904 32.2992 476.21 31.5863 476.724 30.8947C480.031 26.4494 484.753 23.328 490.452 22.5397ZM494.588 35.9583C487.938 35.0341 485.951 42.0628 485.951 42.0628L486.148 49.6301C468.088 44.5551 450.225 41.4271 433.43 40.5156L433.543 40.0655C433.543 40.0655 432.807 40.3581 432.586 40.4312C421.185 39.8596 410.31 40.2678 400.264 41.7533L396.747 41.6689L370.782 48.7862L369.094 51.2898C368.151 51.7802 367.16 52.2288 366.253 52.7527C366.253 52.7527 365.66 54.1328 365.071 56.8036C365.033 56.9785 364.997 57.2647 364.959 57.4506L363.665 59.3916C363.665 59.3916 363.76 80.5979 364.818 82.7968C365.877 84.9958 367.753 98.4315 369.038 105.105C369.046 105.147 369.086 105.259 369.094 105.302C364.386 105.871 360.52 106.468 357.926 106.962C355.221 107.476 353.763 107.862 353.763 107.862C344.67 111.349 335.788 115.328 327.094 119.649C326.267 100.619 323.286 48.1391 314.97 40.8813C314.97 40.8813 296.434 33.9651 283.041 94.6963C283.041 94.6963 280.808 116.603 292.015 139.819C225.4 182.809 174.589 243.487 150.121 276.171C147.958 279.06 146.915 280.617 145.17 283.035C145.107 283.122 145.063 283.202 145.001 283.288C144.993 283.299 144.981 283.305 144.973 283.316C138.358 292.491 133.917 299.07 133.917 299.07C133.794 299.883 133.858 300.846 134.058 301.911C135.453 309.373 143.679 321.8 143.679 321.8C139.84 339.733 142.497 357.189 142.497 357.189C147.929 360.309 152.13 363.835 155.466 367.429C158.8 371.022 161.253 374.671 163.258 378.091C163.264 378.101 163.28 378.108 163.286 378.119C167.282 384.941 169.419 390.799 172.71 393.056C176.007 395.318 186.82 396.808 196.818 397.754C205.314 398.554 210.931 398.781 213.106 398.88L212.347 399.273L201.488 415.533L195.328 433.678L191.727 450.219C192.131 450.269 192.505 450.328 192.88 450.388C188.079 464.629 184.208 479.249 181.206 493.935C180.432 497.717 179.877 501.488 179.208 505.272C173.382 495.943 162.032 483.669 144.776 491.291C138.78 493.939 133.967 499.545 130.794 507.044C130.667 507.347 130.495 507.607 130.372 507.916C129.798 509.366 129.355 510.917 128.91 512.502C128.778 512.973 128.636 513.426 128.516 513.908C128.131 515.447 127.819 517.044 127.559 518.69C127.468 519.275 127.381 519.865 127.306 520.463C127.082 522.224 126.932 524.028 126.856 525.892C126.844 526.207 126.836 526.531 126.828 526.849C126.18 550.967 138.191 582.797 171.247 610.398C171.908 659.948 177.802 695.523 177.802 695.523C356.147 806.667 519.244 757.251 592.625 723.711C593.816 723.166 595.279 722.587 596.423 722.051C620.283 710.881 633.668 701.853 633.668 701.853C624.944 672.104 618.741 644.642 614.174 618.95C614.988 618.784 615.805 618.669 616.621 618.472C620.432 617.554 624.247 616.301 627.958 614.59C629.813 613.734 631.631 612.754 633.415 611.664C636.984 609.485 640.384 606.823 643.486 603.562C646.398 600.501 649.162 597.16 651.785 593.688C651.956 593.462 652.15 593.269 652.32 593.041C652.881 592.288 653.322 591.446 653.867 590.678C653.96 590.547 654.055 590.417 654.148 590.284C655.77 587.979 657.331 585.663 658.79 583.252C658.807 583.223 658.828 583.196 658.846 583.167C659.214 582.56 659.671 582.008 660.027 581.395C660.584 580.439 660.991 579.437 661.518 578.469C662.67 576.354 663.722 574.235 664.725 572.084C665.198 571.074 665.807 570.088 666.244 569.074C666.836 567.704 667.324 566.338 667.848 564.966C667.884 564.872 667.925 564.779 667.96 564.685C667.971 564.657 667.978 564.628 667.989 564.601C668.209 564.016 668.484 563.441 668.692 562.857C669.703 560.016 670.508 557.188 671.196 554.389C671.198 554.38 671.194 554.369 671.196 554.361C671.198 554.352 671.193 554.342 671.196 554.333C671.508 553.055 671.856 551.767 672.096 550.507C673.467 543.312 673.538 536.493 672.18 530.393C672.014 529.645 671.915 528.867 671.702 528.143C671.507 527.48 671.205 526.87 670.971 526.23C670.619 525.269 670.317 524.269 669.873 523.36C668.395 520.332 666.393 517.621 663.825 515.287C649.544 502.304 629.668 491.811 603.793 501.896C603.852 483.234 604.627 465.982 605.79 450.303C608.03 420.187 611.393 395.307 612.458 374.715C612.459 374.685 612.456 374.66 612.458 374.63L643.936 375.728C643.936 375.728 683.059 275.043 640.139 170.538C619.968 121.425 572.878 84.1946 521.791 62.2891C521.466 61.7812 521.162 61.208 520.834 60.7138C511.622 46.8413 501.183 38.3882 497.738 36.8866C496.59 36.3862 495.538 36.0903 494.588 35.9583Z" fill="black"/>
<path d="M494.035 155.931L490.973 41.4624C490.973 41.4624 493.564 32.2766 502.75 36.2807C511.936 40.2847 570.819 93.7505 523.712 167.472" fill="#AF93E5"/>
<path d="M496.082 152.113C496.082 152.113 493.773 83.8414 509.841 89.2747C525.908 94.708 524.687 140.506 514.644 154.183C504.6 167.859 502.922 166.996 496.082 152.113Z" fill="#ABACE3"/>
<path d="M489.033 156.518L485.971 42.0499C485.971 42.0499 488.562 32.8641 497.748 36.8681C506.934 40.8722 565.817 94.338 518.71 168.059" fill="#93E9CA"/>
<path d="M491.08 152.7C491.08 152.7 488.771 84.4288 504.839 89.8621C520.906 95.2954 519.685 141.094 509.642 154.77C499.599 168.446 497.92 167.584 491.08 152.7Z" fill="#B7F2CC"/>
<path d="M489.033 156.518L485.971 42.0499C485.971 42.0499 488.562 32.8641 497.748 36.8681C506.934 40.8722 565.817 94.338 518.71 168.059" stroke="black" stroke-width="0.01875" stroke-miterlimit="10" stroke-linecap="round" stroke-linejoin="round"/>
<path d="M492.364 29.1228C494.862 28.947 497.573 29.4211 500.438 30.67C504.292 32.3499 510.57 37.5749 516.529 44.173C524.083 52.5374 530.746 62.5251 535.546 73.6264C548.551 103.702 546.466 137.168 524.406 171.692C522.398 174.834 518.208 175.753 515.066 173.745C511.924 171.737 511.005 167.576 513.013 164.434C532.606 133.77 534.399 105.039 523.14 78.9995C518.953 69.317 513.123 60.52 506.514 53.2032C503.894 50.3024 501.284 47.7956 498.919 45.8328C497.094 44.3189 495.56 43.276 495.037 43.0478C493.443 42.3532 493.436 42.3823 492.983 42.9915C492.901 43.1018 492.831 43.2298 492.758 43.3572L495.796 156.332C495.896 160.059 492.941 163.181 489.214 163.28C485.486 163.38 482.393 160.425 482.293 156.698L479.227 42.232C479.209 41.5521 479.296 40.8613 479.48 40.2065C479.614 39.7335 479.835 39.1126 480.155 38.378C480.665 37.2083 481.319 36.0391 482.153 34.9179C484.676 31.5226 488.202 29.4158 492.364 29.1228Z" fill="black"/>
<path d="M670.98 526.224C678.836 547.687 664.279 581.708 643.496 603.556C618.681 629.644 575.025 618.044 575.025 618.044L573.984 607.523C574.078 607.312 574.142 607.144 574.237 606.932C606.102 536.214 658.181 527.341 670.98 526.224Z" fill="#F9B192"/>
<path d="M590.041 577.923C590.041 577.923 604.608 550.543 637.245 535.758" stroke="black" stroke-width="0.01875" stroke-miterlimit="10" stroke-linecap="round" stroke-linejoin="round"/>
<path d="M577.536 641.007C577.536 641.007 562.338 525.109 565.031 496.512" stroke="black" stroke-width="0.01875" stroke-miterlimit="10" stroke-linecap="round" stroke-linejoin="round"/>
<path d="M606.25 560.071C606.25 560.071 618.407 561.824 624.103 567.847" stroke="black" stroke-width="0.01875" stroke-miterlimit="10" stroke-linecap="round" stroke-linejoin="round"/>
<path d="M575.027 618.055C575.027 618.055 618.676 629.635 643.491 603.548C668.306 577.46 684.372 533.958 663.831 515.284C643.289 496.609 611.213 482.922 566.283 528.523" stroke="black" stroke-width="0.01875" stroke-miterlimit="10" stroke-linecap="round" stroke-linejoin="round"/>
<path d="M624.217 491.037C640.535 491.094 654.96 498.075 668.383 510.279C680.264 521.08 682.698 538.497 677.189 558.44C672.381 575.84 661.669 594.236 648.382 608.204C640.537 616.451 630.666 621.823 619.323 624.745C606.505 628.047 593.037 628.029 580.389 626.011C578.505 625.711 576.798 625.381 575.297 625.055C574.366 624.852 573.698 624.682 573.3 624.576C569.696 623.62 567.533 619.938 568.489 616.334C569.446 612.73 573.156 610.567 576.76 611.524C576.965 611.578 577.44 611.703 578.167 611.861C579.428 612.135 580.898 612.417 582.527 612.677C593.5 614.427 605.189 614.463 615.947 611.692C624.968 609.369 632.605 605.187 638.592 598.893C650.385 586.495 659.963 570.044 664.164 554.839C668.456 539.305 666.748 527.04 659.297 520.266C648.136 510.119 636.708 504.584 624.189 504.54C608.338 504.486 590.76 513.315 571.106 533.262C568.489 535.919 564.197 535.936 561.541 533.319C558.885 530.702 558.868 526.438 561.485 523.782C583.496 501.442 604.343 490.969 624.217 491.037Z" fill="black"/>
<path d="M575.027 618.055C575.027 618.055 618.676 629.635 643.491 603.548C668.306 577.46 684.372 533.958 663.831 515.284C643.289 496.609 611.213 482.922 566.283 528.523" fill="#F3886D"/>
<path d="M575.027 618.055C575.027 618.055 618.676 629.635 643.491 603.548C668.306 577.46 684.372 533.958 663.831 515.284C643.289 496.609 611.213 482.922 566.283 528.523" stroke="black" stroke-width="0.01875" stroke-miterlimit="10" stroke-linecap="round" stroke-linejoin="round"/>
<path d="M670.98 526.224C678.836 547.687 664.279 581.708 643.496 603.556C618.681 629.644 575.025 618.044 575.025 618.044L573.984 607.523C574.078 607.312 574.142 607.144 574.237 606.932C606.102 536.214 658.181 527.341 670.98 526.224Z" fill="#F9B192"/>
<path d="M637.072 529.015C639.703 528.948 642.248 530.434 643.402 532.981C644.941 536.378 643.423 540.36 640.026 541.899C631.173 545.91 623.198 551.167 616.086 557.343C610.009 562.62 604.893 568.271 600.727 573.912C599.281 575.869 598.065 577.68 597.069 579.285C596.729 579.832 596.457 580.288 596.226 580.692C596.1 580.911 596.021 581.047 596.001 581.086C594.249 584.377 590.15 585.622 586.858 583.871C583.566 582.119 582.322 578.048 584.073 574.756C584.355 574.226 584.858 573.352 585.592 572.168C586.776 570.261 588.201 568.152 589.868 565.895C594.596 559.493 600.387 553.093 607.253 547.131C615.316 540.13 624.364 534.178 634.456 529.605C635.305 529.221 636.196 529.037 637.072 529.015Z" fill="black"/>
<path d="M607.224 553.376C608.061 553.497 609.381 553.768 611.05 554.164C613.822 554.822 616.586 555.686 619.236 556.808C623.144 558.464 626.463 560.541 628.998 563.222C631.559 565.932 631.454 570.197 628.745 572.759C626.035 575.32 621.77 575.187 619.208 572.477C618.133 571.34 616.309 570.231 613.976 569.242C612.091 568.444 610.015 567.796 607.927 567.301C607.193 567.127 606.53 566.962 605.93 566.851C605.594 566.789 605.361 566.778 605.283 566.767C601.592 566.235 599.04 562.805 599.572 559.115C600.104 555.424 603.534 552.844 607.224 553.376Z" fill="black"/>
<path d="M624.217 491.037C640.535 491.094 654.96 498.075 668.383 510.279C680.264 521.08 682.698 538.497 677.189 558.44C672.381 575.84 661.669 594.236 648.382 608.204C640.537 616.451 630.666 621.823 619.323 624.745C606.505 628.047 593.037 628.029 580.389 626.011C578.505 625.711 576.798 625.381 575.297 625.055C574.366 624.852 573.698 624.682 573.3 624.576C569.696 623.62 567.533 619.938 568.489 616.334C569.446 612.73 573.156 610.567 576.76 611.524C576.965 611.578 577.44 611.703 578.167 611.861C579.428 612.135 580.898 612.417 582.527 612.677C593.5 614.427 605.189 614.463 615.947 611.692C624.968 609.369 632.605 605.187 638.592 598.893C650.385 586.495 659.963 570.044 664.164 554.839C668.456 539.305 666.748 527.04 659.297 520.266C648.136 510.119 636.708 504.584 624.189 504.54C608.338 504.486 590.76 513.315 571.106 533.262C568.489 535.919 564.197 535.936 561.541 533.319C558.885 530.702 558.868 526.438 561.485 523.782C583.496 501.442 604.343 490.969 624.217 491.037Z" fill="black"/>
<path d="M565.675 489.8C569.388 490.149 572.101 493.43 571.752 497.142C570.777 507.494 572.244 531.691 575.549 564.938C576.241 571.899 577.008 579.131 577.828 586.599C579.227 599.347 580.745 612.118 582.245 624.295C582.769 628.557 584.236 640.088 584.242 640.133C584.727 643.83 582.116 647.216 578.419 647.7C574.722 648.185 571.336 645.575 570.851 641.877C570.845 641.827 569.353 630.237 568.826 625.955C567.32 613.722 565.816 600.902 564.409 588.09C563.585 580.578 562.828 573.269 562.131 566.26C558.725 532.01 557.214 507.457 558.305 495.876C558.655 492.164 561.963 489.45 565.675 489.8Z" fill="black"/>
<path d="M410.523 464.566L261.703 461.677C261.703 461.677 225.871 463.158 203.927 531.346C181.984 599.534 227.708 691.156 289.582 709.639C351.456 728.123 398.778 726.757 442.175 710.152C485.573 693.547 513.294 641.44 516.985 627.033C520.676 612.626 529.776 555.197 511.316 523.428C492.855 491.659 452.825 468.346 410.523 464.566Z" fill="#F3886D" stroke="black" stroke-width="0.01875" stroke-miterlimit="10" stroke-linecap="round" stroke-linejoin="round"/>
<path d="M261.698 461.691L287.888 462.197L324.374 492.972L360.833 463.603L410.512 464.56C452.814 468.34 492.846 491.67 511.307 523.439C518.719 536.194 521.59 553.047 522.25 569.63L503.289 576.072L473.751 582.149C473.751 582.149 475.592 677.276 381.593 690.229C287.595 703.181 226.906 659.129 223.946 588.816L201.835 578.182C201.835 578.182 199.529 577.912 198.825 577.844C197.771 561.906 199.178 546.069 203.916 531.344C225.86 463.156 261.698 461.691 261.698 461.691Z" fill="#F9B192"/>
<path d="M261.829 454.917L410.643 457.814C410.8 457.818 410.965 457.829 411.121 457.843C455.563 461.814 497.554 486.322 517.148 520.041C526.152 535.536 529.748 556.932 529.216 581.873C528.844 599.341 526.299 617.918 523.534 628.712C520.995 638.62 511.593 656.346 499.847 671.837C484.129 692.567 465.42 708.486 444.597 716.453C398.19 734.209 348.965 734.431 287.653 716.116C221.398 696.323 174.643 600.272 197.493 529.268C203.401 510.907 210.647 496.082 218.985 484.455C227.77 472.205 237.361 464.038 247.088 459.249C250.609 457.516 253.929 456.332 256.962 455.62C258.074 455.359 259.071 455.176 259.972 455.058C260.584 454.977 261.091 454.959 261.435 454.945C261.571 454.939 261.692 454.914 261.829 454.917ZM261.969 468.42C261.982 468.419 261.916 468.419 261.913 468.42C261.904 468.422 261.9 468.428 261.744 468.448C261.283 468.509 260.726 468.629 260.057 468.786C258.001 469.268 255.637 470.101 253.052 471.374C245.332 475.175 237.455 481.875 229.956 492.331C222.469 502.772 215.843 516.329 210.349 533.403C189.761 597.379 232.694 685.606 291.507 703.175C350.101 720.679 396.294 720.481 439.759 703.85C457.914 696.904 474.781 682.565 489.101 663.679C499.841 649.515 508.409 633.34 510.453 625.364C512.961 615.571 515.363 598.025 515.713 581.592C516.196 558.906 512.979 539.737 505.473 526.82C488.207 497.106 450.253 474.954 410.052 471.317L261.969 468.42Z" fill="black"/>
<path d="M261.83 454.945L288.02 455.451C289.568 455.481 291.056 456.029 292.24 457.027L324.478 484.23L356.604 458.349C357.839 457.354 359.379 456.827 360.964 456.858L410.644 457.814C410.801 457.817 410.966 457.829 411.122 457.843C455.558 461.813 497.553 486.318 517.149 520.041C524.55 532.777 528.201 549.479 528.992 569.355C529.111 572.343 527.267 575.06 524.435 576.022L505.474 582.464C505.209 582.554 504.933 582.632 504.659 582.689L480.325 587.696C480.311 587.941 480.314 588.032 480.297 588.287C480.03 592.335 479.532 596.747 478.75 601.453C476.565 614.595 472.554 627.704 466.259 639.992C450.555 670.653 423.296 691.31 382.513 696.93C288.895 709.83 223.081 667.183 217.607 593.266L199.941 584.771C199.15 584.681 198.297 584.586 198.169 584.574C194.875 584.257 192.311 581.602 192.092 578.301C190.937 560.834 192.66 544.288 197.494 529.268C203.403 510.904 210.645 496.081 218.986 484.455C227.771 472.209 237.361 464.034 247.089 459.249C250.61 457.517 253.929 456.359 256.963 455.648C258.075 455.388 259.072 455.204 259.973 455.086C260.585 455.006 261.092 454.959 261.436 454.945C261.571 454.94 261.694 454.942 261.83 454.945ZM261.97 468.448C261.983 468.448 261.917 468.447 261.914 468.448C261.905 468.45 261.901 468.456 261.745 468.476C261.284 468.537 260.699 468.629 260.029 468.786C257.974 469.267 255.638 470.102 253.053 471.374C245.333 475.171 237.455 481.879 229.957 492.331C222.468 502.77 215.845 516.327 210.35 533.403C206.523 545.293 204.986 558.465 205.427 572.421L226.863 582.717C229.109 583.797 230.584 586.05 230.688 588.54C233.544 656.364 292.585 695.679 380.684 683.54C416.937 678.544 440.486 660.699 454.247 633.832C459.855 622.885 463.445 611.112 465.416 599.258C466.122 595.009 466.584 591.005 466.822 587.387C466.908 586.077 466.964 584.914 466.991 583.871C467.008 583.187 466.994 582.669 466.991 582.323C466.99 582.273 466.991 582.252 466.991 582.267C466.928 579.014 469.205 576.199 472.392 575.544L501.536 569.552L515.123 564.938C514.039 549.363 510.987 536.307 505.474 526.82C488.205 497.101 450.247 474.953 410.053 471.317L363.159 470.417L328.613 498.239C326.096 500.267 322.504 500.21 320.033 498.127L285.404 468.898L261.97 468.448Z" fill="black" fill-opacity="0.5"/>
<path d="M261.829 454.917L410.643 457.814C410.8 457.818 410.965 457.829 411.121 457.843C455.563 461.814 497.554 486.322 517.148 520.041C526.152 535.536 529.748 556.932 529.216 581.873C528.844 599.341 526.299 617.918 523.534 628.712C520.995 638.62 511.593 656.346 499.847 671.837C484.129 692.567 465.42 708.486 444.597 716.453C398.19 734.209 348.965 734.431 287.653 716.116C221.398 696.323 174.643 600.272 197.493 529.268C203.401 510.907 210.647 496.082 218.985 484.455C227.77 472.205 237.361 464.038 247.088 459.249C250.609 457.516 253.929 456.332 256.962 455.62C258.074 455.359 259.071 455.176 259.972 455.058C260.584 454.977 261.091 454.959 261.435 454.945C261.571 454.939 261.692 454.914 261.829 454.917ZM261.969 468.42C261.982 468.419 261.916 468.419 261.913 468.42C261.904 468.422 261.9 468.428 261.744 468.448C261.283 468.509 260.726 468.629 260.057 468.786C258.001 469.268 255.637 470.101 253.052 471.374C245.332 475.175 237.455 481.875 229.956 492.331C222.469 502.772 215.843 516.329 210.349 533.403C189.761 597.379 232.694 685.606 291.507 703.175C350.101 720.679 396.294 720.481 439.759 703.85C457.914 696.904 474.781 682.565 489.101 663.679C499.841 649.515 508.409 633.34 510.453 625.364C512.961 615.571 515.363 598.025 515.713 581.592C516.196 558.906 512.979 539.737 505.473 526.82C488.207 497.106 450.253 474.954 410.052 471.317L261.969 468.42Z" fill="black"/>
<path d="M410.523 464.566L261.703 461.677C261.703 461.677 225.871 463.158 203.927 531.346C181.984 599.534 227.708 691.156 289.582 709.639C351.456 728.123 398.778 726.757 442.175 710.152C485.573 693.547 513.294 641.44 516.985 627.033C520.676 612.626 529.776 555.197 511.316 523.428C492.855 491.659 452.825 468.346 410.523 464.566Z" stroke="black" stroke-width="0.01875" stroke-miterlimit="10" stroke-linecap="round" stroke-linejoin="round"/>
<path d="M536.256 565.502C535.008 554.33 516.144 547.268 494.121 549.728C472.098 552.188 455.257 563.239 456.505 574.41C457.753 585.581 476.617 592.643 498.64 590.183C520.663 587.723 537.504 576.673 536.256 565.502Z" fill="#FF497F" stroke="black" stroke-width="0.01875" stroke-miterlimit="10" stroke-linecap="round" stroke-linejoin="round"/>
<path d="M502.689 542.489C523.944 542.436 541.398 550.641 542.973 564.741C544.773 580.855 524.646 594.075 499.398 596.895C474.15 599.716 451.603 591.264 449.803 575.15C448.003 559.036 468.13 545.844 493.378 543.024C496.534 542.671 499.653 542.497 502.689 542.489ZM502.042 555.992C499.705 556.018 497.297 556.171 494.869 556.443C485.156 557.528 476.354 560.475 470.282 564.46C465.182 567.806 462.947 571.199 463.221 573.659C463.496 576.119 466.426 578.947 472.139 581.086C478.941 583.632 488.166 584.562 497.879 583.477C507.592 582.392 516.394 579.444 522.466 575.459C527.566 572.113 529.83 568.72 529.555 566.26C529.28 563.8 526.322 560.972 520.609 558.834C515.508 556.924 509.054 555.915 502.042 555.992Z" fill="black"/>
<path d="M246.108 578.257C246.395 567.02 228.67 557.451 206.518 556.885C184.366 556.319 166.175 564.969 165.888 576.207C165.601 587.444 183.326 597.012 205.478 597.578C227.63 598.145 245.821 589.494 246.108 578.257Z" fill="#FF497F" stroke="black" stroke-width="0.01875" stroke-miterlimit="10" stroke-linecap="round" stroke-linejoin="round"/>
<path d="M206.693 550.141C232.089 550.79 253.269 562.232 252.855 578.441C252.441 594.65 230.711 604.971 205.314 604.322C179.917 603.673 158.736 592.231 159.15 576.022C159.564 559.813 181.296 549.492 206.693 550.141ZM206.355 563.644C196.585 563.394 187.455 565.111 180.896 568.23C175.388 570.849 172.689 573.913 172.626 576.388C172.562 578.862 175.106 582.042 180.474 584.94C186.865 588.39 195.882 590.569 205.652 590.819C215.422 591.069 224.523 589.353 231.081 586.234C236.59 583.614 239.29 580.55 239.353 578.076C239.416 575.601 236.9 572.421 231.532 569.524C225.142 566.074 216.125 563.894 206.355 563.644Z" fill="black"/>
<path d="M411.77 499.052C404.943 499.052 399.489 504.647 399.488 511.458C399.488 518.268 404.943 523.897 411.77 523.896C418.596 523.896 424.02 518.267 424.02 511.458C424.02 504.649 418.596 499.054 411.77 499.052Z" fill="black"/>
<path d="M266.301 499.989C259.475 499.989 254.051 505.585 254.051 512.396C254.051 519.205 259.475 524.832 266.301 524.833C273.127 524.833 278.582 519.207 278.582 512.396C278.582 505.586 273.127 499.991 266.301 499.989Z" fill="black"/>
<path d="M298.644 554.177C297.633 554.34 296.644 554.729 295.769 555.302C295.61 555.406 293.568 556.747 292.8 557.271C290.602 558.771 288.399 560.333 286.331 561.864C285.578 562.422 284.866 562.956 284.175 563.489C282.799 564.55 281.565 565.554 280.487 566.489C277.411 569.156 277.071 573.82 279.737 576.896C282.404 579.972 287.067 580.31 290.144 577.646C290.988 576.914 292.007 576.076 293.175 575.177C293.786 574.706 294.434 574.21 295.112 573.708C297.013 572.302 299.058 570.861 301.112 569.458H301.144L341.706 580.239C345.64 581.286 349.69 578.954 350.737 575.021C351.784 571.087 349.421 567.035 345.487 565.989L301.706 554.333C300.695 554.064 299.654 554.014 298.644 554.177Z" fill="black"/>
<path d="M428.238 489.489L393.332 496.052C389.331 496.804 386.705 500.645 387.457 504.646C388.209 508.647 392.05 511.271 396.051 510.521L430.957 503.989C434.958 503.238 437.584 499.368 436.832 495.364C436.08 491.364 432.239 488.739 428.238 489.489Z" fill="black"/>
<path d="M259.082 489.896C256.211 489.978 253.534 491.738 252.426 494.583C250.948 498.376 252.82 502.666 256.613 504.146L279.332 512.989C283.125 514.467 287.417 512.594 288.895 508.802C290.372 505.009 288.5 500.721 284.707 499.239L261.988 490.396C261.04 490.026 260.039 489.868 259.082 489.896Z" fill="black"/>
<path opacity="0.201073" d="M560.213 187.181C560.213 187.181 582.096 322.858 516.446 423.522C506.34 439.017 479.38 490.908 479.38 490.908C497.36 677.147 373.801 721.224 373.801 721.224C422.015 737.196 465.068 691.15 465.947 699.945C468.57 726.213 473.016 748.245 478.469 763.118L637.033 701.202L620.924 641.804V619.152L650.624 600.527L675.61 525.799C675.61 525.799 628.475 523.007 598.776 564.787L568.573 548.679L569.077 529.047L588.708 510.422L607.837 494.314L608.34 459.581L615.891 381.558L650.624 378.034C650.624 378.034 668.242 333.737 667.739 323.67C667.235 313.602 659.684 258.231 659.684 258.231L604.313 260.747L586.695 224.504L560.213 187.181Z" fill="black"/>
<path opacity="0.201073" d="M172.851 552.491L128.324 526.655L130.353 565.058C130.353 565.058 148.891 594.283 152.193 598.291C155.494 602.299 168.351 612.716 168.351 612.716C168.351 612.716 173.465 600.173 172.915 595.525C172.366 590.877 169.387 578.977 169.387 578.977L172.731 564.758L172.851 552.491Z" fill="black"/>
<path opacity="0.201073" d="M467.913 278.522C466.224 268.272 499.719 329.398 392.931 399.413C303.828 457.832 279.402 451.303 198.197 437.285L205.604 403.125L249.888 398.723L276.315 388.918L288.363 370.429L313.679 362.742L369.656 347.474L388.902 365.029L431.527 354.682L459.738 327.238C459.738 327.238 469.602 288.773 467.913 278.522Z" fill="black"/>
</svg>
