<svg width="800" height="800" viewBox="0 0 800 800" fill="none" xmlns="http://www.w3.org/2000/svg">
<path d="M185.915 395.197C185.915 395.197 171.465 360.529 148.331 354.227C125.196 347.924 89.1783 434.384 168.274 501.99" fill="#F3886D"/>
<path d="M185.915 395.197C185.915 395.197 171.465 360.529 148.331 354.227C125.196 347.924 89.1783 434.384 168.274 501.99" stroke="black" stroke-width="0.01875" stroke-miterlimit="10" stroke-linejoin="round"/>
<path d="M124.109 379.133C156.329 420.974 164.843 477.226 164.843 477.226L153.871 488.113C117.481 448.625 115.351 405.562 124.109 379.133Z" fill="#F9B192"/>
<path d="M383.929 77.5942C409.514 77.5941 430.261 98.341 430.261 123.926C430.261 135.682 425.728 146.558 418.136 154.871C422.609 161.09 427.481 167.448 433.383 174.253C447.228 190.215 463.845 200.631 491.587 212.765C493.836 213.749 505.953 218.9 506.609 219.179C529.491 228.907 541.407 234.81 553.644 243.568C570.03 255.295 581.951 269.733 589.624 288.522C601.064 316.531 599.795 342.467 589.09 365.517C604.999 395.071 614.659 427.579 617.221 461.417C625.413 457.719 633.835 456.106 642.905 456.691C657.753 457.647 669.817 466.48 678.885 480.377C685.672 490.778 690.65 503.925 693.316 517.032C699.007 545.008 673.801 583.58 638.629 603.93C625.337 611.62 610.607 615.98 595.166 617.714C587.65 618.558 580.748 618.546 574.152 618.248C529.304 682.245 456.198 721.434 376.333 721.434C245.389 721.434 138.722 617.192 134.911 486.96C111.914 457.345 102.817 423.971 106.78 393.086C110.57 363.545 126.273 339.537 146.501 340.059C148.377 340.107 150.175 340.389 151.959 340.874C159.128 342.828 165.553 346.64 171.51 351.705C172.798 349.643 174.186 347.672 175.532 345.657C154.703 300.02 179.606 245.471 229.488 221.401C274.304 199.776 311.637 179.351 327.272 166.067C331.855 162.173 337.503 155.39 343.757 146.6C339.879 139.762 337.597 132.042 337.597 123.926C337.596 98.3411 358.344 77.5943 383.929 77.5942ZM383.929 91.4347C365.985 91.4347 351.437 105.983 351.437 123.926C351.437 132.718 354.964 140.667 360.636 146.516C352.811 158.335 344.063 169.951 336.218 176.616C315.788 193.974 265.052 219.607 235.508 233.863C191.376 255.159 167.289 305.598 191.539 346.585C185.07 355.544 179.258 365.013 174.126 374.885C167.716 366.089 159.007 357.145 148.33 354.237C147.607 354.04 146.88 353.918 146.135 353.899C125.349 353.363 97.7899 420.852 148.583 482.121C149.844 606.855 251.301 707.593 376.333 707.593C456.285 707.593 526.551 666.356 567.204 604.042C577.276 605.143 606.111 606.756 631.709 591.946C663.002 573.84 683.948 540.394 679.757 519.789C675.566 499.184 663.339 471.877 642.005 470.503C628.281 469.619 616.619 475.448 603.943 487.438C604.028 484.888 604.14 482.357 604.14 479.786C604.14 438.249 592.954 399.33 573.533 365.799C583.297 348.462 589.241 324.154 576.825 293.755C550.323 228.868 470.361 238.01 422.919 183.311C412.59 171.403 405.184 161.215 399.485 152.283C409.529 146.756 416.42 136.199 416.42 123.926C416.42 105.983 401.872 91.4347 383.929 91.4347Z" fill="black"/>
<path d="M146.304 347.148C147.586 347.181 148.845 347.368 150.102 347.71C161.323 350.767 170.976 359.067 179.64 370.975C181.146 373.045 181.355 375.792 180.174 378.064C163.907 409.369 155.278 443.989 155.278 479.786C155.278 479.982 155.281 480.19 155.306 480.687C155.306 480.691 155.358 481.658 155.362 482.093C155.428 488.45 147.465 491.346 143.407 486.454C119.311 457.405 109.924 424.328 113.813 393.986C117.194 367.597 130.822 346.748 146.304 347.148ZM145.967 360.651C143.588 360.589 139.856 363.282 136.261 368.781C131.885 375.475 128.578 384.969 127.203 395.702C124.47 417.025 129.414 440.037 142.535 461.782C144.847 431.711 152.942 402.67 166.249 375.841C159.948 367.981 153.33 362.608 146.557 360.763C146.306 360.695 146.118 360.654 145.967 360.651Z" fill="black"/>
<path d="M604.134 479.774C604.134 353.958 502.139 251.963 376.323 251.963C250.507 251.963 148.512 353.958 148.512 479.774C148.512 605.59 250.507 707.585 376.323 707.585C502.139 707.585 604.134 605.59 604.134 479.774Z" fill="#F3886D" stroke="black" stroke-width="0.01875" stroke-miterlimit="10" stroke-linecap="round" stroke-linejoin="round"/>
<path d="M151.677 517.426C151.502 516.376 151.303 515.33 151.143 514.275C150.722 511.514 150.394 508.714 150.074 505.92C149.954 504.877 149.813 503.845 149.708 502.798C149.439 500.128 149.237 497.449 149.061 494.752C148.986 493.596 148.894 492.453 148.836 491.292C148.646 487.484 148.527 483.642 148.527 479.786C148.527 455.593 152.286 432.262 159.273 410.387C165.347 407.513 171.916 405.749 178.88 405.436C187.586 405.044 196.818 406.766 206.139 410.837C232.642 422.411 252.711 449.947 259.673 480.265C285.814 453.209 335.927 442.39 387.755 456.156C455.236 474.08 499.898 526.777 487.48 573.857C475.396 619.67 413.719 643.146 348.23 627.869C365.905 648.422 375.876 668.661 373.436 682.922C372.126 690.574 366.01 699.124 356.895 706.693C290.577 701.084 232.325 667.138 194.409 616.926C191.883 607.714 189.925 598.866 188.895 591.214C181.556 586.105 174.236 578.855 167.29 570.369C160.039 553.661 154.763 535.918 151.677 517.426Z" fill="#F9B192"/>
<path d="M376.333 245.2C505.878 245.2 610.892 350.241 610.892 479.786C610.892 609.332 505.878 714.345 376.333 714.345C246.788 714.345 141.775 609.332 141.775 479.786C141.775 350.241 246.788 245.2 376.333 245.2ZM376.333 258.703C254.246 258.703 155.278 357.699 155.278 479.786C155.278 601.874 254.246 700.842 376.333 700.842C498.421 700.842 597.389 601.874 597.389 479.786C597.389 357.699 498.421 258.703 376.333 258.703Z" fill="black"/>
<path d="M376.333 245.2C505.878 245.2 610.892 350.241 610.892 479.786C610.892 609.332 505.878 714.345 376.333 714.345C246.788 714.345 141.775 609.332 141.775 479.786C141.775 350.241 246.788 245.2 376.333 245.2ZM376.333 258.703C254.246 258.703 155.278 357.699 155.278 479.786C155.278 601.874 254.246 700.842 376.333 700.842C498.421 700.842 597.389 601.874 597.389 479.786C597.389 357.699 498.421 258.703 376.333 258.703Z" fill="black"/>
<path d="M340.607 473.808C343.238 473.778 345.761 475.296 346.88 477.859C351.602 488.678 359.376 495.724 369.582 499.829C378.658 503.48 388.38 504.406 396.644 503.768C397.401 503.709 397.905 503.655 398.107 503.627C401.8 503.114 405.218 505.701 405.731 509.394C406.243 513.087 403.657 516.476 399.964 516.989C399.499 517.054 398.723 517.134 397.685 517.214C387.53 517.999 375.852 516.896 364.546 512.348C351.196 506.977 340.714 497.49 334.502 483.26C333.011 479.842 334.573 475.862 337.991 474.37C338.845 473.998 339.73 473.818 340.607 473.808Z" fill="black"/>
<path d="M209.455 441.889C211.154 441.576 212.984 441.9 214.519 442.958C217.589 445.074 218.35 449.284 216.235 452.354C216.088 452.566 215.859 452.902 215.531 453.338C215.013 454.027 214.409 454.779 213.731 455.589C211.807 457.885 209.592 460.186 207.148 462.34C201.913 466.955 196.241 470.33 190.101 471.877C182.093 473.894 174.015 472.566 166.47 467.404C163.393 465.298 162.592 461.085 164.698 458.008C166.804 454.931 171.017 454.158 174.094 456.264C181.903 461.607 189.86 459.591 198.231 452.213C200.128 450.541 201.868 448.728 203.379 446.924C203.902 446.299 204.347 445.716 204.729 445.208C204.856 445.039 205.124 444.7 205.123 444.702C206.181 443.167 207.756 442.202 209.455 441.889Z" fill="black"/>
<path d="M333.63 527.3C338.037 527.3 341.368 530.061 343.392 534.023C344.891 536.96 345.67 540.624 345.67 544.432C345.67 548.24 344.891 551.904 343.392 554.841C341.368 558.803 338.037 561.564 333.63 561.564C329.223 561.564 325.892 558.803 323.869 554.841C322.369 551.904 321.59 548.24 321.59 544.432C321.59 540.624 322.37 536.96 323.869 534.023C325.892 530.061 329.223 527.3 333.63 527.3Z" fill="black"/>
<path d="M172.269 481.784C179.633 481.784 184 488.919 184 496.665C184 504.412 179.633 511.575 172.269 511.575C164.906 511.575 160.51 504.412 160.51 496.665C160.51 488.919 164.906 481.784 172.269 481.784Z" fill="black"/>
<path d="M234.664 623.65C237.265 623.248 239.974 624.393 241.444 626.772C246.377 634.759 250.637 638.661 253.906 639.6C255.466 640.048 256.69 639.697 257.957 638.7C258.317 638.417 258.653 638.124 258.913 637.828C259.035 637.69 259.067 637.627 259.026 637.687C261.656 633.832 267.305 633.747 270.053 637.518C279.169 650.025 287.066 655.909 293.515 656.844C297.693 657.45 301.354 655.867 304.683 652.597C305.761 651.537 306.706 650.393 307.496 649.249C307.766 648.858 308.016 648.487 308.199 648.18C308.291 648.027 308.314 647.95 308.312 647.955C310.051 644.656 314.156 643.403 317.455 645.142C320.753 646.881 322.007 650.958 320.268 654.256C320.161 654.458 320.007 654.736 319.789 655.1C319.458 655.656 319.052 656.258 318.608 656.901C317.357 658.712 315.893 660.518 314.163 662.217C308.075 668.198 300.442 671.492 291.574 670.207C282.423 668.88 273.168 662.397 263.696 650.993C259.767 653.198 255.198 654.007 250.193 652.568C243.182 650.554 236.503 644.445 229.966 633.861C228.007 630.689 228.988 626.537 232.161 624.578C232.954 624.088 233.798 623.783 234.664 623.65Z" fill="black"/>
<path d="M321.414 597.886L309.752 578.748C307.822 575.581 308.824 571.448 311.991 569.517L312.058 569.476C315.224 567.546 319.356 568.548 321.286 571.715L332.948 590.853C334.878 594.02 333.875 598.152 330.709 600.083L330.642 600.124C327.475 602.055 323.344 601.053 321.414 597.886Z" fill="#FF0000" fill-opacity="0.5"/>
<path d="M306.355 609.661L306.331 609.676C303.137 611.598 298.992 610.566 297.074 607.369L267.901 558.771C265.983 555.575 267.019 551.43 270.216 549.513L270.228 549.506C273.425 547.589 277.573 548.626 279.492 551.822L308.663 600.393C310.582 603.589 309.549 607.739 306.355 609.661Z" fill="#FF0000" fill-opacity="0.5"/>
<path d="M251.503 548.53L278.223 594.937C280.081 598.163 278.97 602.282 275.742 604.137L275.73 604.144C272.502 605.999 268.378 604.887 266.52 601.661L239.802 555.281C237.943 552.055 239.051 547.931 242.276 546.07L242.3 546.057C245.525 544.196 249.645 545.304 251.503 548.53Z" fill="#FF0000" fill-opacity="0.5"/>
<path d="M248.58 595.487L248.568 595.493C245.317 597.309 241.208 596.146 239.39 592.895L217.587 553.891C215.77 550.64 216.932 546.533 220.184 544.717L220.196 544.71C223.447 542.894 227.557 544.057 229.374 547.308L251.177 586.313C252.995 589.563 251.832 593.671 248.58 595.487Z" fill="#FF0000" fill-opacity="0.5"/>
<path d="M206.02 557.263L206.032 557.257C209.307 555.487 213.397 556.707 215.169 559.981L223.214 574.85C224.985 578.124 223.766 582.212 220.491 583.981L220.479 583.988C217.204 585.757 213.114 584.537 211.342 581.264L203.297 566.395C201.526 563.121 202.745 559.032 206.02 557.263Z" fill="#FF0000" fill-opacity="0.5"/>
<path d="M178.571 398.684C188.498 398.238 198.758 400.244 208.84 404.648C233.737 415.521 253.732 439.593 263.189 468.112C293.046 444.364 341.316 436.832 389.499 449.63C460.188 468.406 507.533 524.29 494.006 575.573C482.004 621.078 426.381 645.927 364.265 637.575C376.37 654.934 382.312 671.138 380.103 684.047C378.499 693.419 371.588 703.271 361.199 711.897C359.836 713.029 358.098 713.566 356.332 713.416C289.451 707.76 228.92 673.861 189.007 621.005C188.492 620.322 188.136 619.524 187.91 618.698C185.514 609.961 183.807 602.066 182.706 594.984C175.82 589.805 168.881 582.981 162.058 574.645C161.663 574.163 161.35 573.641 161.101 573.07C153.58 555.74 148.166 537.46 145.01 518.551C145.01 518.551 144.568 515.896 144.476 515.288C144.103 512.846 143.834 510.653 143.378 506.68C143.343 506.373 143.043 504.055 142.985 503.473C142.73 500.945 142.541 498.324 142.338 495.202C142.318 494.895 142.116 492.265 142.084 491.63C141.875 487.443 141.775 483.547 141.775 479.786C141.775 455.245 145.525 431.208 152.831 408.333C153.4 406.551 154.684 405.082 156.375 404.282C163.427 400.946 170.88 399.03 178.571 398.684ZM179.19 412.187C174.274 412.408 169.512 413.646 164.871 415.507C158.608 436.145 155.278 457.725 155.278 479.786C155.278 483.307 155.389 486.979 155.587 490.954C155.614 491.478 155.763 493.966 155.784 494.302C155.978 497.276 156.194 499.771 156.431 502.123C156.477 502.579 156.729 504.806 156.769 505.161C157.206 508.974 157.47 511.03 157.81 513.263C157.882 513.736 158.293 516.019 158.344 516.329C158.344 516.329 166.163 550.187 173.169 566.796C179.812 574.807 186.433 581.275 192.749 585.672C194.302 586.754 195.338 588.438 195.59 590.314C196.49 597 198.212 605.033 200.569 613.804C237.616 662.307 293.121 693.624 354.588 699.632C361.475 693.422 365.881 686.981 366.769 681.797C368.712 670.441 360.158 652.08 343.11 632.258C338.852 627.307 343.419 619.803 349.777 621.287C412.348 635.883 470.003 613.657 480.953 572.141C492.26 529.272 450.296 479.758 386.01 462.683C337.464 449.788 289.417 459.216 264.54 484.963C260.816 488.816 254.29 487.006 253.09 481.784C246.404 452.67 227.25 427.424 203.439 417.026C195.21 413.432 187.009 411.835 179.19 412.187Z" fill="black" fill-opacity="0.5"/>
<path d="M412.263 637.162C413.571 627.721 400.545 617.335 383.167 613.964C365.79 610.593 350.643 615.514 349.335 624.956C348.027 634.397 361.053 644.783 378.431 648.154C395.808 651.524 410.955 646.603 412.263 637.162Z" fill="#FF497F" stroke="black" stroke-width="0.01875" stroke-miterlimit="10" stroke-linejoin="round"/>
<path d="M187.836 566.071C189.144 556.629 176.117 546.243 158.74 542.873C141.363 539.502 126.215 544.423 124.907 553.864C123.599 563.306 136.626 573.692 154.003 577.062C171.38 580.433 186.528 575.512 187.836 566.071Z" fill="#FF497F" stroke="black" stroke-width="0.01875" stroke-miterlimit="10" stroke-linejoin="round"/>
<path d="M369.497 606.208C374.228 605.962 379.298 606.332 384.463 607.333C404.907 611.299 420.896 624.049 418.952 638.081C416.946 652.563 397.809 658.798 377.149 654.791C356.705 650.825 340.716 638.047 342.66 624.015C344.165 613.153 355.304 606.945 369.497 606.208ZM371.27 619.683C367.945 619.774 364.9 620.253 362.324 621.09C358.244 622.415 356.251 624.226 356.023 625.872C355.766 627.72 357.347 630.57 361.086 633.552C365.618 637.165 372.278 640.072 379.709 641.513C387.098 642.946 394.137 642.708 399.288 641.035C403.368 639.709 405.362 637.87 405.59 636.224C405.846 634.376 404.265 631.554 400.526 628.573C395.995 624.96 389.306 622.024 381.875 620.583C378.181 619.867 374.595 619.592 371.27 619.683Z" fill="black"/>
<path d="M145.066 535.121C149.797 534.875 154.867 535.244 160.032 536.246C180.476 540.211 196.465 552.961 194.521 566.993C192.515 581.476 173.378 587.711 152.718 583.703C132.274 579.738 116.285 566.96 118.229 552.928C119.734 542.066 130.873 535.858 145.066 535.121ZM146.839 548.567C143.514 548.658 140.469 549.137 137.893 549.974C133.813 551.299 131.819 553.138 131.592 554.784C131.335 556.633 132.916 559.483 136.655 562.464C141.187 566.077 147.847 568.984 155.278 570.425C162.667 571.858 169.706 571.621 174.857 569.947C178.937 568.622 180.931 566.783 181.159 565.137C181.415 563.288 179.834 560.466 176.095 557.485C171.564 553.872 164.875 550.937 157.444 549.496C153.75 548.779 150.164 548.476 146.839 548.567Z" fill="black"/>
<path d="M562.543 603.509C562.543 603.509 600.412 610.042 631.705 591.936C662.999 573.83 683.941 540.396 679.749 519.791C675.558 499.187 663.339 471.889 642.004 470.515C620.67 469.141 604.374 483.775 581.391 513.007" fill="#F3886D"/>
<path d="M562.543 603.509C562.543 603.509 600.412 610.042 631.705 591.936C662.999 573.83 683.941 540.396 679.749 519.791C675.558 499.187 663.339 471.889 642.004 470.515C620.67 469.141 604.374 483.775 581.391 513.007" stroke="black" stroke-width="0.01875" stroke-miterlimit="10" stroke-linejoin="round"/>
<path d="M672.301 497.143C675.778 504.592 678.29 512.583 679.756 519.789C683.947 540.394 663.001 573.839 631.708 591.946C607.481 605.963 579.814 605.208 568.328 604.155C594.458 527.12 640.751 503.792 672.301 497.143Z" fill="#F9B192"/>
<path d="M641.921 503.951C644.51 504.42 646.681 506.399 647.294 509.127C648.112 512.765 645.812 516.383 642.174 517.201C642.184 517.199 642.058 517.228 641.781 517.313C641.218 517.487 640.548 517.726 639.755 518.045C637.369 519.004 634.647 520.4 631.682 522.293C622.954 527.863 614.121 536.418 605.773 548.652C604.819 550.049 603.862 551.502 602.931 552.984C600.949 556.142 596.806 557.076 593.648 555.094C590.49 553.111 589.528 548.941 591.51 545.782C592.532 544.155 593.554 542.568 594.605 541.028C603.981 527.286 614.16 517.451 624.424 510.9C628.105 508.55 631.567 506.793 634.72 505.526C635.866 505.066 636.893 504.684 637.814 504.401C638.427 504.213 638.895 504.109 639.221 504.036C640.13 503.831 641.058 503.795 641.921 503.951Z" fill="black"/>
<path d="M616.068 522.63C618.477 522.737 620.932 523.257 623.466 524.149C627.132 525.441 630.869 527.465 634.634 530.001C636.858 531.498 638.949 533.076 640.879 534.67C642.051 535.638 642.927 536.416 643.439 536.893C646.168 539.434 646.318 543.701 643.777 546.429C641.235 549.158 636.969 549.309 634.24 546.767C634.178 546.709 634.034 546.588 633.79 546.373C633.362 545.994 632.86 545.57 632.299 545.107C630.689 543.777 628.926 542.429 627.095 541.197C624.202 539.249 621.436 537.753 618.993 536.893C617.634 536.414 616.422 536.148 615.449 536.105C611.724 535.94 608.842 532.798 609.007 529.072C609.172 525.347 612.343 522.465 616.068 522.63Z" fill="black"/>
<path d="M642.427 463.78C654.732 464.572 664.994 472.068 672.949 484.259C679.203 493.845 683.868 506.152 686.368 518.439C691.345 542.909 667.898 578.783 635.084 597.769C634.36 598.188 633.623 598.607 632.89 599.007C621.107 605.434 608.586 609.231 595.813 610.878C586.692 612.054 578.317 612.031 571.198 611.3C569.33 611.108 567.972 610.913 567.176 610.765C563.509 610.088 561.097 606.583 561.774 602.917C562.452 599.25 565.956 596.81 569.623 597.488C569.623 597.488 570.083 597.569 570.298 597.6C570.946 597.694 571.692 597.791 572.577 597.881C578.717 598.512 586.05 598.521 594.069 597.488C605.261 596.044 616.196 592.74 626.42 587.163C627.054 586.818 627.706 586.457 628.333 586.094C656.652 569.709 676.765 538.933 673.146 521.139C668.232 496.982 655.964 478.181 641.583 477.255C624.76 476.171 610.792 486.527 586.699 517.173C584.394 520.104 580.15 520.631 577.218 518.326C574.287 516.022 573.789 511.777 576.093 508.846C589.019 492.405 598.76 481.952 608.303 474.863C619.344 466.663 630.28 462.997 642.427 463.78Z" fill="black"/>
<path d="M546.434 402.492C546.434 402.492 603.314 364.994 576.813 300.108C550.312 235.222 470.367 244.35 422.924 189.652C377.512 137.294 383.343 114.465 383.343 114.465C383.343 114.465 356.649 165.612 336.22 182.97C315.79 200.328 265.061 225.96 235.516 240.216C186.173 264.027 161.693 324.293 202.057 367.016C242.42 409.74 424.641 473.47 546.434 402.492Z" fill="#93E9CA"/>
<path d="M184.986 297.225C213.845 340.159 236.639 383.894 362.269 409.103C462.698 429.255 541.075 386.55 579.639 358.551C569.904 386.904 546.444 402.492 546.444 402.492C424.651 473.47 242.425 409.743 202.061 367.019C182.079 345.868 178.035 320.422 184.986 297.225Z" fill="#82D4D5"/>
<path d="M383.339 114.456C383.339 114.456 377.507 137.294 422.92 189.651C442.314 212.012 467.117 223.654 491.503 234.098C452.633 274.484 349.242 308.115 254.188 230.976C283.232 216.471 319.553 197.116 336.218 182.956C356.648 165.598 383.339 114.456 383.339 114.456Z" fill="#B7F2CC"/>
<path d="M383.339 114.456C383.339 114.456 377.871 136.413 420.191 186.416C391.269 201.4 374.149 212.345 336.529 182.646C356.919 165.046 383.339 114.456 383.339 114.456Z" fill="#DFFFEA"/>
<path d="M383.48 107.677C387.375 107.835 391.134 111.289 389.894 116.144C389.933 115.992 389.932 115.948 389.922 116.032C389.791 117.069 389.81 118.731 390.147 121.039C390.668 124.609 391.855 128.867 393.86 133.867C399.453 147.812 410.377 164.903 428.011 185.235C442.693 202.162 460.133 213.083 488.747 225.603C491.021 226.598 503.201 231.768 503.853 232.045C526.271 241.58 537.824 247.337 549.51 255.703C564.848 266.683 575.925 280.066 583.071 297.563C590.883 316.69 592.423 334.883 588.613 351.912C585.533 365.678 579.132 378.036 570.412 388.905C566.04 394.354 561.346 399.073 556.656 403.083C555.001 404.497 553.469 405.728 552.07 406.768C551.199 407.416 550.553 407.858 550.157 408.118C550.053 408.187 549.955 408.253 549.848 408.315C492.985 441.453 419.378 448.517 342.464 434.027C279.484 422.162 220.147 396.015 197.138 371.66C176.305 349.609 170.257 321.733 178.684 294.524C186.561 269.094 206.481 246.723 232.584 234.127C278.004 212.209 315.573 191.673 331.859 177.836C335.179 175.015 338.926 170.942 343.027 165.796C347.088 160.699 351.403 154.637 355.855 147.848C361.087 139.869 366.244 131.303 371.102 122.727C372.803 119.724 374.363 116.927 375.715 114.428C376.187 113.557 377.279 111.465 377.347 111.334C378.738 108.668 381.142 107.582 383.48 107.677ZM379.794 134.598C375.698 141.646 371.472 148.661 367.135 155.275C362.471 162.388 357.951 168.752 353.604 174.207C349.004 179.98 344.656 184.64 340.579 188.104C323.057 202.992 285.065 223.82 238.463 246.307C215.665 257.308 198.339 276.748 191.596 298.519C184.589 321.144 189.523 343.924 206.956 362.377C227.677 384.309 284.532 409.364 344.968 420.749C418.891 434.675 489.225 427.973 542.899 396.753C543.121 396.603 543.446 396.368 544.025 395.938C545.183 395.077 546.492 394.025 547.907 392.815C551.986 389.327 556.049 385.19 559.862 380.437C567.368 371.083 572.852 360.557 575.447 348.958C578.654 334.625 577.324 319.234 570.552 302.654C564.412 287.619 554.981 276.229 541.633 266.674C530.995 259.059 520.105 253.641 498.565 244.479C497.921 244.205 485.664 238.967 483.346 237.952C453.053 224.698 434.107 212.837 417.828 194.068C399.265 172.666 387.507 154.347 381.314 138.902C380.702 137.379 380.284 136.018 379.794 134.598Z" fill="black"/>
<path d="M416.415 130.265C416.415 112.322 401.869 97.7759 383.926 97.7759C365.983 97.7759 351.438 112.322 351.438 130.265C351.438 148.208 365.983 162.754 383.926 162.754C401.869 162.754 416.415 148.208 416.415 130.265Z" fill="#FFA0CA"/>
<path d="M383.93 91.0229C405.602 91.0229 423.173 108.594 423.173 130.266C423.173 151.938 405.602 169.509 383.93 169.509C362.258 169.509 344.688 151.938 344.688 130.266C344.688 108.594 362.258 91.0229 383.93 91.0229ZM383.93 104.526C369.715 104.526 358.19 116.052 358.19 130.266C358.19 144.481 369.715 156.006 383.93 156.006C398.144 156.006 409.671 144.481 409.671 130.266C409.671 116.052 398.144 104.526 383.93 104.526Z" fill="black"/>
<path opacity="0.202659" d="M178.697 318.273C381.176 476.873 587.134 344.772 587.134 344.772L578.639 381.343L585.672 386.772L604.548 434.651L607.726 484.584L590.595 508.074C586.531 524.616 627.756 524.334 627.756 524.334L666.943 563.802L630.063 598.038L569.327 617.476L530.225 657.507L472.697 695.231L417.475 722.406L345.712 717.792L289.562 703.98L250.46 677.762C296.364 678.556 335.655 669.035 369.18 653.126C377.014 649.409 398.816 654.041 406.031 649.676C411.896 646.128 403.277 633.685 408.746 629.769C472.658 584.007 499.789 548.182 515.813 511.616C519.637 502.889 464.017 466.346 456.204 465.24C448.391 464.134 368.639 456.144 368.639 456.144L275.328 432.035L224.326 400.669L185.842 355.828L178.697 318.273Z" fill="black"/>
</svg>
