<svg width="800" height="800" viewBox="0 0 800 800" fill="none" xmlns="http://www.w3.org/2000/svg">
<path d="M155.918 566.409C155.918 566.409 120.209 563.124 106.364 584.186C92.5177 605.248 98.0806 682.25 212.709 681.869" fill="#F3886D"/>
<path d="M148.065 556.094C140.901 556.254 133.167 557.246 125.561 559.498C113.753 562.993 104.142 569.143 97.9072 578.627C87.2925 594.774 88.3322 623.905 102.831 646.536C121.315 675.389 158.116 692.177 212.739 691.996L212.683 671.741C164.525 671.901 134.3 658.133 119.878 635.621C114.36 627.008 111.466 617.379 111.129 608.024C110.85 600.245 112.432 593.363 114.815 589.739C118.098 584.745 123.739 581.154 131.328 578.908C138.907 576.665 147.111 576.084 153.973 576.433C154.299 576.449 154.985 576.489 154.985 576.489L156.843 556.319C156.456 556.283 155.84 556.249 155.014 556.206C152.776 556.093 150.453 556.04 148.065 556.094Z" fill="black"/>
<path d="M562.882 384.223C562.882 384.223 567.079 355.101 586.393 311.462C605.708 267.823 640.139 209.666 700.609 151.595C700.609 151.595 695.127 144.571 683.093 140.888C671.059 137.205 652.473 136.863 626.264 150.224C626.264 150.224 627.701 140.659 626.415 127.232C625.129 113.805 621.118 96.5157 610.223 81.0676C610.223 81.0676 602.14 80.8936 590.424 84.6907C578.708 88.4877 563.36 96.2556 548.831 112.139C548.831 112.139 546.41 98.7082 541.967 84.1739C537.524 69.6396 531.058 54.0022 522.969 49.5898C522.969 49.5898 513.537 50.7138 500.698 57.1776C487.858 63.6413 471.613 75.4447 457.986 96.8035C457.986 96.8035 456.229 87.1472 450.612 75.3274C444.994 63.5076 435.516 49.5242 420.074 40.8701C420.074 40.8701 411.907 43.2472 401.326 51.9239C390.745 60.6005 377.75 75.5768 368.094 100.775C368.094 100.775 362.936 90.6124 354.199 78.7167C345.461 66.821 333.144 53.1925 318.827 46.2613C318.827 46.2613 310.325 50.6812 301.167 61.6113C292.009 72.5414 282.197 89.9819 279.577 116.023C279.577 116.023 271.907 111.359 258.355 106.282C244.802 101.205 225.367 95.7139 201.836 94.0589C201.836 94.0589 216.247 110.017 231.604 146.407C246.96 182.796 263.263 239.617 267.048 321.344C267.048 321.344 300.487 325.853 354.187 335.967C407.886 346.081 481.844 361.8 562.882 384.223Z" fill="#AF93E5"/>
<path d="M261.512 242.243C261.512 242.243 298.984 147.784 350.115 148.477C401.246 149.169 448.079 204.704 451.539 269.791C451.539 269.791 471.607 278.479 495.596 291.684C530.514 310.906 573.741 339.699 575.484 365.205C578.425 408.234 546.542 388.876 546.542 388.876L360.629 348.744L277.08 352.542L264.25 316.018L261.512 242.243Z" fill="#ABACE3"/>
<path d="M280.225 249.506L307.008 225.911L299.722 191.042L336.318 195.777L351.723 159.156L370.323 193.439L396.313 181.549L392.619 216.303L423.471 231.249L387.789 253.423L415.852 296.864L368.196 281.327L353.516 322.834L337.224 281.54L297.917 303.289L315.98 260.835L280.225 249.506Z" fill="#C3C4E1"/>
<path d="M630.676 144.464C630.676 144.464 558.93 221.636 528.785 343.423C498.64 465.21 566.165 383.215 566.165 383.215L591.693 303.729L625.303 240.43C625.303 240.43 650.511 208.78 656.953 202.338C663.395 195.896 692.244 161.165 692.244 161.165L703.167 147.721L685.802 136.518L658.914 137.918L630.676 144.464Z" fill="#B876D1"/>
<path d="M536.21 317.042C533.549 325.607 531.029 334.354 528.783 343.429C524.494 360.757 522.336 373.587 521.525 383.488L546.534 388.889C546.534 388.889 551.496 391.786 557.308 392.799C562.388 387.647 566.169 383.206 566.169 383.206L574.074 358.62C569.551 344.722 554.428 330.224 536.21 317.042Z" fill="#AF93E5"/>
<path d="M358.497 201.686C358.497 201.686 334.713 206.058 330.126 213.951C325.54 221.843 326.18 244.881 330.02 251.387C333.859 257.893 347.831 272.611 358.39 269.838C358.39 269.838 393.16 242.535 358.497 201.686Z" fill="#FFD000"/>
<path d="M561.175 387.901C561.175 387.901 565.372 358.779 584.686 315.14C604.001 271.501 638.432 213.344 698.902 155.273C698.902 155.273 693.42 148.249 681.386 144.566C669.352 140.883 650.766 140.541 624.557 153.902C624.557 153.902 625.994 144.337 624.708 130.91C623.421 117.483 619.411 100.194 608.516 84.7452C608.516 84.7452 600.433 84.5714 588.717 88.3683C577.001 92.1654 561.653 99.9333 547.123 115.817C547.123 115.817 544.703 102.386 540.26 87.8515C535.817 73.3172 529.351 57.6799 521.262 53.2676C521.262 53.2676 511.829 54.3916 498.99 60.8554C486.151 67.3191 469.906 79.1225 456.279 100.482C456.279 100.482 454.522 90.825 448.904 79.0051C443.287 67.1853 433.809 53.202 418.367 44.5479C418.367 44.5479 410.2 46.925 399.619 55.6016C389.038 64.2782 376.043 79.2546 366.387 104.453C366.387 104.453 361.229 94.2901 352.491 82.3944C343.754 70.4987 331.437 56.8703 317.12 49.9391C317.12 49.9391 308.618 54.3589 299.46 65.289C290.302 76.2192 280.49 93.6595 277.87 119.701C277.87 119.701 270.2 115.037 256.648 109.96C243.095 104.883 223.66 99.3915 200.129 97.7366C200.129 97.7366 214.54 113.695 229.896 150.085C245.253 186.474 261.556 243.296 265.341 325.022C265.341 325.022 298.78 329.531 352.479 339.645C406.178 349.759 480.137 365.478 561.175 387.901Z" fill="#93E9CA"/>
<path d="M259.803 245.921C259.803 245.921 297.275 151.462 348.407 152.155C399.538 152.848 446.371 208.382 449.831 273.469C449.831 273.469 469.899 282.157 493.888 295.362C528.806 314.584 572.033 343.377 573.776 368.883C576.717 411.912 544.834 392.554 544.834 392.554L358.921 352.422L275.372 356.22L262.542 319.697L259.803 245.921Z" fill="#B7F2CC"/>
<path d="M278.518 253.184L305.301 229.589L298.014 194.719L334.611 199.454L350.016 162.833L368.615 197.117L394.606 185.227L390.912 219.98L421.763 234.926L386.082 257.101L414.145 300.541L366.488 285.005L351.809 326.511L335.516 285.217L296.21 306.967L314.273 264.514L278.518 253.184Z" fill="#DFFFEA"/>
<path d="M628.969 148.142C628.969 148.142 557.223 225.314 527.078 347.101C496.933 468.888 564.458 386.893 564.458 386.893L589.986 307.407L623.596 244.108C623.596 244.108 648.804 212.458 655.246 206.016C661.688 199.574 690.537 164.843 690.537 164.843L701.46 151.399L684.095 140.196L657.207 141.596L628.969 148.142Z" fill="#82D4D5"/>
<path d="M534.503 320.72C531.841 329.285 529.322 338.032 527.076 347.107C522.787 364.435 520.628 377.265 519.818 387.166L544.827 392.567C544.827 392.567 549.789 395.464 555.601 396.477C560.681 391.325 564.462 386.884 564.462 386.884L572.367 362.298C567.844 348.401 552.721 333.902 534.503 320.72Z" fill="#93E9CA"/>
<path d="M356.79 205.364C356.79 205.364 333.005 209.736 328.419 217.629C323.833 225.521 324.473 248.559 328.313 255.065C332.152 261.571 346.124 276.289 356.683 273.516C356.683 273.516 391.453 246.213 356.79 205.364Z" fill="#FFA0CA"/>
<path d="M357.361 198.602C356.771 198.553 356.159 198.576 355.561 198.686C354.541 198.874 352.838 199.209 350.666 199.727C347.046 200.591 343.429 201.63 340.004 202.822C331.456 205.795 325.447 209.203 322.535 214.215C316.921 223.876 317.147 249.534 322.45 258.522C325.1 263.011 330.336 268.853 335.784 273.122C343.385 279.076 351.07 282.024 358.402 280.098C359.301 279.862 360.146 279.435 360.878 278.86C361.095 278.69 361.42 278.436 361.834 278.073C362.473 277.511 363.172 276.849 363.916 276.104C366.001 274.012 368.086 271.572 370.02 268.79C375.589 260.778 378.953 251.532 378.966 241.193C378.981 228.146 373.563 214.621 361.975 200.965C360.794 199.574 359.132 198.749 357.361 198.602ZM353.957 212.921C361.715 222.998 365.389 232.42 365.379 241.165C365.37 248.491 362.943 255.14 358.852 261.025C357.399 263.116 355.839 264.962 354.295 266.511C354.119 266.687 353.981 266.802 353.817 266.961C348.518 266.898 338.397 258.745 334.181 251.601C331.362 246.825 331.165 226.435 334.294 221.051C334.548 220.613 335.559 219.735 337.247 218.772C339.124 217.703 341.575 216.649 344.449 215.65C347.396 214.624 350.609 213.714 353.817 212.949C353.868 212.937 353.907 212.933 353.957 212.921Z" fill="black"/>
<path d="M419.531 34.3436C418.188 34.19 416.804 34.2958 415.48 34.6811C414.952 34.8349 414.202 35.0945 413.23 35.4688C411.765 36.0326 410.132 36.7523 408.363 37.6349C403.486 40.0688 398.326 43.3543 393.088 47.6496C382.521 56.3143 373.03 67.8938 365.125 82.5886C363.716 80.5016 362.301 78.4061 360.765 76.3154C348.94 60.2168 335.932 47.6085 321.606 40.6731C318.684 39.2584 315.26 39.3163 312.379 40.8137C311.883 41.0718 311.148 41.4979 310.213 42.0796C308.78 42.9718 307.198 44.043 305.515 45.3147C300.828 48.8566 296.114 53.2778 291.59 58.6771C281.417 70.8197 273.879 86.0061 269.957 104.278C266.929 102.945 263.715 101.637 260.252 100.34C242.427 93.6616 222.471 89.0048 200.839 87.4835C191.607 86.8342 186.309 97.7464 192.512 104.616C192.537 104.643 192.644 104.815 192.878 105.094C193.321 105.624 193.868 106.268 194.481 107.063C196.299 109.421 198.352 112.343 200.614 115.84C207.194 126.013 213.934 138.706 220.418 154.07C239.138 198.43 251.82 255.192 255.076 325.502C255.306 330.464 259.043 334.544 263.965 335.207C264.017 335.214 268.21 335.8 269.929 336.051C274.856 336.771 280.622 337.656 287.174 338.696C305.919 341.67 327.188 345.345 350.582 349.751C417.439 362.344 487.832 378.262 558.443 397.799C564.413 399.451 570.472 395.491 571.355 389.36C571.375 389.227 571.426 388.885 571.524 388.319C571.698 387.317 571.916 386.111 572.199 384.718C573.025 380.667 574.147 375.952 575.603 370.596C579.8 355.165 585.851 337.919 594.086 319.313C617.704 265.949 654.107 212.532 706.02 162.678C709.821 159.028 710.247 153.105 707.004 148.95C706.366 148.132 705.355 147.007 703.966 145.715C701.833 143.731 699.296 141.796 696.314 140.005C692.754 137.865 688.771 136.086 684.387 134.744C670.422 130.47 654.015 131.249 635.354 138.036C635.27 135.387 635.203 132.765 634.932 129.934C633.166 111.5 627.602 93.9526 616.928 78.819C615.047 76.1518 612.005 74.5289 608.742 74.4587C608.681 74.4575 608.664 74.4598 608.573 74.4587C606.867 74.4401 604.389 74.5801 601.231 74.9932C596.376 75.6284 591.092 76.7927 585.534 78.594C574.32 82.2284 563.373 88.043 553.07 96.2604C552.091 92.4367 551.234 88.5883 550.088 84.8391C543.718 64.0004 536.564 49.9117 526.177 44.2458C524.303 43.2235 522.164 42.8116 520.044 43.0642C519.517 43.127 518.704 43.2581 517.653 43.4581C516.032 43.7665 514.227 44.1734 512.224 44.724C506.635 46.2597 500.606 48.5278 494.36 51.6724C481.922 57.9343 470.255 66.8376 459.9 78.6221C459.325 77.2803 458.825 75.9501 458.184 74.5994C450.32 58.0535 438.978 44.3199 423.385 35.5813C422.182 34.9073 420.874 34.4971 419.531 34.3436ZM417.449 56.089C426.875 62.5676 434.199 72.0055 439.617 83.4044C441.828 88.0563 443.54 92.7081 444.821 97.0762C445.264 98.5842 445.618 99.9246 445.89 101.099C446.042 101.754 446.145 102.164 446.171 102.309C447.845 111.504 459.908 113.902 464.935 106.022C475.828 88.9475 489.168 77.3158 503.615 70.0421C508.604 67.5309 513.334 65.7432 517.653 64.5565C517.984 64.4656 518.212 64.4399 518.525 64.3596C522.081 68.5682 526.539 78.1478 530.425 90.8592C532.285 96.9452 533.922 103.308 535.319 109.539C535.809 111.72 536.23 113.722 536.585 115.502C536.708 116.119 536.994 117.564 537.007 117.64C538.517 126.016 548.958 129.039 554.702 122.76C566.169 110.225 578.884 102.361 591.891 98.1452C595.886 96.8506 599.607 96.0559 603.031 95.5571C609.455 106.4 613.221 118.75 614.481 131.903C615.122 138.601 615.08 144.712 614.649 149.851C614.585 150.626 614.519 151.316 614.453 151.876C614.417 152.175 614.402 152.343 614.396 152.382C613.153 160.653 621.77 166.871 629.221 163.072C649.874 152.544 665.993 150.621 678.367 154.408C680.156 154.955 681.784 155.628 683.318 156.377C633.978 205.717 598.619 258.284 575.294 310.986C566.629 330.565 560.233 348.788 555.771 365.195C554.748 368.956 554.089 371.994 553.351 375.21C485.71 356.828 418.428 341.616 354.379 329.553C330.786 325.109 309.316 321.389 290.381 318.385C284.577 317.464 279.641 316.725 275.077 316.05C273.776 293.564 271.528 272.397 268.433 252.527C262.06 211.62 252.091 176.205 239.379 146.081C233.662 132.535 227.692 120.946 221.74 111.001C232.804 113.09 243.332 115.94 253.051 119.581C258.636 121.674 263.56 123.843 267.763 125.939C269.206 126.658 270.444 127.307 271.476 127.88C272.054 128.201 272.392 128.423 272.517 128.499C278.98 132.429 287.345 128.26 288.102 120.735C290.183 100.049 297.192 84.0158 307.344 71.8988C310.683 67.9131 314.123 64.6928 317.471 62.1091C326.593 67.8261 335.683 76.878 344.196 88.4681C347.803 93.3796 351.061 98.3683 353.873 103.125C354.852 104.78 355.686 106.278 356.405 107.598C356.651 108.049 357.201 109.079 357.22 109.117C361.254 117.064 372.795 116.454 375.984 108.132C383.792 87.7564 394.29 73.2618 406.141 63.5438C410.121 60.2795 413.944 57.8487 417.449 56.089Z" fill="black"/>
<path d="M578.38 540.691C578.38 540.691 621.946 512.359 639.453 516.941C656.961 521.522 692.917 542.141 697.647 571.359C702.377 600.576 643.817 721.717 552.047 664.795" fill="#F3886D"/>
<path d="M632.657 508.875C624.073 509.501 615.514 512.774 607.689 516.188C600.94 519.131 594.361 522.498 587.939 526.094C583.291 528.696 578.689 531.38 574.22 534.281C570.687 536.575 569.676 541.311 571.97 544.844C574.263 548.377 578.999 549.387 582.532 547.094C587.608 543.799 592.875 540.765 598.189 537.875C604.305 534.548 610.545 531.431 617.001 528.812C620.894 527.233 624.896 525.797 629.001 524.875C631.278 524.363 633.657 523.956 636.001 524.125C637.927 524.264 639.826 524.983 641.626 525.625C644.16 526.529 646.635 527.594 649.063 528.75C658.559 533.269 667.533 539.262 675.032 546.656C680.443 551.991 685.196 558.215 687.97 565.344C689.006 568.006 689.927 570.912 690.095 573.781C690.411 579.188 688.91 585.024 687.376 590.156C684.544 599.633 680.409 608.747 675.532 617.344C673.278 621.318 670.83 625.187 668.22 628.938C654.518 648.626 634.881 666.605 610.501 670.844C607.017 671.449 603.474 671.767 599.939 671.781C594.605 671.802 589.252 671.16 584.063 669.938C574.143 667.6 564.91 663.243 556.251 657.938C552.456 655.615 547.51 656.799 545.189 660.594C542.866 664.389 544.05 669.334 547.845 671.656C557.971 677.844 568.817 682.876 580.407 685.594C587.702 687.304 595.229 688.069 602.72 687.781C607.554 687.596 612.345 686.965 617.063 685.906C649.384 678.658 674.314 652.15 689.813 624.094C695.274 614.21 699.862 603.738 702.876 592.844C704.663 586.384 706.069 579.551 705.626 572.812C705.424 569.74 704.732 566.691 703.845 563.75C702.204 558.313 699.667 553.165 696.532 548.438C687.403 534.673 673.365 523.912 658.782 516.438C654.891 514.443 650.874 512.65 646.751 511.188C644.437 510.367 642.051 509.578 639.626 509.156C637.326 508.756 634.982 508.705 632.657 508.875Z" fill="black"/>
<path d="M698.65 570.778C599.776 575.819 559.989 624.236 543.957 664.146C640.009 720.835 701.664 602.621 698.65 570.778Z" fill="#F9B192"/>
<path d="M663.851 567.234C655.135 568.24 646.446 569.692 637.942 571.875C621.424 576.116 605.518 582.843 591.526 592.664C585.884 596.625 580.555 601.087 575.828 606.111C573.434 608.657 571.07 611.347 569.218 614.326C567.228 617.534 568.204 621.76 571.412 623.749C574.62 625.739 578.846 624.763 580.836 621.555C580.819 621.582 580.961 621.381 580.976 621.358C581.034 621.273 581.057 621.219 581.117 621.133C581.279 620.9 581.455 620.658 581.623 620.43C582.098 619.787 582.577 619.162 583.086 618.545C584.635 616.669 586.32 614.893 588.065 613.2C593.116 608.303 598.804 604.073 604.832 600.457C623.197 589.438 644.345 583.953 665.483 581.581C669.444 581.13 672.291 577.553 671.84 573.591C671.389 569.63 667.813 566.783 663.851 567.234Z" fill="black"/>
<path d="M617.604 583.466C613.864 583.978 611.241 587.433 611.753 591.174C612.417 596.122 613.036 601.073 613.666 606.027C614.232 610.477 614.839 614.948 615.804 619.333C616.682 623.222 620.551 625.668 624.44 624.79C628.329 623.912 630.748 620.043 629.869 616.154C629.047 612.624 628.533 609.003 627.9 605.436C626.948 600.07 626.068 594.714 625.312 589.317C624.8 585.577 621.344 582.953 617.604 583.466Z" fill="black"/>
<path d="M637.268 502.813C633.717 502.653 628.774 503.242 621.43 504.389C615.11 505.375 607.928 506.733 605.17 507.427L610.065 526.978C612.1 526.466 618.79 525.205 624.553 524.306C627.94 523.777 630.915 523.379 633.217 523.152C634.376 523.038 635.337 522.971 636.002 522.955C644.79 525.264 657.045 531.578 667.087 539.609C679.115 549.229 686.865 560.15 688.692 570.919C689.567 576.08 686.878 587.69 681.096 600.541C674.319 615.608 664.316 630.506 652.543 642.316C639.098 655.805 623.985 664.723 607.899 667.916C589.52 671.563 569.888 667.802 548.936 655.397L538.668 672.726C563.776 687.592 588.445 692.306 611.837 687.664C632.163 683.63 650.736 672.701 666.834 656.551C693.454 629.844 712.089 588.392 708.553 567.543C705.778 551.183 695.213 536.321 679.662 523.884C667.253 513.959 652.128 506.167 640.391 503.235C639.477 503.007 638.452 502.867 637.268 502.813Z" fill="black"/>
<path d="M632.515 509.621C627.193 510.003 621.881 511.594 616.93 513.334C608.586 516.268 600.579 520.133 592.793 524.306C586.623 527.612 580.525 531.125 574.649 534.939C571.469 537.004 570.559 541.239 572.623 544.419C574.688 547.6 578.951 548.51 582.132 546.445C588.156 542.534 594.432 538.987 600.783 535.642C606.982 532.378 613.33 529.284 619.912 526.865C623.257 525.637 626.647 524.532 630.152 523.855C632.204 523.459 634.362 523.165 636.453 523.377C638.667 523.602 640.974 524.566 643.036 525.346C646.628 526.706 650.114 528.319 653.501 530.129C665.5 536.539 677.326 545.638 684.698 557.247C686.966 560.818 688.774 564.671 689.903 568.753C690.351 570.376 690.759 572.045 690.859 573.732C690.996 576.053 690.743 578.419 690.381 580.709C689.863 583.984 689.079 587.21 688.13 590.386C685.283 599.921 681.104 609.083 676.203 617.729C673.937 621.725 671.483 625.605 668.86 629.376C655.037 649.248 635.226 667.378 610.629 671.657C607.086 672.273 603.505 672.555 599.911 672.585C594.531 672.631 589.136 671.933 583.904 670.701C573.901 668.344 564.561 663.954 555.829 658.604C552.413 656.514 547.961 657.607 545.871 661.023C543.78 664.439 544.846 668.892 548.262 670.982C558.315 677.126 569.077 682.096 580.585 684.794C587.811 686.489 595.247 687.273 602.668 686.989C607.453 686.805 612.231 686.151 616.902 685.104C648.993 677.908 673.752 651.569 689.143 623.721C694.852 613.392 699.629 602.394 702.59 590.948C704.103 585.097 705.266 578.93 704.868 572.86C704.694 570.197 704.125 567.548 703.406 564.983C701.89 559.577 699.482 554.459 696.457 549.736C687.447 535.665 673.148 524.681 658.424 517.132C654.134 514.933 649.693 512.975 645.118 511.45C642.735 510.655 640.339 509.927 637.832 509.677C636.065 509.501 634.289 509.494 632.515 509.621Z" fill="black"/>
<path d="M148.895 526.263C148.895 401.911 251.072 301.104 377.114 301.104C503.155 301.104 605.332 401.911 605.332 526.263C605.332 650.615 503.155 751.422 377.114 751.422C251.072 751.422 148.895 650.615 148.895 526.263Z" fill="#F3886D"/>
<path d="M438.858 343.056C393.741 343.056 348.414 373.772 325.827 412.934C312.514 378.843 278.402 356.053 247.031 356.053C207.015 356.053 155.408 432.56 155.408 482.924C155.408 511.175 174.281 524.823 197.914 531.366C195.484 539.796 194.032 548.553 194.032 557.613C194.032 618.904 257.97 712.363 339.414 698.128C413.3 685.214 438.858 615.64 438.858 554.35C438.858 550.595 438.631 546.902 438.239 543.266C496.085 538.721 541.2 501.723 541.2 445.848C541.2 386.119 502.409 343.056 438.858 343.056Z" fill="#F9B192"/>
<path d="M438.858 336.248C396.615 336.248 352.746 361.925 326.727 399.009C310.212 369.382 278.271 349.245 247.031 349.245C225.384 349.245 200.986 367.786 180.642 396.674C161.175 424.315 148.6 457.15 148.6 482.924C148.6 509.775 163.747 526.822 189.784 535.811C188.127 543.111 187.224 550.367 187.224 557.613C187.225 590.497 204.261 630.703 231.109 660.714C261.484 694.666 300.345 711.859 340.596 704.824C377.257 698.416 404.802 678.397 422.711 647.83C438.021 621.699 445.666 588.681 445.666 554.35C445.666 552.692 445.466 550.967 445.385 549.286C505.431 542.01 548.008 501.54 548.008 445.848C548.008 380.926 504.776 336.248 438.858 336.248ZM438.858 349.864C497.165 349.864 534.392 388.337 534.392 445.848C534.392 495.913 494.628 532.014 437.705 536.486C433.885 536.786 431.078 540.188 431.488 543.997C431.871 547.554 432.051 550.984 432.051 554.35C432.051 586.413 424.969 617.062 410.98 640.938C395.039 668.146 370.846 685.733 338.233 691.433C303.082 697.577 268.713 682.368 241.236 651.656C216.515 624.022 200.84 586.964 200.84 557.613C200.84 549.603 202.056 541.523 204.441 533.251C205.489 529.617 203.36 525.821 199.715 524.812C175.049 517.983 162.216 504.98 162.216 482.924C162.216 434.293 212.52 362.86 247.031 362.86C276.467 362.86 307.534 384.773 319.498 415.41C321.572 420.721 328.858 421.278 331.706 416.338C354.004 377.677 397.801 349.864 438.858 349.864Z" fill="black" fill-opacity="0.401653"/>
<path d="M377.11 294.305C247.334 294.305 142.102 398.147 142.102 526.275C142.102 654.402 247.334 758.217 377.11 758.217C506.886 758.217 612.119 654.402 612.119 526.275C612.119 398.147 506.886 294.305 377.11 294.305ZM377.11 307.892C499.418 307.892 598.531 405.698 598.531 526.275C598.531 646.851 499.418 744.629 377.11 744.629C254.803 744.629 155.69 646.851 155.689 526.275C155.689 405.698 254.803 307.892 377.11 307.892Z" fill="black"/>
<path d="M263.733 314.856C262.402 314.993 261.081 315.391 259.835 316.074C183.535 357.922 135.131 437.781 135.131 526.099C135.131 540.625 136.428 554.858 138.915 568.671C139.071 569.54 139.318 570.382 139.484 571.248C140.818 570.721 142.323 570.509 143.695 570.172C146.368 569.516 148.96 568.647 151.633 567.991C154.036 567.402 156.311 568.023 158.66 567.793C159.006 567.759 159.344 567.687 159.685 567.623C159.615 567.261 159.525 566.909 159.457 566.547C157 553.438 155.73 539.917 155.73 526.099C155.73 445.33 199.976 372.308 269.765 334.031C274.747 331.299 276.579 325.056 273.834 320.096C271.775 316.376 267.726 314.443 263.733 314.856ZM560.97 377.538C558.36 377.186 555.612 377.81 553.345 379.52C548.811 382.941 547.918 389.367 551.353 393.881C580.11 431.659 595.937 477.674 595.938 526.099C595.938 647.117 497.396 745.217 375.834 745.217C311.221 745.217 253.155 717.469 212.89 673.33C211.013 675.387 208.775 677.108 205.862 678.003C201.335 679.394 196.09 679.489 191.323 679.873C191.931 680.594 192.471 681.368 193.087 682.082C237.232 733.288 302.733 765.724 375.834 765.724C508.773 765.724 616.537 658.443 616.537 526.099C616.537 473.163 599.218 422.787 567.77 381.475C566.052 379.218 563.58 377.89 560.97 377.538Z" fill="black"/>
<path d="M413.392 516.613C414.934 504.473 434.918 496.722 458.028 499.301C481.137 501.879 498.621 513.81 497.078 525.95C495.536 538.089 475.552 545.84 452.442 543.261C429.333 540.683 411.849 528.752 413.392 516.613Z" fill="#FF497F"/>
<path d="M132.731 519.269C131.596 507.085 149.416 495.173 172.533 492.663C195.649 490.152 215.31 497.995 216.445 510.179C217.58 522.363 199.76 534.275 176.643 536.785C153.526 539.295 133.866 531.453 132.731 519.269Z" fill="#FF497F"/>
<path d="M181.457 486.075C178.329 486.062 175.121 486.228 171.864 486.582C145.86 489.405 125.087 503.287 126.629 519.833C128.181 536.496 151.233 545.702 177.293 542.872C203.296 540.049 224.07 526.167 222.528 509.621C221.17 495.04 203.347 486.167 181.457 486.075ZM180.556 498.312C197.196 498.192 209.719 504.005 210.347 510.746C211.076 518.569 196.202 528.523 175.971 530.719C155.797 532.91 139.527 526.412 138.81 518.707C138.081 510.885 152.955 500.931 173.186 498.734C175.708 498.46 178.179 498.329 180.556 498.312Z" fill="black"/>
<path d="M449.126 492.686C427.225 492.697 409.156 501.414 407.323 515.838C405.214 532.441 425.72 546.436 451.771 549.342C477.765 552.243 501.044 543.21 503.138 526.725C505.248 510.122 484.77 496.127 458.719 493.221C455.47 492.858 452.255 492.684 449.126 492.686ZM449.942 504.923C452.336 504.947 454.813 505.091 457.341 505.373C477.508 507.623 491.989 517.501 491.014 525.178C490.023 532.971 473.345 539.446 453.121 537.19C432.953 534.94 418.473 525.062 419.448 517.385C420.314 510.566 433.188 504.756 449.942 504.923Z" fill="black"/>
<path d="M441.224 399.603C434.045 399.603 428.818 405.937 428.818 413.191C428.818 420.443 434.045 426.807 441.224 426.806C448.402 426.806 453.658 420.443 453.658 413.191C453.658 405.938 448.402 399.604 441.224 399.603ZM441.224 413.134C441.291 413.134 441.301 413.185 441.364 413.191C441.301 413.196 441.291 413.247 441.224 413.247C441.157 413.247 441.147 413.196 441.083 413.191C441.147 413.185 441.157 413.134 441.224 413.134Z" fill="black"/>
<path d="M234.826 402.698C227.648 402.698 222.42 409.032 222.42 416.285C222.42 423.538 227.648 429.901 234.826 429.901C242.004 429.901 247.26 423.538 247.26 416.285C247.26 409.032 242.004 402.698 234.826 402.698ZM234.826 416.229C234.893 416.229 234.903 416.28 234.967 416.285C234.903 416.291 234.893 416.341 234.826 416.341C234.758 416.341 234.75 416.291 234.685 416.285C234.75 416.28 234.758 416.229 234.826 416.229Z" fill="black"/>
<path d="M353.342 507.29C351.608 507.507 349.942 508.389 348.785 509.878C348.885 509.749 348.972 509.653 349.038 509.596C349.038 509.596 349.019 509.613 348.953 509.653C348.68 509.82 348.237 510.033 347.659 510.243C346.262 510.751 344.3 511.216 341.864 511.594C337.183 512.319 331.03 512.695 323.832 512.775C316.856 512.853 309.367 512.64 301.918 512.241C299.681 512.121 297.595 512.002 295.757 511.875C295.117 511.831 293.6 511.714 293.507 511.706C289.748 511.399 286.444 514.193 286.136 517.951C285.829 521.71 288.623 525.015 292.381 525.322C292.5 525.332 294.158 525.443 294.829 525.491C296.737 525.623 298.874 525.761 301.187 525.884C308.906 526.297 316.695 526.5 324.001 526.419C343.215 526.205 354.76 524.431 359.559 518.261C361.874 515.284 361.354 510.983 358.377 508.668C356.889 507.51 355.076 507.073 353.342 507.29Z" fill="black"/>
<path d="M353.792 491.452C350.026 491.657 347.145 494.859 347.35 498.625C347.37 498.996 347.433 499.611 347.519 500.398C347.656 501.654 347.839 503.018 348.109 504.505C348.883 508.763 350.085 513.055 351.851 517.107C356.188 527.059 363.202 534.172 373.371 536.518C377.046 537.366 380.709 535.073 381.557 531.398C382.405 527.723 380.112 524.06 376.438 523.212C371.063 521.972 367.159 517.986 364.397 511.65C363.093 508.656 362.154 505.376 361.556 502.085C361.346 500.929 361.181 499.853 361.078 498.907C361.02 498.373 361.001 498.026 360.994 497.894C360.788 494.128 357.558 491.247 353.792 491.452Z" fill="black"/>
<path opacity="0.196343" d="M246.24 715.291C246.24 715.291 503.616 715.195 589.884 440.444L607.256 517.616C607.256 517.616 572.942 587.262 600.607 593.842L655.232 577.259L688.884 592.769L669.653 646.367L634.89 673.869L588.412 680.304L554.242 671.211L507.606 719.616L413.706 756.506L340.863 754.105L290.907 735.913L246.24 715.291Z" fill="black"/>
<path opacity="0.196343" d="M128.82 659.041L170.087 630.799L205.959 682.228L128.82 659.041Z" fill="black"/>
</svg>
