<svg width="800" height="800" viewBox="0 0 800 800" fill="none" xmlns="http://www.w3.org/2000/svg">
<path d="M141.507 493.772C141.507 493.772 115.635 474.379 97.979 496.152C80.3228 517.925 72.3343 573.051 158.064 603.305" fill="#F3886D"/>
<path d="M141.507 493.772C141.507 493.772 115.635 474.379 97.979 496.152C80.3228 517.925 72.3343 573.051 158.064 603.305" stroke="black" stroke-width="0.01875" stroke-miterlimit="10" stroke-linejoin="round"/>
<path d="M87.9193 517.618C82.1372 543.738 93.6128 580.555 158.078 603.305L149.667 547.774C123.887 528.332 98.0447 520.271 87.9193 517.618Z" fill="#F9B192"/>
<path d="M141.507 493.772C141.507 493.772 115.635 474.379 97.979 496.152C80.3228 517.925 72.3343 573.051 158.064 603.305" stroke="black" stroke-width="0.01875" stroke-miterlimit="10" stroke-linejoin="round"/>
<path d="M116.838 479.078C114.518 479.208 112.189 479.593 109.889 480.231C103.412 482.028 97.6025 485.896 92.7292 491.906C80.9846 506.389 76.2597 528.162 82.827 548.618C90.9785 574.01 115.012 595.259 155.828 609.663L160.301 596.948C123.174 583.845 102.414 565.45 95.683 544.483C90.5561 528.513 94.2622 511.451 103.222 500.401C106.347 496.548 109.779 494.265 113.518 493.228C119.06 491.691 125.406 492.875 131.775 495.9C133.356 496.651 134.783 497.438 136.051 498.235C136.778 498.692 137.269 499.022 137.458 499.164L145.56 488.361C145.086 488.006 144.307 487.476 143.253 486.814C141.555 485.747 139.654 484.681 137.571 483.691C130.796 480.473 123.796 478.688 116.838 479.078Z" fill="black"/>
<path d="M138.666 539.209L113.932 527.135" stroke="black" stroke-width="0.01875" stroke-miterlimit="10" stroke-linecap="round" stroke-linejoin="round"/>
<path d="M114.306 520.403C111.679 520.261 109.091 521.659 107.864 524.172C106.228 527.523 107.608 531.567 110.958 533.202L135.714 545.271C139.065 546.906 143.108 545.527 144.744 542.176C146.38 538.825 144.972 534.782 141.621 533.146L116.894 521.078C116.056 520.669 115.182 520.45 114.306 520.403Z" fill="black"/>
<path d="M506.033 59.9507L503.867 92.808C497.093 91.7565 490.367 90.8727 483.697 90.1355L494.865 138.24C526.988 141.499 560.195 147.731 594.112 157.988C594.112 157.988 595.914 158.059 596.11 158.072C587.982 132.707 579.396 106.856 570.313 80.5709C548.305 71.9029 526.897 65.1565 506.033 59.9507Z" fill="#B7F2CC"/>
<path d="M408.7 46.6163C394.834 46.2972 381.283 46.6747 368.079 47.6853L364.844 91.7388C357.183 92.7701 349.667 93.9672 342.254 95.2833L350.019 142.656C394.268 135.613 443.131 132.99 494.866 138.24L483.698 90.1353C477.747 89.4776 471.84 88.9362 465.976 88.5037L451.263 49.7388C436.75 47.9511 422.567 46.9353 408.7 46.6163Z" fill="#93E9CA"/>
<path d="M184.381 106.001C160.081 119.996 138.133 135.211 118.92 150.421C118.92 150.421 120.298 180.144 122.577 225.531C122.577 225.531 161.227 200.648 223.089 176.977C222.627 171.854 219.404 136.693 219.404 136.693L218.982 132.923C210.724 136.512 202.754 140.131 195.408 143.725L184.381 106.001Z" fill="#DFFFEA"/>
<path d="M560.439 149.155C563.546 157.382 572.323 190.338 583.873 235.686C595.283 237.426 606.734 239.369 618.277 241.791L622.019 242.691C613.945 215.241 605.468 187.274 596.25 158.494L594.112 157.988C582.802 154.568 571.581 151.733 560.439 149.155Z" fill="#93E9CA"/>
<path d="M449.547 135.483C443.234 135.376 436.985 135.405 430.783 135.511L429.602 137.452C432.076 145.128 439.703 181.148 449.406 228.879C492.197 226.882 537.41 228.604 583.874 235.686C572.324 190.338 563.547 157.382 560.44 149.155C522.186 140.303 485.004 136.083 449.547 135.483Z" fill="#DFFFEA"/>
<path d="M425.184 135.68C374.674 137.057 328.166 145.158 287.51 156.019C290.752 181.636 293.593 204.261 299.578 250.68C343.931 239.965 394.632 231.434 449.405 228.879C439.702 181.148 432.075 145.128 429.601 137.452L425.184 135.68Z" fill="#93E9CA"/>
<path d="M304.135 57.6436C280.446 63.2971 258.265 70.9963 237.295 79.811L235.213 126.087C229.361 128.428 223.817 130.814 218.334 133.204L219.36 136.552C219.384 136.63 219.409 136.758 219.417 136.839L223.088 176.977C258.328 163.492 301.189 150.429 350.017 142.656L342.252 95.2832C334.121 96.7271 326.12 98.3184 318.341 100.094L304.135 57.6436Z" fill="#B7F2CC"/>
<path d="M287.51 156.019C231.106 171.087 186.373 191.258 157.881 206.064C159.414 236.985 160.926 267.641 162.467 296.225C192.816 283.064 240.385 264.981 299.578 250.68C293.593 204.261 290.752 181.636 287.51 156.019Z" fill="#82D4D5"/>
<path d="M157.88 206.064C145.247 212.629 135.447 218.217 129.777 221.677C129.034 222.131 124.875 225.181 122.66 226.741C123.822 249.865 125.651 283.455 127.217 313.132C127.752 312.787 129.15 311.775 129.411 311.641C134.861 308.84 146.363 303.207 162.466 296.225C160.925 267.641 159.413 236.985 157.88 206.064Z" fill="#93E9CA"/>
<path d="M231.614 270.007C177.677 287.793 140.829 305.774 129.413 311.641C129.152 311.775 127.754 312.787 127.219 313.132C128.96 346.121 130.482 375.145 132.564 411.788C156.902 402.959 192.947 390.857 241.488 377.805C236.632 325.172 235.057 307.838 231.614 270.007Z" fill="#B7F2CC"/>
<path d="M365.574 237.431C314.41 245.481 268.947 257.695 231.613 270.007C235.056 307.838 236.631 325.172 241.487 377.805C282.241 366.848 330.298 355.881 383.55 346.889L365.574 237.431Z" fill="#DFFFEA"/>
<path d="M486.088 228.063C443.619 227.872 403.099 231.526 365.574 237.431L383.55 346.889C431.801 338.741 484.03 332.255 539.285 329.251L515.964 228.907C505.923 228.428 495.934 228.107 486.088 228.063Z" fill="#B7F2CC"/>
<path d="M515.965 228.907L539.286 329.251C573.904 327.369 609.58 326.805 645.959 328.013C638.528 300.364 630.652 272.041 622.02 242.691L618.278 241.791C583.477 234.49 549.238 230.492 515.965 228.907Z" fill="#93E9CA"/>
<path d="M613.243 327.338C610.146 327.322 607.1 327.387 604.016 327.394L632.597 450.243C646.832 448.265 660.988 446.292 675.441 444.336C666.792 407.766 656.917 368.782 645.959 328.013C634.999 327.649 624.067 327.395 613.243 327.338Z" fill="#B7F2CC"/>
<path d="M604.014 327.394C557.807 327.507 513.014 330.234 470.418 334.765C480.208 384.385 486.938 418.246 496.918 469.738C540.273 463.261 585.79 456.748 632.595 450.243L604.014 327.394Z" fill="#82D4D5"/>
<path d="M470.419 334.765C413.6 340.809 360.745 349.978 313.756 360.195C321.019 416.286 324.148 440.515 331.282 495.45C381.131 487.428 436.399 478.78 496.919 469.738C486.939 418.246 480.209 384.385 470.419 334.765Z" fill="#B7F2CC"/>
<path d="M313.755 360.195C254.6 373.058 204.896 387.509 168.289 399.438C170.97 444.816 173.489 484.523 175.912 521.275C213.793 514.743 265.88 505.976 331.281 495.45C324.147 440.515 321.018 416.286 313.755 360.195Z" fill="#82D4D5"/>
<path d="M168.29 399.438C153.321 404.316 142.847 408.057 132.562 411.788C134.789 450.975 137.146 489.719 139.568 527.548C149.678 525.758 157.023 524.532 175.913 521.275C173.49 484.523 170.971 444.816 168.29 399.438Z" fill="#93E9CA"/>
<path d="M253.724 508.166C197.635 517.513 160.619 523.821 139.568 527.548C141.891 563.838 144.226 597.027 146.544 626.908C171.178 631.072 212.728 636.431 266.074 637.457C262.459 600.953 258.003 553.401 253.724 508.166Z" fill="#93E9CA"/>
<path d="M406 483.607C346.078 492.944 298.182 500.785 253.725 508.194C258.003 553.419 262.461 600.961 266.075 637.457C313.07 638.36 368.672 635.853 429.321 625.754L406 483.607Z" fill="#C3C4E1"/>
<path d="M569.468 459.077C511.43 467.433 456.772 475.695 405.998 483.607L429.319 625.754C482.542 616.891 539.453 602.11 597.346 578.972L569.468 459.077Z" fill="#93E9CA"/>
<path d="M675.44 444.336C639.371 449.217 603.964 454.11 569.469 459.077L597.347 578.972C629.786 566.008 662.509 550.458 695.075 531.683C689.184 504.19 682.743 475.216 675.44 444.336Z" fill="#DFFFEA"/>
<path d="M695.075 531.683C682.187 539.113 669.281 545.997 656.367 552.472L675.777 635.938C687.267 625.639 698.619 614.509 709.788 602.49C705.438 580.628 700.418 556.613 695.075 531.683Z" fill="#93E9CA"/>
<path d="M656.368 552.472C611.419 575.009 566.525 591.972 522.885 604.543C530.026 641.806 544.799 718.369 544.884 718.812C589.008 700.594 633.341 673.978 675.778 635.938L656.368 552.472Z" fill="#B7F2CC"/>
<path d="M522.857 604.543C461.299 622.273 402.355 631.382 349.428 635.263C353.887 669.533 364.422 750.544 364.422 750.544L366.447 753.442C421.643 753.268 483.042 744.346 544.884 718.812C544.799 718.369 529.998 641.809 522.857 604.543Z" fill="#82D4D5"/>
<path d="M183.678 632.056C187.748 687.119 190.804 725.245 190.851 725.789C228.25 737.878 291.346 753.679 366.446 753.442L364.421 750.544C364.421 750.544 353.886 669.533 349.427 635.263C281.539 640.24 224.128 636.721 183.678 632.056Z" fill="#B7F2CC"/>
<path d="M146.543 626.908C149.293 662.344 151.98 693.741 154.448 712.398C154.448 712.398 168.025 718.411 190.85 725.789C190.803 725.245 187.747 687.119 183.677 632.056C168.778 630.337 156.339 628.563 146.543 626.908Z" fill="#DFFFEA"/>
<path d="M504.683 53.3395C501.819 53.9293 499.518 56.3503 499.31 59.5003L497.622 85.156C493.242 84.5474 488.868 83.9024 484.429 83.4118C479.802 82.9005 476.062 87.1198 477.115 91.6543L488.283 139.759C488.936 142.572 491.318 144.672 494.19 144.963C527.377 148.331 560.003 154.73 592.171 164.458C592.72 164.624 593.287 164.717 593.859 164.739C593.921 164.742 595.679 164.797 595.66 164.796C600.42 165.123 604.008 160.563 602.552 156.019C594.228 130.04 585.613 104.172 576.699 78.3763C576.055 76.5119 574.624 75.0202 572.789 74.2973C551.116 65.7613 529.463 58.8349 507.665 53.3958C506.644 53.1411 505.638 53.1429 504.683 53.3395ZM512.222 68.5867C529.843 73.2857 547.385 78.9519 564.94 85.7467C572.152 106.679 579.133 127.68 585.954 148.733C557.787 140.827 529.289 135.326 500.379 132.135L492.474 98.1245C495.928 98.5786 499.409 98.9443 502.827 99.4748C506.743 100.083 510.33 97.2125 510.591 93.2578L512.222 68.5867Z" fill="#626262"/>
<path d="M408.868 39.8647C394.936 39.5441 381.157 39.9221 367.572 40.9618C364.241 41.2167 361.599 43.8478 361.355 47.1788L358.513 85.8874C352.774 86.7222 347.046 87.5835 341.072 88.6442C337.435 89.29 334.989 92.7351 335.586 96.3803L343.351 143.754C343.952 147.421 347.416 149.908 351.087 149.324C398.224 141.82 446.127 140.086 494.19 144.963C498.796 145.431 502.495 141.23 501.448 136.721L490.28 88.6161C489.632 85.8251 487.277 83.7266 484.429 83.4118C479.88 82.9092 475.341 82.5499 470.785 82.1741L457.563 47.3476C456.675 45.0059 454.564 43.3497 452.078 43.0435C437.527 41.2511 423.145 40.1932 408.868 39.8647ZM408.531 53.3677C421.048 53.6557 433.708 54.5906 446.452 56.0401L459.673 90.8947C460.604 93.3478 462.852 95.034 465.468 95.227C469.717 95.5403 473.971 95.9825 478.212 96.4085L486.201 130.729C442.341 127.037 398.669 128.674 355.616 135.033L350.018 100.882C355.309 100.005 360.616 99.1241 365.743 98.4339C368.908 98.0078 371.332 95.4301 371.566 92.245L374.379 54.1272C385.648 53.4306 397.013 53.1027 408.531 53.3677Z" fill="#626262"/>
<path d="M305.092 50.9483C304.272 50.8306 303.411 50.886 302.56 51.0889C279.824 56.5151 257.492 64.0047 234.68 73.5939C232.275 74.6045 230.661 76.8962 230.544 79.5015L228.659 121.53C224.726 123.146 221.011 124.672 215.635 127.015C212.488 128.387 210.888 131.892 211.893 135.174L212.737 137.93L216.366 177.595C216.774 182.051 221.33 184.877 225.509 183.278C265.65 167.918 307.342 156.287 351.087 149.324C354.781 148.735 357.29 145.251 356.685 141.559L348.921 94.186C348.312 90.4718 344.778 87.9861 341.072 88.6441C334.662 89.7822 328.773 91.0369 322.871 92.3012C319.91 83.4532 310.934 56.6555 310.55 55.5055C309.717 53.0183 307.552 51.3012 305.092 50.9483ZM299.719 65.7734C302.78 74.9215 311.547 101.092 311.928 102.232C313.03 105.524 316.449 107.449 319.833 106.677C325.141 105.465 330.951 104.37 336.712 103.273L342.282 137.143C302.993 143.845 265.389 154.335 229.025 167.721L226.212 137.199C230.219 135.481 234.265 133.741 237.718 132.36C240.179 131.376 241.846 129.044 241.966 126.397L243.85 84.4526C262.625 76.7475 281.092 70.5418 299.719 65.7734Z" fill="#626262"/>
<path d="M183.986 99.2498C182.981 99.3092 181.952 99.6044 181.004 100.15C157.544 113.662 135.295 128.85 114.727 145.132C113.023 146.481 112.066 148.559 112.167 150.73C112.17 150.789 114.827 206.007 115.824 225.869C116.084 231.054 121.867 234.024 126.233 231.214C126.284 231.18 127.3 230.536 127.752 230.257C129.055 229.451 130.601 228.504 132.393 227.444C137.54 224.4 143.586 221.01 150.454 217.345C170.114 206.853 192.473 196.343 217.125 186.541C219.901 185.437 222.697 184.353 225.508 183.278C228.33 182.198 230.084 179.367 229.812 176.358C229.623 174.265 226.127 135.933 226.127 135.933L225.705 132.163C225.199 127.649 220.447 124.924 216.281 126.734C210.086 129.426 204.964 131.851 199.683 134.33C196.855 124.653 191.126 105.061 190.85 104.117C189.93 100.968 187.002 99.0718 183.986 99.2498ZM180.357 116.297C183.315 126.417 188.669 144.694 188.937 145.61C190.112 149.629 194.6 151.642 198.361 149.802C202.723 147.667 208.093 145.29 213.186 142.994C213.821 149.925 215.251 165.257 215.915 172.532C214.657 173.024 213.397 173.497 212.145 173.995C187.006 183.991 164.184 194.725 144.096 205.445C138.29 208.544 133.429 211.307 128.793 213.997C127.67 191.182 126.033 157.665 125.839 153.628C142.937 140.271 161.218 127.744 180.357 116.297Z" fill="#626262"/>
<path d="M449.657 128.731C443.637 128.63 437.425 128.644 430.669 128.76C428.354 128.799 426.218 130.017 425.015 131.995L423.833 133.936C422.813 135.612 422.584 137.666 423.186 139.534C425.35 146.247 432.127 177.76 442.793 230.229C443.457 233.491 446.388 235.785 449.714 235.63C494.325 233.549 538.87 235.649 582.859 242.354C587.638 243.082 591.619 238.712 590.426 234.027C577.861 184.687 569.825 154.86 566.768 146.764C565.971 144.653 564.156 143.081 561.957 142.572C524.469 133.897 486.895 129.361 449.657 128.731ZM449.432 142.234C484.502 142.828 519.883 147.069 555.206 154.978C558.284 164.38 565.162 190.097 574.813 227.753C535.099 222.326 495.023 220.433 454.862 221.987C446.612 181.53 440.858 154.472 437.814 142.263C441.732 142.239 445.762 142.172 449.432 142.234Z" fill="#626262"/>
<path d="M560.044 142.403C555.691 142.64 552.442 147.131 554.109 151.546C556.893 158.92 564.969 188.859 577.317 237.346C577.986 239.974 580.179 241.945 582.859 242.354C595.588 244.294 606.455 246.211 616.898 248.402L620.442 249.246C625.491 250.46 629.953 245.76 628.488 240.778C619.594 210.539 611.269 183.223 602.691 156.441C601.97 154.187 600.099 152.457 597.797 151.912L595.659 151.405C585.27 148.275 574.512 145.477 561.957 142.572C561.301 142.42 560.666 142.369 560.044 142.403ZM570.453 158.551C577.633 160.346 584.484 162.165 590.933 164.092C598.019 186.311 605.018 209.289 612.284 233.774C605.094 232.376 597.521 231.045 589.301 229.751C580.848 196.648 574.42 172.223 570.453 158.551Z" fill="#626262"/>
<path d="M449.657 128.731C443.637 128.63 437.425 128.644 430.669 128.76C428.354 128.799 426.218 130.017 425.015 131.995L423.833 133.936C422.813 135.612 422.584 137.666 423.186 139.534C425.35 146.247 432.127 177.76 442.793 230.229C443.457 233.491 446.388 235.785 449.714 235.63C494.325 233.549 538.87 235.649 582.859 242.354C587.638 243.082 591.619 238.712 590.426 234.027C577.861 184.687 569.825 154.86 566.768 146.764C565.971 144.653 564.156 143.081 561.957 142.572C524.469 133.897 486.895 129.361 449.657 128.731ZM449.432 142.234C484.502 142.828 519.883 147.069 555.206 154.978C558.284 164.38 565.162 190.097 574.813 227.753C535.099 222.326 495.023 220.433 454.862 221.987C446.612 181.53 440.858 154.472 437.814 142.263C441.732 142.239 445.762 142.172 449.432 142.234Z" fill="#626262"/>
<path d="M424.986 128.928C377.543 130.222 330.989 137.411 285.765 149.492C282.502 150.364 280.39 153.512 280.814 156.863C281.133 159.383 288.511 217.652 292.882 251.552C293.396 255.538 297.246 258.179 301.153 257.235C349.876 245.464 399.509 237.972 449.714 235.63C453.851 235.437 456.84 231.587 456.015 227.528C445.136 174.012 438.42 142.834 436.014 135.37C435.398 133.46 433.966 131.926 432.104 131.179C431.552 130.957 428.239 129.628 427.687 129.407C426.83 129.063 425.909 128.903 424.986 128.928ZM423.889 142.488C426.236 150.737 432.184 178.364 441.218 222.605C395.32 225.233 349.966 232.147 305.344 242.522C301.238 210.552 295.966 169.021 294.964 161.111C336.939 150.315 380.042 143.801 423.889 142.488Z" fill="#626262"/>
<path d="M305.092 50.9483C304.272 50.8306 303.411 50.886 302.56 51.0889C279.824 56.5151 257.492 64.0047 234.68 73.5939C232.275 74.6045 230.661 76.8962 230.544 79.5015L228.659 121.53C224.726 123.146 221.011 124.672 215.635 127.015C212.488 128.387 210.888 131.892 211.893 135.174L212.737 137.93L216.366 177.595C216.774 182.051 221.33 184.877 225.509 183.278C265.65 167.918 307.342 156.287 351.087 149.324C354.781 148.735 357.29 145.251 356.685 141.559L348.921 94.186C348.312 90.4718 344.778 87.9861 341.072 88.6441C334.662 89.7822 328.773 91.0369 322.871 92.3012C319.91 83.4532 310.934 56.6555 310.55 55.5055C309.717 53.0183 307.552 51.3012 305.092 50.9483ZM299.719 65.7734C302.78 74.9215 311.547 101.092 311.928 102.232C313.03 105.524 316.449 107.449 319.833 106.677C325.141 105.465 330.951 104.37 336.712 103.273L342.282 137.143C302.993 143.845 265.389 154.335 229.025 167.721L226.212 137.199C230.219 135.481 234.265 133.741 237.718 132.36C240.179 131.376 241.846 129.044 241.966 126.397L243.85 84.4526C262.625 76.7475 281.092 70.5418 299.719 65.7734Z" fill="#626262"/>
<path d="M288.691 149.38C287.754 149.214 286.753 149.228 285.765 149.492C236.81 162.57 192.881 180.26 154.758 200.072C152.415 201.29 150.998 203.765 151.129 206.402C152.427 232.598 154.904 281.56 155.714 296.591C155.967 301.288 160.822 304.285 165.138 302.414C204.655 285.278 250.587 269.451 301.153 257.235C304.501 256.426 306.713 253.225 306.273 249.808C301.903 215.921 294.523 157.696 294.204 155.175C293.819 152.131 291.5 149.876 288.691 149.38ZM281.798 164.655C283.007 174.195 288.096 214.343 292.123 245.673C246.766 256.962 205.307 271.057 168.739 286.379C167.785 268.184 166.047 234.097 164.857 210.171C199.302 192.579 238.44 176.792 281.798 164.655Z" fill="#626262"/>
<path d="M158.106 199.313C156.997 199.273 155.85 199.505 154.759 200.072C143.328 206.012 133.107 211.732 126.262 215.91C125.633 216.294 125.103 216.685 121.648 219.173C121.64 219.179 119.436 220.764 118.779 221.227C116.885 222.561 115.793 224.765 115.909 227.078C116.591 240.638 120.095 306.463 120.467 313.497C120.74 318.675 126.516 321.621 130.875 318.814C131.171 318.624 131.413 318.439 132.085 317.97C132.085 317.97 132.515 317.669 132.732 317.52C140.447 313.563 151.845 308.178 165.139 302.414C167.729 301.291 169.37 298.678 169.218 295.859C168.409 280.847 165.931 231.92 164.633 205.727C164.45 202.042 161.435 199.433 158.106 199.313ZM151.664 217.064C152.942 242.637 154.682 276.732 155.49 291.977C146.989 295.728 139.66 299.133 133.407 302.189C132.531 285.681 130.368 244.898 129.609 230.06C131.333 228.825 133.213 227.494 133.295 227.444C137.893 224.637 144.486 220.948 151.664 217.064Z" fill="#626262"/>
<path d="M232.569 263.311C231.577 263.169 230.534 263.252 229.502 263.593C186.24 277.859 150.847 293.043 126.317 305.649C125.894 305.866 125.674 306.004 125.164 306.352C124.96 306.491 123.65 307.391 123.56 307.449C121.524 308.761 120.338 311.079 120.466 313.497C120.538 314.86 124.578 390.494 125.811 412.182C126.067 416.696 130.618 419.688 134.869 418.146C166.203 406.779 201.446 395.567 243.23 384.332C246.404 383.479 248.512 380.459 248.21 377.187C245.309 345.747 240.443 292.543 238.336 269.388C238.04 266.143 235.542 263.737 232.569 263.311ZM225.677 279.234C227.862 303.218 231.571 343.685 234.257 372.826C198.179 382.662 166.94 392.5 138.835 402.448C137.372 376.056 134.529 323.107 134.194 316.817C156.454 305.492 187.793 292.132 225.677 279.234Z" fill="#626262"/>
<path d="M364.532 230.763C317.676 238.136 272.567 249.391 229.502 263.593C226.519 264.576 224.604 267.497 224.889 270.625C226.996 293.784 231.862 346.981 234.763 378.424C235.148 382.594 239.187 385.419 243.23 384.332C287.685 372.379 335.327 361.889 384.674 353.556C388.339 352.937 390.818 349.46 390.216 345.792C390.076 344.937 372.381 237.189 372.24 236.333C371.639 232.671 368.198 230.187 364.532 230.763ZM360.003 245.279C361.911 256.897 373.954 330.11 375.813 341.432C331.213 349.161 288.119 358.62 247.478 369.31C244.707 339.216 240.923 297.686 238.842 274.845C277.652 262.306 318.113 252.229 360.003 245.279Z" fill="#626262"/>
<path d="M486.116 221.311C445.484 221.129 404.873 224.416 364.532 230.763C360.831 231.346 358.299 234.831 358.906 238.528L376.882 347.986C377.488 351.678 380.986 354.179 384.674 353.556C436.729 344.766 488.129 338.804 539.649 336.002C543.839 335.775 546.816 331.819 545.866 327.732L522.546 227.388C521.862 224.446 519.289 222.299 516.272 222.155C505.342 221.635 495.472 221.353 486.116 221.311ZM486.059 234.814C493.632 234.848 501.951 235.159 510.562 235.518L530.9 323.062C483.752 325.922 436.673 331.364 389.119 339.181L373.366 243.169C410.793 237.608 448.434 234.645 486.059 234.814Z" fill="#626262"/>
<path d="M516.272 222.155C511.798 221.942 508.366 226.063 509.38 230.426L532.701 330.77C533.443 333.963 536.376 336.18 539.649 336.002C575.423 334.057 610.78 333.604 645.732 334.765C650.264 334.915 653.661 330.648 652.484 326.269C644.399 296.192 636.583 268.303 628.488 240.778C627.806 238.461 625.942 236.702 623.593 236.137L619.655 235.18C585.856 228.089 551.441 223.831 516.272 222.155ZM524.599 236.249C555.853 238.145 586.506 242.044 616.616 248.345C623.491 271.824 630.192 295.786 637.04 321.065C606.523 320.293 575.712 320.69 544.6 322.246L524.599 236.249Z" fill="#626262"/>
<path d="M613.269 320.587C611.743 320.578 607.83 320.614 607.755 320.615C605.867 320.634 605.027 320.64 603.985 320.643C599.645 320.653 596.447 324.686 597.431 328.913L626.012 451.762C626.804 455.164 630.064 457.419 633.523 456.939C634.54 456.797 666.523 452.359 676.339 451.031C680.292 450.496 682.94 446.671 682.022 442.789C673.328 406.03 663.423 366.97 652.484 326.269C651.713 323.4 649.151 321.36 646.182 321.262C634.278 320.866 623.5 320.641 613.269 320.587ZM612.509 334.09C612.676 334.089 613.102 334.089 613.213 334.09C621.754 334.135 631.039 334.364 640.725 334.652C650.41 370.851 659.194 405.637 667.084 438.681C656.185 440.177 643.765 441.874 637.771 442.704L612.509 334.09Z" fill="#626262"/>
<path d="M603.985 320.643C559.308 320.751 514.462 323.282 469.715 328.041C465.772 328.461 463.04 332.169 463.807 336.059C464.085 337.466 485.564 446.708 490.279 471.032C490.967 474.582 494.327 476.94 497.903 476.405C539.487 470.193 584.493 463.753 633.523 456.939C637.455 456.392 640.077 452.591 639.178 448.724C638.954 447.765 610.82 326.835 610.596 325.875C609.884 322.812 607.131 320.635 603.985 320.643ZM598.669 334.23C600.946 344.018 621.395 431.879 624.352 444.589C580.621 450.687 540.04 456.53 502.319 462.143C496.742 433.509 480.681 352.047 478.464 340.785C518.529 336.744 558.683 334.503 598.669 334.23Z" fill="#626262"/>
<path d="M469.715 328.041C416.395 333.713 363.753 342.401 312.321 353.584C308.895 354.329 306.61 357.591 307.06 361.067C308.283 370.514 321.337 471.304 324.586 496.322C325.077 500.1 328.589 502.723 332.35 502.117C386.893 493.339 441.563 484.823 497.903 476.405C501.703 475.838 504.288 472.217 503.557 468.444C498.84 444.106 477.306 334.875 477.029 333.471C476.352 330.04 473.192 327.671 469.715 328.041ZM465.017 342.219C466.947 352.019 483.211 434.791 488.929 464.14C437.382 471.867 387.111 479.656 337.076 487.686C333.291 458.519 323.316 381.393 321.267 365.568C368.339 355.532 416.375 347.611 465.017 342.219Z" fill="#626262"/>
<path d="M312.321 353.584C259.67 365.033 210.677 378.534 166.207 393.024C163.288 393.976 161.356 396.767 161.537 399.832C164.011 441.689 166.491 480.797 169.189 521.725C169.453 525.725 173.116 528.623 177.066 527.942C222.161 520.166 274.058 511.499 332.35 502.117C335.953 501.538 338.446 498.197 337.976 494.578C334.728 469.562 321.674 368.77 320.451 359.323C319.943 355.4 316.186 352.744 312.321 353.584ZM308.017 368.466C310.218 385.463 320.029 461.236 323.742 489.852C271.103 498.345 223.87 506.205 182.158 513.37C179.768 476.928 177.59 441.557 175.378 404.305C216.053 391.218 260.501 379.036 308.017 368.466Z" fill="#626262"/>
<path d="M169.303 392.771C168.298 392.616 167.259 392.682 166.208 393.024C153.242 397.25 143.83 400.506 130.256 405.43C127.453 406.447 125.642 409.204 125.812 412.182C127.974 450.223 130.312 488.853 132.816 527.97C133.073 531.988 136.785 534.889 140.749 534.187C142.646 533.851 170.784 529.025 177.067 527.942C180.472 527.355 182.864 524.272 182.637 520.825C179.94 479.926 177.513 440.87 175.041 399.045C174.846 395.733 172.317 393.237 169.303 392.771ZM162.101 408.722C164.269 445.108 166.45 479.896 168.796 515.649C161.129 516.97 152.603 518.451 145.869 519.615C143.659 484.84 141.563 450.403 139.624 416.486C147.513 413.649 154.774 411.173 162.101 408.722Z" fill="#626262"/>
<path d="M252.626 501.499C199.192 510.403 160.705 516.957 138.385 520.909C134.999 521.509 132.596 524.538 132.815 527.97C135.122 564.008 137.48 597.29 139.82 627.442C140.06 630.531 142.363 633.058 145.418 633.575C179.308 639.303 220.136 643.328 265.932 644.208C269.975 644.286 273.195 640.806 272.796 636.782C270.307 611.645 268.018 587.607 262.697 531.261C262.694 531.231 261.063 514.034 260.447 507.519C260.078 503.619 256.49 500.855 252.626 501.499ZM247.703 516.042C249.059 530.366 255.751 601.039 258.618 630.424C218.881 629.335 183.187 625.866 152.901 621C150.835 594.077 148.781 564.713 146.74 533.174C167.946 529.445 202.103 523.655 247.703 516.042Z" fill="#626262"/>
<path d="M404.958 476.94C351.627 485.25 305.895 492.65 252.627 501.527C249.132 502.109 246.667 505.313 247.001 508.841C247.61 515.277 256.858 612.958 259.351 638.132C259.688 641.537 262.512 644.143 265.933 644.208C319.883 645.245 374.771 641.688 430.417 632.421C434.089 631.81 436.589 628.33 435.987 624.657C435.805 623.547 412.848 483.621 412.666 482.51C412.066 478.851 408.621 476.369 404.958 476.94ZM400.429 491.343C402.432 503.55 419.531 607.789 421.555 620.128C371.095 628.121 321.276 631.305 272.207 630.677C269.866 606.945 267.634 583.77 262.698 531.515C262.688 531.406 261.752 521.399 261.039 513.848C309.237 505.832 352.216 498.878 400.429 491.343Z" fill="#626262"/>
<path d="M568.513 452.381C513.977 460.234 459.836 468.389 404.958 476.94C401.253 477.517 398.725 481.004 399.332 484.704L422.652 626.851C423.257 630.537 426.732 633.035 430.417 632.421C487.813 622.863 544.649 607.307 599.851 585.245C602.948 584.008 604.685 580.701 603.93 577.453C603.712 576.516 576.27 458.494 576.052 457.558C575.258 454.143 571.983 451.882 568.513 452.381ZM564.293 466.672C566.851 477.673 587.02 564.36 589.443 574.78C539.004 594.508 487.214 608.725 434.89 617.877L413.763 489.233C464.222 481.393 514.124 473.92 564.293 466.672Z" fill="#626262"/>
<path d="M674.539 437.641C634.999 442.992 600.639 447.755 568.512 452.381C564.596 452.945 561.99 456.742 562.886 460.596L590.764 580.491C591.7 584.519 596.01 586.78 599.85 585.245C633.878 571.646 666.722 555.826 698.45 537.535C700.989 536.071 702.299 533.142 701.685 530.277C695.196 499.993 688.815 471.514 682.022 442.789C681.222 439.408 677.981 437.175 674.539 437.641ZM670.235 451.875C676.113 476.911 681.74 501.962 687.395 528.223C659.842 543.861 631.423 557.6 602.101 569.661L577.711 464.759C606.021 460.704 636.237 456.488 670.235 451.875Z" fill="#626262"/>
<path d="M694.794 524.932C693.748 524.973 692.692 525.26 691.7 525.832C679.369 532.94 666.641 539.749 653.329 546.424C650.54 547.823 649.077 550.952 649.784 553.991L669.195 637.457C670.358 642.457 676.456 644.4 680.278 640.973C692.073 630.401 703.571 619.094 714.739 607.075C716.215 605.487 716.822 603.293 716.399 601.167C712.287 580.506 707.425 557.059 701.686 530.277C700.966 526.918 697.932 524.808 694.794 524.932ZM690.321 542.064C694.863 563.4 699.007 583.155 702.446 600.352C695.01 608.251 687.401 615.728 679.688 622.969L664.131 556.073C673.098 551.505 681.8 546.829 690.321 542.064Z" fill="#626262"/>
<path d="M656.338 545.721C655.332 545.723 654.304 545.935 653.328 546.424C610.556 567.869 566.354 584.988 521.026 598.045C517.672 599.011 515.587 602.381 516.244 605.809C518.468 617.412 538.397 720.888 538.243 720.078C539.043 724.279 543.517 726.69 547.47 725.057C594.856 705.492 639.264 677.736 680.277 640.973C682.112 639.329 682.917 636.818 682.359 634.419C682.207 633.767 663.1 551.605 662.949 550.953C662.206 547.762 659.355 545.716 656.338 545.721ZM651.696 562.149C654.684 574.999 666.669 626.624 668.265 633.49C631.461 665.945 591.905 690.974 549.917 709.248C547.67 697.585 534.108 627.198 530.647 609.185C571.993 596.93 612.431 581.297 651.696 562.149Z" fill="#626262"/>
<path d="M523.811 597.848C522.894 597.715 521.952 597.77 520.998 598.045C464.167 614.414 406.465 624.32 348.921 628.539C345.053 628.823 342.23 632.289 342.731 636.135C344.213 647.523 357.593 750.398 357.726 751.416C357.866 752.495 358.255 753.535 358.878 754.426L360.904 757.324C362.172 759.137 364.261 760.201 366.473 760.193C428.753 759.997 489.593 748.954 547.47 725.057C550.431 723.835 552.12 720.693 551.521 717.546C551.695 718.455 531.717 614.876 529.495 603.277C528.934 600.352 526.563 598.247 523.811 597.848ZM517.594 612.983C521.419 632.87 535.674 706.762 537.175 714.536C483.866 735.768 427.983 745.922 370.722 746.578C369.969 740.789 359.609 661.278 357.022 641.395C410.716 637.03 464.477 627.768 517.594 612.983Z" fill="#626262"/>
<path d="M184.465 625.36C180.257 624.875 176.642 628.337 176.954 632.562C178.74 656.721 184.035 725.3 184.128 726.38C184.361 729.085 186.185 731.368 188.769 732.203C211.589 739.579 236.513 746.007 263.289 750.882C296.862 756.994 331.401 760.304 366.474 760.193C371.925 760.176 375.111 754.027 371.988 749.56L370.891 748.013C370.512 745.102 357.582 645.613 356.122 634.39C355.66 630.839 352.492 628.277 348.921 628.539C290.12 632.85 235.007 631.19 184.465 625.36ZM191.02 639.595C238.283 644.589 289.356 645.976 343.547 642.38C345.996 661.2 356.083 738.869 357.079 746.522C299.607 745.708 245.599 735.884 197.237 720.669C196.742 714.361 193.031 666.377 191.02 639.595Z" fill="#626262"/>
<path d="M147.669 620.24C143.338 619.508 139.48 623.063 139.82 627.442C143.049 669.059 145.514 696.345 147.753 713.27C148.061 715.603 149.569 717.607 151.72 718.559C152.189 718.767 153.067 719.156 154.336 719.684C156.423 720.554 158.865 721.529 161.65 722.61C169.577 725.687 178.655 728.934 188.768 732.203C193.363 733.688 197.989 730.009 197.573 725.198C197.485 724.175 192.185 655.691 190.4 631.549C190.161 628.317 187.683 625.732 184.464 625.36C170.437 623.742 157.968 621.982 147.669 620.24ZM153.97 634.869C161.101 635.96 168.858 637.014 177.375 638.048C179.175 662.11 182.391 703.779 183.339 715.971C177.547 713.968 171.439 711.936 166.545 710.035C164.333 709.177 162.491 708.416 160.75 707.7C158.832 692.359 156.63 668.491 153.97 634.869Z" fill="#626262"/>
<mask id="mask0_415_15845" style="mask-type:luminance" maskUnits="userSpaceOnUse" x="71" y="31" width="658" height="738">
<path d="M728.374 31.5059H71.6191V768.492H728.374V31.5059Z" fill="white"/>
<path d="M408.698 46.6163C394.832 46.2972 381.281 46.6747 368.077 47.6853L364.842 91.7388C348.777 93.9016 333.211 96.7004 318.341 100.094L304.135 57.6437C280.446 63.2972 258.265 70.9964 237.295 79.8111L235.213 126.087C220.795 131.854 207.454 137.83 195.407 143.725L184.38 106.001C160.08 119.996 138.132 135.211 118.919 150.421C118.919 150.421 127.388 330.745 137.204 491.118C129.129 486.685 111.265 479.782 97.9889 496.154C81.3431 516.681 73.3504 566.821 144.321 597.848C147.837 646.641 151.32 688.751 154.448 712.398C154.448 712.398 472.863 857.459 709.787 602.49C703 568.38 694.99 530.122 685.679 488.727C707.051 474.906 713.735 449.919 713.36 433.168C712.797 408.078 701.147 397.496 678.955 379.409C673.012 374.565 665.986 374.513 658.898 376.905C636.146 287.669 607.363 187.794 570.312 80.5707C548.304 71.9027 526.896 65.1563 506.032 59.9505L503.866 92.8078C491.047 90.8182 478.411 89.421 465.974 88.5037L451.261 49.7388C436.748 47.9511 422.565 46.9353 408.698 46.6163Z" fill="black"/>
</mask>
<g mask="url(#mask0_415_15845)">
<path d="M408.698 46.6163C394.832 46.2972 381.281 46.6747 368.077 47.6853L364.842 91.7388C348.777 93.9016 333.211 96.7004 318.341 100.094L304.135 57.6437C280.446 63.2972 258.265 70.9964 237.295 79.8111L235.213 126.087C220.795 131.854 207.454 137.83 195.407 143.725L184.38 106.001C160.08 119.996 138.132 135.211 118.919 150.421C118.919 150.421 127.388 330.745 137.204 491.118C129.129 486.685 111.265 479.782 97.9889 496.154C81.3431 516.681 73.3504 566.821 144.321 597.848C147.837 646.641 151.32 688.751 154.448 712.398C154.448 712.398 472.863 857.459 709.787 602.49C703 568.38 694.99 530.122 685.679 488.727C707.051 474.906 713.735 449.919 713.36 433.168C712.797 408.078 701.147 397.496 678.955 379.409C673.012 374.565 665.986 374.513 658.898 376.905C636.146 287.669 607.363 187.794 570.312 80.5707C548.304 71.9027 526.896 65.1563 506.032 59.9505L503.866 92.8078C491.047 90.8182 478.411 89.421 465.974 88.5037L451.261 49.7388C436.748 47.9511 422.565 46.9353 408.698 46.6163Z" stroke="black" stroke-width="0.0375" stroke-miterlimit="10" stroke-linejoin="round"/>
</g>
<path d="M408.699 46.6163C394.833 46.2972 381.282 46.6747 368.078 47.6853L364.843 91.7388C348.778 93.9016 333.212 96.7004 318.342 100.094L304.136 57.6437C280.447 63.2972 258.265 70.9964 237.296 79.8111L235.214 126.087C220.796 131.854 207.455 137.83 195.408 143.725L184.381 106.001C160.081 119.996 138.133 135.211 118.92 150.421C118.92 150.421 140.253 605.074 154.449 712.398C154.449 712.398 472.864 857.459 709.788 602.49C684.309 474.446 643.191 291.474 570.313 80.5707C548.305 71.9027 526.897 65.1563 506.033 59.9505L503.867 92.8078C491.048 90.8182 478.412 89.4211 465.975 88.5037L451.262 49.7388C436.749 47.9511 422.566 46.9354 408.699 46.6163Z" stroke="black" stroke-width="0.01875" stroke-miterlimit="10" stroke-linejoin="round"/>
<path d="M409.008 33.1131C394.852 32.7873 380.844 33.1535 367.036 34.2102C360.376 34.7199 355.091 40.0386 354.602 46.7005L352.155 80.0641C343.729 81.3659 335.459 82.8346 327.343 84.4807L316.934 53.3676C314.715 46.735 307.815 42.8827 301.012 44.5062C277.899 50.0223 255.2 57.6509 232.062 67.3769C227.254 69.3981 224.026 73.9817 223.792 79.192L222.104 116.973C215.94 119.541 209.879 122.152 203.959 124.849L197.348 102.204C194.894 93.8082 185.208 89.9334 177.628 94.2985C153.876 107.979 131.359 123.359 110.535 139.843C107.125 142.543 105.24 146.723 105.444 151.068C105.457 151.355 108.727 218.472 109.945 242.466C113.425 311.022 117.096 379.582 120.831 443.576C121.414 453.553 121.999 462.971 122.576 472.58C121.712 472.501 120.863 472.355 119.987 472.326C107.652 471.923 96.2384 476.877 87.4962 487.658C75.2556 502.753 69.8002 524.972 75.2029 546.368C81.2772 570.424 100.13 591.196 131.465 606.625C135.141 656.795 138.301 693.328 141.058 714.171C141.668 718.784 144.615 722.762 148.85 724.692C149.689 725.074 151.213 725.732 153.379 726.633C156.909 728.101 161.02 729.726 165.701 731.471C178.985 736.424 194.155 741.354 210.992 745.959C258.811 759.037 310.444 766.928 364.026 767.001C433.07 767.096 500.275 754.127 563.73 725.451C620.333 699.872 672.646 662.315 719.689 611.689C722.64 608.513 723.883 604.097 723.037 599.845C716.175 565.361 708.7 530.085 700.701 494.213C709.139 486.903 715.635 477.772 720.083 467.347C724.839 456.2 727.112 443.968 726.863 432.858C726.531 418.068 722.837 406.417 715.245 395.809C709.307 387.514 702.56 381.236 687.479 368.944C681.874 364.376 675.558 362.168 668.884 361.911C644.26 266.535 616.105 171.713 583.084 76.1539C581.795 72.425 578.934 69.4416 575.263 67.9958C553.315 59.3514 531.378 52.351 509.296 46.8411C501.128 44.8031 493.111 50.6502 492.558 59.0501L491.348 77.5042C486.138 76.8606 480.885 76.3233 475.623 75.8444L463.892 44.9563C462.114 40.2729 457.893 36.9606 452.921 36.3482C438.148 34.5284 423.509 33.4468 409.008 33.1131ZM408.698 46.6161C422.565 46.9351 436.748 47.9509 451.261 49.7386L465.974 88.5035C478.411 89.4209 491.047 90.818 503.866 92.8076L506.032 59.9503C526.896 65.1561 548.304 71.9025 570.312 80.5705C607.363 187.794 636.146 287.669 658.898 376.905C665.986 374.513 673.012 374.565 678.955 379.409C701.147 397.496 712.797 408.078 713.36 433.168C713.735 449.919 707.051 474.906 685.679 488.727C694.99 530.121 703 568.38 709.787 602.49C472.863 857.459 154.448 712.398 154.448 712.398C151.32 688.751 147.837 646.641 144.321 597.848C73.3507 566.821 81.3434 516.681 97.9892 496.154C111.265 479.782 129.129 486.685 137.204 491.118C127.388 330.745 118.919 150.421 118.919 150.421C138.132 135.211 160.08 119.996 184.38 106.001L195.407 143.725C207.454 137.83 220.795 131.854 235.213 126.087L237.295 79.8109C258.264 70.9963 280.446 63.297 304.135 57.6435L318.341 100.094C333.211 96.7002 348.777 93.9014 364.842 91.7386L368.077 47.6851C381.281 46.6745 394.832 46.297 408.698 46.6161Z" fill="black"/>
<path d="M408.868 39.8647C394.936 39.5441 381.157 39.9222 367.572 40.9618C364.241 41.2167 361.599 43.8478 361.355 47.1788L358.513 85.8874C346.305 87.6525 334.419 89.8168 322.871 92.3013L310.55 55.5056C309.44 52.1894 305.962 50.2773 302.56 51.089C279.824 56.5153 257.492 64.0048 234.68 73.594C232.275 74.6046 230.661 76.8964 230.544 79.5016L228.659 121.53C218.669 125.61 209.024 129.892 199.684 134.301L190.851 104.117C189.624 99.9188 184.795 97.9674 181.005 100.15C157.545 113.662 135.296 128.85 114.728 145.132C113.023 146.482 112.066 148.558 112.168 150.73C112.181 151.016 115.453 218.122 116.669 242.1C120.145 310.61 123.825 379.095 127.556 443.042C130.521 493.856 133.396 539.674 136.136 579.281C140.488 642.194 144.394 687.867 147.754 713.27C148.059 715.577 149.547 717.566 151.664 718.531C151.873 718.626 152.238 718.797 152.79 719.037C153.687 719.429 154.751 719.881 155.968 720.388C159.421 721.824 163.464 723.427 168.065 725.142C181.165 730.026 196.158 734.911 212.793 739.461C260.067 752.389 311.087 760.177 364.027 760.25C432.152 760.343 498.443 747.549 560.974 719.291C616.759 694.081 668.307 657.043 714.739 607.075C716.215 605.487 716.822 603.293 716.399 601.167C700.773 522.639 684.291 448.723 664.356 370.913C639.374 273.403 610.511 176.227 576.699 78.3763C576.055 76.5119 574.624 75.0202 572.789 74.2973C551.116 65.7613 529.463 58.8348 507.665 53.3958C503.581 52.3768 499.587 55.3003 499.31 59.5003L497.622 85.156C488.749 83.9225 479.815 82.918 470.785 82.1741L457.563 47.3476C456.675 45.0059 454.564 43.3497 452.078 43.0435C437.527 41.2511 423.145 40.1932 408.868 39.8647ZM408.531 53.3677C421.049 53.6557 433.708 54.5906 446.452 56.0401L459.673 90.8947C460.604 93.3478 462.852 95.034 465.468 95.227C478.094 96.1583 490.527 97.5659 502.827 99.4748C506.743 100.083 510.33 97.2125 510.591 93.2578L512.222 68.5867C529.834 73.2835 547.365 78.9561 564.912 85.7467C598.157 182.228 626.635 278.114 651.275 374.289C670.848 450.685 687.099 523.35 702.474 600.352C657.882 647.733 608.62 682.949 555.404 706.997C494.722 734.42 430.342 746.838 364.055 746.747C312.399 746.676 262.521 739.066 216.338 726.436C200.105 721.996 185.523 717.23 172.791 712.483C168.35 710.827 164.444 709.298 161.144 707.926C161.019 707.873 160.878 707.794 160.723 707.729C157.504 682.104 153.762 638.355 149.611 578.353C146.874 538.8 143.993 493.051 141.031 442.282C137.302 378.374 133.618 309.875 130.144 241.397C128.975 218.352 126.086 158.69 125.84 153.628C142.938 140.271 161.219 127.744 180.358 116.297L188.938 145.61C190.113 149.629 194.601 151.642 198.362 149.802C210.802 143.714 224.007 137.844 237.718 132.36C240.179 131.376 241.846 129.044 241.966 126.397L243.85 84.4527C262.625 76.7476 281.092 70.5419 299.719 65.7735L311.928 102.232C313.03 105.524 316.449 107.449 319.833 106.677C334.519 103.325 349.895 100.568 365.743 98.4339C368.908 98.0078 371.332 95.4301 371.566 92.245L374.379 54.1272C385.648 53.4306 397.013 53.1027 408.531 53.3677Z" fill="black"/>
<path d="M619.604 408.818C619.604 408.818 656.753 361.316 678.945 379.404C701.136 397.491 712.807 408.065 713.37 433.155C713.932 458.244 698.825 501.957 641.919 498.661" fill="#F3886D"/>
<path d="M698.646 396.963C650.773 418.433 640.162 467.096 637.939 482.651L641.905 498.657C698.812 501.954 713.921 458.257 713.359 433.168C712.998 417.064 708.005 406.932 698.646 396.963Z" fill="#F9B192"/>
<path d="M647.166 452.304C647.166 452.304 657.474 425.452 680.124 408.363" stroke="black" stroke-width="0.01875" stroke-miterlimit="10" stroke-linecap="round" stroke-linejoin="round"/>
<path d="M681.064 401.689C679.353 401.449 677.545 401.86 676.057 402.983C669.972 407.573 664.413 413.011 659.375 419.13C653.863 425.825 649.24 432.969 645.45 440.116C644.12 442.624 642.988 444.955 642.046 447.065C641.466 448.362 641.08 449.317 640.865 449.878C639.528 453.359 641.266 457.262 644.747 458.598C648.228 459.935 652.131 458.197 653.467 454.716C653.49 454.656 653.555 454.502 653.664 454.238C653.859 453.767 654.113 453.21 654.396 452.578C655.217 450.739 656.194 448.676 657.378 446.446C660.768 440.054 664.92 433.652 669.812 427.71C674.205 422.373 678.997 417.672 684.187 413.757C687.163 411.511 687.755 407.282 685.509 404.305C684.386 402.817 682.775 401.928 681.064 401.689Z" fill="black"/>
<path d="M661.039 428.449C661.039 428.449 673.761 432.12 679.25 439.709" stroke="black" stroke-width="0.01875" stroke-miterlimit="10" stroke-linecap="round" stroke-linejoin="round"/>
<path d="M660.248 421.746C657.636 422.059 655.341 423.898 654.565 426.585C653.532 430.168 655.596 433.906 659.179 434.94C659.258 434.963 659.46 435.025 659.798 435.137C660.4 435.336 661.085 435.581 661.823 435.868C663.93 436.687 666.037 437.663 667.956 438.794C670.578 440.34 672.59 442.016 673.779 443.661C675.964 446.682 680.182 447.365 683.203 445.18C686.224 442.995 686.907 438.777 684.722 435.756C682.293 432.397 678.913 429.589 674.82 427.176C672.215 425.64 669.459 424.36 666.718 423.294C665.062 422.65 663.751 422.211 662.92 421.971C662.025 421.713 661.119 421.642 660.248 421.746Z" fill="black"/>
<path d="M619.604 408.818C619.604 408.818 656.753 361.316 678.945 379.404C701.136 397.491 712.807 408.065 713.37 433.155C713.932 458.244 698.825 501.957 641.919 498.661" stroke="black" stroke-width="0.01875" stroke-miterlimit="10" stroke-linejoin="round"/>
<path d="M666.35 368.55C662.671 368.69 658.847 369.566 654.929 371.082C647.061 374.127 639.009 379.69 630.877 387.061C626.637 390.904 622.622 395.002 618.977 399.101C617.7 400.537 616.571 401.862 615.574 403.067C614.963 403.804 614.522 404.361 614.279 404.671L624.913 412.969C624.946 412.927 625.672 412.051 625.982 411.675C626.882 410.589 627.908 409.388 629.077 408.075C632.418 404.316 636.084 400.537 639.935 397.047C646.948 390.692 653.742 386 659.796 383.657C666.085 381.223 670.862 381.532 674.677 384.641C688.383 395.813 694.248 401.265 698.786 407.596C703.945 414.796 706.364 422.489 706.606 433.308C706.904 446.603 702.543 461.437 693.891 472.355C683.026 486.064 666.127 493.314 642.298 491.934L641.539 505.409C669.676 507.039 690.844 497.964 704.496 480.738C715.228 467.197 720.474 449.281 720.109 432.999C719.807 419.532 716.544 409.191 709.757 399.72C704.285 392.084 697.839 386.107 683.201 374.177C678.194 370.096 672.482 368.317 666.35 368.55Z" fill="black"/>
<path d="M611.918 389.566C611.918 389.566 643.398 497.088 643.728 519.824" stroke="black" stroke-width="0.01875" stroke-miterlimit="10" stroke-linecap="round" stroke-linejoin="round"/>
<path d="M612.677 382.869C611.806 382.768 610.927 382.832 610.033 383.094C606.454 384.142 604.4 387.871 605.447 391.449C605.462 391.499 609.097 404.126 610.398 408.722C614.117 421.851 617.816 435.34 621.285 448.387C622.201 451.83 623.101 455.189 623.958 458.486C632.025 489.529 636.864 511.797 636.982 519.924C637.036 523.653 640.09 526.617 643.818 526.563C647.547 526.509 650.54 523.456 650.485 519.728C650.345 510.017 645.463 487.498 637.039 455.082C636.175 451.76 635.26 448.366 634.338 444.898C630.848 431.775 627.132 418.231 623.395 405.036C622.087 400.419 618.404 387.735 618.388 387.68C617.602 384.996 615.291 383.172 612.677 382.869Z" fill="black"/>
<path d="M175.764 485.343C175.764 373.172 266.697 282.238 378.869 282.238C491.04 282.238 581.974 373.172 581.974 485.343C581.974 597.515 491.04 688.448 378.869 688.448C266.697 688.448 175.764 597.515 175.764 485.343Z" fill="#F3886D" stroke="black" stroke-width="0.01875" stroke-miterlimit="10" stroke-linejoin="round"/>
<path d="M446.787 343.654C437.382 343.772 427.715 345.12 418.066 347.818C381.581 358.016 355.112 384.814 347.118 415.22C331.407 394.697 302.956 380.343 270.799 379.409C222.704 378.012 184.677 407.079 185.843 444.336C186.563 467.356 202.097 488.103 225.198 500.936C221.365 516.68 220.71 532.865 223.989 548.787C238.248 618.033 319.479 656.206 405.434 634.053C491.391 611.9 549.519 537.803 535.26 468.557C533.999 462.432 532.154 456.565 529.887 450.947C536.529 435.298 538.201 418.155 533.544 401.492C523.544 365.717 487.543 343.145 446.787 343.654Z" fill="#F9B192"/>
<path d="M175.764 485.343C175.764 373.172 266.697 282.238 378.869 282.238C491.04 282.238 581.974 373.172 581.974 485.343C581.974 597.515 491.04 688.448 378.869 688.448C266.697 688.448 175.764 597.515 175.764 485.343Z" stroke="black" stroke-width="0.01875" stroke-miterlimit="10" stroke-linejoin="round"/>
<path d="M378.879 275.492C262.979 275.492 169.02 369.451 169.02 485.351C169.02 601.252 262.979 695.21 378.879 695.21C494.78 695.21 588.737 601.251 588.737 485.351C588.737 369.451 494.78 275.492 378.879 275.492ZM378.879 288.995C487.322 288.995 575.234 376.908 575.234 485.351C575.234 593.794 487.322 681.707 378.879 681.707C270.436 681.707 182.523 593.794 182.523 485.351C182.523 376.908 270.436 288.995 378.879 288.995Z" fill="black"/>
<path d="M446.703 336.903C436.561 337.029 426.306 338.505 416.237 341.319C382.736 350.683 356.232 373.69 344.446 402.139C326.43 384.547 299.686 373.491 270.995 372.657C219.364 371.158 177.788 402.947 179.09 444.561C179.828 468.128 194.502 489.811 217.714 504.199C214.571 519.699 214.294 535.166 217.377 550.137C232.496 623.562 317.734 663.617 407.122 640.579C496.297 617.597 556.927 540.326 541.871 467.207C540.75 461.765 539.098 456.375 537.088 451.031C543.593 434.307 544.765 416.558 540.042 399.663C529.341 361.378 491.116 336.348 446.703 336.903ZM446.871 350.406C485.482 349.923 518.093 371.292 527.046 403.32C531.164 418.053 529.912 433.594 523.67 448.302C522.971 449.949 522.944 451.819 523.614 453.478C525.82 458.948 527.514 464.397 528.649 469.907C542.11 535.278 486.484 606.203 403.746 627.526C321.224 648.795 243.997 612.503 230.599 547.437C227.607 532.91 228.044 517.766 231.752 502.539C232.471 499.586 231.146 496.504 228.489 495.028C206.661 482.903 193.214 463.959 192.593 444.111C191.564 411.208 226.047 384.867 270.601 386.16C299.975 387.013 326.869 399.896 341.745 419.327C345.159 423.786 352.217 422.367 353.645 416.936C361.225 388.105 386.535 363.64 419.894 354.316C428.834 351.817 437.902 350.518 446.871 350.406Z" fill="black" fill-opacity="0.5"/>
<path d="M378.879 275.492C262.979 275.492 169.02 369.451 169.02 485.351C169.02 601.252 262.979 695.21 378.879 695.21C494.78 695.21 588.737 601.251 588.737 485.351C588.737 369.451 494.78 275.492 378.879 275.492ZM378.879 288.995C487.322 288.995 575.234 376.908 575.234 485.351C575.234 593.794 487.322 681.707 378.879 681.707C270.436 681.707 182.523 593.794 182.523 485.351C182.523 376.908 270.436 288.995 378.879 288.995Z" fill="black"/>
<path d="M472.911 443.432C471.005 432.548 486.227 420.789 506.911 417.167C527.594 413.545 545.906 419.432 547.812 430.315C549.718 441.199 534.496 452.959 513.813 456.581C493.13 460.203 474.817 454.316 472.911 443.432Z" fill="#FF497F" stroke="black" stroke-width="0.01875" stroke-miterlimit="10" stroke-linejoin="round"/>
<path d="M188.33 494.151C184.513 483.781 197.394 469.496 217.1 462.243C236.806 454.991 255.875 457.518 259.691 467.887C263.507 478.257 250.626 492.542 230.92 499.795C211.215 507.047 192.146 504.52 188.33 494.151Z" fill="#FF497F" stroke="black" stroke-width="0.01875" stroke-miterlimit="10" stroke-linejoin="round"/>
<path d="M523.051 409.453C517.58 409.13 511.718 409.477 505.75 410.522C481.878 414.703 463.502 428.876 466.254 444.589C469.006 460.302 491.105 467.421 514.977 463.24C538.849 459.06 557.225 444.858 554.473 429.145C552.41 417.361 539.464 410.423 523.051 409.453ZM520.463 422.872C531.98 423.177 540.372 426.938 541.167 431.48C542.228 437.535 530.137 446.87 512.642 449.934C495.148 452.998 480.62 448.309 479.56 442.254C478.5 436.199 490.59 426.892 508.085 423.828C512.459 423.062 516.624 422.77 520.463 422.872Z" fill="black"/>
<path d="M239.516 451.341C231.85 451.241 223.29 452.759 214.761 455.898C192.017 464.268 176.478 481.521 181.988 496.491C187.497 511.461 210.499 514.511 233.243 506.14C255.987 497.77 271.525 480.517 266.016 465.547C262.572 456.19 252.293 451.506 239.516 451.341ZM236.928 464.872C245.617 464.469 252.03 466.611 253.357 470.217C255.48 475.986 245.269 487.319 228.601 493.453C211.933 499.587 196.798 497.591 194.675 491.821C192.552 486.052 202.762 474.719 219.43 468.585C225.681 466.285 231.715 465.114 236.928 464.872Z" fill="black"/>
<path d="M437.705 374.926C436.838 375.029 435.969 375.255 435.088 375.601C428.046 378.372 426.731 386.946 429.715 394.533C432.7 402.121 439.495 407.487 446.538 404.717C453.58 401.946 454.896 393.372 451.911 385.785C449.299 379.146 443.767 374.203 437.705 374.926Z" fill="black"/>
<path d="M261.547 415.772C260.681 415.876 259.811 416.101 258.931 416.448C251.888 419.218 250.573 427.793 253.557 435.38C256.542 442.967 263.337 448.334 270.38 445.563C277.423 442.793 278.738 434.218 275.753 426.631C273.141 419.992 267.609 415.05 261.547 415.772Z" fill="black"/>
<path d="M432.247 454.903C430.527 454.74 428.761 455.234 427.324 456.422C415.172 466.471 400.794 474.795 384.649 481.543C365.649 489.485 345.202 494.865 324.758 498.113C317.597 499.25 310.959 500.027 305.009 500.532C302.939 500.708 301.123 500.839 299.552 500.926C299.01 500.956 297.783 501.008 297.723 501.01C293.996 501.119 291.06 504.231 291.169 507.959C291.278 511.686 294.39 514.623 298.117 514.513C298.524 514.501 299.243 514.458 300.283 514.401C301.984 514.307 303.958 514.166 306.163 513.979C312.428 513.447 319.399 512.638 326.896 511.447C348.329 508.042 369.767 502.402 389.853 494.005C407.16 486.771 422.657 477.786 435.904 466.831C438.778 464.454 439.181 460.196 436.804 457.322C435.616 455.886 433.967 455.066 432.247 454.903Z" fill="black"/>
<path opacity="0.203389" d="M199.135 132.377L218.851 355.828C197.705 565.989 362.893 683.74 362.893 683.74C362.893 683.74 308.824 684.053 247.393 638.59L253.035 743.243L152.145 710.534L137.404 593.06L108.38 574.633C108.38 574.633 83.0428 531.328 82.1214 524.879C81.2001 518.429 90.4137 495.856 90.4137 495.856L109.302 478.811L128.19 481.575L129.572 412.933L114.83 143.433L183.933 101.511L199.135 132.377Z" fill="black"/>
<path opacity="0.203389" d="M653.567 431.68C664.728 418.763 668.885 411.949 679.924 408.106C702.187 400.358 714.648 441.735 714.648 441.735C714.648 441.735 724.721 474.384 700.811 481.896C674.755 490.083 682.87 536.813 682.87 536.813L665.358 541.22L641.838 498.003C641.838 498.003 612.932 423.248 624.953 433.989C634.597 442.606 648.891 437.093 653.567 431.68Z" fill="black"/>
</svg>
