<svg width="800" height="800" viewBox="0 0 800 800" fill="none" xmlns="http://www.w3.org/2000/svg">
<path d="M151.819 468.13C151.819 468.13 126.625 463.713 122.292 465.389C103.715 472.571 63.5047 499.804 157.596 586.983" fill="#F3886D"/>
<path d="M126.219 453.875C123.964 453.844 121.73 453.993 119.625 454.594C117.625 455.164 115.686 456.08 113.812 456.969C111.554 458.04 109.355 459.244 107.25 460.594C103.577 462.948 100.175 465.726 97.2499 468.969C95.0449 471.413 93.116 474.114 91.5311 477C84.9492 488.986 85.3675 502.807 89.3749 515.562C93.2762 527.98 100.125 539.342 107.75 549.812C119.941 566.552 134.543 581.437 149.656 595.531C154.379 599.923 161.764 599.66 166.156 594.938C170.548 590.215 170.285 582.829 165.562 578.438C154.594 568.267 143.979 557.672 134.344 546.219C127.053 537.552 120.16 528.325 115.031 518.188C114.088 516.322 113.194 514.437 112.406 512.5C109.296 504.849 107.04 495.422 111.156 487.688C113.396 483.479 117.235 480.352 121.344 478.062C122.336 477.51 123.339 476.996 124.375 476.531C124.684 476.393 124.992 476.239 125.312 476.125C126.67 476.049 128.066 476.147 129.406 476.25C131.479 476.409 133.531 476.653 135.594 476.906C140.378 477.493 145.157 478.205 149.906 479.031C155.921 480.082 161.668 476.046 162.719 470.031C163.77 464.016 159.734 458.301 153.719 457.25C146.819 456.041 139.88 454.995 132.906 454.344C130.764 454.144 128.474 453.906 126.219 453.875Z" fill="black"/>
<path d="M126.865 455.057C129.446 455.118 132.002 455.35 134.569 455.62C140.913 456.287 147.236 457.218 153.52 458.319C158.932 459.264 162.563 464.435 161.618 469.847C160.672 475.259 155.53 478.862 150.118 477.917C144.282 476.901 138.408 476.027 132.516 475.414C130.666 475.222 128.81 475.058 126.949 474.992C126.474 474.976 125.99 474.957 125.515 474.964C125.408 474.966 125.29 474.988 125.178 474.992C124.762 475.159 124.349 475.315 123.941 475.499C123.273 475.798 122.481 476.176 121.832 476.511C118.018 478.477 114.419 481.097 111.822 484.552C105.516 492.944 107.681 503.892 111.344 512.923C114.826 521.506 119.934 529.406 125.431 536.822C132.914 546.918 141.353 556.285 150.174 565.221C154.916 570.024 159.79 574.69 164.739 579.279C168.988 583.231 169.253 589.876 165.301 594.125C161.35 598.375 154.705 598.639 150.455 594.688C136.045 581.253 122.099 567.103 110.276 551.303C102.417 540.8 95.2694 529.425 91.0155 516.943C86.4623 503.583 85.7454 488.958 93.1243 476.455C94.7354 473.725 96.6722 471.184 98.8602 468.891C101.991 465.609 105.591 462.824 109.488 460.512C111.983 459.032 114.595 457.737 117.277 456.632C118.171 456.264 118.993 455.94 119.92 455.676C122.155 455.039 124.559 455.003 126.865 455.057Z" fill="black"/>
<path d="M598.391 445.142C598.391 445.142 575.624 391.02 548.604 370.017C521.584 349.014 504.93 241.755 504.93 241.755L519.295 124.761C519.295 124.761 577.545 104.614 604.437 107.614C631.33 110.613 693.902 368.625 683.916 432.116C683.916 432.116 630.789 443.33 598.391 445.142Z" fill="#82D4D5"/>
<path d="M601.344 96.1559C599.122 96.0712 596.908 96.1012 594.688 96.1872C588.278 96.4356 581.909 97.3257 575.594 98.4059C568.622 99.5984 561.712 101.094 554.844 102.781C546.344 104.869 537.901 107.224 529.531 109.781C526.097 110.831 522.691 111.938 519.281 113.062C518.403 113.352 517.501 113.641 516.625 113.938C516.391 114.017 515.874 114.075 515.688 114.25C513.483 116.313 511.073 118.185 509.062 120.438C508.62 120.933 508.657 121.707 508.469 122.344C508.087 123.633 508.036 125.239 507.875 126.562C507.811 127.086 507.751 127.601 507.688 128.125C507.624 128.649 507.564 129.164 507.5 129.688C507.373 130.735 507.252 131.796 507.125 132.844C506.998 133.891 506.877 134.921 506.75 135.969C505.348 147.51 503.934 159.052 502.531 170.594C500.604 186.458 498.687 202.325 496.75 218.188C496.131 223.257 495.526 228.337 494.906 233.406C494.694 235.142 494.462 236.858 494.25 238.594C494.174 239.215 494.052 239.843 494.031 240.469C493.997 241.474 494.068 242.494 494.094 243.5C494.117 244.398 494.384 245.337 494.531 246.219C494.837 248.047 495.145 249.893 495.469 251.719C496.432 257.144 497.472 262.537 498.562 267.938C501.948 284.705 505.871 301.413 510.75 317.812C513.69 327.696 516.973 337.501 521 347C523.931 353.913 527.236 360.728 531.438 366.969C533.783 370.452 536.437 373.774 539.531 376.625C541.669 378.595 544.034 380.29 546.156 382.281C549.255 385.188 552.095 388.367 554.781 391.656C562.395 400.98 568.807 411.249 574.656 421.75C579.372 430.216 576.144 424.643 587.219 447.094C588.224 452.775 593.197 456.983 599.094 456.625C662.658 447.946 641.669 451.801 662.656 447.969C668.419 446.917 674.162 445.804 679.906 444.656C681.464 444.345 683.037 444.039 684.593 443.719C684.917 443.652 686.027 443.527 686.281 443.344C688.796 441.531 691.536 440.011 693.812 437.906C694.494 437.276 694.593 436.238 694.937 435.375C695.377 434.265 695.445 432.686 695.593 431.5C695.645 431.091 695.704 430.691 695.749 430.281C695.846 429.422 695.926 428.611 695.999 427.75C696.07 426.921 696.134 425.986 696.187 425.156C696.272 423.796 696.329 422.424 696.374 421.062C696.421 419.635 696.457 418.21 696.468 416.781C696.541 406.834 695.886 396.869 694.968 386.969C694.023 376.779 692.75 366.627 691.281 356.5C686.383 322.726 679.667 289.212 671.843 256C664.859 226.357 657.039 196.857 647.562 167.906C642.355 151.998 636.783 136.026 629.343 121C627.193 116.655 624.841 112.386 622.062 108.406C620.032 105.498 617.736 102.705 614.938 100.5C613.021 98.9891 610.88 97.7262 608.531 97.0309C606.218 96.3464 603.74 96.2474 601.344 96.1559ZM597.312 118.531C598.778 118.508 600.208 118.633 601.656 118.719C601.848 118.925 602.039 119.127 602.219 119.344C604.389 121.965 606.077 125 607.656 128C609.982 132.416 612.014 136.99 613.938 141.594C619.243 154.293 623.673 167.349 627.812 180.469C635.267 204.094 641.693 228.077 647.499 252.156C653.557 277.276 658.956 302.555 663.468 328C667.454 350.479 670.968 373.129 672.687 395.906C673.268 403.62 673.656 411.356 673.468 419.094C673.44 420.239 673.34 421.387 673.281 422.531C672.926 422.601 672.574 422.68 672.218 422.75C665.977 423.972 659.699 425.143 653.437 426.25C636.51 429.241 645.241 427.491 604.562 432.781C599.435 422.036 599.493 421.859 595.938 415.25C589.731 403.716 582.915 392.426 574.969 382C570.743 376.456 566.18 371.151 561.094 366.375C557.878 363.356 554.205 360.901 551.469 357.406C547.694 352.585 544.867 346.971 542.375 341.406C539.07 334.026 536.363 326.387 533.906 318.688C528.302 301.125 524.039 283.153 520.375 265.094C519.214 259.373 518.108 253.623 517.094 247.875C516.784 246.122 516.479 244.381 516.188 242.625C516.131 242.284 516.087 241.935 516.031 241.594C516.041 241.436 516.05 241.386 516.062 241.281C516.135 240.691 516.208 240.091 516.281 239.5C516.491 237.8 516.697 236.106 516.906 234.406C519.857 210.491 522.814 186.57 525.781 162.656C526.773 154.66 527.758 146.684 528.75 138.688C528.977 136.86 529.211 135.015 529.438 133.188C538.116 130.395 546.863 127.821 555.688 125.562C563.5 123.563 571.39 121.777 579.344 120.438C585.282 119.437 591.282 118.628 597.312 118.531Z" fill="black"/>
<path d="M598.391 445.142C598.391 445.142 575.624 391.02 548.604 370.017C521.584 349.014 504.93 241.755 504.93 241.755L519.295 124.761C519.295 124.761 577.545 104.614 604.437 107.614C631.33 110.613 693.902 368.625 683.916 432.116C683.916 432.116 630.789 443.33 598.391 445.142Z" fill="#B876D1"/>
<path d="M601.344 96.1559C599.122 96.0712 596.908 96.1012 594.688 96.1872C588.278 96.4356 581.909 97.3257 575.594 98.4059C568.622 99.5984 561.712 101.094 554.844 102.781C546.344 104.869 537.901 107.224 529.531 109.781C526.097 110.831 522.691 111.938 519.281 113.062C518.403 113.352 517.501 113.641 516.625 113.938C516.391 114.017 515.874 114.075 515.688 114.25C513.483 116.313 511.073 118.185 509.062 120.438C508.62 120.933 508.657 121.707 508.469 122.344C508.087 123.633 508.036 125.239 507.875 126.562C507.811 127.086 507.751 127.601 507.688 128.125C507.624 128.649 507.564 129.164 507.5 129.688C507.373 130.735 507.252 131.796 507.125 132.844C506.998 133.891 506.877 134.921 506.75 135.969C505.348 147.51 503.934 159.052 502.531 170.594C500.604 186.458 498.687 202.325 496.75 218.188C496.131 223.257 495.526 228.337 494.906 233.406C494.694 235.142 494.462 236.858 494.25 238.594C494.174 239.215 494.052 239.843 494.031 240.469C493.997 241.474 494.068 242.494 494.094 243.5C494.117 244.398 494.384 245.337 494.531 246.219C494.837 248.047 495.145 249.893 495.469 251.719C496.432 257.144 497.472 262.537 498.562 267.938C501.948 284.705 505.871 301.413 510.75 317.812C513.69 327.696 516.973 337.501 521 347C523.931 353.913 527.236 360.728 531.438 366.969C533.783 370.452 536.437 373.774 539.531 376.625C541.669 378.595 544.034 380.29 546.156 382.281C549.255 385.188 552.095 388.367 554.781 391.656C562.395 400.98 568.807 411.249 574.656 421.75C579.372 430.216 576.144 424.643 587.219 447.094C588.224 452.775 593.197 456.983 599.094 456.625C662.658 447.946 641.669 451.801 662.656 447.969C668.419 446.917 674.162 445.804 679.906 444.656C681.464 444.345 683.037 444.039 684.593 443.719C684.917 443.652 686.027 443.527 686.281 443.344C688.796 441.531 691.536 440.011 693.812 437.906C694.494 437.276 694.593 436.238 694.937 435.375C695.377 434.265 695.445 432.686 695.593 431.5C695.645 431.091 695.704 430.691 695.749 430.281C695.846 429.422 695.926 428.611 695.999 427.75C696.07 426.921 696.134 425.986 696.187 425.156C696.272 423.796 696.329 422.424 696.374 421.062C696.421 419.635 696.457 418.21 696.468 416.781C696.541 406.834 695.886 396.869 694.968 386.969C694.023 376.779 692.75 366.627 691.281 356.5C686.383 322.726 679.667 289.212 671.843 256C664.859 226.357 657.039 196.857 647.562 167.906C642.355 151.998 636.783 136.026 629.343 121C627.193 116.655 624.841 112.386 622.062 108.406C620.032 105.498 617.736 102.705 614.938 100.5C613.021 98.9891 610.88 97.7262 608.531 97.0309C606.218 96.3464 603.74 96.2474 601.344 96.1559ZM597.312 118.531C598.778 118.508 600.208 118.633 601.656 118.719C601.848 118.925 602.039 119.127 602.219 119.344C604.389 121.965 606.077 125 607.656 128C609.982 132.416 612.014 136.99 613.938 141.594C619.243 154.293 623.673 167.349 627.812 180.469C635.267 204.094 641.693 228.077 647.499 252.156C653.557 277.276 658.956 302.555 663.468 328C667.454 350.479 670.968 373.129 672.687 395.906C673.268 403.62 673.656 411.356 673.468 419.094C673.44 420.239 673.34 421.387 673.281 422.531C672.926 422.601 672.574 422.68 672.218 422.75C665.977 423.972 659.699 425.143 653.437 426.25C636.51 429.241 645.241 427.491 604.562 432.781C599.435 422.036 599.493 421.859 595.938 415.25C589.731 403.716 582.915 392.426 574.969 382C570.743 376.456 566.18 371.151 561.094 366.375C557.878 363.356 554.205 360.901 551.469 357.406C547.694 352.585 544.867 346.971 542.375 341.406C539.07 334.026 536.363 326.387 533.906 318.688C528.302 301.125 524.039 283.153 520.375 265.094C519.214 259.373 518.108 253.623 517.094 247.875C516.784 246.122 516.479 244.381 516.188 242.625C516.131 242.284 516.087 241.935 516.031 241.594C516.041 241.436 516.05 241.386 516.062 241.281C516.135 240.691 516.208 240.091 516.281 239.5C516.491 237.8 516.697 236.106 516.906 234.406C519.857 210.491 522.814 186.57 525.781 162.656C526.773 154.66 527.758 146.684 528.75 138.688C528.977 136.86 529.211 135.015 529.438 133.188C538.116 130.395 546.863 127.821 555.688 125.562C563.5 123.563 571.39 121.777 579.344 120.438C585.282 119.437 591.282 118.628 597.312 118.531Z" fill="black"/>
<path d="M595.826 97.2836C598.372 97.2048 600.905 97.2133 603.446 97.3961C605.05 97.5115 606.649 97.6684 608.198 98.1272C610.063 98.6795 611.791 99.5885 613.371 100.714C616.478 102.926 618.992 105.93 621.16 109.037C624.162 113.338 626.635 117.989 628.92 122.702C635.877 137.05 641.183 152.192 646.156 167.324C655.76 196.544 663.682 226.328 670.731 256.259C678.544 289.439 685.268 322.924 690.16 356.666C691.625 366.773 692.872 376.919 693.815 387.089C694.729 396.951 695.378 406.843 695.305 416.752C695.291 418.628 695.244 420.53 695.165 422.404C695.109 423.732 695.037 425.043 694.94 426.368C694.876 427.235 694.828 428.035 694.743 428.899C694.665 429.689 694.56 430.557 694.462 431.345C694.321 432.468 694.234 433.974 693.815 435.028C693.506 435.805 693.445 436.767 692.831 437.334C690.782 439.227 688.289 440.596 686.027 442.227C685.849 442.354 685.418 442.352 685.211 442.395C684.56 442.53 683.894 442.684 683.243 442.817C680.964 443.283 678.693 443.719 676.41 444.167C671.765 445.079 667.093 445.959 662.436 446.81C651.406 448.823 640.36 450.698 629.258 452.264C619.219 453.681 629.265 452.244 599.032 455.47C593.726 455.792 589.252 452.005 588.347 446.894C576.976 423.851 580.371 429.771 575.61 421.223C569.729 410.665 563.273 400.343 555.619 390.969C552.902 387.642 550.036 384.433 546.902 381.493C544.777 379.499 542.406 377.785 540.267 375.814C537.235 373.02 534.663 369.751 532.366 366.338C528.204 360.156 524.922 353.421 522.019 346.572C518.395 338.024 515.394 329.203 512.655 320.338C507.324 303.079 503.209 285.428 499.637 267.731C498.486 262.027 497.412 256.31 496.404 250.579C496.105 248.883 495.814 247.189 495.532 245.49C495.416 244.79 495.187 244.036 495.167 243.325C495.141 242.434 495.096 241.545 495.11 240.654C495.126 239.727 495.335 238.736 495.448 237.814C495.671 235.986 495.899 234.159 496.123 232.331C496.756 227.151 497.402 221.962 498.034 216.782C500.007 200.633 501.975 184.486 503.939 168.336C505.348 156.757 506.748 145.191 508.157 133.611C508.305 132.393 508.458 131.175 508.607 129.956C508.718 129.042 508.833 128.115 508.944 127.201C509.018 126.591 509.067 125.983 509.141 125.373C509.272 124.295 509.306 122.972 509.703 121.971C510.017 121.178 510.127 120.255 510.715 119.637C512.289 117.984 514.286 116.745 516.058 115.307C516.334 115.083 516.938 114.996 517.267 114.885C518.047 114.622 518.818 114.356 519.6 114.098C522.447 113.16 525.313 112.256 528.176 111.371C537.465 108.499 546.843 105.872 556.293 103.582C563.131 101.926 569.997 100.492 576.932 99.3081C583.166 98.2437 589.501 97.4795 595.826 97.2836ZM599.004 117.388C595.595 117.366 592.184 117.611 588.797 117.978C576.777 119.282 564.911 122.009 553.229 125.064C544.899 127.242 536.627 129.665 528.429 132.318C528.174 134.476 527.909 136.632 527.642 138.785C526.623 147.01 525.596 155.219 524.577 163.444C521.557 187.814 518.529 212.176 515.523 236.549C515.336 238.072 515.149 239.609 514.961 241.132C514.943 241.28 514.923 241.434 514.905 241.582C515.003 242.186 515.113 242.777 515.214 243.381C515.586 245.6 515.969 247.83 516.367 250.045C517.466 256.157 518.647 262.241 519.91 268.321C523.635 286.267 527.921 304.228 533.715 321.632C536.322 329.46 539.131 337.232 542.685 344.688C544.908 349.352 547.391 353.991 550.586 358.072C551.504 359.244 552.5 360.377 553.594 361.389C554.535 362.261 555.589 362.988 556.575 363.807C557.865 364.881 559.118 366.005 560.342 367.153C565.385 371.888 569.903 377.178 574.092 382.674C582.003 393.054 588.805 404.285 594.983 415.768C598.618 422.525 598.318 422.239 603.952 434.016C647.134 428.351 637.214 430.318 654.676 427.212C660.829 426.117 666.988 424.958 673.121 423.753C673.534 423.672 673.944 423.582 674.358 423.5C674.446 422.043 674.576 420.573 674.611 419.114C674.799 411.342 674.408 403.582 673.824 395.833C672.101 373.014 668.595 350.336 664.601 327.817C660.085 302.35 654.668 277.015 648.602 251.873C642.787 227.769 636.358 203.794 628.892 180.146C624.598 166.543 620.016 152.99 614.44 139.853C612.527 135.346 610.497 130.865 608.17 126.554C606.685 123.804 605.081 121.039 603.081 118.625C602.764 118.243 602.427 117.872 602.068 117.528C602.04 117.526 602.012 117.53 601.984 117.528C600.988 117.455 600.002 117.394 599.004 117.388Z" fill="black"/>
<path d="M616.528 510.9C616.528 381.512 511.639 276.623 382.252 276.623C312.3 276.623 249.509 307.281 206.582 355.893C170.108 397.198 147.975 451.464 147.975 510.9C147.975 640.287 252.864 745.176 382.252 745.176C511.639 745.176 616.528 640.287 616.528 510.9Z" fill="#F3886D" stroke="black" stroke-width="0.0185569" stroke-miterlimit="10" stroke-linecap="round" stroke-linejoin="round"/>
<path d="M382.254 269.933C515.33 269.933 623.219 377.822 623.219 510.898C623.219 643.974 515.33 751.863 382.254 751.863C249.178 751.863 141.289 643.974 141.289 510.898C141.289 451.369 162.969 395.19 201.572 351.473C247.029 299.997 312.224 269.933 382.254 269.933ZM382.254 283.289C316.095 283.289 254.529 311.667 211.582 360.302C175.114 401.601 154.645 454.657 154.645 510.898C154.645 636.597 256.555 738.507 382.254 738.507C507.953 738.507 609.863 636.597 609.863 510.898C609.863 385.199 507.953 283.289 382.254 283.289Z" fill="black"/>
<path d="M212.66 343.822C237.003 330.395 284.288 372.201 307.041 407.652C331.76 388.968 378.119 375.795 427.777 375.795C500.965 375.795 554.006 441.102 545.026 482.528C538.22 513.924 494.146 550.742 431.657 557.517C438.052 572.598 441.807 588.072 441.807 602.87C441.807 667.448 391.433 683.201 320.397 683.201C249.361 683.201 162.473 607.915 164.852 493.915C164.889 492.162 165.692 490.875 166.989 489.866C147.811 476.574 142.681 487.109 147.822 463.152C160.325 404.885 212.66 343.822 212.66 343.822Z" fill="#F9B192"/>
<path d="M221.03 334.266C233.629 333.37 248.591 339.816 264.64 351.783C280.759 363.803 296.867 380.98 308.84 398.092C336.452 380.183 381.377 368.765 427.776 368.765C463.857 368.765 497.701 383.92 522.222 408.692C545.184 431.891 556.916 460.814 551.885 484.018C548.02 501.852 534.006 520.276 513.28 534.995C493.428 549.093 468.582 559.018 441.3 563.281C446.132 576.832 448.836 590.191 448.836 602.87C448.836 636.282 436.002 659.492 411.159 673.388C389.929 685.262 360.534 690.23 320.396 690.23C282.324 690.23 241.087 670.088 209.895 636.048C175.924 598.975 156.667 549.114 157.822 493.775C157.831 493.356 157.943 492.969 157.991 492.566C156.697 491.858 155.433 491.224 154.139 490.654C152.59 489.972 148.063 488.221 147.503 487.983C142.704 485.933 139.846 483.029 139.096 477.889C138.574 474.312 139.142 470.099 140.952 461.665C141.519 459.019 142.16 456.355 142.892 453.651C148.607 432.547 159.059 410.244 172.893 387.548C180.405 375.222 188.469 363.533 196.511 352.879C199.33 349.146 201.944 345.806 204.3 342.898C205.129 341.874 207.157 339.419 207.308 339.242C207.856 338.603 208.54 338.074 209.277 337.668C212.898 335.671 216.83 334.564 221.03 334.266ZM223.335 348.296C220.926 348.296 218.839 348.807 216.981 349.646C216.333 350.426 215.706 351.141 215.209 351.755C212.952 354.542 210.449 357.769 207.73 361.371C199.953 371.674 192.18 382.959 184.927 394.858C171.729 416.513 161.793 437.688 156.472 457.335C155.804 459.802 155.216 462.218 154.701 464.617C153.416 470.606 153.022 473.579 153.07 475.105C153.336 475.215 157.845 476.919 159.79 477.776C163.502 479.411 167.109 481.391 170.981 484.074C174.607 486.588 174.882 491.627 171.909 494.675C170.987 546.102 188.845 592.249 220.27 626.545C248.922 657.812 286.487 676.172 320.396 676.171C399.171 676.171 434.777 656.255 434.777 602.87C434.777 589.556 431.471 575.088 425.189 560.272C423.349 555.932 426.21 551.023 430.897 550.515C459.297 547.437 485.133 537.741 505.155 523.523C523.237 510.682 535.123 495.066 538.164 481.038C542.053 463.099 532.121 438.675 512.212 418.561C490.248 396.371 459.965 382.824 427.776 382.824C380.794 382.824 335.346 395.061 311.286 413.247C308.019 415.716 303.348 414.894 301.136 411.447C289.875 393.903 272.788 375.403 256.232 363.058C243.181 353.325 231.709 348.296 223.335 348.296Z" fill="black" fill-opacity="0.5"/>
<path d="M242.539 308.819C245.114 309.214 247.54 310.603 249.203 312.868C252.53 317.4 251.541 323.769 247.01 327.096C191.508 367.842 158.159 436.625 158.159 510.898C158.159 634.664 258.488 734.993 382.254 734.993C506.364 734.993 608.429 633.957 608.429 510.533C608.429 484.407 606.495 464.804 601.512 447.522C599.955 442.12 603.084 436.483 608.486 434.925C613.887 433.368 619.525 436.469 621.082 441.87C626.694 461.336 628.786 482.665 628.786 510.533C628.786 645.246 517.562 755.35 382.254 755.35C247.245 755.35 137.803 645.907 137.803 510.898C137.803 430.269 174.142 355.336 234.976 310.675C237.242 309.012 239.965 308.425 242.539 308.819Z" fill="black"/>
<path d="M193.22 491.37C198.657 480.821 185.348 466.068 163.494 458.419C141.639 450.77 119.515 453.122 114.077 463.671C108.64 474.221 121.949 488.974 143.804 496.623C148.706 498.338 153.621 499.551 158.359 500.281C174.744 502.804 189.002 499.554 193.22 491.37Z" fill="#FF497F" stroke="black" stroke-width="0.019536" stroke-miterlimit="10" stroke-linecap="round" stroke-linejoin="round"/>
<path d="M477.358 550.021C481.859 539.653 467.782 526.337 445.916 520.278C435.666 517.438 425.524 516.697 417.178 517.778C407.718 519.004 400.565 522.572 398.174 528.08C393.672 538.448 407.749 551.764 429.615 557.823C451.481 563.881 472.856 560.388 477.358 550.021Z" fill="#FF497F" stroke="black" stroke-width="0.019536" stroke-miterlimit="10" stroke-linecap="round" stroke-linejoin="round"/>
<path d="M218.724 412.881C226.677 412.881 233.514 418.779 233.514 426.603C233.514 434.426 226.677 440.296 218.724 440.296C210.771 440.296 203.934 434.427 203.934 426.603C203.934 418.779 210.771 412.881 218.724 412.881Z" fill="black"/>
<path d="M419.623 457.362C427.391 457.362 433.738 463.579 433.738 471.336C433.738 479.093 427.391 485.339 419.623 485.339C411.854 485.339 405.508 479.093 405.508 471.336C405.508 463.579 411.854 457.362 419.623 457.362Z" fill="black"/>
<path d="M253.898 549.53C256.789 549.207 259.751 550.601 261.264 553.298C261.784 554.233 262.295 555.143 262.98 555.969C265.273 558.737 268.226 558.971 271.527 558.05C273.178 557.589 274.754 556.912 276.251 556.082C276.7 555.832 277.141 555.574 277.572 555.294C277.706 555.208 277.835 555.104 277.966 555.013C277.985 555 278 555.001 278.022 554.985C280.861 554.916 283.74 554.323 286.542 554.788C287.453 554.94 287.88 556.054 288.51 556.728C288.91 557.156 289.165 557.847 289.41 558.387C289.499 558.585 289.574 558.78 289.663 558.978C289.688 559.033 289.722 559.092 289.747 559.146C289.76 559.174 289.788 559.258 289.775 559.231C289.961 559.628 290.149 560.044 290.338 560.44C290.531 560.845 290.728 561.247 290.928 561.649C291.321 562.439 291.691 563.151 292.109 563.926C295.369 569.981 299.641 576.176 305.718 579.7C310.205 582.302 315.44 582.781 320.395 581.303C322.116 580.79 323.779 580.073 325.344 579.194C325.782 578.948 326.217 578.684 326.637 578.407C326.782 578.311 326.917 578.198 327.059 578.097C327.075 578.086 327.295 577.933 327.228 577.985C330.298 575.573 334.741 576.096 337.153 579.166C339.565 582.236 339.042 586.68 335.972 589.091C332.605 591.728 328.516 593.633 324.444 594.855C321.274 595.807 317.971 596.333 314.659 596.346C311.88 596.356 309.108 596.018 306.421 595.305C295.543 592.421 287.317 584.018 281.481 574.752C280.705 573.52 280.024 572.227 279.316 570.956C277.173 571.856 274.97 572.602 272.68 573.008C265.752 574.237 258.718 572.503 253.532 567.638C251.361 565.6 249.676 563.188 248.218 560.609C246.199 557.013 247.49 552.449 251.086 550.43C251.985 549.925 252.934 549.638 253.898 549.53Z" fill="black"/>
<path d="M385.46 434.616C387.365 434.776 389.219 435.656 390.55 437.231C392.655 439.75 395.495 441.467 398.422 442.883C402.718 444.96 407.338 446.436 411.947 447.634C420.066 449.746 428.361 451.052 436.69 451.993C445.877 453.03 455.191 453.651 464.442 453.623C468.346 453.607 471.511 456.749 471.527 460.653C471.544 464.557 468.402 467.722 464.498 467.738C455.471 467.781 446.408 467.238 437.421 466.445C426.858 465.512 416.274 464.07 406.014 461.327C396.22 458.71 385.876 454.8 379.134 446.875C376.473 443.725 376.856 439.02 380.006 436.359C381.581 435.029 383.556 434.456 385.46 434.616Z" fill="black"/>
<path d="M196.286 395.982C198.186 396.188 199.999 397.131 201.291 398.737C202.882 400.732 204.688 402.595 206.859 403.967C213.552 408.2 221.453 408.397 229.015 406.807C232.303 406.116 235.528 405.084 238.631 403.799C239.681 403.363 240.73 402.89 241.752 402.393C242.125 402.211 242.482 402.023 242.849 401.83C242.954 401.775 243.054 401.718 243.158 401.662C243.207 401.635 243.347 401.55 243.299 401.577C246.692 399.647 251.012 400.855 252.943 404.248C254.873 407.642 253.693 411.934 250.3 413.865C246.646 415.941 242.691 417.567 238.715 418.898C226.387 423.023 212.265 424.164 200.56 417.548C196.31 415.145 192.712 411.882 189.651 408.1C187.067 404.887 187.59 400.169 190.804 397.585C192.41 396.293 194.387 395.776 196.286 395.982Z" fill="black"/>
<path d="M138.562 446.874C147.104 446.893 156.522 448.545 165.807 451.795C177.494 455.885 187.426 462.008 193.812 469.087C201.115 477.182 203.663 486.441 199.464 494.589C193.568 506.029 176.672 510.228 157.288 507.242C152.034 506.433 146.708 505.077 141.486 503.249C129.799 499.159 119.867 493.036 113.481 485.957C106.178 477.862 103.63 468.603 107.83 460.455C112.533 451.329 124.325 446.842 138.562 446.874ZM139.799 460.961C137.568 460.906 135.393 460.998 133.36 461.214C126.268 461.968 121.701 464.256 120.342 466.894C117.573 472.266 127.74 483.543 146.125 489.978C150.536 491.522 155.025 492.646 159.425 493.324C173.506 495.493 184.606 492.757 186.98 488.15C189.748 482.778 179.553 471.501 161.168 465.066C153.902 462.523 146.49 461.126 139.799 460.961Z" fill="black"/>
<path d="M423.698 510.28C431.361 510.159 439.65 511.257 447.794 513.513C459.481 516.751 469.607 522.026 476.361 528.415C484.147 535.781 487.382 544.6 483.813 552.821C477.477 567.413 452.586 571.485 427.747 564.602C416.061 561.364 405.934 556.062 399.18 549.672C391.394 542.307 388.159 533.487 391.729 525.266C395.248 517.16 404.336 512.361 416.275 510.814C418.663 510.504 421.143 510.32 423.698 510.28ZM424.063 524.338C421.984 524.366 419.982 524.513 418.074 524.76C410.532 525.738 405.771 528.272 404.634 530.89C403.822 532.762 404.893 535.747 408.824 539.465C413.786 544.159 421.885 548.39 431.486 551.05C441.184 553.737 451.021 554.413 458.873 553.13C465.649 552.023 469.855 549.647 470.907 547.226C471.719 545.354 470.62 542.368 466.689 538.65C461.727 533.956 453.628 529.726 444.027 527.066C437.199 525.174 430.303 524.256 424.063 524.338Z" fill="black"/>
<path d="M616.798 510.37C616.798 380.982 511.908 276.093 382.521 276.093C312.569 276.093 249.778 306.751 206.851 355.363C170.377 396.668 148.244 450.934 148.244 510.37C148.244 639.757 253.134 744.646 382.521 744.646C511.908 744.646 616.798 639.757 616.798 510.37Z" fill="#F3886D" stroke="black" stroke-width="0.0185569" stroke-miterlimit="10" stroke-linecap="round" stroke-linejoin="round"/>
<path d="M382.524 269.402C515.6 269.402 623.489 377.291 623.489 510.367C623.489 643.443 515.601 751.332 382.524 751.332C249.448 751.332 141.559 643.443 141.559 510.367C141.559 450.838 163.239 394.659 201.843 350.942C247.299 299.466 312.494 269.402 382.524 269.402ZM382.524 282.758C316.365 282.758 254.799 311.136 211.853 359.771C175.384 401.07 154.915 454.126 154.915 510.367C154.915 636.066 256.825 737.976 382.524 737.976C508.223 737.976 610.133 636.066 610.134 510.367C610.134 384.668 508.223 282.758 382.524 282.758Z" fill="black"/>
<path d="M212.929 343.29C237.273 329.864 284.557 371.67 307.311 407.121C332.029 388.437 378.388 375.264 428.046 375.264C501.235 375.264 554.275 440.571 545.295 481.997C538.49 513.393 494.415 550.211 431.926 556.986C438.321 572.066 442.077 587.541 442.077 602.339C442.077 666.917 391.702 682.67 320.666 682.67C249.63 682.67 162.742 607.384 165.122 493.384C165.158 491.631 165.962 490.344 167.259 489.335C148.08 476.043 142.951 486.578 148.091 462.621C160.594 404.353 212.929 343.29 212.929 343.29Z" fill="#F9B192"/>
<path d="M221.299 333.736C233.898 332.84 248.861 339.286 264.909 351.253C281.029 363.273 297.137 380.45 309.109 397.562C336.721 379.653 381.646 368.235 428.045 368.235C464.126 368.235 497.971 383.39 522.491 408.162C545.454 431.361 557.185 460.284 552.155 483.488C548.289 501.322 534.276 519.746 513.55 534.465C493.697 548.563 468.852 558.488 441.57 562.751C446.401 576.302 449.105 589.661 449.105 602.34C449.105 635.752 436.271 658.962 411.428 672.858C390.199 684.732 360.803 689.7 320.665 689.7C282.593 689.7 241.356 669.558 210.165 635.518C176.194 598.445 156.936 548.584 158.091 493.245C158.1 492.826 158.212 492.439 158.26 492.036C156.967 491.327 155.702 490.694 154.408 490.124C152.86 489.441 148.332 487.691 147.772 487.453C142.973 485.403 140.116 482.499 139.365 477.359C138.843 473.781 139.411 469.569 141.221 461.135C141.789 458.489 142.429 455.825 143.161 453.121C148.877 432.017 159.329 409.714 173.162 387.018C180.674 374.692 188.739 363.003 196.781 352.349C199.599 348.616 202.213 345.276 204.569 342.368C205.398 341.344 207.426 338.889 207.578 338.712C208.126 338.073 208.809 337.544 209.546 337.138C213.167 335.141 217.099 334.034 221.299 333.736ZM223.605 347.766C221.196 347.766 219.108 348.277 217.25 349.116C216.602 349.896 215.976 350.611 215.479 351.224C213.221 354.012 210.718 357.239 208 360.841C200.222 371.144 192.449 382.429 185.196 394.328C171.998 415.983 162.063 437.158 156.742 456.805C156.074 459.272 155.485 461.688 154.97 464.087C153.685 470.076 153.291 473.049 153.34 474.575C153.605 474.685 158.114 476.389 160.06 477.246C163.771 478.881 167.379 480.861 171.25 483.544C174.877 486.058 175.152 491.097 172.178 494.145C171.257 545.571 189.114 591.719 220.54 626.014C249.191 657.282 286.756 675.641 320.665 675.641C399.44 675.641 435.046 655.725 435.046 602.34C435.046 589.026 431.741 574.558 425.458 559.742C423.618 555.402 426.479 550.493 431.166 549.985C459.566 546.906 485.403 537.211 505.424 522.993C523.506 510.152 535.393 494.536 538.434 480.508C542.322 462.569 532.39 438.145 512.481 418.031C490.517 395.841 460.235 382.294 428.045 382.294C381.063 382.294 335.615 394.531 311.555 412.717C308.288 415.186 303.617 414.364 301.405 410.917C290.144 393.373 273.058 374.873 256.502 362.528C243.45 352.795 231.979 347.765 223.605 347.766Z" fill="black" fill-opacity="0.5"/>
<path d="M242.809 308.289C245.384 308.684 247.809 310.073 249.472 312.338C252.799 316.87 251.811 323.239 247.279 326.566C191.777 367.311 158.429 436.095 158.429 510.368C158.429 634.134 258.758 734.463 382.523 734.463C506.633 734.463 608.699 633.427 608.699 510.003C608.699 483.877 606.765 464.274 601.782 446.992C600.224 441.59 603.353 435.953 608.755 434.395C614.156 432.838 619.794 435.939 621.351 441.34C626.963 460.805 629.055 482.134 629.056 510.003C629.056 644.716 517.832 754.82 382.523 754.82C247.514 754.82 138.072 645.377 138.072 510.368C138.072 429.739 174.411 354.806 235.245 310.145C237.511 308.482 240.234 307.895 242.809 308.289Z" fill="black"/>
<path d="M193.491 490.84C198.929 480.291 185.62 465.538 163.765 457.889C141.91 450.24 119.786 452.592 114.349 463.141C108.911 473.691 122.22 488.444 144.075 496.093C148.977 497.808 153.893 499.021 158.631 499.751C175.015 502.274 189.274 499.024 193.491 490.84Z" fill="#FF497F" stroke="black" stroke-width="0.019536" stroke-miterlimit="10" stroke-linecap="round" stroke-linejoin="round"/>
<path d="M477.628 549.49C482.129 539.122 468.052 525.806 446.186 519.747C435.937 516.907 425.795 516.166 417.448 517.247C407.989 518.473 400.835 522.041 398.444 527.549C393.942 537.916 408.019 551.233 429.886 557.292C451.752 563.35 473.127 559.857 477.628 549.49Z" fill="#FF497F" stroke="black" stroke-width="0.019536" stroke-miterlimit="10" stroke-linecap="round" stroke-linejoin="round"/>
<path d="M138.831 446.344C147.373 446.363 156.792 448.015 166.077 451.265C177.764 455.355 187.695 461.478 194.081 468.557C201.384 476.652 203.933 485.911 199.733 494.059C193.837 505.499 176.941 509.698 157.557 506.712C152.304 505.903 146.978 504.547 141.755 502.719C130.068 498.629 120.137 492.506 113.75 485.427C106.447 477.332 103.899 468.073 108.099 459.925C112.802 450.799 124.594 446.312 138.831 446.344ZM140.068 460.431C137.838 460.376 135.662 460.468 133.629 460.684C126.537 461.438 121.97 463.726 120.611 466.364C117.842 471.736 128.009 483.013 146.395 489.448C150.805 490.992 155.295 492.116 159.694 492.794C173.775 494.963 184.875 492.227 187.249 487.62C190.018 482.248 179.822 470.971 161.437 464.536C154.171 461.993 146.76 460.596 140.068 460.431Z" fill="black"/>
<path d="M423.968 509.749C431.631 509.628 439.921 510.726 448.065 512.982C459.751 516.22 469.877 521.495 476.632 527.884C484.418 535.249 487.652 544.069 484.083 552.29C477.748 566.882 452.856 570.954 428.017 564.071C416.331 560.833 406.204 555.531 399.45 549.141C391.664 541.776 388.429 532.956 391.999 524.735C395.518 516.629 404.607 511.83 416.545 510.283C418.934 509.973 421.414 509.789 423.968 509.749ZM424.334 523.807C422.254 523.835 420.252 523.982 418.345 524.229C410.802 525.207 406.041 527.741 404.905 530.359C404.092 532.231 405.163 535.216 409.094 538.934C414.056 543.628 422.156 547.859 431.757 550.519C441.454 553.206 451.292 553.882 459.143 552.599C465.92 551.492 470.126 549.116 471.177 546.695C471.99 544.823 470.89 541.837 466.959 538.119C461.997 533.425 453.898 529.195 444.297 526.535C437.47 524.643 430.573 523.725 424.334 523.807Z" fill="black"/>
<path d="M395.792 450.592C395.792 441.605 389.134 434.32 380.923 434.32C372.711 434.32 366.053 441.605 366.053 450.592C366.053 459.578 372.711 466.864 380.923 466.864C389.134 466.864 395.792 459.578 395.792 450.592Z" fill="black"/>
<path d="M230.829 423.098C230.829 413.492 224.675 405.704 217.082 405.704C209.49 405.704 203.336 413.492 203.336 423.098C203.336 432.704 209.49 440.492 217.082 440.492C224.675 440.492 230.829 432.704 230.829 423.098Z" fill="black"/>
<path d="M249.256 541.087C249.256 541.087 267.211 515.838 287.411 534.354C307.61 552.87 323.882 583.729 316.588 591.025C309.294 598.319 255.989 583.73 249.256 577.558C242.523 571.386 249.256 541.087 249.256 541.087Z" fill="#AC3A34" stroke="black" stroke-width="0.01875" stroke-miterlimit="10" stroke-linecap="round" stroke-linejoin="round"/>
<path d="M391.929 402.341C393.648 402.503 395.324 403.323 396.512 404.759C398.888 407.63 398.483 411.886 395.612 414.263C395.156 414.64 394.405 415.237 393.391 415.95C391.749 417.104 389.897 418.248 387.908 419.324C381.021 423.046 373.955 425.044 366.904 424.272C363.997 423.954 361.192 423.173 358.553 421.854C355.22 420.187 353.849 416.135 355.517 412.8C357.183 409.467 361.237 408.097 364.57 409.764C365.747 410.352 367.016 410.713 368.366 410.86C372.219 411.282 376.801 409.996 381.497 407.458C382.995 406.648 384.399 405.764 385.63 404.899C386.34 404.4 386.813 404.021 387.008 403.859C388.444 402.671 390.209 402.179 391.929 402.341Z" fill="black"/>
<path d="M215.916 379.368C217.63 379.575 219.264 380.432 220.414 381.899C222.308 384.312 224.343 385.841 226.516 386.678C229.988 388.019 234.019 387.632 238.016 386.088C238.82 385.778 239.53 385.454 240.153 385.132C240.486 384.959 240.679 384.845 240.715 384.823C243.876 382.848 248.047 383.827 250.022 386.988C251.996 390.149 251.018 394.291 247.857 396.266C247.524 396.474 247.034 396.765 246.367 397.11C245.322 397.651 244.163 398.189 242.88 398.685C236.037 401.327 228.739 402.01 221.651 399.275C217.181 397.55 213.189 394.524 209.814 390.221C207.514 387.289 208.035 383.046 210.967 380.746C212.433 379.596 214.201 379.161 215.916 379.368Z" fill="black"/>
<path d="M305.863 556.254C315.876 571.231 321.375 586.235 316.575 591.035C312.286 595.324 292.162 591.979 274.877 587.295C284.706 568.875 305.671 556.367 305.863 556.254Z" fill="#FF5A51" stroke="black" stroke-width="0.01875" stroke-miterlimit="10" stroke-linecap="round" stroke-linejoin="round"/>
<path d="M274.54 520.938C280.567 521.551 286.468 524.327 291.973 529.374C302.276 538.818 311.994 551.662 318.29 563.789C325.618 577.9 327.834 589.308 321.355 595.787C315.498 601.644 301.573 600.671 281.176 595.927C264.579 592.067 249.219 586.68 244.708 582.543C239.892 578.129 238.944 570.487 239.759 559.375C240.023 555.778 240.496 551.964 241.109 548.1C241.449 545.951 241.811 543.92 242.177 542.054C242.399 540.923 242.578 540.082 242.683 539.608C242.879 538.728 243.229 537.896 243.752 537.162C244.175 536.566 244.904 535.675 245.889 534.547C247.49 532.711 249.317 530.868 251.371 529.149C256.527 524.833 262.238 521.887 268.495 521.051C270.523 520.78 272.531 520.734 274.54 520.938ZM271.363 534.294C267.607 534.437 263.883 536.272 260.032 539.496C258.554 540.733 257.201 542.071 256.039 543.404C255.846 543.626 255.728 543.821 255.561 544.023C255.504 544.3 255.456 544.486 255.42 544.669C255.085 546.382 254.75 548.257 254.436 550.237C253.878 553.753 253.433 557.177 253.199 560.359C252.927 564.066 252.956 567.247 253.255 569.666C253.398 570.816 253.585 571.734 253.818 572.365C253.875 572.522 253.915 572.589 253.958 572.674C254.792 573.361 258.557 575.075 263.827 576.92C269.763 578.999 277.065 581.099 284.24 582.768C291.912 584.552 298.994 585.753 304.429 586.142C307.17 586.338 309.385 586.325 310.98 586.114C311.239 586.08 311.341 586.042 311.542 586.002C311.603 585.253 311.573 584.284 311.317 582.965C310.652 579.533 308.921 575.028 306.313 570.003C300.732 559.255 291.984 547.687 282.863 539.327C278.914 535.707 275.119 534.152 271.363 534.294Z" fill="black"/>
<path d="M304.849 549.59C307.361 549.213 309.991 550.28 311.485 552.514C316.847 560.533 320.959 568.546 323.182 575.373C326.014 584.071 326.021 591.148 321.354 595.815C317.264 599.905 310.329 600.449 299.816 599.245C292.13 598.364 282.642 596.402 273.105 593.818C268.92 592.684 266.874 587.944 268.916 584.118C273.684 575.182 280.929 567.042 289.638 559.74C292.655 557.211 295.654 554.946 298.495 552.992C299.504 552.298 300.426 551.69 301.25 551.164C301.775 550.83 302.203 550.568 302.431 550.433C303.202 549.977 304.012 549.715 304.849 549.59ZM303.781 565.926C301.979 567.242 300.191 568.524 298.326 570.087C293.483 574.148 289.275 578.473 285.814 582.965C291.441 584.235 296.85 585.316 301.363 585.833C304.978 586.247 307.988 586.369 310.164 586.199C310.797 586.149 311.153 586.058 311.569 585.974C311.577 585.851 311.597 585.815 311.598 585.664C311.6 584.187 311.188 582.106 310.36 579.563C309.075 575.617 306.644 570.839 303.781 565.926Z" fill="black"/>
<path d="M630.674 321.368C630.674 321.368 557.014 116.606 486.22 54.5879C486.22 54.5879 340.849 82.7761 202.773 251.777C202.773 251.777 213.468 284.086 232.594 308.623C232.594 308.623 414.318 283.556 532.086 389.365C532.086 389.365 543.182 400.021 562.135 393.404C581.089 386.787 623.133 361.612 631.484 348.284C631.484 348.284 633.15 332.879 630.674 321.368Z" fill="#93E9CA"/>
<path d="M484.689 46.8121C484.558 46.7821 484.314 46.9108 484.189 46.9371C483.733 47.0324 483.267 47.1161 482.813 47.2184C481.108 47.6026 479.412 48.0297 477.72 48.4684C472.036 49.9415 466.394 51.6452 460.813 53.4684C440.235 60.1907 420.279 68.7691 400.939 78.4684C361.143 98.4259 323.95 123.505 289.782 152C272.105 166.743 255.132 182.392 239.095 198.906C227.789 210.548 216.873 222.521 206.313 234.844C203.727 237.862 201.187 240.934 198.657 244C197.847 244.982 196.792 246.054 196.126 247.156C195.885 247.556 195.474 247.913 195.407 248.375C195.122 250.36 195.177 252.373 195.063 254.375C195.046 254.678 195.343 255.195 195.439 255.469C195.788 256.467 196.164 257.477 196.532 258.469C197.677 261.553 198.884 264.591 200.157 267.625C204.367 277.657 209.184 287.461 214.751 296.812C217.515 301.454 220.465 305.984 223.657 310.344C224.483 311.471 225.341 312.629 226.22 313.719C226.272 313.783 226.369 313.929 226.407 313.969C226.622 314.196 226.77 314.514 227.063 314.625C229.233 315.444 231.507 316.026 233.72 316.719C239.964 315.883 246.248 315.444 252.532 315.062C263.98 314.367 275.472 314.132 286.939 314.281C320.836 314.722 354.772 318.478 387.782 326.281C424.57 334.978 460.093 348.939 492.032 369.281C500.218 374.495 508.129 380.196 515.689 386.281C519.371 389.245 522.921 392.317 526.47 395.438C526.431 395.405 526.526 395.497 526.563 395.531C526.575 395.541 526.584 395.553 526.595 395.562C526.692 395.651 526.808 395.758 526.907 395.844C527.149 396.053 527.407 396.239 527.657 396.438C528.407 397.032 529.165 397.606 529.97 398.125C532.235 399.585 534.682 400.751 537.22 401.656C539.344 402.414 541.525 402.981 543.751 403.344C546.365 403.77 549.043 403.921 551.689 403.812C559.43 403.494 566.636 400.816 573.626 397.656C580.079 394.739 586.371 391.455 592.532 387.969C604.317 381.301 615.949 373.963 626.407 365.344C629.785 362.56 633.057 359.61 635.876 356.25C636.535 355.464 637.128 354.745 637.72 353.906C637.971 353.55 638.268 353.214 638.439 352.812C638.948 351.614 639.322 350.355 639.751 349.125C639.885 348.741 639.842 348.213 639.876 347.812C639.945 347.004 639.98 346.185 640.032 345.375C640.227 342.377 640.354 339.379 640.345 336.375C640.332 332.511 640.141 328.617 639.657 324.781C639.512 323.625 639.653 324.792 638.813 319.75C638.562 318.486 637.978 317.403 637.251 316.438C637.217 316.346 637.137 316.137 637.063 315.938C636.464 314.31 635.859 312.686 635.251 311.062C633.375 306.056 631.469 301.077 629.532 296.094C623.337 280.155 616.859 264.326 610.157 248.594C598.321 220.81 585.734 193.324 571.97 166.438C561.457 145.902 550.301 125.666 537.876 106.219C527.802 90.4503 516.878 75.0654 504.22 61.2496C501.241 57.9983 498.156 54.8594 494.939 51.8434C494.548 51.4772 494.177 51.1113 493.782 50.7496C493.079 50.1051 492.371 49.4455 491.657 48.8121C491.488 48.6617 491.14 48.3255 490.97 48.2808C488.893 47.7348 486.781 47.2933 484.689 46.8121ZM484.001 63.2808C485.107 64.3144 486.21 65.3386 487.282 66.4058C490.607 69.7139 493.784 73.1971 496.845 76.7496C506.658 88.1403 515.384 100.441 523.532 113.062C536.129 132.575 547.383 152.932 557.97 173.594C571.029 199.081 582.993 225.123 594.282 251.438C601.122 267.381 607.719 283.435 614.032 299.594C616.152 305.018 618.234 310.454 620.282 315.906C620.965 317.725 621.642 319.552 622.313 321.375C622.387 321.574 622.459 321.77 622.532 321.969C622.557 322.315 622.463 322.65 622.532 323C623.184 326.881 623.043 325.723 623.189 326.875C623.305 327.8 623.394 328.633 623.47 329.562C623.725 332.691 623.782 335.832 623.72 338.969C623.682 340.881 623.601 342.81 623.47 344.719C623.457 344.907 623.452 345.093 623.439 345.281C623.151 345.635 622.848 345.995 622.563 346.312C621.188 347.844 619.67 349.235 618.126 350.594C613.364 354.784 608.179 358.501 602.939 362.062C597.728 365.604 592.347 368.888 586.907 372.062C580.829 375.61 574.602 378.938 568.22 381.906C561.056 385.237 553.322 388.536 545.282 386.781C544.277 386.562 543.305 386.274 542.345 385.906C538.32 384.365 536.069 381.767 532.813 379C529.635 376.298 526.398 373.649 523.126 371.062C511.271 361.69 498.551 353.359 485.376 345.969C446.898 324.385 404.148 311.165 360.72 304.125C332.123 299.489 303.089 297.478 274.126 297.875C264.46 298.007 254.796 298.409 245.157 299.156C242.217 299.384 239.278 299.692 236.345 300C235.79 299.233 235.196 298.419 234.689 297.688C232.258 294.187 229.992 290.587 227.845 286.906C223.486 279.435 219.633 271.683 216.189 263.75C214.694 260.307 213.378 256.772 212.063 253.25C212.831 252.319 213.6 251.393 214.376 250.469C217.555 246.679 220.756 242.92 224.001 239.188C233.283 228.512 242.878 218.071 252.813 208C297.423 162.783 348.239 123.34 404.876 94.3121C421.661 85.7092 438.931 78.0003 456.689 71.6246C463.377 69.223 470.132 67.0014 476.97 65.0621C479.291 64.4039 481.652 63.8537 484.001 63.2808Z" fill="black"/>
<path d="M266.167 307.651C345.187 290.562 441.481 335.478 488.208 358.665C502.378 365.697 509.437 372.91 509.626 371.441C519.946 291.002 479.692 217.138 412.907 200.468C345.463 183.633 274.49 231 246.348 308.188C245.927 309.342 252.81 310.54 266.167 307.651Z" fill="#B7F2CC"/>
<path d="M421.03 329.45L467.15 306.021L415.101 301.395L442.061 274.291L403.918 276.534L397.233 207.878L342.594 265.868L322.593 243.783L325.031 284.654L301.672 281.301L323.896 307.961L421.03 329.45Z" fill="#DFFFEA"/>
<path d="M430.926 146.723C436.082 146.728 441.698 149.745 443.551 161.822C443.551 161.822 434.809 171.806 422.716 190.671C437.466 195.808 448.556 201.215 448.556 201.215C454.221 217.181 437.871 222.753 437.871 222.753C432.555 219.687 421.444 215.961 409.81 212.377C399.725 230.515 388.791 253.141 378.965 280.449C378.965 280.449 362.991 291.04 356.162 274.179C356.162 274.179 369.863 239.174 386.304 205.573C378.477 203.489 367.915 200.652 367.915 200.652C358.584 193.717 373.117 181.701 373.117 181.701C380.622 181.011 389.143 181.908 397.691 183.641C405.781 168.991 413.938 156.295 421.085 149.732C421.085 149.732 425.77 146.718 430.926 146.723Z" fill="#FFA0CA"/>
<path d="M637.387 320.719C637.387 320.719 563.727 115.957 492.932 53.9395C492.932 53.9395 347.561 82.1276 209.486 251.128C209.486 251.128 220.181 283.438 239.307 307.974C239.307 307.974 421.031 282.907 538.799 388.717C538.799 388.717 549.895 399.373 568.848 392.756C587.801 386.139 629.846 360.964 638.197 347.636C638.197 347.636 639.863 332.231 637.387 320.719Z" fill="#AF93E5"/>
<path d="M272.88 307.003C351.9 289.914 448.193 334.829 494.921 358.016C509.09 365.048 516.15 372.261 516.339 370.791C526.659 290.353 486.405 216.49 419.62 199.819C352.176 182.984 281.203 230.351 253.061 307.54C252.64 308.694 259.522 309.891 272.88 307.003Z" fill="#ABACE3"/>
<path d="M427.743 328.801L473.863 305.372L421.814 300.745L448.774 273.641L410.631 275.884L403.945 207.229L349.307 265.218L329.306 243.133L331.743 284.004L308.385 280.652L330.608 307.312L427.743 328.801Z" fill="#C3C4E1"/>
<path d="M437.639 146.074C442.795 146.079 448.411 149.096 450.263 161.173C450.263 161.173 441.522 171.157 429.428 190.021C444.179 195.158 455.268 200.565 455.268 200.565C460.934 216.531 444.584 222.103 444.584 222.103C439.268 219.038 428.157 215.312 416.523 211.728C406.438 229.866 395.504 252.491 385.678 279.8C385.678 279.8 369.704 290.391 362.875 273.53C362.875 273.53 376.576 238.524 393.017 204.923C385.19 202.839 374.628 200.003 374.628 200.003C365.297 193.067 379.83 181.052 379.83 181.052C387.335 180.361 395.855 181.258 404.404 182.992C412.493 168.342 420.65 155.646 427.798 149.083C427.798 149.083 432.482 146.069 437.639 146.074Z" fill="#FFD000"/>
<path d="M484.263 44.6579C486.92 45.259 489.612 45.7736 492.249 46.4574C492.452 46.5101 492.563 46.7194 492.727 46.851C492.764 46.881 492.904 47.0065 492.952 47.0478C493.682 47.6838 494.424 48.3419 495.145 48.9879C495.528 49.3312 495.917 49.6548 496.298 50.0001C496.679 50.3459 497.043 50.6925 497.422 51.0405C501.437 54.7233 505.368 58.5305 509.175 62.428C524.265 77.8768 537.516 94.9116 548.877 113.264C551.811 118.002 550.325 124.22 545.587 127.154C540.85 130.088 534.632 128.63 531.697 123.892C522.246 108.639 511.44 94.3645 499.194 81.2383C494.927 76.665 490.494 72.2367 485.922 67.9671C485.089 67.1885 484.235 66.4295 483.392 65.6615C482.475 65.8938 481.55 66.1185 480.636 66.3644C475.546 67.7346 470.511 69.2842 465.509 70.9475C450.45 75.9554 435.724 81.9671 421.365 88.7176C378.723 108.764 338.76 135.059 302.682 165.309C275.958 187.716 251.046 212.183 228.031 238.386C224.069 242.896 220.155 247.444 216.306 252.051C215.849 252.598 215.412 253.161 214.956 253.71C216.275 257.156 217.548 260.63 219.033 264.001C222.297 271.409 225.921 278.656 229.999 285.651C232.264 289.535 234.665 293.333 237.253 297.01C237.731 297.689 238.226 298.364 238.715 299.035C239.664 299.163 240.601 299.273 241.555 299.344C245.38 299.627 249.227 299.554 253.055 299.372C258.935 299.096 263.942 303.643 264.218 309.522C264.494 315.402 259.947 320.409 254.067 320.685C247.712 320.98 241.281 320.993 234.976 320.038C233.516 319.817 232.044 319.52 230.618 319.138C230.187 319.023 229.475 318.948 229.099 318.689C227.468 317.563 225.823 316.48 224.263 315.258C223.963 315.023 223.793 314.633 223.56 314.33C223.132 313.773 222.714 313.235 222.295 312.672C221.256 311.275 220.221 309.857 219.23 308.426C215.593 303.176 212.275 297.71 209.192 292.118C204.37 283.371 200.125 274.307 196.399 265.041C195.45 262.682 194.538 260.29 193.672 257.899C193.41 257.177 193.162 256.461 192.912 255.734C192.865 255.596 192.665 255.294 192.687 255.144C193.153 251.989 193.543 248.809 194.093 245.668C194.126 245.48 194.315 245.371 194.431 245.218C194.517 245.104 194.621 244.992 194.712 244.881C195.386 244.053 196.057 243.23 196.736 242.406C197.101 241.965 197.468 241.526 197.833 241.085C198.198 240.644 198.563 240.203 198.929 239.763C199.294 239.326 199.661 238.879 200.026 238.442C204.7 232.858 209.446 227.327 214.281 221.881C233.689 200.022 254.47 179.432 276.449 160.163C294.629 144.226 313.792 129.337 333.724 115.654C364.083 94.8128 396.362 76.6844 430.363 62.4842C441.927 57.6545 453.697 53.2895 465.678 49.6065C470.157 48.2297 474.681 46.9345 479.23 45.8107C480.446 45.5103 481.662 45.2074 482.886 44.939C483.148 44.8815 484.014 44.6015 484.263 44.6579Z" fill="black"/>
<path d="M484.854 47.6106C486.728 48.0359 488.619 48.3922 490.477 48.8758C490.512 48.8848 490.819 49.1474 490.927 49.2414C491.328 49.586 491.717 49.9265 492.108 50.2817C492.487 50.6253 492.857 50.9762 493.233 51.3221C493.622 51.6794 494.029 52.0571 494.414 52.4186C498.03 55.8072 501.47 59.3684 504.789 63.0469C517.599 77.2456 528.672 93.046 538.839 109.216C552.457 130.874 564.648 153.391 576.066 176.276C588.229 200.653 599.494 225.461 610.144 250.533C616.742 266.065 623.107 281.699 629.208 297.433C631.086 302.274 632.928 307.135 634.747 311.998C635.151 313.075 635.794 314.844 636.547 316.89C637.22 317.769 637.778 318.767 638.009 319.927C638.32 321.5 638.146 320.808 638.318 321.501C638.725 323.141 638.848 324.913 639.021 326.591C639.355 329.836 639.489 333.114 639.5 336.375C639.509 339.36 639.411 342.338 639.219 345.317C639.16 346.219 639.073 347.115 638.993 348.016C638.965 348.326 639.01 348.758 638.909 349.056C638.552 350.12 638.22 351.188 637.812 352.233C637.574 352.843 636.991 353.482 636.604 354.005C635.879 354.983 635.083 355.94 634.269 356.845C631.699 359.703 628.824 362.276 625.862 364.718C620.822 368.871 615.474 372.64 610.032 376.246C603.902 380.308 597.635 384.147 591.222 387.746C584.88 391.304 578.399 394.665 571.737 397.587C565.321 400.401 558.721 402.695 551.661 402.985C549.072 403.092 546.46 402.952 543.901 402.535C541.724 402.18 539.568 401.618 537.49 400.876C534.531 399.82 531.691 398.383 529.139 396.546C528.551 396.124 528 395.67 527.453 395.197C527.379 395.133 527.246 395.018 527.143 394.916C527.178 394.946 527.011 394.789 527.031 394.831C523.784 391.947 520.505 389.105 517.133 386.368C509.267 379.982 501.021 374.014 492.474 368.57C483.789 363.038 474.878 357.905 465.678 353.274C441.053 340.876 414.771 331.83 387.962 325.494C354.423 317.567 319.916 313.781 285.475 313.432C273.551 313.311 261.609 313.611 249.71 314.416C246.304 314.646 242.902 314.927 239.504 315.259C238.063 315.4 236.639 315.541 235.202 315.709C234.852 315.75 233.891 315.976 233.599 315.906C231.865 315.488 230.083 315.225 228.396 314.641C227.947 314.484 227.656 314.031 227.301 313.713C226.645 313.125 226.084 312.217 225.558 311.52C225.351 311.246 225.144 310.951 224.939 310.676C224.735 310.402 224.522 310.137 224.32 309.861C224.118 309.585 223.93 309.323 223.73 309.045C220.784 304.962 218.039 300.719 215.463 296.393C210.148 287.467 205.505 278.138 201.433 268.585C199.968 265.147 198.6 261.684 197.3 258.181C196.933 257.194 196.55 256.194 196.203 255.201C196.139 255.016 195.811 254.255 195.838 254.076C196.158 251.904 196.413 249.744 196.794 247.581C196.812 247.477 197.086 247.172 197.187 247.047C197.521 246.635 197.863 246.247 198.199 245.838C198.563 245.395 198.932 244.93 199.296 244.488C199.659 244.049 200.029 243.633 200.393 243.195C203.273 239.722 206.166 236.268 209.109 232.848C219.633 220.618 230.572 208.719 241.894 197.223C288.674 149.723 342.418 108.728 402.105 78.7926C421.436 69.0981 441.445 60.5837 462.023 53.9088C467.623 52.0927 473.271 50.4055 478.977 48.9602C480.404 48.5988 481.844 48.2679 483.279 47.948C483.577 47.882 484.573 47.5465 484.854 47.6106ZM484.263 62.4565C480.535 63.3379 476.819 64.2578 473.158 65.3526C465.618 67.6076 458.167 70.1666 450.804 72.9442C426.897 81.9625 403.786 93.213 381.692 106.039C338.871 130.895 299.462 161.33 263.938 195.789C245.253 213.913 227.758 233.187 211.133 253.204C214.037 261.176 217.495 268.994 221.312 276.542C225.563 284.949 230.343 293.232 235.961 300.835C238.77 300.535 241.581 300.272 244.396 300.048C252.52 299.4 260.655 299.008 268.801 298.811C300.483 298.043 332.358 300.112 363.612 305.446C406.195 312.714 448.398 325.811 486.035 347.313C499.134 354.796 511.73 363.122 523.571 372.478C526.857 375.074 530.106 377.723 533.272 380.463C534.765 381.756 536.151 383.201 537.686 384.343C539.865 385.964 542.469 387.028 545.109 387.605C553.339 389.401 561.248 386.069 568.587 382.656C575.305 379.533 581.816 375.986 588.214 372.253C593.646 369.083 599.002 365.781 604.185 362.215C609.177 358.78 614.138 355.229 618.693 351.221C620.26 349.841 621.795 348.42 623.191 346.863C623.557 346.455 623.892 346.028 624.232 345.598C624.253 345.326 624.269 345.054 624.287 344.782C624.419 342.867 624.507 340.938 624.54 339.018C624.596 335.846 624.545 332.678 624.287 329.515C624.177 328.155 624.043 326.787 623.839 325.438C623.773 325.013 623.838 325.434 623.36 322.823C623.298 322.515 623.382 322.229 623.36 321.923C623.259 321.649 623.151 321.382 623.05 321.108C622.378 319.283 621.71 317.445 621.026 315.625C618.978 310.17 616.876 304.745 614.756 299.317C608.329 282.867 601.614 266.538 594.652 250.308C582.513 222.012 569.56 194.004 555.289 166.716C545.349 147.711 534.833 128.992 523.122 111.015C514.958 98.4838 506.241 86.2319 496.382 74.9687C493.314 71.4635 490.129 68.0723 486.794 64.8183C485.969 64.0126 485.109 63.2404 484.263 62.4565Z" fill="black"/>
<path d="M430.925 139.694C441.075 139.704 448.377 146.951 450.495 160.754C450.809 162.805 450.203 164.901 448.836 166.462C448.792 166.512 447.846 167.613 447.43 168.121C446.221 169.595 444.835 171.378 443.268 173.435C440.188 177.479 436.877 182.234 433.456 187.297C437.247 188.763 441.153 190.204 444.618 191.711C446.52 192.539 448.24 193.295 449.735 193.989C450.646 194.411 451.293 194.715 451.647 194.888C453.303 195.696 454.574 197.117 455.19 198.853C459.052 209.735 455.737 218.734 448.217 224.805C446.49 226.2 444.672 227.33 442.847 228.235C442.2 228.556 441.609 228.85 441.047 229.079C440.673 229.231 440.367 229.342 440.147 229.416C438.229 230.07 436.111 229.866 434.355 228.854C430.971 226.902 423.413 224.18 413.267 220.925C402.98 240.001 393.637 260.424 385.572 282.839C385.06 284.262 384.105 285.462 382.844 286.298C382.546 286.495 382.099 286.791 381.523 287.113C380.622 287.616 379.633 288.112 378.543 288.575C374.098 290.461 369.44 291.317 364.737 290.431C358.073 289.175 352.767 284.549 349.638 276.822C348.963 275.156 348.954 273.295 349.61 271.62C349.638 271.549 351.228 267.53 351.859 265.969C353.66 261.514 355.71 256.577 357.961 251.235C363.846 237.273 370.046 223.387 376.321 210.184C371.438 208.877 366.115 207.464 366.087 207.457C365.231 207.227 364.435 206.832 363.725 206.304C358.996 202.789 357.063 197.736 357.989 192.386C358.658 188.518 360.651 184.925 363.528 181.448C364.628 180.119 365.794 178.903 366.958 177.793C367.672 177.112 368.263 176.591 368.645 176.275C369.736 175.373 371.061 174.83 372.469 174.7C378.857 174.112 386.181 174.729 393.979 175.993C402.33 161.318 409.696 150.652 416.332 144.558C416.628 144.287 416.95 144.045 417.288 143.827C417.574 143.643 417.977 143.394 418.525 143.096C419.38 142.631 420.334 142.174 421.365 141.747C424.425 140.478 427.624 139.691 430.925 139.694ZM430.925 153.753C429.711 153.752 428.246 154.094 426.764 154.709C426.081 154.992 425.731 155.192 425.386 155.384C419.605 160.885 412.35 171.647 403.848 187.044C402.364 189.732 399.295 191.14 396.285 190.53C388.649 188.982 381.88 188.36 376.068 188.618C375.49 189.202 374.913 189.774 374.381 190.418C373.057 192.018 372.264 193.448 371.991 194.438C375.212 195.301 386.764 198.412 388.102 198.768C392.383 199.908 394.576 204.687 392.629 208.666C392.007 209.937 391.371 211.219 390.745 212.518C383.982 226.557 377.274 241.623 370.923 256.69C368.699 261.966 366.682 266.862 364.906 271.255C364.632 271.931 364.374 272.61 363.95 273.673C364.988 275.297 366.081 276.357 367.352 276.597C368.892 276.887 370.913 276.512 373.032 275.613C373.199 275.542 373.218 275.513 373.369 275.444C382.194 251.354 392.315 229.336 403.651 208.947C405.266 206.044 408.715 204.679 411.89 205.657C423.929 209.366 432.192 212.271 437.786 214.88C438.328 214.549 438.888 214.271 439.388 213.867C441.922 211.822 443.034 209.488 442.537 206.191C441.426 205.685 440.32 205.165 438.995 204.589C433.845 202.348 428.272 200.128 422.434 198.037C421.761 197.797 421.082 197.541 420.409 197.306C416.117 195.812 414.329 190.701 416.782 186.875C422.177 178.459 427.344 171.131 432.078 164.915C433.498 163.051 434.709 161.49 435.874 160.051C435.224 157.589 434.446 155.665 433.512 154.737C432.812 154.042 432.059 153.754 430.925 153.753Z" fill="black"/>
<path d="M572.028 600.505C572.028 600.505 625.01 570.077 646.677 579.963C683.141 596.601 717.556 664.822 694.813 688.504C672.071 712.186 658.189 716.337 630.417 722.359C602.645 728.381 551.153 716.147 523.945 684.707" fill="#F3886D"/>
<path d="M702.223 654.665C702.223 654.665 616.696 611.049 529.227 690.235L542.93 710.042L564.619 717.935L591.938 724.24L619.956 724.115L644.106 718.099C644.106 718.099 662.326 710.004 666.246 708.485C670.166 706.966 686.944 695.603 686.944 695.603L700.077 681.363L702.223 654.665Z" fill="#F9B192"/>
<path d="M643.605 634.642C649.506 634.836 655.393 635.432 661.206 636.47C664.539 637.065 667.917 637.748 671.132 638.832C674.83 640.082 676.796 644.102 675.546 647.801C674.296 651.5 670.304 653.466 666.605 652.216C666.635 652.226 666.523 652.197 666.492 652.187C666.386 652.154 666.29 652.135 666.183 652.103C665.929 652.027 665.679 651.949 665.424 651.878C664.682 651.672 663.924 651.492 663.175 651.316C661.097 650.827 659.015 650.401 656.904 650.079C650.388 649.085 643.782 648.71 637.194 648.898C617.674 649.452 598.569 654.692 581.016 663.125C577.296 664.904 572.841 663.331 571.062 659.61C569.284 655.89 570.857 651.436 574.577 649.657C581.86 646.191 589.351 643.181 597.071 640.828C612.118 636.241 627.884 634.126 643.605 634.642Z" fill="black"/>
<path d="M617.483 636.779C620.193 636.282 623.073 637.397 624.681 639.844C626.614 642.772 628.433 645.795 630.22 648.813C633.409 654.201 636.312 659.773 637.924 665.852C638.953 669.846 636.547 673.905 632.554 674.934C628.561 675.963 624.501 673.585 623.472 669.592C622.601 666.077 621.07 662.725 619.507 659.47C617.546 655.384 615.343 651.432 612.872 647.632C610.727 644.37 611.634 639.993 614.896 637.848C615.712 637.311 616.58 636.945 617.483 636.779Z" fill="black"/>
<path d="M627.184 566.092C629.605 565.979 632.04 566.009 634.523 566.261C646.433 567.468 657.221 573.151 666.464 580.517C674.539 586.951 681.539 594.665 687.665 602.954C692.958 610.117 697.59 617.769 701.47 625.785C706.291 635.744 710.088 646.376 711.677 657.361C712.651 664.094 712.779 671.031 711.396 677.718C710.319 682.926 708.288 687.939 705.154 692.255C703.654 694.32 701.877 696.147 700.093 697.962C698.681 699.399 697.247 700.818 695.791 702.208C686.241 711.323 675.754 718.951 663.484 723.971C655.723 727.146 647.599 729.257 639.444 731.141C631.204 733.043 622.981 734.675 614.532 735.246C596.395 736.471 578.073 733.557 561.165 726.895C546.776 721.226 533.864 713.045 521.97 703.22C517.434 699.469 516.784 692.741 520.536 688.206C524.287 683.67 531.015 683.048 535.55 686.8C543.344 693.255 551.655 698.983 560.743 703.473C574.238 710.14 589.068 713.939 604.128 714.298C610 714.439 615.892 714.092 621.702 713.23C626.087 712.579 630.427 711.594 634.748 710.615C640.632 709.283 646.485 707.841 652.181 705.835C656.691 704.247 661.061 702.267 665.171 699.818C671.104 696.282 676.466 691.869 681.479 687.137C683.01 685.692 684.501 684.223 685.978 682.723C686.955 681.73 687.952 680.762 688.733 679.602C689.963 677.774 690.724 675.644 691.179 673.5C692.257 668.426 691.852 663.076 690.954 658.008C689.517 649.885 686.652 642.04 683.11 634.614C679.823 627.724 675.851 621.165 671.329 615.016C666.513 608.468 661.067 602.329 654.796 597.134C648.713 592.095 641.63 587.653 633.68 586.506C626.312 585.442 619.111 587.438 612.17 589.711C606.874 591.447 601.168 588.567 599.433 583.272C597.697 577.976 600.576 572.271 605.872 570.535C612.894 568.231 619.923 566.432 627.184 566.092Z" fill="black"/>
<path d="M637.699 570.957C642.134 571.127 646.1 571.978 649.593 573.572C668.762 582.318 687.814 604.021 699.304 628.625C711.603 654.959 713.104 679.624 699.895 693.379C688.209 705.548 678.371 713.127 667.56 718.375C658.307 722.868 649.536 725.406 631.907 729.229C616.455 732.579 595.347 730.751 574.857 724.28C552.319 717.163 532.305 705.112 518.623 689.302L529.251 680.108C541.089 693.787 558.864 704.486 579.075 710.868C597.382 716.65 616.082 718.265 628.927 715.479C645.519 711.882 653.47 709.588 661.43 705.723C670.604 701.269 679.132 694.673 689.744 683.623C697.826 675.207 696.675 656.202 686.567 634.558C676.379 612.743 659.509 593.558 643.745 586.365C638.457 583.953 628.638 584.806 615.965 588.727C610.151 590.525 603.958 592.902 597.548 595.7C592.062 598.095 586.719 600.665 581.774 603.235C580.047 604.133 578.489 604.966 577.135 605.71C576.665 605.968 575.591 606.576 575.532 606.609L568.531 594.406C568.875 594.209 569.507 593.85 570.387 593.366C571.834 592.571 573.48 591.701 575.307 590.751C580.518 588.043 586.126 585.325 591.924 582.794C598.783 579.8 605.446 577.254 611.803 575.287C621.63 572.246 630.308 570.672 637.699 570.957Z" fill="black"/>
<path opacity="0.197261" d="M523.803 389.434C523.803 389.434 527.391 729.621 217.27 681.563L266.856 722.556L335.64 747.569L444.786 743.021L522.098 694.133L559.61 718.78L617.841 727.538L667.259 709.198L696.993 685.121L697.556 660.643L660.292 646.61L593.461 649.281C593.461 649.281 569.551 612.175 572.433 602.479L605.236 585.754L608.788 449.757L593.691 418.562L579.16 393.197L545.78 397.913L523.803 389.434Z" fill="black"/>
<path opacity="0.197261" d="M143.984 522.188L97.209 515.832L146.356 580.847L143.984 522.188Z" fill="black"/>
</svg>
