<svg width="800" height="800" viewBox="0 0 800 800" fill="none" xmlns="http://www.w3.org/2000/svg">
<path d="M183.964 514.146C183.964 514.146 171.089 479.667 144.903 491.233C118.716 502.799 113.697 568.92 180.255 617.365" fill="#F3886D"/>
<path d="M183.964 514.146C183.964 514.146 171.089 479.667 144.903 491.233C118.716 502.799 113.697 568.92 180.255 617.365" stroke="black" stroke-width="0.01875" stroke-miterlimit="10" stroke-linecap="round" stroke-linejoin="round"/>
<path d="M135.716 498.662C167.472 523.638 174.04 563.079 174.04 563.079C174.04 563.079 175.067 592.99 174.912 613.128C122.537 571.73 119.252 519.469 135.716 498.662Z" fill="#F9B192"/>
<path d="M135.716 498.662C167.472 523.638 174.04 563.079 174.04 563.079C174.04 563.079 175.067 592.99 174.912 613.128C122.537 571.73 119.252 519.469 135.716 498.662Z" fill="#F9B192"/>
<path d="M154.91 482.107C159.038 482.041 163.037 482.885 166.832 484.553C172.813 487.183 177.895 491.683 182.24 497.459C184.587 500.578 186.577 503.881 188.229 507.188C188.809 508.348 189.299 509.41 189.719 510.393C189.984 511.011 190.172 511.506 190.282 511.799C191.586 515.29 189.809 519.155 186.317 520.459C182.826 521.763 178.933 519.986 177.629 516.495C177.591 516.393 177.499 516.127 177.32 515.707C177.001 514.962 176.595 514.118 176.139 513.205C174.83 510.585 173.258 507.969 171.443 505.557C164.66 496.539 157.109 493.216 147.628 497.403C137.336 501.949 131.22 518.818 134.469 539.41C138.465 564.738 155.207 590.766 184.237 611.896C187.25 614.09 187.892 618.331 185.699 621.344C183.505 624.357 179.293 625.027 176.279 622.834C144.439 599.658 125.713 570.494 121.141 541.519C117.036 515.501 125.378 492.478 142.173 485.059C146.514 483.142 150.782 482.174 154.91 482.107Z" fill="black"/>
<path d="M600.494 373.47L648.833 375.15C648.833 375.15 687.924 274.508 645.025 170.055C602.127 65.602 437.643 14.0016 371.283 52.3259C371.283 52.3259 361.748 74.5689 381.325 111.955" fill="#ABACE3"/>
<path d="M617.811 346.935C617.811 346.935 659.231 336.985 654.01 307.475C648.79 277.966 618.384 288.148 612.668 288.596C612.668 288.596 656.326 274.362 645.896 243.563C635.466 212.764 602.685 222.13 594.58 227.477C594.58 227.477 638.614 207.211 621.411 177.899C604.207 148.588 571.229 170.618 563.535 175.18C563.535 175.18 599.657 145.076 574.584 120.433C549.51 95.7899 518.691 125.105 518.691 125.105L492.797 92.2882C492.797 92.2882 489.933 61.2883 464.319 57.2704C438.705 53.2525 423.599 79.186 417.046 102.32L416.526 61.2495L427.792 41.8236L401.743 41.2422L375.809 48.3623L368.684 58.9758C368.684 58.9758 368.784 80.1675 369.842 82.3654C370.9 84.5633 372.774 97.977 374.059 104.647C375.343 111.317 384.305 137.51 384.305 137.51L473.416 245.597C473.416 245.597 529.78 332.274 534.99 343.641C540.2 355.008 574.302 388.163 582.354 387.216C590.405 386.268 617.811 346.935 617.811 346.935Z" fill="#C3C4E1"/>
<path d="M616.319 327.722C616.319 327.722 640.606 320.784 639.871 309.161C639.136 297.538 619.123 305.44 615.066 304.328" fill="#FFD000"/>
<path d="M609.885 270.504C609.885 270.504 641.138 260.02 628.503 243.618C615.868 227.217 598.836 249.573 598.836 249.573" fill="#FFD000"/>
<path d="M582.747 212.505C582.747 212.505 610.488 202.466 606.693 188.327C602.898 174.189 576.442 186.756 570.846 193.755" fill="#FFD000"/>
<path d="M550.638 166.635C550.638 166.635 569.731 150.728 563.83 137.267C557.93 123.807 539.918 132.632 531.898 143.064" fill="#FFD000"/>
<path d="M467.99 113.293C467.99 113.293 476.127 85.064 466.328 76.2128C456.529 67.3616 442.391 80.0932 437.434 107.511" fill="#FFD000"/>
<path d="M434.311 33.5527C436.922 33.866 439.245 35.7031 440.019 38.3889C441.052 41.9699 438.961 45.7072 435.38 46.7397C435.048 46.8354 434.244 47.1279 433.131 47.6394C431.205 48.5238 429.285 49.6729 427.507 51.0979C423.057 54.664 420.313 59.2706 419.859 65.3533C419.504 70.1194 419.479 76.1028 419.747 82.9828C419.974 88.8144 420.391 95.0526 420.956 101.428C421.263 104.891 421.611 108.163 421.94 111.156C422.055 112.201 422.341 114.76 422.362 114.924C422.823 118.622 420.211 121.998 416.513 122.459C412.815 122.921 409.439 120.281 408.978 116.583C408.971 116.528 408.647 113.728 408.528 112.646C408.189 109.564 407.831 106.171 407.516 102.608C406.932 96.0264 406.515 89.5651 406.279 83.4889C405.993 76.1417 405.992 69.6916 406.391 64.3411C407.144 54.2479 411.868 46.3265 419.072 40.5539C421.772 38.3901 424.634 36.6721 427.507 35.3522C428.523 34.8855 429.475 34.5144 430.347 34.1994C430.911 33.9954 431.341 33.8358 431.64 33.7495C432.536 33.4914 433.441 33.4483 434.311 33.5527Z" fill="black"/>
<path d="M420.226 33.5532C448.974 33.0996 481.902 39.3883 514.39 51.9419C575.837 75.6845 625.477 117.46 646.26 168.066C659.895 201.265 666.349 236.09 666.841 271.566C667.221 298.943 664.055 325.073 658.547 349.029C656.723 356.963 654.774 364.1 652.812 370.314C652.12 372.504 651.482 374.431 650.9 376.078C650.542 377.089 650.264 377.796 650.112 378.187C649.073 380.862 646.456 382.588 643.589 382.489L595.255 380.802C591.531 380.672 588.631 377.553 588.76 373.829C588.889 370.104 592.009 367.176 595.734 367.305L639.091 368.824C639.378 367.96 639.622 367.225 639.934 366.237C641.791 360.357 643.676 353.593 645.417 346.021C650.694 323.062 653.71 297.987 653.346 271.763C652.876 237.907 646.732 204.757 633.776 173.212C614.561 126.425 567.786 87.0496 509.526 64.5384C456.471 44.0379 402.698 41.3758 371.892 57.6216C371.828 57.875 371.758 58.0436 371.695 58.3245C370.637 63.0686 370.315 69.0933 371.217 76.2914C372.473 86.3079 375.986 97.3647 382.296 109.414C384.024 112.715 382.757 116.795 379.456 118.524C376.154 120.253 372.075 118.986 370.346 115.684C363.296 102.222 359.292 89.5862 357.834 77.9503C356.734 69.1788 357.147 61.6295 358.536 55.4003C358.839 54.0458 359.181 52.8367 359.521 51.8013C359.746 51.1127 359.933 50.6037 360.083 50.2548C360.657 48.9159 361.633 47.8063 362.895 47.0776C378.015 38.3454 397.866 33.906 420.226 33.5532Z" fill="black"/>
<path d="M627.647 296.619C629.546 296.74 631.285 297.072 632.933 297.659C637.999 299.461 641.259 303.605 641.621 309.328C641.93 314.214 639.88 318.587 636.251 322.346C633.64 325.05 630.25 327.409 626.241 329.516C623.371 331.024 620.352 332.318 617.328 333.424C615.507 334.09 614.051 334.549 613.166 334.802C609.583 335.826 605.867 333.746 604.844 330.162C603.82 326.579 605.871 322.835 609.455 321.812C609.573 321.778 609.856 321.691 610.27 321.559C610.991 321.328 611.811 321.064 612.688 320.743C615.188 319.829 617.685 318.768 619.971 317.566C625.311 314.759 628.026 311.94 628.069 310.312C627.052 310.039 625.32 309.992 622.839 310.255C621.644 310.383 620.409 310.535 618.677 310.818C618.384 310.866 616.724 311.164 616.259 311.24C615.314 311.392 614.555 311.491 613.869 311.577C611.588 311.861 609.991 311.907 608.274 311.436C604.68 310.451 602.565 306.736 603.55 303.142C604.535 299.547 608.251 297.433 611.845 298.418C611.425 298.303 611.244 298.277 611.17 298.278C611.383 298.273 611.733 298.253 612.21 298.193C612.704 298.132 613.296 298.041 614.094 297.912C614.523 297.843 616.163 297.571 616.484 297.518C618.443 297.198 619.908 296.974 621.405 296.815C623.674 296.574 625.748 296.497 627.647 296.619Z" fill="black"/>
<path d="M611.226 231.47C613.078 231.332 614.95 231.461 616.85 231.892C621.415 232.927 625.478 235.689 628.856 240.074C633.868 246.58 634.551 253.69 631.19 260.093C628.788 264.668 624.622 268.433 619.212 271.734C616.543 273.362 613.73 274.778 610.917 275.98C609.219 276.704 607.874 277.217 607.037 277.498C603.503 278.683 599.674 276.757 598.489 273.224C597.304 269.691 599.202 265.89 602.735 264.705C602.832 264.672 603.07 264.561 603.438 264.423C604.085 264.181 604.812 263.889 605.603 263.552C607.858 262.589 610.12 261.464 612.182 260.206C615.697 258.061 618.189 255.826 619.24 253.823C620.125 252.137 620 250.686 618.171 248.312C616.63 246.312 615.217 245.356 613.869 245.051C611.419 244.495 607.863 246.031 604 249.324C602.709 250.425 601.502 251.618 600.429 252.811C600.058 253.224 599.746 253.603 599.473 253.936C599.325 254.116 599.244 254.214 599.22 254.245C596.962 257.209 592.709 257.797 589.745 255.538C586.78 253.28 586.221 249.028 588.479 246.063C588.87 245.551 589.506 244.771 590.391 243.785C591.84 242.174 593.476 240.55 595.256 239.033C600.341 234.698 605.672 231.882 611.226 231.47Z" fill="black"/>
<path d="M596.974 173.808C598.098 173.876 599.184 174.02 600.236 174.258C605.918 175.541 610.111 179.351 611.679 185.195C613.217 190.924 611.693 196.444 607.968 201.335C605.272 204.874 601.524 208.011 596.946 210.866C594.005 212.7 590.887 214.307 587.78 215.702C585.906 216.544 584.415 217.145 583.506 217.474C580.002 218.742 576.142 216.929 574.874 213.425C573.606 209.921 575.418 206.061 578.923 204.793C579.046 204.749 579.338 204.627 579.766 204.456C580.512 204.158 581.334 203.823 582.241 203.415C584.829 202.253 587.429 200.904 589.804 199.423C596.403 195.307 599.357 191.407 598.633 188.71C598.197 187.084 595.7 186.521 589.776 188.232C583.588 190.019 576.577 194.1 574.593 196.583C572.266 199.494 568 199.978 565.089 197.651C562.178 195.324 561.722 191.087 564.049 188.176C567.982 183.256 577.378 177.771 586.037 175.27C589.917 174.149 593.603 173.602 596.974 173.808Z" fill="black"/>
<path d="M549.003 124.26C555.949 124.356 561.833 127.913 565.002 135.141C566.143 137.745 566.713 140.504 566.717 143.323C566.727 150.416 563.438 157.298 558.085 163.989C556.329 166.183 554.442 168.19 552.574 170.007C551.436 171.113 550.533 171.919 549.959 172.397C547.095 174.782 542.841 174.416 540.455 171.553C538.07 168.69 538.463 164.435 541.327 162.049C541.381 162.004 541.514 161.865 541.749 161.656C542.169 161.281 542.666 160.837 543.183 160.334C544.671 158.887 546.162 157.277 547.541 155.554C551.153 151.039 553.225 146.691 553.22 143.323C553.219 142.326 553.037 141.433 552.658 140.568C551.437 137.782 549.481 137.11 545.544 138.262C540.905 139.621 535.542 143.477 532.245 147.766C529.973 150.72 525.752 151.274 522.798 149.003C519.843 146.731 519.289 142.482 521.56 139.527C526.543 133.047 534.287 127.521 541.777 125.328C544.262 124.601 546.687 124.228 549.003 124.26Z" fill="black"/>
<path d="M453.642 66.363C458.097 65.9004 462.551 67.3256 466.435 70.8336C471.872 75.7449 473.746 83.4918 473.464 93.2712C473.333 97.8291 472.717 102.612 471.777 107.414C471.408 109.305 470.994 111.073 470.596 112.672C470.353 113.651 470.183 114.361 470.062 114.781C469.03 118.362 465.264 120.425 461.683 119.392C458.102 118.36 456.04 114.623 457.072 111.041C457.086 110.992 457.403 109.889 457.522 109.411C457.867 108.025 458.21 106.483 458.534 104.828C459.342 100.696 459.86 96.609 459.968 92.8775C460.146 86.6918 459.109 82.4044 457.381 80.8434C455.502 79.1456 453.588 79.419 450.464 82.6147C445.842 87.344 441.784 96.4788 439.639 108.342C438.976 112.01 435.49 114.432 431.823 113.769C428.155 113.106 425.705 109.62 426.368 105.952C428.955 91.6438 434.086 80.0577 440.82 73.1673C444.726 69.1703 449.186 66.8255 453.642 66.363Z" fill="black"/>
<path d="M332.49 127.95C332.49 127.95 330.106 49.2774 320.019 40.4748C320.019 40.4748 301.497 33.5561 288.11 94.2571C288.11 94.2571 285.176 121.765 301.681 147.806" fill="#AF93E5"/>
<path d="M312.788 34.0589C313.855 34.0307 314.9 34.1172 315.881 34.312C316.472 34.4294 316.959 34.58 317.371 34.7337C318.132 35.0179 318.84 35.4367 319.451 35.9709C325.657 41.3865 328.837 57.1453 331.401 83.7421C332.343 93.5065 333.076 103.954 333.623 114.39C333.814 118.04 333.98 121.439 334.101 124.484C334.143 125.551 334.24 128.286 334.241 128.336C334.354 132.061 331.415 135.168 327.69 135.281C323.965 135.394 320.858 132.454 320.745 128.729C320.74 128.567 320.646 126.063 320.604 125.018C320.485 122.028 320.342 118.684 320.154 115.093C319.618 104.839 318.91 94.581 317.989 85.0355C316.96 74.3594 315.719 65.2639 314.306 58.2679C313.541 54.4797 312.738 51.3842 311.916 49.1016C311.782 48.7293 311.653 48.5482 311.522 48.23C311.092 48.4308 310.751 48.4805 310.229 48.8486C306.568 51.428 302.534 57.0851 298.532 66.703C295.366 74.3144 292.432 84.0363 289.788 95.945C289.773 96.1262 289.779 96.2511 289.76 96.5917C289.505 101.028 289.71 106.777 290.744 113.321C292.261 122.923 295.306 132.337 300.219 141.129C300.908 142.361 301.626 143.588 302.384 144.784C304.379 147.932 303.452 152.096 300.304 154.091C297.156 156.086 292.964 155.158 290.969 152.011C290.077 150.603 289.247 149.157 288.438 147.709C282.697 137.435 279.169 126.494 277.416 115.402C276.221 107.84 275.957 101.15 276.263 95.8044C276.308 95.0314 276.367 94.4615 276.404 94.1174C276.43 93.8695 276.463 93.6298 276.516 93.3863C279.346 80.5576 282.546 70.0141 286.076 61.5295C290.98 49.7415 296.477 42.0484 302.469 37.8266C306.057 35.298 309.586 34.1436 312.788 34.0589Z" fill="black"/>
<path d="M638.569 701.121C638.569 701.121 424.439 845.302 182.905 694.779C182.905 694.779 152.788 513.454 221.085 398.497C221.085 398.497 184.405 396.974 177.814 392.454C171.223 387.934 169.345 369.088 147.628 356.614C147.628 356.614 144.978 339.163 148.814 321.238C148.814 321.238 138.076 305.037 139.064 298.538C139.064 298.538 229.791 156.878 358.786 107.405C358.786 107.405 451.912 83.877 532.508 149.853C613.103 215.828 617.684 301.765 617.684 362.286C617.684 422.806 586.939 525.075 638.569 701.121Z" fill="#AF93E5"/>
<path d="M467.858 267.205L469.826 268.358L476.771 272.407C476.771 272.407 494.954 345.564 443.452 374.473C391.951 403.381 367.367 383.78 367.367 383.78L322.998 395.589C322.998 395.589 309.918 461.326 201.25 450.249C199.629 450.084 198.384 449.791 196.836 449.602L200.435 433.069L206.592 414.933L217.446 398.682C217.446 398.682 258.767 395.24 266.257 391.54C273.747 387.84 291.621 373.021 293.39 366.937L371.753 344.612C371.753 344.612 387.444 376.701 426.413 359.767C476.452 338.024 471.457 271.985 471.457 271.985L467.858 267.205Z" fill="#B876D1"/>
<path d="M556.287 172.31C613.903 234.448 617.695 308.435 617.695 362.298C617.695 422.818 586.927 525.065 638.558 701.111C638.558 701.111 623.571 711.057 597.535 722.958C594.803 711.229 550.749 517.874 583.701 373.348C601.661 294.575 562.221 210.574 556.259 178.973C555.845 176.783 555.925 174.564 556.287 172.31Z" fill="#B876D1"/>
<path d="M247.937 260.023C291.888 264.677 290.859 290.233 290.859 290.233L303.258 360.555L291.722 370.62C291.722 370.62 279.203 385.968 261.54 392.935C243.878 399.901 241.288 397.1 221.072 398.485C221.072 398.485 184.418 396.988 177.827 392.468C171.236 387.948 169.345 369.092 147.629 356.618C147.629 356.618 144.974 339.171 148.81 321.247C148.81 321.247 138.066 305.027 139.054 298.528C139.054 298.528 159.508 271.665 172.766 254.372C190.265 252.057 242.443 259.441 247.937 260.023Z" fill="#ABACE3"/>
<path d="M150.301 282.501C178.05 293.873 200.012 288.265 200.012 288.265C200.012 288.265 220.899 279.569 230.041 285.229C239.183 290.888 243.537 312.221 243.537 312.221C247.02 329.198 208.278 345.737 208.278 345.737C234.833 378.821 232.206 394.042 232.206 394.042C232.206 394.042 218.831 402.256 221.072 398.485C221.072 398.485 184.418 396.988 177.827 392.468C171.236 387.948 169.345 369.092 147.629 356.618C147.629 356.618 144.974 339.171 148.81 321.247C148.81 321.247 138.066 305.027 139.054 298.528C139.054 298.528 143.552 291.847 150.301 282.501Z" fill="#C3C4E1"/>
<path d="M449.4 189.229C449.4 189.229 426.572 193.544 412.928 189.899" stroke="black" stroke-width="0.01875" stroke-miterlimit="10" stroke-linecap="round" stroke-linejoin="round"/>
<path d="M448.144 182.602C451.806 181.91 455.325 184.31 456.017 187.972C456.709 191.635 454.309 195.181 450.647 195.873C450.237 195.951 449.526 196.051 448.538 196.211C446.916 196.473 445.11 196.754 443.167 196.998C437.402 197.721 431.624 198.124 426.156 198.095C420.488 198.064 415.467 197.548 411.198 196.408C407.597 195.446 405.456 191.77 406.418 188.169C407.38 184.569 411.056 182.428 414.657 183.389C417.655 184.19 421.601 184.602 426.213 184.627C431.024 184.652 436.252 184.242 441.48 183.586C443.258 183.363 444.903 183.149 446.373 182.911C446.882 182.829 448.083 182.614 448.144 182.602Z" fill="black"/>
<path d="M198.827 357.679L143.953 353.712" stroke="black" stroke-width="0.01875" stroke-miterlimit="10" stroke-linecap="round" stroke-linejoin="round"/>
<path d="M144.45 346.977L199.306 350.941C203.024 351.21 205.817 354.45 205.548 358.167C205.28 361.884 202.068 364.678 198.35 364.409L143.466 360.445C139.748 360.176 136.955 356.936 137.223 353.219C137.492 349.501 140.732 346.708 144.45 346.977Z" fill="black"/>
<path d="M196.98 328.29C196.98 328.29 218.855 274.609 224.929 307.863" stroke="black" stroke-width="0.01875" stroke-miterlimit="10" stroke-linecap="round" stroke-linejoin="round"/>
<path d="M217.162 290.264C218.436 290.128 219.749 290.23 221.126 290.602C226.934 292.167 229.923 297.707 231.558 306.656C232.228 310.323 229.797 313.832 226.131 314.501C222.465 315.171 218.956 312.741 218.287 309.075C217.977 307.382 217.602 306.594 217.246 305.532C217.099 305.695 217.036 305.715 216.881 305.897C214.922 308.2 212.676 311.641 210.357 315.879C208.574 319.139 206.841 322.672 205.24 326.198C204.679 327.434 204.188 328.575 203.75 329.6C203.598 329.956 203.234 330.792 203.216 330.837C201.809 334.289 197.894 335.955 194.443 334.549C190.992 333.142 189.325 329.199 190.732 325.748C190.845 325.469 191.06 324.964 191.35 324.286C191.826 323.172 192.349 321.934 192.953 320.603C194.682 316.794 196.559 312.997 198.52 309.412C201.241 304.437 203.929 300.28 206.59 297.153C209.927 293.229 213.341 290.672 217.162 290.264Z" fill="black"/>
<path d="M212.451 399.27C212.451 399.27 253.777 395.824 261.267 392.125C268.758 388.425 286.624 373.611 288.394 367.527L366.751 345.202C366.751 345.202 382.439 377.282 421.407 360.349C471.446 338.605 466.445 272.584 466.445 272.584" stroke="black" stroke-width="0.01875" stroke-miterlimit="10" stroke-linecap="round" stroke-linejoin="round"/>
<path d="M465.942 265.857C469.659 265.576 472.887 268.355 473.169 272.071C473.192 272.377 473.224 272.898 473.253 273.618C473.456 278.614 473.308 284.888 472.522 291.978C471.367 302.395 469.016 312.688 465.211 322.373C457.32 342.461 443.954 357.92 424.104 366.545C401.561 376.341 383.241 372.539 369.978 360.163C367.55 357.897 365.538 355.506 363.792 353.077L293.077 373.209C290.787 376.91 286.754 381.124 281.409 385.806C275.319 391.139 268.589 396.038 264.257 398.177C260.265 400.149 251.599 401.723 238.277 403.379C232.744 404.067 226.813 404.689 220.9 405.263C218.833 405.463 213.103 405.985 213 405.994C209.285 406.303 206.027 403.55 205.717 399.836C205.407 396.122 208.189 392.863 211.903 392.554C211.995 392.546 217.575 392.048 219.607 391.851C225.407 391.288 231.219 390.638 236.618 389.967C247.941 388.56 256.275 387.071 258.268 386.087C261.348 384.565 267.24 380.283 272.524 375.655C277.748 371.079 281.598 366.735 281.915 365.645C282.563 363.416 284.321 361.671 286.554 361.034L364.889 338.709C368.032 337.814 371.382 339.288 372.818 342.224C372.832 342.253 372.91 342.42 373.071 342.702C373.377 343.237 373.765 343.858 374.224 344.529C375.565 346.492 377.232 348.484 379.201 350.322C383.237 354.088 388.022 356.756 393.625 357.913C400.785 359.392 409.054 358.339 418.705 354.146C434.998 347.066 446.009 334.384 452.671 317.424C456.005 308.938 458.078 299.795 459.11 290.488C459.816 284.122 459.962 278.534 459.785 274.18C459.762 273.621 459.74 273.236 459.728 273.083C459.447 269.367 462.226 266.139 465.942 265.857Z" fill="black"/>
<path d="M633.574 701.708C633.574 701.708 419.444 845.889 177.909 695.366C177.909 695.366 147.793 514.041 216.09 399.084C216.09 399.084 179.41 397.561 172.818 393.041C166.227 388.521 164.349 369.675 142.633 357.201C142.633 357.201 139.983 339.75 143.819 321.825C143.819 321.825 133.08 305.624 134.068 299.125C134.068 299.125 224.796 157.465 353.791 107.992C353.791 107.992 446.917 84.464 527.512 150.439C608.108 216.415 612.689 302.352 612.689 362.873C612.689 423.393 581.943 525.662 633.574 701.708Z" stroke="black" stroke-width="0.01875" stroke-miterlimit="10" stroke-linecap="round" stroke-linejoin="round"/>
<mask id="mask0_415_14207" style="mask-type:luminance" maskUnits="userSpaceOnUse" x="111" y="21" width="578" height="758">
<path d="M688.035 21.0498H111.947V778.971H688.035V21.0498Z" fill="white"/>
<path d="M494.549 36.1335C495.498 36.2654 496.55 36.5611 497.698 37.0613C501.141 38.5621 511.575 47.0111 520.782 60.8766C521.11 61.3706 521.413 61.9435 521.738 62.4512C572.8 84.3458 619.867 121.558 640.027 170.646C682.926 275.099 643.823 375.734 643.823 375.734L612.36 374.637C612.358 374.666 612.361 374.692 612.36 374.721C611.296 395.303 607.934 420.171 605.696 450.272C604.533 465.943 603.758 483.186 603.7 501.839C629.562 491.759 649.428 502.247 663.702 515.223C666.268 517.556 668.27 520.267 669.747 523.293C670.19 524.201 670.492 525.2 670.844 526.161C671.078 526.801 671.38 527.411 671.575 528.073C671.788 528.796 671.886 529.574 672.053 530.322C673.41 536.419 673.339 543.234 671.969 550.426C671.728 551.686 671.381 552.974 671.069 554.25C671.067 554.259 671.071 554.269 671.069 554.278C671.067 554.287 671.071 554.298 671.069 554.306C670.382 557.103 669.576 559.931 668.566 562.77C668.358 563.354 668.084 563.928 667.863 564.513C667.853 564.54 667.846 564.57 667.835 564.597C667.8 564.692 667.759 564.784 667.723 564.878C667.199 566.25 666.711 567.615 666.12 568.983C665.683 569.997 665.074 570.983 664.602 571.992C663.599 574.142 662.547 576.26 661.396 578.375C660.869 579.341 660.462 580.343 659.906 581.299C659.55 581.912 659.093 582.463 658.725 583.07C658.708 583.099 658.687 583.126 658.669 583.155C657.211 585.565 655.651 587.88 654.03 590.184C653.937 590.316 653.842 590.446 653.749 590.578C653.204 591.345 652.763 592.187 652.202 592.939C652.033 593.167 651.839 593.36 651.668 593.586C649.046 597.056 646.284 600.395 643.373 603.455C640.273 606.715 636.874 609.375 633.307 611.553C631.524 612.642 629.707 613.622 627.853 614.477C624.144 616.187 620.33 617.44 616.521 618.357C615.705 618.554 614.889 618.67 614.075 618.835C618.641 644.515 624.84 671.963 633.56 701.697C633.56 701.697 620.182 710.72 596.333 721.885C595.19 722.42 593.728 723 592.537 723.544C519.192 757.067 356.177 806.459 177.92 695.371C177.92 695.371 172.029 659.813 171.369 610.288C138.329 582.7 126.324 550.886 126.972 526.779C126.979 526.462 126.987 526.138 127 525.823C127.076 523.96 127.226 522.157 127.45 520.397C127.524 519.8 127.611 519.21 127.703 518.625C127.963 516.98 128.274 515.384 128.659 513.846C128.779 513.363 128.92 512.911 129.052 512.44C129.498 510.856 129.94 509.306 130.514 507.857C130.637 507.547 130.808 507.288 130.936 506.985C134.108 499.489 138.918 493.886 144.91 491.239C162.158 483.622 173.503 495.89 179.326 505.214C179.994 501.432 180.549 497.663 181.322 493.882C184.324 479.203 188.192 464.592 192.991 450.357C192.616 450.297 192.242 450.237 191.838 450.188L195.437 433.655L201.595 415.519L212.448 399.268L213.207 398.874C211.033 398.775 205.419 398.548 196.927 397.749C186.933 396.804 176.126 395.314 172.831 393.054C169.541 390.798 167.405 384.943 163.412 378.124C163.405 378.113 163.39 378.106 163.383 378.095C161.379 374.678 158.928 371.03 155.595 367.439C152.261 363.847 148.062 360.323 142.633 357.204C142.633 357.204 139.977 339.757 143.814 321.833C143.814 321.833 135.593 309.412 134.198 301.954C133.999 300.889 133.934 299.926 134.057 299.114C134.057 299.114 138.496 292.538 145.107 283.368C145.115 283.357 145.127 283.351 145.135 283.34C145.198 283.254 145.241 283.174 145.304 283.087C147.049 280.67 148.091 279.114 150.253 276.227C174.709 243.559 225.494 182.91 292.076 139.942C280.875 116.738 283.107 94.8423 283.107 94.8423C296.494 34.1413 315.02 41.054 315.02 41.054C323.332 48.3082 326.312 100.761 327.138 119.782C335.828 115.463 344.706 111.486 353.794 108.001C353.794 108.001 355.251 107.616 357.955 107.101C360.547 106.608 364.411 106.011 369.117 105.442C369.109 105.399 369.069 105.287 369.061 105.245C367.777 98.5756 365.901 85.1466 364.844 82.9487C363.786 80.7509 363.691 59.5551 363.691 59.5551L364.984 57.615C365.022 57.4293 365.058 57.1432 365.097 56.9683C365.685 54.2989 366.278 52.9195 366.278 52.9195C367.184 52.3959 368.175 51.9475 369.117 51.4574L370.804 48.9549L396.757 41.8413L400.271 41.9256C410.313 40.4408 421.182 40.0328 432.578 40.6041C432.799 40.531 433.534 40.2386 433.534 40.2386L433.422 40.6884C450.208 41.5995 468.062 44.7259 486.113 49.7984L485.917 42.2349C485.917 42.2349 487.902 35.2097 494.549 36.1335Z" fill="black"/>
</mask>
<g mask="url(#mask0_415_14207)">
<path d="M494.549 36.1335C495.498 36.2654 496.55 36.5611 497.698 37.0613C501.141 38.5621 511.575 47.0111 520.782 60.8766C521.11 61.3706 521.413 61.9435 521.738 62.4512C572.8 84.3458 619.867 121.558 640.027 170.646C682.926 275.099 643.823 375.734 643.823 375.734L612.36 374.637C612.358 374.666 612.361 374.692 612.36 374.721C611.296 395.303 607.934 420.171 605.696 450.272C604.533 465.943 603.758 483.186 603.7 501.839C629.562 491.759 649.428 502.247 663.702 515.223C666.268 517.556 668.27 520.267 669.747 523.293C670.19 524.201 670.492 525.2 670.844 526.161C671.078 526.801 671.38 527.411 671.575 528.073C671.788 528.796 671.886 529.574 672.053 530.322C673.41 536.419 673.339 543.234 671.969 550.426C671.728 551.686 671.381 552.974 671.069 554.25C671.067 554.259 671.071 554.269 671.069 554.278C671.067 554.287 671.071 554.298 671.069 554.306C670.382 557.103 669.576 559.931 668.566 562.77C668.358 563.354 668.084 563.928 667.863 564.513C667.853 564.54 667.846 564.57 667.835 564.597C667.8 564.692 667.759 564.784 667.723 564.878C667.199 566.25 666.711 567.615 666.12 568.983C665.683 569.997 665.074 570.983 664.602 571.992C663.599 574.142 662.547 576.26 661.396 578.375C660.869 579.341 660.462 580.343 659.906 581.299C659.55 581.912 659.093 582.463 658.725 583.07C658.708 583.099 658.687 583.126 658.669 583.155C657.211 585.565 655.651 587.88 654.03 590.184C653.937 590.316 653.842 590.446 653.749 590.578C653.204 591.345 652.763 592.187 652.202 592.939C652.033 593.167 651.839 593.36 651.668 593.586C649.046 597.056 646.284 600.395 643.373 603.455C640.273 606.715 636.874 609.375 633.307 611.553C631.524 612.642 629.707 613.622 627.853 614.477C624.144 616.187 620.33 617.44 616.521 618.357C615.705 618.554 614.889 618.67 614.075 618.835C618.641 644.515 624.84 671.963 633.56 701.697C633.56 701.697 620.182 710.72 596.333 721.885C595.19 722.42 593.728 723 592.537 723.544C519.192 757.067 356.177 806.459 177.92 695.371C177.92 695.371 172.029 659.813 171.369 610.288C138.329 582.7 126.324 550.886 126.972 526.779C126.979 526.462 126.987 526.138 127 525.823C127.076 523.96 127.226 522.157 127.45 520.397C127.524 519.8 127.611 519.21 127.703 518.625C127.963 516.98 128.274 515.384 128.659 513.846C128.779 513.363 128.92 512.911 129.052 512.44C129.498 510.856 129.94 509.306 130.514 507.857C130.637 507.547 130.808 507.288 130.936 506.985C134.108 499.489 138.918 493.886 144.91 491.239C162.158 483.622 173.503 495.89 179.326 505.214C179.994 501.432 180.549 497.663 181.322 493.882C184.324 479.203 188.192 464.592 192.991 450.357C192.616 450.297 192.242 450.237 191.838 450.188L195.437 433.655L201.595 415.519L212.448 399.268L213.207 398.874C211.033 398.775 205.419 398.548 196.927 397.749C186.933 396.804 176.126 395.314 172.831 393.054C169.541 390.798 167.405 384.943 163.412 378.124C163.405 378.113 163.39 378.106 163.383 378.095C161.379 374.678 158.928 371.03 155.595 367.439C152.261 363.847 148.062 360.323 142.633 357.204C142.633 357.204 139.977 339.757 143.814 321.833C143.814 321.833 135.593 309.412 134.198 301.954C133.999 300.889 133.934 299.926 134.057 299.114C134.057 299.114 138.496 292.538 145.107 283.368C145.115 283.357 145.127 283.351 145.135 283.34C145.198 283.254 145.241 283.174 145.304 283.087C147.049 280.67 148.091 279.114 150.253 276.227C174.709 243.559 225.494 182.91 292.076 139.942C280.875 116.738 283.107 94.8423 283.107 94.8423C296.494 34.1413 315.02 41.054 315.02 41.054C323.332 48.3082 326.312 100.761 327.138 119.782C335.828 115.463 344.706 111.486 353.794 108.001C353.794 108.001 355.251 107.616 357.955 107.101C360.547 106.608 364.411 106.011 369.117 105.442C369.109 105.399 369.069 105.287 369.061 105.245C367.777 98.5756 365.901 85.1466 364.844 82.9487C363.786 80.7509 363.691 59.5551 363.691 59.5551L364.984 57.615C365.022 57.4293 365.058 57.1432 365.097 56.9683C365.685 54.2989 366.278 52.9195 366.278 52.9195C367.184 52.3959 368.175 51.9475 369.117 51.4574L370.804 48.9549L396.757 41.8413L400.271 41.9256C410.313 40.4408 421.182 40.0328 432.578 40.6041C432.799 40.531 433.534 40.2386 433.534 40.2386L433.422 40.6884C450.208 41.5995 468.062 44.7259 486.113 49.7984L485.917 42.2349C485.917 42.2349 487.902 35.2097 494.549 36.1335Z" stroke="black" stroke-width="0.0375" stroke-miterlimit="10" stroke-linecap="round" stroke-linejoin="round"/>
</g>
<path d="M390.73 97.1822C400.17 97.0261 410.083 97.456 420.365 98.6161C448.472 101.787 475.969 110.103 501.793 124.681C512.19 130.55 522.217 137.367 531.794 145.206C569.84 176.351 593.807 213.612 606.783 256.747C616.495 289.032 619.436 319.659 619.436 362.862C619.436 370.659 618.968 379.357 618.002 390.529C617.619 394.948 617.178 399.595 616.539 406.022C616.605 405.361 615.237 418.844 614.852 422.78C610.585 466.485 609.205 498.336 611.225 536.851C613.908 587.993 622.928 641.454 640.045 699.819C640.873 702.641 639.785 705.656 637.346 707.298C636.543 707.839 635.051 708.809 632.876 710.138C629.299 712.324 625.073 714.756 620.279 717.364C606.633 724.787 590.917 732.185 573.323 739.099C521.751 759.364 464.996 771.302 404.788 770.675C327.15 769.865 249.696 748.046 174.339 701.084C172.694 700.059 171.564 698.386 171.246 696.473C171.189 696.131 171.106 695.49 170.965 694.561C170.734 693.033 170.454 691.23 170.178 689.191C169.392 683.388 168.604 676.74 167.872 669.34C165.627 646.634 164.356 621.972 164.554 596.263C164.811 562.909 167.548 530.442 173.271 499.793C179.881 464.39 190.316 432.559 204.987 405.122C201.005 404.838 196.981 404.56 193.234 404.166C180.879 402.867 172.991 401.338 168.997 398.599C166.888 397.152 165.272 395.205 163.627 392.526C162.554 390.78 158.851 383.756 158.819 383.697C156.781 379.989 154.856 377.01 152.548 374.193C148.989 369.849 144.704 366.176 139.277 363.059C137.494 362.035 136.268 360.256 135.959 358.223C135.827 357.354 135.633 355.846 135.453 353.808C134.598 344.137 134.87 333.595 136.746 323.273C136.656 323.127 136.618 323.092 136.522 322.935C135.306 320.958 134.092 318.877 132.951 316.75C132.073 315.112 131.296 313.512 130.589 311.97C128.061 306.455 126.787 302.034 127.383 298.108C127.526 297.173 127.886 296.289 128.396 295.493C128.472 295.374 129.541 293.732 129.998 293.047C131.297 291.103 132.84 288.855 134.61 286.327C139.648 279.128 145.549 271.106 152.267 262.483C171.451 237.862 193.344 213.244 217.64 190.25C259.792 150.355 304.602 119.615 351.366 101.681C351.615 101.585 351.866 101.521 352.125 101.456C352.734 101.302 353.825 101.062 355.358 100.753C357.853 100.25 360.748 99.7271 363.99 99.2628C372.34 98.0668 381.289 97.3382 390.73 97.1822ZM390.983 110.678C382.112 110.823 373.715 111.527 365.902 112.646C362.917 113.074 360.28 113.515 358.029 113.968C357.255 114.124 356.59 114.263 356.033 114.39C355.987 114.4 355.99 114.408 355.949 114.418C311.122 131.66 267.807 161.364 226.919 200.063C203.153 222.555 181.685 246.663 162.896 270.778C156.323 279.213 150.57 287.043 145.66 294.059C143.947 296.506 142.463 298.662 141.217 300.526C141.125 300.663 141.035 300.812 140.908 301.004C140.962 301.263 140.987 301.474 141.077 301.791C141.433 303.047 142.046 304.597 142.848 306.346C143.43 307.616 144.092 308.965 144.844 310.367C145.85 312.242 146.936 314.112 148.022 315.878C148.401 316.495 149.397 318.011 149.455 318.099C150.458 319.612 150.791 321.47 150.411 323.245C148.333 332.955 148.096 343.291 148.921 352.627C148.942 352.862 148.956 353.023 148.977 353.246C154.476 356.809 159.099 360.909 162.98 365.645C165.879 369.184 168.223 372.797 170.628 377.174C170.861 377.597 174.329 384.169 175.127 385.468C175.87 386.679 176.397 387.295 176.645 387.464C177.041 387.736 179.211 388.425 182.381 389.039C185.663 389.674 189.84 390.247 194.668 390.754C199.406 391.252 204.497 391.643 209.598 391.963C211.386 392.075 216.298 392.325 216.375 392.329C221.478 392.541 224.495 398.144 221.886 402.535C205.254 430.529 193.655 464.173 186.542 502.267C180.977 532.073 178.302 563.744 178.051 596.348C177.857 621.548 179.112 645.765 181.312 668.019C182.028 675.253 182.797 681.746 183.562 687.391C183.719 688.556 183.911 689.767 184.124 691.215C256.506 735.717 330.626 756.404 404.929 757.178C463.272 757.786 518.355 746.225 568.403 726.559C585.458 719.857 600.668 712.664 613.84 705.499C618.391 703.024 622.339 700.721 625.706 698.666C609.227 641.22 600.39 588.273 597.729 537.554C595.667 498.248 597.113 465.776 601.44 421.458C601.827 417.503 603.167 404.025 603.099 404.7C603.733 398.326 604.157 393.699 604.533 389.348C605.469 378.53 605.939 370.205 605.939 362.862C605.939 320.866 603.098 291.403 593.849 260.656C581.625 220.021 559.15 185.056 523.246 155.666C514.273 148.32 504.884 141.925 495.157 136.434C470.996 122.795 445.26 115.005 418.875 112.028C409.202 110.936 399.853 110.533 390.983 110.678Z" fill="black"/>
<path d="M390.73 97.1822C400.17 97.0261 410.083 97.456 420.365 98.6161C448.472 101.787 475.969 110.103 501.793 124.681C512.19 130.55 522.217 137.367 531.794 145.206C569.84 176.351 593.807 213.612 606.783 256.747C616.495 289.032 619.436 319.659 619.436 362.862C619.436 370.659 618.968 379.357 618.002 390.529C617.619 394.948 617.178 399.595 616.539 406.022C616.605 405.361 615.237 418.844 614.852 422.78C610.585 466.485 609.205 498.336 611.225 536.851C613.908 587.993 622.928 641.454 640.045 699.819C640.873 702.641 639.785 705.656 637.346 707.298C636.543 707.839 635.051 708.809 632.876 710.138C629.299 712.324 625.073 714.756 620.279 717.364C606.633 724.787 590.917 732.185 573.323 739.099C521.751 759.364 464.996 771.302 404.788 770.675C327.15 769.865 249.696 748.046 174.339 701.084C172.694 700.059 171.564 698.386 171.246 696.473C171.189 696.131 171.106 695.49 170.965 694.561C170.734 693.033 170.454 691.23 170.178 689.191C169.392 683.388 168.604 676.74 167.872 669.34C165.627 646.634 164.356 621.972 164.554 596.263C164.811 562.909 167.548 530.442 173.271 499.793C179.881 464.39 190.316 432.559 204.987 405.122C201.005 404.838 196.981 404.56 193.234 404.166C180.879 402.867 172.991 401.338 168.997 398.599C166.888 397.152 165.272 395.205 163.627 392.526C162.554 390.78 158.851 383.756 158.819 383.697C156.781 379.989 154.856 377.01 152.548 374.193C148.989 369.849 144.704 366.176 139.277 363.059C137.494 362.035 136.268 360.256 135.959 358.223C135.827 357.354 135.633 355.846 135.453 353.808C134.598 344.137 134.87 333.595 136.746 323.273C136.656 323.127 136.618 323.092 136.522 322.935C135.306 320.958 134.092 318.877 132.951 316.75C132.073 315.112 131.296 313.512 130.589 311.97C128.061 306.455 126.787 302.034 127.383 298.108C127.526 297.173 127.886 296.289 128.396 295.493C128.472 295.374 129.541 293.732 129.998 293.047C131.297 291.103 132.84 288.855 134.61 286.327C139.648 279.128 145.549 271.106 152.267 262.483C171.451 237.862 193.344 213.244 217.64 190.25C259.792 150.355 304.602 119.615 351.366 101.681C351.615 101.585 351.866 101.521 352.125 101.456C352.734 101.302 353.825 101.062 355.358 100.753C357.853 100.25 360.748 99.7271 363.99 99.2628C372.34 98.0668 381.289 97.3382 390.73 97.1822ZM390.983 110.678C382.112 110.823 373.715 111.527 365.902 112.646C362.917 113.074 360.28 113.515 358.029 113.968C357.255 114.124 356.59 114.263 356.033 114.39C355.987 114.4 355.99 114.408 355.949 114.418C311.122 131.66 267.807 161.364 226.919 200.063C203.153 222.555 181.685 246.663 162.896 270.778C156.323 279.213 150.57 287.043 145.66 294.059C143.947 296.506 142.463 298.662 141.217 300.526C141.125 300.663 141.035 300.812 140.908 301.004C140.962 301.263 140.987 301.474 141.077 301.791C141.433 303.047 142.046 304.597 142.848 306.346C143.43 307.616 144.092 308.965 144.844 310.367C145.85 312.242 146.936 314.112 148.022 315.878C148.401 316.495 149.397 318.011 149.455 318.099C150.458 319.612 150.791 321.47 150.411 323.245C148.333 332.955 148.096 343.291 148.921 352.627C148.942 352.862 148.956 353.023 148.977 353.246C154.476 356.809 159.099 360.909 162.98 365.645C165.879 369.184 168.223 372.797 170.628 377.174C170.861 377.597 174.329 384.169 175.127 385.468C175.87 386.679 176.397 387.295 176.645 387.464C177.041 387.736 179.211 388.425 182.381 389.039C185.663 389.674 189.84 390.247 194.668 390.754C199.406 391.252 204.497 391.643 209.598 391.963C211.386 392.075 216.298 392.325 216.375 392.329C221.478 392.541 224.495 398.144 221.886 402.535C205.254 430.529 193.655 464.173 186.542 502.267C180.977 532.073 178.302 563.744 178.051 596.348C177.857 621.548 179.112 645.765 181.312 668.019C182.028 675.253 182.797 681.746 183.562 687.391C183.719 688.556 183.911 689.767 184.124 691.215C256.506 735.717 330.626 756.404 404.929 757.178C463.272 757.786 518.355 746.225 568.403 726.559C585.458 719.857 600.668 712.664 613.84 705.499C618.391 703.024 622.339 700.721 625.706 698.666C609.227 641.22 600.39 588.273 597.729 537.554C595.667 498.248 597.113 465.776 601.44 421.458C601.827 417.503 603.167 404.025 603.099 404.7C603.733 398.326 604.157 393.699 604.533 389.348C605.469 378.53 605.939 370.205 605.939 362.862C605.939 320.866 603.098 291.403 593.849 260.656C581.625 220.021 559.15 185.056 523.246 155.666C514.273 148.32 504.884 141.925 495.157 136.434C470.996 122.795 445.26 115.005 418.875 112.028C409.202 110.936 399.853 110.533 390.983 110.678Z" fill="black"/>
<path d="M490.404 22.728C492.303 22.4654 494.296 22.4646 496.393 22.7562C498.638 23.0682 500.881 23.7356 503.085 24.6962C510.443 27.9036 521.872 38.8377 530.781 51.7169C587.705 76.9986 632.62 117.102 652.5 165.508C666.474 199.532 673.087 235.198 673.588 271.482C673.975 299.433 670.75 326.093 665.125 350.548C663.259 358.663 661.265 365.956 659.249 372.338C658.533 374.603 657.86 376.61 657.252 378.327C656.871 379.404 656.585 380.178 656.409 380.633C654.33 385.983 649.098 389.409 643.362 389.209L624.833 388.562C624.57 391.816 624.44 394.326 624.074 398.206C623.603 403.2 621.786 421.397 621.571 423.596C620.554 434.041 619.798 442.589 619.153 451.264C618.338 462.243 617.859 473.423 617.551 484.695C625.886 483.848 634.024 484.591 641.9 486.944C653.138 490.303 663.259 496.599 672.773 505.249C676.578 508.708 679.64 512.773 681.883 517.367C682.452 518.533 682.779 519.39 683.289 520.854C683.309 520.912 683.469 521.405 683.514 521.529C683.502 521.498 683.843 522.339 683.964 522.653C684.165 523.181 684.36 523.692 684.526 524.256C684.695 524.831 684.826 525.398 684.948 525.971C685.021 526.315 685.224 527.353 685.229 527.377C686.994 535.303 686.944 543.963 685.229 552.964C685.022 554.052 684.821 554.91 684.442 556.422C684.42 556.507 684.248 557.192 684.189 557.434C684.187 557.441 684.19 557.457 684.189 557.462C684.186 557.486 684.191 557.467 684.189 557.491C684.186 557.514 684.191 557.495 684.189 557.519C683.334 560.998 682.4 564.19 681.293 567.303C681.097 567.854 680.927 568.277 680.674 568.878C680.651 568.932 680.537 569.14 680.505 569.215C680.5 569.228 680.477 569.272 680.477 569.272C680.452 569.342 680.48 569.296 680.449 569.384C680.379 569.569 679.536 571.81 679.352 572.28C679.069 573.008 678.792 573.677 678.509 574.333C678.117 575.242 677.803 575.846 677.216 576.948C677.201 576.974 676.863 577.618 676.822 577.707C675.654 580.211 674.486 582.551 673.251 584.821C673.194 584.924 672.896 585.529 672.885 585.552C672.345 586.673 672.052 587.243 671.564 588.082C671.316 588.509 671.072 588.894 670.805 589.291C670.644 589.53 670.177 590.219 670.158 590.247C670.179 590.216 669.866 590.697 669.764 590.838C668.368 593.109 666.897 595.352 665.069 597.951C664.992 598.061 664.781 598.343 664.76 598.373C664.765 598.365 664.513 598.784 664.507 598.795C663.908 599.761 663.573 600.268 663.016 601.016C662.681 601.466 662.471 601.704 662.117 602.113C659.157 606.002 656.185 609.576 653.147 612.769C649.326 616.786 645.056 620.188 640.354 623.06C638.109 624.432 635.806 625.676 633.493 626.743C632.236 627.323 630.935 627.784 629.641 628.29C634.101 651.279 639.584 674.286 646.511 697.908C648.165 703.548 645.985 709.608 641.113 712.895C640.573 713.259 639.621 713.877 638.273 714.722C636.101 716.084 633.537 717.624 630.625 719.305C622.392 724.058 612.85 729.07 602.058 734.123C601.346 734.457 600.829 734.661 599.584 735.192C599.55 735.206 598.453 735.671 598.15 735.81C575.917 745.972 551.583 754.907 525.382 761.931C493.12 770.58 459.574 775.903 425.06 777.171C339.675 780.307 254.016 758.702 170.767 706.821C167.475 704.77 165.244 701.398 164.61 697.571C164.548 697.196 164.446 696.536 164.3 695.574C164.064 694.01 163.794 692.168 163.513 690.092C162.717 684.201 161.919 677.478 161.179 669.988C159.527 653.248 158.497 635.157 158.086 616.396C128.164 589.487 112.68 556.676 113.493 526.421C113.497 526.248 113.512 525.525 113.521 525.296C113.613 523.027 113.781 520.838 114.055 518.689C114.139 518.018 114.241 517.341 114.364 516.552C114.698 514.434 115.1 512.451 115.573 510.563C115.685 510.114 115.779 509.763 115.939 509.213C115.955 509.157 116.032 508.86 116.051 508.791C116.814 506.082 117.254 504.676 117.963 502.887C118.131 502.461 118.308 502.063 118.497 501.678C118.602 501.465 118.778 501.118 118.779 501.115C118.709 501.249 118.642 501.392 118.497 501.734C122.979 491.142 130.129 483.017 139.445 478.903C150.495 474.022 161.351 474.358 170.936 479.072C173.147 469.757 175.65 460.593 178.5 451.657C178.343 450.241 178.319 448.803 178.64 447.327L182.239 430.794C182.347 430.297 182.497 429.786 182.661 429.304L188.819 411.168C188.903 410.92 189.058 410.707 189.156 410.465C177.534 409.133 170.024 407.503 165.2 404.195C162.168 402.116 159.984 399.5 157.89 396.097C156.717 394.192 152.847 386.822 151.816 385.047C151.769 384.978 151.783 385.009 151.732 384.935C149.826 381.685 147.97 379.042 145.715 376.612C143.008 373.696 139.792 371.142 135.902 368.908C132.337 366.861 129.913 363.3 129.294 359.236C129.247 358.926 129.177 358.446 129.098 357.802C128.975 356.8 128.844 355.659 128.732 354.4C127.894 344.944 128.09 334.739 129.688 324.567C128.786 323.044 127.873 321.526 127.017 319.928C126.078 318.175 125.198 316.459 124.43 314.782C122.734 311.081 121.552 307.687 120.944 304.435C120.479 301.953 120.343 299.571 120.719 297.097C121.019 295.119 121.736 293.215 122.856 291.557C123.009 291.33 125.14 288.221 126.005 286.974C128.469 283.422 131.216 279.556 134.159 275.474C134.18 275.45 134.166 275.47 134.187 275.446C134.264 275.332 134.282 275.297 134.356 275.193C134.866 274.486 138.246 269.736 139.445 268.136C155.452 246.754 174.378 224.318 195.707 202.51C220.881 176.771 247.556 153.868 275.476 134.804C273.131 128.041 271.433 121.178 270.471 114.306C269.45 107.013 269.259 100.583 269.543 95.383C269.589 94.5458 269.64 93.8999 269.684 93.4711C269.737 92.9541 269.825 92.4321 269.937 91.9246C272.849 78.7219 276.166 67.7964 279.862 58.915C285.218 46.0452 291.431 37.3297 298.588 32.2879C304.92 27.8279 311.482 26.5761 317.174 27.7048C318.131 27.8947 318.99 28.1305 319.733 28.4077C321.256 28.9761 322.669 29.813 323.894 30.882C328.738 35.1095 331.263 41.2993 333.454 50.6485C334.959 57.0721 336.226 65.0838 337.306 74.4638C338.211 82.3295 338.885 90.7608 339.471 99.3195C342.636 97.9768 345.8 96.6178 348.946 95.4112C349.399 95.2374 349.883 95.0852 350.352 94.9613C350.679 94.8749 351.167 94.7505 351.843 94.5958C352.305 94.4901 352.921 94.3687 353.445 94.2584C353.121 92.3789 352.863 90.7723 352.686 89.8721C352.512 88.9834 352.378 88.2752 352.264 87.8195C352.231 87.6855 352.204 87.6084 352.208 87.6227C352.301 87.9179 352.434 88.2796 352.686 88.8036C350.944 85.1849 350.73 82.2805 350.409 71.7645C350.327 69.0986 350.277 66.2489 350.24 63.4137C350.227 62.4234 350.184 59.6752 350.184 59.6179C350.172 56.9328 350.972 54.3166 352.461 52.0825L352.545 51.97C352.996 50.3304 353.443 48.5701 353.867 47.5837C355.016 44.9109 356.999 42.6842 359.519 41.2292C359.682 41.135 359.874 41.0321 360.025 40.948C361.82 38.5353 364.311 36.7412 367.223 35.9432L393.175 28.8295C394.442 28.4822 395.77 28.3199 397.083 28.3515L399.979 28.4077C409.683 27.085 420.078 26.6817 431.021 27.1143C433.364 26.6546 435.617 26.8065 437.713 27.508C449.888 28.3713 462.536 30.2517 475.446 33.1877C475.863 32.4827 476.169 31.7701 476.683 31.0789C479.989 26.6358 484.708 23.516 490.404 22.728ZM494.538 36.14C487.891 35.2162 485.906 42.2414 485.906 42.2414L486.102 49.805C468.051 44.7325 450.198 41.6061 433.411 40.695L433.523 40.2451C433.523 40.2451 432.788 40.5375 432.567 40.6106C421.171 40.0393 410.302 40.4473 400.26 41.9321L396.746 41.8478L370.794 48.9614L369.107 51.4639C368.164 51.954 367.173 52.4024 366.267 52.926C366.267 52.926 365.674 54.3054 365.086 56.9749C365.047 57.1497 365.012 57.4358 364.973 57.6216L363.68 59.5617C363.68 59.5617 363.775 80.7574 364.833 82.9552C365.891 85.1531 367.766 98.5821 369.05 105.253C369.058 105.294 369.098 105.406 369.107 105.449C364.4 106.018 360.536 106.615 357.944 107.108C355.24 107.623 353.783 108.008 353.783 108.008C344.695 111.493 335.817 115.47 327.127 119.789C326.301 100.768 323.321 48.3147 315.009 41.0605C315.009 41.0605 296.483 34.1478 283.096 94.8488C283.096 94.8488 280.864 116.745 292.065 139.949C225.483 182.918 174.698 243.566 150.242 276.234C148.08 279.121 147.038 280.677 145.293 283.094C145.23 283.181 145.187 283.261 145.124 283.347C145.116 283.358 145.104 283.364 145.096 283.375C138.485 292.545 134.046 299.121 134.046 299.121C133.923 299.933 133.988 300.896 134.187 301.961C135.582 309.419 143.803 321.84 143.803 321.84C139.967 339.764 142.622 357.211 142.622 357.211C148.051 360.33 152.25 363.854 155.584 367.446C158.917 371.038 161.369 374.685 163.373 378.102C163.379 378.113 163.394 378.12 163.401 378.131C167.394 384.95 169.53 390.805 172.82 393.061C176.116 395.321 186.923 396.811 196.916 397.756C205.408 398.555 211.022 398.782 213.196 398.881L212.437 399.275L201.584 415.526L195.426 433.662L191.827 450.195C192.232 450.245 192.605 450.304 192.98 450.364C188.182 464.598 184.313 479.21 181.311 493.889C180.538 497.67 179.983 501.439 179.315 505.221C173.492 495.897 162.147 483.629 144.899 491.246C138.907 493.893 134.097 499.496 130.925 506.992C130.798 507.295 130.626 507.554 130.503 507.864C129.929 509.313 129.487 510.863 129.041 512.447C128.909 512.918 128.768 513.37 128.648 513.853C128.263 515.39 127.952 516.987 127.692 518.633C127.6 519.217 127.514 519.807 127.439 520.404C127.215 522.164 127.065 523.967 126.989 525.831C126.977 526.145 126.969 526.469 126.961 526.787C126.313 550.893 138.318 582.707 171.358 610.295C172.018 659.82 177.909 695.378 177.909 695.378C356.166 806.466 519.181 757.074 592.526 723.551C593.717 723.007 595.179 722.427 596.322 721.892C620.171 710.727 633.549 701.704 633.549 701.704C624.829 671.97 618.63 644.522 614.064 618.842C614.878 618.677 615.694 618.561 616.51 618.364C620.319 617.447 624.133 616.194 627.842 614.484C629.696 613.629 631.513 612.65 633.296 611.56C636.863 609.382 640.262 606.722 643.362 603.462C646.273 600.402 649.035 597.063 651.657 593.593C651.828 593.367 652.022 593.174 652.191 592.946C652.752 592.194 653.193 591.352 653.738 590.585C653.831 590.453 653.926 590.323 654.019 590.191C655.64 587.887 657.2 585.572 658.658 583.162C658.676 583.133 658.697 583.106 658.714 583.077C659.082 582.47 659.539 581.919 659.895 581.306C660.451 580.35 660.858 579.349 661.385 578.382C662.536 576.268 663.588 574.149 664.591 571.999C665.063 570.99 665.672 570.004 666.109 568.991C666.7 567.621 667.188 566.257 667.712 564.885C667.748 564.791 667.789 564.699 667.824 564.604C667.835 564.577 667.842 564.548 667.852 564.52C668.073 563.935 668.347 563.361 668.555 562.777C669.566 559.938 670.371 557.11 671.058 554.313C671.06 554.305 671.056 554.294 671.058 554.285C671.06 554.276 671.056 554.266 671.058 554.257C671.37 552.98 671.718 551.693 671.958 550.433C673.328 543.241 673.399 536.426 672.042 530.329C671.875 529.581 671.777 528.803 671.564 528.08C671.369 527.418 671.067 526.808 670.833 526.168C670.481 525.207 670.18 524.208 669.736 523.3C668.259 520.274 666.257 517.563 663.691 515.23C649.417 502.254 629.551 491.766 603.689 501.846C603.747 483.193 604.522 465.95 605.685 450.279C607.923 420.178 611.285 395.31 612.349 374.728C612.351 374.699 612.347 374.673 612.349 374.644L643.812 375.741C643.812 375.741 682.915 275.107 640.016 170.653C619.856 121.565 572.79 84.3523 521.727 62.4577C521.402 61.9501 521.099 61.3772 520.771 60.8832C511.564 47.0176 501.13 38.5686 497.687 37.0678C496.539 36.5677 495.487 36.2719 494.538 36.14Z" fill="black"/>
<path d="M493.989 156.052L490.928 41.6404C490.928 41.6404 493.518 32.4592 502.699 36.4613C511.88 40.4633 570.734 93.9027 523.651 167.587" fill="#AF93E5"/>
<path d="M496.035 152.236C496.035 152.236 493.726 83.9983 509.786 89.4289C525.846 94.8595 524.625 140.635 514.587 154.305C504.548 167.974 502.87 167.112 496.035 152.236Z" fill="#ABACE3"/>
<path d="M488.99 156.639L485.93 42.2274C485.93 42.2274 488.519 33.0462 497.701 37.0483C506.882 41.0503 565.735 94.4894 518.652 168.174" stroke="black" stroke-width="0.01875" stroke-miterlimit="10" stroke-linecap="round" stroke-linejoin="round"/>
<path d="M492.318 29.3068C494.815 29.1311 497.524 29.6049 500.388 30.8532C504.24 32.5322 510.515 37.7546 516.471 44.3495C524.022 52.7097 530.681 62.6925 535.478 73.7883C548.477 103.849 546.393 137.298 524.344 171.805C522.337 174.946 518.15 175.864 515.009 173.858C511.869 171.851 510.95 167.691 512.956 164.551C532.54 133.902 534.333 105.186 523.079 79.1587C518.894 69.481 513.066 60.6884 506.461 53.3752C503.843 50.4758 501.234 47.9703 498.87 46.0084C497.046 44.4953 495.513 43.4529 494.99 43.2248C493.397 42.5306 493.39 42.5597 492.937 43.1686C492.855 43.2788 492.785 43.4068 492.712 43.5341L495.749 156.453C495.848 160.179 492.895 163.298 489.169 163.398C485.444 163.498 482.352 160.544 482.252 156.819L479.188 42.4094C479.169 41.7298 479.256 41.0395 479.441 40.385C479.574 39.9122 479.796 39.2916 480.116 38.5574C480.625 37.3883 481.279 36.2196 482.112 35.0989C484.633 31.7053 488.158 29.5996 492.318 29.3068Z" fill="black"/>
<path d="M410.516 464.534L261.77 461.646C261.77 461.646 225.955 463.127 204.023 531.281C182.09 599.435 227.791 691.01 289.635 709.484C351.478 727.96 398.776 726.594 442.152 709.997C485.529 693.4 513.236 641.319 516.925 626.919C520.614 612.52 529.71 555.12 511.259 523.367C492.807 491.614 452.796 468.312 410.516 464.534Z" fill="#F3886D" stroke="black" stroke-width="0.01875" stroke-miterlimit="10" stroke-linecap="round" stroke-linejoin="round"/>
<path d="M261.766 461.66L287.943 462.166L324.411 492.926L360.851 463.572L410.506 464.528C452.787 468.306 492.799 491.624 511.25 523.377C518.659 536.126 521.528 552.971 522.188 569.546L503.237 575.985L473.714 582.058C473.714 582.058 475.553 677.138 381.602 690.085C287.65 703.031 226.991 659.001 224.032 588.722L201.932 578.093C201.932 578.093 199.627 577.824 198.924 577.756C197.87 561.825 199.276 545.997 204.013 531.278C225.945 463.124 261.766 461.66 261.766 461.66Z" fill="#F9B192"/>
<path d="M470.855 507.931L416.602 505.493" stroke="black" stroke-width="0.01875" stroke-miterlimit="10" stroke-linecap="round" stroke-linejoin="round"/>
<path d="M264.136 506.043L229.777 506.934" stroke="black" stroke-width="0.01875" stroke-miterlimit="10" stroke-linecap="round" stroke-linejoin="round"/>
<path d="M361.188 619.968C361.188 619.968 328.024 605.543 321.003 600.046C321.003 600.046 310.568 608.194 305.693 608.841" stroke="black" stroke-width="0.01875" stroke-miterlimit="10" stroke-linecap="round" stroke-linejoin="round"/>
<path d="M261.895 454.89L410.636 457.786C410.793 457.789 410.958 457.8 411.114 457.814C455.534 461.783 497.504 486.279 517.088 519.981C526.088 535.469 529.681 556.854 529.15 581.783C528.778 599.242 526.234 617.81 523.47 628.598C520.933 638.501 511.535 656.219 499.796 671.702C484.085 692.422 465.386 708.333 444.573 716.296C398.189 734.043 348.989 734.265 287.707 715.958C221.485 696.176 174.753 600.173 197.591 529.204C203.497 510.852 210.739 496.034 219.073 484.413C227.853 472.169 237.44 464.007 247.162 459.22C250.681 457.487 253.999 456.304 257.031 455.593C258.142 455.332 259.139 455.149 260.04 455.03C260.651 454.95 261.158 454.932 261.502 454.918C261.638 454.912 261.759 454.887 261.895 454.89ZM262.036 468.386C262.049 468.385 261.983 468.385 261.98 468.386C261.97 468.388 261.967 468.394 261.811 468.414C261.349 468.475 260.793 468.594 260.124 468.751C258.07 469.233 255.707 470.066 253.123 471.338C245.407 475.137 237.534 481.834 230.039 492.286C222.555 502.721 215.933 516.271 210.441 533.337C189.863 597.281 232.776 685.464 291.559 703.025C350.124 720.52 396.294 720.322 439.737 703.699C457.883 696.756 474.742 682.425 489.055 663.548C499.789 649.391 508.353 633.225 510.396 625.252C512.903 615.464 515.304 597.926 515.654 581.502C516.137 558.827 512.921 539.668 505.419 526.757C488.161 497.058 450.226 474.917 410.045 471.282L262.036 468.386Z" fill="black"/>
<path d="M261.896 454.918L288.074 455.424C289.621 455.454 291.108 456.001 292.291 456.998L324.514 484.188L356.623 458.32C357.858 457.326 359.397 456.799 360.982 456.83L410.637 457.786C410.794 457.789 410.958 457.8 411.115 457.814C455.528 461.783 497.502 486.275 517.089 519.981C524.486 532.711 528.135 549.405 528.926 569.271C529.045 572.258 527.201 574.973 524.371 575.934L505.42 582.373C505.154 582.464 504.879 582.542 504.605 582.598L480.283 587.603C480.269 587.847 480.272 587.938 480.255 588.193C479.989 592.239 479.49 596.649 478.709 601.352C476.525 614.489 472.516 627.59 466.225 639.872C450.528 670.518 423.282 691.164 382.519 696.781C288.948 709.675 223.167 667.049 217.696 593.169L200.038 584.679C199.248 584.589 198.395 584.494 198.267 584.482C194.975 584.166 192.412 581.511 192.194 578.211C191.039 560.753 192.761 544.215 197.592 529.203C203.499 510.849 210.737 496.033 219.074 484.413C227.855 472.173 237.44 464.002 247.163 459.22C250.682 457.489 254 456.331 257.032 455.621C258.143 455.36 259.14 455.176 260.041 455.058C260.652 454.978 261.159 454.932 261.503 454.918C261.638 454.912 261.761 454.915 261.896 454.918ZM262.037 468.414C262.05 468.414 261.984 468.413 261.981 468.414C261.971 468.416 261.968 468.422 261.812 468.442C261.351 468.503 260.766 468.595 260.097 468.751C258.043 469.232 255.708 470.067 253.124 471.338C245.408 475.133 237.534 481.839 230.04 492.286C222.554 502.719 215.935 516.268 210.442 533.336C206.617 545.22 205.081 558.386 205.521 572.335L226.947 582.625C229.192 583.705 230.666 585.957 230.771 588.447C233.625 656.236 292.636 695.531 380.692 683.398C416.927 678.406 440.463 660.569 454.219 633.715C459.823 622.774 463.412 611.007 465.381 599.159C466.087 594.912 466.549 590.91 466.787 587.294C466.873 585.985 466.929 584.822 466.956 583.779C466.973 583.096 466.959 582.577 466.956 582.232C466.955 582.181 466.955 582.162 466.956 582.177C466.893 578.925 469.169 576.112 472.354 575.456L501.484 569.468L515.064 564.856C513.98 549.289 510.93 536.239 505.42 526.757C488.159 497.053 450.22 474.916 410.046 471.282L363.175 470.382L328.647 498.19C326.131 500.217 322.54 500.161 320.071 498.078L285.459 468.864L262.037 468.414Z" fill="black" fill-opacity="0.5"/>
<path d="M416.907 498.753L471.145 501.199C474.868 501.366 477.751 504.505 477.584 508.228C477.417 511.951 474.278 514.834 470.555 514.667L416.288 512.221C412.565 512.053 409.682 508.914 409.849 505.191C410.017 501.468 413.184 498.585 416.907 498.753Z" fill="black"/>
<path d="M263.948 499.287C267.674 499.19 270.796 502.141 270.893 505.866C270.99 509.592 268.039 512.686 264.314 512.783L229.954 513.682C226.229 513.778 223.134 510.829 223.037 507.103C222.941 503.378 225.863 500.283 229.589 500.187L263.948 499.287Z" fill="black"/>
<path d="M320.999 593.311C322.467 593.312 323.94 593.789 325.16 594.745C327.064 596.235 332.522 599.195 340.147 602.899C341.178 603.4 342.254 603.895 343.352 604.417C347.838 606.553 352.648 608.779 357.466 610.94C359.153 611.698 363.801 613.747 363.878 613.78C367.295 615.267 368.851 619.248 367.364 622.665C365.878 626.083 361.925 627.638 358.507 626.152C358.422 626.115 353.671 624.026 351.956 623.256C347.052 621.055 342.148 618.805 337.56 616.62C336.431 616.083 335.306 615.535 334.242 615.017C328.557 612.256 324.531 610.092 321.28 608.157C320.337 608.818 319.408 609.496 318.44 610.125C317.439 610.776 316.467 611.37 315.516 611.925C312.108 613.912 309.257 615.168 306.574 615.524C302.879 616.013 299.501 613.426 299.011 609.731C298.522 606.037 301.108 602.63 304.802 602.14C305.214 602.085 306.757 601.424 308.712 600.284C309.464 599.845 310.273 599.332 311.102 598.794C312.475 597.902 313.858 596.948 315.179 595.982C315.641 595.644 316.772 594.767 316.837 594.717C318.059 593.763 319.531 593.31 320.999 593.311Z" fill="black"/>
<path d="M261.895 454.89L410.636 457.786C410.793 457.789 410.958 457.8 411.114 457.814C455.534 461.783 497.504 486.279 517.088 519.981C526.088 535.469 529.681 556.854 529.15 581.783C528.778 599.242 526.234 617.81 523.47 628.598C520.933 638.501 511.535 656.219 499.796 671.702C484.085 692.422 465.386 708.333 444.573 716.296C398.189 734.043 348.989 734.265 287.707 715.958C221.485 696.176 174.753 600.173 197.591 529.204C203.497 510.852 210.739 496.034 219.073 484.413C227.853 472.169 237.44 464.007 247.162 459.22C250.681 457.487 253.999 456.304 257.031 455.593C258.142 455.332 259.139 455.149 260.04 455.03C260.651 454.95 261.158 454.932 261.502 454.918C261.638 454.912 261.759 454.887 261.895 454.89ZM262.036 468.386C262.049 468.385 261.983 468.385 261.98 468.386C261.97 468.388 261.967 468.394 261.811 468.414C261.349 468.475 260.793 468.594 260.124 468.751C258.07 469.233 255.707 470.066 253.123 471.338C245.407 475.137 237.534 481.834 230.039 492.286C222.555 502.721 215.933 516.271 210.441 533.337C189.863 597.281 232.776 685.464 291.559 703.025C350.124 720.52 396.294 720.322 439.737 703.699C457.883 696.756 474.742 682.425 489.055 663.548C499.789 649.391 508.353 633.225 510.396 625.252C512.903 615.464 515.304 597.926 515.654 581.502C516.137 558.827 512.921 539.668 505.419 526.757C488.161 497.058 450.226 474.917 410.045 471.282L262.036 468.386Z" fill="black"/>
<path d="M410.516 464.534L261.77 461.646C261.77 461.646 225.955 463.127 204.023 531.281C182.09 599.435 227.791 691.01 289.635 709.484C351.478 727.959 398.776 726.593 442.152 709.997C485.529 693.4 513.236 641.319 516.925 626.919C520.614 612.519 529.71 555.12 511.259 523.367C492.807 491.614 452.796 468.312 410.516 464.534Z" stroke="black" stroke-width="0.01875" stroke-miterlimit="10" stroke-linecap="round" stroke-linejoin="round"/>
<path d="M536.186 565.419C534.939 554.254 516.084 547.195 494.072 549.654C472.061 552.113 455.228 563.158 456.475 574.323C457.722 585.489 476.577 592.548 498.589 590.089C520.601 587.63 537.433 576.585 536.186 565.419Z" fill="#FF497F" stroke="black" stroke-width="0.01875" stroke-miterlimit="10" stroke-linecap="round" stroke-linejoin="round"/>
<path d="M502.636 542.419C523.88 542.365 541.326 550.567 542.9 564.659C544.699 580.765 524.582 593.979 499.347 596.797C474.111 599.616 451.575 591.169 449.776 575.063C447.977 558.957 468.094 545.772 493.33 542.953C496.484 542.601 499.602 542.426 502.636 542.419ZM501.99 555.915C499.654 555.941 497.247 556.094 494.82 556.365C485.112 557.449 476.314 560.396 470.245 564.378C465.148 567.723 462.913 571.114 463.188 573.573C463.463 576.032 466.391 578.858 472.101 580.996C478.899 583.541 488.121 584.47 497.828 583.386C507.536 582.301 516.334 579.355 522.403 575.372C527.5 572.027 529.763 568.637 529.488 566.178C529.214 563.719 526.257 560.892 520.547 558.755C515.448 556.846 508.998 555.837 501.99 555.915Z" fill="black"/>
<path d="M246.182 578.168C246.469 566.937 228.752 557.373 206.611 556.807C184.47 556.241 166.288 564.887 166.001 576.119C165.714 587.351 183.43 596.914 205.572 597.48C227.713 598.046 245.895 589.4 246.182 578.168Z" fill="#FF497F" stroke="black" stroke-width="0.01875" stroke-miterlimit="10" stroke-linecap="round" stroke-linejoin="round"/>
<path d="M206.787 550.067C232.171 550.715 253.341 562.152 252.927 578.353C252.513 594.553 230.793 604.869 205.409 604.22C180.025 603.572 158.854 592.135 159.268 575.934C159.682 559.734 181.402 549.417 206.787 550.067ZM206.449 563.563C196.684 563.313 187.559 565.029 181.003 568.146C175.497 570.764 172.8 573.826 172.737 576.3C172.673 578.773 175.216 581.952 180.581 584.848C186.969 588.296 195.981 590.474 205.746 590.724C215.511 590.974 224.609 589.258 231.164 586.141C236.67 583.523 239.367 580.46 239.431 577.987C239.494 575.514 236.979 572.335 231.614 569.439C225.226 565.991 216.214 563.813 206.449 563.563Z" fill="black"/>
<path d="M670.843 526.161C678.694 547.614 664.146 581.618 643.373 603.455C618.571 629.53 574.936 617.936 574.936 617.936L573.895 607.42C573.99 607.209 574.053 607.041 574.149 606.829C605.998 536.146 658.05 527.278 670.843 526.161Z" fill="#F9B192"/>
<path d="M589.945 577.834C589.945 577.834 604.504 550.467 637.125 535.689" stroke="black" stroke-width="0.01875" stroke-miterlimit="10" stroke-linecap="round" stroke-linejoin="round"/>
<path d="M577.446 640.887C577.446 640.887 562.255 525.046 564.947 496.464" stroke="black" stroke-width="0.01875" stroke-miterlimit="10" stroke-linecap="round" stroke-linejoin="round"/>
<path d="M606.146 559.992C606.146 559.992 618.298 561.743 623.99 567.764" stroke="black" stroke-width="0.01875" stroke-miterlimit="10" stroke-linecap="round" stroke-linejoin="round"/>
<path d="M574.939 617.947C574.939 617.947 618.567 629.521 643.369 603.446C668.172 577.372 684.23 533.892 663.698 515.227C643.167 496.561 611.107 482.881 566.199 528.46" stroke="black" stroke-width="0.01875" stroke-miterlimit="10" stroke-linecap="round" stroke-linejoin="round"/>
<path d="M624.103 490.992C640.413 491.049 654.83 498.026 668.247 510.224C680.122 521.02 682.555 538.429 677.048 558.361C672.243 575.752 661.536 594.139 648.256 608.101C640.415 616.344 630.549 621.713 619.211 624.634C606.4 627.933 592.938 627.915 580.296 625.899C578.413 625.599 576.707 625.269 575.207 624.943C574.276 624.741 573.609 624.57 573.211 624.465C569.608 623.509 567.447 619.829 568.403 616.227C569.358 612.624 573.067 610.463 576.669 611.418C576.874 611.473 577.349 611.598 578.075 611.756C579.336 612.03 580.805 612.311 582.433 612.571C593.401 614.321 605.084 614.357 615.837 611.587C624.853 609.265 632.486 605.086 638.471 598.794C650.258 586.403 659.831 569.959 664.03 554.762C668.319 539.236 666.613 526.977 659.165 520.206C648.01 510.064 636.588 504.532 624.075 504.489C608.232 504.434 590.662 513.259 571.018 533.196C568.402 535.851 564.112 535.868 561.458 533.252C558.803 530.637 558.786 526.375 561.402 523.721C583.402 501.392 604.238 490.924 624.103 490.992Z" fill="black"/>
<path d="M574.939 617.947C574.939 617.947 618.567 629.521 643.369 603.446C668.172 577.372 684.23 533.892 663.698 515.227C643.167 496.561 611.107 482.881 566.199 528.46" fill="#F3886D"/>
<path d="M574.939 617.947C574.939 617.947 618.567 629.521 643.369 603.446C668.172 577.372 684.23 533.892 663.698 515.227C643.167 496.561 611.107 482.881 566.199 528.46" stroke="black" stroke-width="0.01875" stroke-miterlimit="10" stroke-linecap="round" stroke-linejoin="round"/>
<path d="M670.843 526.161C678.694 547.614 664.146 581.618 643.373 603.455C618.571 629.53 574.936 617.936 574.936 617.936L573.895 607.42C573.99 607.209 574.053 607.041 574.149 606.829C605.998 536.146 658.05 527.278 670.843 526.161Z" fill="#F9B192"/>
<path d="M636.954 528.95C639.583 528.883 642.127 530.368 643.28 532.914C644.818 536.309 643.301 540.29 639.906 541.827C631.057 545.836 623.087 551.091 615.978 557.264C609.903 562.538 604.79 568.186 600.626 573.825C599.181 575.781 597.967 577.591 596.971 579.195C596.631 579.742 596.358 580.198 596.127 580.601C596.001 580.821 595.923 580.956 595.902 580.995C594.152 584.285 590.055 585.528 586.764 583.778C583.474 582.028 582.23 577.958 583.981 574.668C584.263 574.138 584.765 573.265 585.499 572.081C586.682 570.175 588.106 568.067 589.773 565.811C594.498 559.413 600.286 553.016 607.149 547.057C615.208 540.059 624.251 534.11 634.339 529.54C635.187 529.156 636.077 528.972 636.954 528.95Z" fill="black"/>
<path d="M607.12 553.3C607.956 553.421 609.276 553.691 610.944 554.087C613.714 554.745 616.478 555.608 619.126 556.73C623.032 558.385 626.349 560.461 628.883 563.141C631.443 565.849 631.338 570.112 628.63 572.673C625.922 575.233 621.659 575.1 619.098 572.392C618.024 571.255 616.201 570.147 613.868 569.158C611.984 568.36 609.909 567.713 607.823 567.218C607.089 567.044 606.426 566.879 605.827 566.768C605.491 566.706 605.259 566.695 605.181 566.684C601.492 566.152 598.94 562.724 599.472 559.036C600.004 555.347 603.431 552.768 607.12 553.3Z" fill="black"/>
<path d="M624.103 490.992C640.413 491.049 654.83 498.026 668.247 510.224C680.122 521.02 682.555 538.429 677.048 558.361C672.243 575.752 661.536 594.139 648.256 608.101C640.415 616.344 630.549 621.713 619.211 624.634C606.4 627.933 592.938 627.915 580.296 625.899C578.413 625.599 576.707 625.269 575.207 624.943C574.276 624.741 573.609 624.57 573.211 624.465C569.608 623.509 567.447 619.829 568.403 616.227C569.358 612.624 573.067 610.463 576.669 611.418C576.874 611.473 577.349 611.598 578.075 611.756C579.336 612.03 580.805 612.311 582.433 612.571C593.401 614.321 605.084 614.357 615.837 611.587C624.853 609.265 632.486 605.086 638.471 598.794C650.258 586.403 659.831 569.959 664.03 554.762C668.319 539.236 666.613 526.977 659.165 520.206C648.01 510.064 636.588 504.532 624.075 504.489C608.232 504.434 590.662 513.259 571.018 533.196C568.402 535.851 564.112 535.868 561.458 533.252C558.803 530.637 558.786 526.375 561.402 523.721C583.402 501.392 604.238 490.924 624.103 490.992Z" fill="black"/>
<path d="M565.591 489.755C569.301 490.105 572.014 493.383 571.664 497.094C570.69 507.441 572.156 531.625 575.46 564.856C576.152 571.813 576.918 579.042 577.738 586.507C579.136 599.248 580.653 612.013 582.152 624.184C582.677 628.443 584.142 639.969 584.148 640.014C584.633 643.709 582.023 647.093 578.328 647.577C574.633 648.062 571.249 645.453 570.765 641.757C570.758 641.707 569.267 630.122 568.74 625.843C567.235 613.616 565.731 600.802 564.326 587.997C563.502 580.488 562.745 573.183 562.048 566.178C558.645 531.944 557.134 507.403 558.224 495.828C558.574 492.118 561.881 489.406 565.591 489.755Z" fill="black"/>
<path d="M410.461 465.183L261.715 462.296C261.715 462.296 225.9 463.776 203.968 531.93C182.035 600.084 227.736 691.66 289.58 710.134C351.423 728.609 398.721 727.244 442.097 710.647C485.474 694.051 513.181 641.969 516.87 627.569C520.559 613.169 529.655 555.769 511.203 524.016C492.752 492.263 452.741 468.961 410.461 465.183Z" fill="#F3886D" stroke="black" stroke-width="0.01875" stroke-miterlimit="10" stroke-linecap="round" stroke-linejoin="round"/>
<path d="M261.712 462.31L287.889 462.816L324.357 493.577L360.797 464.222L410.452 465.178C452.732 468.956 492.745 492.275 511.196 524.028C518.604 536.777 521.474 553.621 522.134 570.196L503.183 576.635L473.66 582.708C473.66 582.708 475.499 677.789 381.547 690.735C287.596 703.681 226.937 659.651 223.978 589.372L201.878 578.744C201.878 578.744 199.573 578.474 198.87 578.406C197.816 562.476 199.222 546.647 203.959 531.928C225.891 463.774 261.712 462.31 261.712 462.31Z" fill="#F9B192"/>
<path d="M261.841 455.539L410.582 458.435C410.738 458.438 410.903 458.449 411.06 458.463C455.48 462.432 497.45 486.928 517.034 520.63C526.034 536.118 529.627 557.503 529.096 582.432C528.724 599.891 526.18 618.459 523.416 629.247C520.879 639.15 511.481 656.868 499.741 672.351C484.031 693.071 465.331 708.982 444.519 716.945C398.135 734.692 348.935 734.914 287.653 716.608C221.43 696.825 174.699 600.822 197.537 529.853C203.443 511.501 210.685 496.683 219.019 485.062C227.799 472.818 237.386 464.656 247.108 459.869C250.627 458.136 253.945 456.953 256.977 456.242C258.088 455.981 259.085 455.798 259.986 455.679C260.597 455.599 261.104 455.581 261.448 455.567C261.584 455.561 261.705 455.536 261.841 455.539ZM261.982 469.035C261.995 469.035 261.929 469.034 261.926 469.035C261.916 469.037 261.912 469.043 261.757 469.063C261.295 469.124 260.739 469.244 260.07 469.401C258.016 469.883 255.653 470.715 253.069 471.987C245.353 475.787 237.479 482.483 229.984 492.935C222.501 503.37 215.879 516.921 210.387 533.986C189.809 597.931 232.722 686.113 291.505 703.674C350.07 721.169 396.24 720.971 439.683 704.349C457.829 697.406 474.688 683.074 489.001 664.197C499.735 650.04 508.299 633.874 510.342 625.901C512.849 616.113 515.25 598.575 515.6 582.151C516.083 559.477 512.867 540.317 505.365 527.407C488.107 497.707 450.172 475.566 409.991 471.931L261.982 469.035Z" fill="black"/>
<path d="M261.841 455.567L288.019 456.073C289.566 456.103 291.053 456.65 292.236 457.648L324.458 484.837L356.568 458.969C357.803 457.975 359.342 457.448 360.927 457.479L410.582 458.435C410.739 458.438 410.903 458.449 411.06 458.463C455.473 462.432 497.447 486.924 517.034 520.63C524.431 533.36 528.08 550.054 528.871 569.92C528.99 572.907 527.146 575.622 524.316 576.584L505.365 583.023C505.099 583.113 504.824 583.191 504.55 583.247L480.228 588.252C480.214 588.497 480.217 588.588 480.2 588.843C479.933 592.889 479.435 597.298 478.654 602.002C476.47 615.138 472.461 628.24 466.169 640.522C450.472 671.167 423.227 691.814 382.464 697.432C288.893 710.325 223.112 667.7 217.641 593.82L199.983 585.328C199.193 585.239 198.34 585.144 198.212 585.131C194.92 584.815 192.357 582.161 192.139 578.861C190.984 561.403 192.706 544.865 197.537 529.853C203.444 511.498 210.682 496.682 219.019 485.062C227.8 472.822 237.385 464.651 247.108 459.869C250.627 458.138 253.945 456.98 256.977 456.27C258.088 456.01 259.085 455.826 259.986 455.708C260.597 455.627 261.104 455.581 261.448 455.567C261.583 455.561 261.706 455.564 261.841 455.567ZM261.982 469.063C261.995 469.063 261.929 469.063 261.926 469.063C261.916 469.066 261.912 469.071 261.757 469.091C261.295 469.152 260.711 469.244 260.042 469.401C257.988 469.882 255.653 470.717 253.069 471.987C245.353 475.783 237.479 482.488 229.984 492.935C222.499 503.369 215.879 516.918 210.387 533.986C206.562 545.87 205.026 559.035 205.466 572.985L226.892 583.276C229.137 584.355 230.611 586.607 230.716 589.096C233.57 656.885 292.581 696.182 380.637 684.048C416.872 679.055 440.408 661.218 454.163 634.365C459.768 623.423 463.356 611.656 465.326 599.809C466.032 595.561 466.494 591.559 466.732 587.943C466.818 586.634 466.874 585.471 466.901 584.428C466.918 583.745 466.904 583.227 466.901 582.882C466.9 582.831 466.9 582.811 466.901 582.826C466.838 579.574 469.114 576.761 472.299 576.106L501.429 570.117L515.009 565.506C513.925 549.938 510.875 536.889 505.365 527.407C488.104 497.702 450.165 475.565 409.991 471.931L363.12 471.031L328.592 498.839C326.076 500.866 322.485 500.81 320.016 498.727L285.404 469.513L261.982 469.063Z" fill="black" fill-opacity="0.5"/>
<path d="M261.841 455.539L410.582 458.435C410.738 458.438 410.903 458.449 411.06 458.463C455.48 462.432 497.45 486.928 517.034 520.63C526.034 536.118 529.627 557.503 529.096 582.432C528.724 599.891 526.18 618.459 523.416 629.247C520.879 639.15 511.481 656.868 499.741 672.351C484.031 693.071 465.331 708.982 444.519 716.945C398.135 734.692 348.935 734.914 287.653 716.608C221.43 696.825 174.699 600.822 197.537 529.853C203.443 511.501 210.685 496.683 219.019 485.062C227.799 472.818 237.386 464.656 247.108 459.869C250.627 458.136 253.945 456.953 256.977 456.242C258.088 455.981 259.085 455.798 259.986 455.679C260.597 455.599 261.104 455.581 261.448 455.567C261.584 455.561 261.705 455.536 261.841 455.539ZM261.982 469.035C261.995 469.035 261.929 469.034 261.926 469.035C261.916 469.037 261.912 469.043 261.757 469.063C261.295 469.124 260.739 469.244 260.07 469.401C258.016 469.883 255.653 470.715 253.069 471.987C245.353 475.787 237.479 482.483 229.984 492.935C222.501 503.37 215.879 516.921 210.387 533.986C189.809 597.931 232.722 686.113 291.505 703.674C350.07 721.169 396.24 720.971 439.683 704.349C457.829 697.406 474.688 683.074 489.001 664.197C499.735 650.04 508.299 633.874 510.342 625.901C512.849 616.113 515.25 598.575 515.6 582.151C516.083 559.477 512.867 540.317 505.365 527.407C488.107 497.707 450.172 475.566 409.991 471.931L261.982 469.035Z" fill="black"/>
<path d="M410.461 465.183L261.715 462.296C261.715 462.296 225.9 463.776 203.968 531.93C182.035 600.084 227.736 691.66 289.58 710.134C351.423 728.609 398.721 727.244 442.097 710.647C485.474 694.051 513.181 641.969 516.87 627.569C520.559 613.169 529.655 555.769 511.203 524.016C492.752 492.263 452.741 468.961 410.461 465.183Z" stroke="black" stroke-width="0.01875" stroke-miterlimit="10" stroke-linecap="round" stroke-linejoin="round"/>
<path d="M536.132 566.069C534.885 554.903 516.03 547.844 494.018 550.303C472.007 552.762 455.174 563.807 456.421 574.973C457.668 586.138 476.523 593.197 498.535 590.738C520.546 588.279 537.379 577.234 536.132 566.069Z" fill="#FF497F" stroke="black" stroke-width="0.01875" stroke-miterlimit="10" stroke-linecap="round" stroke-linejoin="round"/>
<path d="M502.581 543.069C523.825 543.015 541.271 551.217 542.845 565.31C544.644 581.415 524.527 594.629 499.292 597.448C474.056 600.267 451.52 591.819 449.721 575.713C447.922 559.607 468.039 546.422 493.275 543.603C496.429 543.251 499.547 543.077 502.581 543.069ZM501.935 556.565C499.599 556.591 497.192 556.744 494.765 557.015C485.057 558.099 476.259 561.046 470.19 565.029C465.093 568.373 462.858 571.764 463.133 574.223C463.407 576.682 466.336 579.508 472.046 581.646C478.844 584.191 488.065 585.12 497.773 584.036C507.481 582.951 516.279 580.005 522.348 576.022C527.445 572.678 529.708 569.287 529.433 566.828C529.159 564.369 526.202 561.542 520.492 559.405C515.393 557.496 508.943 556.488 501.935 556.565Z" fill="black"/>
<path d="M246.128 578.818C246.415 567.586 228.698 558.022 206.557 557.456C184.416 556.89 166.234 565.537 165.947 576.768C165.66 588 183.376 597.564 205.518 598.129C227.659 598.695 245.841 590.049 246.128 578.818Z" fill="#FF497F" stroke="black" stroke-width="0.01875" stroke-miterlimit="10" stroke-linecap="round" stroke-linejoin="round"/>
<path d="M206.732 550.716C232.116 551.365 253.286 562.801 252.872 579.002C252.458 595.202 230.738 605.519 205.354 604.87C179.969 604.221 158.799 592.784 159.213 576.584C159.627 560.383 181.347 550.067 206.732 550.716ZM206.394 564.212C196.629 563.963 187.503 565.678 180.948 568.795C175.442 571.414 172.745 574.476 172.681 576.949C172.618 579.423 175.161 582.601 180.526 585.497C186.914 588.945 195.926 591.124 205.691 591.373C215.456 591.623 224.554 589.908 231.109 586.79C236.615 584.172 239.312 581.11 239.376 578.636C239.439 576.163 236.924 572.985 231.559 570.089C225.171 566.64 216.159 564.462 206.394 564.212Z" fill="black"/>
<path d="M406.314 518.899C406.314 513.024 401.857 508.262 396.359 508.262C390.861 508.262 386.404 513.024 386.404 518.899C386.404 524.774 390.861 529.536 396.359 529.536C401.857 529.536 406.314 524.774 406.314 518.899Z" fill="black"/>
<path d="M283.582 519.716C283.582 513.841 279.125 509.079 273.627 509.079C268.129 509.079 263.672 513.841 263.672 519.716C263.672 525.591 268.129 530.353 273.627 530.353C279.125 530.353 283.582 525.591 283.582 519.716Z" fill="black"/>
<path d="M406.538 490.342C409.161 490.531 411.542 492.25 412.442 494.897C413.643 498.425 411.753 502.271 408.225 503.472L381.57 512.554C378.042 513.755 374.195 511.865 372.994 508.337C371.793 504.808 373.684 500.962 377.212 499.761L403.867 490.679C404.749 490.379 405.664 490.278 406.538 490.342Z" fill="black"/>
<path d="M260.273 487.107C261.149 487.131 262.04 487.339 262.888 487.726L281.389 496.161C284.78 497.708 286.253 501.712 284.707 505.102C283.16 508.493 279.156 509.967 275.765 508.42L257.264 499.985C253.874 498.438 252.4 494.434 253.946 491.043C255.107 488.5 257.644 487.034 260.273 487.107Z" fill="black"/>
<path d="M315.324 601.934C310.37 612.352 294.187 629.58 285.215 602.374C276.243 575.168 292.032 562.519 303.899 567.547C322.34 575.361 323.493 584.76 315.324 601.934Z" fill="#AC3A34" stroke="black" stroke-width="0.01875" stroke-miterlimit="10" stroke-linecap="round" stroke-linejoin="round"/>
<path d="M299.638 559.734C301.955 559.853 304.277 560.383 306.527 561.337C327.88 570.384 331.629 583.386 321.429 604.834C317.787 612.491 311.234 619.888 304.193 622.576C293.293 626.736 283.926 620.031 278.803 604.497C274.041 590.057 275.071 577.447 281.277 568.9C285.809 562.66 292.687 559.378 299.638 559.734ZM298.879 573.23C296.46 573.131 294.027 574.333 292.215 576.829C288.802 581.53 288.127 589.642 291.625 600.251C293.348 605.478 295.247 608.542 296.939 609.755C297.708 610.306 298.31 610.362 299.385 609.951C302.641 608.709 306.937 603.855 309.226 599.042C316.326 584.113 315.037 579.598 301.269 573.764C300.493 573.436 299.685 573.263 298.879 573.23Z" fill="black"/>
<path opacity="0.201073" d="M560.132 187.287C560.132 187.287 582.004 322.897 516.387 423.51C506.286 438.997 479.34 490.863 479.34 490.863C497.31 677.01 373.812 721.065 373.812 721.065C422.002 737.028 465.035 691.006 465.913 699.796C468.535 726.051 472.977 748.072 478.428 762.937L636.914 701.053L620.814 641.684V619.043L650.497 600.427L675.471 525.737C675.471 525.737 628.361 522.946 598.676 564.705L568.487 548.605L568.992 528.983L588.614 510.368L607.732 494.267L608.236 459.552L615.781 381.567L650.497 378.045C650.497 378.045 668.108 333.77 667.604 323.707C667.101 313.645 659.554 258.301 659.554 258.301L604.21 260.817L586.601 224.591L560.132 187.287Z" fill="black"/>
<path opacity="0.201073" d="M172.964 552.415L128.459 526.592L130.487 564.976C130.487 564.976 149.016 594.186 152.316 598.192C155.616 602.198 168.466 612.61 168.466 612.61C168.466 612.61 173.578 600.073 173.028 595.428C172.479 590.783 169.501 578.888 169.501 578.888L172.844 564.676L172.964 552.415Z" fill="black"/>
<path opacity="0.201073" d="M467.877 278.583C466.189 268.337 499.668 329.433 392.932 399.413C303.874 457.803 279.46 451.278 198.295 437.266L205.699 403.124L249.96 398.723L276.375 388.924L288.417 370.444L313.72 362.76L369.669 347.5L388.905 365.046L431.509 354.705L459.707 327.274C459.707 327.274 469.566 288.828 467.877 278.583Z" fill="black"/>
</svg>
