<svg width="800" height="800" viewBox="0 0 800 800" fill="none" xmlns="http://www.w3.org/2000/svg">
<path d="M186.022 395.685C186.022 395.685 171.58 361.035 148.457 354.735C125.334 348.436 89.3338 434.853 168.391 502.425" fill="#F3886D"/>
<path d="M186.022 395.685C186.022 395.685 171.58 361.035 148.457 354.735C125.334 348.436 89.3338 434.853 168.391 502.425" stroke="black" stroke-width="0.01875" stroke-miterlimit="10" stroke-linejoin="round"/>
<path d="M124.247 379.629C156.451 421.449 164.96 477.674 164.96 477.674L153.995 488.555C117.623 449.087 115.494 406.045 124.247 379.629Z" fill="#F9B192"/>
<path d="M383.938 78.2402C409.51 78.2401 430.247 98.9768 430.247 124.549C430.247 136.299 425.716 147.17 418.128 155.478C422.599 161.695 427.469 168.05 433.368 174.851C447.206 190.806 463.814 201.216 491.542 213.344C493.791 214.327 505.902 219.476 506.557 219.754C529.428 229.478 541.337 235.378 553.569 244.132C569.946 255.853 581.861 270.284 589.531 289.063C600.965 317.059 599.697 342.981 588.997 366.02C604.899 395.559 614.553 428.051 617.114 461.872C625.302 458.176 633.72 456.564 642.785 457.148C657.626 458.104 669.684 466.933 678.747 480.823C685.531 491.219 690.507 504.359 693.171 517.46C698.859 545.421 673.666 583.975 638.511 604.314C625.226 612.001 610.503 616.358 595.07 618.092C587.558 618.935 580.659 618.924 574.067 618.626C529.241 682.591 456.171 721.76 376.346 721.76C245.467 721.76 138.853 617.57 135.044 487.403C112.058 457.802 102.965 424.445 106.926 393.575C110.715 364.049 126.41 340.053 146.628 340.574C148.503 340.622 150.3 340.904 152.083 341.39C159.249 343.342 165.67 347.153 171.624 352.215C172.912 350.154 174.299 348.184 175.645 346.17C154.826 300.556 179.717 246.034 229.574 221.976C274.367 200.361 311.682 179.947 327.31 166.669C331.89 162.777 337.535 155.997 343.786 147.212C339.91 140.377 337.629 132.661 337.629 124.549C337.628 98.9769 358.365 78.2403 383.938 78.2402ZM383.938 92.0739C366.003 92.0739 351.462 106.615 351.462 124.549C351.462 133.336 354.987 141.281 360.657 147.127C352.835 158.941 344.091 170.551 336.251 177.213C315.831 194.563 265.12 220.182 235.591 234.431C191.48 255.717 167.405 306.13 191.644 347.097C185.178 356.052 179.369 365.517 174.239 375.383C167.832 366.592 159.127 357.653 148.456 354.745C147.733 354.549 147.006 354.427 146.262 354.408C125.486 353.872 97.9409 421.327 148.709 482.566C149.969 607.238 251.376 707.926 376.346 707.926C456.258 707.926 526.489 666.709 567.122 604.427C577.189 605.527 606.01 607.139 631.595 592.336C662.873 574.239 683.808 540.81 679.619 520.215C675.43 499.621 663.209 472.327 641.885 470.954C628.168 470.071 616.512 475.897 603.843 487.881C603.927 485.332 604.04 482.802 604.04 480.233C604.04 438.716 592.859 399.816 573.448 366.301C583.207 348.973 589.148 324.677 576.738 294.293C550.25 229.439 470.327 238.576 422.908 183.905C412.585 172.002 405.182 161.819 399.487 152.891C409.525 147.368 416.413 136.816 416.413 124.549C416.413 106.615 401.872 92.0738 383.938 92.0739Z" fill="black"/>
<path d="M146.43 347.66C147.712 347.693 148.97 347.88 150.226 348.222C161.442 351.278 171.09 359.573 179.749 371.475C181.254 373.544 181.464 376.29 180.283 378.561C164.024 409.85 155.399 444.453 155.4 480.233C155.4 480.428 155.402 480.636 155.428 481.132C155.428 481.137 155.479 482.103 155.484 482.538C155.549 488.892 147.591 491.787 143.534 486.896C119.451 457.862 110.068 424.802 113.955 394.475C117.335 368.099 130.956 347.261 146.43 347.66ZM146.093 361.156C143.715 361.095 139.985 363.786 136.392 369.282C132.018 375.973 128.713 385.463 127.339 396.19C124.607 417.502 129.549 440.503 142.662 462.238C144.974 432.181 153.065 403.155 166.365 376.339C160.067 368.482 153.452 363.113 146.683 361.268C146.432 361.2 146.244 361.16 146.093 361.156Z" fill="black"/>
<path d="M604.034 480.219C604.034 354.465 502.091 252.522 376.337 252.522C250.583 252.522 148.639 354.465 148.639 480.219C148.639 605.973 250.583 707.917 376.337 707.917C502.091 707.917 604.034 605.973 604.034 480.219Z" fill="#F3886D" stroke="black" stroke-width="0.01875" stroke-miterlimit="10" stroke-linecap="round" stroke-linejoin="round"/>
<path d="M151.8 517.854C151.625 516.804 151.426 515.759 151.265 514.704C150.845 511.944 150.517 509.145 150.197 506.354C150.078 505.311 149.936 504.279 149.831 503.233C149.562 500.564 149.36 497.886 149.185 495.191C149.11 494.036 149.017 492.893 148.96 491.733C148.77 487.927 148.65 484.086 148.65 480.233C148.651 456.052 152.408 432.732 159.391 410.867C165.462 407.995 172.028 406.232 178.989 405.919C187.691 405.527 196.918 407.248 206.235 411.317C232.724 422.886 252.783 450.408 259.742 480.711C285.87 453.669 335.958 442.855 387.76 456.614C455.208 474.53 499.847 527.2 487.435 574.257C475.358 620.047 413.712 643.511 348.255 628.242C365.921 648.784 375.887 669.014 373.448 683.267C372.139 690.916 366.026 699.462 356.915 707.026C290.63 701.421 232.408 667.491 194.51 617.304C191.985 608.097 190.028 599.253 188.999 591.605C181.663 586.498 174.348 579.252 167.405 570.77C160.157 554.07 154.884 536.337 151.8 517.854Z" fill="#F9B192"/>
<path d="M376.344 245.763C505.825 245.763 610.786 350.752 610.786 480.233C610.786 609.713 505.825 714.674 376.344 714.674C246.863 714.674 141.902 609.714 141.902 480.233C141.902 350.752 246.863 245.763 376.344 245.763ZM376.344 259.259C254.317 259.259 155.398 358.206 155.399 480.233C155.399 602.26 254.317 701.178 376.344 701.178C498.371 701.178 597.29 602.26 597.289 480.233C597.289 358.206 498.371 259.259 376.344 259.259Z" fill="black"/>
<path d="M376.344 245.763C505.825 245.763 610.786 350.752 610.786 480.233C610.786 609.713 505.825 714.674 376.344 714.674C246.863 714.674 141.902 609.714 141.902 480.233C141.902 350.752 246.863 245.763 376.344 245.763ZM376.344 259.259C254.317 259.259 155.398 358.206 155.399 480.233C155.399 602.26 254.317 701.178 376.344 701.178C498.371 701.178 597.29 602.26 597.289 480.233C597.289 358.206 498.371 259.259 376.344 259.259Z" fill="black"/>
<path d="M327.477 515.294C330.107 515.264 332.629 516.781 333.747 519.343C338.467 530.157 346.237 537.199 356.438 541.302C365.509 544.951 375.227 545.877 383.487 545.239C384.243 545.18 384.747 545.126 384.949 545.098C388.64 544.586 392.056 547.171 392.569 550.862C393.081 554.554 390.496 557.941 386.805 558.454C386.34 558.518 385.564 558.599 384.527 558.679C374.377 559.463 362.705 558.36 351.405 553.814C338.061 548.447 327.584 538.964 321.376 524.741C319.885 521.326 321.446 517.347 324.862 515.856C325.716 515.483 326.601 515.304 327.477 515.294Z" fill="black"/>
<path d="M204.803 478.236C206.501 477.924 208.329 478.247 209.864 479.305C212.932 481.42 213.694 485.627 211.579 488.696C211.433 488.908 211.204 489.244 210.876 489.68C210.358 490.369 209.755 491.12 209.076 491.929C207.154 494.225 204.94 496.524 202.497 498.678C197.264 503.29 191.595 506.663 185.458 508.209C177.454 510.226 169.381 508.899 161.839 503.739C158.764 501.634 157.963 497.423 160.068 494.347C162.173 491.272 166.383 490.5 169.459 492.604C177.264 497.945 185.218 495.93 193.584 488.555C195.48 486.884 197.219 485.072 198.729 483.269C199.253 482.644 199.698 482.061 200.079 481.554C200.206 481.385 200.474 481.046 200.473 481.048C201.53 479.514 203.104 478.549 204.803 478.236Z" fill="black"/>
<path d="M345.95 541.556C350.355 541.556 353.685 544.316 355.707 548.276C357.205 551.211 357.984 554.873 357.984 558.68C357.984 562.486 357.205 566.148 355.707 569.083C353.685 573.044 350.355 575.803 345.95 575.803C341.545 575.803 338.216 573.044 336.194 569.083C334.695 566.148 333.916 562.486 333.916 558.68C333.916 554.873 334.695 551.211 336.194 548.276C338.216 544.315 341.545 541.556 345.95 541.556Z" fill="black"/>
<path d="M184.671 496.062C192.03 496.062 196.396 503.194 196.396 510.937C196.396 518.679 192.03 525.839 184.671 525.839C177.311 525.839 172.918 518.679 172.918 510.937C172.918 503.194 177.311 496.062 184.671 496.062Z" fill="black"/>
<path d="M234.747 624.024C237.346 623.623 240.054 624.767 241.523 627.145C246.453 635.128 250.711 639.028 253.979 639.967C255.538 640.415 256.761 640.063 258.028 639.067C258.387 638.784 258.723 638.492 258.984 638.195C259.105 638.058 259.137 637.995 259.096 638.055C261.725 634.201 267.37 634.117 270.118 637.886C279.229 650.387 287.122 656.268 293.568 657.203C297.744 657.808 301.403 656.226 304.73 652.957C305.808 651.898 306.752 650.755 307.542 649.611C307.812 649.22 308.062 648.849 308.245 648.543C308.336 648.39 308.36 648.313 308.357 648.318C310.095 645.021 314.199 643.768 317.496 645.506C320.793 647.244 322.045 651.319 320.307 654.616C320.201 654.818 320.047 655.095 319.829 655.459C319.498 656.014 319.092 656.616 318.648 657.259C317.398 659.069 315.935 660.875 314.206 662.573C308.121 668.551 300.492 671.843 291.628 670.558C282.481 669.233 273.231 662.753 263.764 651.354C259.837 653.558 255.27 654.366 250.267 652.929C243.26 650.915 236.584 644.809 230.051 634.231C228.093 631.06 229.073 626.911 232.244 624.952C233.037 624.463 233.88 624.158 234.747 624.024Z" fill="black"/>
<path d="M312.063 569.902L312.075 569.895C315.255 567.956 319.404 568.962 321.343 572.143L332.965 591.216C334.903 594.397 333.897 598.547 330.716 600.487L330.705 600.494C327.525 602.433 323.375 601.426 321.437 598.246L309.814 579.172C307.876 575.992 308.883 571.841 312.063 569.902Z" fill="#FF0000" fill-opacity="0.5"/>
<path d="M279.552 552.232L308.708 600.78C310.626 603.974 309.594 608.121 306.401 610.043L306.377 610.057C303.185 611.979 299.043 610.947 297.125 607.752L267.967 559.178C266.049 555.983 267.085 551.841 270.281 549.925L270.293 549.918C273.488 548.002 277.634 549.038 279.552 552.232Z" fill="#FF0000" fill-opacity="0.5"/>
<path d="M251.577 548.942L278.284 595.326C280.141 598.551 279.03 602.668 275.804 604.522L275.792 604.528C272.565 606.382 268.443 605.271 266.586 602.046L239.881 555.69C238.024 552.465 239.131 548.343 242.354 546.484L242.378 546.47C245.602 544.61 249.72 545.717 251.577 548.942Z" fill="#FF0000" fill-opacity="0.5"/>
<path d="M239.471 593.284L217.678 554.299C215.862 551.05 217.024 546.945 220.274 545.13L220.286 545.123C223.536 543.308 227.643 544.471 229.46 547.72L251.252 586.705C253.069 589.954 251.906 594.06 248.656 595.875L248.645 595.881C245.395 597.696 241.287 596.534 239.471 593.284Z" fill="#FF0000" fill-opacity="0.5"/>
<path d="M215.262 560.386L223.302 575.248C225.073 578.52 223.855 582.606 220.581 584.375L220.569 584.381C217.296 586.15 213.207 584.931 211.437 581.658L203.396 566.797C201.626 563.525 202.844 559.438 206.117 557.67L206.129 557.663C209.402 555.895 213.491 557.114 215.262 560.386Z" fill="#FF0000" fill-opacity="0.5"/>
<path d="M178.68 399.171C188.602 398.724 198.857 400.73 208.934 405.131C233.819 415.999 253.804 440.06 263.256 468.564C293.098 444.828 341.344 437.299 389.503 450.091C460.158 468.858 507.479 524.714 493.959 575.972C481.962 621.454 426.367 646.291 364.282 637.942C376.381 655.294 382.32 671.489 380.112 684.392C378.509 693.759 371.601 703.606 361.217 712.228C359.855 713.359 358.118 713.895 356.353 713.745C289.505 708.092 229.004 674.211 189.111 621.381C188.596 620.699 188.241 619.901 188.015 619.076C185.62 610.342 183.914 602.451 182.813 595.373C175.931 590.196 168.995 583.376 162.175 575.044C161.78 574.562 161.467 574.041 161.219 573.469C153.702 556.148 148.29 537.878 145.136 518.978C145.136 518.978 144.694 516.324 144.602 515.716C144.229 513.274 143.961 511.084 143.505 507.113C143.47 506.806 143.17 504.489 143.111 503.907C142.857 501.381 142.668 498.761 142.465 495.641C142.445 495.334 142.243 492.705 142.212 492.07C142.003 487.886 141.902 483.991 141.902 480.233C141.903 455.704 145.65 431.678 152.952 408.815C153.521 407.033 154.805 405.566 156.495 404.766C163.543 401.432 170.993 399.517 178.68 399.171ZM179.298 412.667C174.385 412.888 169.626 414.125 164.987 415.985C158.727 436.613 155.399 458.182 155.399 480.233C155.399 483.752 155.51 487.422 155.708 491.395C155.734 491.919 155.883 494.405 155.905 494.741C156.098 497.713 156.314 500.207 156.551 502.558C156.597 503.014 156.849 505.24 156.889 505.594C157.326 509.405 157.589 511.46 157.929 513.692C158.001 514.166 158.412 516.447 158.463 516.757C158.463 516.757 166.279 550.598 173.281 567.199C179.92 575.206 186.538 581.671 192.851 586.066C194.403 587.146 195.439 588.831 195.691 590.705C196.59 597.388 198.311 605.417 200.667 614.183C237.696 662.663 293.173 693.964 354.609 699.969C361.493 693.762 365.897 687.325 366.784 682.143C368.727 670.793 360.177 652.441 343.138 632.628C338.882 627.68 343.446 620.18 349.801 621.662C412.341 636.252 469.967 614.037 480.912 572.542C492.214 529.694 450.27 480.204 386.016 463.137C337.495 450.249 289.471 459.672 264.606 485.406C260.885 489.258 254.361 487.449 253.162 482.229C246.48 453.129 227.335 427.897 203.535 417.503C195.311 413.911 187.114 412.315 179.298 412.667Z" fill="black" fill-opacity="0.5"/>
<path d="M412.257 637.529C413.565 628.092 400.544 617.711 383.176 614.342C365.807 610.973 350.667 615.892 349.36 625.329C348.053 634.765 361.073 645.146 378.441 648.515C395.81 651.884 410.95 646.966 412.257 637.529Z" fill="#FF497F" stroke="black" stroke-width="0.01875" stroke-miterlimit="10" stroke-linejoin="round"/>
<path d="M187.941 566.474C189.249 557.037 176.228 546.656 158.86 543.287C141.491 539.918 126.351 544.837 125.044 554.274C123.736 563.71 136.757 574.091 154.125 577.46C171.494 580.829 186.634 575.911 187.941 566.474Z" fill="#FF497F" stroke="black" stroke-width="0.01875" stroke-miterlimit="10" stroke-linejoin="round"/>
<path d="M369.514 606.591C374.242 606.345 379.31 606.714 384.472 607.715C404.906 611.679 420.887 624.422 418.944 638.447C416.938 652.923 397.811 659.155 377.161 655.149C356.728 651.186 340.746 638.414 342.69 624.389C344.194 613.532 355.328 607.327 369.514 606.591ZM371.285 620.059C367.962 620.15 364.918 620.628 362.344 621.465C358.266 622.789 356.274 624.599 356.045 626.245C355.789 628.092 357.369 630.94 361.106 633.921C365.636 637.532 372.293 640.438 379.72 641.878C387.105 643.31 394.141 643.073 399.29 641.4C403.367 640.075 405.36 638.237 405.588 636.592C405.844 634.744 404.264 631.924 400.527 628.944C395.998 625.333 389.312 622.399 381.885 620.959C378.193 620.242 374.608 619.968 371.285 620.059Z" fill="black"/>
<path d="M145.193 535.539C149.922 535.294 154.989 535.663 160.151 536.664C180.585 540.627 196.566 553.371 194.623 567.396C192.618 581.871 173.491 588.103 152.841 584.098C132.407 580.134 116.426 567.362 118.369 553.337C119.873 542.481 131.007 536.276 145.193 535.539ZM146.964 548.979C143.641 549.07 140.598 549.549 138.023 550.385C133.946 551.71 131.953 553.548 131.725 555.193C131.469 557.041 133.049 559.889 136.786 562.869C141.315 566.48 147.973 569.386 155.4 570.826C162.785 572.259 169.82 572.021 174.969 570.348C179.047 569.024 181.04 567.186 181.267 565.54C181.523 563.693 179.944 560.872 176.206 557.892C171.677 554.281 164.992 551.347 157.565 549.907C153.872 549.191 150.288 548.888 146.964 548.979Z" fill="black"/>
<path d="M604.038 480.706C604.038 354.952 502.094 253.008 376.34 253.008C250.587 253.008 148.643 354.952 148.643 480.706C148.643 606.459 250.587 708.403 376.34 708.403C502.094 708.403 604.038 606.459 604.038 480.706Z" fill="#F3886D" stroke="black" stroke-width="0.01875" stroke-miterlimit="10" stroke-linecap="round" stroke-linejoin="round"/>
<path d="M151.803 518.339C151.629 517.289 151.429 516.244 151.269 515.19C150.848 512.43 150.521 509.631 150.201 506.839C150.081 505.796 149.94 504.764 149.835 503.718C149.566 501.049 149.364 498.371 149.188 495.676C149.113 494.521 149.021 493.378 148.963 492.218C148.773 488.412 148.654 484.572 148.654 480.718C148.654 456.537 152.412 433.217 159.395 411.353C165.466 408.481 172.032 406.717 178.993 406.404C187.695 406.013 196.921 407.733 206.238 411.802C232.728 423.371 252.787 450.894 259.745 481.196C285.873 454.154 335.962 443.34 387.763 457.099C455.212 475.015 499.851 527.685 487.439 574.742C475.361 620.532 413.715 643.997 348.259 628.727C365.925 649.269 375.891 669.499 373.452 683.753C372.143 691.401 366.029 699.947 356.919 707.512C290.634 701.906 232.411 667.977 194.513 617.79C191.989 608.582 190.032 599.738 189.002 592.09C181.667 586.983 174.351 579.737 167.408 571.255C160.161 554.556 154.888 536.822 151.803 518.339Z" fill="#F9B192"/>
<path d="M376.348 246.248C505.829 246.248 610.79 351.237 610.789 480.718C610.789 610.199 505.829 715.16 376.348 715.16C246.867 715.16 141.906 610.199 141.906 480.718C141.906 351.237 246.867 246.248 376.348 246.248ZM376.348 259.744C254.321 259.744 155.402 358.691 155.402 480.718C155.402 602.745 254.321 701.663 376.348 701.663C498.375 701.663 597.293 602.745 597.293 480.718C597.293 358.691 498.375 259.744 376.348 259.744Z" fill="black"/>
<path d="M376.348 246.248C505.829 246.248 610.79 351.237 610.789 480.718C610.789 610.199 505.829 715.16 376.348 715.16C246.867 715.16 141.906 610.199 141.906 480.718C141.906 351.237 246.867 246.248 376.348 246.248ZM376.348 259.744C254.321 259.744 155.402 358.691 155.402 480.718C155.402 602.745 254.321 701.663 376.348 701.663C498.375 701.663 597.293 602.745 597.293 480.718C597.293 358.691 498.375 259.744 376.348 259.744Z" fill="black"/>
<path d="M312.067 570.387L312.078 570.38C315.259 568.441 319.408 569.448 321.346 572.628L332.969 591.701C334.907 594.882 333.9 599.033 330.72 600.972L330.709 600.979C327.528 602.918 323.379 601.912 321.441 598.731L309.818 579.658C307.88 576.477 308.887 572.326 312.067 570.387Z" fill="#FF0000" fill-opacity="0.5"/>
<path d="M279.556 552.718L308.712 601.265C310.63 604.459 309.597 608.606 306.405 610.528L306.381 610.542C303.189 612.464 299.046 611.432 297.129 608.237L267.971 559.663C266.053 556.469 267.089 552.326 270.285 550.41L270.296 550.403C273.492 548.487 277.638 549.523 279.556 552.718Z" fill="#FF0000" fill-opacity="0.5"/>
<path d="M251.581 549.427L278.288 595.811C280.145 599.036 279.034 603.153 275.807 605.007L275.796 605.014C272.569 606.867 268.447 605.756 266.59 602.532L239.885 556.175C238.027 552.95 239.135 548.829 242.358 546.969L242.382 546.955C245.605 545.096 249.724 546.202 251.581 549.427Z" fill="#FF0000" fill-opacity="0.5"/>
<path d="M239.475 593.771L217.682 554.786C215.866 551.536 217.028 547.431 220.278 545.616L220.29 545.609C223.54 543.794 227.647 544.957 229.463 548.206L251.256 587.191C253.072 590.44 251.91 594.546 248.66 596.361L248.648 596.367C245.398 598.182 241.291 597.02 239.475 593.771Z" fill="#FF0000" fill-opacity="0.5"/>
<path d="M215.266 560.872L223.307 575.734C225.078 579.006 223.859 583.092 220.586 584.861L220.574 584.867C217.301 586.636 213.212 585.417 211.442 582.145L203.401 567.283C201.63 564.011 202.849 559.925 206.122 558.156L206.134 558.15C209.407 556.381 213.496 557.6 215.266 560.872Z" fill="#FF0000" fill-opacity="0.5"/>
<path d="M178.683 399.656C188.606 399.21 198.86 401.215 208.938 405.617C233.823 416.485 253.808 440.545 263.26 469.049C293.102 445.313 341.348 437.784 389.507 450.576C460.161 469.343 507.482 525.199 493.962 576.457C481.966 621.94 426.371 646.776 364.285 638.428C376.384 655.779 382.324 671.975 380.115 684.877C378.512 694.244 371.605 704.091 361.221 712.713C359.858 713.845 358.121 714.381 356.356 714.232C289.509 708.578 229.008 674.696 189.115 621.867C188.599 621.184 188.244 620.386 188.018 619.561C185.624 610.827 183.918 602.936 182.817 595.858C175.934 590.682 168.998 583.861 162.179 575.529C161.784 575.047 161.471 574.526 161.223 573.955C153.705 556.633 148.293 538.363 145.14 519.463C145.14 519.463 144.697 516.809 144.605 516.202C144.233 513.761 143.964 511.569 143.509 507.598C143.474 507.291 143.174 504.974 143.115 504.393C142.861 501.866 142.672 499.246 142.468 496.126C142.448 495.819 142.247 493.19 142.215 492.555C142.006 488.371 141.906 484.476 141.906 480.718C141.906 456.189 145.654 432.163 152.956 409.3C153.525 407.518 154.808 406.051 156.499 405.251C163.547 401.917 170.997 400.002 178.683 399.656ZM179.302 413.152C174.389 413.373 169.629 414.611 164.99 416.47C158.731 437.098 155.403 458.668 155.402 480.718C155.402 484.237 155.513 487.907 155.712 491.88C155.738 492.404 155.887 494.89 155.908 495.226C156.102 498.199 156.318 500.692 156.555 503.043C156.601 503.499 156.852 505.725 156.893 506.08C157.33 509.89 157.593 511.946 157.933 514.177C158.005 514.651 158.416 516.932 158.467 517.242C158.467 517.242 166.282 551.083 173.285 567.685C179.924 575.691 186.542 582.156 192.855 586.551C194.407 587.632 195.442 589.316 195.694 591.191C196.594 597.873 198.315 605.903 200.671 614.668C237.7 663.148 293.177 694.449 354.613 700.454C361.497 694.247 365.901 687.81 366.788 682.628C368.73 671.278 360.181 652.926 343.141 633.113C338.886 628.165 343.449 620.665 349.805 622.148C412.345 636.737 469.971 614.522 480.916 573.027C492.217 530.179 450.274 480.689 386.02 463.623C337.498 450.734 289.474 460.157 264.61 485.891C260.888 489.743 254.365 487.934 253.166 482.714C246.483 453.614 227.339 428.382 203.539 417.988C195.315 414.396 187.118 412.8 179.302 413.152Z" fill="black" fill-opacity="0.5"/>
<path d="M412.261 638.015C413.568 628.579 400.548 618.198 383.18 614.829C365.811 611.46 350.671 616.378 349.364 625.815C348.056 635.252 361.077 645.633 378.445 649.002C395.814 652.371 410.954 647.452 412.261 638.015Z" fill="#FF497F" stroke="black" stroke-width="0.01875" stroke-miterlimit="10" stroke-linejoin="round"/>
<path d="M187.945 566.959C189.252 557.523 176.232 547.142 158.863 543.773C141.495 540.404 126.355 545.322 125.047 554.759C123.74 564.196 136.76 574.577 154.129 577.946C171.498 581.315 186.637 576.396 187.945 566.959Z" fill="#FF497F" stroke="black" stroke-width="0.01875" stroke-miterlimit="10" stroke-linejoin="round"/>
<path d="M369.515 607.077C374.244 606.831 379.311 607.2 384.474 608.202C404.908 612.165 420.889 624.908 418.945 638.934C416.94 653.409 397.813 659.641 377.163 655.635C356.729 651.672 340.748 638.9 342.691 624.875C344.195 614.019 355.329 607.814 369.515 607.077ZM371.287 620.545C367.963 620.636 364.92 621.114 362.345 621.951C358.268 623.276 356.275 625.086 356.047 626.731C355.791 628.578 357.371 631.427 361.108 634.407C365.637 638.018 372.295 640.924 379.722 642.364C387.107 643.796 394.143 643.559 399.291 641.886C403.369 640.561 405.362 638.723 405.59 637.078C405.846 635.23 404.266 632.41 400.529 629.43C395.999 625.819 389.314 622.885 381.887 621.445C378.194 620.729 374.61 620.454 371.287 620.545Z" fill="black"/>
<path d="M145.197 536.025C149.925 535.779 154.993 536.148 160.155 537.149C180.589 541.113 196.57 553.856 194.627 567.881C192.621 582.357 173.494 588.588 152.845 584.583C132.411 580.619 116.43 567.848 118.373 553.823C119.877 542.966 131.011 536.761 145.197 536.025ZM146.968 549.465C143.645 549.556 140.601 550.034 138.027 550.87C133.949 552.195 131.956 554.033 131.729 555.678C131.473 557.526 133.052 560.375 136.79 563.354C141.319 566.966 147.976 569.871 155.403 571.312C162.788 572.744 169.824 572.506 174.973 570.834C179.05 569.509 181.043 567.671 181.271 566.026C181.527 564.178 179.948 561.358 176.21 558.378C171.681 554.767 164.995 551.833 157.568 550.392C153.876 549.676 150.292 549.374 146.968 549.465Z" fill="black"/>
<path d="M263.848 619.349C265.206 619.51 266.524 620.073 267.588 621.036L296.324 647.044C299.087 649.544 299.302 653.812 296.802 656.576C294.301 659.339 290.033 659.554 287.27 657.054L262.077 634.251L250.97 640.324C247.698 642.107 243.587 640.898 241.804 637.625C240.021 634.352 241.23 630.241 244.503 628.458L259.827 620.108C261.087 619.422 262.49 619.187 263.848 619.349Z" fill="black"/>
<path d="M366.991 554.41C366.991 548.929 362.483 544.486 356.921 544.486C351.359 544.486 346.85 548.929 346.85 554.41C346.85 559.89 351.359 564.333 356.921 564.333C362.483 564.333 366.991 559.89 366.991 554.41Z" fill="black"/>
<path d="M190.421 489.227C190.421 483.433 186.476 478.736 181.61 478.736C176.744 478.736 172.799 483.433 172.799 489.227C172.799 495.022 176.744 499.719 181.61 499.719C186.476 499.719 190.421 495.022 190.421 489.227Z" fill="black"/>
<path d="M368.921 509.888C371.543 509.688 374.135 511.031 375.416 513.515C377.125 516.827 375.833 520.917 372.52 522.625L338.808 540.002C335.495 541.71 331.434 540.418 329.726 537.106C328.018 533.793 329.31 529.732 332.622 528.024L366.335 510.619C367.163 510.192 368.047 509.955 368.921 509.888Z" fill="black"/>
<path d="M189.057 451.657C191.684 451.525 194.25 452.937 195.468 455.453L209.92 485.285C211.543 488.64 210.126 492.688 206.771 494.311C203.416 495.934 199.369 494.516 197.745 491.162L183.321 461.329C181.698 457.975 183.115 453.955 186.47 452.332C187.309 451.926 188.182 451.701 189.057 451.657Z" fill="black"/>
<path d="M562.463 603.893C562.463 603.893 600.312 610.423 631.59 592.326C662.868 574.228 683.8 540.811 679.61 520.217C675.421 499.623 663.208 472.338 641.884 470.964C620.561 469.591 604.272 484.218 581.301 513.436" fill="#F3886D"/>
<path d="M562.463 603.893C562.463 603.893 600.312 610.423 631.59 592.326C662.868 574.228 683.8 540.811 679.61 520.217C675.421 499.623 663.208 472.338 641.884 470.964C620.561 469.591 604.272 484.218 581.301 513.436" stroke="black" stroke-width="0.01875" stroke-miterlimit="10" stroke-linejoin="round"/>
<path d="M672.166 497.581C675.64 505.026 678.152 513.013 679.617 520.215C683.806 540.81 662.871 574.239 631.593 592.336C607.378 606.347 579.725 605.592 568.244 604.539C594.362 527.542 640.632 504.226 672.166 497.581Z" fill="#F9B192"/>
<path d="M641.8 504.385C644.388 504.854 646.558 506.832 647.171 509.559C647.988 513.195 645.689 516.811 642.053 517.629C642.063 517.626 641.936 517.656 641.66 517.741C641.097 517.914 640.427 518.154 639.635 518.472C637.25 519.431 634.529 520.826 631.565 522.718C622.843 528.286 614.013 536.836 605.669 549.064C604.716 550.46 603.759 551.913 602.83 553.394C600.848 556.55 596.707 557.484 593.551 555.503C590.394 553.521 589.433 549.353 591.414 546.196C592.435 544.569 593.457 542.983 594.507 541.444C603.879 527.709 614.053 517.878 624.311 511.33C627.991 508.981 631.451 507.226 634.602 505.96C635.748 505.499 636.775 505.118 637.695 504.835C638.308 504.647 638.775 504.543 639.101 504.47C640.01 504.265 640.938 504.229 641.8 504.385Z" fill="black"/>
<path d="M615.96 523.055C618.369 523.162 620.822 523.682 623.355 524.574C627.019 525.864 630.754 527.888 634.518 530.422C636.74 531.918 638.83 533.496 640.76 535.089C641.931 536.057 642.807 536.834 643.318 537.311C646.045 539.851 646.196 544.115 643.656 546.842C641.116 549.569 636.851 549.72 634.124 547.18C634.062 547.122 633.918 547.001 633.674 546.786C633.246 546.408 632.744 545.984 632.184 545.521C630.574 544.191 628.812 542.844 626.982 541.613C624.091 539.666 621.326 538.17 618.885 537.311C617.526 536.832 616.314 536.566 615.342 536.523C611.619 536.358 608.738 533.218 608.903 529.494C609.068 525.771 612.237 522.89 615.96 523.055Z" fill="black"/>
<path d="M642.306 464.234C654.606 465.026 664.862 472.518 672.813 484.703C679.065 494.284 683.727 506.585 686.225 518.866C691.201 543.324 667.765 579.18 634.968 598.156C634.243 598.576 633.507 598.994 632.774 599.394C620.997 605.817 608.483 609.613 595.716 611.259C586.599 612.435 578.228 612.411 571.113 611.681C569.246 611.489 567.889 611.294 567.093 611.147C563.428 610.47 561.017 606.967 561.694 603.302C562.371 599.637 565.874 597.199 569.539 597.875C569.537 597.875 569.998 597.956 570.214 597.988C570.861 598.082 571.606 598.178 572.491 598.269C578.628 598.899 585.957 598.908 593.973 597.875C605.159 596.433 616.088 593.13 626.308 587.556C626.941 587.211 627.593 586.85 628.219 586.488C656.525 570.11 676.628 539.349 673.01 521.565C668.099 497.42 655.837 478.628 641.463 477.702C624.648 476.619 610.687 486.97 586.606 517.6C584.303 520.53 580.06 521.057 577.13 518.753C574.201 516.45 573.702 512.208 576.006 509.278C588.925 492.845 598.661 482.397 608.2 475.312C619.235 467.116 630.166 463.452 642.306 464.234Z" fill="black"/>
<path d="M546.362 396.64C546.362 396.64 603.213 359.16 576.725 294.307C550.237 229.453 470.332 238.577 422.913 183.905C377.523 131.574 383.351 108.756 383.351 108.756C383.351 108.756 356.671 159.877 336.252 177.227C315.832 194.576 265.128 220.195 235.598 234.445C186.279 258.243 161.811 318.479 202.155 361.182C242.498 403.885 424.629 467.582 546.362 396.64Z" fill="#93E9CA"/>
<path d="M185.092 291.425C213.938 334.338 236.72 378.051 362.287 403.248C462.667 423.39 541.005 380.706 579.549 352.721C569.82 381.06 546.371 396.64 546.371 396.64C424.638 467.582 242.503 403.887 202.16 361.184C182.188 340.044 178.145 314.611 185.092 291.425Z" fill="#82D4D5"/>
<path d="M383.348 108.747C383.348 108.747 377.519 131.573 422.909 183.905C442.294 206.254 467.085 217.891 491.459 228.33C452.609 268.696 349.268 302.31 254.262 225.209C283.291 210.711 319.595 191.366 336.252 177.213C356.672 159.863 383.348 108.747 383.348 108.747Z" fill="#B7F2CC"/>
<path d="M383.348 108.747C383.348 108.747 377.883 130.693 420.182 180.671C391.275 195.647 374.163 206.588 336.561 176.904C356.941 159.312 383.348 108.747 383.348 108.747Z" fill="#DFFFEA"/>
<path d="M545.477 396.622C545.477 396.622 602.328 359.142 575.84 294.288C549.352 229.434 469.447 238.558 422.028 183.887C376.638 131.555 382.466 108.737 382.466 108.737C382.466 108.737 355.786 159.859 335.367 177.208C314.947 194.558 264.243 220.177 234.713 234.426C185.394 258.225 160.926 318.461 201.27 361.164C241.613 403.866 423.744 467.564 545.477 396.622Z" fill="#AF93E5"/>
<path d="M382.463 108.729C382.463 108.729 376.634 131.555 422.024 183.886C441.409 206.236 466.2 217.872 490.574 228.312C451.724 268.677 348.384 302.292 253.377 225.191C282.406 210.693 318.71 191.347 335.367 177.194C355.787 159.845 382.463 108.729 382.463 108.729Z" fill="#ABACE3"/>
<path d="M382.463 108.729C382.463 108.729 376.998 130.674 419.297 180.653C390.39 195.629 373.278 206.569 335.676 176.885C356.056 159.293 382.463 108.729 382.463 108.729Z" fill="#C3C4E1"/>
<path d="M184.181 288.637C213.027 331.55 235.809 375.263 361.376 400.46C461.756 420.602 540.094 377.918 578.638 349.933C568.909 378.272 545.46 393.852 545.46 393.852C423.727 464.794 241.592 401.099 201.249 358.396C181.277 337.256 177.234 311.823 184.181 288.637Z" fill="#B876D1"/>
<path d="M383.487 101.972C387.381 102.13 391.137 105.582 389.898 110.435C389.937 110.283 389.936 110.24 389.926 110.323C389.795 111.36 389.814 113.021 390.151 115.328C390.671 118.896 391.858 123.152 393.862 128.149C399.452 142.088 410.371 159.17 427.996 179.491C442.671 196.41 460.102 207.326 488.702 219.84C490.974 220.834 503.149 226.001 503.801 226.278C526.208 235.809 537.754 241.563 549.435 249.925C564.766 260.9 575.836 274.276 582.979 291.764C590.787 310.881 592.326 329.065 588.518 346.086C585.44 359.845 579.042 372.197 570.326 383.06C565.957 388.507 561.265 393.223 556.577 397.231C554.923 398.645 553.392 399.875 551.994 400.915C551.123 401.562 550.477 402.004 550.082 402.264C549.978 402.333 549.879 402.398 549.772 402.461C492.937 435.583 419.368 442.643 342.492 428.16C279.543 416.302 220.236 390.167 197.238 365.824C176.415 343.784 170.37 315.922 178.793 288.727C186.666 263.309 206.576 240.949 232.666 228.359C278.063 206.453 315.614 185.927 331.892 172.097C335.21 169.277 338.956 165.206 343.054 160.062C347.113 154.968 351.426 148.909 355.876 142.124C361.106 134.148 366.259 125.586 371.115 117.015C372.816 114.013 374.375 111.217 375.726 108.72C376.198 107.849 377.289 105.758 377.357 105.627C378.748 102.963 381.151 101.877 383.487 101.972ZM379.803 128.88C375.709 135.925 371.486 142.936 367.151 149.546C362.489 156.656 357.971 163.017 353.626 168.469C349.029 174.239 344.683 178.897 340.608 182.359C323.094 197.24 285.121 218.058 238.542 240.534C215.756 251.529 198.439 270.959 191.699 292.72C184.695 315.333 189.627 338.102 207.051 356.546C227.761 378.467 284.588 403.509 344.994 414.889C418.88 428.808 489.179 422.109 542.827 390.905C543.048 390.755 543.373 390.52 543.952 390.09C545.11 389.229 546.418 388.178 547.832 386.969C551.909 383.483 555.971 379.348 559.782 374.597C567.284 365.247 572.765 354.727 575.359 343.134C578.564 328.808 577.235 313.424 570.467 296.853C564.329 281.825 554.903 270.441 541.562 260.891C530.929 253.279 520.045 247.864 498.515 238.706C497.871 238.433 485.621 233.197 483.303 232.183C453.026 218.935 434.089 207.08 417.818 188.32C399.264 166.929 387.513 148.62 381.322 133.182C380.711 131.659 380.292 130.3 379.803 128.88Z" fill="black"/>
<path d="M416.407 124.548C416.407 106.614 401.868 92.0752 383.934 92.0752C366 92.0752 351.461 106.614 351.461 124.548C351.461 142.482 366 157.021 383.934 157.021C401.868 157.021 416.407 142.482 416.407 124.548Z" fill="#FFA0CA"/>
<path d="M415.522 124.529C415.522 106.595 400.984 92.0566 383.049 92.0566C365.115 92.0566 350.576 106.595 350.576 124.529C350.576 142.464 365.115 157.002 383.049 157.002C400.984 157.002 415.522 142.464 415.522 124.529Z" fill="#FFD000"/>
<path d="M383.937 85.3262C405.598 85.3262 423.16 102.888 423.16 124.549C423.16 146.21 405.598 163.773 383.937 163.773C362.276 163.773 344.713 146.21 344.713 124.549C344.713 102.888 362.276 85.3261 383.937 85.3262ZM383.937 98.8224C369.729 98.8224 358.209 110.342 358.209 124.549C358.209 138.757 369.73 150.277 383.937 150.277C398.144 150.277 409.664 138.757 409.664 124.549C409.664 110.342 398.144 98.8224 383.937 98.8224Z" fill="black"/>
<path opacity="0.202659" d="M178.809 312.462C381.188 470.984 587.043 338.949 587.043 338.949L578.552 375.501L585.581 380.928L604.448 428.783L607.625 478.692L590.502 502.169C586.441 518.704 627.645 518.421 627.645 518.421L666.812 557.87L629.95 592.088L569.245 611.518L530.162 651.528L472.662 689.234L417.468 716.395L345.741 711.784L289.619 697.978L250.536 671.773C296.418 672.567 335.689 663.051 369.197 647.15C377.027 643.434 398.819 648.064 406.03 643.702C411.892 640.155 403.277 627.718 408.743 623.804C472.624 578.065 499.742 542.257 515.757 505.71C519.58 496.987 463.987 460.462 456.178 459.357C448.369 458.251 368.657 450.265 368.657 450.265L275.392 426.169L224.415 394.818L185.951 349.999L178.809 312.462Z" fill="black"/>
</svg>
