<svg width="800" height="800" viewBox="0 0 800 800" fill="none" xmlns="http://www.w3.org/2000/svg">
<path d="M486.398 379.317C486.398 379.317 568.799 343.363 606.036 367.55C643.273 391.735 631.297 421.089 645.52 473.196C659.743 525.3 684.841 565.041 684.841 565.041C684.841 565.041 694.046 587.121 667.273 588.003C640.502 588.887 578.39 532.457 578.39 532.457L472.341 406.078L486.398 379.317Z" fill="#FF901A"/>
<path d="M532.001 364.335C528.036 365.275 525.546 366.464 521.876 367.505C528.257 369.8 534.369 375.448 537.423 382.543C541.872 392.87 539.07 403.298 527.911 411.082C516.332 419.155 508.454 420.967 503.462 418.446C500.073 416.735 497.812 412.858 496.61 407.809C494.43 398.654 497.619 393.862 507.555 386.837C515.084 381.516 519.567 381.757 523.614 384.996C524.119 385.4 524.503 385.636 525.354 386.429C526.414 387.417 527.435 389.933 527.603 392.363C527.812 395.374 526.748 398.044 523.818 400.238C516.31 405.864 512.075 406.215 510.725 403C510.287 401.954 510.886 400.623 512.873 399.01C513.537 398.474 514.294 398.001 515.022 397.578C515.45 397.33 515.697 397.133 515.841 397.068L512.977 390.111C511.792 390.661 510.153 391.615 508.475 392.975C504.137 396.491 501.924 400.94 504.077 406.069C507.942 415.281 517.303 414.5 528.012 406.477C533.059 402.697 535.361 397.496 534.97 391.851C534.664 387.462 532.677 383.047 530.161 380.702C529.175 379.781 528.709 379.418 528.012 378.858C521.511 373.655 513.698 373.333 503.565 380.495C498.062 384.386 494.942 387.075 492.416 390.93C488.936 396.237 487.92 402.466 489.655 409.751C491.33 416.8 494.51 422.481 500.292 425.401C508.016 429.302 518.406 426.934 531.901 417.525C546.073 407.643 549.889 393.11 543.97 379.37C541.355 373.302 537.075 368.024 532.001 364.335ZM561.053 376.2C559.568 376.013 557.989 376.128 556.347 376.609C550.865 378.214 547.767 385.085 548.88 390.623C549.95 395.936 555.679 399.142 560.132 397.578C561.875 396.967 563.113 395.855 564.019 394.511C563.615 396.126 563.158 397.835 562.382 399.931C561.757 401.62 561.041 403.406 560.236 405.252C559.197 407.626 558.075 409.984 556.962 412.207C556.571 412.983 555.597 414.944 555.53 415.072L555.734 415.173C553.713 418.234 551.504 421.243 549.8 424.38C548.979 425.896 548.306 427.249 547.652 428.573C544.311 428.593 541.086 430.28 538.039 433.483C530.778 441.109 530.24 449.324 536.606 454.657C541.677 458.906 547.433 458.877 551.233 453.84C553.158 451.287 554.182 449.665 554.61 447.598C555.225 444.62 554.227 441.777 551.846 439.314C550.397 437.814 548.584 437.511 546.63 437.778C545.751 437.898 544.828 438.151 543.97 438.494C546.967 435.707 549.356 435.644 553.177 439.211C555.321 441.213 555.936 444.498 555.222 449.134C554.771 452.066 553.824 455.347 552.461 458.646C551.769 460.324 551.055 461.912 550.312 463.352C550.055 463.852 549.428 465.03 549.392 465.092L549.596 465.193C546.104 469.757 542.6 474.321 539.163 479.822C538.498 480.887 537.202 481.509 536.402 482.48L541.209 488.21C542.509 486.784 544.165 485.667 545.198 484.016C561.976 457.171 578.979 442.354 595.935 441.871C604.322 441.631 613.647 448.677 617.723 458.134C622.172 468.461 619.37 478.892 608.209 486.674C596.632 494.749 588.754 496.458 583.762 493.937C580.371 492.226 578.213 488.45 577.011 483.401C574.831 474.246 578.02 469.454 587.956 462.432C595.485 457.108 599.965 457.248 604.015 460.487C604.519 460.891 604.801 461.227 605.651 462.023C606.711 463.011 607.836 465.527 608.004 467.954C608.213 470.968 607.048 473.535 604.118 475.729C596.608 481.355 592.373 481.706 591.025 478.491C590.585 477.445 591.186 476.217 593.173 474.604C593.834 474.066 594.591 473.595 595.319 473.172C595.75 472.922 596.098 472.727 596.242 472.66L593.274 465.602C592.092 466.152 590.45 467.106 588.773 468.466C584.437 471.982 582.224 476.532 584.375 481.663C588.242 490.875 597.704 490.094 608.413 482.072C613.46 478.291 615.659 472.987 615.267 467.342C614.964 462.953 612.977 458.538 610.46 456.193C609.473 455.272 609.11 454.909 608.413 454.349C601.912 449.146 593.998 448.822 583.863 455.986C578.362 459.877 575.343 462.569 572.817 466.421C569.337 471.728 568.217 477.957 569.952 485.242C571.63 492.29 574.81 497.972 580.59 500.892C588.314 504.793 598.807 502.428 612.301 493.016C626.474 483.134 630.29 468.601 624.371 454.861C619.144 442.727 607.204 433.87 595.73 434.2C584.202 434.529 573.149 440.698 562.382 450.872C562.404 450.742 562.466 450.595 562.485 450.463C563.56 443.481 562.317 437.427 557.984 433.38C556.866 432.335 555.717 431.83 554.61 431.131C555.097 430.16 555.559 429.239 556.143 428.165C558.839 423.195 561.925 418.261 565.451 413.639C574.718 401.49 584.961 393.958 595.627 393.18C601.84 392.728 607.341 391.786 612.813 390.827V391.134C612.847 391.132 612.883 391.139 613.018 391.134C614.231 391.106 615.904 391.106 617.723 391.238C620.396 391.428 622.972 391.757 625.395 392.363C627.015 392.766 628.007 393.434 629.281 393.999C627.296 389.469 624.599 385.186 621.201 381.11C613.45 383.153 605.041 384.785 595.115 385.508C586.341 386.148 578.244 390.526 570.669 397.273C571.837 392.92 572.473 389.135 571.486 386.429C569.234 380.255 565.506 376.758 561.053 376.2ZM560.236 383.872C561.56 384.042 562.685 385.054 563.713 387.042L558.087 389.394C558.07 389.354 558.066 389.404 558.087 389.498C558.157 389.796 558.224 390.077 558.188 390.214C558.183 390.231 558.241 390.19 557.883 390.315C557.467 390.462 556.088 389.721 555.939 388.986C555.571 387.164 556.811 384.511 558.291 384.076C558.967 383.879 559.649 383.797 560.236 383.872ZM542.641 439.723L545.914 445.962C546.015 445.904 546.296 445.788 546.63 445.656C546.804 445.587 546.885 445.599 547.039 445.553C547.424 446.214 547.299 446.791 545.607 449.031C544.552 450.432 543.271 450.437 541.105 448.622C538.685 446.594 538.93 443.916 542.641 439.723ZM489.756 377.938C489.141 378.197 486.382 379.269 486.382 379.269L483.822 384.076C485.788 382.038 487.787 379.623 489.756 377.938ZM623.042 394.92C617.017 395.934 614.154 401.159 615.166 407.91C616.433 416.384 623.51 419.936 633.374 417.013C634.128 416.79 634.643 416.379 635.316 416.093C634.876 413.425 634.441 410.416 633.883 407.91C633.138 408.467 632.732 409.174 631.533 409.546C631.934 409.232 632.307 408.977 632.758 408.525C633.172 408.112 633.352 407.633 633.679 407.193C632.686 402.865 631.324 398.823 629.689 394.92C627.808 394.326 626.048 394.413 623.042 394.92ZM627.337 402.183C627.62 402.252 627.623 402.651 627.748 402.899C627.392 403.252 627.01 403.593 626.827 403.716L630.406 409.751C625.14 411.089 622.806 409.9 622.326 406.682C621.893 403.8 622.492 402.771 624.167 402.488C625.914 402.195 626.822 402.053 627.337 402.183ZM644.011 465.501C640.456 468.236 638.62 473.352 639.509 477.774C640.468 482.533 645.162 485.145 649.329 484.629C648.423 481.745 647.414 479.216 646.568 476.241C646.258 475.15 645.847 474.273 645.547 473.172C644.768 470.322 644.645 468.216 644.011 465.501ZM651.478 490.971C651.274 491.461 651.084 491.901 650.865 492.403C649.827 494.78 648.707 497.136 647.592 499.359C647.202 500.135 646.126 502.098 646.056 502.223L646.364 502.428C644.345 505.485 642.127 508.51 640.43 511.632C639.56 513.24 638.75 514.644 638.079 516.033C634.955 516.235 631.939 517.73 629.077 520.736C621.816 528.364 621.278 536.68 627.644 542.013C632.715 546.262 638.471 546.132 642.273 541.092C644.198 538.54 645.119 537.024 645.547 534.957C646.162 531.977 645.164 529.133 642.783 526.67C641.334 525.17 639.519 524.767 637.568 525.033C636.719 525.149 635.837 525.423 635.01 525.75C637.945 523.094 640.351 522.952 644.114 526.466C646.258 528.468 646.977 531.856 646.263 536.49C645.811 539.422 644.862 542.602 643.499 545.901C642.807 547.579 641.992 549.165 641.249 550.607C640.992 551.107 640.365 552.282 640.329 552.345L640.533 552.448C637.039 557.017 633.54 561.672 630.1 567.178C629.408 568.284 628.072 568.935 627.236 569.94C629.387 571.362 631.434 572.814 633.578 574.133C634.381 573.146 635.556 572.463 636.236 571.372C647.133 553.938 658.092 542.123 669.073 535.466C668.133 533.51 667.08 530.936 666.107 528.819C661.805 531.46 657.525 534.253 653.319 538.23C653.348 538.067 653.398 537.879 653.422 537.718C654.497 530.736 653.254 524.786 648.921 520.736C647.69 519.59 646.558 518.919 645.34 518.179C645.804 517.268 646.232 516.42 646.772 515.418C649.216 510.914 652.04 506.463 655.16 502.223C653.836 498.659 652.742 494.735 651.478 490.971ZM633.578 526.978L636.851 533.32C636.952 533.26 637.233 533.044 637.568 532.909C637.741 532.839 637.822 532.854 637.976 532.808C638.361 533.469 638.233 534.149 636.544 536.389C635.489 537.788 634.311 537.793 632.146 535.978C629.723 533.95 629.862 531.174 633.578 526.978ZM673.675 544.469C669.217 547.728 666.006 550.343 663.754 553.777C660.274 559.084 659.154 565.313 660.889 572.6C662.468 579.238 665.638 584.484 670.81 587.534C677.201 586.705 681.186 584.508 683.394 581.704C679.921 582.49 677.04 582.422 674.8 581.293C671.411 579.582 669.15 575.808 667.948 570.757C665.912 562.206 668.801 557.341 677.256 551.016C675.915 548.636 675.427 547.8 673.675 544.469ZM679.813 555.721C679.77 555.757 679.756 555.786 679.71 555.822C675.374 559.338 673.158 563.787 675.312 568.916C677.431 573.97 681.284 575.763 686.052 575.258C686.413 572.22 686.153 569.709 685.644 567.791C683.882 567.914 682.661 567.272 682.063 565.847C681.736 565.066 682.721 563.979 683.699 562.881C683.433 562.453 680.861 557.505 679.813 555.721Z" fill="#FFA443"/>
<path d="M570.758 351.905C565.533 351.938 560.051 352.306 554.312 352.991C540.887 354.592 526.635 357.86 512.181 362.297C504.846 364.551 497.92 366.952 491.606 369.365C489.39 370.213 487.42 370.999 485.694 371.71C484.644 372.143 483.896 372.477 483.49 372.655C481.974 373.316 480.724 374.479 479.955 375.945C479.515 376.781 466.328 401.841 465.888 402.677C464.516 405.292 464.865 408.498 466.763 410.76L572.822 537.148C573.031 537.398 573.243 537.626 573.485 537.848C573.617 537.968 575.48 539.619 576.252 540.297C578.441 542.226 580.938 544.389 583.668 546.699C591.472 553.301 599.718 559.91 608.021 566.084C613.835 570.408 619.468 574.354 624.888 577.877C642.497 589.32 656.696 595.624 667.506 595.268C682.183 594.782 690.981 588.387 693.154 578.05C694.039 573.854 693.716 569.629 692.666 565.594C692.286 564.14 691.859 562.989 691.546 562.237C691.388 561.859 691.205 561.496 690.986 561.15C690.909 561.03 689.59 558.821 689.025 557.862C687.401 555.099 685.562 551.881 683.603 548.24C677.987 537.807 672.368 526.151 667.121 513.528C661.368 499.685 656.419 485.542 652.531 471.295C648.671 457.151 647.553 450.29 644.237 425.422C641.956 408.316 640.118 399.642 636.049 390.536C630.903 379.017 622.708 369.701 610.016 361.458C599.715 354.767 586.432 351.808 570.758 351.905ZM570.161 366.462C583.498 366.308 594.351 368.653 602.073 373.669C612.467 380.42 618.781 387.56 622.753 396.448C626.077 403.886 627.719 411.577 629.822 427.345C633.225 452.883 634.407 460.112 638.5 475.109C642.559 489.985 647.705 504.703 653.684 519.092C659.128 532.185 664.958 544.291 670.796 555.132C672.844 558.937 674.749 562.328 676.465 565.245C677.271 566.618 677.773 567.363 678.215 568.079C678.225 568.096 678.239 568.132 678.249 568.149C678.359 568.473 678.455 568.848 678.564 569.269C679.095 571.309 679.265 573.371 678.914 575.041C678.21 578.389 675.355 580.471 667.018 580.747C660.171 580.97 648.02 575.534 632.831 565.664C627.685 562.321 622.278 558.547 616.699 554.397C608.663 548.42 600.667 541.991 593.082 535.572C590.426 533.327 587.994 531.248 585.872 529.378C585.223 528.806 584.009 527.718 583.598 527.35L481.075 405.126C484.002 399.555 489.751 388.575 491.606 385.042C493.147 384.412 494.865 383.727 496.822 382.977C502.842 380.675 509.446 378.375 516.452 376.224C530.134 372.023 543.561 368.93 556.025 367.442C561 366.849 565.718 366.512 570.161 366.462Z" fill="black"/>
<path d="M250.461 674.955C438.228 431.049 426.906 216.06 412.443 109.937C406.197 64.0957 438.346 -12.9694 498.497 83.8217C565.48 191.607 564.963 593.165 297.838 733.651C251.17 758.194 190.46 752.897 250.461 674.955Z" fill="#FDDE95"/>
<path d="M443.213 37.5127C436.029 38.4204 430.312 43.458 425.517 49.9922C428.014 51.4438 429.87 53.159 430.324 55.4136C431.458 61.0239 430.228 63.2641 425.825 64.6198C426.231 64.3023 426.594 64.0531 427.051 63.5969C428.844 61.806 430.016 59.7725 429.711 57.255C429.68 57.0024 429.569 56.7869 429.507 56.5388C428.767 53.6195 427.142 51.804 425.005 50.7084C423.467 52.8935 421.775 54.7834 420.504 57.3572C420.848 57.3331 421.533 57.2053 421.732 57.255C422.013 57.325 422.018 57.7246 422.141 57.971C421.787 58.3257 421.405 58.6682 421.22 58.7893L424.801 64.9267C421.189 65.8438 419.353 65.2019 418.151 63.9038C417.168 66.5074 415.933 68.8888 415.185 71.6781C418.36 73.3227 422.665 73.5683 427.666 72.0872C435.948 69.6331 439.43 63.5013 437.486 53.8793C436.748 50.2318 434.885 47.3389 432.165 45.0822C433.487 44.9981 434.712 44.913 436.053 44.7753C436.164 44.7753 438.769 44.7952 440.759 44.8777C444.011 45.0127 447.171 45.3115 450.168 45.696C452.821 46.0361 454.946 46.4268 456.818 46.9236C455.386 47.1262 453.992 47.7667 452.624 49.0717C449.142 52.3957 448.971 59.2854 452.829 62.881C456.849 66.6285 464.05 67.1289 468.071 62.881C471.844 58.8934 472.461 53.8449 470.015 48.5603C459.839 39.8506 450.853 36.5475 443.213 37.5127ZM463.057 51.0153C464.682 53.7765 464.569 55.7537 462.956 57.4596C461.87 58.6074 458.957 58.3846 457.638 57.1526C457.102 56.6544 457.21 55.0072 457.534 54.6976C457.871 54.3763 457.787 54.4165 458.147 54.6976C458.32 54.832 458.455 55.0046 458.455 55.0046L463.057 51.0153ZM481.572 60.5284C476.797 65.299 474.031 70.2748 473.697 75.4629C473.262 82.2126 476.278 87.9467 481.265 92.9545C486.422 98.1318 492.157 100.192 498.247 99.6035C500.41 99.3942 502.945 97.9231 505.099 97.1486C504.075 95.0363 503.094 92.869 502.032 90.9088C495.589 93.2285 491.287 92.3566 486.382 87.4309C482.808 83.843 480.705 80.0352 480.96 76.0764C481.159 72.9848 483.07 69.7355 486.382 66.3588C484.726 64.1913 483.175 62.4246 481.572 60.5284ZM490.063 71.4733C488.934 74.7176 489.013 78.1217 491.392 81.4979C493.293 84.1961 496.05 85.2687 499.064 85.1805C498.833 84.7983 498.684 84.2256 498.451 83.8507C495.572 79.2169 492.813 75.3328 490.063 71.4733ZM412.116 100.013C412.188 103.36 411.999 106.812 412.424 109.935C412.664 111.694 412.801 114.049 413.037 115.868C413.943 118.744 414.207 121.561 413.957 124.358C414.565 129.381 415.147 134.587 415.697 140.009C422.419 131.123 423.499 120.415 419.072 110.139C417.418 106.301 414.887 103.008 412.116 100.013ZM436.154 106.969C434.672 106.783 433.09 106.897 431.451 107.378C425.969 108.984 422.766 115.855 423.881 121.392C424.95 126.704 430.781 129.912 435.234 128.347C436.976 127.735 438.113 126.622 439.019 125.279C438.615 126.895 438.262 128.604 437.486 130.7C436.861 132.39 436.039 134.175 435.234 136.019C434.198 138.396 433.179 140.751 432.064 142.975C431.675 143.752 430.598 145.714 430.528 145.839L430.735 145.941C428.719 148.996 426.601 152.018 424.904 155.148C424.08 156.665 423.407 158.017 422.756 159.342C421.004 159.353 419.319 159.869 417.642 160.774C417.872 163.967 417.855 167.702 418.05 171.003L420.915 176.731C421.016 176.673 421.297 176.558 421.631 176.424C421.804 176.354 421.987 176.369 422.141 176.322C422.528 176.982 422.297 177.559 420.607 179.8C419.999 180.606 419.312 180.818 418.459 180.618C418.574 183.135 418.675 185.614 418.766 188.188C421.581 188.308 424.258 187.362 426.334 184.608C428.262 182.055 429.182 180.434 429.608 178.368C430.225 175.39 429.329 172.546 426.95 170.082C425.498 168.582 423.583 168.281 421.631 168.548C420.749 168.668 419.93 168.919 419.072 169.264C422.035 166.548 424.491 166.442 428.279 169.98C430.423 171.982 431.038 175.267 430.324 179.902C429.875 182.834 428.925 186.114 427.563 189.415C426.87 191.093 426.157 192.68 425.414 194.121C425.157 194.621 424.429 195.797 424.393 195.86L424.597 195.962C422.871 198.219 421.206 200.855 419.483 203.225C419.533 207.316 419.403 211.487 419.379 215.704C419.624 215.346 420.069 215.154 420.3 214.783C437.08 187.938 453.977 173.123 470.935 172.639C479.321 172.4 488.751 179.343 492.825 188.802C497.273 199.128 494.471 209.66 483.312 217.443C471.733 225.517 463.855 227.225 458.863 224.706C455.472 222.993 453.213 219.219 452.012 214.17C449.832 205.015 453.124 200.223 463.057 193.2C470.587 187.877 474.966 188.016 479.015 191.257C479.52 191.66 479.905 191.997 480.755 192.791C481.815 193.779 482.938 196.295 483.108 198.724C483.315 201.736 482.149 204.304 479.22 206.498C471.712 212.123 467.477 212.476 466.126 209.26C465.686 208.213 466.287 206.985 468.275 205.373C468.938 204.835 469.695 204.363 470.423 203.941C470.851 203.692 471.099 203.496 471.241 203.429L468.378 196.371C467.193 196.921 465.554 197.876 463.877 199.235C459.539 202.751 457.325 207.301 459.479 212.431C463.343 221.643 472.704 220.862 483.413 212.84C488.46 209.059 490.763 203.755 490.369 198.11C490.066 193.721 488.078 189.307 485.562 186.96C484.574 186.04 484.11 185.677 483.413 185.119C476.912 179.914 469.099 179.592 458.967 186.756C453.463 190.647 450.344 193.336 447.818 197.189C444.335 202.495 443.321 208.725 445.054 216.011C446.731 223.059 449.911 228.742 455.693 231.662C463.415 235.562 473.807 233.196 487.302 223.785C501.474 213.902 505.291 199.37 499.372 185.63C494.144 173.495 482.205 164.639 470.729 164.968C459.166 165.298 448.077 171.508 437.282 181.743C437.315 181.543 437.455 181.329 437.486 181.13C438.56 174.148 437.421 168.197 433.088 164.149C431.951 163.089 430.836 162.501 429.711 161.797C430.185 160.861 430.583 159.964 431.143 158.933C433.84 153.963 437.027 149.028 440.555 144.407C449.822 132.26 459.962 124.727 470.628 123.949C476.84 123.496 482.342 122.555 487.812 121.596V121.903C487.848 121.902 487.985 121.906 488.119 121.903C489.335 121.875 490.905 121.874 492.722 122.005C495.396 122.197 498.074 122.526 500.496 123.13C506.656 124.67 510.28 127.394 511.032 131.109C512.162 136.703 511.006 138.959 506.634 140.315C507.038 140 507.411 139.745 507.862 139.293C509.653 137.502 510.722 135.468 510.42 132.95C510.388 132.698 510.278 132.483 510.215 132.234C509.355 128.834 507.552 126.484 504.793 125.585C502.878 124.962 501.092 125.071 498.042 125.585C492.015 126.601 489.155 131.927 490.164 138.679C491.433 147.152 498.511 150.704 508.372 147.783C515.914 145.549 519.182 140.027 518.295 131.825C517.481 129.04 516.601 126.604 515.738 123.949C514.919 122.764 514.037 121.632 512.873 120.675C513.462 120.636 514.041 120.622 514.613 120.573C513.09 116.09 511.773 111.14 510.112 107.071C499.737 111.939 486.519 115.08 470.116 116.277C461.382 116.914 453.317 121.251 445.77 127.938C446.919 123.631 447.467 119.884 446.486 117.198C444.234 111.022 440.61 107.526 436.154 106.969ZM435.234 114.64C436.561 114.812 437.685 115.823 438.712 117.811L433.189 120.164C433.172 120.121 433.167 120.173 433.189 120.266C433.258 120.565 433.326 120.847 433.292 120.982C433.287 121 433.345 120.958 432.984 121.085C432.571 121.23 431.189 120.49 431.04 119.755C430.675 117.934 431.913 115.279 433.393 114.845C434.068 114.647 434.65 114.565 435.234 114.64ZM502.441 132.95C502.722 133.021 502.724 133.42 502.849 133.666C502.493 134.021 502.114 134.364 501.929 134.485L505.51 140.52C500.242 141.857 497.91 140.67 497.427 137.451C496.997 134.568 497.595 133.54 499.268 133.257C501.015 132.963 501.924 132.822 502.441 132.95ZM526.786 194.121C525.301 193.935 523.72 194.151 522.081 194.632C516.599 196.238 513.397 203.006 514.51 208.544C515.58 213.856 521.412 217.166 525.866 215.602C527.627 214.982 528.745 213.799 529.649 212.431C529.245 214.057 528.795 215.738 528.012 217.852C527.387 219.542 526.671 221.327 525.866 223.171C524.828 225.548 523.809 227.903 522.693 230.127C522.304 230.905 521.227 232.866 521.16 232.991L521.364 233.094C519.326 236.175 517.139 239.256 515.431 242.402C514.561 244.005 513.852 245.415 513.181 246.8C510.054 247.001 507.045 248.496 504.178 251.505C496.92 259.133 496.278 267.346 502.645 272.681C507.716 276.93 513.472 276.901 517.271 271.861C519.199 269.309 520.22 267.793 520.648 265.723C521.263 262.746 520.266 259.903 517.887 257.439C516.435 255.939 514.621 255.536 512.669 255.802C511.821 255.918 510.939 256.192 510.112 256.519C513.046 253.861 515.455 253.719 519.216 257.235C521.36 259.237 521.975 262.623 521.261 267.259C520.812 270.191 519.862 273.368 518.5 276.671C517.807 278.348 517.094 279.934 516.351 281.376C516.094 281.876 515.467 283.051 515.431 283.114L515.635 283.217C512.14 287.786 508.644 292.441 505.202 297.947C500.352 305.708 491.844 310.851 480.652 313.903C470.839 316.58 460.469 317.318 451.601 316.871C451.125 316.847 449.921 316.775 449.863 316.768L449.351 324.439C449.714 324.473 450.284 324.497 451.192 324.542C456.294 324.8 461.872 324.612 467.559 324.03C467.672 324.033 470.277 324.05 472.264 324.134C475.516 324.268 478.679 324.566 481.676 324.951C484.31 325.29 486.458 325.686 488.323 326.179C486.915 326.395 485.473 327.044 484.13 328.328C480.647 331.651 480.477 338.643 484.334 342.238C488.355 345.985 495.555 346.384 499.576 342.137C504.387 337.054 504.277 330.229 498.963 323.418C497.124 321.06 493.375 319.68 488.835 318.609C498.319 314.922 506.372 309.925 511.237 302.141C519.211 289.382 527.228 279.552 535.275 272.477C535.292 269.595 535.4 266.632 535.378 263.781C533.059 265.56 530.713 266.73 528.423 268.896C528.445 268.764 528.505 268.617 528.524 268.487C529.598 261.506 528.358 255.553 524.022 251.505C522.799 250.361 521.554 249.686 520.341 248.948C520.802 248.037 521.23 247.189 521.773 246.187C524.469 241.217 527.659 236.283 531.184 231.662C532.064 230.507 533.049 229.969 533.946 228.9C533.222 217.583 532.285 206.72 530.98 196.167C529.656 195.276 528.332 194.314 526.786 194.121ZM525.866 201.792C527.19 201.964 528.315 203.078 529.343 205.066L523.818 207.418C523.888 207.717 523.955 208.101 523.921 208.237C523.917 208.255 523.871 208.212 523.513 208.339C523.097 208.485 521.819 207.642 521.672 206.907C521.304 205.086 522.542 202.431 524.022 201.997C524.698 201.799 525.279 201.717 525.866 201.792ZM508.68 257.747L511.953 263.986C512.054 263.928 512.335 263.813 512.669 263.678C512.842 263.608 512.924 263.623 513.078 263.577C513.465 264.236 513.335 264.815 511.645 267.055C510.59 268.454 509.312 268.562 507.146 266.747C504.724 264.719 504.964 261.943 508.68 257.747ZM494.565 330.27C496.187 333.031 496.077 335.009 494.462 336.715C493.375 337.862 490.465 337.641 489.143 336.408C488.607 335.91 488.715 334.365 489.04 334.055C489.376 333.733 489.189 333.67 489.552 333.954C489.725 334.088 489.859 334.158 489.859 334.158L494.565 330.27ZM418.562 285.774C417.464 285.806 416.377 286.149 415.289 286.286C414.984 289.043 414.71 291.778 414.368 294.57C415.837 294.316 417.296 293.59 418.766 293.547C427.154 293.309 436.479 300.149 440.555 309.608C445.003 319.935 442.302 330.467 431.143 338.249C419.564 346.324 411.585 348.033 406.594 345.511C406.466 345.447 406.411 345.276 406.286 345.204C405.791 347.686 405.178 350.272 404.649 352.774C412.258 355.968 422.237 353.584 435.133 344.591C449.305 334.708 453.122 320.178 447.203 306.436C441.975 294.301 430.036 285.445 418.562 285.774ZM420.3 302.141C418.125 302.228 415.798 302.852 413.344 303.879C412.914 307.017 412.292 310.315 411.811 313.494C418.603 309.039 423.025 309.002 426.846 312.062C427.351 312.466 427.632 312.805 428.483 313.598C429.543 314.585 430.668 316.998 430.836 319.428C431.045 322.439 429.879 325.11 426.95 327.304C419.439 332.93 415.207 333.384 413.856 330.169C413.417 329.121 414.118 327.789 416.106 326.179C416.769 325.641 417.526 325.17 418.254 324.747C418.682 324.497 418.93 324.302 419.072 324.235L416.106 317.176C414.923 317.727 413.284 318.681 411.604 320.041C411.085 320.464 410.936 321.021 410.48 321.473C409.766 325.855 409.151 330.214 408.331 334.67C412.64 341.926 421.295 341.101 431.244 333.646C436.291 329.866 438.49 324.562 438.099 318.916C437.794 314.528 435.808 310.113 433.292 307.767C432.304 306.847 431.941 306.484 431.244 305.924C427.995 303.323 424.359 301.975 420.3 302.141ZM450.884 355.74C447.544 355.762 444.319 357.449 441.271 360.65C434.011 368.278 433.472 376.389 439.839 381.722C444.91 385.971 450.663 385.943 454.465 380.905C456.39 378.353 457.311 376.834 457.739 374.767C458.354 371.789 457.359 368.946 454.977 366.48C453.528 364.981 451.714 364.577 449.76 364.844C448.88 364.966 448.061 365.216 447.203 365.56C450.156 362.866 452.629 362.748 456.41 366.276C458.553 368.278 459.169 371.667 458.455 376.3C458.003 379.232 457.054 382.412 455.693 385.712C455.001 387.389 454.288 388.978 453.545 390.418C453.288 390.917 452.56 392.095 452.521 392.158L452.728 392.258C449.231 396.827 445.734 401.482 442.293 406.988C437.443 414.749 429.036 419.995 417.846 423.047C413.308 424.285 408.61 424.939 404.036 425.4C412.835 420.769 419.963 414.972 424.393 407.193C430.307 396.808 428.865 381.448 421.424 370.674C416.803 363.981 410.412 360.429 403.217 359.424C402.681 361.847 402.15 364.243 401.58 366.687C407.17 367.23 412.025 370.004 415.594 375.176C421.391 383.573 422.475 395.614 418.151 403.203C412.383 413.336 401.006 420.106 385.521 424.379C384.404 427.818 383.125 431.341 381.94 434.812C384.298 435.03 386.656 435.403 388.794 435.937C394.954 437.477 398.682 440.097 399.434 443.815C400.564 449.407 399.302 451.664 394.933 453.019C395.336 452.704 395.709 452.45 396.161 451.998C397.951 450.205 399.021 448.172 398.718 445.656C398.687 445.403 398.677 445.187 398.614 444.939C397.754 441.539 395.851 439.292 393.092 438.393C391.176 437.768 389.39 437.878 386.341 438.393C380.313 439.407 377.554 444.632 378.566 451.383C379.832 459.857 386.809 463.409 396.67 460.487C404.954 458.033 408.434 451.902 406.49 442.279C405.748 438.604 403.926 435.643 401.172 433.379C402.385 433.298 403.522 433.199 404.753 433.074C404.868 433.074 407.367 433.093 409.355 433.175C412.607 433.31 415.87 433.61 418.867 433.995C421.492 434.331 423.554 434.73 425.414 435.22C424.006 435.437 422.665 436.088 421.323 437.369C417.841 440.693 417.67 447.684 421.528 451.282C425.546 455.029 432.749 455.425 436.77 451.178C441.579 446.095 441.367 439.27 436.053 432.459C434.232 430.123 430.509 428.825 426.029 427.753C435.506 424.076 443.571 418.957 448.431 411.182C465.208 384.337 482.108 369.523 499.064 369.038C507.451 368.8 516.88 375.743 520.956 385.2C525.404 395.527 522.602 405.957 511.441 413.739C499.864 421.815 491.984 423.627 486.994 421.106C483.603 419.392 481.445 415.619 480.243 410.569C478.064 401.415 481.152 396.52 491.085 389.497C498.614 384.174 503.097 384.414 507.146 387.656C507.651 388.06 507.932 388.293 508.783 389.088C509.843 390.076 511.068 392.593 511.237 395.02C511.446 398.034 510.28 400.704 507.351 402.898C499.84 408.522 495.608 408.875 494.257 405.659C493.817 404.612 494.418 403.28 496.406 401.67C497.067 401.132 497.824 400.764 498.552 400.341C498.982 400.091 499.227 399.896 499.372 399.829L496.507 392.77C495.324 393.321 493.683 394.275 492.005 395.635C487.67 399.151 485.456 403.701 487.607 408.829C491.474 418.041 500.833 417.159 511.544 409.137C516.591 405.357 518.79 400.153 518.399 394.51C518.093 390.12 516.209 385.707 513.693 383.359C512.705 382.438 512.241 382.076 511.544 381.518C505.043 376.312 497.23 375.99 487.095 383.155C481.594 387.046 478.475 389.735 475.946 393.588C472.466 398.894 471.349 405.124 473.082 412.41C474.759 419.459 478.042 425.141 483.822 428.061C491.546 431.961 501.936 429.594 515.431 420.185C516.74 419.272 517.469 418.104 518.603 417.116C521.427 404.544 524.008 392.076 526.07 379.574C520.355 368.785 509.506 361.063 498.86 361.366C487.367 361.695 476.348 367.721 465.614 377.836C465.631 377.735 465.703 377.629 465.718 377.528C466.792 370.547 465.552 364.596 461.216 360.549C457.727 357.288 454.227 355.721 450.884 355.74ZM445.77 366.788L449.043 373.027C449.144 372.969 449.426 372.854 449.76 372.722C449.94 372.65 450.113 372.667 450.272 372.618C450.649 373.277 450.423 373.863 448.738 376.096C447.681 377.497 446.503 377.605 444.338 375.791C441.918 373.76 442.062 370.982 445.77 366.788ZM431.756 439.313C433.379 442.075 433.167 444.053 431.552 445.757C430.466 446.905 427.656 446.682 426.334 445.451C425.801 444.951 425.806 443.406 426.13 443.098C426.467 442.776 426.383 442.714 426.745 442.995C426.918 443.13 427.051 443.303 427.051 443.303L431.756 439.313ZM390.739 445.656C391.02 445.725 391.022 446.124 391.147 446.372C390.792 446.725 390.412 447.069 390.227 447.189L393.808 453.327C388.54 454.663 386.206 453.476 385.725 450.258C385.295 447.374 385.894 446.244 387.566 445.961C389.314 445.668 390.222 445.526 390.739 445.656ZM400.66 370.778C400.081 373.198 399.636 375.498 399.023 377.937C400.328 378.045 401.58 378.478 402.707 379.268C404.625 380.617 406.094 382.922 406.389 384.383C406.495 384.914 406.449 384.984 406.49 385.2C407.322 389.521 406.966 392.347 403.933 395.635C402.4 397.298 400.256 398.918 397.386 400.442C395.401 401.497 393.738 402.211 392.068 402.898C391.215 405.842 390.515 408.726 389.614 411.694C392.885 410.947 396.129 409.704 400.66 407.296C404.214 405.407 407.019 403.367 409.151 401.055C414.147 395.64 414.916 390.235 413.652 383.667C413.604 383.417 413.664 383.306 413.549 382.746C412.852 379.278 410.167 375.363 406.694 372.926C404.87 371.643 402.765 371.148 400.66 370.778ZM395.341 391.134C394.901 392.756 394.466 394.414 394.012 396.044C394.082 396.005 394.147 395.979 394.216 395.94C395.579 395.205 396.603 394.433 397.285 393.895L395.341 391.134ZM365.268 478.797C364.281 481.184 363.322 483.558 362.3 485.957C369.815 487.211 377.54 493.292 381.123 501.607C385.572 511.935 382.769 522.365 371.611 530.147C360.031 538.222 352.153 540.032 347.162 537.513C344.669 536.254 342.939 533.557 341.639 530.351C340.228 533.163 339.108 535.915 337.649 538.739C339.317 541.123 341.326 543.122 343.992 544.468C351.714 548.369 362.106 546.002 375.598 536.593C389.773 526.708 393.69 512.177 387.771 498.437C383.493 488.504 374.629 481.097 365.268 478.797ZM360.87 494.039C360.195 494.061 359.421 494.438 358.722 494.551C357.239 497.913 355.667 501.293 354.117 504.676C359.791 501.475 363.862 501.199 367.314 503.96C367.818 504.364 368.203 504.703 369.051 505.496C370.111 506.484 371.236 509 371.404 511.427C371.613 514.441 370.447 517.008 367.518 519.202C360.01 524.828 355.775 525.283 354.424 522.067C353.985 521.019 354.586 519.688 356.573 518.077C357.236 517.539 357.991 517.068 358.722 516.645C359.149 516.395 359.397 516.2 359.539 516.133L356.674 509.178C355.492 509.728 353.85 510.682 352.175 512.043C350.154 513.679 348.75 515.549 347.878 517.565C347.779 517.772 347.671 517.974 347.57 518.178C346.813 520.32 346.729 522.644 347.777 525.136C351.641 534.348 361.002 533.567 371.712 525.545C376.759 521.764 379.061 516.46 378.667 510.815C378.364 506.426 376.376 502.115 373.86 499.766C372.872 498.846 372.409 498.486 371.712 497.926C368.46 495.323 364.901 493.9 360.87 494.039Z" fill="#FFE6AC"/>
<path d="M447.378 30.0594C439.49 29.6821 432.131 32.3618 425.789 37.8974C409.732 51.9145 401.599 84.1345 405.25 110.923C409.727 143.779 412.212 175.037 412.354 208.723C412.53 251.477 408.74 294.895 400.141 339.415C378.775 450.037 329.25 560.72 244.713 670.533C229.765 689.949 221.196 706.119 218.819 719.169C216.375 732.584 220.53 743.118 230.436 748.982C246.186 758.307 274.954 753.909 301.222 740.095C365.896 706.08 418.009 655.635 457.491 591.838C492.604 535.103 517.038 468.843 530.622 397.849C554.547 272.806 541.999 140.021 504.695 79.9914C489.787 56.005 475.583 40.8691 462.041 34.1184C457.025 31.6187 452.112 30.2858 447.378 30.0594ZM444.544 44.6156C447.868 44.2972 451.514 45.1153 455.566 47.135C466.261 52.4651 478.696 65.7509 492.308 87.6544C508.533 113.763 520.672 158.318 525.724 211.767C531.151 269.197 528.173 333.12 516.31 395.119C503.046 464.448 479.229 529.035 445.104 584.174C406.944 645.836 356.72 694.46 294.435 727.218C272.178 738.922 248.197 742.616 237.854 736.49C233.477 733.899 231.762 729.462 233.165 721.76C235.052 711.396 242.566 697.126 256.225 679.384C342.153 567.764 392.623 454.981 414.419 342.142C423.203 296.664 427.091 252.328 426.909 208.653C426.767 174.272 424.224 142.411 419.665 108.964C416.615 86.5815 423.513 59.2105 435.342 48.8846C438.19 46.3989 441.221 44.9341 444.544 44.6156Z" fill="black"/>
<path d="M302.267 349.063L401.573 401.047C401.573 401.047 260.755 395.594 224.253 468.429C187.752 541.265 146.775 643.875 111.43 621.231C83.8756 603.578 149.475 461.042 161.469 440.491C173.464 419.94 202.163 358.336 302.267 349.063Z" fill="#FBDE94"/>
<path d="M550.582 382.451C550.582 382.451 609.924 391.082 615.214 440.124C620.506 489.168 620.833 602.716 638.015 642.604C666.585 708.931 645.143 771.014 590.181 664.373C535.222 557.735 557.09 492.401 539.596 458.079C524.424 428.311 487.939 415.531 468.566 402.543L550.582 382.451Z" fill="#FDDE95"/>
<path d="M360.243 411.176C351.466 409.909 334.924 415.547 334.924 415.547C352.509 430.856 355.746 447.987 355.746 447.987C355.746 447.987 315.916 604.915 185.887 709.335L233.921 712.324C237.889 709.789 330.24 700.51 413.83 480.533C395.3 411.31 370.995 412.731 360.243 411.176Z" fill="#FEB914"/>
<path d="M352.168 411.39C349.644 411.729 347.065 412.264 344.681 412.824C345.91 414.975 347.481 417.018 349.474 418.914C354.316 423.519 359.645 425.351 365.36 424.827C369.513 424.447 373.031 423.111 378.588 420.313C379.652 419.777 380.532 419.208 381.457 418.633C379.095 416.905 376.845 415.511 374.668 414.574C365.237 419.191 360.094 419.585 354.199 413.98C353.319 413.144 352.841 412.257 352.168 411.39ZM388.174 424.512C380.171 431.354 368.035 435.851 352.204 438.194C353.393 440.744 354.263 442.989 354.792 444.632C355.059 444.589 355.369 444.57 355.633 444.527V444.596C355.665 444.596 355.751 444.599 355.879 444.596C357.018 444.572 358.51 444.584 360.217 444.702C362.726 444.873 365.184 445.214 367.46 445.752C373.245 447.12 376.727 449.48 377.432 452.785C378.494 457.759 377.338 459.766 373.233 460.973C373.613 460.691 373.964 460.463 374.389 460.062C376.069 458.468 377.088 456.704 376.802 454.464C376.773 454.239 376.72 454.02 376.662 453.799C375.855 450.775 374.146 448.754 371.553 447.956C369.755 447.401 368.087 447.497 365.22 447.956C359.563 448.86 356.888 453.532 357.837 459.538C359.029 467.075 365.653 470.221 374.913 467.62C382.69 465.438 385.942 459.944 384.115 451.386C383.418 448.115 381.664 445.49 379.078 443.476C380.376 443.395 381.606 443.368 382.926 443.231C383.469 443.239 385.156 443.272 386.809 443.337C389.864 443.457 392.883 443.695 395.697 444.036C397.91 444.306 399.645 444.7 401.261 445.087C399.302 440.975 397.319 437.24 395.348 434.099C395.125 434.159 394.942 434.25 394.719 434.31C390.674 435.353 386.521 435.99 382.435 436.408C386.194 434.502 389.532 432.323 392.479 429.866C391.037 427.874 389.597 426.079 388.174 424.512ZM369.279 454.428C369.544 454.491 369.582 454.839 369.7 455.058C369.683 455.075 369.681 455.077 369.664 455.094C369.332 455.409 368.998 455.685 368.825 455.793L372.183 461.218C367.239 462.407 365.042 461.35 364.591 458.488C364.184 455.923 364.732 454.96 366.304 454.71C367.946 454.448 368.794 454.315 369.279 454.428ZM401.4 445.332C400.249 445.577 399.11 446.048 398.006 447.045C394.738 450.004 394.596 456.2 398.218 459.398C400.746 461.634 404.575 462.386 407.98 461.602C407.182 459.336 406.372 457.154 405.565 455.094C404.517 455.106 403.424 454.866 402.731 454.253C402.229 453.811 402.287 452.395 402.59 452.119C402.907 451.833 402.811 451.835 403.15 452.085C403.313 452.205 403.431 452.294 403.431 452.294L404.2 451.665C403.267 449.429 402.342 447.317 401.4 445.332ZM343.91 483.331C343.122 485.455 342.204 487.77 341.322 490.051C348.769 490.62 356.679 496.326 360.253 504.187C364.43 513.372 361.844 522.666 351.365 529.59C340.492 536.771 333.061 538.338 328.375 536.098C326.322 535.115 324.89 533.169 323.722 530.849C322.544 533.298 321.475 535.649 320.223 538.163C321.653 539.831 323.301 541.287 325.402 542.292C332.653 545.76 342.473 543.664 355.143 535.293C368.45 526.502 372.038 513.574 366.48 501.351C362.228 492.002 353.244 484.888 343.91 483.331ZM341.252 497.503C340.293 497.539 339.223 497.917 338.207 498.133C337.029 501.034 336.058 503.584 334.744 506.67C340.3 503.598 344.025 503.805 347.339 506.321C347.813 506.679 348.116 506.98 348.914 507.686C349.909 508.563 350.961 510.774 351.12 512.933C351.315 515.612 350.267 517.946 347.515 519.897C340.464 524.901 336.464 525.242 335.198 522.382C334.787 521.45 335.361 520.316 337.229 518.883C337.851 518.405 338.538 517.963 339.223 517.588C339.625 517.367 339.928 517.227 340.062 517.167L337.298 510.904C336.186 511.394 334.64 512.248 333.064 513.459C332.218 514.108 331.514 514.836 330.86 515.557C329.978 517.535 329.17 519.4 328.235 521.436C328.202 522.625 328.365 523.86 328.935 525.146C332.564 533.339 341.413 532.633 351.468 525.495C356.208 522.133 358.311 517.432 357.943 512.409C357.657 508.506 355.792 504.629 353.43 502.541C352.502 501.723 352.125 501.394 351.468 500.897C348.416 498.582 345.047 497.361 341.252 497.503ZM392.128 508.909C390.734 508.744 389.258 508.866 387.72 509.294C382.572 510.724 379.604 516.79 380.652 521.717C381.654 526.442 387.071 529.371 391.253 527.98C392.909 527.429 394.043 526.396 394.892 525.18C394.62 526.216 394.224 527.432 393.808 528.646C395.906 523.973 397.975 519.354 400.071 514.439C398.011 511.171 395.293 509.284 392.128 508.909ZM391.323 515.699C392.568 515.85 393.613 516.797 394.577 518.568L389.364 520.666C389.35 520.628 389.345 520.654 389.364 520.736C389.429 521.003 389.465 521.282 389.434 521.402C389.429 521.416 389.458 521.359 389.119 521.472C388.73 521.601 387.473 520.936 387.336 520.282C386.99 518.662 388.148 516.259 389.54 515.872C390.174 515.696 390.775 515.629 391.323 515.699ZM387.021 543.236C385.043 546.05 383.175 548.896 381.527 551.773C380.71 553.2 380.022 554.493 379.393 555.729C376.444 555.897 373.591 557.238 370.89 559.927C364.244 566.539 363.632 573.653 369.14 578.402C370.267 576.356 371.404 574.073 372.534 571.963C371.791 570.341 372.541 568.255 375.158 565.455L375.579 566.224C375.903 565.599 376.23 565.001 376.557 564.371C376.511 564.388 376.463 564.388 376.417 564.405C376.208 564.486 376.11 564.537 375.927 564.616C376.22 564.335 376.487 564.212 376.768 563.986C380.188 557.372 383.586 550.461 387.021 543.236ZM290.585 590.404C289.001 592.898 287.444 595.381 285.79 597.893C287.432 597.578 289.083 597.306 290.724 597.263C298.6 597.049 307.37 603.194 311.193 611.608C315.373 620.794 312.821 630.124 302.342 637.048C291.469 644.229 284.005 645.796 279.318 643.556C276.134 642.032 274.113 638.634 272.985 634.142C270.94 625.999 273.908 621.741 283.238 615.492C290.306 610.758 294.481 610.895 298.283 613.779C298.756 614.137 299.059 614.401 299.857 615.108C300.852 615.987 301.938 618.196 302.097 620.356C302.294 623.036 301.208 625.403 298.458 627.355C291.407 632.359 287.408 632.7 286.141 629.838C285.728 628.907 286.338 627.773 288.206 626.338C288.828 625.86 289.515 625.42 290.2 625.045C290.602 624.824 290.907 624.682 291.039 624.625L288.275 618.362C287.165 618.852 285.617 619.705 284.041 620.916C279.969 624.043 277.891 628.04 279.912 632.601C283.543 640.797 292.356 640.09 302.412 632.952C307.151 629.59 309.254 624.887 308.886 619.866C308.6 615.961 306.769 612.087 304.406 609.998C303.479 609.181 303.065 608.849 302.412 608.354C296.307 603.723 288.939 603.415 279.424 609.789C277.907 610.803 276.917 611.63 275.749 612.517C272.586 616.997 269.479 621.467 266.09 625.954C265.441 628.977 265.437 632.238 266.335 635.822C267.912 642.092 270.95 647.115 276.379 649.713C283.63 653.183 293.416 651.121 306.086 642.751C313.847 637.624 318.223 631.054 319.487 624.065L319.418 624.764C319.759 624.793 320.35 624.863 321.201 624.904C326.145 625.141 331.535 624.978 337.053 624.416C337.536 624.42 339.048 624.469 340.516 624.519C342.482 621.736 344.443 618.845 346.431 615.877C343.105 616.607 339.757 617.249 336.424 617.593V617.626C331.259 618.155 326.173 618.268 321.552 618.047C321.105 618.025 320.033 617.982 319.978 617.977L319.838 619.515C319.785 615.951 319.043 612.334 317.423 608.775C312.525 598.001 301.34 590.147 290.585 590.404ZM318.122 653.282C315.974 653.904 313.856 654.969 311.859 656.957C308.922 659.879 307.37 662.871 306.786 665.738C310.465 661.977 314.282 657.695 318.122 653.282ZM273.404 655.207C268.619 655.13 263.439 656.368 258.114 659.091C244.592 666.005 237.945 673.499 237.399 681.519C236.99 687.525 239.888 692.637 244.571 697.09C248.729 701.043 253.268 702.839 258.078 702.968C265.958 698.964 275.427 693.014 286.141 684.424C286.511 682.218 286.475 679.93 285.966 677.426C285.92 677.202 285.896 677.154 285.79 676.657C285.137 673.571 282.647 670.076 279.388 667.909C275.196 665.118 270.089 664.631 264.831 667.104C253.672 672.35 248.705 679.683 254.054 686.873C256.028 689.527 258.914 690.56 262.103 690.197C263.949 689.988 265.804 689.313 267.631 688.378C268.912 687.722 269.931 687.07 270.57 686.595L266.477 681.134C266.41 681.185 266.242 681.286 265.987 681.449C265.542 681.737 265.042 682.021 264.516 682.29C263.362 682.881 262.243 683.271 261.332 683.374C260.402 683.48 259.943 683.343 259.548 682.814C257.681 680.305 259.911 676.974 267.737 673.297C270.789 671.862 273.372 672.088 275.61 673.576C277.412 674.777 278.833 676.791 279.109 678.092C279.208 678.563 279.208 678.596 279.248 678.791C280.03 682.634 279.611 685.21 276.763 688.133C275.321 689.613 273.298 691.046 270.606 692.401C260.577 697.45 255.379 697.943 249.296 692.156C245.941 688.967 243.982 685.53 244.222 682.009C244.576 676.827 249.627 671.112 261.228 665.178C272.409 659.461 281.772 661.783 287.715 669.937C289.842 672.857 291.099 676.294 291.844 679.769C293.743 678.135 295.692 676.33 297.653 674.523C296.612 671.461 295.156 668.538 293.245 665.914C288.302 659.132 281.383 655.334 273.404 655.207ZM235.404 662.66C232.249 666.097 229.017 669.488 225.712 672.876C228.094 672.763 230.434 672.006 232.15 670.288C234.381 668.055 235.472 665.452 235.404 662.66ZM202.163 709.513C200.769 709.347 199.294 709.469 197.754 709.897C197.651 709.926 197.576 710.005 197.474 710.037L205.382 710.527C204.368 710.008 203.3 709.647 202.163 709.513Z" fill="#FFC436"/>
<path d="M185.131 709.861C184.901 710.102 195.856 760.91 195.856 760.91C195.856 760.91 206.432 763.477 222.921 764.241L239.373 736.392L233.58 711.138L185.131 709.861Z" fill="#B06E43"/>
<path d="M301.522 340.938C250.394 345.675 213.254 364.618 186.382 392.46C178.687 400.432 172.185 408.854 166.262 418.039C164.047 421.473 162.019 424.86 159.789 428.746C159.086 429.972 155.906 435.569 155.17 436.828C146.495 451.693 127.116 494.929 114.756 529.484C106.666 552.099 101.1 571.763 98.73 587.325C95.6785 607.356 97.6957 621.065 107.513 627.354C120.164 635.458 133.731 632.031 147.017 619.657C157.45 609.937 168.225 594.506 180.364 572.804C188.763 557.783 196.845 541.731 209.371 515.732C210.166 514.083 217.924 497.945 220.183 493.268C224.275 484.801 227.588 477.99 230.751 471.679C243.51 446.218 271.517 428.859 310.494 418.563C328.348 413.845 347.529 410.88 366.97 409.361C379.972 408.344 391.2 408.101 399.686 408.274C400.157 408.284 401.244 408.308 401.297 408.31C409.05 408.611 411.727 397.303 404.851 393.705L305.548 341.743C304.303 341.092 302.921 340.808 301.522 340.938ZM300.823 355.67L373.149 393.564C370.635 393.713 368.477 394.631 365.816 394.84C345.561 396.421 325.568 399.536 306.786 404.496C264.165 415.756 232.735 435.237 217.734 465.171C214.536 471.552 211.181 478.411 207.062 486.935C204.794 491.629 197.038 507.796 196.25 509.435C183.845 535.18 175.877 551.01 167.662 565.699C144.648 606.849 127.444 622.853 115.351 615.107C112.178 613.074 110.908 604.222 113.146 589.528C115.35 575.058 120.67 556.194 128.472 534.382C140.55 500.617 159.585 458.196 167.767 444.175C168.565 442.808 171.764 437.131 172.421 435.987C174.535 432.303 176.445 429.111 178.509 425.91C183.947 417.479 189.853 409.817 196.844 402.571C220.951 377.594 254.283 360.366 300.823 355.67Z" fill="black"/>
<path d="M350.209 385.006C329.521 384.963 303.265 392.24 269.904 410.972C269.044 411.455 268.585 411.649 267.737 412.125C251.202 425.62 232.573 446.163 217.769 478.188C186.359 546.135 148.93 632.097 114.441 630.222C114.438 630.239 143.593 641.64 171.931 610.873C200.268 580.108 225.793 514.733 236.314 494.249C246.835 473.766 265.141 442.078 281.873 432.63C293.313 426.17 340.194 396.441 376.523 415.343C376.73 415.449 376.908 415.511 377.117 415.624C377.198 415.668 377.28 415.721 377.362 415.764C393.808 424.699 407.995 443.811 415.608 479.868C415.608 479.868 410.352 506.059 387.021 543.27C311.621 701.947 237.482 710.046 233.935 712.313H233.865L239.358 736.387L222.913 764.239C206.423 763.477 195.865 760.915 195.865 760.915C195.865 760.915 184.892 710.104 185.122 709.864L201.078 710.282L185.892 709.337C188.37 707.347 190.583 705.206 192.995 703.18C189.157 704.987 185.383 706.823 181.413 708.602L195.2 763.258C195.2 763.258 414.472 819.96 519.951 483.367C520.095 482.901 520.29 482.495 520.439 482.038C520.023 479.608 519.567 477.558 519.04 476.405C514.414 466.241 501.609 441.58 482.195 431.056C475.283 427.307 467.691 430.249 460.745 435.43C449.296 448.91 438.308 462.215 438.142 463.806C438.005 463.016 437.743 461.92 437.582 461.042L432.227 441.237C423.965 418.352 405.195 390.459 358.748 385.463C356.016 385.167 353.165 385.013 350.209 385.006Z" fill="#FCA919"/>
<path d="M551.617 375.243C550.69 375.109 549.762 375.161 548.854 375.385C548.212 375.541 467.475 395.311 466.833 395.47C460.69 396.974 459.27 405.068 464.526 408.592C464.773 408.758 465.004 408.911 465.259 409.08C470.558 412.557 493.337 425.028 497.485 427.52C515.072 438.083 526.476 448.381 533.107 461.393C537.604 470.215 539.308 480.415 541.084 504.571C543.61 538.891 544.958 551.335 549.553 573.258C556.013 604.083 566.823 634.944 583.704 667.699C597.081 693.653 609.3 711.356 620.059 720.779C631.643 730.926 643.345 732.281 651.026 722.983C662.382 709.236 659.363 673.796 644.693 639.741C637.147 622.223 632.439 588.565 628.877 536.446C628.3 527.999 627.723 519.21 627.091 508.315C626.858 504.302 625.863 486.255 625.587 481.547C624.431 461.725 623.52 449.367 622.439 439.347C619.939 416.181 606.759 399.219 586.713 387.772C579.054 383.398 570.885 380.139 562.745 377.798C559.892 376.978 557.234 376.334 554.835 375.839C553.357 375.534 552.261 375.339 551.617 375.243ZM550.846 389.87C551.194 389.935 551.49 389.997 551.896 390.081C553.944 390.502 556.239 391.081 558.719 391.795C565.814 393.833 572.906 396.654 579.47 400.404C595.774 409.714 606.043 422.906 607.987 440.921C609.035 450.631 609.886 462.83 611.032 482.422C611.306 487.116 612.337 505.129 612.571 509.154C613.205 520.094 613.775 528.921 614.356 537.427C618.043 591.353 622.869 625.845 631.326 645.478C637.875 660.681 641.946 676.262 643.083 689.603C644.093 701.444 642.627 710.325 639.829 713.711C639.159 714.523 638.695 714.723 637.834 714.622C635.972 714.403 633.157 712.901 629.646 709.827C620.533 701.843 609.264 685.522 596.651 661.049C580.378 629.477 569.988 599.846 563.793 570.283C559.375 549.201 558.085 537.167 555.607 503.485C553.679 477.317 551.793 465.971 546.087 454.779C537.974 438.857 524.686 426.903 504.974 415.064C502.493 413.574 495.161 409.385 487.898 405.302C509.112 400.106 548.195 390.521 550.846 389.87Z" fill="black"/>
<path d="M480.323 402.591C471.084 401.814 446.525 402.588 429.865 432.483L437.798 461.78C437.798 461.78 462.778 420.531 482.19 431.056C501.604 441.58 514.419 466.248 519.045 476.411C523.672 486.572 523.104 550.21 533.842 593.263C544.583 636.319 578.044 696.628 605.651 718.957C633.258 741.287 646.854 715.223 646.801 715.035C635.318 734.307 624.006 729.986 590.184 664.361C535.222 557.723 557.071 492.401 539.579 458.079C524.405 428.311 496.036 403.912 480.323 402.591Z" fill="#FEB914"/>
<path d="M474.742 395.155C468.446 395.313 461.836 396.534 455.112 399.284C442.636 404.383 431.812 414.064 423.515 428.955C422.59 430.613 422.355 432.546 422.85 434.379L430.759 463.666C432.432 469.845 440.704 471.032 444.02 465.555C444.138 465.361 444.4 464.938 444.79 464.332C445.458 463.294 446.222 462.123 447.099 460.866C449.606 457.276 452.389 453.692 455.321 450.369C461.759 443.077 468.01 438.225 473.026 436.934C475.247 436.362 477.045 436.545 478.732 437.458C492.56 444.954 504.209 461.366 512.426 479.413C512.739 480.098 513.217 482.41 513.686 485.885C514.157 489.37 514.604 493.881 515.12 500.197C515.431 503.975 516.714 521.041 517.082 525.6C517.978 536.763 518.862 546.069 519.915 555.026C521.722 570.424 523.938 583.655 526.774 595.022C538.132 640.563 572.721 701.709 601.059 724.629C615.346 736.184 628.858 737.999 640.108 731.837C640.925 731.39 641.588 730.772 642.348 730.262C645.499 728.549 648.289 725.869 650.92 722.074C651.432 721.368 651.985 720.637 652.391 719.974C652.658 719.536 652.896 719.116 653.091 718.751C653.196 718.551 653.283 718.378 653.369 718.191C655.004 714.65 654.569 715.773 653.79 713.045C652.038 706.912 643.828 705.816 640.565 711.295C639.644 712.841 638.841 713.889 638.08 714.867C637.493 715.547 636.887 716.234 636.224 716.826C636.08 716.943 635.905 717.087 635.77 717.174C635.537 717.371 635.277 717.518 635.035 717.7C634.907 717.732 634.809 717.794 634.58 717.734C633.852 717.549 632.807 716.965 631.466 715.881C624.001 709.837 612.982 692.703 596.651 661.015C580.376 629.438 569.991 599.846 563.793 570.283C559.373 549.201 558.056 537.177 555.571 503.485C553.641 477.329 551.757 465.969 546.054 454.779C530.552 424.367 500.537 396.979 480.936 395.33C478.912 395.159 476.84 395.102 474.742 395.155ZM479.71 409.851C493.306 410.993 519.658 435.004 533.107 461.393C537.604 470.213 539.303 480.425 541.084 504.571C543.617 538.902 544.955 551.335 549.553 573.258C556.016 604.083 566.821 634.942 583.704 667.699C594.577 688.793 603.089 703.225 610.4 713.396C610.343 713.348 610.287 713.341 610.227 713.29C584.586 692.552 551.557 634.173 540.911 591.487C538.245 580.807 536.109 568.18 534.366 553.349C533.338 544.591 532.487 535.446 531.603 524.446C531.24 519.938 529.956 502.843 529.644 499.007C528.442 484.369 527.486 477.416 525.654 473.393C522.114 465.62 517.615 457.43 512.112 449.669C504.313 438.674 495.533 430.005 485.658 424.651C480.592 421.904 475.028 421.38 469.388 422.831C460.861 425.026 452.608 431.455 444.405 440.748C443.129 442.193 442.074 443.76 440.87 445.262L437.721 433.714C444.153 423.153 451.899 416.328 460.64 412.754C467.258 410.048 473.747 409.349 479.71 409.851Z" fill="black"/>
<path d="M355.633 403.762C353.595 403.855 351.401 404.108 349.055 404.497C346.453 404.927 343.722 405.504 340.937 406.211C338.858 406.742 336.873 407.326 335.022 407.891C333.9 408.234 333.061 408.496 332.573 408.662C327.265 410.472 325.928 417.364 330.161 421.049C331.648 422.344 333.033 423.661 334.359 425.036C339.651 430.525 343.477 436.396 346.08 442.217C346.977 444.219 347.659 446.055 348.145 447.675C348.178 447.783 348.185 447.855 348.214 447.956C347.993 448.771 347.823 449.37 347.654 449.951C346.753 453.097 345.638 456.733 344.297 460.867C340.449 472.727 335.57 485.967 329.601 500.231C312.53 541.011 290.099 581.798 261.647 619.83C238.101 651.304 211.402 679.531 181.343 703.67C176.159 707.833 178.801 716.204 185.437 716.615L233.48 719.59C235.019 719.686 236.554 719.302 237.854 718.47C237.209 718.883 237.427 718.797 237.469 718.785C237.469 718.785 239.712 718.141 240.618 717.876C244.314 716.79 247.921 715.567 251.99 713.887C263.764 709.027 276.252 701.721 289.571 691.178C326.887 661.639 363.584 612.322 397.692 538.093C405.553 520.981 413.219 502.663 420.646 483.122C421.189 481.694 421.251 480.118 420.855 478.642C415.486 458.586 409.331 443.15 402.417 431.686C395.69 420.532 388.297 413.221 380.162 408.977C374.324 405.929 370.719 405.146 362.49 404.146C361.988 404.086 361.594 404.019 361.267 403.973C359.534 403.723 357.669 403.668 355.633 403.762ZM359.202 418.388C359.659 418.456 360.14 418.489 360.743 418.564C367.299 419.359 369.633 419.9 373.444 421.888C379.087 424.834 384.553 430.244 389.96 439.208C395.843 448.963 401.249 462.525 406.125 480.183C399.09 498.556 391.878 515.872 384.466 532.003C351.267 604.254 315.947 651.746 280.541 679.769C268.294 689.467 256.962 696.066 246.426 700.416C242.866 701.885 239.757 702.964 236.524 703.913C235.714 704.153 233.483 704.769 233.41 704.788C233.183 704.855 233.148 704.906 232.955 704.963L204.193 703.18C229.63 680.973 252.733 656.036 273.3 628.545C302.52 589.483 325.532 547.685 343.035 505.867C349.166 491.221 354.184 477.613 358.152 465.381C359.546 461.086 360.704 457.245 361.651 453.938C362.228 451.931 362.613 450.535 362.807 449.776C363.067 448.747 363.108 447.668 362.911 446.627C362.911 446.627 362.723 445.887 362.666 445.647C362.512 445.005 362.346 444.277 362.106 443.477C361.445 441.27 360.536 438.86 359.378 436.269C356.818 430.551 353.326 424.853 348.81 419.402C349.676 419.227 350.613 418.979 351.435 418.843C354.778 418.29 357.506 418.143 359.202 418.388Z" fill="black"/>
<path d="M345.241 385.217C341.007 385.435 336.561 385.916 331.874 386.755C331.862 386.757 331.85 386.755 331.838 386.755C324.056 391.086 313.832 394.042 301.503 395.748C291.729 399.634 281.265 404.592 269.904 410.971C269.044 411.454 268.585 411.649 267.736 412.124C260.726 417.844 253.353 424.949 246.042 433.538C245.688 434.204 245.275 434.91 244.958 435.533C244.684 435.55 244.424 435.708 244.153 435.744C239.829 440.998 235.565 446.836 231.415 453.308C232.005 455.25 233.18 457.043 235.089 458.557C239.852 462.337 245.27 462.303 248.842 457.824C250.649 455.553 251.519 454.132 251.92 452.294C252.497 449.645 251.603 447.172 249.365 444.98C248.005 443.646 246.265 443.274 244.431 443.512C243.605 443.618 242.787 443.87 241.983 444.175C241.773 444.257 241.674 444.307 241.493 444.387C244.528 441.474 246.844 441.459 250.625 444.805C252.639 446.588 253.254 449.571 252.586 453.695C252.161 456.302 251.24 459.155 249.962 462.092C249.31 463.584 248.628 465.01 247.931 466.291C247.688 466.735 247.056 467.776 247.022 467.829L247.056 467.865C243.835 471.871 240.606 476.142 237.434 480.951C232.879 487.856 224.918 492.511 214.41 495.227C212.771 495.652 211.099 495.763 209.441 496.068C208.179 498.805 206.904 501.531 205.627 504.29C205.974 504.299 206.129 504.275 206.502 504.29C209.555 504.41 212.575 504.648 215.39 504.991C217.864 505.292 219.832 505.705 221.583 506.145C220.26 506.337 218.924 506.859 217.664 508C214.395 510.956 214.288 517.152 217.909 520.351C219.316 521.594 221.166 522.266 223.088 522.625C224.139 520.327 225.332 517.876 226.307 515.732C225.06 516.131 223.391 516.063 222.423 515.208C221.921 514.763 221.944 513.348 222.248 513.074C222.564 512.788 222.467 512.788 222.808 513.038C222.97 513.158 223.088 513.249 223.088 513.249L227.496 509.75C227.968 510.509 228.001 511.108 228.161 511.742C229.524 508.748 230.596 506.522 231.765 504.011C231.673 503.895 231.651 503.778 231.555 503.66C229.963 501.728 226.882 500.543 223.123 499.601C229.259 497.272 234.452 494.092 238.588 490.05C244.612 478.61 252.403 464.969 261.053 453.344C260.481 453.827 259.909 454.199 259.339 454.709C260.325 448.53 259.193 443.284 255.138 439.698C253.982 438.674 252.855 438.08 251.711 437.422C252.146 436.607 252.526 435.836 253.04 434.939C254.643 432.137 256.472 429.366 258.392 426.645C259.505 425.071 260.608 423.497 261.822 421.992C270.524 411.187 280.08 404.523 290.095 403.831C295.855 403.434 301.179 402.778 306.262 401.942C306.293 401.942 306.377 401.944 306.507 401.942C307.646 401.918 309.139 401.93 310.845 402.047C313.354 402.218 315.813 402.559 318.089 403.098C323.871 404.467 327.356 406.825 328.06 410.13C328.233 410.944 328.252 411.567 328.305 412.23C330.504 411.673 332.631 411 334.883 410.584C334.801 409.945 334.888 409.409 334.744 408.731C334.054 405.496 332.352 402.934 329.81 400.927C331.213 400.841 332.547 400.829 333.975 400.682C334.537 400.682 336.15 400.687 337.789 400.752C340.841 400.872 343.862 401.11 346.676 401.451C349.166 401.754 351.182 402.165 352.939 402.607C351.593 402.787 350.269 403.299 348.986 404.46C347.666 405.655 347.003 407.416 346.746 409.255C349.457 409.144 352.187 409.151 354.898 409.361L358.782 406.246C359.717 407.753 359.839 408.923 359.587 409.99C361.844 410.336 364.081 410.803 366.304 411.425C367.083 407.926 366.071 404.044 362.841 400.122C361.247 398.188 358.169 397.005 354.408 396.063C360.248 393.854 365.199 390.855 369.243 387.106C366.314 386.519 363.266 386.015 360.077 385.637C356.066 388.223 351.269 390.285 345.696 391.725C341.711 392.754 337.652 393.395 333.624 393.823C333.559 393.823 333.309 393.823 333.309 393.823V393.859C333.133 393.876 332.958 393.912 332.785 393.929C337.637 391.501 341.752 388.572 345.241 385.217ZM240.723 445.225L243.767 450.825C243.862 450.772 244.119 450.664 244.431 450.544C244.595 450.481 244.705 450.482 244.852 450.438C245.213 451.027 245.073 451.561 243.487 453.553C242.496 454.798 241.357 454.817 239.323 453.204C237.049 451.4 237.235 448.958 240.723 445.225ZM403.536 401.802C399.076 401.925 394.334 403.04 389.434 405.547C383.49 408.587 379.107 411.769 375.752 415.028C376.004 415.155 376.273 415.213 376.523 415.342C376.73 415.448 376.908 415.511 377.117 415.624C377.198 415.667 377.28 415.72 377.362 415.763C378.895 416.597 380.385 417.618 381.875 418.633C384.541 416.342 387.896 414.016 392.548 411.634C401.806 406.9 409.785 407.753 415.642 412.79C412.193 408.863 408.156 405.186 403.536 401.802ZM319.418 404.917C318.418 404.929 317.281 405.073 315.849 405.301C310.189 406.205 307.516 410.877 308.466 416.883C308.569 417.537 308.771 418.116 308.956 418.702C310.999 417.835 313.186 417.03 315.358 416.217C315.325 416.076 315.243 415.987 315.219 415.833C314.813 413.268 315.361 412.305 316.933 412.055C318.574 411.793 319.422 411.661 319.908 411.774C320.172 411.836 320.211 412.187 320.326 412.403C320.312 412.42 320.309 412.425 320.292 412.439C319.958 412.754 319.624 413.03 319.451 413.139L320.223 414.364C322.511 413.61 324.945 413.1 327.325 412.475C327.325 412.24 327.462 412.055 327.43 411.81C327.401 411.584 327.349 411.365 327.291 411.144C326.483 408.12 324.772 406.102 322.181 405.301C321.283 405.023 320.417 404.905 319.418 404.917ZM403.815 411.985C401.357 411.824 398.783 412.324 396.153 413.559C391.308 415.835 387.723 418.517 385.55 421.396C387.333 422.846 389.066 424.434 390.763 426.191C391.606 424.259 394.094 422.086 399.057 419.753C402.109 418.318 404.692 418.544 406.93 420.031C408.732 421.233 410.153 423.247 410.429 424.547C410.53 425.018 410.53 425.052 410.569 425.247C411.35 429.089 410.931 431.666 408.084 434.588C406.644 436.069 404.618 437.501 401.926 438.857C401.482 439.083 401.162 439.176 400.737 439.383C401.876 441.284 402.996 443.245 404.06 445.365C404.411 445.194 404.637 445.132 405.005 444.947C408.343 443.264 410.982 441.402 412.984 439.347C417.675 434.531 418.473 429.724 417.286 423.882C417.243 423.658 417.219 423.61 417.113 423.112C416.457 420.027 413.967 416.532 410.708 414.364C408.612 412.968 406.274 412.146 403.815 411.985ZM420.052 418.318C424.426 425.626 425.224 435.086 421.487 441.306C418.447 446.362 413.864 450.527 407.874 453.904C408.687 455.935 409.468 458.105 410.218 460.306C417.627 456.314 423.472 451.258 427.329 444.841C428.817 442.365 429.781 439.563 430.302 436.619C427.781 430.541 424.441 424.333 420.052 418.318ZM397.797 427.59C397.73 427.64 397.562 427.739 397.307 427.905C396.862 428.193 396.363 428.477 395.839 428.746C395.089 429.128 394.445 429.253 393.774 429.445C395.259 431.212 396.677 433.173 398.076 435.218C398.369 435.083 398.663 434.982 398.951 434.833C400.232 434.177 401.251 433.526 401.89 433.048L397.797 427.59ZM478.451 429.76C477.516 430.726 476.523 431.661 475.756 432.769C472.488 437.489 471.469 443.014 473.098 449.494C474.672 455.764 477.71 460.789 483.139 463.385C489.628 466.49 498.271 464.839 509.069 458.523C507.838 456.603 506.81 454.803 505.394 452.854C496.593 457.965 490.186 459.194 486.079 457.228C482.894 455.704 480.873 452.306 479.746 447.816C478.138 441.414 479.789 437.371 485.028 432.908C484.074 432.303 483.183 431.591 482.195 431.055C480.967 430.39 479.715 430.029 478.451 429.76ZM489.439 435.848C486.365 438.77 484.913 442.298 486.675 446.276C489.554 452.779 495.747 453.469 503.19 449.984C501.751 448.133 500.208 446.367 498.605 444.596C495.654 445.615 493.685 445.247 492.902 443.476C492.532 442.639 493.13 441.596 494.582 440.361C492.931 438.785 491.231 437.242 489.439 435.848ZM435.412 452.959C431.425 455.507 426.649 457.516 421.136 458.941C417.579 459.862 413.96 460.41 410.359 460.833C411.143 463.161 411.955 465.445 412.669 467.971C412.897 467.978 412.989 467.961 413.229 467.971C416.281 468.091 419.302 468.329 422.117 468.67C424.578 468.968 426.563 469.388 428.31 469.823C426.986 470.018 425.685 470.54 424.426 471.679C421.155 474.635 421.013 480.833 424.635 484.03C428.408 487.365 435.135 487.74 438.911 483.96C443.429 479.439 443.271 473.4 438.281 467.341C436.688 465.406 433.609 464.221 429.848 463.282C432.501 462.277 434.924 461.054 437.231 459.746L435.412 452.959ZM434.222 473.428C435.746 475.885 435.599 477.615 434.083 479.132C433.061 480.153 430.389 479.982 429.149 478.886C428.646 478.444 428.704 477.029 429.009 476.752C429.324 476.466 429.228 476.469 429.569 476.719C429.73 476.836 429.848 476.928 429.848 476.928L434.222 473.428ZM489.787 479.271C485.002 479.194 479.856 480.432 474.533 483.155C461.012 490.071 454.364 497.565 453.816 505.585C453.408 511.588 456.306 516.7 460.99 521.156C465.833 525.761 471.159 527.595 476.876 527.068C481.029 526.689 484.548 525.352 490.102 522.555C493.44 520.875 496.079 519.012 498.081 516.958C502.772 512.139 503.536 507.335 502.349 501.492C502.304 501.269 502.316 501.221 502.21 500.721C501.554 497.637 499.066 494.107 495.807 491.939C491.614 489.149 486.509 488.697 481.25 491.17C470.089 496.414 465.124 503.749 470.474 510.94C472.447 513.593 475.331 514.59 478.52 514.227C480.368 514.018 482.224 513.379 484.05 512.444C485.329 511.788 486.35 511.137 486.99 510.658L482.894 505.2C482.829 505.249 482.661 505.349 482.404 505.515C481.959 505.804 481.459 506.085 480.936 506.354C479.78 506.945 478.662 507.335 477.751 507.44C476.819 507.546 476.36 507.409 475.965 506.88C474.098 504.369 476.328 501.04 484.154 497.363C487.206 495.928 489.792 496.154 492.027 497.642C493.829 498.841 495.25 500.858 495.526 502.155C495.627 502.629 495.627 502.663 495.666 502.855C496.447 506.698 496.028 509.276 493.183 512.199C491.741 513.677 489.717 515.112 487.023 516.467C476.996 521.517 471.798 521.973 465.715 516.188C462.358 512.997 460.402 509.596 460.639 506.075C460.993 500.891 466.045 495.179 477.645 489.245C488.828 483.525 498.191 485.849 504.135 494.003C509.578 501.473 510.643 512.165 506.584 518.916C498.376 532.567 479.068 539.933 450.529 541.906C442.326 542.474 434.732 546.288 427.644 552.229C428.714 548.4 429.226 545.057 428.31 542.676C426.193 537.182 422.765 534.074 418.581 533.579C417.187 533.413 415.712 533.536 414.174 533.963C409.026 535.391 406.057 541.459 407.105 546.384C408.108 551.111 413.525 554.038 417.706 552.647C419.362 552.097 420.494 551.066 421.345 549.849C420.968 551.294 420.54 552.796 419.807 554.678C419.218 556.18 418.533 557.761 417.776 559.4C416.803 561.515 415.779 563.616 414.734 565.594C414.402 566.218 413.676 567.54 413.472 567.903C411.496 570.717 409.629 573.563 407.98 576.442C407.161 577.87 406.476 579.163 405.846 580.396C402.895 580.564 400.044 581.905 397.343 584.594C390.525 591.379 390.001 598.711 395.978 603.456C400.739 607.234 406.158 607.202 409.73 602.72C411.537 600.449 412.407 599.031 412.808 597.19C413.385 594.542 412.491 592.071 410.254 589.879C408.891 588.543 407.153 588.17 405.32 588.408C404.493 588.517 403.676 588.766 402.871 589.074C402.662 589.153 402.563 589.204 402.38 589.283C405.416 586.37 407.733 586.356 411.513 589.704C413.527 591.485 414.142 594.467 413.472 598.591C413.049 601.199 412.128 604.052 410.847 606.988C410.198 608.481 409.516 609.906 408.819 611.187C408.576 611.632 407.944 612.672 407.91 612.728C404.688 616.734 401.496 621.038 398.321 625.85C393.767 632.752 385.807 637.407 375.297 640.126C371.197 641.185 367.015 641.834 362.877 642.26V642.293C357.712 642.825 352.624 642.935 348.005 642.714C347.556 642.692 346.484 642.649 346.431 642.644L346.289 644.185C346.239 640.618 345.496 637.004 343.876 633.442C342.66 630.767 341.04 628.294 339.151 626.059C337.738 628.042 336.32 630.082 334.919 631.971C335.926 633.346 336.94 634.72 337.647 636.275C341.824 645.461 339.274 654.791 328.795 661.715C317.923 668.896 310.458 670.465 305.772 668.223C305.382 668.035 305.077 667.728 304.721 667.487C303.01 669.206 301.354 670.732 299.682 672.316C300.643 673.094 301.657 673.818 302.832 674.38C310.083 677.851 319.867 675.789 332.54 667.418C340.298 662.291 344.677 655.721 345.941 648.732L345.871 649.434C346.212 649.462 346.804 649.532 347.654 649.573C352.6 649.809 357.986 649.645 363.507 649.083C364.05 649.09 365.735 649.124 367.39 649.189C370.443 649.309 373.464 649.544 376.278 649.888C378.751 650.188 380.719 650.604 382.471 651.041C381.149 651.234 379.813 651.755 378.551 652.897C375.283 655.853 375.177 662.051 378.797 665.248C382.572 668.581 389.299 668.958 393.072 665.178C397.591 660.657 397.432 654.618 392.443 648.559C390.849 646.622 387.742 645.406 383.976 644.464C392.628 641.183 399.549 636.379 404.024 629.592C419.781 605.712 435.691 592.549 451.613 592.117C458.227 591.939 465.314 596.38 469.738 602.754C470.981 600.521 472.252 598.365 473.483 596.073C467.753 589.394 459.467 585.077 451.437 585.294C440.656 585.587 430.297 590.624 420.225 599.605C421.213 593.427 420.081 588.18 416.027 584.594C414.871 583.571 413.743 582.943 412.597 582.285C413.03 581.477 413.419 580.723 413.928 579.836C415.531 577.036 417.36 574.262 419.281 571.542C419.295 571.523 419.302 571.494 419.317 571.472C420.415 569.92 421.513 568.377 422.71 566.889C431.413 556.084 440.968 549.422 450.983 548.729C456.746 548.331 462.065 547.641 467.148 546.804V546.84C467.181 546.838 467.265 546.843 467.393 546.84C468.534 546.814 470.024 546.828 471.733 546.944C474.242 547.114 476.701 547.456 478.977 547.994C484.759 549.364 488.244 551.722 488.948 555.026C490.013 560.018 488.847 562.01 484.714 563.214C485.096 562.933 485.442 562.712 485.87 562.306C487.552 560.712 488.605 558.946 488.319 556.706C488.29 556.483 488.237 556.262 488.179 556.043C487.369 553.017 485.66 550.998 483.07 550.198C481.272 549.643 479.602 549.741 476.737 550.198C471.077 551.102 468.405 555.776 469.354 561.78C470.544 569.319 477.17 572.462 486.43 569.864C486.54 569.833 486.6 569.756 486.708 569.723C489.446 563.88 492.104 557.682 494.757 551.493C493.853 549.28 492.565 547.309 490.628 545.79C491.964 545.709 493.224 545.716 494.582 545.579C494.815 545.579 496.175 545.593 497.312 545.615C498.401 543 499.492 540.347 500.566 537.672C498.542 538.015 496.531 538.506 494.512 538.722C494.445 538.72 494.197 538.722 494.197 538.722V538.756C493.988 538.777 493.777 538.806 493.567 538.825C496.757 537.237 499.593 535.41 502.21 533.437C506.423 522.737 510.475 511.497 514.421 499.812C513.378 496.313 511.828 492.948 509.663 489.98C504.721 483.198 497.766 479.401 489.787 479.271ZM417.776 540.366C419.021 540.517 420.064 541.467 421.03 543.235L415.817 545.334C415.803 545.298 415.798 545.322 415.817 545.406C415.882 545.67 415.918 545.949 415.887 546.069C415.882 546.086 415.911 546.026 415.572 546.139C415.183 546.268 413.926 545.605 413.787 544.949C413.443 543.329 414.601 540.926 415.993 540.541C416.625 540.366 417.228 540.299 417.776 540.366ZM480.796 556.672C481.061 556.735 481.099 557.083 481.214 557.302C481.2 557.317 481.198 557.321 481.181 557.336C480.847 557.653 480.513 557.929 480.34 558.035L483.699 563.459C478.753 564.649 476.559 563.594 476.107 560.732C475.701 558.165 476.249 557.204 477.821 556.951C479.462 556.689 480.311 556.557 480.796 556.672ZM401.611 590.122L404.654 595.722C404.75 595.669 405.007 595.561 405.32 595.441C405.483 595.38 405.594 595.378 405.74 595.337C406.101 595.924 405.961 596.46 404.375 598.452C403.383 599.697 402.246 599.716 400.21 598.101C397.937 596.296 398.124 593.857 401.611 590.122ZM388.383 654.646C389.907 657.103 389.761 658.833 388.244 660.35C387.225 661.371 384.553 661.2 383.31 660.104C382.81 659.662 382.832 658.244 383.135 657.97C383.452 657.684 383.356 657.684 383.695 657.934C383.858 658.054 383.976 658.146 383.976 658.146L388.383 654.646ZM394.543 530.604C392.508 534.24 390.244 538.035 387.823 541.94C387.206 543.983 386.146 545.963 384.711 547.855C382.289 552.856 379.883 557.571 377.468 562.27C378.842 561.477 380.111 560.883 381.56 559.927C393.205 552.234 397.398 541.385 394.543 530.604ZM191.771 533.822C190.774 535.879 189.764 537.84 188.762 539.876C189.642 540.296 190.565 540.892 191.631 541.837C193.644 543.618 194.295 546.6 193.625 550.724C193.202 553.332 192.28 556.185 191.001 559.121C190.351 560.614 189.633 562.039 188.936 563.32C188.694 563.765 188.096 564.805 188.062 564.861C184.833 568.872 181.619 573.162 178.439 577.98C174.748 583.578 168.724 587.659 161.014 590.473C158.443 594.477 155.894 598.248 153.316 601.776C154.333 601.867 155.42 601.901 156.395 602.021C158.858 602.319 160.841 602.739 162.588 603.174C161.266 603.367 159.965 603.888 158.704 605.03C155.435 607.986 155.293 614.182 158.914 617.38C159.987 618.327 161.314 618.969 162.728 619.411C165.788 616.979 168.856 614.21 171.931 610.872C173.187 609.51 174.396 607.748 175.64 606.253C175.017 604.424 174.107 602.569 172.561 600.689C170.967 598.755 167.858 597.536 164.093 596.597C172.741 593.326 179.706 588.538 184.178 581.761C192.089 569.768 200.035 560.494 208.006 554.151C210.064 550.085 211.829 546.41 213.745 542.43C209.229 544.776 204.769 547.795 200.378 551.702C201.356 545.54 200.191 540.306 196.145 536.727C194.674 535.427 193.213 534.533 191.771 533.822ZM168.502 606.779C170.025 609.236 169.878 610.964 168.362 612.483C167.342 613.504 164.669 613.333 163.428 612.237C162.926 611.795 162.984 610.377 163.288 610.103C163.604 609.817 163.508 609.817 163.848 610.067C164.01 610.187 164.128 610.279 164.128 610.279L168.502 606.779ZM188.272 540.786C187.101 543.159 185.951 545.519 184.772 547.855C184.868 547.802 185.124 547.694 185.437 547.573C185.607 547.509 185.742 547.511 185.892 547.47C186.248 548.054 186.074 548.597 184.493 550.582C184.05 551.14 183.548 551.356 182.988 551.388C181.917 553.486 180.846 555.627 179.769 557.687C183.458 559.045 187.177 558.203 189.846 554.853C191.655 552.582 192.524 551.162 192.925 549.323C193.504 546.675 192.607 544.202 190.371 542.01C189.743 541.395 189.032 541.027 188.272 540.786ZM453.117 599.815C449.322 599.966 445.104 601.492 440.346 604.679C435.179 608.14 432.292 610.56 429.918 613.987C426.652 618.707 425.63 624.232 427.26 630.712C428.834 636.982 431.838 642.007 437.267 644.603C438.863 645.367 440.596 645.821 442.446 646.038C444.114 643.714 445.792 641.382 447.45 638.97C444.607 639.438 442.136 639.352 440.24 638.446C437.058 636.922 435.001 633.524 433.874 629.032C431.826 620.889 434.833 616.595 444.16 610.348C451.228 605.614 455.405 605.784 459.207 608.668C459.681 609.027 459.981 609.291 460.781 609.997C461.726 610.834 462.682 612.879 462.915 614.932C464.345 612.528 465.734 609.923 467.148 607.443C466.554 606.525 466.013 605.489 465.295 604.854C464.367 604.035 463.99 603.706 463.336 603.21C460.281 600.894 456.912 599.666 453.117 599.815ZM145.023 612.098C139.505 618.356 133.975 623.247 128.507 626.338C130.649 626.496 132.979 626.343 135.61 625.605C142.479 623.675 145.594 619.022 145.023 612.098ZM449.164 613.252C448.053 613.742 446.505 614.561 444.929 615.77C440.858 618.899 438.779 622.896 440.8 627.458C442.879 632.149 446.693 633.841 451.437 633.161C453.521 630.015 455.573 626.624 457.63 623.329C451.747 627.09 448.214 627.289 447.063 624.694C446.652 623.764 447.227 622.629 449.094 621.195C449.716 620.716 450.404 620.31 451.089 619.935C451.49 619.714 451.793 619.539 451.927 619.481L449.164 613.252ZM331.91 636.172C330.425 638.119 329.002 639.746 327.536 641.594C328.043 642.606 328.459 643.783 328.55 645.024C328.745 647.703 327.661 650.07 324.912 652.022C320.504 655.149 317.423 656.31 315.322 656.151C313.568 658.117 311.83 659.991 310.11 661.82C314.592 664.659 321.374 662.936 328.865 657.619C333.604 654.257 335.705 649.556 335.337 644.533C335.102 641.315 333.677 638.364 331.91 636.172ZM347.376 677.286C344.237 677.305 341.175 678.776 338.313 681.624C331.497 688.408 330.97 695.705 336.947 700.449C341.711 704.23 347.13 704.196 350.699 699.714C352.507 697.445 353.377 696.025 353.778 694.186C354.357 691.538 353.461 689.064 351.223 686.873C349.863 685.539 348.123 685.166 346.289 685.404C345.465 685.51 344.681 685.762 343.876 686.068C343.641 686.159 343.516 686.226 343.316 686.313C346.371 683.361 348.685 683.337 352.483 686.697C354.497 688.478 355.148 691.463 354.477 695.585C354.054 698.195 353.134 701.047 351.853 703.984C351.204 705.474 350.485 706.9 349.788 708.183C349.548 708.628 348.95 709.666 348.914 709.721C345.686 713.735 342.473 718.022 339.293 722.843C334.739 729.746 326.777 734.439 316.269 737.155C312.236 738.196 308.129 738.835 304.056 739.253C312.107 735.16 318.375 729.851 322.463 723.052C328.014 713.814 326.683 700.165 319.696 690.581C314.755 683.801 307.834 680.004 299.857 679.874C296.29 679.816 292.457 680.744 288.557 682.22C280.765 688.692 273.613 693.799 267.177 697.719C265.345 700.483 264.05 703.285 263.853 706.188C263.444 712.192 266.34 717.304 271.024 721.759C275.867 726.364 281.195 728.195 286.91 727.672C291.063 727.292 294.582 725.956 300.138 723.158C303.476 721.478 306.113 719.613 308.115 717.561C312.808 712.742 313.606 707.938 312.419 702.093C312.373 701.872 312.349 701.821 312.244 701.324C311.588 698.238 309.1 694.746 305.841 692.576C301.65 689.786 296.543 689.3 291.284 691.771C280.123 697.017 275.158 704.35 280.508 711.54C282.481 714.194 285.367 715.23 288.557 714.867C290.402 714.655 292.258 713.98 294.084 713.045C295.363 712.391 296.384 711.74 297.023 711.262L292.928 705.804C292.863 705.852 292.695 705.953 292.44 706.118C291.993 706.407 291.496 706.688 290.969 706.957C289.813 707.548 288.696 707.938 287.785 708.041C286.855 708.149 286.394 708.01 286.002 707.481C284.134 704.972 286.365 701.643 294.19 697.964C297.242 696.529 299.826 696.755 302.061 698.245C303.866 699.444 305.286 701.458 305.56 702.759C305.661 703.232 305.661 703.263 305.702 703.458C306.483 707.301 306.065 709.877 303.217 712.802C301.775 714.28 299.751 715.715 297.057 717.07C287.03 722.12 281.832 722.61 275.749 716.825C272.394 713.634 270.435 710.199 270.676 706.678C271.029 701.494 276.078 695.779 287.682 689.848C298.862 684.128 308.225 686.452 314.169 694.607C319.612 702.074 320.677 712.766 316.618 719.519C308.413 733.17 289.102 740.537 260.563 742.507C252.341 743.077 244.744 746.922 237.644 752.902C238.731 749.049 239.267 745.711 238.344 743.312C237.936 742.255 237.445 741.361 236.944 740.479L230.506 751.395C230.792 751.094 231.106 750.823 231.345 750.486C230.966 751.923 230.569 753.416 229.841 755.281C229.253 756.783 228.567 758.398 227.811 760.039C226.837 762.152 225.814 764.219 224.767 766.197C224.708 766.307 224.641 766.461 224.557 766.617C227.418 766.721 230.203 766.781 233.41 766.757C241.935 756.425 251.254 750.006 261.017 749.33C266.78 748.934 272.101 748.244 277.184 747.408V747.441C277.215 747.441 277.302 747.444 277.429 747.441C278.568 747.417 280.061 747.429 281.767 747.547C284.276 747.718 286.735 748.059 289.011 748.597C294.796 749.967 298.278 752.325 298.982 755.629C299.037 755.887 299.011 756.055 299.052 756.295C301.251 755.605 303.431 755.005 305.666 754.231C305.663 754.219 305.668 754.207 305.666 754.195C304.962 750.926 303.19 748.333 300.592 746.321C301.914 746.24 303.169 746.216 304.512 746.076C305.077 746.086 306.721 746.117 308.36 746.182C311.412 746.302 314.433 746.54 317.247 746.881C319.139 747.112 320.571 747.432 322.006 747.756C324.964 746.482 327.93 745.245 330.93 743.803C329.281 742.875 327.329 742.094 324.912 741.493C333.59 738.222 340.548 733.418 345.03 726.621C360.786 702.742 376.696 689.543 392.618 689.113C396.091 689.019 399.691 690.331 403.01 692.367C404.695 690.716 406.368 689.05 408.05 687.327C403.282 684.049 397.795 682.143 392.409 682.29C381.635 682.58 371.296 687.63 361.231 696.601C362.218 690.422 361.05 685.176 356.998 681.59C353.72 678.689 350.514 677.267 347.376 677.286ZM342.581 687.118L345.626 692.715C345.72 692.665 345.977 692.554 346.289 692.436C346.46 692.371 346.594 692.374 346.746 692.331C347.102 692.917 346.928 693.46 345.345 695.445C344.355 696.69 343.251 696.709 341.216 695.094C338.942 693.292 339.098 690.848 342.581 687.118ZM394.089 696.81C390.294 696.959 386.074 698.488 381.315 701.675C376.148 705.135 373.262 707.553 370.89 710.98C368.609 714.273 367.487 717.981 367.53 722.108C370.265 720.178 373.009 718.147 375.752 716.056C377.398 713.16 380.433 710.488 385.129 707.342C386.631 706.337 387.927 705.652 389.189 705.068C392.111 702.542 395.055 700.098 397.973 697.37C396.709 697.08 395.456 696.755 394.089 696.81ZM185.682 718.609C185.117 718.625 184.566 718.813 184.003 718.854L185.682 725.468C185.741 725.465 185.798 725.434 185.857 725.432C186.72 725.41 187.604 725.727 188.482 725.852C187.837 722.781 187.395 720.774 186.977 718.714C186.546 718.7 186.112 718.599 185.682 718.609ZM187.607 733.165L189.391 740.234C190.18 740.388 190.942 740.669 191.666 741.039C190.902 737.475 190.885 737.249 190.091 733.516C189.265 733.394 188.477 733.146 187.607 733.165ZM290.34 750.417C289.34 750.429 288.203 750.573 286.771 750.801C281.383 751.662 278.813 755.988 279.388 761.578C281.63 761.087 283.913 760.511 286.211 759.934C286.273 758.581 286.682 757.742 287.855 757.554C289.496 757.293 290.345 757.16 290.83 757.273C291.094 757.336 291.133 757.687 291.251 757.905C291.234 757.92 291.231 757.922 291.215 757.939C290.881 758.254 290.549 758.53 290.376 758.638L290.515 758.85C293.039 758.163 295.596 757.372 298.177 756.574C297.36 753.596 295.67 751.592 293.104 750.801C292.205 750.522 291.34 750.405 290.34 750.417ZM194.535 754.546C194.185 754.872 194.057 755.252 193.625 755.56C193.505 755.646 193.429 755.687 193.31 755.769L195.025 762.558C195.843 762.058 196.602 761.782 197.439 761.193C197.203 761.14 195.865 760.914 195.865 760.914C195.865 760.914 194.833 755.93 194.535 754.546ZM201.568 761.962C200.823 762.654 199.993 763.337 199.119 763.993C201.062 764.409 202.785 764.721 207.797 765.358C208.477 764.63 209.172 763.911 209.756 763.152C205.98 762.71 203.851 762.368 201.568 761.962Z" fill="#FFB533"/>
<path d="M350.209 377.729C326.678 377.678 298.881 386.366 266.335 404.636C266.069 404.788 265.461 405.093 265.461 405.093C264.908 405.377 264.61 405.545 264.168 405.792C263.797 405.999 263.444 406.225 263.117 406.492C242.413 423.389 224.782 445.666 211.156 475.143C187.14 527.095 175.709 550.213 161.504 573.119C143.493 602.161 127.888 616.785 115.666 616.122C112.004 615.922 108.764 618.463 108.108 622.07C107.077 627.735 112.645 630.289 113.111 630.537C114.374 631.208 115.839 631.893 117.45 632.532C121.988 634.337 127.045 635.56 132.496 635.928C147.965 636.971 163.385 630.897 177.284 615.807C188.919 603.175 200.531 584.756 212.8 560.905C221.422 544.147 241.804 499.486 242.787 497.573C257.7 468.538 273.204 445.873 285.442 438.963C285.555 438.901 291.292 435.608 293.56 434.344C297.634 432.073 301.571 429.984 305.666 428.047C321.463 420.57 336.541 416.297 350.348 416.429C358.71 416.509 366.319 418.256 373.163 421.818C373.387 421.931 373.526 421.988 373.687 422.063C373.745 422.094 373.798 422.13 373.863 422.169C389.604 430.722 401.393 449.249 408.12 479.901C407.923 480.697 407.711 481.531 407.42 482.562C406.404 486.16 405.031 490.351 403.255 495.054C398.134 508.611 390.808 523.56 380.861 539.422C380.712 539.662 380.563 539.903 380.44 540.158C347.854 608.736 313.443 653.921 279.073 680.716C267.184 689.983 256.181 696.311 245.972 700.519C242.525 701.94 239.492 702.978 236.349 703.913C235.583 704.141 233.495 704.745 233.34 704.788C232.398 705.067 231.997 705.357 231.45 705.593C231.026 705.747 230.608 705.857 230.226 706.083C230.161 706.124 230.083 706.146 230.016 706.189L230.051 706.259C227.566 707.842 226.045 710.779 226.761 713.92L231.625 735.197L218.994 756.575C214.8 756.281 210.571 756.007 206.852 755.491C205.013 755.234 203.522 754.957 201.988 754.686C200.645 748.408 195.115 722.498 194.045 717.386L200.414 717.561H200.623H200.903C210.432 717.811 211.047 703.596 201.533 703.005H201.253L200.204 702.935C199.957 698.289 195.244 694.074 189.881 696.602C189.051 696.991 180.648 700.964 178.439 701.954C175.215 703.399 173.481 706.96 174.345 710.388L188.132 765.044C188.783 767.623 190.804 769.625 193.38 770.293C193.936 770.435 194.916 770.677 196.284 770.956C198.494 771.406 201.049 771.836 203.947 772.252C225.057 775.27 250.178 775.063 277.744 769.418C316.49 761.48 354.437 743.76 389.924 714.166C446.782 666.753 493.522 591.978 526.878 485.537C526.873 485.552 527.25 484.67 527.368 484.311C527.738 483.184 527.812 481.983 527.613 480.812C527.048 477.512 526.481 475.212 525.654 473.393C522.112 465.616 517.613 457.428 512.112 449.67C504.315 438.677 495.533 430.006 485.658 424.651C476.362 419.611 466.419 422.116 456.407 429.585C455.967 429.912 455.537 430.287 455.182 430.705C448.354 438.744 445.061 442.84 441.43 447.327L439.262 439.348C439.209 439.155 439.154 438.941 439.086 438.754C433.818 424.166 425.969 411.464 414.698 401.243C400.83 388.666 382.565 380.697 359.517 378.219C356.511 377.895 353.396 377.736 350.209 377.729ZM350.209 392.286C352.894 392.29 355.482 392.437 357.977 392.706C378.013 394.86 393.354 401.548 404.899 412.019C414.226 420.479 420.824 431.167 425.335 443.616C425.347 443.652 425.356 443.686 425.371 443.722L430.408 462.371L430.444 462.547C430.552 463.107 430.932 464.818 430.968 465.032C432.268 472.617 442.348 472.91 444.826 466.57C444.794 466.635 444.809 466.616 444.859 466.536C445.083 466.181 445.484 465.614 446.015 464.893C447.128 463.374 448.76 461.254 450.877 458.627C454.559 454.061 459.707 447.935 465.715 440.852C471.337 436.817 475.619 435.771 478.732 437.459C492.558 444.955 504.207 461.36 512.426 479.413C512.508 479.589 512.71 480.764 512.883 481.548C480.328 585.256 435.131 657.543 380.616 703.005C347.025 731.018 311.287 747.675 274.838 755.14C260.43 758.091 246.849 759.331 234.18 759.48L245.621 740.095C246.568 738.492 246.876 736.591 246.462 734.776L242.437 717.211C245.383 716.283 248.282 715.334 251.536 713.992C262.949 709.284 275.055 702.281 287.997 692.192C324.227 663.946 360.007 616.982 393.493 546.56C393.524 546.497 393.567 546.449 393.599 546.385C403.834 529.958 411.491 514.425 416.868 500.197C418.793 495.1 420.288 490.51 421.415 486.515C422.109 484.054 422.544 482.302 422.746 481.302C422.941 480.334 422.951 479.329 422.746 478.363C415.281 443.008 401.035 420.409 380.931 409.431C380.931 409.431 380.892 409.397 380.827 409.361C380.746 409.313 380.65 409.275 380.546 409.222C380.275 409.075 380.068 408.986 379.811 408.871C379.736 408.833 379.734 408.833 379.741 408.835C370.844 404.221 361.022 401.973 350.49 401.873C334.109 401.716 317.048 406.557 299.439 414.889C295.024 416.977 290.796 419.186 286.456 421.609C284.067 422.94 278.316 426.288 278.304 426.298C262.591 435.166 246.147 459.175 229.841 490.925C228.651 493.242 208.268 537.903 199.854 554.258C188.133 577.041 177.13 594.482 166.577 605.939C158.072 615.173 149.414 619.76 140.754 621.02C151.494 612.728 162.371 599.335 173.855 580.817C188.493 557.214 200.098 533.765 224.382 481.233C236.976 453.989 253.136 433.604 272.005 418.109C272.55 417.821 273.158 417.48 273.473 417.304C303.995 400.169 329.461 392.24 350.209 392.286Z" fill="black"/>
<path d="M447.729 22.7812C447.729 22.7812 428.733 25.6489 420.997 32.4037C403.296 47.854 393.981 82.098 398.042 111.903C402.657 145.771 404.942 176.566 405.075 208.758C405.255 252.085 401.321 294.987 393.003 338.049C390.686 350.052 387.809 362.373 384.642 374.928L308.92 335.319C306.435 334.019 303.669 333.452 300.871 333.709C250.404 338.383 210.766 356.718 181.133 387.421C173.341 395.494 166.524 404.182 160.139 414.083C157.962 417.46 155.922 420.87 153.491 425.107C153.327 425.391 149.171 432.642 148.872 433.154C139.219 449.693 119.627 494.244 107.898 527.035C99.4652 550.609 93.9203 570.494 91.5218 586.238C87.9228 609.868 91.0798 625.461 103.594 633.476C105.024 634.394 106.552 635.165 108.142 635.891C108.291 636.002 108.819 636.396 108.947 636.487C109.132 636.617 109.106 636.643 109.682 636.975C111.238 637.802 112.96 638.571 114.756 639.285C120.173 641.438 125.982 642.798 132.006 643.204C150.395 644.445 167.785 636.867 182.638 620.741C194.418 607.95 206.275 589.497 219.273 564.231C222.264 558.418 226.757 549.107 232.5 536.903C232.728 536.42 249.183 501.05 249.26 500.896C264.446 471.333 279.037 450.926 289.011 445.295C288.907 445.353 296.336 441.135 297.093 440.712C301.458 438.278 305.147 436.343 308.781 434.625C314.984 431.688 320.893 429.498 326.625 427.729C327.464 428.506 328.32 429.256 329.11 430.075C333.595 434.726 337.041 439.845 339.433 445.192C339.92 446.283 340.24 447.225 340.586 448.201C339.702 451.272 338.632 454.733 337.368 458.627C333.417 470.804 328.557 483.874 322.881 497.433C305.238 539.585 282.767 579.418 255.804 615.456C234.802 643.529 211.186 668.709 185.122 690.793C182.591 691.982 176.255 694.953 175.465 695.306C169.017 698.195 165.549 705.318 167.277 712.17L181.063 766.827C182.366 771.991 186.41 775.993 191.561 777.325C192.499 777.567 193.541 777.834 194.815 778.094C197.16 778.572 199.877 779.021 202.933 779.459C226.501 782.828 252.456 782.035 279.212 776.555C320.434 768.11 359.214 749.254 394.577 719.765C441.901 680.302 481.19 623.005 511.936 548.03C512.196 550.463 512.398 553.532 512.671 555.868C514.558 571.931 516.851 585.33 519.706 596.772C531.542 644.231 567.088 706.527 596.475 730.296C612.506 743.262 629.192 746.1 643.607 738.206C644.451 737.744 644.965 737.391 645.917 736.665C645.917 736.665 646.325 736.369 646.407 736.314L646.373 736.281C648.495 735.043 650.495 733.476 652.495 731.452L652.461 731.416C653.973 730.258 655.405 729.078 656.623 727.602C670.125 711.259 667.16 673.515 651.375 636.872C647.794 628.554 644.753 614.819 642.103 595.828C651.927 600.445 660.387 602.788 667.751 602.545C685.25 601.968 697.317 593.706 700.292 579.555C701.373 574.414 701.09 569.12 699.698 563.775C699.28 562.174 698.795 560.71 698.264 559.437C697.949 558.682 697.581 557.958 697.144 557.266C697.108 557.209 695.74 554.957 695.288 554.188C693.464 551.083 691.736 547.987 690.006 544.776C684.231 534.048 678.78 522.613 673.841 510.728C668.061 496.828 663.283 482.994 659.563 469.37C655.963 456.175 654.881 450.239 651.447 424.475C648.971 405.919 646.953 397.082 642.699 387.56C636.899 374.587 627.668 364.267 613.972 355.37C602.599 347.985 588.136 344.519 570.721 344.627C565.251 344.661 559.481 345.026 553.437 345.747C551.149 346.021 548.005 346.685 545.494 347.112C557.818 237.811 544.302 129.913 510.888 76.1423C495.432 51.2734 480.364 35.1214 465.295 27.6101C459.45 24.697 453.552 23.0597 447.729 22.7812ZM447.029 37.3375C447.029 37.3375 454.691 38.5863 458.787 40.6265C470.986 46.7083 484.341 61.0538 498.501 83.8404C530.829 135.86 543.898 245.468 529.992 355.055C529.365 360.009 533.78 364.113 538.671 363.102C545.765 361.636 550.589 360.782 555.186 360.232C560.704 359.574 565.886 359.213 570.791 359.184C585.567 359.093 597.326 361.871 606.062 367.545C617.488 374.967 624.794 383.198 629.401 393.509C632.96 401.471 634.724 409.08 637.029 426.367C640.543 452.719 641.687 459.261 645.498 473.22C649.382 487.457 654.393 501.87 660.404 516.328C665.53 528.662 671.195 540.551 677.198 551.703C679.02 555.087 680.849 558.281 682.762 561.535C683.305 562.46 684.675 564.794 684.827 565.034C685.105 565.704 685.394 566.497 685.632 567.413C686.485 570.687 686.607 573.744 686.016 576.546C684.555 583.494 678.556 587.616 667.261 587.988C660.325 588.216 650.233 584.477 636.784 576.546C631.61 573.496 625.15 577.68 625.832 583.65C629.031 611.61 632.874 630.688 638.01 642.608C651.843 674.724 654.432 707.465 645.426 718.364C644.823 719.094 644.121 719.717 643.153 720.394C642.795 720.644 642.446 720.923 642.139 721.233C640.879 722.507 639.827 723.346 638.885 723.858C638.685 723.966 638.478 724.081 638.289 724.209C637.885 724.48 637.63 724.677 637.099 725.083C637.099 725.083 636.601 725.473 636.609 725.468C627.822 730.282 617.394 728.465 605.642 718.96C578.934 697.356 544.963 637.862 533.842 593.273C531.153 582.496 528.978 569.682 527.159 554.188C526.142 545.536 525.238 536.374 524.323 525.004C524.248 524.069 523.647 516.071 523.623 515.768C523.025 507.943 512.179 506.494 509.523 513.879C478.16 601.122 436.428 665.906 385.271 708.568C351.74 736.528 315.12 754.322 276.273 762.277C251.154 767.425 226.87 768.175 204.962 765.043C202.173 764.644 199.795 764.234 197.754 763.818C196.74 763.611 195.903 763.44 195.2 763.258L181.413 708.601C182.387 708.166 190.426 704.393 192.261 703.528C192.832 703.259 193.353 702.922 193.835 702.514C221.02 679.576 245.65 653.399 267.491 624.204C295.187 587.183 318.223 546.259 336.318 503.03C342.146 489.108 347.147 475.671 351.223 463.106C352.567 458.97 353.708 455.238 354.653 451.945C354.871 451.186 355.045 450.621 355.249 449.881C355.597 448.6 355.576 447.237 355.213 445.961C355.184 445.843 355.153 445.726 355.107 445.577C354.513 443.589 353.723 441.462 352.728 439.241C349.649 432.358 345.263 425.865 339.608 419.998C338.322 418.667 336.976 417.39 335.582 416.148C335.469 415.944 335.308 415.677 335.164 415.448C333.467 412.766 330.218 411.493 327.152 412.3C319.259 414.377 311.049 417.446 302.551 421.466C298.593 423.341 294.651 425.393 290.025 427.975C289.217 428.426 281.726 432.712 281.873 432.63C268.573 440.14 252.778 462.198 236.314 494.249C236.076 494.713 224.822 518.993 220.008 529.239C219.779 529.729 209.215 551.967 206.327 557.581C193.875 581.787 182.668 599.214 171.931 610.872C159.962 623.867 146.8 629.58 132.986 628.648C128.484 628.345 124.168 627.379 120.144 625.778C118.926 625.295 117.813 624.74 116.785 624.204C116.738 624.168 116.661 624.11 116.645 624.1C116.275 623.829 115.932 623.586 115.561 623.365C115.29 623.204 115.01 623.069 114.721 622.944C113.484 622.413 112.413 621.858 111.432 621.231C105.158 617.21 103.116 606.936 105.938 588.409C108.174 573.727 113.47 554.702 121.614 531.933C133.065 499.921 152.33 456.161 161.469 440.503C161.805 439.926 165.934 432.651 166.087 432.385C168.402 428.352 170.358 425.139 172.386 421.993C178.273 412.863 184.517 404.869 191.631 397.498C218.788 369.36 255.133 352.556 302.203 348.196L385.271 391.656C385.495 391.773 385.699 391.877 385.935 391.97C386.124 392.045 386.713 392.309 386.74 392.319C390.804 393.977 395.413 391.663 396.538 387.421C400.777 371.432 404.354 355.925 407.278 340.777C415.779 296.779 419.814 252.952 419.632 208.688C419.495 175.837 417.156 144.424 412.458 109.943C409.004 84.5922 417.014 55.2358 430.583 43.3908C435.542 39.0638 441.062 37.052 447.029 37.3375Z" fill="black"/>
</svg>
