<svg width="800" height="800" viewBox="0 0 800 800" fill="none" xmlns="http://www.w3.org/2000/svg">
<path d="M519.069 314.758C517.839 321.418 516.246 328.08 514.272 334.724C483.61 437.934 375.093 496.767 271.883 466.104C245.618 458.301 228.433 472.531 244.766 497.419C246.429 499.954 249.048 501.72 251.273 503.793C271.408 522.563 296.066 537.087 324.264 545.464C422.059 574.517 524.885 518.794 553.939 420.999C564.877 384.18 563.784 346.654 552.957 312.619C550.467 304.794 551.239 298.991 546.291 297.177C544.222 296.419 527.907 246.84 527.907 246.84C527.907 246.84 503.875 258.875 502.88 259.202C500.92 259.846 523.02 304.533 521.331 306.009C517.985 308.934 520.169 308.799 519.069 314.758Z" fill="#F2D959"/>
<path d="M248.621 491.22C252.907 493.972 269.046 493.416 277.198 495.454C282.099 496.679 283.919 503.89 289.37 504.98C296.952 506.496 305.097 505.585 312.656 507.097C323.194 509.204 332.348 514.789 343.351 516.623C356.845 518.872 370.221 516.899 383.571 515.564C401.874 513.734 419.033 509.345 436.493 504.98C448.698 501.928 456.506 489.152 467.188 483.811C475.128 479.841 482.568 473.723 488.886 467.405C492.571 463.72 496.311 459.975 499.47 455.763C503.249 450.723 503.467 443.553 507.408 438.298C518.297 423.78 528.967 401.865 535.986 384.318C540.505 373.021 544.64 361.361 549.217 349.919C549.807 348.442 555.586 338.902 556.626 344.098C558.226 352.102 560.997 360.152 561.918 368.442C562.329 372.146 560.514 375.987 559.801 379.555C558.455 386.283 559.028 393.477 557.684 400.195C555.941 408.91 556.756 418.066 555.038 426.656C553.156 436.063 546.92 444.834 543.395 453.646C541.158 459.237 539.744 465.57 535.986 470.581C528.879 480.057 518.975 487.592 510.584 495.983C492.217 514.349 471.328 533.978 445.49 540.437C442.144 541.274 437.898 544.463 434.905 546.259C429.593 549.446 422.699 550.923 416.912 552.08C408.097 553.843 398.941 551.55 389.922 552.08C385.047 552.367 376.518 554.692 371.399 553.668C363.465 552.081 355.105 551.573 347.055 549.963C344.697 549.492 342.528 547.376 340.175 546.788C331.913 544.722 323.034 545.149 314.773 543.084C306.631 541.048 298.829 534.053 291.487 530.382C281.194 525.235 265.11 519.352 257.088 511.33C255.685 509.928 256.057 506.594 254.442 504.98C252.405 502.942 250.344 500.398 248.621 498.1C248.426 497.84 242.956 490.442 244.916 490.162C246.187 489.98 247.54 490.526 248.621 491.22Z" fill="#F2BC59"/>
<path d="M527.636 236.851C526.219 236.887 524.782 237.23 523.418 237.914C523.37 237.937 504.773 247.194 502.668 248.226C501.491 248.803 499.3 249.839 499.136 249.914C499.309 249.834 499.313 249.842 499.761 249.695C495.411 251.124 493.4 254.461 492.886 257.914C492.699 259.174 492.724 260.241 492.886 261.32C493.038 262.329 493.302 263.276 493.668 264.414C494.166 265.96 494.912 267.959 495.949 270.476C497.475 274.182 498.906 277.417 502.949 286.539C502.978 286.605 508.229 298.544 509.668 302.07C510.056 303.021 510.2 303.463 510.48 304.195C510.345 304.515 510.127 304.755 510.011 305.101C509.59 306.365 509.394 307.582 509.355 308.82C509.343 309.203 509.343 309.56 509.355 309.945C509.359 310.069 509.38 310.496 509.386 310.632C509.427 311.524 509.413 311.952 509.23 312.945C508.056 319.306 506.557 325.626 504.699 331.882C475.608 429.804 372.64 485.594 274.73 456.507C238.991 445.89 215.12 470.461 236.418 502.914C238.102 505.481 239.591 506.946 242.793 509.664C242.814 509.681 244.068 510.746 244.449 511.101C266.176 531.354 292.329 546.398 321.418 555.039C424.507 585.665 532.886 526.94 563.511 423.851C574.758 385.993 574.203 346.45 562.48 309.601C562.164 308.606 561.882 307.564 561.605 306.351C561.492 305.855 560.943 303.148 560.886 302.882C560.184 299.6 559.573 297.577 558.386 295.351C557.238 293.199 555.67 291.422 553.761 290.007C553.334 289.031 552.866 287.957 552.23 286.32C550.76 282.531 548.854 277.283 546.636 270.945C546.381 270.215 541.979 257.406 540.011 251.539C539.322 249.484 537.448 243.82 537.418 243.726C535.987 239.378 531.888 236.743 527.636 236.851ZM522.074 260.914C523.722 265.803 525.388 270.709 526.98 275.289C527.247 276.055 527.501 276.827 527.761 277.57C530.047 284.101 532.008 289.5 533.574 293.539C534.494 295.911 535.286 297.818 535.949 299.257C536.376 300.184 536.784 300.964 537.199 301.664C537.539 302.236 537.882 302.778 538.324 303.32C539.042 304.2 539.925 304.897 540.949 305.539C541.048 305.885 541.106 306.052 541.324 307.07C541.372 307.295 541.963 310.16 542.105 310.789C542.498 312.511 542.915 314.084 543.418 315.664C553.935 348.723 554.451 384.179 544.355 418.164C516.874 510.664 419.606 563.363 327.105 535.882C300.997 528.126 277.584 514.634 258.105 496.476C257.422 495.84 256.869 495.384 255.761 494.445C255.74 494.427 253.416 492.373 253.136 491.945C247.707 483.672 247.397 478.648 249.511 476.476C252.179 473.734 259.434 472.84 269.043 475.695C377.541 507.928 491.618 446.079 523.855 337.57C525.916 330.634 527.615 323.627 528.918 316.57C529.26 314.715 529.208 313.294 529.23 311.789C530.506 310.074 531.264 308.267 531.386 306.382C531.451 305.382 531.409 304.523 531.261 303.632C531.102 302.668 530.835 301.708 530.48 300.601C529.974 299.018 529.223 297.016 528.199 294.507C526.656 290.73 524.936 286.791 521.293 278.57C521.266 278.51 516.964 268.776 515.074 264.32C517.01 263.368 516.343 263.769 519.824 262.039C519.836 262.032 521.409 261.245 522.074 260.914Z" fill="#A06228"/>
<path opacity="0.999814" d="M547.886 314.477C535.55 377.184 515.202 423.855 488.011 456.008C464.545 483.758 436.383 500.257 404.386 507.102C365.735 515.371 324.044 509.276 283.261 494.008C273.457 490.338 264.472 486.403 256.543 482.477C253.778 481.109 251.339 479.861 249.261 478.727C248.541 478.334 246.909 477.402 246.824 477.352L240.73 487.665C241.241 487.966 242.194 488.523 243.543 489.258C245.757 490.466 248.322 491.787 251.23 493.227C259.509 497.326 268.84 501.438 279.043 505.258C321.783 521.259 365.647 527.645 406.886 518.821C441.443 511.428 471.989 493.567 497.199 463.758C525.819 429.915 546.962 381.407 559.668 316.821L547.886 314.477Z" fill="#A06228"/>
</svg>
