<svg width="800" height="800" viewBox="0 0 800 800" fill="none" xmlns="http://www.w3.org/2000/svg">
<path d="M760.114 6.34277H39.8905C21.3498 6.34277 6.3208 21.3721 6.3208 39.9112V760.107C6.3208 778.641 21.3498 793.671 39.8905 793.671H760.114C778.648 793.671 793.679 778.641 793.679 760.107V39.9112C793.679 21.3721 778.648 6.34277 760.114 6.34277Z" fill="#879EB9" stroke="black" stroke-width="0.0118355" stroke-miterlimit="10" stroke-linecap="round" stroke-linejoin="round"/>
<g filter="url(#filter0_f_698_8044)">
<path d="M631.091 589.239C629.481 589.418 627.94 590.205 626.848 591.571C626.132 592.465 622.978 596.199 623.232 595.893C617.223 603.113 614.378 608.182 614.378 614.675C614.378 618.172 617.195 621.015 620.691 621.015C624.188 621.015 627.03 618.172 627.031 614.675C627.031 612.129 628.767 609.016 632.951 603.987C633.227 603.656 636.185 600.153 636.724 599.482C638.908 596.751 638.459 592.76 635.729 590.575C634.363 589.483 632.702 589.06 631.091 589.239Z" fill="#AFB7CB"/>
</g>
<g filter="url(#filter1_f_698_8044)">
<path d="M676.465 575.827C674.845 575.827 673.247 576.425 672.011 577.661C670.655 579.018 669.493 580.101 666.824 582.507C666.816 582.515 662.702 586.237 661.14 587.799C658.667 590.271 658.667 594.286 661.14 596.758C663.612 599.23 667.626 599.23 670.099 596.758C671.456 595.402 672.618 594.343 675.286 591.938C675.294 591.93 679.383 588.182 680.944 586.62C683.417 584.148 683.417 580.133 680.944 577.661C679.708 576.425 678.085 575.827 676.465 575.827Z" fill="#AFB7CB"/>
</g>
<g filter="url(#filter2_f_698_8044)">
<path d="M160.569 715.872C158.954 715.998 157.385 716.744 156.247 718.069C152.613 722.31 150.179 725.487 148.074 729C146.275 731.992 147.249 735.865 150.248 737.667C153.246 739.461 157.146 738.514 158.945 735.521C160.608 732.747 162.652 730.039 165.861 726.3C168.137 723.643 167.835 719.67 165.18 717.39C163.853 716.25 162.185 715.747 160.569 715.872Z" fill="#AFB7CB"/>
</g>
<g filter="url(#filter3_f_698_8044)">
<path d="M257.943 285.052C256.332 285.232 254.792 286.019 253.699 287.384C249.575 292.539 249.571 292.524 245.447 297.679C243.263 300.409 243.712 304.402 246.443 306.586C249.173 308.769 253.165 308.32 255.35 305.59C259.474 300.435 259.452 300.45 263.575 295.295C265.76 292.565 265.337 288.572 262.606 286.388C261.241 285.296 259.553 284.874 257.943 285.052Z" fill="#7B93C3"/>
</g>
<g filter="url(#filter4_f_698_8044)">
<path d="M240.967 340.746C238.525 340.4 236.004 341.509 234.654 343.758C232.723 346.976 230.815 349.846 228.839 352.481C226.741 355.279 227.299 359.264 230.096 361.362C232.893 363.459 236.853 362.875 238.95 360.078C241.205 357.073 243.356 353.827 245.5 350.255C247.298 347.257 246.35 343.382 243.351 341.584C242.602 341.134 241.782 340.86 240.967 340.746Z" fill="#7B93C3"/>
</g>
<g filter="url(#filter5_f_698_8044)">
<path d="M730.848 111.793C729.231 111.793 727.604 112.417 726.372 113.653C719.196 120.826 713.496 127.872 708.927 135.5C707.125 138.499 708.097 142.372 711.098 144.171C714.099 145.97 717.972 145.021 719.766 142.023C723.773 135.355 728.845 129.097 735.333 122.612C737.798 120.14 737.806 116.125 735.333 113.653C734.093 112.417 732.466 111.793 730.848 111.793Z" fill="#7B93C3"/>
</g>
<g filter="url(#filter6_f_698_8044)">
<path d="M453.503 413.884C451.883 413.884 450.259 414.481 449.024 415.717C446.446 418.295 441.279 423.461 438.702 426.039C436.229 428.511 436.229 432.525 438.702 434.997C441.175 437.47 445.189 437.47 447.661 434.997C450.238 432.42 455.405 427.254 457.982 424.676C460.455 422.204 460.455 418.189 457.982 415.717C456.747 414.481 455.123 413.884 453.503 413.884Z" fill="#7B93C3"/>
</g>
<g filter="url(#filter7_f_698_8044)">
<path d="M673.4 367.019C671.762 366.891 670.492 367.325 669.366 368.014C668.85 368.33 668.412 368.676 668.004 369.062C667.243 369.782 666.644 370.534 665.62 371.917C665.556 372.004 664.435 373.535 664.31 373.673C664.085 373.921 663.679 374.268 662.765 374.983C662.694 375.038 662.706 375.031 662.633 375.088C660.919 376.427 660.106 377.109 659.149 378.231C657.474 380.194 656.477 382.484 656.478 385.147C656.478 386.196 656.616 387.218 657.106 388.291C657.991 390.227 659.774 391.706 662.057 392.089C663.683 392.36 665.05 392.045 666.275 391.434C666.891 391.126 667.415 390.753 667.925 390.333C668.959 389.482 669.889 388.446 671.253 386.745C671.364 386.606 672.648 384.987 672.876 384.701C673.253 384.23 673.5 383.91 673.663 383.732C673.762 383.622 673.91 383.477 674.108 383.287C674.193 383.204 674.575 382.859 674.763 382.684C675.98 381.545 676.671 380.826 677.408 379.803C678.677 378.042 679.425 376.056 679.426 373.804C679.426 372.819 679.277 371.866 678.797 370.818C677.852 368.754 675.892 367.214 673.4 367.019Z" fill="#7B93C3"/>
</g>
<g filter="url(#filter8_f_698_8044)">
<path d="M542.573 95.3155C540.11 95.1587 537.667 96.4539 536.495 98.7993C536.237 99.3149 535.731 100.353 535.473 100.869C533.909 103.996 535.175 107.792 538.302 109.356C541.429 110.92 545.227 109.654 546.79 106.527C547.048 106.012 547.58 104.973 547.838 104.458C549.402 101.33 548.137 97.5336 545.009 95.9702C544.227 95.5796 543.394 95.3675 542.573 95.3155Z" fill="#7B93C3"/>
</g>
<g filter="url(#filter9_f_698_8044)">
<path d="M532.409 130.365C530.793 130.489 529.223 131.238 528.085 132.565C527.923 132.756 526.799 134.07 526.697 134.19C523.665 137.755 522.035 139.419 520.096 140.713C517.187 142.652 516.401 146.579 518.34 149.488C520.28 152.397 524.207 153.183 527.116 151.243C530.334 149.099 532.571 146.818 536.338 142.389C536.443 142.264 537.548 140.995 537.7 140.817C539.975 138.163 539.674 134.16 537.019 131.885C535.691 130.746 534.023 130.241 532.409 130.365Z" fill="#7B93C3"/>
</g>
<g filter="url(#filter10_f_698_8044)">
<path d="M725.483 708.85C723.89 709.167 722.415 710.093 721.442 711.548C720.931 712.321 719.891 713.868 719.372 714.639C717.435 717.548 718.223 721.479 721.132 723.416C724.041 725.352 727.989 724.572 729.934 721.664C730.446 720.884 731.46 719.342 731.98 718.57C733.916 715.662 733.128 711.733 730.219 709.793C728.769 708.823 727.067 708.532 725.483 708.85Z" fill="#7B93C3"/>
</g>
<g filter="url(#filter11_f_698_8044)">
<path d="M367.054 29.7994C366.471 29.7248 365.898 29.7508 365.35 29.8263C364.791 29.9026 364.33 30.0199 363.883 30.1926C363.424 30.3703 363.048 30.5681 362.679 30.7953C357.271 34.1232 354.624 36.0907 351.965 39.2828C351.662 39.6449 351.399 39.9903 351.152 40.4094C350.918 40.8051 350.717 41.2385 350.549 41.7448C350.202 42.796 350.068 43.9385 350.393 45.2814C350.892 47.3503 352.375 48.9908 354.296 49.7352C355.427 50.1736 356.419 50.244 357.387 50.1275C358.17 50.0344 358.746 49.8374 359.352 49.5776C360.184 49.2205 361.043 48.6932 362.234 47.901C363.813 46.8507 366.024 45.2856 367.341 44.2596C368.23 43.5689 369.392 42.3827 370.328 41.2997C370.952 40.5771 371.388 40.0062 371.769 39.3088C372.077 38.7454 372.32 38.157 372.476 37.3707C372.99 34.7871 372.147 31.8046 368.861 30.3234C368.243 30.0451 367.636 29.8749 367.054 29.7994ZM360.793 39.2828C361.212 39.6743 361.514 40.1219 361.815 40.619C361.379 40.2124 361.066 39.7564 360.793 39.2828Z" fill="#AFB7CB"/>
</g>
<g filter="url(#filter12_f_698_8044)">
<path d="M91.1743 241.959C89.5589 241.835 87.8907 242.315 86.5636 243.452C86.3457 243.639 86.0724 243.882 85.6465 244.213C85.6398 244.218 84.6288 244.985 84.3103 245.234C82.3461 246.771 81.0334 247.977 79.936 249.504C77.8604 252.388 77.2099 255.84 78.9141 259.249C80.4776 262.376 84.2734 263.641 87.4019 262.078C89.6452 260.956 90.8624 258.691 90.8339 256.341C91.1508 256.03 91.3914 255.783 92.1174 255.215C92.3865 255.005 93.3572 254.253 93.4008 254.219C93.9801 253.772 94.4034 253.419 94.8158 253.067C97.4699 250.791 97.7725 246.815 95.4966 244.16C94.359 242.833 92.7897 242.084 91.1743 241.959Z" fill="#AFB7CB"/>
</g>
<g filter="url(#filter13_f_698_8044)">
<path d="M67.9903 97.202C65.5399 96.9086 63.0561 98.0679 61.755 100.346C61.0492 101.58 60.438 102.58 59.0305 104.851C55.9791 109.777 54.6739 112.068 53.2932 115.225C52.3627 117.351 52.5765 119.476 53.4768 121.275C53.7149 121.752 53.9689 122.163 54.2631 122.56C54.4174 122.768 54.5264 122.884 54.7343 123.136C54.6412 123.002 54.5549 122.855 54.4459 122.638C56.0102 125.765 59.806 127.031 62.9337 125.467C65.6791 124.095 66.8561 121.011 66.0773 118.159C66.9676 116.373 67.7321 114.865 69.7977 111.531C71.2831 109.132 71.927 108.04 72.7317 106.633C74.4662 103.596 73.4091 99.7227 70.3736 97.9875C69.6149 97.5541 68.8068 97.2993 67.9903 97.202Z" fill="#AFB7CB"/>
</g>
<g filter="url(#filter14_f_698_8044)">
<path d="M406.846 553.981C405.978 553.95 405.529 554.244 404.62 554.819C403.176 555.956 403.164 555.952 402.917 556.312C402.715 556.578 402.729 556.583 402.629 556.731C402.544 556.857 402.468 556.974 402.393 557.098C401.99 557.77 401.719 558.272 401.162 559.351C401.158 559.357 400.641 560.299 400.297 560.896C400.107 561.214 400.048 561.295 399.878 561.577C399.38 562.31 398.919 562.952 397.808 564.38C397.803 564.387 395.43 567.44 394.56 568.807C394.391 569.073 394.266 569.345 394.115 569.672C393.936 570.066 393.921 570.059 393.696 570.798C393.424 571.853 393.434 571.853 393.826 574.361C394.521 575.994 394.507 576.005 396.053 577.478C397.823 578.49 397.831 578.49 399.328 578.71C401.448 578.595 401.458 578.596 402.314 578.238C402.907 577.99 403.296 577.726 403.702 577.426C404.164 577.084 404.533 576.733 405.013 576.247C405.776 575.473 406.586 574.572 407.083 573.864C408.1 572.409 409.156 570.626 410.357 568.65C410.445 568.525 410.549 568.414 410.618 568.31C410.744 568.121 410.874 567.859 410.986 567.681C411.183 567.351 411.236 567.291 411.457 566.921C411.506 566.839 412.073 565.913 412.269 565.586C412.547 565.123 412.92 564.39 413.265 563.7C413.448 563.333 413.6 563.04 413.71 562.782C413.788 562.601 413.778 562.613 413.946 562.128C414.081 561.749 414.083 561.747 414.234 560.242C414.325 558.678 414.327 558.663 411.562 555.054C408.997 554.358 407.715 554.011 406.846 553.981Z" fill="#AFB7CB"/>
</g>
<g filter="url(#filter15_f_698_8044)">
<path d="M328.728 581.773C326.291 581.384 323.751 582.457 322.362 584.681C322.31 584.763 321.639 585.827 321.471 586.095C318.809 590.352 317.26 592.505 315.341 594.426C312.869 596.898 312.868 600.912 315.341 603.384C317.813 605.857 321.828 605.857 324.301 603.384C327.092 600.593 329.067 597.83 332.212 592.801C332.384 592.526 333.052 591.466 333.103 591.387C334.955 588.422 334.05 584.516 331.085 582.664C330.344 582.2 329.54 581.903 328.728 581.773Z" fill="#AFB7CB"/>
</g>
<g filter="url(#filter16_f_698_8044)">
<path d="M114.123 525.663C111.686 525.273 109.147 526.347 107.757 528.57C107.706 528.652 107.06 529.69 106.893 529.959C104.23 534.215 102.656 536.395 100.736 538.315C98.2641 540.787 98.2633 544.802 100.736 547.274C103.208 549.746 107.223 549.746 109.696 547.274C112.488 544.482 114.463 541.719 117.607 536.691C117.78 536.415 118.448 535.356 118.498 535.276C120.351 532.311 119.445 528.406 116.48 526.553C115.739 526.089 114.935 525.792 114.123 525.663Z" fill="#AFB7CB"/>
</g>
<path d="M767.004 736.274C766.266 738.446 765.319 740.516 764.095 742.41C760.18 748.454 753.968 752.855 746.7 754.431L769.644 792.128C773.861 790.821 777.768 788.792 781.121 786.076C782.034 785.33 783.015 784.659 783.845 783.821C784.533 783.142 785.086 782.337 785.706 781.6C787.844 779.06 789.713 776.285 791.021 773.183C791.315 772.513 791.432 771.758 791.675 771.063L767.004 736.274Z" fill="#4D5F93"/>
<path d="M734.965 6.35547C753.5 6.35547 768.522 21.3731 768.522 39.9122V727.373C768.522 730.5 767.96 733.467 767.005 736.275L791.676 771.064C792.162 769.689 792.69 768.331 792.992 766.872C793.436 764.693 793.671 762.429 793.671 760.116V721.84V39.9122C793.671 21.3731 778.649 6.35547 760.114 6.35547H734.965Z" fill="#5A7BA3"/>
<path d="M6.32275 721.841V760.116C6.32275 778.659 21.3409 793.672 39.8808 793.672H743.214H760.114C763.459 793.672 766.619 793.06 769.645 792.13L746.701 754.433C744.798 754.843 742.828 755.087 740.808 755.087L39.8808 755.405C21.3409 755.405 6.32275 740.383 6.32275 721.841Z" fill="#425D8C"/>
<path d="M39.8972 0C17.8608 0 0 17.887 0 39.9225V760.098C0 782.136 17.8608 800 39.8972 800H760.105C782.136 800 800 782.136 800 760.098V39.9225C800 17.887 782.136 0 760.105 0H39.8972ZM39.8972 12.6788H760.105C775.144 12.6788 787.35 24.8798 787.35 39.9225V760.098C787.35 775.145 775.144 787.342 760.105 787.342H39.8972C24.8539 787.342 12.6525 775.145 12.6525 760.098V39.9225C12.6525 24.8798 24.8539 12.6788 39.8972 12.6788Z" fill="black"/>
<defs>
<filter id="filter0_f_698_8044" x="614.377" y="589.198" width="23.7335" height="31.8175" filterUnits="userSpaceOnUse" color-interpolation-filters="sRGB">
<feFlood flood-opacity="0" result="BackgroundImageFix"/>
<feBlend mode="normal" in="SourceGraphic" in2="BackgroundImageFix" result="shape"/>
<feGaussianBlur stdDeviation="0.000508988" result="effect1_foregroundBlur_698_8044"/>
</filter>
<filter id="filter1_f_698_8044" x="659.284" y="575.826" width="23.5157" height="22.7872" filterUnits="userSpaceOnUse" color-interpolation-filters="sRGB">
<feFlood flood-opacity="0" result="BackgroundImageFix"/>
<feBlend mode="normal" in="SourceGraphic" in2="BackgroundImageFix" result="shape"/>
<feGaussianBlur stdDeviation="0.000508988" result="effect1_foregroundBlur_698_8044"/>
</filter>
<filter id="filter2_f_698_8044" x="147.17" y="715.852" width="20.2188" height="22.7227" filterUnits="userSpaceOnUse" color-interpolation-filters="sRGB">
<feFlood flood-opacity="0" result="BackgroundImageFix"/>
<feBlend mode="normal" in="SourceGraphic" in2="BackgroundImageFix" result="shape"/>
<feGaussianBlur stdDeviation="0.000508988" result="effect1_foregroundBlur_698_8044"/>
</filter>
<filter id="filter3_f_698_8044" x="244.061" y="285.012" width="20.9107" height="22.9591" filterUnits="userSpaceOnUse" color-interpolation-filters="sRGB">
<feFlood flood-opacity="0" result="BackgroundImageFix"/>
<feBlend mode="normal" in="SourceGraphic" in2="BackgroundImageFix" result="shape"/>
<feGaussianBlur stdDeviation="0.000508988" result="effect1_foregroundBlur_698_8044"/>
</filter>
<filter id="filter4_f_698_8044" x="227.568" y="340.683" width="18.8424" height="21.9405" filterUnits="userSpaceOnUse" color-interpolation-filters="sRGB">
<feFlood flood-opacity="0" result="BackgroundImageFix"/>
<feBlend mode="normal" in="SourceGraphic" in2="BackgroundImageFix" result="shape"/>
<feGaussianBlur stdDeviation="0.000508988" result="effect1_foregroundBlur_698_8044"/>
</filter>
<filter id="filter5_f_698_8044" x="708.02" y="111.792" width="29.1651" height="33.2891" filterUnits="userSpaceOnUse" color-interpolation-filters="sRGB">
<feFlood flood-opacity="0" result="BackgroundImageFix"/>
<feBlend mode="normal" in="SourceGraphic" in2="BackgroundImageFix" result="shape"/>
<feGaussianBlur stdDeviation="0.000508988" result="effect1_foregroundBlur_698_8044"/>
</filter>
<filter id="filter6_f_698_8044" x="436.846" y="413.883" width="22.9923" height="22.9698" filterUnits="userSpaceOnUse" color-interpolation-filters="sRGB">
<feFlood flood-opacity="0" result="BackgroundImageFix"/>
<feBlend mode="normal" in="SourceGraphic" in2="BackgroundImageFix" result="shape"/>
<feGaussianBlur stdDeviation="0.000508988" result="effect1_foregroundBlur_698_8044"/>
</filter>
<filter id="filter7_f_698_8044" x="656.477" y="366.996" width="22.9503" height="25.1915" filterUnits="userSpaceOnUse" color-interpolation-filters="sRGB">
<feFlood flood-opacity="0" result="BackgroundImageFix"/>
<feBlend mode="normal" in="SourceGraphic" in2="BackgroundImageFix" result="shape"/>
<feGaussianBlur stdDeviation="0.000508988" result="effect1_foregroundBlur_698_8044"/>
</filter>
<filter id="filter8_f_698_8044" x="534.802" y="95.3017" width="13.7071" height="14.7257" filterUnits="userSpaceOnUse" color-interpolation-filters="sRGB">
<feFlood flood-opacity="0" result="BackgroundImageFix"/>
<feBlend mode="normal" in="SourceGraphic" in2="BackgroundImageFix" result="shape"/>
<feGaussianBlur stdDeviation="0.000508988" result="effect1_foregroundBlur_698_8044"/>
</filter>
<filter id="filter9_f_698_8044" x="517.275" y="130.346" width="21.9522" height="21.963" filterUnits="userSpaceOnUse" color-interpolation-filters="sRGB">
<feFlood flood-opacity="0" result="BackgroundImageFix"/>
<feBlend mode="normal" in="SourceGraphic" in2="BackgroundImageFix" result="shape"/>
<feGaussianBlur stdDeviation="0.000508988" result="effect1_foregroundBlur_698_8044"/>
</filter>
<filter id="filter10_f_698_8044" x="718.31" y="708.726" width="14.7325" height="15.755" filterUnits="userSpaceOnUse" color-interpolation-filters="sRGB">
<feFlood flood-opacity="0" result="BackgroundImageFix"/>
<feBlend mode="normal" in="SourceGraphic" in2="BackgroundImageFix" result="shape"/>
<feGaussianBlur stdDeviation="0.000508988" result="effect1_foregroundBlur_698_8044"/>
</filter>
<filter id="filter11_f_698_8044" x="350.207" y="29.7539" width="22.4098" height="20.4249" filterUnits="userSpaceOnUse" color-interpolation-filters="sRGB">
<feFlood flood-opacity="0" result="BackgroundImageFix"/>
<feBlend mode="normal" in="SourceGraphic" in2="BackgroundImageFix" result="shape"/>
<feGaussianBlur stdDeviation="0.000508988" result="effect1_foregroundBlur_698_8044"/>
</filter>
<filter id="filter12_f_698_8044" x="77.9384" y="241.939" width="19.086" height="20.8097" filterUnits="userSpaceOnUse" color-interpolation-filters="sRGB">
<feFlood flood-opacity="0" result="BackgroundImageFix"/>
<feBlend mode="normal" in="SourceGraphic" in2="BackgroundImageFix" result="shape"/>
<feGaussianBlur stdDeviation="0.000508988" result="effect1_foregroundBlur_698_8044"/>
</filter>
<filter id="filter13_f_698_8044" x="52.6894" y="97.1562" width="20.878" height="28.9825" filterUnits="userSpaceOnUse" color-interpolation-filters="sRGB">
<feFlood flood-opacity="0" result="BackgroundImageFix"/>
<feBlend mode="normal" in="SourceGraphic" in2="BackgroundImageFix" result="shape"/>
<feGaussianBlur stdDeviation="0.000508988" result="effect1_foregroundBlur_698_8044"/>
</filter>
<filter id="filter14_f_698_8044" x="393.508" y="553.977" width="20.7525" height="24.7335" filterUnits="userSpaceOnUse" color-interpolation-filters="sRGB">
<feFlood flood-opacity="0" result="BackgroundImageFix"/>
<feBlend mode="normal" in="SourceGraphic" in2="BackgroundImageFix" result="shape"/>
<feGaussianBlur stdDeviation="0.000508988" result="effect1_foregroundBlur_698_8044"/>
</filter>
<filter id="filter15_f_698_8044" x="313.485" y="581.693" width="20.5802" height="23.547" filterUnits="userSpaceOnUse" color-interpolation-filters="sRGB">
<feFlood flood-opacity="0" result="BackgroundImageFix"/>
<feBlend mode="normal" in="SourceGraphic" in2="BackgroundImageFix" result="shape"/>
<feGaussianBlur stdDeviation="0.000508988" result="effect1_foregroundBlur_698_8044"/>
</filter>
<filter id="filter16_f_698_8044" x="98.8808" y="525.583" width="20.5797" height="23.546" filterUnits="userSpaceOnUse" color-interpolation-filters="sRGB">
<feFlood flood-opacity="0" result="BackgroundImageFix"/>
<feBlend mode="normal" in="SourceGraphic" in2="BackgroundImageFix" result="shape"/>
<feGaussianBlur stdDeviation="0.000508988" result="effect1_foregroundBlur_698_8044"/>
</filter>
</defs>
</svg>
