<svg width="800" height="800" viewBox="0 0 800 800" fill="none" xmlns="http://www.w3.org/2000/svg">
<path d="M129.026 441.548C167.92 321.845 296.488 256.336 416.191 295.23C535.894 334.124 601.402 462.692 562.509 582.395C523.615 702.098 395.047 767.607 275.344 728.713C155.641 689.819 90.1322 561.251 129.026 441.548Z" fill="#F3886D"/>
<path d="M396.516 422.365C356.147 409.248 303.851 408.858 268.982 433.677C269.539 398.349 247.231 365.299 211.874 353.811C202.149 350.651 192.263 349.392 182.617 349.827C182.617 349.827 122.934 409.315 120.116 479.21C119.079 504.928 157.481 511.471 163.023 504.355C168.565 497.24 153.616 505.76 156.797 506.393C150.241 514.621 147.002 526.321 143.564 536.901C128.053 584.639 166.011 640.815 214.198 656.472C262.385 672.129 314.019 646.139 329.53 598.401C331.919 591.047 333.19 583.602 333.66 576.219C388.475 580.173 441.021 554.56 448.183 525.857C458.381 484.989 451.565 440.251 396.516 422.365Z" fill="#F9B192"/>
<path d="M419.336 285.527C294.282 244.894 159.963 313.355 119.331 438.409C78.6978 563.463 147.132 697.774 272.186 738.406C397.24 779.038 531.551 710.604 572.183 585.55C612.816 460.496 544.39 326.159 419.336 285.527ZM413.04 304.904C527.392 342.059 589.961 464.902 552.806 579.254C515.651 693.606 392.834 756.184 278.483 719.029C164.131 681.873 101.553 559.057 138.708 444.705C175.863 330.354 298.688 267.749 413.04 304.904Z" fill="black"/>
<path d="M362.496 482.68C358.25 480.842 354.262 482.47 350.949 485.705C348.702 487.899 346.707 490.992 345.205 494.461C343.702 497.93 342.817 501.502 342.754 504.643C342.662 509.272 344.186 513.289 348.432 515.128C352.677 516.966 356.639 515.329 359.951 512.094C362.198 509.9 364.221 506.816 365.723 503.347C367.225 499.878 368.084 496.297 368.146 493.157C368.239 488.528 366.741 484.519 362.496 482.68Z" fill="black"/>
<path d="M198.64 415.888C194.395 414.05 190.433 415.687 187.121 418.921C184.874 421.115 182.851 424.199 181.349 427.669C179.847 431.138 178.988 434.719 178.926 437.859C178.833 442.488 180.358 446.506 184.603 448.344C188.849 450.182 192.819 448.519 196.132 445.284C198.378 443.09 200.392 440.033 201.894 436.563C203.397 433.094 204.255 429.513 204.318 426.373C204.41 421.744 202.886 417.726 198.64 415.888Z" fill="black"/>
<path d="M211.522 560.744C210.678 560.522 209.769 560.454 208.851 560.587C205.177 561.115 202.622 564.53 203.151 568.203C203.72 572.166 204.723 576.149 206.096 579.901C207.358 583.349 209.018 586.798 211.642 589.426C213.037 590.823 214.713 591.959 216.579 592.628C219.575 593.704 222.992 593.585 226.106 593.268C232.721 592.595 239.298 590.781 245.578 588.617C249.282 587.331 251.246 583.298 249.959 579.595C248.673 575.892 244.641 573.928 240.938 575.214C238.198 576.19 235.387 577.008 232.574 577.734C231.015 578.136 229.443 578.518 227.865 578.837C226.124 579.19 224.367 579.46 222.594 579.58C222.153 579.61 221.7 579.61 221.259 579.591C221.229 579.589 221.202 579.6 221.17 579.591C221.115 579.536 221.061 579.473 221.017 579.423C220.745 579.116 220.52 578.803 220.298 578.45C219.831 577.711 219.48 576.895 219.141 576.091C218.876 575.464 218.637 574.872 218.415 574.228C218.078 573.255 217.78 572.265 217.511 571.271C217.07 569.637 216.715 567.962 216.468 566.287C216.071 563.531 214.055 561.41 211.522 560.744Z" fill="black"/>
<path d="M213.954 347.451C203.632 344.097 192.954 342.672 182.328 343.152C180.665 343.227 179.091 343.915 177.911 345.09C177.564 345.436 176.943 346.071 176.083 346.982C174.677 348.472 173.086 350.208 171.344 352.188C166.39 357.821 161.187 364.263 155.951 371.421C136.018 398.677 121.3 428.311 115.705 458.861C114.472 465.592 113.714 472.273 113.445 478.929C112.849 493.711 122.299 504.722 136.68 510.328C139.474 511.417 142.335 512.21 145.171 512.791C143.529 516.286 142.009 520.228 140.439 524.894C139.836 526.687 139.377 528.106 138.369 531.264C137.791 533.078 137.529 533.85 137.213 534.824C129.159 559.61 134.014 587.462 149.316 612.228C163.969 635.943 186.947 654.637 212.148 662.825C263.835 679.619 319.229 651.73 335.884 600.471C337.696 594.893 338.783 589.077 339.534 583.133C393.469 584.873 446.63 559.71 454.671 527.483C460.56 503.883 460.415 481.747 453.034 463.037C444.409 441.177 426.333 425.008 398.577 415.99C356.053 402.173 308.867 403.61 275.028 422.125C271.08 388.007 247.718 358.422 213.954 347.451ZM209.823 360.164C241.763 370.542 262.83 400.521 262.309 433.586C262.223 439.066 268.388 442.291 272.852 439.113C303.044 417.623 351.291 414.71 394.438 428.73C418.51 436.551 433.499 449.91 440.612 467.937C446.853 483.756 446.964 503.14 441.698 524.245C438.77 535.978 425.682 548.245 406.021 557.185C385.089 566.704 359.285 571.362 334.154 569.549C330.45 569.282 327.211 572.091 326.975 575.798C326.516 583.007 325.282 589.841 323.171 596.34C308.806 640.55 260.971 664.633 216.278 650.112C194.171 642.929 173.711 626.297 160.681 605.209C147.325 583.593 143.174 559.733 149.926 538.954C150.252 537.951 152.535 530.863 153.109 529.159C155.521 521.987 157.748 516.935 160.346 512.987C163.706 512.181 166.523 510.742 168.294 508.468C169.443 506.992 170.234 505.679 170.656 504.205C171.678 500.633 170.155 496.628 166.076 495.26C163.177 494.288 160.902 494.937 157.809 496.48C155.964 497.4 154.09 498.64 152.753 499.838C152.613 499.963 152.522 500.098 152.391 500.223C148.971 500.03 145.151 499.29 141.524 497.876C131.957 494.147 126.456 487.739 126.79 479.477C127.032 473.461 127.737 467.396 128.858 461.271C134.037 432.996 147.881 405.099 166.726 379.331C171.715 372.511 176.679 366.355 181.378 361.012C182.898 359.283 184.241 357.826 185.473 356.513C193.659 356.42 201.859 357.576 209.823 360.164Z" fill="black" fill-opacity="0.5"/>
<path d="M327.11 570.661C331.554 559.035 350.072 556.049 368.472 563.992C386.871 571.934 398.185 587.798 393.741 599.423C389.297 611.049 370.779 614.035 352.38 606.092C333.98 598.15 322.667 582.287 327.11 570.661Z" fill="#FF497F" stroke="black" stroke-width="0.0185569" stroke-miterlimit="10" stroke-linecap="round" stroke-linejoin="round"/>
<path d="M97.7422 486.028C101.299 475.083 120.008 471.353 139.53 477.696C159.053 484.04 171.996 498.054 168.44 508.999C164.884 519.943 146.175 523.673 126.652 517.33C107.13 510.987 94.1861 496.972 97.7422 486.028Z" fill="#FF497F" stroke="black" stroke-width="0.0188804" stroke-miterlimit="10" stroke-linecap="round" stroke-linejoin="round"/>
<path d="M363.054 555.002C344.265 549.722 326.22 554.268 320.864 568.28C314.858 583.993 328.451 603.034 349.729 612.22C371.166 621.473 393.865 617.812 399.986 601.799C405.992 586.086 392.399 567.045 371.12 557.86C368.441 556.703 365.738 555.756 363.054 555.002ZM360.145 568.053C362.012 568.61 363.909 569.308 365.829 570.136C381.35 576.836 390.39 589.496 387.508 597.035C384.741 604.273 370.383 606.574 355.02 599.943C339.5 593.243 330.46 580.583 333.342 573.044C335.763 566.711 347.071 564.152 360.145 568.053Z" fill="black"/>
<path d="M141.632 471.221C119.012 463.872 96.3302 468.397 91.2866 483.92C86.2428 499.443 101.933 516.437 124.553 523.787C147.173 531.136 169.855 526.61 174.899 511.088C179.942 495.564 164.253 478.571 141.632 471.221ZM137.423 484.175C153.849 489.512 164.04 500.521 161.971 506.887C159.903 513.253 145.179 516.196 128.753 510.859C112.328 505.522 102.145 494.487 104.214 488.121C106.283 481.755 120.998 478.838 137.423 484.175Z" fill="black"/>
<path d="M128.747 442.233C167.641 322.53 296.209 257.022 415.912 295.915C535.615 334.809 601.123 463.377 562.229 583.08C523.336 702.783 394.767 768.292 275.065 729.398C155.362 690.504 89.8528 561.936 128.747 442.233Z" fill="#F3886D"/>
<path d="M396.238 423.05C355.869 409.934 303.573 409.544 268.704 434.363C269.261 399.035 246.953 365.986 211.595 354.497C201.871 351.338 191.985 350.078 182.339 350.513C182.339 350.513 122.656 410.001 119.837 479.895C118.8 505.614 157.202 512.158 162.745 505.042C168.287 497.926 153.338 506.446 156.518 507.079C149.963 515.307 146.723 527.006 143.286 537.586C127.775 585.325 165.733 641.501 213.92 657.158C262.107 672.815 313.74 646.824 329.252 599.086C331.641 591.732 332.911 584.288 333.382 576.904C388.197 580.858 440.743 555.246 447.905 526.544C458.103 485.675 451.287 440.937 396.238 423.05Z" fill="#F9B192"/>
<path d="M419.057 286.213C294.003 245.58 159.684 314.041 119.051 439.096C78.4188 564.15 146.853 698.46 271.907 739.092C396.961 779.725 531.271 711.29 571.904 586.236C612.536 461.182 544.111 326.845 419.057 286.213ZM412.761 305.59C527.112 342.745 589.681 465.588 552.526 579.94C515.371 694.292 392.555 756.87 278.203 719.715C163.851 682.56 101.274 559.743 138.429 445.392C175.584 331.04 298.409 268.435 412.761 305.59Z" fill="black"/>
<path d="M362.218 483.366C357.973 481.528 353.985 483.156 350.672 486.391C348.425 488.585 346.429 491.678 344.927 495.147C343.425 498.616 342.54 502.189 342.477 505.329C342.385 509.958 343.909 513.975 348.154 515.814C352.4 517.652 356.362 516.015 359.674 512.781C361.921 510.586 363.943 507.502 365.446 504.033C366.948 500.564 367.806 496.983 367.869 493.843C367.962 489.214 366.464 485.205 362.218 483.366Z" fill="black"/>
<path d="M198.361 416.574C194.116 414.736 190.154 416.373 186.842 419.607C184.595 421.802 182.572 424.886 181.07 428.355C179.568 431.824 178.709 435.405 178.647 438.545C178.554 443.174 180.079 447.192 184.324 449.03C188.569 450.868 192.54 449.205 195.852 445.97C198.099 443.776 200.113 440.719 201.615 437.25C203.117 433.78 203.976 430.199 204.039 427.059C204.131 422.43 202.607 418.412 198.361 416.574Z" fill="black"/>
<path d="M240.371 598.49C241.237 598.602 242.146 598.553 243.04 598.305C246.617 597.311 248.714 593.599 247.721 590.023C246.65 586.165 245.147 582.343 243.306 578.797C241.614 575.538 239.527 572.329 236.589 570.058C235.028 568.85 233.22 567.938 231.284 567.513C228.175 566.828 224.801 567.383 221.753 568.095C215.278 569.607 208.987 572.246 203.034 575.194C199.526 576.943 198.092 581.193 199.841 584.702C201.59 588.21 205.84 589.643 209.348 587.895C211.941 586.577 214.624 585.407 217.322 584.328C218.817 583.73 220.327 583.15 221.851 582.632C223.533 582.06 225.241 581.568 226.985 581.222C227.418 581.136 227.867 581.078 228.307 581.041C228.337 581.039 228.363 581.025 228.396 581.029C228.457 581.077 228.518 581.132 228.568 581.176C228.877 581.446 229.14 581.728 229.406 582.05C229.963 582.723 230.416 583.487 230.855 584.241C231.198 584.829 231.51 585.387 231.813 585.997C232.271 586.919 232.693 587.862 233.087 588.814C233.732 590.378 234.299 591.994 234.758 593.624C235.503 596.306 237.774 598.153 240.371 598.49Z" fill="black"/>
<path d="M213.674 348.137C203.352 344.783 192.673 343.358 182.048 343.838C180.385 343.913 178.81 344.601 177.631 345.776C177.284 346.122 176.662 346.758 175.803 347.668C174.397 349.158 172.806 350.894 171.064 352.875C166.109 358.507 160.907 364.949 155.671 372.107C135.737 399.363 121.019 428.997 115.424 459.547C114.192 466.279 113.433 472.959 113.165 479.615C112.569 494.397 122.019 505.409 136.399 511.014C139.194 512.103 142.055 512.896 144.89 513.477C143.248 516.972 141.728 520.914 140.159 525.58C139.556 527.373 139.097 528.793 138.089 531.95C137.51 533.764 137.249 534.536 136.932 535.51C128.879 560.296 133.733 588.148 149.036 612.914C163.689 636.629 186.667 655.323 211.867 663.511C263.555 680.305 318.948 652.416 335.604 601.157C337.416 595.58 338.503 589.763 339.254 583.82C393.189 585.56 446.349 560.397 454.391 528.17C460.28 504.569 460.135 482.433 452.754 463.723C444.129 441.863 426.053 425.695 398.297 416.676C355.773 402.859 308.587 404.296 274.748 422.811C270.8 388.693 247.438 359.108 213.674 348.137ZM209.543 360.85C241.483 371.228 262.55 401.207 262.029 434.272C261.942 439.752 268.107 442.977 272.572 439.799C302.763 418.309 351.01 415.397 394.157 429.416C418.23 437.237 433.219 450.596 440.332 468.623C446.573 484.443 446.684 503.826 441.418 524.931C438.49 536.664 425.402 548.931 405.741 557.871C384.808 567.39 359.005 572.049 333.874 570.235C330.17 569.968 326.931 572.778 326.695 576.484C326.236 583.693 325.002 590.527 322.89 597.026C308.526 641.236 260.691 665.32 215.998 650.798C193.891 643.615 173.43 626.983 160.401 605.895C147.044 584.279 142.894 560.419 149.646 539.641C149.972 538.637 152.255 531.55 152.828 529.845C155.241 522.674 157.468 517.622 160.065 513.673C163.425 512.867 166.243 511.428 168.014 509.154C169.163 507.679 169.954 506.365 170.376 504.891C171.398 501.319 169.875 497.314 165.796 495.946C162.897 494.974 160.622 495.624 157.528 497.166C155.683 498.086 153.81 499.326 152.472 500.524C152.332 500.649 152.241 500.784 152.11 500.909C148.691 500.716 144.871 499.976 141.244 498.562C131.677 494.833 126.176 488.425 126.509 480.163C126.752 474.147 127.457 468.082 128.578 461.957C133.757 433.682 147.601 405.785 166.446 380.017C171.434 373.197 176.398 367.041 181.098 361.698C182.618 359.97 183.961 358.512 185.193 357.199C193.379 357.106 201.579 358.262 209.543 360.85Z" fill="black" fill-opacity="0.5"/>
<path d="M326.831 571.347C331.275 559.721 349.793 556.736 368.193 564.678C386.592 572.621 397.905 588.484 393.462 600.109C389.018 611.735 370.5 614.721 352.1 606.778C333.701 598.836 322.387 582.973 326.831 571.347Z" fill="#FF497F" stroke="black" stroke-width="0.0185569" stroke-miterlimit="10" stroke-linecap="round" stroke-linejoin="round"/>
<path d="M97.4629 486.713C101.019 475.768 119.728 472.038 139.251 478.381C158.774 484.725 171.717 498.739 168.161 509.684C164.605 520.629 145.896 524.359 126.373 518.015C106.851 511.672 93.9067 497.657 97.4629 486.713Z" fill="#FF497F" stroke="black" stroke-width="0.0188804" stroke-miterlimit="10" stroke-linecap="round" stroke-linejoin="round"/>
<path d="M362.774 555.688C343.986 550.408 325.941 554.954 320.585 568.966C314.579 584.679 328.171 603.72 349.45 612.906C370.887 622.159 393.586 618.499 399.706 602.486C405.712 586.773 392.12 567.731 370.841 558.546C368.162 557.389 365.459 556.442 362.774 555.688ZM359.865 568.739C361.733 569.296 363.63 569.994 365.55 570.823C381.07 577.522 390.11 590.183 387.229 597.721C384.462 604.959 370.104 607.26 354.741 600.629C339.221 593.929 330.181 581.269 333.063 573.73C335.483 567.397 346.791 564.838 359.865 568.739Z" fill="black"/>
<path d="M141.353 471.908C118.733 464.558 96.0508 469.084 91.0072 484.607C85.9635 500.13 101.654 517.123 124.274 524.473C146.894 531.822 169.575 527.297 174.619 511.774C179.663 496.251 163.974 479.258 141.353 471.908ZM137.144 484.862C153.57 490.198 163.76 501.207 161.692 507.573C159.624 513.94 144.9 516.883 128.474 511.546C112.049 506.209 101.866 495.173 103.935 488.807C106.003 482.441 120.719 479.525 137.144 484.862Z" fill="black"/>
<path d="M526.021 573.214C526.021 573.214 575.892 555.509 606.934 570.575C637.975 585.64 621.414 668.752 578.615 692.282C535.815 715.811 500.299 706.163 479.076 683.967" fill="#F3886D"/>
<path d="M526.021 573.214C526.021 573.214 575.892 555.509 606.934 570.575C637.975 585.64 621.414 668.752 578.615 692.282C535.815 715.811 500.299 706.163 479.076 683.967" stroke="black" stroke-width="0.0192069" stroke-miterlimit="10" stroke-linejoin="round"/>
<path d="M623.019 612.832C556.093 615.137 510.193 652.866 482.125 686.921C503.612 706.957 537.784 714.743 578.618 692.294C603.645 678.535 619.937 643.007 623.019 612.832Z" fill="#F9B192"/>
<path d="M591.765 611.708C590.898 611.393 589.955 611.226 588.976 611.275C570.673 612.245 553.577 620.013 538.111 629.398C531.55 633.379 525.076 637.652 519.094 642.482C516.206 644.813 515.731 649.053 518.062 651.941C520.393 654.83 524.642 655.277 527.53 652.946C534.142 647.631 541.415 643.035 548.827 638.946C561.376 632.023 575.22 626.151 589.697 625.447C593.613 625.248 596.63 621.933 596.431 618.018C596.282 615.082 594.364 612.655 591.765 611.708Z" fill="black"/>
<path d="M559.351 623.131C557.04 621.897 554.125 622.086 551.96 623.837C549.075 626.171 548.621 630.419 550.956 633.304C550.928 633.27 551.019 633.358 551.045 633.393C551.104 633.471 551.149 633.542 551.207 633.623C551.338 633.804 551.46 634.005 551.585 634.19C551.9 634.656 552.2 635.122 552.486 635.607C553.32 637.023 554.059 638.513 554.62 640.058C556.415 645 556.686 650.266 555.029 655.282C553.828 659.014 555.877 663.025 559.609 664.227C563.341 665.428 567.353 663.379 568.554 659.647C569.504 656.635 570.122 653.559 570.228 650.396C570.455 643.609 568.472 636.884 565.31 630.926C564.184 628.803 562.914 626.707 561.401 624.833C560.818 624.112 560.121 623.542 559.351 623.131Z" fill="black"/>
<path d="M603.456 553.96C594.235 551.243 583.823 550.519 572.502 551.418L574.105 571.439C585.933 570.499 595.949 571.763 603.494 575.425C612.729 579.907 616.495 599.495 611.116 624.003C605.311 650.456 590.871 674.076 573.772 683.476C538.496 702.87 507.046 698.685 486.33 677.021L471.814 690.916C498.94 719.285 540.354 724.795 583.464 701.095C631.483 674.696 652.889 577.071 612.266 557.355C609.462 555.994 606.53 554.865 603.456 553.96Z" fill="black"/>
<path d="M601.589 561.076C598.663 560.17 595.606 559.441 592.415 558.894C579.692 556.711 565.392 557.344 550.338 559.988C543.662 561.16 537.28 562.641 531.388 564.305C529.318 564.89 527.445 565.46 525.812 565.985C524.812 566.307 524.118 566.553 523.717 566.695C520.116 567.974 518.234 571.937 519.512 575.538C520.791 579.138 524.727 581.012 528.328 579.733C528.382 579.714 529.54 579.333 530.05 579.169C531.528 578.693 533.233 578.164 535.138 577.626C540.602 576.083 546.561 574.698 552.746 573.612C566.365 571.22 579.151 570.671 590.08 572.546C595.238 573.431 599.86 574.837 603.906 576.801C607.344 578.47 611.478 577.027 613.146 573.59C614.815 570.152 613.399 566.027 609.961 564.358C607.319 563.076 604.515 561.981 601.589 561.076Z" fill="black"/>
<path d="M271.216 316.132C271.216 316.132 245.507 264.282 323.268 241.883C401.029 219.483 598.78 344.835 598.78 344.835L596.129 375.999C596.129 375.999 591.125 415.932 568.803 430.894C546.481 445.856 367.435 421.415 271.216 316.132Z" fill="#DFFFEA"/>
<path d="M268.903 312.283C268.903 312.283 243.194 260.433 320.955 238.034C398.716 215.634 596.467 340.986 596.467 340.986L593.816 372.15C593.816 372.15 588.812 412.083 566.49 427.045C544.168 442.008 365.121 417.566 268.903 312.283Z" fill="#C3C4E1"/>
<path d="M418.113 247.49C377.387 233.554 344.532 228.795 321.418 235.453C294.211 243.29 276.647 255.33 267.55 270.651C260.51 282.506 259.112 295.178 261.537 307.459C262.134 310.479 262.923 313.243 263.825 315.718C264.148 316.604 264.467 317.403 264.768 318.096C264.964 318.547 265.129 318.888 265.239 319.108C265.517 319.668 265.861 320.169 266.283 320.631C310.346 368.845 374.7 404.238 445.856 425.02C502.687 441.618 557.773 446.322 572.519 436.437C580.094 431.36 586.224 423.764 591.155 414.234C596.152 404.578 599.541 393.811 601.662 383.265C602.003 381.569 602.263 380.019 602.481 378.648C602.616 377.804 602.708 377.169 602.752 376.812C602.763 376.725 605.442 345.404 605.442 345.404C605.653 342.921 604.473 340.532 602.369 339.198C602.31 339.161 599.03 337.104 597.719 336.297C593.982 333.994 589.68 331.379 584.862 328.509C571.108 320.315 556.004 311.691 540.003 303.015C513.256 288.513 486.755 275.397 461.403 264.427C446.15 257.827 431.688 252.135 418.113 247.49ZM414.821 260.536C427.734 264.981 441.534 270.368 456.094 276.669C481.049 287.467 507.216 300.439 533.64 314.765C549.474 323.351 564.411 331.909 578.017 340.015C582.776 342.85 587.023 345.418 590.704 347.688C591.006 347.873 591.313 348.078 591.759 348.355L589.497 375.169C589.471 375.382 589.396 375.855 589.285 376.549C589.095 377.747 588.855 379.118 588.551 380.632C586.655 390.059 583.613 399.708 579.273 408.095C575.295 415.781 570.563 421.679 565.084 425.352C561.153 427.987 546.619 429.09 526.984 427.412C504.409 425.482 477.247 420.255 449.585 412.176C380.975 392.138 319.063 358.187 276.864 312.381C276.71 312.02 276.618 311.774 276.383 311.13C275.707 309.277 275.119 307.171 274.662 304.859C272.83 295.579 273.846 286.203 279.037 277.461C286.239 265.332 300.955 255.271 325.111 248.313C345.224 242.519 376.081 247.201 414.821 260.536Z" fill="black"/>
<path d="M250.316 148.507C270.771 94.5622 381.35 103.843 505.332 150.846C629.313 197.85 717.147 267.624 696.692 321.569C676.237 375.515 567.574 385.466 443.592 338.463C319.61 291.459 229.861 202.453 250.316 148.507Z" fill="#93E9CA"/>
<path d="M456.603 161.598L427.037 186.684L483.784 178.351L487.917 213.655L509.488 189.64L549.988 222.625L547.225 185.93L507.398 161.608L465.218 147.352L456.603 161.598Z" fill="#DFFFEA"/>
<path d="M249.896 181.879C264.569 234.217 342.742 300.233 443.58 338.463C531.906 371.948 612.281 376.395 658.703 356.755C450.622 348.806 275.758 204.222 249.896 181.879Z" fill="#82D4D5"/>
<path d="M354.714 294.742C354.714 294.742 324.888 244.946 343.552 206.819C362.216 168.692 425.492 143.754 501.213 173.064C576.934 202.374 612.482 247.003 601.101 298.934C589.72 350.864 530.172 360.447 529.142 364.168C529.142 364.168 611.89 392.878 645.621 314.032C679.352 235.186 537.604 156.682 504.288 149.589C470.972 142.496 327.793 101.455 293.923 177.107C260.053 252.76 354.714 294.742 354.714 294.742Z" fill="#B7F2CC"/>
<path d="M248.005 144.66C268.46 90.7143 379.04 99.9951 503.021 146.999C627.003 194.002 714.837 263.776 694.382 317.722C673.927 371.667 565.264 381.619 441.282 334.615C317.3 287.611 227.55 198.605 248.005 144.66Z" fill="#AF93E5"/>
<path d="M454.295 157.751L424.729 182.837L481.476 174.503L485.609 209.808L507.18 185.792L547.679 218.778L544.916 182.083L505.09 157.76L462.91 143.505L454.295 157.751Z" fill="#C2C4E0"/>
<path d="M247.586 178.031C262.258 230.369 340.431 296.385 441.269 334.615C529.595 368.1 609.97 372.547 656.392 352.908C448.311 344.958 273.448 200.375 247.586 178.031Z" fill="#B876D1"/>
<path d="M352.404 290.894C352.404 290.894 322.578 241.098 341.242 202.971C359.906 164.845 423.182 139.906 498.903 169.216C574.624 198.526 610.172 243.156 598.791 295.086C587.41 347.017 527.862 356.599 526.832 360.32C526.832 360.32 609.58 389.03 643.311 310.184C677.042 231.339 535.294 152.834 501.978 145.741C468.661 138.648 325.483 97.6077 291.613 173.26C257.743 248.912 352.404 290.894 352.404 290.894Z" fill="#ABACE3"/>
<path d="M310.099 280.215C307.501 279.885 304.831 281.116 303.432 283.523C301.144 287.438 298.915 291.396 296.741 295.375C294.456 299.554 292.228 303.828 290.77 308.378C289.596 312.118 291.69 316.085 295.43 317.259C299.17 318.434 303.155 316.376 304.33 312.635C305.347 309.301 306.924 306.124 308.412 302.984C310.461 298.662 312.673 294.404 315.061 290.261C316.927 287.052 315.834 282.96 312.625 281.095C311.822 280.629 310.965 280.325 310.099 280.215Z" fill="black"/>
<path d="M338.813 299.487C335.524 297.766 331.451 299.017 329.73 302.306C327.363 306.804 325.077 311.378 322.946 315.991C321.151 319.878 319.432 323.885 318.624 328.11C317.912 331.965 320.483 335.675 324.338 336.387C328.193 337.099 331.895 334.555 332.607 330.7C333.157 327.533 334.524 324.462 335.714 321.501C337.488 317.088 339.451 312.765 341.64 308.543C343.362 305.255 342.101 301.208 338.813 299.487Z" fill="black"/>
<path d="M380.865 324.425C378.273 324.053 375.581 325.242 374.144 327.626C369.16 335.841 363.949 343.898 358.942 352.099C356.918 355.457 358.008 359.828 361.366 361.852C364.723 363.876 369.095 362.786 371.119 359.429C376.035 351.173 380.738 342.811 385.677 334.569C387.593 331.39 386.56 327.247 383.382 325.331C382.587 324.852 381.729 324.548 380.865 324.425Z" fill="black"/>
<path d="M429.067 348.194C425.648 346.748 421.72 348.34 420.275 351.758C416.555 360.487 412.568 369.086 408.823 377.805C407.296 381.415 408.994 385.585 412.605 387.112C416.215 388.639 420.376 386.967 421.903 383.357C425.55 374.597 428.959 365.735 432.631 356.986C434.077 353.568 432.486 349.64 429.067 348.194Z" fill="black"/>
<path d="M485.791 369.229C482.294 367.987 478.458 369.81 477.217 373.307C474.085 382.055 470.694 390.718 467.537 399.456C466.226 403.151 468.147 407.207 471.842 408.519C475.536 409.83 479.602 407.882 480.913 404.187C483.971 395.413 486.814 386.577 489.897 377.812C491.138 374.314 489.289 370.47 485.791 369.229Z" fill="black"/>
<path d="M528.09 378.563C524.512 377.576 520.81 379.667 519.823 383.245C517.139 392.875 514.181 402.422 511.471 412.045C510.428 415.824 512.662 419.748 516.441 420.791C520.22 421.833 524.109 419.618 525.152 415.839C527.759 406.188 530.138 396.475 532.772 386.831C533.759 383.253 531.668 379.551 528.09 378.563Z" fill="black"/>
<path d="M562.833 379.822C559.2 379.062 555.631 381.384 554.872 385.017C552.975 393.941 550.449 402.795 547.161 411.302C545.768 414.967 547.623 419.062 551.288 420.455C554.952 421.848 559.039 420.019 560.432 416.354C563.886 407.112 566.043 397.407 568.038 387.756C568.798 384.123 566.467 380.581 562.833 379.822Z" fill="black"/>
<path d="M461.18 128.151C415.618 114.006 373.728 105.897 339.223 104.8C288.815 103.198 254.924 116.541 243.751 146.007C221.285 205.257 314.333 296.972 441.103 345.032C566.202 392.458 680.552 383.996 703.272 324.076C714.446 294.608 698.103 261.292 659.774 228.275C624.248 197.674 570.632 168.066 507.819 144.253C491.952 138.237 476.367 132.866 461.18 128.151ZM456.029 141.272C471.114 145.94 486.739 151.325 502.829 157.425C629.447 205.428 707.656 272.78 690.108 319.059C681.226 342.483 652.101 357.609 608.443 360.849C562.704 364.243 505.228 354.307 446.085 331.885C386.935 309.46 333.658 276.487 297.727 241.072C262.959 206.803 248.21 173.902 256.898 150.99C272.011 111.132 350.43 108.595 456.029 141.272Z" fill="black"/>
<path d="M547.303 153.145C542.213 150.938 536.299 153.291 534.091 158.38C531.883 163.47 534.237 169.384 539.326 171.592C643.9 216.953 702.852 277.026 687.314 318.003C678.187 342.074 645.691 357.135 597.105 358.406C591.559 358.552 587.195 363.152 587.34 368.697C587.485 374.243 592.103 378.642 597.649 378.497C653.487 377.036 693.439 358.513 706.093 325.141C727.043 269.889 660.818 202.385 547.303 153.145Z" fill="black"/>
<path d="M471.298 123.51C419.786 107.023 371.908 98.5073 333.261 99.1937C285.201 100.048 252.1 115.09 240.796 144.9C228.646 176.943 247.822 217.584 289.822 257.382C293.906 261.252 300.367 261.09 304.236 257.006C308.107 252.922 307.936 246.488 303.851 242.618C267.169 207.859 251.386 174.424 259.842 152.125C275.879 109.831 369.032 108.169 486.701 150.233C491.999 152.127 497.843 149.381 499.736 144.083C501.63 138.785 498.884 132.941 493.586 131.047C486.095 128.37 478.657 125.865 471.298 123.51Z" fill="black"/>
<path d="M297.211 241.2C294.641 240.17 291.672 240.115 288.926 241.29C281.196 244.632 273.969 249.194 268.28 255.472C259.225 265.464 254.517 278.501 253.935 291.882C253.756 295.983 253.843 300.205 254.589 304.256C255.62 309.818 260.979 313.49 266.541 312.459C272.103 311.429 275.775 306.07 274.745 300.508C274.75 300.535 274.674 300.056 274.66 299.947C274.609 299.541 274.561 299.129 274.526 298.72C274.412 297.364 274.378 296.015 274.398 294.654C274.452 290.976 274.957 287.284 276.015 283.758C276.688 281.512 277.582 279.327 278.689 277.259C282.76 269.656 289.621 264.485 297.433 261.187C302.927 258.837 305.469 252.46 303.119 246.967C301.944 244.22 299.78 242.23 297.211 241.2Z" fill="black"/>
<path d="M604.614 365.345C603.409 364.738 602.05 364.349 600.619 364.254C594.895 363.874 589.948 368.225 589.568 373.95C589.57 373.916 589.571 374.006 589.569 374.039C589.563 374.106 589.567 374.176 589.561 374.243C589.547 374.411 589.502 374.584 589.485 374.751C589.43 375.302 589.38 375.832 589.311 376.381C589.101 378.042 588.848 379.723 588.548 381.371C587.663 386.22 586.42 391.002 584.794 395.656C579.878 409.725 571.749 422.933 559.005 431.129C553.922 434.428 552.458 441.235 555.757 446.318C559.055 451.401 565.872 452.839 570.955 449.54C576.926 445.637 582.317 440.963 586.956 435.536C596.252 424.662 602.257 411.35 606.123 397.674C607.415 393.106 608.441 388.482 609.239 383.803C609.718 381 610.124 378.144 610.314 375.305C610.599 371.012 608.23 367.166 604.614 365.345Z" fill="black"/>
<path d="M514.939 145.471C511.552 144.295 508.466 143.417 505.735 142.836C505.778 142.845 479.792 136.807 468.918 134.572C449.17 130.512 430.749 127.655 412.868 126.214C384.939 123.962 360.441 125.383 340.039 131.43C315.255 138.775 297.238 152.798 287.617 174.287C278.69 194.227 277.471 213.326 283.048 231.242C287.68 246.121 296.772 259.587 309.208 271.67C317.898 280.113 327.728 287.398 337.906 293.54C341.466 295.689 344.81 297.554 347.871 299.116C349.738 300.069 351.117 300.728 351.908 301.079C358.082 303.817 364.123 296.99 360.652 291.196C360.623 291.148 359.949 289.997 359.669 289.486C358.858 288 357.989 286.283 357.05 284.344C354.352 278.781 351.821 272.658 349.721 266.192C342.871 245.094 342.094 225.537 349.765 209.867C358.363 192.303 377.539 178.04 402.762 171.339C430.943 163.853 464.333 166.216 498.725 179.528C571.689 207.771 604.842 249.503 594.337 297.441C589.674 318.717 576.031 333.771 555.734 344.758C549.55 348.106 543.768 350.62 536.017 353.531C535.357 353.78 532.858 354.705 532.281 354.921C530.945 355.425 529.993 355.783 529.167 356.129C528.046 356.598 527.165 357.015 526.392 357.476C524.485 358.612 523.162 359.857 522.477 362.329C521.503 365.847 523.435 369.518 526.884 370.714C526.931 370.731 526.907 370.721 527.017 370.758C528.217 371.161 529.995 371.702 532.262 372.284C535.726 373.175 539.556 373.956 543.697 374.609C555.255 376.431 567.246 376.781 579.174 375.07C611.063 370.496 636.814 352.195 651.974 316.76C660.786 296.162 659.22 274.627 648.678 253.047C639.745 234.761 624.544 216.752 604.603 199.638C576.691 175.683 538.649 153.709 514.939 145.471ZM510.036 158.466C518.348 161.381 529.749 166.593 541.84 173.238C560.734 183.623 579.601 196.418 595.596 210.145C635.656 244.525 652.823 279.641 639.277 311.303C626.097 342.112 604.511 357.475 577.228 361.388C569.001 362.568 560.65 362.592 552.455 361.772C555.808 360.282 559.026 358.73 562.341 356.936C585.873 344.198 602.23 326.149 607.869 300.417C620.104 244.589 582.335 197.053 503.717 166.622C466.664 152.279 430.291 149.706 399.208 157.964C370.318 165.639 347.809 182.38 337.331 203.785C327.787 223.282 328.711 246.251 336.564 270.439C337.382 272.957 338.325 275.353 339.245 277.76C332.039 272.979 325.044 267.771 318.851 261.754C307.954 251.166 300.153 239.587 296.277 227.137C291.706 212.454 292.696 196.81 300.253 179.931C314.99 147.014 354.311 135.367 411.762 139.998C429.014 141.389 446.882 144.148 466.119 148.102C476.779 150.294 502.707 156.337 502.848 156.367C504.846 156.793 507.266 157.495 510.036 158.466Z" fill="black"/>
<path d="M521.773 59.2383L512.935 82.613L480.052 70.8929L467.547 106.007L499.77 117.483L490.997 138.894L537.693 156.552L546.815 134.249L575.219 144.365L587.723 109.251L559.98 99.3784L568.477 76.8695L521.773 59.2383Z" fill="#FFA0CA"/>
<path d="M519.461 55.3906L510.624 78.7653L477.74 67.0452L465.236 102.159L497.459 113.635L488.686 135.047L535.382 152.705L544.504 130.401L572.908 140.517L585.412 105.403L557.669 95.5307L566.166 73.0218L519.461 55.3906Z" fill="#FFD000"/>
<path d="M525.329 49.839C520.141 47.8805 514.35 50.5082 512.389 55.6952L507.05 69.8502L483.42 61.4328C478.194 59.5699 472.442 62.3016 470.58 67.5285L458.076 102.643C456.215 107.869 458.954 113.595 464.18 115.456L486.775 123.508L483.111 133.236C481.154 138.427 483.776 144.219 488.967 146.176C494.158 148.133 499.95 145.51 501.907 140.32L509.183 121.024C511.165 115.765 508.433 109.908 503.139 108.023L480.384 99.9192L486.152 83.714L509.568 92.0619C514.723 93.8993 520.403 91.2993 522.339 86.1803L527.625 72.1859L555.543 82.7067L550.596 95.8353C548.611 101.096 551.316 106.942 556.613 108.827L574.888 115.328L569.12 131.533L550.184 124.788C545.028 122.952 539.366 125.585 537.432 130.706L529.807 150.894C527.847 156.084 530.447 161.865 535.636 163.825C540.826 165.785 546.643 163.167 548.603 157.978L552.756 147.018L571.852 153.814C577.078 155.676 582.823 152.972 584.684 147.745L597.188 112.631C599.049 107.404 596.319 101.651 591.092 99.7907L573.004 93.3513L577.889 80.4101C579.849 75.22 577.223 69.4296 572.033 67.4702L525.329 49.839Z" fill="black"/>
<path opacity="0.203921" d="M698.854 322.158C698.854 322.158 437.366 316.072 256.55 185.99L286.862 241.141L341.588 283.719L378.713 306.7L426.913 379.559C362.359 359.499 296.775 330.989 269.69 293.173L266.399 312.136L295.504 340.856L341.961 373.912L383.435 394.163C383.435 394.163 458.327 435.271 475.066 458.941C488.039 477.286 517.966 498.038 519.919 540.859C352.03 740.247 148.441 619.893 148.441 619.893L190.61 681.264L237.378 713.089L293.458 732.553L357.672 740.102L414.488 727.434L484.677 689.906L513.33 705.904L550.081 703.079L591.087 678.054L629.104 612.648L557.769 619.657C525.987 605.51 543.407 566.467 543.407 566.467L573.304 555.934L570.714 512.537L573.181 511.593L563.832 437.095L572.247 429.592L572.898 429.773L573.582 428.398L586.912 416.514C586.912 416.514 582.881 415.861 580.024 415.4L604.024 367.036C657.323 366.043 698.854 322.158 698.854 322.158Z" fill="black"/>
</svg>
