<svg width="800" height="800" viewBox="0 0 800 800" fill="none" xmlns="http://www.w3.org/2000/svg">
<path d="M111.87 490.977C111.87 490.977 78.912 476.814 59.2281 492.572C39.5442 508.33 21.0331 583.31 130.208 618.383" fill="#F3886D"/>
<path d="M107.588 478.736C100.723 476.674 93.0577 475.227 85.1246 475.018C72.8103 474.693 61.7648 477.574 52.9018 484.669C37.8114 496.75 29.7953 524.787 36.5928 550.8C45.2594 583.965 75.0822 611.314 127.108 628.028L133.315 608.74C87.4487 594.005 62.9478 571.562 56.1862 545.686C53.5991 535.785 53.8214 525.73 56.3935 516.725C58.5324 509.238 62.1647 503.179 65.5522 500.468C70.2196 496.731 76.6964 495.059 84.6109 495.268C92.5151 495.477 100.5 497.46 106.921 499.913C107.226 500.03 107.869 500.28 107.867 500.28L115.869 481.664C115.512 481.511 114.937 481.287 114.164 480.991C112.07 480.191 109.876 479.424 107.588 478.736Z" fill="black"/>
<path d="M555.379 443.45C555.379 443.45 568.374 417.041 600.24 381.493C632.107 345.945 682.843 301.257 758.326 264.701C758.326 264.701 755.282 256.324 744.972 249.1C734.661 241.876 717.084 235.804 688.017 240.415C688.017 240.415 692.342 231.759 695.269 218.586C698.196 205.414 699.725 187.725 694.134 169.66C694.134 169.66 686.498 166.995 674.178 166.986C661.857 166.977 644.854 169.623 626.12 180.243C626.12 180.243 627.969 166.716 628.235 151.515C628.5 136.313 627.183 119.437 620.851 112.738C620.851 112.738 611.529 110.892 597.316 113.073C583.103 115.253 563.998 121.461 544.431 137.57C544.431 137.57 545.744 127.84 544.053 114.857C542.362 101.875 537.668 85.6414 525.651 72.6343C525.651 72.6343 517.146 72.3711 504.397 77.3552C491.648 82.3394 474.655 92.5708 457.679 113.56C457.679 113.56 455.913 102.296 451.277 88.2776C446.641 74.2589 439.136 57.4851 427.658 46.4648C427.658 46.4648 418.202 48.0415 406.11 55.6096C394.019 63.1777 379.292 76.7373 368.749 100.703C368.749 100.703 362.893 93.8953 351.569 84.8752C340.244 75.8551 323.451 64.6229 301.575 55.7743C301.575 55.7743 310.353 75.4116 313.714 114.781C317.075 154.149 315.021 213.249 293.357 292.175C293.357 292.175 323.778 306.801 371.741 333.024C419.705 359.247 485.21 397.065 555.379 443.45Z" fill="#AF93E5"/>
<path d="M312.543 215.206C312.543 215.206 377.394 136.92 425.827 153.385C474.26 169.851 501.65 237.164 484.821 300.159C484.821 300.159 501.227 314.628 519.969 334.607C547.248 363.689 579.474 404.446 573.248 429.252C562.745 471.099 538.394 442.825 538.394 442.825L373.921 347.172L293.258 324.958L292.342 286.243L312.543 215.206Z" fill="#ABACE3"/>
<path d="M328.102 227.9L360.877 213.732L364.724 178.304L398.078 194.122L424.055 164.043L431.153 202.41L459.557 199.132L445.298 231.055L470.031 254.813L429.229 264.878L442.499 314.884L401.961 285.37L375.163 320.322L372.428 275.998L328.307 284.54L358.617 249.733L328.102 227.9Z" fill="#C3C4E1"/>
<path d="M693.997 236.299C693.997 236.299 601.881 287.542 535.552 394.092C469.224 500.643 558.815 443.506 558.815 443.506L607.674 375.774L659.219 325.94C659.219 325.94 692.986 303.621 701.106 299.483C709.227 295.346 747.41 271.221 747.41 271.221L761.959 261.807L748.901 245.779L722.886 238.8L693.997 236.299Z" fill="#B876D1"/>
<path d="M550.773 371.288C545.594 378.615 540.493 386.158 535.55 394.097C526.113 409.258 520.093 420.797 516.262 429.966L538.386 442.836C538.386 442.836 542.211 447.126 547.428 449.887C553.854 446.555 558.824 443.499 558.824 443.499L573.945 422.551C573.938 407.931 564.032 389.462 550.773 371.288Z" fill="#AF93E5"/>
<path d="M417.355 206.601C417.355 206.601 393.374 203.408 386.571 209.5C379.768 215.591 373.255 237.707 374.897 245.084C376.539 252.461 385.282 270.783 396.185 271.409C396.185 271.409 437.706 256.18 417.355 206.601Z" fill="#FFD000"/>
<path d="M417.227 203.316C416.68 203.086 416.091 202.92 415.488 202.839C414.459 202.702 412.736 202.495 410.509 202.316C406.798 202.019 403.035 201.89 399.409 201.965C390.357 202.151 383.586 203.535 379.266 207.404C370.939 214.86 363.221 239.341 365.489 249.531C366.622 254.622 369.797 261.799 373.662 267.544C379.053 275.559 385.453 280.739 393.024 281.174C393.952 281.227 394.889 281.082 395.762 280.761C396.021 280.666 396.409 280.525 396.915 280.307C397.697 279.971 398.567 279.557 399.504 279.077C402.135 277.732 404.873 276.055 407.573 274.006C415.349 268.105 421.407 260.348 424.615 250.515C428.663 238.107 427.689 223.564 420.885 206.99C420.192 205.301 418.866 204.003 417.227 203.316ZM409.562 215.886C413.827 227.872 414.41 237.972 411.697 246.288C409.424 253.256 405.06 258.832 399.348 263.166C397.319 264.706 395.265 265.98 393.317 266.977C393.095 267.09 392.928 267.157 392.722 267.257C387.701 265.559 380.592 254.673 378.789 246.574C377.584 241.158 383.699 221.698 388.34 217.543C388.718 217.204 389.951 216.681 391.855 216.288C393.971 215.85 396.628 215.606 399.672 215.543C402.793 215.479 406.131 215.606 409.419 215.87C409.472 215.874 409.51 215.882 409.562 215.886Z" fill="black"/>
<path d="M527.153 66.2574C525.923 65.6961 524.574 65.369 523.195 65.3263C522.645 65.3093 521.851 65.3244 520.81 65.38C519.243 65.4637 517.466 65.6435 515.51 65.9364C510.117 66.7443 504.193 68.2751 497.881 70.7425C485.15 75.7197 472.54 83.8024 460.477 95.3397C459.781 92.9183 459.083 90.4872 458.268 88.0233C451.994 69.0517 443.515 53.0346 432.03 42.0077C429.687 39.7584 426.411 38.7549 423.208 39.2892C422.656 39.3812 421.825 39.5595 420.756 39.824C419.116 40.2296 417.28 40.7599 415.286 41.4496C409.731 43.3704 403.88 46.1195 397.907 49.858C384.474 58.2656 372.608 70.384 363.228 86.5555C360.759 84.3514 358.106 82.1129 355.212 79.8083C340.318 67.9448 322.771 57.3452 302.66 49.2105C294.077 45.7387 285.664 54.4832 289.442 62.9359C289.457 62.9697 289.506 63.1661 289.642 63.504C289.9 64.1458 290.221 64.9269 290.559 65.8732C291.559 68.6787 292.61 72.0935 293.68 76.1194C296.795 87.8323 299.285 101.992 300.704 118.614C304.802 166.605 299.32 224.53 280.683 292.43C279.368 297.221 281.662 302.258 286.14 304.412C286.187 304.434 289.995 306.288 291.553 307.058C296.018 309.266 301.23 311.89 307.142 314.905C324.057 323.529 343.157 333.601 364.051 345.024C423.767 377.673 485.819 414.578 546.96 454.995C552.129 458.411 559.118 456.517 561.854 450.957C561.913 450.837 562.068 450.526 562.336 450.019C562.811 449.119 563.391 448.038 564.091 446.802C566.129 443.203 568.654 439.063 571.695 434.418C580.458 421.034 591.547 406.496 605.133 391.34C644.1 347.87 695.247 308.302 760.049 276.919C764.794 274.621 767.03 269.118 765.229 264.162C764.875 263.186 764.261 261.804 763.339 260.145C761.923 257.598 760.107 254.972 757.824 252.347C755.098 249.21 751.859 246.286 748.102 243.654C736.137 235.271 720.287 230.94 700.435 231.628C701.174 229.082 701.92 226.568 702.538 223.79C706.556 205.706 706.686 187.291 701.21 169.593C700.245 166.474 697.852 163.99 694.769 162.914C694.711 162.894 694.694 162.891 694.609 162.862C692.991 162.317 690.59 161.684 687.458 161.101C682.642 160.204 677.255 159.679 671.41 159.674C659.618 159.665 647.406 161.814 635.063 166.447C635.313 162.506 635.688 158.58 635.757 154.659C636.138 132.863 633.687 117.248 625.556 108.646C624.089 107.094 622.181 106.041 620.086 105.626C619.566 105.523 618.752 105.396 617.69 105.262C616.052 105.054 614.209 104.883 612.133 104.788C606.341 104.521 599.904 104.815 592.989 105.876C579.22 107.989 565.367 112.853 551.872 120.864C551.74 119.409 551.676 117.989 551.483 116.506C549.116 98.333 542.571 81.7605 530.437 68.6264C529.501 67.6133 528.384 66.8187 527.153 66.2574ZM518.45 86.3027C525.416 95.3803 529.466 106.624 531.097 119.143C531.762 124.253 531.953 129.208 531.822 133.76C531.776 135.331 531.699 136.716 531.595 137.917C531.537 138.587 531.508 139.01 531.489 139.155C530.238 148.421 540.975 154.431 548.193 148.489C563.835 135.611 580.122 128.668 596.116 126.214C601.638 125.367 606.692 125.129 611.167 125.335C611.51 125.351 611.736 125.397 612.058 125.417C614.14 130.52 615.42 141.013 615.187 154.308C615.076 160.673 614.667 167.232 614.07 173.592C613.861 175.819 613.643 177.854 613.431 179.658C613.357 180.282 613.182 181.746 613.171 181.822C612.019 190.257 621.018 196.362 628.423 192.163C643.209 183.781 657.737 180.231 671.415 180.241C675.616 180.244 679.402 180.638 682.814 181.222C685.574 193.524 685.338 206.438 682.471 219.341C681.011 225.912 679.082 231.713 677.084 236.469C676.782 237.187 676.507 237.823 676.27 238.335C676.144 238.609 676.078 238.764 676.06 238.799C672.321 246.284 678.597 254.863 686.86 253.553C709.764 249.92 725.694 253.074 736.296 260.502C737.829 261.576 739.17 262.718 740.398 263.906C678.203 295.596 628.312 334.678 589.828 377.609C575.532 393.557 563.813 408.918 554.496 423.149C552.361 426.41 550.794 429.097 549.099 431.929C490.426 393.53 431.116 358.258 373.908 326.982C352.835 315.46 333.559 305.284 316.472 296.572C311.235 293.902 306.767 291.673 302.634 289.62C308.347 267.825 312.752 246.991 315.949 227.129C322.532 186.24 323.996 149.464 321.213 116.874C319.962 102.219 317.865 89.3482 315.276 78.0468C325.156 83.4536 334.291 89.4206 342.412 95.8889C347.08 99.6065 351.093 103.192 354.445 106.486C355.595 107.616 356.572 108.616 357.377 109.48C357.828 109.964 358.081 110.28 358.176 110.391C363.11 116.127 372.357 114.748 375.404 107.822C383.779 88.7845 395.403 75.6971 408.808 67.3071C413.217 64.5474 417.485 62.5469 421.469 61.1238C428.38 69.3828 434.23 80.8049 438.747 94.4634C440.661 100.251 442.218 106.005 443.423 111.399C443.842 113.276 444.173 114.96 444.449 116.437C444.543 116.943 444.749 118.093 444.756 118.135C446.137 126.943 457.305 129.93 462.912 122.998C476.639 106.027 491.108 95.4818 505.387 89.8994C510.183 88.0243 514.572 86.8934 518.45 86.3027Z" fill="black"/>
<path d="M117.599 450.612C156.04 332.302 284.415 267.979 404.332 306.943C524.249 345.906 590.299 473.401 551.858 591.711C513.416 710.02 385.042 774.343 265.124 735.38C145.207 696.416 79.1579 568.921 117.599 450.612Z" fill="#F3886D"/>
<path d="M450.108 365.943C407.183 351.996 354.562 367.208 320.967 397.484C318.84 360.935 293.43 328.706 263.584 319.009C225.512 306.638 152.762 363.475 137.192 411.392C128.459 438.27 142.197 457.09 162.658 470.62C157.74 477.889 153.652 485.772 150.851 494.391C131.905 552.704 163.844 661.388 245.732 673.022C320.019 683.575 365.843 625.283 384.79 566.97C385.951 563.398 386.876 559.814 387.627 556.234C444.067 569.792 498.427 548.538 515.7 495.377C534.164 438.551 510.571 385.589 450.108 365.943Z" fill="#F9B192"/>
<path d="M442.549 431.366C440.605 430.361 437.54 430.75 435.596 431.001C433.107 431.321 430.64 431.811 428.184 432.321C424.923 432.997 421.671 433.717 418.429 434.477C412.732 435.814 407.061 437.224 401.401 438.709C397.747 439.665 395.543 443.405 396.498 447.058C397.454 450.712 401.203 452.89 404.856 451.934C412.492 449.946 420.172 448.089 427.9 446.491C430.344 445.985 432.799 445.503 435.267 445.127C435.4 445.106 435.534 445.099 435.667 445.079C436.942 447.807 438.056 450.61 439.041 453.454C442.061 462.174 443.844 471.241 444.568 480.431C444.89 484.407 448.376 487.395 452.352 487.073C456.328 486.752 459.289 483.256 458.968 479.281C458.412 472.588 457.4 465.943 455.773 459.424C454.779 455.44 453.538 451.516 452.106 447.669C450.83 444.24 449.372 440.885 447.705 437.628C447.28 436.797 446.84 435.966 446.378 435.155C446.208 434.856 446.07 434.439 445.837 434.18C445.252 433.533 444.73 432.813 444.069 432.245C443.623 431.862 443.071 431.636 442.549 431.366ZM433.851 441.471C433.852 441.489 433.896 441.549 433.905 441.577C433.883 441.552 433.865 441.522 433.842 441.498C433.835 441.49 433.851 441.46 433.851 441.471Z" fill="black"/>
<path d="M237.202 360.68C236.713 360.422 236.154 360.387 235.606 360.31C232.642 359.893 229.642 360.825 226.951 361.995C224.261 363.165 221.725 364.645 219.249 366.21C214.169 369.421 209.308 373.023 204.565 376.707C200.284 380.032 196.069 383.455 191.961 386.992C189.098 389.455 188.771 393.746 191.233 396.609C193.696 399.472 198.014 399.809 200.877 397.346C208.397 390.895 216.234 384.687 224.573 379.332C226.898 377.838 229.301 376.38 231.822 375.236C231.985 375.162 232.162 375.117 232.327 375.046C232.356 375.082 232.38 375.124 232.408 375.161C233.718 376.837 234.901 378.589 235.999 380.411C239.239 385.783 241.58 391.589 243.116 397.666C244.103 401.531 248.03 403.872 251.895 402.886C255.76 401.899 258.101 397.972 257.115 394.107C254.624 384.44 250.42 375.217 244.318 367.283C243.379 366.062 242.403 364.855 241.363 363.719C240.987 363.309 240.565 362.679 240.081 362.385C239.132 361.808 238.184 361.199 237.202 360.68Z" fill="black"/>
<path d="M224.101 459.099C224.101 459.099 280.268 449.225 331.685 491.425C331.685 491.425 280.825 603.756 226.842 621.153C226.842 621.153 188.517 576.744 224.101 459.099Z" fill="#AC3A34"/>
<path d="M284.334 571.613C256.339 564.31 231.162 579.837 214.639 594.595C219.874 612.987 226.837 621.166 226.837 621.166C247.331 614.561 267.352 594.241 284.334 571.613Z" fill="#FF5A51"/>
<path d="M452.212 359.465C412.021 346.407 362.346 357.274 326.128 384.513C319.574 351.221 295.41 322.188 265.688 312.531C245.093 305.839 216.149 315.937 187.863 337.132C160.798 357.412 138.683 384.765 130.715 409.287C122.415 434.832 131.556 455.733 153.549 472.335C149.716 478.768 146.614 485.392 144.374 492.286C134.209 523.572 137.988 567.091 154.255 603.943C172.658 645.636 204.316 674.006 244.786 679.756C281.646 684.992 314.042 674.461 340.53 650.916C363.173 630.787 380.654 601.737 391.267 569.074C391.78 567.496 392.122 565.793 392.565 564.169C451.942 575.808 504.961 550.467 522.177 497.481C542.246 435.714 514.926 379.843 452.212 359.465ZM448.003 372.419C503.476 390.444 527.001 438.556 509.223 493.272C493.746 540.905 444.754 562.959 389.215 549.617C385.488 548.722 381.765 551.09 380.978 554.842C380.243 558.344 379.354 561.663 378.313 564.865C368.401 595.37 352.189 622.341 331.499 640.732C307.922 661.69 279.468 670.944 246.677 666.285C211.335 661.264 183.337 636.17 166.69 598.456C151.712 564.523 148.255 524.42 157.328 496.495C159.804 488.874 163.459 481.563 168.285 474.43C170.406 471.296 169.554 467.027 166.397 464.94C145.041 450.817 136.851 434.48 143.669 413.496C158.703 367.228 228.645 314.816 261.479 325.485C289.485 334.584 312.268 365.036 314.18 397.882C314.511 403.577 321.271 406.359 325.508 402.539C358.674 372.65 408.941 359.727 448.003 372.419Z" fill="black" fill-opacity="0.401653"/>
<path d="M406.43 300.473C282.96 260.355 150.74 326.621 111.132 448.523C71.5238 570.424 139.55 701.725 263.02 741.843C386.491 781.961 518.702 715.721 558.31 593.82C597.919 471.918 529.9 340.59 406.43 300.473ZM402.23 313.4C518.595 351.209 582.657 474.902 545.383 589.619C508.109 704.337 383.585 766.725 267.221 728.916C150.856 691.107 86.7854 567.441 124.059 452.723C161.333 338.005 285.866 275.591 402.23 313.4Z" fill="black"/>
<path d="M292.209 284.977C290.901 284.696 289.521 284.666 288.124 284.931C202.595 301.158 131.856 362.174 104.554 446.201C100.063 460.021 96.8975 473.963 94.9937 487.874C94.8739 488.749 94.8482 489.626 94.7383 490.502C96.1703 490.412 97.6684 490.675 99.0773 490.779C101.823 490.982 104.558 490.956 107.304 491.158C109.772 491.341 111.745 492.635 114.051 493.142C114.391 493.217 114.734 493.253 115.078 493.297C115.124 492.932 115.147 492.568 115.194 492.203C116.909 478.972 119.88 465.715 124.152 452.569C149.12 375.724 213.79 319.928 292.02 305.085C297.605 304.026 301.278 298.652 300.199 293.084C299.39 288.909 296.135 285.819 292.209 284.977ZM555.626 436.498C553.252 435.357 550.444 435.101 547.759 436.027C542.388 437.88 539.551 443.718 541.425 449.075C557.106 493.907 557.939 542.579 542.97 588.651C505.559 703.788 381.48 766.659 265.825 729.08C204.351 709.106 157.684 664.757 133.021 610.315C130.599 611.692 127.938 612.638 124.89 612.589C120.152 612.513 115.133 610.982 110.48 609.873C110.834 610.747 111.11 611.65 111.475 612.52C137.645 674.885 189.937 725.993 259.485 748.591C385.965 789.686 521.656 720.931 562.568 595.019C578.932 544.655 578.028 491.372 560.879 442.346C559.942 439.668 558.001 437.64 555.626 436.498Z" fill="black"/>
<path d="M372.227 523.194C377.447 512.122 398.856 510.925 420.045 520.522C441.235 530.119 454.181 546.875 448.961 557.948C443.74 569.021 422.331 570.217 401.142 560.62C379.952 551.023 367.006 534.267 372.227 523.194Z" fill="#FF497F"/>
<path d="M104.384 438.961C107.07 427.018 127.707 421.193 150.476 425.951C173.246 430.709 189.527 444.248 186.84 456.191C184.154 468.134 163.517 473.959 140.748 469.201C117.978 464.443 101.697 450.904 104.384 438.961Z" fill="#FF497F"/>
<path d="M161.002 422.442C158.031 421.462 154.928 420.628 151.719 419.958C126.106 414.606 102.051 421.391 98.403 437.61C94.7287 453.944 113.815 469.828 139.483 475.192C165.096 480.544 189.151 473.758 192.799 457.54C196.014 443.248 181.801 429.296 161.002 422.442ZM156.363 433.806C172.231 438.836 182.349 448.237 180.863 454.845C179.138 462.512 161.909 467.385 141.982 463.221C122.111 459.068 108.641 447.857 110.34 440.305C112.065 432.637 129.293 427.765 149.22 431.929C151.704 432.448 154.096 433.087 156.363 433.806Z" fill="black"/>
<path d="M413.622 511.477C392.782 504.718 372.896 507.424 366.693 520.581C359.554 535.725 374.737 555.379 398.624 566.198C422.459 576.993 447.399 575.595 454.487 560.559C461.626 545.415 446.47 525.77 422.584 514.951C419.604 513.602 416.599 512.443 413.622 511.477ZM410.615 523.372C412.885 524.134 415.197 525.037 417.515 526.087C436.007 534.462 446.731 548.337 443.43 555.339C440.079 562.447 422.209 563.451 403.665 555.053C385.173 546.678 374.45 532.803 377.75 525.802C380.683 519.581 394.727 518.034 410.615 523.372Z" fill="black"/>
<path d="M283.693 458.017C269.234 453.585 255.065 451.552 241.69 451.323C236.71 451.237 232.176 451.397 228.175 451.755C226.754 451.881 225.486 452.037 224.396 452.184C223.71 452.276 223.235 452.339 222.938 452.391C220.411 452.835 218.324 454.674 217.581 457.13C202.054 508.462 198.95 550.322 205.058 583.464C207.37 596.012 210.879 606.481 215.095 614.954C216.605 617.989 218.089 620.554 219.532 622.698C220.058 623.48 220.558 624.167 220.998 624.743C221.293 625.128 221.534 625.401 221.699 625.592C223.484 627.66 226.341 628.458 228.941 627.619C251.075 620.486 273.273 599.309 295.421 567.996C306.45 552.402 316.765 535.256 326.081 517.802C329.339 511.697 332.249 505.989 334.762 500.827C335.645 499.015 337.501 495.068 337.671 494.7C337.775 494.474 337.841 494.322 337.881 494.235C339.15 491.432 338.383 488.121 336.004 486.169C319.816 472.883 302.173 463.681 283.693 458.017ZM279.733 471.022C294.996 475.7 309.557 483.172 323.165 493.537C322.938 494.007 322.77 494.365 322.525 494.868C320.082 499.884 317.256 505.437 314.08 511.387C305.013 528.376 295 545.053 284.335 560.133C265.484 586.784 246.778 605.2 229.486 612.735C228.755 611.51 228.049 610.434 227.277 608.881C223.623 601.539 220.514 592.297 218.433 581.004C212.903 550.998 215.618 512.651 229.417 465.326C232.946 465.012 236.972 464.837 241.446 464.914C253.607 465.122 266.56 466.984 279.733 471.022Z" fill="black"/>
<path d="M286.055 565.041C271.546 561.256 256.96 562.724 242.634 568.539C231.154 573.199 220.27 580.434 210.106 589.513C208.163 591.248 207.372 593.955 208.085 596.461C210.518 605.006 213.508 612.189 216.748 618.065C217.912 620.175 219.02 621.984 220.073 623.495C220.751 624.468 221.288 625.154 221.646 625.575C223.428 627.668 226.316 628.489 228.933 627.646C249.13 621.137 269.394 602.862 289.785 575.692C292.687 571.825 290.733 566.262 286.055 565.041ZM271.7 576.71C257.093 594.578 242.838 606.983 229.461 612.816C229.181 612.341 228.943 612.019 228.65 611.487C226.449 607.495 224.427 602.477 222.576 596.849C238.509 583.529 255.115 576.072 271.7 576.71Z" fill="black"/>
<path d="M117.433 450.97C155.874 332.66 284.249 268.337 404.166 307.301C524.084 346.264 590.133 473.759 551.692 592.069C513.251 710.378 384.876 774.701 264.959 735.738C145.041 696.774 78.992 569.279 117.433 450.97Z" fill="#F3886D"/>
<path d="M449.941 366.301C407.016 352.354 354.396 367.566 320.8 397.842C318.673 361.293 293.264 329.064 263.417 319.367C225.346 306.996 152.595 363.833 137.026 411.75C128.293 438.628 142.03 457.447 162.492 470.978C157.574 478.247 153.485 486.13 150.685 494.749C131.738 553.062 163.678 661.746 245.565 673.379C319.852 683.933 365.676 625.641 384.623 567.328C385.784 563.756 386.71 560.172 387.461 556.592C443.901 570.15 498.261 548.896 515.533 495.735C533.997 438.909 510.404 385.947 449.941 366.301Z" fill="#F9B192"/>
<path d="M452.045 359.825C411.854 346.767 362.179 357.634 325.961 384.873C319.407 351.581 295.243 322.548 265.522 312.891C244.926 306.199 215.982 316.297 187.696 337.492C160.631 357.772 138.516 385.125 130.549 409.647C122.249 435.192 131.39 456.093 153.383 472.695C149.549 479.128 146.448 485.752 144.208 492.646C134.042 523.932 137.822 567.451 154.088 604.303C172.491 645.996 204.149 674.366 244.619 680.116C281.48 685.352 313.875 674.821 340.363 651.275C363.007 631.147 380.487 602.097 391.1 569.434C391.613 567.856 391.956 566.153 392.398 564.529C451.775 576.168 504.794 550.827 522.01 497.841C542.08 436.074 514.76 380.203 452.045 359.825ZM447.836 372.779C503.309 390.804 526.835 438.916 509.056 493.632C493.58 541.265 444.588 563.319 389.048 549.977C385.321 549.082 381.599 551.45 380.811 555.202C380.076 558.704 379.187 562.022 378.146 565.225C368.235 595.73 352.022 622.701 331.333 641.092C307.756 662.05 279.301 671.304 246.51 666.645C211.169 661.624 183.17 636.53 166.524 598.816C151.546 564.883 148.088 524.78 157.162 496.855C159.638 489.234 163.293 481.923 168.118 474.79C170.239 471.656 169.387 467.387 166.231 465.3C144.875 451.177 136.684 434.84 143.503 413.856C158.536 367.588 228.478 315.176 261.313 325.845C289.318 334.944 312.102 365.396 314.013 398.242C314.345 403.937 321.104 406.719 325.342 402.899C358.508 373.01 408.774 360.087 447.836 372.779Z" fill="black" fill-opacity="0.401653"/>
<path d="M406.265 300.831C282.795 260.713 150.574 326.979 110.966 448.881C71.358 570.782 139.385 702.083 262.855 742.201C386.325 782.319 518.537 716.079 558.145 594.178C597.753 472.276 529.735 340.948 406.265 300.831ZM402.065 313.758C518.429 351.567 582.491 475.26 545.218 589.977C507.943 704.695 383.42 767.083 267.055 729.274C150.691 691.465 86.6195 567.799 123.893 453.081C161.167 338.363 285.7 275.949 402.065 313.758Z" fill="black"/>
<path d="M292.044 285.335C290.735 285.054 289.355 285.024 287.959 285.288C202.429 301.516 131.69 362.532 104.388 446.559C99.8973 460.379 96.7315 474.321 94.8277 488.231C94.7078 489.107 94.6821 489.984 94.5723 490.86C96.0042 490.77 97.5023 491.033 98.9113 491.137C101.658 491.34 104.393 491.314 107.138 491.516C109.606 491.699 111.579 492.993 113.886 493.5C114.225 493.575 114.569 493.611 114.913 493.655C114.958 493.29 114.981 492.926 115.029 492.561C116.743 479.33 119.715 466.073 123.986 452.927C148.955 376.082 213.624 320.286 291.855 305.443C297.44 304.384 301.112 299.01 300.034 293.442C299.225 289.267 295.97 286.177 292.044 285.335ZM555.461 436.856C553.086 435.715 550.278 435.459 547.593 436.385C542.223 438.238 539.386 444.076 541.259 449.432C556.94 494.265 557.774 542.937 542.804 589.009C505.394 704.146 381.314 767.017 265.659 729.438C204.186 709.464 157.519 665.115 132.855 610.673C130.433 612.05 127.772 612.996 124.724 612.947C119.987 612.871 114.967 611.34 110.314 610.231C110.669 611.105 110.944 612.008 111.309 612.878C137.479 675.243 189.771 726.351 259.32 748.949C385.799 790.044 521.491 721.289 562.402 595.377C578.767 545.013 577.862 491.73 560.713 442.704C559.777 440.026 557.835 437.998 555.461 436.856Z" fill="black"/>
<path d="M372.061 523.552C377.281 512.48 398.69 511.283 419.88 520.88C441.069 530.477 454.015 547.233 448.795 558.306C443.575 569.378 422.166 570.575 400.976 560.978C379.787 551.381 366.841 534.625 372.061 523.552Z" fill="#FF497F"/>
<path d="M104.218 439.319C106.905 427.376 127.541 421.551 150.311 426.309C173.08 431.067 189.361 444.606 186.674 456.549C183.988 468.492 163.352 474.317 140.582 469.559C117.812 464.801 101.532 451.262 104.218 439.319Z" fill="#FF497F"/>
<path d="M160.837 422.801C157.865 421.822 154.762 420.988 151.553 420.318C125.941 414.966 101.886 421.751 98.237 437.97C94.5627 454.304 113.649 470.188 139.318 475.552C164.93 480.904 188.985 474.118 192.634 457.9C195.849 443.608 181.635 429.656 160.837 422.801ZM156.197 434.166C172.065 439.195 182.183 448.597 180.697 455.205C178.972 462.872 161.743 467.745 141.817 463.581C121.945 459.428 108.475 448.217 110.174 440.665C111.899 432.997 129.128 428.125 149.054 432.289C151.538 432.808 153.93 433.447 156.197 434.166Z" fill="black"/>
<path d="M413.455 511.836C392.615 505.076 372.729 507.783 366.527 520.94C359.387 536.084 374.57 555.738 398.457 566.557C422.292 577.352 447.232 575.954 454.321 560.918C461.46 545.774 446.303 526.129 422.417 515.31C419.438 513.961 416.433 512.802 413.455 511.836ZM410.449 523.731C412.719 524.493 415.031 525.396 417.349 526.446C435.841 534.821 446.564 548.696 443.263 555.698C439.912 562.806 422.042 563.81 403.499 555.412C385.006 547.037 374.283 533.162 377.584 526.161C380.516 519.94 394.56 518.393 410.449 523.731Z" fill="black"/>
<path d="M463.545 432.735C462.715 432.42 461.823 432.249 460.88 432.284C460.833 432.285 458.461 432.395 457.544 432.443C454.928 432.575 452.007 432.746 448.853 432.962C439.839 433.582 430.769 434.434 422.148 435.559C412.756 436.785 404.459 438.266 397.611 440.044C388.346 442.449 381.801 445.296 377.969 449.315C373.777 453.712 376.984 461.006 383.058 460.881C383.192 460.878 383.483 460.868 383.921 460.866C384.674 460.863 385.544 460.864 386.52 460.881C389.324 460.932 392.379 461.075 395.583 461.311C401.761 461.767 407.71 462.555 413.053 463.733C416.626 464.52 419.812 465.466 422.579 466.561C426.087 467.949 430.08 466.211 431.467 462.703C432.855 459.195 431.135 455.239 427.627 453.85C424.129 452.466 420.237 451.332 415.996 450.397C415.906 450.377 415.809 450.356 415.719 450.336C418.384 449.906 420.983 449.472 423.906 449.091C432.22 448.006 441.054 447.191 449.811 446.589C452.879 446.378 455.698 446.199 458.235 446.071C459.12 446.026 461.252 445.945 461.385 445.941C465.155 445.802 468.081 442.64 467.943 438.869C467.839 436.041 466.033 433.681 463.545 432.735Z" fill="black"/>
<path d="M240.784 344.791C238.275 343.9 235.349 344.549 233.438 346.636C230.89 349.418 231.076 353.723 233.858 356.271C233.845 356.258 233.932 356.351 234.1 356.527C234.447 356.892 234.857 357.356 235.33 357.932C236.761 359.675 238.335 361.883 239.937 364.608C243.583 370.806 246.789 378.496 249.333 387.693C245.367 384.748 241.405 382.032 237.472 379.844C234.609 378.252 231.804 376.902 229.068 375.841C225.55 374.478 221.587 376.225 220.224 379.744C218.862 383.262 220.609 387.224 224.127 388.587C226.242 389.406 228.503 390.474 230.844 391.775C235.2 394.198 239.732 397.34 244.289 400.938C247.121 403.173 249.78 405.425 252.18 407.615C253.016 408.377 253.767 409.087 254.403 409.698C254.774 410.054 255.008 410.292 255.12 410.405C259.753 415.045 267.634 411.142 266.726 404.648C266.183 400.761 265.542 397.006 264.79 393.396C261.749 378.829 257.188 367.001 251.712 357.692C249.747 354.351 247.776 351.551 245.899 349.264C245.214 348.43 244.572 347.712 243.996 347.107C243.611 346.702 243.325 346.396 243.108 346.197C242.413 345.56 241.62 345.088 240.784 344.791Z" fill="black"/>
<path d="M192.49 535.764C200.659 555.026 214.028 551.065 223.962 550.363C244.025 548.944 250.748 531.853 251.826 508.345C252.726 488.719 246.624 471.124 228.857 479.189C211.09 487.254 184.321 516.503 192.49 535.764Z" fill="#AC3A34" stroke="black" stroke-width="0.0189639" stroke-miterlimit="10" stroke-linecap="round" stroke-linejoin="round"/>
<path d="M251.294 514.796C250.416 514.559 249.526 514.24 248.663 514.06C233.167 510.829 197.362 542.999 196.984 543.34C205.04 553.603 215.676 550.948 223.967 550.361C242.126 549.077 249.285 534.895 251.294 514.796Z" fill="#FF5A51" stroke="black" stroke-width="0.0189639" stroke-miterlimit="10" stroke-linecap="round" stroke-linejoin="round"/>
<path d="M241.696 470.933C237.065 469.748 231.725 470.389 226.031 472.974C215.771 477.631 203.808 487.875 195.456 499.228C185.38 512.925 181.286 526.85 186.204 538.447C190.097 547.625 195.561 553.401 202.589 556.139C207.838 558.184 212.523 558.343 219.989 557.591C220.373 557.552 221.973 557.399 222.373 557.359C223.212 557.275 223.852 557.216 224.445 557.175C236.337 556.334 245.253 550.773 250.914 541.097C255.651 533.003 258.016 522.286 258.642 508.662C259.178 496.966 257.458 486.707 253.145 479.772C250.252 475.12 246.326 472.118 241.696 470.933ZM237.817 484.053C239.362 484.335 240.51 485.321 241.542 486.98C244.125 491.134 245.426 498.83 245.003 508.018C243.924 531.537 237.489 542.557 223.487 543.548C222.74 543.601 221.949 543.676 220.988 543.772C220.557 543.815 218.986 543.976 218.632 544.012C213.177 544.562 210.231 544.445 207.556 543.402C204.179 542.086 201.303 539.054 198.774 533.092C196.166 526.941 198.919 517.541 206.437 507.323C213.469 497.763 223.661 489.033 231.669 485.399C234.321 484.196 236.273 483.772 237.817 484.053Z" fill="black"/>
<path d="M463.545 432.735C462.715 432.42 461.823 432.249 460.88 432.284C460.833 432.285 458.461 432.395 457.544 432.443C454.928 432.575 452.007 432.746 448.853 432.962C439.839 433.582 430.769 434.434 422.148 435.559C412.756 436.785 404.459 438.266 397.611 440.044C388.346 442.449 381.801 445.296 377.969 449.315C373.777 453.712 376.984 461.006 383.058 460.881C383.192 460.878 383.483 460.868 383.921 460.866C384.674 460.863 385.544 460.864 386.52 460.881C389.324 460.932 392.379 461.075 395.583 461.311C401.761 461.767 407.71 462.555 413.053 463.733C416.626 464.52 419.812 465.466 422.579 466.561C426.087 467.949 430.08 466.211 431.467 462.703C432.855 459.195 431.135 455.239 427.627 453.85C424.129 452.466 420.237 451.332 415.996 450.397C415.906 450.377 415.809 450.356 415.719 450.336C418.384 449.906 420.983 449.472 423.906 449.091C432.22 448.006 441.054 447.191 449.811 446.589C452.879 446.378 455.698 446.199 458.235 446.071C459.12 446.026 461.252 445.945 461.385 445.941C465.155 445.802 468.081 442.64 467.943 438.869C467.839 436.041 466.033 433.681 463.545 432.735Z" fill="black"/>
<path d="M240.784 344.791C238.275 343.9 235.349 344.549 233.438 346.636C230.89 349.418 231.076 353.723 233.858 356.271C233.845 356.258 233.932 356.351 234.1 356.527C234.447 356.892 234.857 357.356 235.33 357.932C236.761 359.675 238.335 361.883 239.937 364.608C243.583 370.806 246.789 378.496 249.333 387.693C245.367 384.748 241.405 382.032 237.472 379.844C234.609 378.252 231.804 376.902 229.068 375.841C225.55 374.478 221.587 376.225 220.224 379.744C218.862 383.262 220.609 387.224 224.127 388.587C226.242 389.406 228.503 390.474 230.844 391.775C235.2 394.198 239.732 397.34 244.289 400.938C247.121 403.173 249.78 405.425 252.18 407.615C253.016 408.377 253.767 409.087 254.403 409.698C254.774 410.054 255.008 410.292 255.12 410.405C259.753 415.045 267.634 411.142 266.726 404.648C266.183 400.761 265.542 397.006 264.79 393.396C261.749 378.829 257.188 367.001 251.712 357.692C249.747 354.351 247.776 351.551 245.899 349.264C245.214 348.43 244.572 347.712 243.996 347.107C243.611 346.702 243.325 346.396 243.108 346.197C242.413 345.56 241.62 345.088 240.784 344.791Z" fill="black"/>
<path d="M252.3 507.964C251.274 507.652 250.781 507.535 250.062 507.385C240.666 505.426 228.48 511.059 213.221 521.779C208.271 525.256 203.366 529.033 198.692 532.889C197.046 534.247 195.536 535.537 194.2 536.696C193.373 537.413 192.777 537.951 192.415 538.276C189.742 540.68 189.394 544.746 191.613 547.573C195.686 552.762 200.69 555.851 206.486 557.17C210.677 558.123 214.405 558.128 220.203 557.573C220.62 557.533 223.874 557.216 224.445 557.176C235.245 556.412 243.613 551.727 249.295 543.531C254.155 536.521 256.917 527.199 258.089 515.467C258.421 512.143 256.301 509.089 253.076 508.216C252.905 508.17 252.338 507.975 252.3 507.964ZM243.527 521.033C240.832 535.721 234.623 542.762 223.487 543.549C222.784 543.599 219.27 543.938 218.88 543.975C213.788 544.463 210.437 544.251 207.715 543.188C212.04 539.631 216.549 536.119 221.075 532.941C230.354 526.423 238.408 522.23 243.527 521.033Z" fill="black"/>
<path d="M241.696 470.933C237.065 469.748 231.725 470.389 226.031 472.974C215.771 477.631 203.808 487.875 195.456 499.228C185.38 512.925 181.286 526.85 186.204 538.447C190.097 547.625 195.561 553.401 202.589 556.139C207.838 558.184 212.523 558.343 219.989 557.591C220.373 557.552 221.973 557.399 222.373 557.359C223.212 557.275 223.852 557.216 224.445 557.175C236.337 556.334 245.253 550.773 250.914 541.097C255.651 533.003 258.016 522.286 258.642 508.662C259.178 496.966 257.458 486.707 253.145 479.772C250.252 475.12 246.326 472.118 241.696 470.933ZM237.817 484.053C239.362 484.335 240.51 485.321 241.542 486.98C244.125 491.134 245.426 498.83 245.003 508.018C243.924 531.537 237.489 542.557 223.487 543.548C222.74 543.601 221.949 543.676 220.988 543.772C220.557 543.815 218.986 543.976 218.632 544.012C213.177 544.562 210.231 544.445 207.556 543.402C204.179 542.086 201.303 539.054 198.774 533.092C196.166 526.941 198.919 517.541 206.437 507.323C213.469 497.763 223.661 489.033 231.669 485.399C234.321 484.196 236.273 483.772 237.817 484.053Z" fill="black"/>
<path d="M521.755 597.106C521.755 597.106 571.962 583.618 587.202 593.389C602.443 603.16 630.277 633.892 625.746 663.152C621.214 692.412 528.051 789.564 458.336 707.039" fill="#F3886D"/>
<path d="M570.282 582.155C565.886 582.113 561.47 582.429 557.22 582.843C549.889 583.557 542.598 584.751 535.376 586.187C530.15 587.225 524.931 588.37 519.782 589.749C515.714 590.839 513.287 595.024 514.376 599.093C515.466 603.161 519.651 605.557 523.72 604.468C530.097 602.76 536.6 601.413 543.095 600.249C549.972 599.017 556.896 598.016 563.876 597.624C567.945 597.396 572.074 597.339 576.126 597.843C578.012 598.077 579.951 598.436 581.72 599.155C583.509 599.883 585.049 601.144 586.563 602.311C588.695 603.955 590.735 605.742 592.689 607.593C600.326 614.828 607.027 623.302 611.876 632.655C615.375 639.404 617.972 646.796 618.407 654.437C618.57 657.29 618.541 660.342 617.813 663.124C616.443 668.366 613.203 673.434 610.157 677.843C604.533 685.984 597.767 693.39 590.47 700.061C587.096 703.146 583.581 706.082 579.939 708.843C560.816 723.34 536.57 734.378 512.063 730.874C508.562 730.373 505.088 729.579 501.72 728.499C496.639 726.87 491.779 724.61 487.22 721.843C478.504 716.552 471.068 709.536 464.47 701.811C461.578 698.43 456.476 698.014 453.095 700.905C449.714 703.797 449.328 708.899 452.22 712.28C459.941 721.298 468.689 729.424 478.876 735.593C485.287 739.475 492.223 742.519 499.439 744.561C504.095 745.879 508.872 746.766 513.689 747.218C546.678 750.313 578.582 732.806 602.001 710.905C610.251 703.19 617.829 694.651 624.063 685.218C627.761 679.624 631.246 673.547 632.907 666.999C633.665 664.013 633.936 660.915 634.001 657.843C634.12 652.163 633.304 646.465 631.782 640.999C627.352 625.082 617.283 610.525 605.72 598.905C602.634 595.805 599.378 592.852 595.907 590.187C593.96 588.691 591.959 587.181 589.782 586.03C587.718 584.938 585.484 584.181 583.22 583.624C579.04 582.595 574.679 582.197 570.282 582.155Z" fill="black"/>
<path d="M626.88 662.911C531.252 637.141 478.431 670.906 450.84 703.921C524.701 787.548 619.903 694.138 626.88 662.911Z" fill="#F9B192"/>
<path d="M594.868 648.781C586.265 647.044 577.549 645.74 568.783 645.188C551.757 644.116 534.544 645.599 518.196 650.618C511.604 652.642 505.154 655.24 499.104 658.559C496.039 660.241 492.959 662.069 490.275 664.33C487.391 666.767 487.013 671.09 489.45 673.975C491.887 676.859 496.209 677.237 499.094 674.8C499.07 674.82 499.267 674.673 499.289 674.656C499.37 674.593 499.409 674.549 499.492 674.486C499.719 674.314 499.96 674.138 500.191 673.973C500.842 673.508 501.491 673.061 502.166 672.632C504.219 671.326 506.371 670.157 508.555 669.086C514.875 665.988 521.594 663.722 528.446 662.145C549.325 657.338 571.141 658.658 591.985 662.935C595.894 663.731 599.708 661.208 600.504 657.3C601.3 653.391 598.777 649.577 594.868 648.781Z" fill="black"/>
<path d="M545.849 649.927C542.132 649.258 538.569 651.735 537.9 655.452C537.002 660.366 536.06 665.269 535.129 670.176C534.291 674.585 533.487 679.025 533.049 683.495C532.683 687.467 535.606 690.991 539.578 691.357C543.55 691.724 547.047 688.791 547.414 684.819C547.722 681.206 548.353 677.602 548.854 674.013C549.607 668.613 550.425 663.246 551.375 657.877C552.043 654.16 549.565 650.596 545.849 649.927Z" fill="black"/>
<path d="M589.49 579.273C586.161 578.022 581.277 577.055 573.935 575.876C567.617 574.861 560.365 573.932 557.526 573.74L556.139 593.854C558.233 593.996 564.988 594.865 570.749 595.79C574.135 596.334 577.088 596.875 579.349 597.371C580.487 597.621 581.422 597.854 582.059 598.045C589.707 602.958 599.414 612.753 606.486 623.499C614.955 636.369 618.953 649.155 617.362 659.966C616.599 665.147 610.451 675.361 600.978 685.801C589.873 698.04 575.75 709.122 560.899 716.719C543.937 725.396 526.801 729.209 510.51 727.274C491.896 725.062 474.381 715.415 458.282 697.136L443.156 710.449C462.449 732.354 484.462 744.465 508.152 747.28C528.737 749.726 549.786 745.069 570.095 734.68C603.677 717.5 634.221 683.822 637.301 662.894C639.719 646.471 634.261 629.065 623.311 612.424C614.573 599.146 602.592 587.057 592.331 580.639C591.532 580.14 590.6 579.69 589.49 579.273Z" fill="black"/>
<path d="M582.864 584.281C577.683 583 572.136 582.871 566.888 582.996C558.043 583.208 549.23 584.41 540.533 585.973C533.64 587.211 526.752 588.668 519.983 590.481C516.319 591.462 514.144 595.21 515.125 598.874C516.106 602.538 519.881 604.722 523.545 603.741C530.486 601.882 537.554 600.447 544.629 599.229C551.536 598.039 558.533 597.058 565.542 596.792C569.105 596.657 572.672 596.653 576.215 597.093C578.29 597.351 580.434 597.738 582.358 598.586C584.395 599.484 586.292 601.115 588.012 602.495C591.01 604.898 593.827 607.511 596.49 610.28C605.925 620.088 614.363 632.401 617.789 645.725C618.842 649.822 619.371 654.048 619.183 658.28C619.109 659.963 618.98 661.677 618.554 663.313C617.967 665.563 616.995 667.736 615.942 669.803C614.437 672.759 612.694 675.586 610.81 678.314C605.154 686.505 598.345 693.931 591.009 700.642C587.618 703.743 584.084 706.675 580.423 709.452C561.129 724.086 536.676 735.211 511.951 731.678C508.39 731.169 504.895 730.33 501.466 729.248C496.334 727.628 491.417 725.297 486.82 722.506C478.031 717.172 470.503 710.108 463.849 702.319C461.245 699.274 456.671 698.938 453.626 701.542C450.582 704.146 450.219 708.711 452.823 711.756C460.488 720.709 469.191 728.764 479.305 734.889C485.657 738.736 492.489 741.78 499.637 743.803C504.246 745.108 508.994 745.963 513.762 746.411C546.518 749.485 578.216 732.08 601.468 710.343C610.093 702.28 618.038 693.293 624.393 683.319C627.642 678.22 630.654 672.712 632.152 666.814C632.809 664.226 633.087 661.53 633.196 658.868C633.425 653.256 632.716 647.642 631.298 642.214C627.075 626.041 616.867 611.17 605.192 599.436C601.791 596.018 598.17 592.782 594.289 589.917C592.268 588.425 590.213 586.991 587.905 585.978C586.278 585.265 584.591 584.708 582.864 584.281Z" fill="black"/>
<path opacity="0.196343" d="M151.781 660.547C151.781 660.547 396.68 740.019 563.691 505.286L556.362 584.078C556.362 584.078 502.186 639.733 526.473 654.546L583.57 655.655L610.792 680.814L575.927 725.863L534.351 741.282L488.142 733.036L458.444 713.822L399.11 745.459L298.368 751.528L229.807 726.726L187.903 693.975L151.781 660.547Z" fill="black"/>
<path opacity="0.196343" d="M57.4531 570.732L105.445 556.619L123.676 616.639L57.4531 570.732Z" fill="black"/>
</svg>
