<svg width="800" height="800" viewBox="0 0 800 800" fill="none" xmlns="http://www.w3.org/2000/svg">
<path d="M186.018 395.686C186.018 395.686 171.575 361.035 148.452 354.736C125.328 348.436 89.3266 434.854 168.386 502.428" fill="#F3886D"/>
<path d="M186.018 395.686C186.018 395.686 171.575 361.035 148.452 354.736C125.328 348.436 89.3266 434.854 168.386 502.428" stroke="black" stroke-width="0.01875" stroke-miterlimit="10" stroke-linejoin="round"/>
<path d="M124.24 379.629C156.445 421.45 164.955 477.676 164.955 477.676L153.989 488.557C117.616 449.088 115.487 406.045 124.24 379.629Z" fill="#F9B192"/>
<path d="M383.936 78.2344C409.509 78.2343 430.246 98.9713 430.246 124.545C430.246 136.295 425.716 147.166 418.128 155.474C422.598 161.691 427.468 168.046 433.368 174.847C447.206 190.802 463.815 201.213 491.543 213.341C493.792 214.324 505.903 219.473 506.558 219.752C529.43 229.476 541.339 235.376 553.571 244.13C569.949 255.851 581.864 270.282 589.534 289.062C600.968 317.058 599.7 342.981 589 366.021C604.902 395.56 614.557 428.052 617.118 461.874C625.305 458.179 633.724 456.567 642.789 457.15C657.631 458.106 669.688 466.935 678.752 480.826C685.536 491.222 690.511 504.362 693.176 517.463C698.864 545.425 673.67 583.979 638.515 604.319C625.229 612.006 610.506 616.364 595.073 618.097C587.561 618.941 580.662 618.929 574.069 618.631C529.242 682.598 456.171 721.767 376.345 721.767C245.463 721.767 138.847 617.576 135.037 487.405C112.051 457.805 102.958 424.447 106.919 393.576C110.708 364.049 126.404 340.053 146.622 340.574C148.496 340.622 150.294 340.904 152.077 341.389C159.243 343.342 165.664 347.153 171.619 352.215C172.907 350.154 174.294 348.184 175.639 346.169C154.82 300.555 179.711 246.032 229.569 221.973C274.364 200.358 311.68 179.943 327.307 166.665C331.888 162.773 337.533 155.993 343.784 147.208C339.908 140.373 337.626 132.657 337.626 124.545C337.626 98.9715 358.363 78.2345 383.936 78.2344ZM383.936 92.0684C366.002 92.0684 351.46 106.61 351.46 124.545C351.46 133.332 354.985 141.277 360.655 147.123C352.833 158.937 344.089 170.548 336.249 177.209C315.828 194.559 265.117 220.18 235.587 234.429C191.475 255.715 167.4 306.129 191.639 347.097C185.172 356.052 179.363 365.517 174.234 375.384C167.827 366.592 159.122 357.653 148.45 354.745C147.727 354.549 147 354.427 146.256 354.408C125.48 353.873 97.9336 421.329 148.703 482.569C149.963 607.244 251.372 707.933 376.345 707.933C456.258 707.934 526.491 666.715 567.124 604.432C577.191 605.532 606.013 607.144 631.598 592.341C662.877 574.244 683.813 540.814 679.624 520.219C675.434 499.624 663.213 472.33 641.889 470.956C628.172 470.073 616.516 475.899 603.846 487.883C603.93 485.334 604.043 482.805 604.043 480.235C604.043 438.718 592.862 399.817 573.451 366.302C583.21 348.973 589.15 324.677 576.74 294.292C550.252 229.437 470.328 238.574 422.908 183.901C412.584 171.999 405.181 161.815 399.486 152.887C409.524 147.363 416.412 136.812 416.412 124.545C416.412 106.61 401.871 92.0683 383.936 92.0684Z" fill="black"/>
<path d="M146.424 347.66C147.706 347.693 148.964 347.88 150.22 348.222C161.436 351.278 171.084 359.573 179.744 371.475C181.249 373.544 181.458 376.291 180.278 378.561C164.018 409.852 155.393 444.455 155.394 480.235C155.394 480.43 155.396 480.638 155.422 481.135C155.422 481.14 155.473 482.106 155.478 482.541C155.543 488.894 147.584 491.789 143.528 486.899C119.444 457.864 110.061 424.803 113.948 394.476C117.328 368.099 130.949 347.261 146.424 347.66ZM146.087 361.156C143.709 361.095 139.979 363.786 136.386 369.282C132.012 375.974 128.707 385.463 127.332 396.191C124.601 417.504 129.542 440.505 142.656 462.24C144.968 432.182 153.059 403.156 166.36 376.34C160.061 368.483 153.446 363.113 146.677 361.269C146.425 361.2 146.238 361.16 146.087 361.156Z" fill="black"/>
<path d="M604.037 480.223C604.037 354.467 502.092 252.521 376.335 252.521C250.579 252.521 148.633 354.467 148.633 480.223C148.633 605.979 250.579 707.926 376.335 707.926C502.092 707.926 604.037 605.979 604.037 480.223Z" fill="#F3886D" stroke="black" stroke-width="0.01875" stroke-miterlimit="10" stroke-linecap="round" stroke-linejoin="round"/>
<path d="M151.796 517.859C151.621 516.809 151.422 515.764 151.261 514.71C150.841 511.95 150.513 509.151 150.193 506.359C150.074 505.316 149.932 504.284 149.827 503.238C149.558 500.569 149.356 497.891 149.181 495.196C149.106 494.041 149.013 492.897 148.956 491.737C148.766 487.931 148.646 484.091 148.646 480.237C148.647 456.056 152.404 432.736 159.387 410.871C165.459 407.999 172.025 406.235 178.985 405.922C187.687 405.53 196.914 407.251 206.232 411.32C232.722 422.889 252.781 450.412 259.74 480.715C285.868 453.673 335.958 442.859 387.76 456.618C455.21 474.534 499.85 527.206 487.438 574.263C475.36 620.054 413.713 643.519 348.255 628.25C365.922 648.792 375.888 669.022 373.448 683.276C372.139 690.924 366.026 699.471 356.915 707.036C290.629 701.43 232.405 667.5 194.507 617.312C191.982 608.104 190.025 599.26 188.995 591.612C181.66 586.505 174.344 579.259 167.401 570.777C160.153 554.076 154.88 536.343 151.796 517.859Z" fill="#F9B192"/>
<path d="M376.345 245.762C505.828 245.762 610.791 350.753 610.791 480.236C610.791 609.72 505.828 714.683 376.345 714.683C246.861 714.683 141.898 609.72 141.898 480.236C141.898 350.753 246.861 245.762 376.345 245.762ZM376.345 259.258C254.315 259.258 155.395 358.207 155.395 480.236C155.395 602.266 254.315 701.186 376.345 701.186C498.374 701.186 597.295 602.266 597.294 480.236C597.294 358.207 498.374 259.258 376.345 259.258Z" fill="black"/>
<path d="M376.345 245.762C505.828 245.762 610.791 350.753 610.791 480.236C610.791 609.72 505.828 714.683 376.345 714.683C246.861 714.683 141.898 609.72 141.898 480.236C141.898 350.753 246.861 245.762 376.345 245.762ZM376.345 259.258C254.315 259.258 155.395 358.207 155.395 480.236C155.395 602.266 254.315 701.186 376.345 701.186C498.374 701.186 597.295 602.266 597.294 480.236C597.294 358.207 498.374 259.258 376.345 259.258Z" fill="black"/>
<path d="M327.475 515.299C330.104 515.269 332.627 516.786 333.745 519.348C338.465 530.163 346.235 537.204 356.436 541.308C365.507 544.957 375.226 545.883 383.485 545.245C384.242 545.186 384.746 545.132 384.948 545.104C388.639 544.592 392.055 547.177 392.568 550.868C393.08 554.56 390.495 557.947 386.803 558.46C386.339 558.525 385.563 558.605 384.526 558.685C374.375 559.469 362.703 558.367 351.403 553.821C338.059 548.453 327.581 538.97 321.373 524.747C319.882 521.331 321.444 517.352 324.86 515.862C325.714 515.489 326.598 515.309 327.475 515.299Z" fill="black"/>
<path d="M204.797 478.239C206.495 477.926 208.324 478.25 209.858 479.307C212.927 481.422 213.688 485.63 211.573 488.699C211.427 488.911 211.198 489.247 210.87 489.683C210.352 490.371 209.749 491.123 209.071 491.932C207.148 494.228 204.934 496.527 202.491 498.681C197.258 503.293 191.589 506.667 185.452 508.212C177.447 510.229 169.374 508.902 161.833 503.742C158.757 501.637 157.956 497.426 160.061 494.35C162.166 491.275 166.377 490.502 169.453 492.607C177.258 497.948 185.211 495.933 193.578 488.558C195.474 486.886 197.213 485.075 198.723 483.272C199.247 482.647 199.692 482.064 200.073 481.557C200.2 481.388 200.468 481.049 200.467 481.051C201.524 479.516 203.098 478.551 204.797 478.239Z" fill="black"/>
<path d="M345.949 541.561C350.354 541.561 353.684 544.321 355.706 548.281C357.204 551.216 357.983 554.879 357.984 558.685C357.984 562.492 357.204 566.154 355.706 569.089C353.684 573.05 350.354 575.809 345.949 575.809C341.544 575.809 338.215 573.049 336.192 569.089C334.694 566.154 333.915 562.492 333.915 558.685C333.915 554.878 334.694 551.216 336.192 548.281C338.214 544.32 341.544 541.561 345.949 541.561Z" fill="black"/>
<path d="M184.666 496.066C192.026 496.066 196.392 503.197 196.391 510.94C196.391 518.683 192.026 525.842 184.666 525.842C177.306 525.842 172.913 518.683 172.913 510.94C172.913 503.197 177.306 496.066 184.666 496.066Z" fill="black"/>
<path d="M234.742 624.03C237.341 623.629 240.05 624.773 241.519 627.151C246.449 635.134 250.707 639.034 253.975 639.973C255.534 640.421 256.757 640.069 258.024 639.073C258.383 638.79 258.719 638.498 258.98 638.201C259.101 638.063 259.133 638.001 259.092 638.061C261.721 634.207 267.367 634.122 270.114 637.892C279.225 650.393 287.119 656.274 293.565 657.209C297.741 657.814 301.4 656.232 304.727 652.963C305.805 651.904 306.749 650.761 307.539 649.617C307.809 649.226 308.059 648.855 308.242 648.549C308.333 648.396 308.357 648.319 308.355 648.324C310.093 645.027 314.196 643.774 317.493 645.512C320.79 647.25 322.043 651.325 320.305 654.622C320.198 654.824 320.044 655.101 319.827 655.466C319.495 656.021 319.09 656.622 318.646 657.265C317.396 659.075 315.932 660.881 314.203 662.579C308.118 668.557 300.489 671.849 291.625 670.565C282.478 669.239 273.227 662.759 263.76 651.36C259.833 653.564 255.266 654.372 250.263 652.935C243.256 650.922 236.58 644.815 230.046 634.237C228.088 631.066 229.069 626.916 232.24 624.958C233.032 624.468 233.876 624.164 234.742 624.03Z" fill="black"/>
<path d="M317.831 566.389L336.473 596.981L324.945 604.011L306.303 573.419L317.831 566.389Z" fill="#FF0000" fill-opacity="0.5"/>
<path d="M276.076 546.453L312.18 606.569L300.595 613.542L264.492 553.398L276.076 546.453Z" fill="#FF0000" fill-opacity="0.5"/>
<path d="M248.213 543.107L281.645 601.17L269.948 607.89L236.516 549.855L248.213 543.107Z" fill="#FF0000" fill-opacity="0.5"/>
<path d="M226.166 541.842L254.537 592.595L242.756 599.175L214.385 548.422L226.166 541.842Z" fill="#FF0000" fill-opacity="0.5"/>
<path d="M212.053 554.467L226.506 581.179L214.64 587.59L200.187 560.878L212.053 554.467Z" fill="#FF0000" fill-opacity="0.5"/>
<path d="M178.677 399.172C188.6 398.725 198.854 400.731 208.932 405.133C233.818 416.001 253.803 440.061 263.256 468.566C293.098 444.83 341.345 437.301 389.505 450.093C460.161 468.86 507.483 524.717 493.962 575.976C481.966 621.46 426.369 646.297 364.283 637.948C376.382 655.3 382.322 671.496 380.113 684.399C378.51 693.766 371.603 703.613 361.218 712.235C359.856 713.367 358.119 713.903 356.354 713.754C289.505 708.1 229.003 674.218 189.109 621.387C188.593 620.704 188.238 619.906 188.012 619.081C185.618 610.347 183.911 602.456 182.811 595.378C175.928 590.201 168.992 583.38 162.172 575.049C161.777 574.567 161.464 574.045 161.216 573.474C153.699 556.152 148.287 537.881 145.133 518.982C145.133 518.982 144.691 516.327 144.598 515.72C144.226 513.279 143.958 511.087 143.502 507.116C143.467 506.809 143.167 504.492 143.108 503.91C142.854 501.384 142.665 498.764 142.461 495.644C142.442 495.337 142.24 492.708 142.208 492.073C141.999 487.888 141.899 483.994 141.899 480.235C141.899 455.706 145.647 431.68 152.949 408.816C153.518 407.034 154.802 405.567 156.492 404.767C163.54 401.433 170.99 399.518 178.677 399.172ZM179.296 412.668C174.383 412.889 169.623 414.127 164.984 415.986C158.724 436.614 155.396 458.184 155.396 480.235C155.396 483.754 155.507 487.425 155.705 491.398C155.731 491.922 155.88 494.408 155.902 494.744C156.095 497.716 156.311 500.21 156.548 502.561C156.594 503.017 156.846 505.243 156.886 505.598C157.323 509.408 157.586 511.464 157.926 513.695C157.998 514.169 158.409 516.45 158.46 516.76C158.46 516.76 166.276 550.602 173.279 567.204C179.918 575.21 186.536 581.675 192.849 586.071C194.401 587.152 195.436 588.835 195.688 590.71C196.588 597.393 198.309 605.423 200.665 614.189C237.695 662.669 293.173 693.971 354.61 699.976C361.494 693.769 365.899 687.332 366.785 682.149C368.728 670.799 360.178 652.447 343.138 632.634C338.883 627.685 343.447 620.185 349.802 621.668C412.344 636.257 469.971 614.042 480.916 572.546C492.218 529.698 450.273 480.207 386.018 463.14C337.495 450.251 289.47 459.674 264.605 485.409C260.884 489.261 254.36 487.452 253.161 482.232C246.479 453.131 227.334 427.898 203.533 417.504C195.309 413.912 187.112 412.316 179.296 412.668Z" fill="black" fill-opacity="0.5"/>
<path d="M412.257 637.537C413.564 628.1 400.543 617.719 383.174 614.35C365.806 610.981 350.665 615.9 349.358 625.336C348.05 634.773 361.071 645.154 378.44 648.523C395.809 651.892 410.949 646.974 412.257 637.537Z" fill="#FF497F" stroke="black" stroke-width="0.01875" stroke-miterlimit="10" stroke-linejoin="round"/>
<path d="M187.937 566.479C189.244 557.043 176.224 546.661 158.855 543.292C141.486 539.923 126.346 544.842 125.038 554.279C123.731 563.716 136.751 574.097 154.12 577.466C171.489 580.835 186.629 575.916 187.937 566.479Z" fill="#FF497F" stroke="black" stroke-width="0.01875" stroke-miterlimit="10" stroke-linejoin="round"/>
<path d="M369.512 606.597C374.241 606.351 379.308 606.72 384.471 607.721C404.905 611.685 420.886 624.429 418.943 638.454C416.938 652.93 397.81 659.162 377.16 655.156C356.726 651.193 340.744 638.421 342.688 624.395C344.192 613.539 355.326 607.334 369.512 606.597ZM371.283 620.065C367.96 620.156 364.916 620.635 362.342 621.471C358.264 622.796 356.272 624.606 356.043 626.251C355.788 628.099 357.367 630.947 361.105 633.927C365.634 637.539 372.292 640.444 379.719 641.885C387.104 643.317 394.14 643.08 399.289 641.407C403.366 640.082 405.359 638.244 405.587 636.599C405.843 634.751 404.263 631.93 400.526 628.95C395.997 625.339 389.311 622.406 381.884 620.965C378.191 620.249 374.607 619.974 371.283 620.065Z" fill="black"/>
<path d="M145.188 535.544C149.917 535.298 154.984 535.667 160.147 536.669C180.581 540.632 196.562 553.376 194.619 567.402C192.614 581.877 173.486 588.109 152.836 584.104C132.402 580.14 116.421 567.368 118.363 553.343C119.868 542.486 131.002 536.281 145.188 535.544ZM146.959 548.984C143.636 549.075 140.592 549.554 138.018 550.39C133.94 551.715 131.947 553.553 131.719 555.198C131.463 557.046 133.043 559.895 136.781 562.875C141.31 566.486 147.967 569.391 155.395 570.832C162.78 572.264 169.816 572.027 174.965 570.354C179.042 569.029 181.035 567.191 181.263 565.546C181.519 563.698 179.939 560.878 176.202 557.898C171.672 554.286 164.987 551.352 157.56 549.912C153.867 549.196 150.283 548.893 146.959 548.984Z" fill="black"/>
<path d="M562.466 603.898C562.466 603.898 600.316 610.428 631.595 592.331C662.874 574.234 683.805 540.815 679.616 520.22C675.427 499.626 663.213 472.341 641.889 470.968C620.565 469.594 604.276 484.222 581.305 513.44" fill="#F3886D"/>
<path d="M562.466 603.898C562.466 603.898 600.316 610.429 631.595 592.331C662.874 574.234 683.805 540.815 679.616 520.22C675.427 499.626 663.213 472.341 641.889 470.968C620.565 469.594 604.276 484.222 581.305 513.44" stroke="black" stroke-width="0.01875" stroke-miterlimit="10" stroke-linejoin="round"/>
<path d="M672.172 497.584C675.647 505.029 678.158 513.016 679.624 520.219C683.813 540.814 662.877 574.243 631.598 592.341C607.383 606.352 579.729 605.597 568.249 604.544C594.367 527.546 640.638 504.229 672.172 497.584Z" fill="#F9B192"/>
<path d="M641.806 504.387C644.394 504.856 646.564 506.834 647.177 509.561C647.994 513.197 645.695 516.814 642.059 517.631C642.069 517.629 641.942 517.658 641.665 517.743C641.103 517.916 640.433 518.156 639.641 518.474C637.256 519.433 634.535 520.829 631.571 522.72C622.848 528.288 614.018 536.839 605.675 549.067C604.722 550.463 603.765 551.916 602.835 553.397C600.853 556.553 596.712 557.487 593.556 555.506C590.399 553.524 589.437 549.356 591.419 546.199C592.44 544.572 593.462 542.986 594.512 541.447C603.884 527.712 614.058 517.881 624.317 511.333C627.997 508.984 631.457 507.228 634.608 505.962C635.754 505.501 636.78 505.12 637.701 504.837C638.314 504.649 638.781 504.545 639.107 504.472C640.016 504.268 640.943 504.231 641.806 504.387Z" fill="black"/>
<path d="M615.966 523.06C618.374 523.166 620.828 523.686 623.361 524.578C627.025 525.869 630.76 527.892 634.524 530.427C636.746 531.923 638.836 533.501 640.766 535.094C641.937 536.062 642.813 536.839 643.324 537.315C646.051 539.856 646.202 544.12 643.662 546.847C641.121 549.574 636.857 549.725 634.13 547.185C634.068 547.127 633.924 547.006 633.68 546.791C633.251 546.413 632.75 545.989 632.19 545.526C630.58 544.196 628.818 542.849 626.988 541.617C624.097 539.671 621.331 538.175 618.89 537.315C617.532 536.837 616.32 536.571 615.347 536.528C611.624 536.363 608.743 533.222 608.908 529.499C609.073 525.775 612.242 522.894 615.966 523.06Z" fill="black"/>
<path d="M642.311 464.236C654.611 465.028 664.868 472.52 672.819 484.706C679.07 494.287 683.733 506.588 686.231 518.869C691.207 543.328 667.771 579.184 634.972 598.161C634.248 598.581 633.512 598.999 632.779 599.399C621.002 605.823 608.487 609.618 595.72 611.264C586.603 612.44 578.232 612.417 571.117 611.686C569.249 611.494 567.892 611.299 567.096 611.152C563.431 610.475 561.02 606.972 561.697 603.307C562.374 599.642 565.877 597.204 569.542 597.88C569.542 597.88 570.002 597.961 570.217 597.993C570.864 598.087 571.61 598.183 572.495 598.274C578.632 598.904 585.961 598.914 593.977 597.88C605.163 596.438 616.093 593.135 626.312 587.561C626.946 587.215 627.598 586.855 628.224 586.493C656.53 570.115 676.634 539.353 673.016 521.568C668.104 497.423 655.842 478.63 641.468 477.705C624.653 476.622 610.692 486.973 586.61 517.604C584.306 520.534 580.064 521.06 577.134 518.757C574.204 516.453 573.706 512.211 576.009 509.281C588.929 492.847 598.665 482.4 608.204 475.315C619.239 467.118 630.17 463.454 642.311 464.236Z" fill="black"/>
<path d="M546.363 396.642C546.363 396.642 603.216 359.162 576.727 294.306C550.238 229.451 470.332 238.575 422.911 183.903C377.521 131.57 383.349 108.752 383.349 108.752C383.349 108.752 356.668 159.874 336.248 177.224C315.828 194.574 265.123 220.194 235.593 234.443C186.273 258.242 161.805 318.48 202.149 361.183C242.493 403.887 424.627 467.586 546.363 396.642Z" fill="#93E9CA"/>
<path d="M185.086 291.424C213.932 334.337 236.715 378.051 362.285 403.249C462.666 423.391 541.006 380.706 579.551 352.721C569.821 381.06 546.372 396.641 546.372 396.641C424.637 467.585 242.498 403.888 202.154 361.184C182.181 340.044 178.139 314.61 185.086 291.424Z" fill="#82D4D5"/>
<path d="M383.346 108.742C383.346 108.742 377.517 131.569 422.908 183.901C442.293 206.251 467.085 217.888 491.459 228.328C452.608 268.694 349.265 302.309 254.257 225.206C283.286 210.708 319.591 191.363 336.249 177.209C356.669 159.859 383.346 108.742 383.346 108.742Z" fill="#B7F2CC"/>
<path d="M383.346 108.742C383.346 108.742 377.88 130.688 420.18 180.668C391.272 195.644 374.16 206.585 336.558 176.9C356.938 159.308 383.346 108.742 383.346 108.742Z" fill="#DFFFEA"/>
<path d="M383.485 101.967C387.379 102.125 391.136 105.577 389.896 110.43C389.935 110.278 389.935 110.235 389.924 110.318C389.794 111.355 389.813 113.016 390.149 115.323C390.67 118.891 391.857 123.148 393.861 128.145C399.451 142.084 410.37 159.166 427.996 179.488C442.671 196.407 460.102 207.323 488.702 219.837C490.975 220.831 503.15 225.999 503.802 226.276C526.209 235.807 537.756 241.561 549.437 249.923C564.768 260.898 575.839 274.274 582.982 291.762C590.79 310.88 592.329 329.065 588.521 346.086C585.442 359.845 579.044 372.198 570.328 383.061C565.959 388.507 561.267 393.224 556.579 397.232C554.925 398.646 553.394 399.876 551.996 400.916C551.125 401.563 550.479 402.005 550.084 402.265C549.98 402.334 549.881 402.4 549.774 402.462C492.938 435.585 419.367 442.645 342.49 428.162C279.539 416.303 220.231 390.168 197.233 365.825C176.41 343.784 170.364 315.922 178.788 288.726C186.661 263.307 206.571 240.947 232.661 228.357C278.06 206.45 315.612 185.923 331.889 172.093C335.208 169.273 338.954 165.202 343.052 160.058C347.111 154.964 351.424 148.905 355.874 142.119C361.104 134.144 366.258 125.582 371.114 117.01C372.814 114.008 374.374 111.212 375.725 108.715C376.196 107.844 377.288 105.753 377.356 105.622C378.746 102.958 381.149 101.872 383.485 101.967ZM379.802 128.876C375.708 135.92 371.484 142.932 367.149 149.542C362.487 156.652 357.969 163.013 353.624 168.466C349.027 174.236 344.681 178.894 340.606 182.356C323.092 197.237 285.117 218.055 238.538 240.532C215.751 251.527 198.434 270.958 191.694 292.718C184.69 315.332 189.621 338.102 207.046 356.546C227.757 378.468 284.585 403.51 344.992 414.89C418.88 428.81 489.18 422.111 542.829 390.906C543.05 390.756 543.375 390.52 543.954 390.09C545.112 389.23 546.42 388.179 547.834 386.969C551.911 383.483 555.973 379.348 559.784 374.598C567.286 365.247 572.768 354.727 575.362 343.134C578.567 328.807 577.237 313.423 570.469 296.852C564.331 281.824 554.905 270.439 541.564 260.889C530.931 253.277 520.046 247.862 498.516 238.704C497.872 238.43 485.621 233.195 483.304 232.181C453.026 218.933 434.089 207.077 417.817 188.317C399.263 166.925 387.511 148.616 381.32 133.178C380.71 131.655 380.291 130.295 379.802 128.876Z" fill="black"/>
<path d="M416.406 124.544C416.406 106.61 401.868 92.0703 383.933 92.0703C365.998 92.0703 351.459 106.61 351.459 124.544C351.459 142.479 365.998 157.018 383.933 157.018C401.868 157.018 416.406 142.479 416.406 124.544Z" fill="#FFA0CA"/>
<path d="M383.935 85.3203C405.597 85.3203 423.16 102.883 423.16 124.545C423.16 146.206 405.597 163.769 383.935 163.769C362.274 163.769 344.711 146.206 344.711 124.545C344.711 102.883 362.274 85.3202 383.935 85.3203ZM383.935 98.8168C369.728 98.8168 358.208 110.337 358.208 124.545C358.208 138.752 369.728 150.272 383.935 150.272C398.143 150.272 409.663 138.752 409.663 124.545C409.663 110.337 398.143 98.8168 383.935 98.8168Z" fill="black"/>
<path opacity="0.202659" d="M178.802 312.461C381.185 470.985 587.045 338.948 587.045 338.948L578.554 375.501L585.583 380.927L604.45 428.784L607.628 478.693L590.504 502.172C586.443 518.706 627.647 518.424 627.647 518.424L666.816 557.873L629.953 592.092L569.247 611.522L530.163 651.533L472.662 689.239L417.467 716.401L345.738 711.79L289.615 697.984L250.531 671.778C296.414 672.572 335.685 663.056 369.195 647.155C377.025 643.439 398.817 648.069 406.028 643.706C411.89 640.16 403.275 627.722 408.741 623.808C472.623 578.069 499.742 542.26 515.757 505.712C519.58 496.989 463.987 460.463 456.177 459.358C448.368 458.252 368.654 450.266 368.654 450.266L275.387 426.169L224.41 394.818L185.944 349.998L178.802 312.461Z" fill="black"/>
</svg>
