<svg width="1200" height="1267" viewBox="0 0 1200 1267" fill="none" xmlns="http://www.w3.org/2000/svg">
<mask id="mask0_311_9885" style="mask-type:luminance" maskUnits="userSpaceOnUse" x="0" y="0" width="1200" height="1267">
<path d="M1200 0H0V1266.02H1200V0Z" fill="white"/>
</mask>
<g mask="url(#mask0_311_9885)">
<path d="M916.727 638.51C916.727 638.51 945.79 633.415 950.789 635.348C972.219 643.634 1018.61 675.048 910.062 775.618" fill="#F3886D"/>
<path d="M945.545 623.421C942.567 623.492 939.586 623.759 936.624 624.07C929.306 624.84 922.011 625.947 914.762 627.216C908.519 628.307 904.33 634.239 905.42 640.482C906.511 646.727 912.444 650.915 918.687 649.824C925.42 648.653 932.229 647.644 939.025 646.937C941.16 646.715 943.3 646.495 945.447 646.418C945.995 646.399 946.52 646.41 947.069 646.418C947.203 646.421 947.351 646.445 947.491 646.451C947.964 646.641 948.452 646.826 948.918 647.035C949.687 647.381 950.569 647.784 951.318 648.17C955.719 650.438 959.869 653.461 962.865 657.447C970.14 667.128 967.643 679.758 963.417 690.175C959.4 700.077 953.508 709.191 947.166 717.746C938.534 729.391 928.798 740.198 918.622 750.506C913.152 756.047 907.529 761.461 901.821 766.757C896.918 771.315 896.613 778.981 901.172 783.883C905.731 788.785 913.428 789.057 918.33 784.499C934.954 769.001 951.01 752.677 964.649 734.45C973.715 722.334 981.961 709.213 986.868 694.813C992.121 679.4 992.947 662.53 984.436 648.105C982.577 644.956 980.343 642.026 977.818 639.38C974.206 635.594 970.054 632.381 965.557 629.715C962.679 628.007 959.666 626.545 956.573 625.27C955.541 624.846 954.592 624.44 953.523 624.135C950.945 623.401 948.205 623.358 945.545 623.421Z" fill="black"/>
<path d="M945.516 623.428C942.538 623.499 939.589 623.766 936.628 624.077C929.309 624.847 922.014 625.922 914.766 627.191C908.523 628.282 904.334 634.247 905.425 640.49C906.516 646.734 912.448 650.891 918.691 649.8C925.423 648.628 932.2 647.62 938.995 646.912C941.131 646.69 943.272 646.502 945.418 646.426C945.966 646.407 946.525 646.385 947.073 646.393C947.196 646.395 947.333 646.421 947.462 646.426C947.941 646.618 948.418 646.799 948.889 647.01C949.659 647.355 950.573 647.791 951.321 648.177C955.722 650.445 959.873 653.468 962.868 657.455C970.143 667.135 967.646 679.764 963.42 690.182C959.404 700.084 953.511 709.198 947.169 717.753C938.538 729.398 928.803 740.206 918.625 750.513C913.155 756.055 907.533 761.437 901.824 766.732C896.922 771.29 896.617 778.956 901.175 783.858C905.734 788.76 913.399 789.065 918.302 784.507C934.926 769.009 951.014 752.685 964.653 734.457C973.719 722.342 981.965 709.22 986.871 694.821C992.124 679.407 992.951 662.536 984.439 648.113C982.58 644.963 980.345 642.033 977.822 639.387C974.21 635.602 970.057 632.388 965.561 629.722C962.683 628.014 959.669 626.519 956.576 625.245C955.544 624.82 954.597 624.447 953.527 624.143C950.949 623.408 948.176 623.366 945.516 623.428Z" fill="black"/>
<path d="M401.562 611.992C401.562 611.992 427.825 549.556 458.995 525.327C490.166 501.098 509.378 377.364 509.378 377.364L492.806 242.399C492.806 242.399 425.609 219.158 394.586 222.619C363.563 226.079 291.38 523.722 302.9 596.966C302.9 596.966 364.187 609.902 401.562 611.992Z" fill="#82D4D5"/>
<path d="M404.543 210.672C401.606 210.581 398.651 210.624 395.72 210.834C393.87 210.967 392.026 211.149 390.239 211.678C388.087 212.314 386.093 213.364 384.271 214.661C380.687 217.214 377.819 220.679 375.318 224.262C371.855 229.225 369.002 234.59 366.366 240.027C358.34 256.579 352.187 274.047 346.45 291.503C335.37 325.211 326.231 359.57 318.101 394.099C309.087 432.375 301.363 471.004 295.72 509.927C294.03 521.588 292.591 533.292 291.503 545.024C290.448 556.401 289.667 567.812 289.751 579.243C289.768 581.407 289.823 583.568 289.913 585.73C289.979 587.262 290.061 588.808 290.173 590.336C290.246 591.335 290.335 592.26 290.432 593.255C290.523 594.168 290.611 595.168 290.725 596.077C290.887 597.374 290.988 599.11 291.47 600.327C291.826 601.223 291.898 602.332 292.606 602.987C294.969 605.171 297.845 606.75 300.456 608.63C300.66 608.778 301.19 608.776 301.428 608.825C302.18 608.981 302.915 609.158 303.666 609.311C306.295 609.849 308.948 610.351 311.582 610.868C316.941 611.921 322.296 612.937 327.67 613.918C340.393 616.241 353.136 618.403 365.943 620.21C377.525 621.845 365.967 620.186 400.846 623.908C407 624.282 412.169 619.864 413.17 613.918C426.19 587.53 422.35 594.241 427.832 584.4C434.616 572.222 442.064 560.28 450.894 549.467C454.027 545.63 457.334 541.928 460.949 538.536C463.4 536.236 466.136 534.291 468.604 532.016C472.101 528.793 475.101 525.022 477.751 521.085C482.552 513.953 486.338 506.184 489.687 498.282C493.867 488.423 497.298 478.247 500.456 468.02C506.606 448.11 511.354 427.747 515.474 407.333C516.802 400.753 518.041 394.157 519.205 387.546C519.548 385.59 519.885 383.635 520.21 381.675C520.343 380.868 520.608 379.998 520.632 379.177C520.661 378.15 520.714 377.124 520.696 376.096C520.679 375.026 520.437 373.883 520.307 372.821C520.05 370.712 519.787 368.604 519.529 366.495C518.798 360.52 518.053 354.533 517.323 348.557C515.048 329.928 512.81 311.301 510.544 292.671C508.92 279.312 507.271 265.937 505.646 252.58C505.475 251.173 505.33 249.769 505.16 248.363C505.031 247.308 504.899 246.271 504.77 245.217C504.685 244.514 504.597 243.811 504.51 243.108C504.36 241.865 504.32 240.339 503.863 239.184C503.499 238.269 503.373 237.171 502.694 236.458C500.88 234.553 498.609 233.155 496.564 231.496C496.245 231.237 495.516 231.138 495.137 231.009C494.237 230.706 493.347 230.399 492.445 230.102C489.161 229.018 485.855 227.976 482.551 226.955C471.836 223.642 461.05 220.612 450.148 217.97C442.26 216.059 434.307 214.406 426.308 213.04C419.116 211.812 411.84 210.898 404.543 210.672ZM400.878 233.897C404.81 233.871 408.712 234.154 412.619 234.578C426.486 236.082 440.207 239.228 453.684 242.751C463.292 245.264 472.835 248.059 482.292 251.12C482.587 253.609 482.893 256.096 483.2 258.58C484.376 268.068 485.527 277.538 486.703 287.026C490.188 315.14 493.681 343.244 497.148 371.36C497.365 373.117 497.58 374.89 497.797 376.648C497.819 376.823 497.839 376.991 497.861 377.167C497.748 377.864 497.654 378.546 497.537 379.242C497.109 381.803 496.634 384.375 496.175 386.93C494.907 393.98 493.544 400.999 492.088 408.014C487.79 428.716 482.878 449.435 476.194 469.512C473.187 478.543 469.914 487.509 465.814 496.11C463.251 501.491 460.386 506.841 456.7 511.549C455.64 512.902 454.525 514.209 453.262 515.376C452.176 516.382 450.96 517.221 449.824 518.166C448.334 519.405 446.889 520.701 445.478 522.027C439.66 527.487 434.416 533.59 429.584 539.931C420.457 551.905 412.611 564.829 405.483 578.076C401.291 585.869 401.665 585.578 395.169 599.159C345.29 592.615 356.773 594.894 336.621 591.31C329.524 590.047 322.451 588.71 315.376 587.32C314.891 587.225 314.402 587.124 313.917 587.027C313.814 585.341 313.666 583.657 313.624 581.968C313.407 573.002 313.858 564.05 314.532 555.11C316.519 528.786 320.597 502.625 325.204 476.648C330.414 447.269 336.664 418.042 343.661 389.038C350.369 361.232 357.753 333.575 366.366 306.294C371.32 290.602 376.605 274.966 383.037 259.812C385.245 254.613 387.619 249.443 390.303 244.47C392.016 241.297 393.833 238.109 396.142 235.324C396.507 234.883 396.896 234.455 397.309 234.059C397.343 234.055 397.375 234.061 397.407 234.059C398.556 233.973 399.726 233.904 400.878 233.897Z" fill="black"/>
<path d="M404.521 210.702C401.584 210.61 398.663 210.621 395.73 210.831C393.88 210.964 392.036 211.146 390.249 211.675C388.097 212.311 386.104 213.361 384.281 214.659C380.698 217.211 377.797 220.676 375.296 224.26C371.832 229.222 368.98 234.587 366.344 240.024C358.318 256.576 352.197 274.044 346.461 291.5C335.382 325.208 326.242 359.567 318.111 394.096C309.097 432.372 301.341 471.001 295.697 509.924C294.008 521.585 292.569 533.289 291.481 545.021C290.427 556.398 289.677 567.809 289.762 579.241C289.778 581.405 289.833 583.598 289.924 585.76C289.989 587.291 290.071 588.805 290.184 590.334C290.258 591.333 290.313 592.256 290.411 593.253C290.5 594.165 290.622 595.165 290.735 596.074C290.897 597.371 290.998 599.107 291.481 600.324C291.837 601.22 291.908 602.329 292.617 602.984C294.979 605.168 297.855 606.747 300.466 608.627C300.67 608.775 301.168 608.773 301.406 608.823C302.158 608.978 302.926 609.155 303.677 609.308C306.306 609.846 308.926 610.348 311.559 610.865C316.918 611.918 322.308 612.934 327.68 613.915C340.403 616.238 353.146 618.4 365.955 620.207C377.536 621.842 365.945 620.183 400.824 623.905C406.944 624.277 412.105 619.909 413.149 614.012C426.267 587.43 422.35 594.258 427.843 584.397C434.627 572.219 442.074 560.311 450.905 549.496C454.037 545.659 457.344 541.958 460.96 538.566C463.411 536.265 466.146 534.288 468.614 532.014C472.111 528.79 475.079 525.019 477.729 521.082C482.53 513.95 486.316 506.181 489.665 498.28C493.845 488.42 497.308 478.244 500.467 468.017C506.617 448.107 511.364 427.744 515.484 407.33C516.813 400.75 518.051 394.154 519.215 387.543C519.559 385.587 519.896 383.632 520.221 381.672C520.354 380.865 520.619 379.995 520.642 379.175C520.671 378.147 520.724 377.121 520.707 376.093C520.689 375.023 520.448 373.881 520.318 372.818C520.06 370.709 519.797 368.602 519.54 366.492C518.809 360.517 518.064 354.531 517.334 348.555C515.058 329.925 512.788 311.298 510.522 292.668C508.898 279.31 507.281 265.966 505.657 252.609C505.486 251.203 505.308 249.798 505.138 248.393C505.009 247.338 504.876 246.268 504.749 245.214C504.663 244.511 504.607 243.808 504.521 243.106C504.37 241.862 504.331 240.336 503.873 239.181C503.511 238.266 503.383 237.201 502.705 236.489C500.89 234.582 498.585 233.152 496.542 231.493C496.223 231.234 495.527 231.135 495.148 231.007C494.247 230.703 493.357 230.396 492.455 230.099C489.171 229.015 485.865 227.973 482.563 226.952C471.847 223.639 461.028 220.609 450.126 217.967C442.238 216.056 434.318 214.403 426.318 213.037C419.126 211.809 411.818 210.928 404.521 210.702ZM400.856 233.894C404.788 233.868 408.722 234.151 412.63 234.575C426.496 236.079 440.185 239.225 453.662 242.748C463.27 245.261 472.813 248.056 482.27 251.118C482.565 253.607 482.871 256.093 483.178 258.577C484.354 268.065 485.538 277.536 486.714 287.023C490.198 315.138 493.691 343.242 497.158 371.357C497.375 373.115 497.59 374.887 497.807 376.645C497.828 376.815 497.851 376.993 497.872 377.164C497.758 377.861 497.632 378.543 497.515 379.24C497.087 381.8 496.644 384.372 496.186 386.927C494.917 393.978 493.554 400.996 492.098 408.011C487.801 428.713 482.856 449.432 476.172 469.509C473.165 478.54 469.924 487.506 465.825 496.107C463.261 501.488 460.396 506.838 456.71 511.547C455.651 512.899 454.502 514.206 453.24 515.374C452.154 516.379 450.938 517.218 449.802 518.164C448.312 519.402 446.867 520.698 445.456 522.024C439.638 527.484 434.426 533.587 429.594 539.928C420.467 551.902 412.621 564.858 405.494 578.105C401.3 585.899 401.646 585.569 395.147 599.156C345.332 592.621 356.776 594.89 336.632 591.307C329.534 590.044 322.429 588.707 315.354 587.317C314.877 587.224 314.403 587.119 313.927 587.026C313.825 585.344 313.676 583.648 313.635 581.966C313.418 572.999 313.869 564.047 314.544 555.108C316.53 528.784 320.575 502.622 325.183 476.645C330.392 447.266 336.642 418.039 343.639 389.036C350.347 361.229 357.763 333.572 366.376 306.291C371.33 290.599 376.615 274.963 383.049 259.81C385.255 254.61 387.597 249.44 390.281 244.467C391.994 241.294 393.844 238.106 396.153 235.321C396.518 234.88 396.906 234.452 397.32 234.056C397.353 234.052 397.385 234.058 397.417 234.056C398.566 233.97 399.704 233.901 400.856 233.894Z" fill="black"/>
<path d="M380.639 687.849C380.639 538.587 501.639 417.588 650.901 417.588C731.597 417.588 804.033 452.954 853.554 509.034C895.63 556.682 921.163 619.284 921.163 687.849C921.163 837.11 800.162 958.111 650.901 958.111C501.639 958.111 380.639 837.11 380.639 687.849Z" fill="#F3886D" stroke="black" stroke-width="0.0121711" stroke-miterlimit="10" stroke-linecap="round" stroke-linejoin="round"/>
<path d="M650.898 409.869C497.382 409.869 372.921 534.33 372.92 687.847C372.92 841.363 497.382 965.824 650.898 965.824C804.415 965.824 928.875 841.363 928.875 687.847C928.875 619.174 903.865 554.366 859.332 503.934C806.893 444.55 731.685 409.869 650.898 409.869ZM650.898 425.277C727.219 425.277 798.242 458.014 847.785 514.119C889.855 561.761 913.468 622.966 913.468 687.847C913.468 832.853 795.905 950.417 650.898 950.417C505.892 950.417 388.328 832.853 388.328 687.847C388.328 542.84 505.892 425.277 650.898 425.277Z" fill="black"/>
<path d="M846.543 495.107C818.46 479.619 763.912 527.846 737.664 568.742C709.149 547.188 655.669 531.992 598.383 531.992C513.953 531.992 452.766 607.33 463.126 655.119C470.976 691.337 521.821 733.811 593.908 741.625C586.53 759.024 582.198 776.874 582.198 793.945C582.199 868.443 640.31 886.615 722.257 886.615C804.205 886.615 904.439 799.765 901.693 668.255C901.651 666.232 900.724 664.748 899.228 663.585C921.352 648.251 927.27 660.404 921.34 632.767C906.916 565.55 846.543 495.107 846.543 495.107Z" fill="#F9B192"/>
<path d="M836.886 484.083C822.353 483.05 805.091 490.486 786.578 504.291C767.982 518.158 749.4 537.973 735.589 557.713C703.736 537.054 651.91 523.882 598.384 523.882C556.761 523.882 517.718 541.364 489.431 569.941C462.941 596.704 449.408 630.069 455.211 656.838C459.671 677.411 475.837 698.665 499.746 715.644C522.648 731.908 551.309 743.358 582.782 748.275C577.208 763.908 574.089 779.319 574.089 793.945C574.089 832.49 588.895 859.265 617.554 875.295C642.044 888.993 675.954 894.725 722.257 894.724C766.177 894.724 813.749 871.488 849.731 832.22C888.92 789.452 911.135 731.933 909.802 668.093C909.793 667.61 909.663 667.163 909.608 666.698C911.1 665.882 912.559 665.151 914.052 664.493C915.838 663.706 921.061 661.687 921.707 661.411C927.243 659.047 930.54 655.697 931.405 649.766C932.007 645.64 931.352 640.781 929.264 631.051C928.609 627.998 927.871 624.926 927.026 621.807C920.433 597.461 908.375 571.732 892.417 545.549C883.751 531.331 874.447 517.846 865.17 505.556C861.919 501.249 858.904 497.397 856.186 494.041C855.23 492.86 852.89 490.028 852.715 489.825C852.084 489.087 851.295 488.476 850.445 488.008C846.267 485.704 841.731 484.427 836.886 484.083ZM834.227 500.269C837.005 500.269 839.413 500.858 841.557 501.826C842.304 502.725 843.028 503.551 843.6 504.259C846.206 507.474 849.092 511.197 852.229 515.351C861.201 527.237 870.168 540.256 878.534 553.983C893.76 578.963 905.221 603.391 911.359 626.056C912.13 628.901 912.809 631.689 913.403 634.456C914.885 641.365 915.341 644.795 915.285 646.556C914.979 646.682 909.776 648.648 907.532 649.637C903.251 651.524 899.089 653.807 894.622 656.902C890.439 659.802 890.122 665.615 893.552 669.131C894.615 728.458 874.015 781.692 837.762 821.256C804.71 857.327 761.375 878.505 722.257 878.505C631.383 878.505 590.307 855.53 590.307 793.945C590.307 778.586 594.121 761.896 601.368 744.805C603.492 739.797 600.191 734.135 594.783 733.549C562.021 729.997 532.216 718.812 509.12 702.41C488.26 687.597 474.548 669.583 471.04 653.399C466.554 632.705 478.011 604.529 500.978 581.327C526.317 555.728 561.25 540.1 598.384 540.1C652.583 540.1 705.011 554.217 732.767 575.196C736.535 578.045 741.924 577.096 744.476 573.121C757.466 552.881 777.178 531.539 796.276 517.297C811.333 506.071 824.566 500.269 834.227 500.269Z" fill="black" fill-opacity="0.5"/>
<path d="M812.072 454.729C809.102 455.184 806.303 456.786 804.385 459.4C800.547 464.628 801.688 471.974 806.915 475.813C870.942 522.817 909.413 602.165 909.413 687.847C909.413 830.623 793.673 946.362 650.898 946.362C507.724 946.362 389.982 829.808 389.982 687.426C389.982 657.287 392.212 634.674 397.961 614.736C399.757 608.505 396.148 602.001 389.916 600.204C383.686 598.409 377.182 601.985 375.385 608.216C368.911 630.671 366.498 655.277 366.498 687.426C366.498 842.83 494.806 969.846 650.898 969.846C806.644 969.846 932.896 843.593 932.896 687.847C932.896 594.833 890.977 508.39 820.797 456.87C818.184 454.951 815.043 454.273 812.072 454.729Z" fill="black"/>
<path d="M868.967 665.32C862.693 653.15 878.046 636.131 903.258 627.308C928.469 618.484 953.993 621.196 960.265 633.366C966.537 645.536 951.184 662.555 925.973 671.379C920.317 673.358 914.647 674.757 909.181 675.598C890.28 678.51 873.831 674.761 868.967 665.32Z" fill="#FF497F" stroke="black" stroke-width="0.0128133" stroke-miterlimit="10" stroke-linecap="round" stroke-linejoin="round"/>
<path d="M541.186 732.978C535.993 721.019 552.233 705.657 577.458 698.668C589.282 695.391 600.981 694.535 610.61 695.784C621.522 697.198 629.775 701.313 632.534 707.668C637.726 719.628 621.487 734.99 596.262 741.979C571.038 748.968 546.379 744.939 541.186 732.978Z" fill="#FF497F" stroke="black" stroke-width="0.0128133" stroke-miterlimit="10" stroke-linecap="round" stroke-linejoin="round"/>
<path d="M839.546 574.774C830.371 574.774 822.484 581.578 822.484 590.603C822.484 599.629 830.371 606.4 839.546 606.4C848.72 606.4 856.607 599.629 856.607 590.603C856.607 581.578 848.72 574.774 839.546 574.774Z" fill="black"/>
<path d="M607.79 626.089C598.829 626.089 591.507 633.261 591.507 642.209C591.507 651.159 598.829 658.363 607.79 658.363C616.752 658.363 624.073 651.159 624.073 642.209C624.073 633.261 616.752 626.089 607.79 626.089Z" fill="black"/>
<path d="M798.968 732.414C795.632 732.041 792.217 733.65 790.471 736.761C789.871 737.839 789.281 738.89 788.491 739.842C785.846 743.035 782.439 743.305 778.631 742.242C776.727 741.711 774.909 740.93 773.182 739.972C772.664 739.685 772.155 739.386 771.658 739.064C771.503 738.963 771.355 738.844 771.203 738.739C771.181 738.725 771.164 738.725 771.139 738.707C767.863 738.628 764.543 737.943 761.31 738.48C760.26 738.654 759.767 739.94 759.039 740.717C758.579 741.212 758.285 742.009 758.001 742.631C757.899 742.86 757.813 743.085 757.71 743.312C757.682 743.376 757.641 743.444 757.612 743.507C757.599 743.539 757.566 743.636 757.58 743.605C757.365 744.063 757.149 744.542 756.931 744.999C756.708 745.466 756.481 745.931 756.25 746.394C755.798 747.305 755.37 748.126 754.888 749.021C751.128 756.005 746.199 763.153 739.189 767.218C734.012 770.22 727.973 770.772 722.257 769.067C720.273 768.474 718.354 767.648 716.549 766.634C716.042 766.35 715.541 766.046 715.056 765.726C714.889 765.616 714.733 765.485 714.57 765.369C714.551 765.355 714.298 765.179 714.375 765.239C710.834 762.457 705.707 763.06 702.925 766.602C700.144 770.143 700.746 775.27 704.287 778.052C708.172 781.093 712.89 783.291 717.587 784.701C721.243 785.799 725.054 786.406 728.874 786.421C732.08 786.432 735.279 786.042 738.378 785.22C750.926 781.893 760.416 772.2 767.149 761.51C768.044 760.089 768.829 758.597 769.646 757.131C772.119 758.17 774.66 759.03 777.301 759.498C785.293 760.916 793.407 758.916 799.39 753.303C801.896 750.953 803.839 748.17 805.521 745.194C807.849 741.046 806.361 735.781 802.212 733.452C801.175 732.871 800.08 732.538 798.968 732.414Z" fill="black"/>
<path d="M647.2 599.848C645.003 600.033 642.864 601.047 641.329 602.864C638.9 605.77 635.624 607.75 632.247 609.384C627.292 611.78 621.962 613.483 616.645 614.865C607.279 617.301 597.71 618.808 588.102 619.893C577.503 621.09 566.759 621.806 556.087 621.775C551.583 621.755 547.932 625.38 547.913 629.883C547.894 634.387 551.518 638.039 556.023 638.057C566.435 638.107 576.892 637.481 587.258 636.566C599.443 635.489 611.654 633.826 623.49 630.662C634.788 627.642 646.721 623.133 654.499 613.99C657.568 610.356 657.127 604.929 653.493 601.859C651.675 600.324 649.397 599.663 647.2 599.848Z" fill="black"/>
<path d="M865.429 555.281C863.238 555.518 861.147 556.606 859.656 558.46C857.821 560.761 855.738 562.91 853.233 564.492C845.512 569.376 836.398 569.602 827.674 567.768C823.881 566.971 820.16 565.781 816.581 564.298C815.37 563.796 814.16 563.25 812.981 562.676C812.551 562.466 812.139 562.249 811.715 562.027C811.594 561.964 811.48 561.899 811.359 561.833C811.303 561.802 811.141 561.705 811.196 561.736C807.282 559.508 802.298 560.902 800.071 564.817C797.844 568.731 799.206 573.684 803.12 575.91C807.335 578.307 811.897 580.181 816.484 581.716C830.706 586.475 846.996 587.792 860.499 580.159C865.403 577.388 869.553 573.623 873.084 569.261C876.065 565.553 875.462 560.11 871.755 557.129C869.901 555.639 867.622 555.043 865.429 555.281Z" fill="black"/>
<path d="M932.021 613.99C922.167 614.012 911.302 615.917 900.59 619.666C887.108 624.385 875.651 631.448 868.284 639.614C859.86 648.953 856.92 659.634 861.764 669.034C868.566 682.23 888.057 687.074 910.418 683.629C916.479 682.696 922.623 681.132 928.648 679.024C942.13 674.305 953.587 667.242 960.954 659.076C969.378 649.737 972.318 639.056 967.474 629.656C962.047 619.129 948.444 613.953 932.021 613.99ZM930.594 630.24C933.167 630.177 935.676 630.283 938.022 630.532C946.203 631.402 951.472 634.041 953.04 637.084C956.234 643.281 944.505 656.291 923.295 663.714C918.207 665.495 913.029 666.793 907.953 667.574C891.709 670.076 878.905 666.919 876.166 661.606C872.972 655.408 884.733 642.399 905.943 634.975C914.324 632.042 922.875 630.43 930.594 630.24Z" fill="black"/>
<path d="M603.086 687.133C594.246 686.994 584.685 688.26 575.289 690.863C561.808 694.599 550.126 700.683 542.334 708.055C533.353 716.552 529.621 726.725 533.739 736.209C541.047 753.042 569.762 757.74 598.416 749.799C611.898 746.065 623.579 739.947 631.371 732.577C640.353 724.08 644.085 713.906 639.967 704.422C635.907 695.071 625.422 689.535 611.65 687.749C608.895 687.392 606.033 687.18 603.086 687.133ZM602.665 703.351C605.065 703.383 607.374 703.552 609.574 703.838C618.276 704.966 623.768 707.89 625.079 710.909C626.016 713.068 624.781 716.512 620.246 720.802C614.522 726.217 605.178 731.098 594.102 734.166C582.915 737.265 571.567 738.046 562.51 736.565C554.692 735.289 549.839 732.548 548.627 729.754C547.689 727.594 548.957 724.15 553.492 719.862C559.216 714.447 568.56 709.566 579.636 706.498C587.512 704.315 595.467 703.256 602.665 703.351Z" fill="black"/>
<path d="M364.321 469.206C364.321 469.206 449.294 232.993 530.963 161.449C530.963 161.449 698.663 193.967 857.947 388.926C857.947 388.926 845.61 426.198 823.545 454.504C823.545 454.504 613.908 425.586 478.052 547.648C478.052 547.648 465.25 559.94 443.387 552.307C421.523 544.674 373.02 515.632 363.387 500.257C363.387 500.257 361.464 482.486 364.321 469.206Z" fill="#93E9CA"/>
<path d="M532.535 153.39C530.375 153.881 528.192 154.292 526.048 154.851C526.008 154.861 525.655 155.163 525.529 155.272C525.067 155.669 524.618 156.094 524.167 156.504C523.73 156.901 523.304 157.273 522.869 157.672C522.42 158.084 521.952 158.52 521.508 158.937C517.337 162.846 513.367 166.954 509.538 171.198C494.761 187.577 481.988 205.805 470.258 224.458C454.548 249.442 440.485 275.418 427.313 301.818C413.281 329.939 400.287 358.591 388 387.514C380.389 405.431 373.048 423.467 366.009 441.618C363.842 447.202 361.717 452.777 359.619 458.387C359.154 459.63 358.412 461.67 357.543 464.03C356.766 465.045 356.122 466.196 355.856 467.534C355.496 469.35 355.698 468.551 355.499 469.351C355.03 471.242 354.888 473.287 354.689 475.221C354.303 478.965 354.149 482.747 354.138 486.509C354.126 489.952 354.238 493.388 354.461 496.823C354.529 497.864 354.628 498.93 354.721 499.97C354.753 500.327 354.702 500.795 354.818 501.137C355.23 502.364 355.612 503.597 356.083 504.803C356.358 505.506 357.031 506.243 357.478 506.846C358.314 507.975 359.232 509.078 360.17 510.123C363.135 513.419 366.451 516.388 369.869 519.205C375.682 523.996 381.853 528.343 388.131 532.503C395.202 537.19 402.464 541.618 409.862 545.769C417.178 549.875 424.623 553.752 432.308 557.122C439.71 560.369 447.323 563.015 455.467 563.35C458.455 563.473 461.468 563.313 464.42 562.831C466.931 562.422 469.419 561.772 471.815 560.917C475.229 559.698 478.504 558.041 481.449 555.922C482.126 555.435 482.763 554.944 483.395 554.398C483.477 554.327 483.633 554.188 483.751 554.073C483.712 554.109 483.904 553.895 483.882 553.944C487.622 550.621 491.414 547.367 495.299 544.212C504.374 536.846 513.885 529.928 523.746 523.648C533.765 517.267 544.045 511.379 554.657 506.035C583.066 491.733 613.383 481.265 644.31 473.956C683.002 464.812 722.81 460.444 762.539 460.041C776.296 459.901 790.071 460.248 803.798 461.176C807.728 461.442 811.653 461.766 815.573 462.149C817.234 462.311 818.878 462.474 820.535 462.668C820.939 462.716 822.047 462.977 822.384 462.896C824.385 462.413 826.44 462.143 828.385 461.469C828.904 461.288 829.24 460.765 829.649 460.397C830.406 459.72 831.054 458.64 831.661 457.836C831.9 457.52 832.138 457.212 832.375 456.895C832.61 456.578 832.855 456.24 833.088 455.922C833.322 455.603 833.539 455.301 833.769 454.981C837.167 450.27 840.334 445.375 843.306 440.385C849.437 430.088 854.794 419.327 859.491 408.306C861.181 404.341 862.759 400.345 864.259 396.304C864.681 395.166 865.124 394.012 865.524 392.866C865.599 392.653 865.977 391.807 865.946 391.601C865.576 389.095 865.281 386.571 864.843 384.076C864.823 383.956 864.505 383.635 864.389 383.492C864.004 383.017 863.609 382.537 863.221 382.065C862.802 381.554 862.377 381.05 861.957 380.54C861.537 380.034 861.111 379.522 860.692 379.016C857.368 375.009 854.031 371.024 850.636 367.079C838.496 352.971 825.909 339.244 812.848 325.982C758.882 271.188 696.85 223.895 627.995 189.363C605.696 178.179 582.613 168.356 558.874 160.656C552.415 158.561 545.898 156.615 539.315 154.947C537.669 154.531 536.009 154.149 534.351 153.779C534.01 153.704 532.861 153.316 532.535 153.39ZM533.217 170.516C537.518 171.534 541.805 172.627 546.028 173.89C554.727 176.492 563.322 179.444 571.815 182.648C599.395 193.051 626.056 205.998 651.544 220.793C700.941 249.466 746.405 284.609 787.386 324.361C808.94 345.268 829.123 367.47 848.3 390.563C844.95 399.766 840.997 408.804 836.591 417.517C831.687 427.216 826.141 436.739 819.66 445.51C816.43 445.165 813.167 444.859 809.928 444.602C800.557 443.854 791.172 443.402 781.775 443.175C745.225 442.289 708.455 444.675 672.399 450.829C623.276 459.214 574.592 474.322 531.173 499.127C516.064 507.759 501.531 517.363 487.871 528.157C484.081 531.152 480.365 534.241 476.713 537.401C474.99 538.893 473.359 540.527 471.588 541.845C469.074 543.714 466.073 544.942 463.025 545.607C453.532 547.679 444.406 543.868 435.941 539.932C428.19 536.328 420.68 532.236 413.301 527.93C407.034 524.273 400.855 520.431 394.877 516.318C389.118 512.355 383.427 508.291 378.172 503.668C376.363 502.075 374.592 500.403 372.983 498.608C372.555 498.131 372.146 497.651 371.75 497.148C371.726 496.835 371.706 496.521 371.685 496.207C371.534 493.998 371.432 491.773 371.392 489.558C371.329 485.899 371.387 482.244 371.685 478.595C371.813 477.026 371.969 475.448 372.204 473.891C372.278 473.401 372.203 473.888 372.755 470.874C372.822 470.541 372.728 470.232 372.755 469.902C372.878 469.569 372.99 469.228 373.112 468.896C373.888 466.791 374.659 464.703 375.448 462.604C377.811 456.31 380.234 450.02 382.681 443.758C390.095 424.782 397.841 405.945 405.872 387.222C419.876 354.579 434.82 322.303 451.283 290.823C462.749 268.899 474.88 247.271 488.39 226.534C497.808 212.078 507.896 197.977 519.269 184.983C522.808 180.94 526.484 176.995 530.33 173.241C531.28 172.314 532.244 171.419 533.217 170.516Z" fill="black"/>
<path d="M784.817 453.382C693.66 433.668 582.576 485.483 528.671 512.232C512.325 520.342 504.18 528.665 503.963 526.97C492.057 434.175 538.495 348.966 615.537 329.734C693.341 310.314 775.216 364.956 807.68 454.001C808.166 455.332 800.227 456.714 784.817 453.382Z" fill="#B7F2CC"/>
<path d="M606.166 478.528L552.963 451.501L613.008 446.164L581.906 414.897L625.908 417.484L633.62 338.284L696.651 405.18L719.724 379.703L716.912 426.852L743.858 422.984L718.222 453.739L606.166 478.528Z" fill="#DFFFEA"/>
<path d="M594.751 267.735C588.802 267.742 582.325 271.221 580.187 285.153C580.187 285.153 590.272 296.67 604.222 318.433C587.206 324.359 574.413 330.596 574.413 330.596C567.878 349.014 586.739 355.443 586.739 355.443C592.871 351.906 605.689 347.608 619.111 343.474C630.745 364.397 643.357 390.498 654.693 422.001C654.693 422.001 673.121 434.219 680.999 414.768C680.999 414.768 665.193 374.386 646.227 335.624C655.255 333.22 667.44 329.947 667.44 329.947C678.205 321.947 661.44 308.086 661.44 308.086C652.782 307.289 642.953 308.325 633.091 310.324C623.759 293.424 614.349 278.777 606.104 271.206C606.104 271.206 600.7 267.729 594.751 267.735Z" fill="#FFA0CA"/>
<path d="M533.22 149.992C530.155 150.686 527.049 151.28 524.008 152.068C523.773 152.129 523.646 152.371 523.457 152.522C523.413 152.557 523.251 152.702 523.197 152.75C522.356 153.482 521.498 154.242 520.667 154.988C520.226 155.383 519.776 155.757 519.337 156.155C518.897 156.554 518.477 156.953 518.04 157.355C513.408 161.603 508.874 165.996 504.481 170.491C487.073 188.314 471.787 207.965 458.681 229.136C455.296 234.602 457.011 241.775 462.477 245.16C467.942 248.545 475.115 246.862 478.5 241.397C489.404 223.801 501.868 207.334 515.996 192.192C520.919 186.916 526.033 181.807 531.306 176.882C532.268 175.983 533.252 175.108 534.226 174.222C535.283 174.49 536.35 174.749 537.404 175.032C543.277 176.613 549.084 178.402 554.855 180.32C572.227 186.097 589.214 193.033 605.779 200.819C654.971 223.946 701.073 254.279 742.691 289.175C773.521 315.025 802.26 343.25 828.81 373.477C833.38 378.68 837.896 383.926 842.335 389.24C842.862 389.871 843.367 390.522 843.892 391.154C842.371 395.131 840.903 399.138 839.189 403.026C835.423 411.572 831.245 419.933 826.54 428.002C823.926 432.484 821.157 436.864 818.171 441.106C817.619 441.889 817.048 442.668 816.484 443.441C815.39 443.59 814.309 443.716 813.208 443.798C808.796 444.125 804.357 444.04 799.942 443.831C793.159 443.512 787.383 448.758 787.064 455.54C786.746 462.323 791.991 468.099 798.774 468.418C806.105 468.758 813.524 468.773 820.798 467.671C822.482 467.416 824.18 467.073 825.825 466.633C826.323 466.501 827.144 466.413 827.577 466.114C829.459 464.816 831.357 463.567 833.156 462.157C833.502 461.886 833.699 461.435 833.967 461.087C834.461 460.444 834.943 459.823 835.427 459.173C836.625 457.562 837.819 455.926 838.962 454.275C843.157 448.219 846.985 441.913 850.542 435.463C856.105 425.372 861.002 414.916 865.3 404.226C866.395 401.505 867.447 398.745 868.447 395.987C868.749 395.154 869.034 394.328 869.322 393.49C869.377 393.331 869.607 392.982 869.581 392.809C869.045 389.17 868.594 385.501 867.96 381.878C867.922 381.66 867.704 381.535 867.571 381.359C867.471 381.226 867.351 381.098 867.246 380.97C866.469 380.015 865.695 379.065 864.911 378.116C864.491 377.606 864.068 377.099 863.646 376.591C863.225 376.082 862.804 375.574 862.381 375.066C861.961 374.562 861.537 374.046 861.116 373.541C855.724 367.1 850.25 360.719 844.671 354.437C822.283 329.221 798.309 305.467 772.955 283.239C751.982 264.854 729.876 247.678 706.882 231.894C671.86 207.851 634.623 186.938 595.4 170.557C582.06 164.985 568.481 159.95 554.66 155.701C549.493 154.113 544.274 152.619 539.026 151.322C537.623 150.976 536.221 150.626 534.809 150.317C534.507 150.25 533.507 149.927 533.22 149.992Z" fill="black"/>
<path d="M532.539 153.398C530.378 153.888 528.195 154.299 526.052 154.858C526.011 154.868 525.658 155.171 525.533 155.279C525.07 155.677 524.621 156.07 524.17 156.479C523.733 156.875 523.307 157.28 522.872 157.68C522.423 158.092 521.955 158.528 521.511 158.944C517.34 162.854 513.37 166.962 509.541 171.205C494.764 187.585 481.99 205.812 470.262 224.465C454.551 249.449 440.488 275.425 427.316 301.826C413.285 329.947 400.29 358.565 388.004 387.489C380.392 405.406 373.051 423.442 366.012 441.593C363.846 447.177 361.72 452.784 359.622 458.394C359.157 459.637 358.415 461.678 357.546 464.038C356.769 465.052 356.125 466.203 355.859 467.541C355.5 469.357 355.702 468.558 355.502 469.358C355.033 471.249 354.891 473.294 354.692 475.228C354.305 478.972 354.152 482.754 354.14 486.516C354.129 489.96 354.241 493.395 354.464 496.831C354.532 497.872 354.631 498.905 354.724 499.945C354.756 500.302 354.706 500.802 354.821 501.145C355.233 502.372 355.615 503.605 356.087 504.81C356.361 505.513 357.034 506.25 357.481 506.854C358.317 507.982 359.235 509.086 360.173 510.13C363.137 513.427 366.454 516.395 369.872 519.212C375.685 524.004 381.856 528.351 388.133 532.511C395.205 537.197 402.434 541.625 409.833 545.777C417.148 549.882 424.626 553.759 432.311 557.129C439.713 560.376 447.326 563.023 455.471 563.357C458.458 563.481 461.471 563.32 464.423 562.838C466.934 562.429 469.422 561.78 471.819 560.925C475.232 559.707 478.507 558.049 481.452 555.929C482.13 555.443 482.767 554.918 483.398 554.373C483.482 554.3 483.637 554.166 483.755 554.049C483.715 554.084 483.908 553.902 483.885 553.951C487.63 550.623 491.412 547.346 495.302 544.188C504.377 536.821 513.888 529.936 523.748 523.655C533.768 517.274 544.048 511.353 554.66 506.01C583.069 491.708 613.386 481.273 644.313 473.963C683.005 464.819 722.812 460.451 762.542 460.048C776.299 459.909 790.075 460.256 803.801 461.184C807.731 461.45 811.656 461.775 815.576 462.156C817.237 462.319 818.88 462.481 820.538 462.675C820.942 462.723 822.05 462.984 822.388 462.903C824.388 462.421 826.444 462.118 828.388 461.443C828.908 461.263 829.243 460.74 829.653 460.373C830.41 459.695 831.057 458.647 831.664 457.843C831.903 457.527 832.141 457.188 832.378 456.87C832.614 456.554 832.859 456.247 833.091 455.929C833.325 455.611 833.541 455.308 833.772 454.988C837.171 450.278 840.337 445.383 843.309 440.393C849.44 430.095 854.797 419.334 859.494 408.313C861.184 404.348 862.762 400.352 864.262 396.312C864.685 395.173 865.126 394.02 865.527 392.873C865.602 392.66 865.98 391.783 865.948 391.576C865.58 389.07 865.284 386.578 864.846 384.084C864.825 383.964 864.508 383.611 864.392 383.467C864.008 382.992 863.613 382.544 863.224 382.072C862.805 381.561 862.38 381.025 861.96 380.515C861.541 380.009 861.114 379.529 860.694 379.024C857.372 375.017 854.035 371.032 850.639 367.087C838.499 352.979 825.879 339.251 812.819 325.99C758.852 271.195 696.853 223.902 627.997 189.37C605.699 178.186 582.616 168.363 558.877 160.664C552.418 158.568 545.9 156.622 539.318 154.955C537.672 154.538 536.012 154.156 534.355 153.787C534.013 153.711 532.864 153.323 532.539 153.398ZM533.22 170.524C537.521 171.541 541.809 172.602 546.032 173.865C554.73 176.467 563.325 179.419 571.818 182.623C599.398 193.026 626.059 206.005 651.547 220.8C700.945 249.474 746.408 284.584 787.389 324.336C808.943 345.244 829.126 367.477 848.303 390.571C844.954 399.766 840.965 408.785 836.562 417.492C831.658 427.191 826.144 436.746 819.663 445.517C816.422 445.171 813.18 444.868 809.932 444.609C800.559 443.862 791.176 443.41 781.778 443.182C745.229 442.296 708.458 444.683 672.403 450.837C623.28 459.221 574.595 474.33 531.176 499.134C516.066 507.766 501.534 517.372 487.874 528.164C484.084 531.159 480.336 534.215 476.683 537.376C474.96 538.868 473.362 540.535 471.591 541.853C469.078 543.722 466.076 544.95 463.028 545.615C453.535 547.687 444.41 543.842 435.944 539.907C428.193 536.303 420.683 532.211 413.304 527.905C407.037 524.248 400.859 520.439 394.88 516.325C389.121 512.362 383.397 508.266 378.143 503.642C376.334 502.051 374.563 500.41 372.953 498.615C372.531 498.144 372.145 497.651 371.752 497.155C371.729 496.842 371.71 496.528 371.688 496.215C371.537 494.005 371.435 491.78 371.396 489.566C371.332 485.906 371.39 482.251 371.688 478.602C371.816 477.033 371.971 475.455 372.207 473.899C372.281 473.409 372.206 473.895 372.758 470.883C372.829 470.527 372.732 470.196 372.758 469.845C372.874 469.528 372.999 469.22 373.115 468.903C373.891 466.799 374.662 464.679 375.451 462.579C377.814 456.286 380.238 450.027 382.684 443.766C390.098 424.789 397.843 405.952 405.875 387.23C419.879 354.586 434.823 322.278 451.286 290.797C462.752 268.874 474.883 247.279 488.393 226.541C497.811 212.085 507.867 197.951 519.24 184.958C522.779 180.914 526.454 177.002 530.3 173.249C531.253 172.319 532.244 171.429 533.22 170.524Z" fill="black"/>
<path d="M594.751 259.625C583.043 259.637 574.618 267.998 572.175 283.921C571.813 286.286 572.512 288.704 574.089 290.505C574.139 290.563 575.231 291.833 575.711 292.419C577.105 294.12 578.704 296.177 580.511 298.549C584.065 303.214 587.885 308.7 591.832 314.541C587.457 316.231 582.951 317.894 578.954 319.633C576.76 320.588 574.776 321.46 573.051 322.26C572.001 322.747 571.255 323.099 570.846 323.298C568.936 324.23 567.469 325.869 566.758 327.871C562.304 340.425 566.127 350.807 574.802 357.81C576.795 359.419 578.893 360.722 580.998 361.767C581.744 362.138 582.426 362.476 583.074 362.74C583.506 362.917 583.86 363.043 584.112 363.129C586.325 363.884 588.769 363.648 590.794 362.481C594.698 360.229 603.417 357.088 615.121 353.334C626.989 375.34 637.766 398.9 647.07 424.758C647.662 426.4 648.762 427.783 650.217 428.748C650.561 428.976 651.076 429.318 651.741 429.688C652.781 430.268 653.921 430.841 655.179 431.375C660.307 433.551 665.68 434.538 671.106 433.516C678.793 432.067 684.914 426.731 688.524 417.817C689.302 415.895 689.313 413.747 688.556 411.816C688.524 411.734 686.69 407.098 685.961 405.296C683.883 400.157 681.52 394.462 678.923 388.3C672.133 372.193 664.981 356.174 657.742 340.943C663.375 339.436 669.516 337.806 669.549 337.797C670.535 337.532 671.454 337.077 672.274 336.467C677.728 332.413 679.958 326.583 678.891 320.411C678.118 315.949 675.819 311.805 672.5 307.794C671.23 306.26 669.885 304.857 668.543 303.577C667.72 302.792 667.038 302.19 666.597 301.826C665.339 300.786 663.81 300.159 662.186 300.009C654.817 299.331 646.367 300.042 637.372 301.501C627.738 284.572 619.24 272.267 611.585 265.238C611.244 264.924 610.872 264.645 610.482 264.394C610.152 264.182 609.687 263.895 609.055 263.551C608.069 263.014 606.969 262.487 605.779 261.994C602.25 260.53 598.559 259.622 594.751 259.625ZM594.751 275.844C596.152 275.842 597.842 276.237 599.551 276.947C600.339 277.274 600.742 277.504 601.14 277.725C607.81 284.072 616.179 296.486 625.987 314.248C627.7 317.35 631.24 318.975 634.712 318.27C643.521 316.485 651.329 315.767 658.034 316.064C658.701 316.739 659.366 317.399 659.98 318.14C661.508 319.987 662.422 321.636 662.737 322.779C659.022 323.773 645.696 327.362 644.151 327.774C639.214 329.09 636.683 334.602 638.929 339.192C639.646 340.658 640.38 342.138 641.102 343.635C648.904 359.831 656.643 377.211 663.97 394.593C666.535 400.678 668.862 406.327 670.911 411.394C671.226 412.174 671.524 412.958 672.014 414.184C670.816 416.058 669.555 417.28 668.089 417.558C666.313 417.892 663.98 417.459 661.537 416.422C661.344 416.34 661.322 416.307 661.148 416.227C650.966 388.437 639.292 363.037 626.214 339.516C624.352 336.166 620.373 334.593 616.71 335.721C602.822 339.998 593.29 343.35 586.836 346.36C586.211 345.978 585.565 345.658 584.988 345.192C582.064 342.832 580.782 340.14 581.355 336.338C582.637 335.753 583.912 335.153 585.441 334.488C591.382 331.904 597.812 329.342 604.547 326.931C605.322 326.653 606.106 326.358 606.882 326.088C611.833 324.363 613.896 318.468 611.066 314.054C604.842 304.345 598.882 295.891 593.421 288.721C591.783 286.571 590.386 284.769 589.042 283.109C589.791 280.269 590.688 278.05 591.767 276.979C592.574 276.178 593.443 275.846 594.751 275.844Z" fill="black"/>
<path d="M431.976 791.217C431.976 791.217 370.856 756.116 345.861 767.52C303.796 786.713 264.095 865.413 290.331 892.733C316.567 920.053 332.58 924.841 364.618 931.788C396.655 938.734 456.057 924.622 487.444 888.353" fill="#F3886D"/>
<path d="M281.783 853.696C281.783 853.696 380.448 803.38 481.35 894.728L465.543 917.579L440.523 926.683L409.007 933.956L376.686 933.813L348.826 926.872C348.826 926.872 327.809 917.534 323.286 915.782C318.764 914.029 299.409 900.92 299.409 900.92L284.259 884.494L281.783 853.696Z" fill="#F9B192"/>
<path d="M349.405 830.598C342.598 830.822 335.806 831.509 329.1 832.706C325.255 833.393 321.358 834.181 317.649 835.431C313.383 836.873 311.116 841.511 312.557 845.778C313.999 850.045 318.605 852.313 322.872 850.87C322.837 850.883 322.967 850.849 323.002 850.838C323.125 850.8 323.236 850.778 323.358 850.74C323.652 850.653 323.939 850.563 324.234 850.481C325.091 850.244 325.965 850.036 326.829 849.832C329.227 849.269 331.629 848.777 334.063 848.405C341.579 847.259 349.2 846.827 356.8 847.043C379.318 847.683 401.358 853.727 421.608 863.455C425.899 865.507 431.038 863.693 433.09 859.401C435.142 855.109 433.327 849.971 429.035 847.919C420.633 843.92 411.991 840.449 403.087 837.734C385.729 832.442 367.54 830.003 349.405 830.598Z" fill="black"/>
<path d="M379.537 833.063C376.412 832.49 373.09 833.776 371.234 836.598C369.004 839.977 366.905 843.464 364.844 846.945C361.166 853.161 357.816 859.589 355.957 866.602C354.77 871.209 357.545 875.892 362.152 877.078C366.758 878.266 371.441 875.522 372.629 870.916C373.633 866.862 375.4 862.994 377.202 859.239C379.465 854.526 382.007 849.967 384.857 845.584C387.331 841.82 386.285 836.77 382.521 834.296C381.581 833.677 380.579 833.254 379.537 833.063Z" fill="black"/>
<path d="M368.347 751.52C365.555 751.389 362.746 751.423 359.882 751.714C346.143 753.107 333.697 759.661 323.034 768.159C313.719 775.582 305.644 784.48 298.577 794.043C292.472 802.306 287.128 811.133 282.652 820.381C277.089 831.87 272.71 844.134 270.877 856.807C269.753 864.574 269.606 872.576 271.201 880.29C272.443 886.298 274.786 892.081 278.402 897.06C280.132 899.443 282.182 901.55 284.241 903.644C285.869 905.302 287.523 906.939 289.203 908.542C300.22 919.057 312.317 927.858 326.472 933.647C335.425 937.31 344.797 939.746 354.205 941.919C363.711 944.114 373.197 945.996 382.944 946.655C403.866 948.069 425.003 944.706 444.507 937.021C461.106 930.482 476.002 921.044 489.724 909.71C494.956 905.382 495.705 897.621 491.377 892.389C487.05 887.156 479.289 886.439 474.057 890.767C465.066 898.214 455.478 904.822 444.994 910.002C429.426 917.693 412.318 922.075 394.945 922.489C388.171 922.651 381.375 922.252 374.672 921.257C369.613 920.507 364.607 919.369 359.622 918.241C352.835 916.704 346.082 915.04 339.512 912.726C334.308 910.894 329.267 908.611 324.526 905.786C317.682 901.706 311.496 896.615 305.713 891.157C303.947 889.49 302.226 887.795 300.523 886.064C299.396 884.919 298.246 883.803 297.345 882.464C295.926 880.356 295.048 877.899 294.523 875.425C293.279 869.57 293.747 863.4 294.782 857.553C296.441 848.183 299.746 839.132 303.832 830.566C307.624 822.617 312.206 815.052 317.423 807.958C322.978 800.403 329.261 793.322 336.495 787.329C343.512 781.515 351.683 776.392 360.854 775.068C369.354 773.841 377.661 776.144 385.669 778.766C391.777 780.768 398.36 777.447 400.362 771.337C402.364 765.229 399.043 758.646 392.934 756.644C384.833 753.986 376.725 751.911 368.347 751.52Z" fill="black"/>
<path d="M356.217 757.131C351.101 757.328 346.526 758.309 342.496 760.147C320.382 770.237 298.404 795.274 285.149 823.657C270.961 854.036 269.23 882.49 284.468 898.357C297.948 912.395 309.297 921.138 321.769 927.193C332.443 932.376 342.562 935.304 362.898 939.713C380.724 943.578 405.074 941.469 428.711 934.004C454.71 925.794 477.8 911.893 493.583 893.654L481.322 883.047C467.666 898.828 447.16 911.169 423.846 918.533C402.726 925.201 381.155 927.065 366.337 923.852C347.196 919.701 338.024 917.056 328.841 912.597C318.258 907.459 308.419 899.85 296.177 887.102C286.854 877.394 288.182 855.47 299.842 830.501C311.595 805.335 331.057 783.203 349.243 774.906C355.342 772.123 366.669 773.107 381.29 777.63C387.996 779.705 395.141 782.446 402.536 785.674C408.864 788.436 415.027 791.403 420.732 794.367C422.725 795.403 424.521 796.363 426.084 797.222C426.625 797.52 427.865 798.221 427.932 798.26L436.01 784.182C435.613 783.954 434.883 783.54 433.868 782.982C432.199 782.064 430.3 781.061 428.192 779.966C422.181 776.842 415.711 773.706 409.023 770.786C401.11 767.333 393.424 764.395 386.09 762.125C374.754 758.618 364.743 756.803 356.217 757.131Z" fill="black"/>
<path opacity="0.699694" d="M303.998 995.368C303.998 968.479 442.795 946.681 614.011 946.681C785.227 946.681 924.024 968.479 924.024 995.368C924.024 1022.26 785.227 1044.06 614.011 1044.06C442.795 1044.06 303.998 1022.26 303.998 995.368Z" fill="black" fill-opacity="0.7"/>
<path opacity="0.197261" d="M487.607 547.725C487.607 547.725 483.469 940.165 841.225 884.726L784.023 932.015L704.673 960.87L578.762 955.624L489.575 899.226L446.302 927.659L379.126 937.762L322.118 916.606L287.817 888.83L287.167 860.593L330.155 844.404L407.251 847.485C407.251 847.485 434.834 804.68 431.508 793.494L393.667 774.201L389.57 617.314L406.985 581.328L423.747 552.067L462.255 557.507L487.607 547.725Z" fill="black"/>
<path opacity="0.197261" d="M925.767 700.871L979.725 693.54L923.029 768.54L925.767 700.871Z" fill="black"/>
</g>
</svg>
