<svg width="1253" height="1321" viewBox="0 0 1253 1321" fill="none" xmlns="http://www.w3.org/2000/svg">
<mask id="mask0_311_9581" style="mask-type:luminance" maskUnits="userSpaceOnUse" x="0" y="0" width="1253" height="1321">
<path d="M1252.11 0H0V1321H1252.11V0Z" fill="white"/>
</mask>
<g mask="url(#mask0_311_9581)">
<path d="M343.383 735.506C343.383 584.137 466.092 461.428 617.461 461.428C768.83 461.428 891.539 584.137 891.539 735.506C891.539 886.876 768.83 1009.58 617.461 1009.58C466.092 1009.58 343.383 886.876 343.383 735.506Z" fill="#F3886D"/>
<path d="M642.207 614.154C591.158 614.154 531.198 633.144 500.539 674.49C488.047 633.875 450.248 604.364 405.538 604.364C393.24 604.364 381.465 606.597 370.594 610.68C370.594 610.68 324.438 700.902 347.189 781.894C355.561 811.696 401.916 804.909 405.61 794.71C409.306 784.511 395.374 799.812 399.247 799.354C394.806 811.202 395.448 825.786 395.448 839.166C395.449 899.533 459.742 949.68 520.677 949.68C581.611 949.68 631.01 900.763 631.01 840.396C631.01 831.096 629.696 822.109 627.49 813.49C691.657 797.642 742.24 748.818 739.765 713.327C736.241 662.792 711.818 614.154 642.207 614.154Z" fill="#F9B192"/>
<path d="M617.452 449.161C459.316 449.161 331.126 577.383 331.127 735.519C331.127 893.655 459.316 1021.84 617.452 1021.84C775.588 1021.84 903.777 893.655 903.777 735.519C903.777 577.383 775.587 449.161 617.452 449.161ZM617.452 473.664C762.055 473.664 879.273 590.917 879.274 735.519C879.274 880.122 762.055 997.341 617.452 997.341C472.85 997.341 355.63 880.122 355.63 735.519C355.63 590.917 472.85 473.664 617.452 473.664Z" fill="black"/>
<path d="M625.711 695.787C620.171 695.261 616.215 698.606 613.628 703.537C611.873 706.881 610.74 711.161 610.312 715.687C609.883 720.213 610.198 724.629 611.293 728.244C612.908 733.572 616.144 737.601 621.683 738.126C627.222 738.651 631.146 735.306 633.732 730.375C635.486 727.031 636.653 722.752 637.083 718.226C637.512 713.699 637.162 709.284 636.067 705.669C634.452 700.341 631.25 696.311 625.711 695.787Z" fill="black"/>
<path d="M413.471 680.285C407.933 679.761 404.009 683.105 401.423 688.036C399.668 691.381 398.5 695.66 398.072 700.186C397.643 704.713 397.991 709.127 399.087 712.742C400.701 718.071 403.938 722.1 409.477 722.625C415.017 723.15 418.939 719.771 421.526 714.841C423.28 711.496 424.448 707.25 424.877 702.724C425.305 698.198 424.957 693.783 423.862 690.168C422.247 684.839 419.01 680.81 413.471 680.285Z" fill="black"/>
<path d="M482.04 841.183C480.992 841.242 479.928 841.502 478.926 841.995C474.921 843.965 473.267 848.82 475.237 852.825C477.361 857.145 479.988 861.329 482.954 865.111C485.679 868.585 488.859 871.913 492.836 873.944C494.951 875.024 497.291 875.699 499.673 875.771C503.5 875.888 507.364 874.482 510.808 872.963C518.124 869.734 524.973 865.215 531.352 860.406C535.109 857.559 535.857 852.216 533.01 848.459C530.163 844.701 524.82 843.953 521.063 846.8C518.293 848.935 515.381 850.916 512.433 852.792C510.798 853.83 509.143 854.851 507.457 855.803C505.596 856.853 503.687 857.816 501.704 858.613C501.211 858.81 500.693 858.979 500.18 859.12C500.147 859.129 500.12 859.152 500.08 859.154C499.996 859.111 499.912 859.059 499.842 859.019C499.417 858.768 499.043 858.493 498.658 858.172C497.85 857.501 497.145 856.698 496.458 855.905C495.922 855.286 495.428 854.697 494.935 854.043C494.188 853.055 493.479 852.034 492.803 850.997C491.692 849.292 490.662 847.509 489.756 845.684C488.279 842.679 485.185 841.003 482.04 841.183Z" fill="black"/>
<path d="M405.551 596.317C392.499 596.317 379.755 598.656 367.78 603.154C365.907 603.858 364.361 605.229 363.448 607.012C363.179 607.537 362.705 608.494 362.061 609.855C361.006 612.081 359.832 614.659 358.574 617.571C355.002 625.855 351.445 635.156 348.117 645.29C335.446 683.873 329.625 723.238 334.579 760.26C335.671 768.417 337.286 776.341 339.453 784.053C344.264 801.182 359.166 810.264 377.697 811.331C381.297 811.539 384.865 811.383 388.324 810.993C387.745 815.602 387.472 820.676 387.41 826.595C387.387 828.87 387.389 830.664 387.41 834.651C387.423 836.94 387.411 837.921 387.41 839.152C387.41 870.495 403.314 900.548 430.021 923.188C455.594 944.867 488.824 957.71 520.691 957.71C586.051 957.71 639.045 905.224 639.045 840.404C639.045 833.351 638.126 826.294 636.777 819.218C699.114 801.163 750.566 752.626 747.787 712.776C745.752 683.594 737.36 658.329 721.965 639.672C703.975 617.873 677.292 606.098 642.192 606.098C588.419 606.099 534.982 625.278 503.158 659.031C485.963 621.475 448.247 596.317 405.551 596.317ZM405.551 612.393C445.941 612.393 481.178 638.854 492.87 676.867C494.807 683.167 503.058 684.564 506.984 679.27C533.53 643.471 587.631 622.208 642.192 622.208C672.633 622.208 694.742 631.917 709.577 649.893C722.595 665.667 729.926 687.797 731.745 713.893C732.757 728.402 722.346 747.296 703.181 764.829C682.775 783.495 654.993 798.414 625.575 805.68C621.239 806.75 618.579 811.168 619.686 815.494C621.84 823.911 622.968 832.186 622.968 840.404C622.968 896.31 577.206 941.633 520.691 941.633C492.735 941.633 463.152 930.214 440.411 910.936C417.101 891.176 403.486 865.427 403.486 839.152C403.486 837.883 403.465 828.927 403.486 826.764C403.581 817.666 404.251 811.059 405.754 805.578C409.298 803.408 411.985 800.714 413.167 797.455C413.932 795.34 414.348 793.545 414.283 791.701C414.125 787.236 410.894 783.221 405.721 783.173C402.044 783.138 399.683 784.727 396.718 787.64C394.949 789.378 393.267 791.493 392.183 793.361C392.069 793.556 392.015 793.743 391.912 793.936C387.929 794.986 383.285 795.558 378.61 795.289C366.282 794.58 357.608 789.294 354.919 779.721C352.961 772.749 351.513 765.551 350.52 758.128C345.934 723.863 351.403 686.809 363.381 650.333C366.552 640.678 369.942 631.791 373.331 623.934C374.428 621.392 375.421 619.226 376.344 617.267C385.671 614.119 395.48 612.393 405.551 612.393Z" fill="black" fill-opacity="0.5"/>
<path d="M617.933 809.568C618.696 794.619 638.768 784.322 662.764 786.569C686.761 788.815 705.597 802.755 704.834 817.704C704.072 832.652 684.001 842.949 660.005 840.703C636.007 838.457 617.172 824.517 617.933 809.568Z" fill="#FF497F" stroke="black" stroke-width="0.0121711" stroke-miterlimit="10" stroke-linecap="round" stroke-linejoin="round"/>
<path d="M324.131 798.008C324.131 784.168 344.145 772.949 368.832 772.949C393.519 772.949 413.532 784.168 413.532 798.008C413.532 811.848 393.519 823.067 368.832 823.067C344.145 823.067 324.131 811.848 324.131 798.008Z" fill="#FF497F" stroke="black" stroke-width="0.0123833" stroke-miterlimit="10" stroke-linecap="round" stroke-linejoin="round"/>
<path d="M653.226 778.299C629.773 779.243 610.823 791.149 609.905 809.165C608.875 829.37 631.498 846.097 659.25 848.696C687.208 851.313 711.81 838.691 712.86 818.1C713.89 797.896 691.267 781.169 663.515 778.57C660.02 778.243 656.576 778.165 653.226 778.299ZM654.749 794.308C657.092 794.251 659.521 794.344 662.026 794.579C682.267 796.473 697.312 807.595 696.818 817.288C696.343 826.595 680.775 834.563 660.739 832.687C640.498 830.792 625.453 819.672 625.947 809.977C626.363 801.834 638.345 794.705 654.749 794.308Z" fill="black"/>
<path d="M368.83 764.761C340.226 764.761 315.964 778.367 315.965 797.997C315.965 817.627 340.226 831.231 368.83 831.231C397.433 831.231 421.694 817.627 421.695 797.997C421.695 778.367 397.434 764.761 368.83 764.761ZM368.83 781.142C389.6 781.142 405.348 789.947 405.348 797.997C405.348 806.047 389.601 814.885 368.83 814.885C348.059 814.885 332.311 806.047 332.311 797.997C332.311 789.947 348.059 781.142 368.83 781.142Z" fill="black"/>
<path d="M846.391 738.566C846.391 738.566 896.853 699.782 937.957 705.478C979.061 711.172 991.006 812.39 950.797 855.208C910.589 898.027 866.38 900.191 833.856 882.691" fill="#F3886D"/>
<path d="M846.391 738.566C846.391 738.566 896.853 699.782 937.957 705.478C979.061 711.172 991.006 812.39 950.797 855.208C910.589 898.027 866.38 900.191 833.856 882.691" stroke="black" stroke-width="0.0125975" stroke-miterlimit="10" stroke-linejoin="round"/>
<path d="M972.061 747.831C896.369 775.34 857.89 835.553 838.442 884.936C870.465 899.866 912.445 896.072 950.806 855.22C974.319 830.182 979.75 783.491 972.061 747.831Z" fill="#F9B192"/>
<path d="M935.895 758.162C934.788 758.123 933.646 758.282 932.545 758.703C911.97 766.614 895.304 781.852 881.101 798.335C875.076 805.327 869.259 812.62 864.212 820.368C861.775 824.107 862.809 829.133 866.548 831.571C870.288 834.007 875.313 832.941 877.75 829.201C883.337 820.665 889.948 812.704 896.907 805.274C908.688 792.691 922.339 780.83 938.637 774.643C943.041 772.962 945.26 768.049 943.578 763.644C942.316 760.341 939.22 758.279 935.895 758.162Z" fill="black"/>
<path d="M903.065 783.274C899.964 782.722 896.699 784.021 894.875 786.828C892.442 790.57 893.502 795.597 897.244 798.03C897.201 798.002 897.337 798.068 897.379 798.099C897.476 798.166 897.554 798.231 897.65 798.301C897.867 798.459 898.082 798.644 898.293 798.809C898.827 799.225 899.344 799.646 899.851 800.095C901.331 801.405 902.729 802.835 903.946 804.393C907.835 809.378 910.103 815.3 910.071 821.654C910.084 826.369 913.919 830.196 918.634 830.183C923.349 830.169 927.175 826.335 927.162 821.62C927.13 817.823 926.695 814.075 925.64 810.418C923.377 802.57 918.61 795.615 912.779 789.976C910.702 787.966 908.47 786.04 906.043 784.459C905.108 783.85 904.099 783.458 903.065 783.274Z" fill="black"/>
<path d="M927.806 687.765C916.25 688.085 904.071 691.126 891.457 696.361L900.73 718.665C913.911 713.195 925.836 710.918 935.827 712.302C948.055 713.996 959.641 735.001 962.598 765.032C965.79 797.447 958.051 829.829 941.987 846.935C908.846 882.227 871.318 889.129 839.573 872.049L828.134 893.337C869.703 915.703 919.119 906.616 959.62 863.486C1004.73 815.445 992.936 695.827 939.144 688.374C935.431 687.859 931.658 687.658 927.806 687.765Z" fill="black"/>
<path d="M928.313 696.599C924.63 696.651 920.862 696.953 917.009 697.513C901.646 699.744 885.524 705.782 869.288 714.4C862.088 718.222 855.339 722.289 849.219 726.382C847.068 727.819 845.137 729.167 843.465 730.375C842.441 731.115 841.738 731.654 841.332 731.966C837.689 734.767 837.009 739.999 839.809 743.642C842.61 747.286 847.809 747.965 851.452 745.166C851.507 745.124 852.69 744.257 853.212 743.879C854.725 742.786 856.479 741.547 858.458 740.224C864.134 736.428 870.435 732.63 877.107 729.089C891.795 721.292 906.214 715.912 919.412 713.994C925.64 713.09 931.45 712.981 936.808 713.723C941.36 714.355 945.553 711.168 946.183 706.617C946.813 702.065 943.662 697.872 939.11 697.242C935.611 696.757 931.997 696.547 928.313 696.599Z" fill="black"/>
<path d="M459.408 539.215C459.408 539.215 410.734 489.464 491.351 434.944C571.968 380.425 844.739 450.309 844.739 450.309L853.288 486.939C853.288 486.939 862.405 534.473 842.434 559.883C822.463 585.292 608.588 623.877 459.408 539.215Z" fill="#DFFFEA"/>
<path d="M601.918 406.111C550.158 405.307 510.809 412.074 486.846 428.279C458.64 447.353 443.025 467.651 438.312 488.556C434.667 504.732 437.777 519.746 445.116 532.893C446.92 536.125 448.849 538.993 450.802 541.489C451.499 542.381 452.162 543.177 452.764 543.859C453.155 544.3 453.471 544.629 453.678 544.84C454.204 545.377 454.784 545.822 455.438 546.194C523.756 584.965 610.516 601.53 699.627 598.856C770.798 596.719 835.552 581.628 848.746 564.842C855.523 556.219 859.71 545.254 861.81 532.52C863.938 519.618 863.812 506.044 862.317 493.192C862.078 491.127 861.799 489.257 861.54 487.608C861.379 486.592 861.248 485.832 861.167 485.409C861.147 485.304 852.57 448.484 852.57 448.484C851.889 445.565 849.652 443.271 846.749 442.527C846.669 442.507 842.152 441.374 840.352 440.936C835.222 439.691 829.331 438.3 822.753 436.808C803.976 432.546 783.496 428.295 761.968 424.32C725.987 417.672 690.801 412.519 657.727 409.393C637.828 407.513 619.171 406.379 601.918 406.111ZM603.001 422.254C619.423 422.539 637.208 423.573 656.204 425.368C688.76 428.445 723.511 433.558 759.058 440.124C780.359 444.06 800.625 448.297 819.2 452.512C825.696 453.986 831.508 455.346 836.562 456.573C836.978 456.674 837.404 456.794 838.017 456.946L845.395 488.454C845.444 488.708 845.535 489.277 845.666 490.113C845.893 491.552 846.129 493.211 846.343 495.054C847.678 506.541 847.784 518.707 845.937 529.915C844.244 540.183 841.024 548.689 836.122 554.925C832.606 559.4 816.392 566.065 793.309 571.441C766.771 577.623 733.76 581.74 699.119 582.779C613.196 585.358 529.765 569.534 464.475 532.825C464.165 532.469 463.967 532.223 463.459 531.573C461.998 529.705 460.543 527.516 459.161 525.041C453.617 515.107 451.293 504.004 453.983 492.076C457.713 475.527 470.805 458.55 495.848 441.613C516.701 427.512 553.735 421.4 603.001 422.254Z" fill="black"/>
<path d="M373.206 355.254C376.554 285.95 506.482 255.47 665.76 263.156C825.036 270.841 951.43 318.006 948.082 387.31C944.734 456.614 824.145 508.379 664.867 500.694C505.591 493.008 369.857 424.558 373.206 355.254Z" fill="#93E9CA"/>
<path d="M614.022 293.562L589.528 333.243L651.337 302.623L669.185 341.467L684.932 305.982L743.514 328.659L726.716 287.715L672.124 274.696L618.582 274.066L614.022 293.562Z" fill="#DFFFEA"/>
<path d="M385.128 393.58C421.361 447.99 535.308 494.447 664.853 500.698C778.323 506.173 871.908 481.389 917.706 441.674C676.752 509.912 423.012 409.525 385.128 393.58Z" fill="#82D4D5"/>
<path d="M546.963 483.716C546.963 483.716 494.342 437.845 501.52 387.3C508.697 336.755 571.804 284.715 669.306 290.097C766.807 295.481 824.052 333.318 830.334 396.944C836.617 460.571 772.068 493.662 772.272 498.3C772.272 498.3 877.589 500.386 886.867 397.668C896.147 294.949 704.842 257.836 664.098 262.104C623.355 266.374 444.337 272.642 433.713 371.76C423.088 470.877 546.963 483.716 546.963 483.716Z" fill="#B7F2CC"/>
<path d="M490.535 483.682C487.44 484.27 484.843 486.67 484.138 489.943C482.976 495.272 481.897 500.627 480.889 505.986C479.829 511.616 478.869 517.332 478.892 523.077C478.939 527.792 482.808 531.551 487.523 531.504C492.237 531.458 496.03 527.623 495.983 522.908C495.907 518.716 496.531 514.496 497.066 510.352C497.804 504.647 498.751 498.955 499.944 493.328C500.884 488.964 498.114 484.691 493.75 483.75C492.659 483.514 491.567 483.486 490.535 483.682Z" fill="black"/>
<path d="M530.539 495.054C526.138 494.307 521.944 497.252 521.198 501.654C520.162 507.678 519.247 513.76 518.524 519.828C517.916 524.941 517.439 530.162 518.085 535.294C518.702 539.969 523.022 543.257 527.696 542.64C532.37 542.021 535.659 537.736 535.04 533.061C534.492 529.235 534.915 525.214 535.176 521.385C535.565 515.678 536.204 510.004 537.138 504.361C537.886 499.96 534.94 495.8 530.539 495.054Z" fill="black"/>
<path d="M587.904 507.948C584.801 508.487 582.164 510.848 581.406 514.109C578.76 525.357 575.793 536.509 573.115 547.75C572.047 552.343 574.919 556.938 579.511 558.005C584.104 559.073 588.699 556.201 589.766 551.608C592.321 540.339 594.592 529.026 597.178 517.764C598.189 513.416 595.468 509.061 591.12 508.05C590.032 507.798 588.94 507.77 587.904 507.948Z" fill="black"/>
<path d="M651.872 517.222C647.424 516.839 643.523 520.119 643.139 524.566C642.129 535.933 640.764 547.25 639.721 558.615C639.316 563.312 642.808 567.449 647.506 567.854C652.203 568.259 656.34 564.801 656.746 560.104C657.662 548.729 658.267 537.325 659.216 525.954C659.599 521.507 656.319 517.606 651.872 517.222Z" fill="black"/>
<path d="M724.57 520.201C720.108 520.081 716.398 523.591 716.279 528.053C715.947 539.222 715.288 550.39 714.925 561.558C714.798 566.272 718.503 570.198 723.217 570.324C727.93 570.451 731.856 566.711 731.983 561.999C732.219 550.827 732.186 539.664 732.456 528.492C732.576 524.03 729.033 520.321 724.57 520.201Z" fill="black"/>
<path d="M776.419 515.158C771.959 515.358 768.501 519.125 768.703 523.585C769.212 535.597 769.376 547.616 769.853 559.629C770.065 564.339 774.078 567.997 778.788 567.785C783.498 567.574 787.123 563.594 786.911 558.885C786.307 546.876 785.418 534.883 784.846 522.874C784.646 518.414 780.878 514.957 776.419 515.158Z" fill="black"/>
<path d="M816.628 503.684C812.19 504.166 808.971 508.148 809.453 512.586C810.599 523.497 811 534.564 810.401 545.516C810.169 550.225 813.814 554.221 818.523 554.451C823.232 554.682 827.227 551.071 827.458 546.362C827.974 534.507 826.833 522.606 825.529 510.826C825.048 506.388 821.066 503.202 816.628 503.684Z" fill="black"/>
<path d="M606.824 253.607C549.455 254.361 498.527 260.652 458.653 272.221C400.402 289.122 366.597 316.981 364.768 354.836C361.091 430.953 501.603 501.275 664.462 509.133C825.174 516.889 952.822 464.712 956.54 387.732C958.369 349.874 927.294 317.84 871.185 294.321C819.178 272.522 746.848 258.584 666.154 254.69C645.77 253.706 625.947 253.355 606.824 253.607ZM605.81 270.53C624.798 270.262 644.671 270.615 665.341 271.613C828.005 279.461 942.49 327.432 939.618 386.887C938.164 416.98 910.472 445.104 861.742 465.034C810.687 485.914 741.255 495.912 665.274 492.245C589.286 488.579 516.094 470.663 461.834 443.508C409.331 417.234 380.235 385.083 381.657 355.648C384.13 304.441 472.882 272.398 605.81 270.53Z" fill="black"/>
<path d="M714.619 250.188C707.978 249.554 702.087 254.444 701.454 261.087C700.82 267.728 705.71 273.618 712.352 274.252C848.82 287.272 938.574 334.073 936.031 386.718C934.536 417.641 902.966 446.945 847.866 466.455C841.577 468.682 838.295 475.566 840.521 481.855C842.749 488.144 849.665 491.459 855.954 489.233C919.278 466.81 958.091 430.775 960.162 387.902C963.591 316.92 862.756 264.322 714.619 250.188Z" fill="black"/>
<path d="M616.674 244.537C551.627 244.823 493.7 252.877 449.752 268.024C395.099 286.861 362.828 316.368 360.978 354.666C358.989 395.831 396.026 435.189 458.856 465.102C464.965 468.011 472.294 465.423 475.203 459.314C478.112 453.204 475.526 445.909 469.416 443.001C414.541 416.877 384.063 384.499 385.448 355.851C388.072 301.517 494.001 264.996 644.223 269.378C650.987 269.575 656.65 264.263 656.847 257.498C657.045 250.735 651.731 245.072 644.968 244.875C635.405 244.596 625.966 244.496 616.674 244.537Z" fill="black"/>
<path d="M461.293 443.847C457.971 443.624 454.555 444.663 451.85 447.028C444.251 453.724 437.681 461.628 433.507 470.923C426.863 485.717 426.323 502.378 430.63 517.899C431.95 522.657 433.618 527.452 435.977 531.809C439.223 537.788 446.717 539.996 452.697 536.75C458.675 533.504 460.883 526.011 457.637 520.031C457.654 520.061 457.389 519.541 457.333 519.422C457.123 518.975 456.915 518.522 456.723 518.068C456.089 516.559 455.548 515.029 455.065 513.465C453.76 509.237 452.966 504.828 452.866 500.401C452.802 497.582 453.011 494.75 453.509 491.973C455.339 481.765 461.266 473.301 468.976 466.624C474.385 461.894 474.924 453.657 470.194 448.246C467.829 445.542 464.615 444.07 461.293 443.847Z" fill="black"/>
<path d="M859.034 471.6C857.43 471.353 855.73 471.414 854.058 471.837C847.369 473.529 843.33 480.344 845.023 487.033C845.013 486.994 845.046 487.096 845.056 487.135C845.075 487.214 845.105 487.292 845.123 487.371C845.169 487.568 845.183 487.784 845.225 487.981C845.367 488.632 845.507 489.255 845.631 489.91C846.008 491.887 846.344 493.905 846.612 495.9C847.403 501.775 847.758 507.708 847.628 513.634C847.234 531.554 842.845 549.682 831.315 563.792C826.727 569.455 827.583 577.785 833.245 582.373C838.906 586.961 847.237 586.071 851.825 580.41C857.204 573.726 861.633 566.377 864.923 558.445C871.513 542.553 873.435 525.095 872.775 508.017C872.554 502.311 872.009 496.642 871.184 490.993C870.689 487.609 870.094 484.191 869.255 480.873C867.986 475.856 863.846 472.339 859.034 471.6Z" fill="black"/>
<path d="M674.75 253.437C670.439 253.351 666.583 253.494 663.243 253.843C663.296 253.838 631.33 256.59 618.06 258.075C593.964 260.769 571.834 264.348 550.846 269.345C518.063 277.149 490.572 287.879 469.483 302.377C443.865 319.989 428.469 342.725 425.451 370.879C422.651 397.003 428.354 419.302 441.392 437.722C452.219 453.018 467.624 465.041 486.337 474.239C499.415 480.668 513.365 485.347 527.29 488.589C532.16 489.724 536.677 490.615 540.759 491.263C543.249 491.66 545.071 491.901 546.107 492.009C554.186 492.846 558.559 482.792 552.435 477.455C552.385 477.41 551.185 476.345 550.676 475.864C549.195 474.467 547.564 472.825 545.768 470.957C540.615 465.597 535.445 459.534 530.64 452.918C514.964 431.332 506.808 409.252 509.758 388.478C513.064 365.193 529.697 341.753 556.057 324.715C585.507 305.679 624.577 295.972 668.861 298.418C762.812 303.604 816.242 339.016 822.042 397.751C824.615 423.819 814.606 446.109 795.474 466.218C789.644 472.346 783.965 477.37 776.182 483.58C775.519 484.11 773.005 486.097 772.425 486.559C771.083 487.632 770.128 488.394 769.312 489.097C768.205 490.05 767.352 490.855 766.639 491.67C764.88 493.677 763.829 495.593 763.965 498.676C764.157 503.061 767.732 506.542 772.121 506.629C772.18 506.63 772.15 506.627 772.29 506.629C773.813 506.645 776.047 506.602 778.856 506.426C783.149 506.157 787.819 505.628 792.8 504.835C806.697 502.624 820.541 498.567 833.549 492.177C868.323 475.095 890.975 444.591 895.146 398.427C897.57 371.594 887.776 347.544 867.698 326.779C850.685 309.184 826.606 294.234 797.437 282.07C756.609 265.044 704.931 254.048 674.75 253.437ZM673.972 270.123C684.561 270.367 699.539 272.092 715.837 275.2C741.308 280.056 767.644 287.679 791.04 297.435C849.636 321.872 882.322 355.657 878.596 396.905C874.971 437.043 855.991 462.637 826.239 477.252C817.267 481.659 807.724 484.79 798.046 486.898C801.328 483.948 804.432 480.977 807.556 477.692C829.738 454.378 841.739 427.654 838.625 396.126C831.872 327.724 771.005 287.389 669.775 281.8C622.063 279.165 579.505 289.74 547.02 310.737C516.829 330.252 497.305 357.765 493.275 386.143C489.605 411.989 499.197 437.918 517.17 462.665C519.041 465.242 521.01 467.632 522.958 470.043C512.937 467.252 503.001 463.895 493.681 459.314C477.283 451.254 464.057 440.909 454.998 428.11C444.313 413.014 439.631 394.752 442.001 372.638C446.624 329.511 487.271 301.576 554.703 285.522C574.953 280.701 596.415 277.216 619.889 274.591C632.895 273.135 664.797 270.412 664.969 270.394C667.413 270.138 670.442 270.041 673.972 270.123Z" fill="black"/>
<path d="M650.52 152.265L649.098 182.286L607.131 181.101L605.879 225.911L647 227.062L644.922 254.813L704.895 257.656L707.04 228.754L743.288 229.77L744.54 184.96L709.139 183.978L710.493 155.075L650.52 152.265Z" fill="#FFA0CA"/>
<path d="M651.093 140.194C644.432 139.882 638.785 145.039 638.47 151.701L637.624 169.875L607.468 169.029C600.798 168.841 595.234 174.103 595.047 180.774L593.795 225.584C593.609 232.252 598.87 237.784 605.539 237.97L634.375 238.783L633.799 251.271C633.49 257.936 638.642 263.586 645.306 263.896C651.971 264.204 657.621 259.053 657.931 252.389L659.081 227.614C659.395 220.863 654.093 215.179 647.336 214.99L618.298 214.177L618.873 193.499L648.758 194.345C655.338 194.53 660.868 189.446 661.18 182.871L662.026 164.9L697.867 166.559L697.088 183.413C696.772 190.168 702.039 195.849 708.798 196.037L732.118 196.68L731.542 217.359L707.377 216.682C700.797 216.498 695.299 221.614 694.99 228.19L693.771 254.114C693.458 260.779 698.581 266.425 705.245 266.739C711.91 267.052 717.589 261.895 717.903 255.232L718.58 241.152L742.948 241.829C749.617 242.015 755.182 236.788 755.368 230.118L756.621 185.308C756.808 178.638 751.547 173.072 744.877 172.887L721.795 172.245L722.573 155.627C722.885 148.962 717.731 143.315 711.066 143.003L651.093 140.194Z" fill="black"/>
<path d="M280.423 1049.8C280.423 1021.75 425.248 999.003 603.898 999.003C782.549 999.003 927.374 1021.75 927.374 1049.8C927.374 1077.86 782.549 1100.6 603.898 1100.6C425.248 1100.6 280.423 1077.86 280.423 1049.8Z" fill="black" fill-opacity="0.7"/>
<path opacity="0.203921" d="M950.774 387.179C950.774 387.179 649.426 477.397 394.268 395.81L449.435 447.625L527.852 475.987L578.856 488.476L661.065 553.897C579.774 554.944 494.164 546.708 449.13 513.521L452.413 536.433L496.378 558.466L561.799 579.01L616.762 586.76C616.762 586.76 717.699 605.946 745.643 626.799C767.3 642.961 809.241 655.574 827.389 703.827C709.461 994.277 431.869 932.279 431.869 932.279L502.909 986.803L568.229 1005.82L639.608 1007.25L715.859 992.016L776.136 956.411L842.472 887.402L881.19 895.05L922.176 878.163L959.777 834.3L978.954 745.361L899.966 779.887C858.356 775.519 863.771 724.387 863.771 724.387L894.053 701.229L874.962 652.554L877.433 650.557L839.054 568.823L845.89 557.113L846.702 557.079L846.973 555.251L857.803 536.704C857.803 536.704 852.951 537.456 849.511 537.991L858.988 473.753C919.581 452.808 950.774 387.179 950.774 387.179Z" fill="black"/>
</g>
</svg>
