<svg width="1363" height="1438" viewBox="0 0 1363 1438" fill="none" xmlns="http://www.w3.org/2000/svg">
<mask id="mask0_311_10045" style="mask-type:luminance" maskUnits="userSpaceOnUse" x="0" y="0" width="1363" height="1438">
<path d="M1363 0H0V1437.99H1363V0Z" fill="white"/>
</mask>
<g mask="url(#mask0_311_10045)">
<path d="M359.539 1150.98C359.539 1120.44 517.19 1095.68 711.662 1095.68C906.135 1095.68 1063.79 1120.44 1063.79 1150.98C1063.79 1181.53 906.135 1206.28 711.662 1206.28C517.19 1206.28 359.539 1181.53 359.539 1150.98Z" fill="black" fill-opacity="0.7"/>
<path d="M1003.02 788.365C1003.02 788.365 1019.89 743.186 1054.2 758.34C1088.51 773.496 1095.09 860.134 1007.88 923.612" fill="#F3886D"/>
<path d="M1003.02 788.365C1003.02 788.365 1019.89 743.186 1054.2 758.34C1088.51 773.496 1095.09 860.134 1007.88 923.612" stroke="black" stroke-width="0.0122978" stroke-miterlimit="10" stroke-linecap="round" stroke-linejoin="round"/>
<path d="M1066.23 768.075C1024.63 800.801 1016.02 852.48 1016.02 852.48C1016.02 852.48 1014.67 891.673 1014.88 918.059C1083.5 863.816 1087.81 795.339 1066.23 768.075Z" fill="#F9B192"/>
<path d="M1066.23 768.075C1024.63 800.801 1016.02 852.48 1016.02 852.48C1016.02 852.48 1014.67 891.673 1014.88 918.059C1083.5 863.816 1087.81 795.339 1066.23 768.075Z" fill="#F9B192"/>
<path d="M1041.09 746.384C1035.68 746.296 1030.44 747.402 1025.46 749.588C1017.63 753.034 1010.97 758.931 1005.27 766.499C1002.2 770.586 999.592 774.914 997.426 779.247C996.667 780.768 996.026 782.159 995.474 783.446C995.129 784.256 994.881 784.904 994.737 785.289C993.029 789.863 995.357 794.927 999.932 796.636C1004.51 798.344 1009.61 796.016 1011.32 791.441C1011.37 791.307 1011.49 790.96 1011.72 790.409C1012.14 789.433 1012.67 788.328 1013.27 787.13C1014.98 783.697 1017.04 780.27 1019.42 777.109C1028.31 765.294 1038.2 760.939 1050.63 766.426C1064.11 772.382 1072.13 794.485 1067.87 821.467C1062.63 854.654 1040.7 888.759 1002.66 916.446C998.71 919.319 997.869 924.877 1000.74 928.825C1003.62 932.773 1009.14 933.651 1013.09 930.778C1054.81 900.41 1079.34 862.196 1085.33 824.231C1090.71 790.139 1079.78 759.972 1057.77 750.252C1052.09 747.739 1046.49 746.471 1041.09 746.384Z" fill="black"/>
<path d="M457.241 604.036L393.901 606.236C393.901 606.236 342.681 474.367 398.891 337.501C455.101 200.636 670.624 133.025 757.575 183.241C757.575 183.241 770.069 212.386 744.416 261.374" fill="#ABACE3"/>
<path d="M434.548 569.267C434.548 569.267 380.277 556.229 387.117 517.563C393.957 478.896 433.799 492.24 441.287 492.826C441.287 492.826 384.083 474.175 397.749 433.819C411.415 393.464 454.368 405.736 464.988 412.742C464.988 412.742 407.29 386.187 429.832 347.78C452.374 309.374 495.585 338.239 505.667 344.217C505.667 344.217 458.336 304.772 491.19 272.482C524.043 240.192 564.426 278.603 564.426 278.603L598.354 235.604C598.354 235.604 602.107 194.986 635.669 189.72C669.231 184.456 689.023 218.436 697.61 248.749L698.291 194.934L683.53 169.48L717.662 168.719L751.643 178.048L760.979 191.955C760.979 191.955 760.848 219.722 759.462 222.602C758.076 225.483 755.62 243.058 753.937 251.798C752.254 260.538 740.51 294.857 740.51 294.857L623.749 436.485C623.749 436.485 549.896 550.056 543.069 564.951C536.243 579.846 491.559 623.289 481.008 622.047C470.458 620.806 434.548 569.267 434.548 569.267Z" fill="#C3C4E1"/>
<path d="M436.502 544.092C436.502 544.092 404.679 535.001 405.641 519.772C406.605 504.542 432.828 514.897 438.143 513.44" fill="#FFD000"/>
<path d="M444.933 469.12C444.933 469.12 403.983 455.383 420.538 433.892C437.093 412.401 459.41 441.694 459.41 441.694" fill="#FFD000"/>
<path d="M480.492 393.125C480.492 393.125 444.144 379.969 449.117 361.444C454.09 342.918 488.755 359.386 496.087 368.557" fill="#FFD000"/>
<path d="M522.566 333.02C522.566 333.02 497.548 312.178 505.279 294.541C513.011 276.904 536.612 288.467 547.121 302.137" fill="#FFD000"/>
<path d="M630.86 263.127C630.86 263.127 620.199 226.139 633.038 214.54C645.877 202.943 664.402 219.625 670.897 255.551" fill="#FFD000"/>
<path d="M463.789 604.805L400.451 607.006C400.451 607.006 349.23 475.136 405.44 338.271C461.649 201.406 677.172 133.794 764.124 184.011C764.124 184.011 776.618 213.156 750.966 262.143" fill="#B7F2CC"/>
<path d="M441.097 570.037C441.097 570.037 386.825 556.998 393.666 518.332C400.506 479.666 440.347 493.008 447.836 493.594C447.836 493.594 390.631 474.944 404.297 434.588C417.964 394.233 460.917 406.504 471.536 413.511C471.536 413.511 413.84 386.956 436.381 348.549C458.922 310.142 502.134 339.009 512.215 344.987C512.215 344.987 464.884 305.541 497.738 273.251C530.592 240.962 570.974 279.373 570.974 279.373L604.903 236.373C604.903 236.373 608.655 195.754 642.217 190.489C675.78 185.225 695.573 219.206 704.159 249.518L704.839 195.703L690.079 170.25L724.211 169.487L758.191 178.817L767.529 192.724C767.529 192.724 767.397 220.492 766.011 223.371C764.625 226.251 762.168 243.827 760.486 252.567C758.803 261.307 747.06 295.627 747.06 295.627L630.297 437.254C630.297 437.254 556.445 550.825 549.619 565.72C542.791 580.614 498.107 624.057 487.557 622.816C477.006 621.574 441.097 570.037 441.097 570.037Z" fill="#DFFFEA"/>
<path d="M443.051 544.861C443.051 544.861 411.229 535.77 412.192 520.54C413.155 505.311 439.377 515.665 444.693 514.208" fill="#FFA0CA"/>
<path d="M451.483 469.888C451.483 469.888 410.532 456.151 427.087 434.66C443.643 413.17 465.959 442.463 465.959 442.463" fill="#FFA0CA"/>
<path d="M487.041 393.893C487.041 393.893 450.693 380.739 455.666 362.213C460.638 343.687 495.303 360.154 502.635 369.325" fill="#FFA0CA"/>
<path d="M529.115 333.79C529.115 333.79 504.096 312.946 511.829 295.309C519.561 277.672 543.161 289.236 553.67 302.905" fill="#FFA0CA"/>
<path d="M637.409 263.895C637.409 263.895 626.747 226.907 639.587 215.31C652.426 203.711 670.952 220.393 677.447 256.32" fill="#FFA0CA"/>
<path d="M674.985 158.642C671.565 159.054 668.521 161.46 667.507 164.979C666.154 169.671 668.894 174.569 673.586 175.922C674.021 176.047 675.074 176.43 676.533 177.101C679.056 178.26 681.572 179.765 683.902 181.632C689.733 186.305 693.327 192.341 693.923 200.311C694.388 206.556 694.42 214.396 694.07 223.411C693.773 231.052 693.226 239.225 692.485 247.579C692.083 252.118 691.627 256.405 691.196 260.326C691.046 261.696 690.67 265.049 690.644 265.264C690.039 270.109 693.46 274.532 698.307 275.137C703.152 275.742 707.576 272.283 708.181 267.438C708.189 267.364 708.615 263.696 708.77 262.28C709.213 258.241 709.683 253.795 710.096 249.126C710.86 240.502 711.407 232.036 711.717 224.074C712.091 214.448 712.092 205.996 711.57 198.985C710.583 185.759 704.394 175.38 694.954 167.817C691.416 164.981 687.666 162.73 683.902 161C682.57 160.389 681.323 159.903 680.181 159.49C679.442 159.222 678.878 159.014 678.485 158.9C677.312 158.562 676.126 158.506 674.985 158.642Z" fill="black"/>
<path d="M693.444 158.642C655.776 158.048 612.63 166.289 570.06 182.738C489.547 213.848 424.504 268.586 397.271 334.894C379.406 378.395 370.948 424.026 370.303 470.511C369.805 506.381 373.954 540.62 381.172 572.009C383.561 582.405 386.115 591.757 388.687 599.9C389.594 602.769 390.43 605.294 391.193 607.452C391.661 608.777 392.025 609.702 392.224 610.215C393.586 613.72 397.013 615.983 400.772 615.852L464.102 613.641C468.983 613.472 472.783 609.384 472.613 604.505C472.443 599.624 468.357 595.787 463.476 595.957L406.666 597.946C406.289 596.815 405.969 595.851 405.56 594.557C403.127 586.852 400.658 577.99 398.376 568.068C391.46 537.985 387.511 505.129 387.987 470.768C388.602 426.406 396.653 382.97 413.629 341.637C438.807 280.333 500.096 228.739 576.434 199.243C645.952 172.381 716.411 168.893 756.775 190.179C756.858 190.511 756.952 190.732 757.033 191.101C758.421 197.316 758.841 205.211 757.659 214.642C756.014 227.767 751.41 242.255 743.144 258.043C740.878 262.368 742.539 267.715 746.864 269.979C751.191 272.244 756.537 270.584 758.801 266.259C768.038 248.619 773.285 232.063 775.196 216.816C776.636 205.323 776.096 195.431 774.275 187.269C773.879 185.494 773.431 183.909 772.985 182.554C772.689 181.651 772.445 180.984 772.248 180.527C771.497 178.773 770.217 177.319 768.564 176.364C748.753 164.923 722.741 159.106 693.444 158.642Z" fill="black"/>
<path d="M421.66 503.336C419.172 503.495 416.893 503.931 414.733 504.7C408.096 507.061 403.823 512.492 403.35 519.989C402.945 526.391 405.631 532.122 410.387 537.047C413.808 540.591 418.249 543.681 423.502 546.442C427.262 548.418 431.219 550.113 435.181 551.563C437.567 552.435 439.476 553.037 440.634 553.368C445.329 554.71 450.197 551.985 451.539 547.289C452.881 542.594 450.193 537.688 445.497 536.346C445.342 536.303 444.971 536.188 444.429 536.015C443.484 535.713 442.409 535.368 441.26 534.947C437.986 533.749 434.713 532.358 431.718 530.784C424.72 527.106 421.163 523.412 421.108 521.278C422.439 520.921 424.708 520.859 427.96 521.205C429.526 521.371 431.144 521.572 433.413 521.942C433.797 522.005 435.972 522.396 436.582 522.494C437.82 522.694 438.815 522.824 439.713 522.936C442.703 523.308 444.794 523.37 447.045 522.752C451.755 521.461 454.525 516.593 453.234 511.883C451.943 507.175 447.075 504.404 442.366 505.694C442.916 505.543 443.153 505.509 443.25 505.51C442.97 505.504 442.513 505.478 441.887 505.399C441.241 505.319 440.464 505.2 439.418 505.031C438.856 504.941 436.708 504.584 436.287 504.515C433.719 504.096 431.8 503.803 429.839 503.594C426.866 503.278 424.148 503.178 421.66 503.336Z" fill="black"/>
<path d="M443.175 417.973C440.75 417.793 438.296 417.962 435.807 418.526C429.825 419.883 424.502 423.501 420.076 429.248C413.508 437.773 412.614 447.089 417.018 455.479C420.165 461.473 425.623 466.406 432.712 470.731C436.209 472.865 439.896 474.721 443.581 476.295C445.806 477.245 447.569 477.917 448.666 478.283C453.295 479.837 458.312 477.314 459.866 472.683C461.418 468.054 458.932 463.074 454.302 461.521C454.175 461.479 453.863 461.333 453.382 461.152C452.533 460.835 451.58 460.453 450.544 460.01C447.589 458.748 444.625 457.275 441.923 455.627C437.318 452.816 434.053 449.886 432.676 447.263C431.517 445.054 431.68 443.153 434.076 440.042C436.096 437.42 437.947 436.169 439.713 435.768C442.923 435.04 447.582 437.053 452.645 441.368C454.336 442.81 455.919 444.374 457.323 445.937C457.81 446.478 458.218 446.974 458.576 447.41C458.77 447.647 458.877 447.776 458.907 447.816C461.866 451.701 467.439 452.469 471.323 449.51C475.207 446.551 475.941 440.979 472.981 437.095C472.47 436.424 471.636 435.402 470.476 434.111C468.577 431.998 466.434 429.871 464.102 427.884C457.438 422.203 450.454 418.515 443.175 417.973Z" fill="black"/>
<path d="M461.851 342.42C460.379 342.509 458.956 342.697 457.577 343.009C450.131 344.69 444.637 349.682 442.582 357.34C440.568 364.847 442.565 372.08 447.446 378.487C450.978 383.125 455.888 387.236 461.888 390.977C465.742 393.381 469.827 395.485 473.898 397.314C476.352 398.416 478.307 399.203 479.498 399.635C484.089 401.296 489.146 398.922 490.808 394.33C492.471 389.738 490.095 384.681 485.503 383.019C485.343 382.961 484.958 382.801 484.398 382.577C483.421 382.187 482.345 381.748 481.156 381.214C477.764 379.691 474.357 377.922 471.245 375.982C462.599 370.589 458.728 365.48 459.677 361.945C460.249 359.815 463.519 359.077 471.283 361.319C479.39 363.661 488.577 369.008 491.177 372.261C494.226 376.075 499.815 376.71 503.629 373.662C507.443 370.612 508.042 365.059 504.992 361.245C499.839 354.8 487.527 347.612 476.182 344.335C471.098 342.866 466.267 342.149 461.851 342.42Z" fill="black"/>
<path d="M524.708 277.495C515.606 277.621 507.896 282.281 503.744 291.753C502.249 295.165 501.503 298.779 501.497 302.473C501.484 311.768 505.793 320.784 512.807 329.552C515.108 332.428 517.58 335.057 520.028 337.437C521.52 338.886 522.703 339.942 523.454 340.568C527.207 343.694 532.781 343.215 535.908 339.462C539.033 335.711 538.517 330.136 534.765 327.01C534.694 326.951 534.52 326.77 534.212 326.494C533.662 326.004 533.011 325.421 532.333 324.763C530.383 322.866 528.428 320.757 526.623 318.5C521.889 312.582 519.175 306.886 519.181 302.473C519.183 301.167 519.42 299.997 519.918 298.863C521.517 295.213 524.08 294.331 529.238 295.841C535.318 297.622 542.345 302.676 546.665 308.295C549.641 312.166 555.173 312.891 559.044 309.916C562.916 306.939 563.641 301.372 560.665 297.5C554.136 289.008 543.989 281.767 534.176 278.894C530.919 277.942 527.741 277.452 524.708 277.495Z" fill="black"/>
<path d="M649.66 201.635C643.821 201.029 637.984 202.896 632.896 207.493C625.772 213.928 623.316 224.078 623.686 236.892C623.858 242.865 624.665 249.131 625.897 255.424C626.38 257.901 626.922 260.219 627.444 262.314C627.763 263.595 627.985 264.526 628.144 265.076C629.496 269.768 634.43 272.472 639.122 271.118C643.814 269.766 646.517 264.869 645.164 260.176C645.145 260.112 644.732 258.666 644.575 258.04C644.123 256.223 643.673 254.203 643.248 252.035C642.19 246.621 641.511 241.266 641.37 236.377C641.136 228.272 642.495 222.654 644.76 220.609C647.223 218.384 649.73 218.741 653.822 222.929C659.879 229.127 665.197 241.095 668.006 256.64C668.875 261.445 673.444 264.619 678.249 263.75C683.054 262.881 686.265 258.314 685.396 253.508C682.006 234.76 675.283 219.578 666.46 210.55C661.341 205.313 655.498 202.241 649.66 201.635Z" fill="black"/>
<path d="M808.401 282.332C808.401 282.332 811.526 179.246 824.742 167.713C824.742 167.713 849.01 158.648 866.552 238.184C866.552 238.184 870.396 274.228 848.771 308.349" fill="#AF93E5"/>
<path d="M814.951 283.101C814.951 283.101 818.075 180.016 831.291 168.483C831.291 168.483 855.561 159.417 873.102 238.953C873.102 238.953 876.947 274.997 855.32 309.118" fill="#93E9CA"/>
<path d="M834.217 159.306C832.819 159.269 831.45 159.383 830.164 159.637C829.389 159.792 828.751 159.989 828.211 160.19C827.215 160.563 826.287 161.111 825.486 161.811C817.354 168.907 813.187 189.557 809.827 224.406C808.594 237.2 807.633 250.89 806.917 264.563C806.666 269.346 806.449 273.8 806.29 277.79C806.235 279.188 806.109 282.772 806.106 282.837C805.959 287.718 809.809 291.789 814.69 291.937C819.572 292.085 823.643 288.234 823.79 283.353C823.797 283.14 823.92 279.859 823.974 278.49C824.131 274.572 824.318 270.19 824.564 265.484C825.268 252.05 826.195 238.608 827.401 226.1C828.75 212.112 830.376 200.194 832.227 191.027C833.23 186.063 834.282 182.008 835.359 179.017C835.535 178.529 835.704 178.292 835.874 177.874C836.439 178.137 836.885 178.202 837.57 178.684C842.367 182.064 847.653 189.478 852.896 202.079C857.045 212.053 860.889 224.792 864.353 240.395C864.373 240.633 864.365 240.796 864.391 241.243C864.723 247.055 864.456 254.589 863.101 263.164C861.113 275.744 857.123 288.08 850.686 299.6C849.784 301.214 848.842 302.822 847.848 304.389C845.234 308.514 846.45 313.97 850.575 316.584C854.7 319.199 860.193 317.982 862.806 313.858C863.975 312.013 865.062 310.119 866.121 308.221C873.644 294.76 878.268 280.424 880.563 265.89C882.129 255.981 882.476 247.215 882.075 240.211C882.016 239.198 881.938 238.451 881.89 238C881.856 237.675 881.813 237.362 881.742 237.042C878.036 220.233 873.842 206.418 869.216 195.3C862.791 179.855 855.589 169.775 847.738 164.242C843.035 160.929 838.412 159.417 834.217 159.306Z" fill="black"/>
<path d="M407.345 1033.35C407.345 1033.35 687.92 1222.27 1004.4 1025.05C1004.4 1025.05 1043.86 787.455 954.373 636.828C954.373 636.828 1002.43 634.833 1011.07 628.91C1019.71 622.987 1022.17 598.293 1050.62 581.949C1050.62 581.949 1054.1 559.082 1049.07 535.595C1049.07 535.595 1063.14 514.367 1061.85 505.852C1061.85 505.852 942.966 320.235 773.944 255.411C773.944 255.411 651.921 224.582 546.317 311.029C440.713 397.476 434.711 510.081 434.711 589.38C434.711 668.679 474.997 802.682 407.345 1033.35Z" fill="#AF93E5"/>
<path d="M631.028 464.796L628.45 466.306L619.35 471.611C619.35 471.611 595.526 567.469 663.007 605.348C730.49 643.228 762.702 617.543 762.702 617.543L820.838 633.017C820.838 633.017 837.977 719.152 980.365 704.638C982.488 704.421 984.121 704.038 986.148 703.79L981.433 682.127L973.364 658.364L959.144 637.069C959.144 637.069 905.001 632.56 895.186 627.712C885.371 622.863 861.952 603.446 859.634 595.475L756.955 566.222C756.955 566.222 736.394 608.267 685.334 586.08C619.768 557.589 626.313 471.06 626.313 471.06L631.028 464.796Z" fill="#B876D1"/>
<path d="M515.161 340.454C439.666 421.874 434.698 518.819 434.698 589.396C434.698 668.696 475.013 802.668 407.362 1033.34C407.362 1033.34 426.998 1046.37 461.113 1061.97C464.694 1046.6 522.417 793.247 479.24 603.875C455.707 500.658 507.386 390.592 515.197 349.187C515.74 346.316 515.635 343.409 515.161 340.454Z" fill="#B876D1"/>
<path d="M919.189 455.385C861.6 461.483 862.949 494.97 862.949 494.97L846.702 587.111L861.819 600.3C861.819 600.3 878.221 620.411 901.365 629.539C924.508 638.667 927.901 634.997 954.392 636.811C954.392 636.811 1002.42 634.85 1011.05 628.927C1019.69 623.004 1022.17 598.297 1050.62 581.954C1050.62 581.954 1054.1 559.093 1049.07 535.607C1049.07 535.607 1063.15 514.354 1061.86 505.839C1061.86 505.839 1035.06 470.639 1017.69 447.981C994.756 444.946 926.388 454.623 919.189 455.385Z" fill="#ABACE3"/>
<path d="M1047.12 484.838C1010.76 499.739 981.986 492.391 981.986 492.391C981.986 492.391 954.617 480.997 942.638 488.412C930.66 495.827 924.954 523.78 924.954 523.78C920.391 546.026 971.154 567.696 971.154 567.696C936.359 611.047 939.802 630.991 939.802 630.991C939.802 630.991 957.327 641.753 954.391 636.811C954.391 636.811 1002.42 634.851 1011.05 628.928C1019.69 623.005 1022.17 598.298 1050.62 581.954C1050.62 581.954 1054.1 559.093 1049.07 535.607C1049.07 535.607 1063.15 514.354 1061.86 505.839C1061.86 505.839 1055.96 497.084 1047.12 484.838Z" fill="#C3C4E1"/>
<path d="M413.894 1034.12C413.894 1034.12 694.468 1223.05 1010.95 1025.81C1010.95 1025.81 1050.41 788.224 960.923 637.596C960.923 637.596 1008.98 635.601 1017.62 629.678C1026.26 623.755 1028.72 599.061 1057.17 582.718C1057.17 582.718 1060.65 559.851 1055.62 536.365C1055.62 536.365 1069.69 515.136 1068.4 506.62C1068.4 506.62 949.515 321.004 780.492 256.18C780.492 256.18 658.471 225.352 552.867 311.799C447.263 398.245 441.26 510.849 441.26 590.148C441.26 669.448 481.545 803.451 413.894 1034.12Z" fill="#93E9CA"/>
<path d="M521.71 341.224C446.215 422.643 441.247 519.588 441.247 590.165C441.248 669.464 481.562 803.438 413.911 1034.11C413.911 1034.11 433.548 1047.14 467.663 1062.74C471.243 1047.37 528.966 794.016 485.79 604.644C462.256 501.427 513.935 391.361 521.747 349.955C522.289 347.085 522.185 344.179 521.71 341.224Z" fill="#82D4D5"/>
<path d="M637.579 465.566L634.999 467.076L625.899 472.381C625.899 472.381 602.075 568.238 669.558 606.117C737.039 643.997 769.251 618.312 769.251 618.312L827.389 633.786C827.389 633.786 844.526 719.921 986.914 705.407C989.037 705.19 990.67 704.808 992.698 704.559L987.982 682.896L979.914 659.133L965.693 637.839C965.693 637.839 911.55 633.328 901.735 628.481C891.92 623.633 868.501 604.216 866.183 596.244L763.504 566.992C763.504 566.992 742.944 609.036 691.883 586.85C626.317 558.358 632.863 471.828 632.863 471.828L637.579 465.566Z" fill="#82D4D5"/>
<path d="M925.738 456.155C868.149 462.252 869.498 495.739 869.498 495.739L853.251 587.882L868.367 601.069C868.367 601.069 884.771 621.181 907.914 630.308C931.058 639.436 934.451 635.765 960.94 637.581C960.94 637.581 1008.97 635.619 1017.6 629.696C1026.24 623.773 1028.72 599.067 1057.17 582.724C1057.17 582.724 1060.65 559.862 1055.62 536.376C1055.62 536.376 1069.7 515.123 1068.41 506.608C1068.41 506.608 1041.61 471.409 1024.23 448.751C1001.31 445.716 932.937 455.392 925.738 456.155Z" fill="#B7F2CC"/>
<path d="M1053.67 485.608C1017.31 500.507 988.535 493.16 988.535 493.16C988.535 493.16 961.166 481.766 949.188 489.181C937.21 496.597 931.503 524.55 931.503 524.55C926.941 546.795 977.704 568.465 977.704 568.465C942.91 611.815 946.351 631.759 946.351 631.759C946.351 631.759 963.876 642.522 960.941 637.581C960.941 637.581 1008.97 635.619 1017.6 629.696C1026.24 623.773 1028.72 599.067 1057.17 582.723C1057.17 582.723 1060.65 559.861 1055.62 536.376C1055.62 536.376 1069.7 515.123 1068.41 506.607C1068.41 506.607 1062.51 497.854 1053.67 485.608Z" fill="#DFFFEA"/>
<path d="M655.216 362.625C655.216 362.625 685.127 368.279 703.004 363.504" stroke="black" stroke-width="0.0122978" stroke-miterlimit="10" stroke-linecap="round" stroke-linejoin="round"/>
<path d="M656.859 353.943C652.061 353.035 647.451 356.18 646.543 360.979C645.637 365.778 648.782 370.424 653.58 371.332C654.117 371.433 655.048 371.564 656.344 371.774C658.47 372.117 660.836 372.486 663.381 372.806C670.935 373.752 678.506 374.281 685.67 374.242C693.097 374.203 699.676 373.526 705.27 372.031C709.988 370.772 712.793 365.955 711.533 361.237C710.274 356.519 705.456 353.714 700.738 354.974C696.81 356.023 691.639 356.562 685.596 356.595C679.292 356.629 672.442 356.091 665.592 355.231C663.262 354.94 661.107 354.658 659.18 354.347C658.513 354.24 656.94 353.958 656.859 353.943Z" fill="black"/>
<path d="M983.539 583.343L1055.44 578.146" stroke="black" stroke-width="0.0122978" stroke-miterlimit="10" stroke-linecap="round" stroke-linejoin="round"/>
<path d="M1054.79 569.32L982.912 574.515C978.042 574.867 974.381 579.113 974.732 583.984C975.085 588.854 979.294 592.515 984.164 592.162L1056.08 586.968C1060.95 586.615 1064.61 582.37 1064.26 577.5C1063.91 572.628 1059.66 568.968 1054.79 569.32Z" fill="black"/>
<path d="M985.961 544.837C985.961 544.837 957.298 474.498 949.338 518.072" stroke="black" stroke-width="0.0122978" stroke-miterlimit="10" stroke-linecap="round" stroke-linejoin="round"/>
<path d="M959.516 495.01C957.848 494.832 956.126 494.965 954.322 495.452C946.713 497.503 942.795 504.762 940.653 516.489C939.776 521.292 942.96 525.89 947.763 526.767C952.568 527.645 957.165 524.461 958.043 519.657C958.448 517.439 958.94 516.407 959.405 515.015C959.599 515.229 959.681 515.255 959.885 515.494C962.451 518.511 965.394 523.02 968.433 528.573C970.769 532.845 973.04 537.474 975.137 542.093C975.873 543.713 976.515 545.209 977.09 546.552C977.289 547.018 977.766 548.114 977.79 548.173C979.633 552.696 984.762 554.879 989.285 553.036C993.807 551.194 995.99 546.026 994.148 541.504C993.999 541.14 993.717 540.477 993.338 539.588C992.713 538.129 992.029 536.506 991.237 534.763C988.972 529.772 986.513 524.797 983.943 520.099C980.376 513.581 976.855 508.134 973.369 504.036C968.996 498.896 964.523 495.544 959.516 495.01Z" fill="black"/>
<path d="M965.688 637.84C965.688 637.84 911.538 633.326 901.725 628.477C891.91 623.629 868.498 604.219 866.181 596.248L763.509 566.995C763.509 566.995 742.954 609.03 691.893 586.843C626.327 558.351 632.881 471.844 632.881 471.844" stroke="black" stroke-width="0.0122978" stroke-miterlimit="10" stroke-linecap="round" stroke-linejoin="round"/>
<path d="M633.539 463.031C628.67 462.662 624.44 466.304 624.071 471.173C624.04 471.574 623.999 472.258 623.96 473.199C623.693 479.746 623.888 487.967 624.918 497.257C626.431 510.907 629.511 524.393 634.497 537.083C644.838 563.405 662.351 583.661 688.36 594.962C717.898 607.797 741.902 602.816 759.28 586.599C762.462 583.63 765.098 580.497 767.385 577.314L860.043 603.693C863.045 608.543 868.33 614.064 875.333 620.198C883.312 627.188 892.132 633.607 897.806 636.409C903.037 638.993 914.393 641.055 931.848 643.225C939.098 644.126 946.87 644.942 954.617 645.693C957.326 645.956 964.834 646.64 964.969 646.652C969.836 647.057 974.106 643.45 974.512 638.583C974.917 633.716 971.273 629.447 966.406 629.04C966.286 629.031 958.974 628.379 956.311 628.12C948.712 627.383 941.096 626.531 934.022 625.651C919.186 623.807 908.266 621.857 905.654 620.567C901.619 618.574 893.898 612.962 886.975 606.899C880.13 600.903 875.085 595.211 874.669 593.783C873.82 590.862 871.517 588.574 868.591 587.741L765.949 558.489C761.831 557.316 757.441 559.247 755.559 563.094C755.542 563.132 755.439 563.351 755.228 563.72C754.827 564.421 754.319 565.235 753.718 566.114C751.96 568.687 749.777 571.297 747.196 573.704C741.907 578.639 735.639 582.135 728.296 583.651C718.915 585.589 708.08 584.21 695.433 578.715C674.085 569.438 659.658 552.822 650.928 530.599C646.56 519.479 643.843 507.5 642.492 495.305C641.567 486.964 641.375 479.641 641.607 473.936C641.637 473.203 641.666 472.698 641.681 472.499C642.05 467.63 638.409 463.4 633.539 463.031Z" fill="black"/>
<path d="M413.894 1034.12C413.894 1034.12 694.468 1223.05 1010.95 1025.81C1010.95 1025.81 1050.41 788.224 960.923 637.596C960.923 637.596 1008.98 635.601 1017.62 629.678C1026.26 623.755 1028.72 599.061 1057.17 582.718C1057.17 582.718 1060.65 559.851 1055.62 536.365C1055.62 536.365 1069.69 515.136 1068.4 506.62C1068.4 506.62 949.515 321.004 780.492 256.18C780.492 256.18 658.471 225.352 552.867 311.799C447.263 398.245 441.26 510.849 441.26 590.149C441.26 669.448 481.545 803.451 413.894 1034.12Z" stroke="black" stroke-width="0.0122978" stroke-miterlimit="10" stroke-linecap="round" stroke-linejoin="round"/>
<mask id="mask1_311_10045" style="mask-type:luminance" maskUnits="userSpaceOnUse" x="344" y="144" width="752" height="990">
<path d="M1095.41 144.23H344.504V1133.39H1095.41V144.23Z" fill="white"/>
<path d="M596.057 162.024C594.814 162.196 593.434 162.584 591.931 163.24C587.419 165.206 573.748 176.277 561.684 194.445C561.254 195.092 560.856 195.843 560.431 196.508C493.523 225.197 431.853 273.956 405.436 338.276C349.227 475.141 400.464 607.001 400.464 607.001L441.689 605.565C441.691 605.603 441.688 605.637 441.689 605.675C443.084 632.643 447.488 665.228 450.421 704.669C451.946 725.202 452.96 747.796 453.036 772.238C419.15 759.029 393.119 772.771 374.416 789.775C371.054 792.832 368.43 796.383 366.495 800.348C365.915 801.537 365.519 802.847 365.058 804.106C364.751 804.945 364.355 805.744 364.1 806.612C363.821 807.559 363.692 808.578 363.474 809.559C361.695 817.547 361.788 826.477 363.584 835.901C363.899 837.552 364.354 839.239 364.763 840.912C364.766 840.922 364.76 840.936 364.763 840.948C364.766 840.959 364.76 840.974 364.763 840.985C365.664 844.65 366.719 848.354 368.043 852.074C368.315 852.84 368.675 853.592 368.963 854.359C368.978 854.394 368.987 854.433 369 854.47C369.047 854.592 369.1 854.714 369.147 854.837C369.833 856.634 370.474 858.423 371.247 860.217C371.821 861.544 372.618 862.835 373.237 864.158C374.55 866.976 375.929 869.751 377.436 872.522C378.128 873.789 378.661 875.101 379.39 876.353C379.857 877.156 380.456 877.879 380.937 878.674C380.96 878.712 380.987 878.746 381.011 878.785C382.922 881.944 384.965 884.976 387.09 887.995C387.211 888.168 387.336 888.338 387.457 888.512C388.172 889.516 388.75 890.619 389.484 891.606C389.706 891.903 389.96 892.157 390.184 892.453C393.62 897 397.239 901.375 401.053 905.385C405.114 909.655 409.569 913.141 414.242 915.995C416.579 917.423 418.96 918.705 421.39 919.827C426.248 922.068 431.246 923.708 436.236 924.911C437.306 925.168 438.376 925.319 439.442 925.537C433.46 959.184 425.337 995.149 413.911 1034.11C413.911 1034.11 431.44 1045.93 462.689 1060.56C464.187 1061.26 466.102 1062.02 467.663 1062.74C563.766 1106.66 777.366 1171.38 1010.93 1025.82C1010.93 1025.82 1018.65 979.23 1019.52 914.337C1062.81 878.189 1078.54 836.502 1077.69 804.916C1077.68 804.5 1077.67 804.077 1077.66 803.664C1077.56 801.223 1077.36 798.86 1077.07 796.554C1076.97 795.771 1076.85 794.998 1076.73 794.233C1076.39 792.076 1075.99 789.985 1075.48 787.969C1075.33 787.337 1075.14 786.744 1074.97 786.127C1074.38 784.052 1073.8 782.021 1073.05 780.122C1072.89 779.716 1072.67 779.377 1072.5 778.979C1068.34 769.159 1062.04 761.816 1054.19 758.348C1031.59 748.367 1016.72 764.442 1009.09 776.659C1008.22 771.703 1007.49 766.764 1006.48 761.812C1002.54 742.577 997.475 723.431 991.187 704.78C991.679 704.703 992.168 704.624 992.698 704.559L987.982 682.896L979.914 659.133L965.693 637.839L964.698 637.322C967.547 637.193 974.904 636.896 986.029 635.849C999.125 634.61 1013.29 632.657 1017.6 629.696C1021.91 626.74 1024.71 619.069 1029.95 610.134C1029.95 610.119 1029.97 610.11 1029.98 610.096C1032.61 605.618 1035.82 600.839 1040.19 596.134C1044.56 591.426 1050.06 586.808 1057.17 582.723C1057.17 582.723 1060.65 559.861 1055.62 536.375C1055.62 536.375 1066.4 520.101 1068.22 510.328C1068.48 508.933 1068.57 507.672 1068.41 506.607C1068.41 506.607 1062.59 497.99 1053.93 485.976C1053.92 485.961 1053.9 485.953 1053.89 485.939C1053.81 485.826 1053.75 485.721 1053.67 485.608C1051.39 482.44 1050.02 480.401 1047.19 476.618C1015.14 433.813 948.598 354.345 861.356 298.045C876.033 267.64 873.109 238.95 873.109 238.95C855.568 159.414 831.293 168.472 831.293 168.472C820.402 177.977 816.497 246.705 815.414 271.629C804.029 265.971 792.396 260.758 780.488 256.192C780.488 256.192 778.579 255.688 775.035 255.013C771.639 254.367 766.576 253.585 760.409 252.839C760.421 252.783 760.473 252.636 760.483 252.581C762.166 243.842 764.623 226.246 766.009 223.366C767.396 220.486 767.519 192.713 767.519 192.713L765.825 190.172C765.775 189.928 765.729 189.553 765.678 189.324C764.907 185.826 764.13 184.019 764.13 184.019C762.943 183.333 761.645 182.745 760.409 182.103L758.199 178.824L724.193 169.504L719.588 169.613C706.431 167.668 692.19 167.134 677.257 167.882C676.967 167.786 676.004 167.403 676.004 167.403L676.151 167.992C654.156 169.186 630.762 173.283 607.11 179.929L607.368 170.019C607.368 170.019 604.766 160.814 596.057 162.024Z" fill="black"/>
</mask>
<g mask="url(#mask1_311_10045)">
<path d="M596.057 162.024C594.814 162.196 593.434 162.584 591.931 163.24C587.419 165.206 573.748 176.277 561.684 194.445C561.254 195.092 560.856 195.843 560.431 196.508C493.523 225.197 431.853 273.956 405.436 338.276C349.227 475.141 400.464 607.001 400.464 607.001L441.689 605.565C441.691 605.603 441.688 605.637 441.689 605.675C443.084 632.643 447.488 665.228 450.421 704.67C451.946 725.202 452.96 747.796 453.036 772.238C419.15 759.029 393.119 772.771 374.416 789.775C371.054 792.832 368.43 796.383 366.495 800.348C365.915 801.537 365.519 802.847 365.058 804.106C364.751 804.944 364.355 805.744 364.1 806.612C363.821 807.559 363.692 808.578 363.474 809.559C361.695 817.547 361.788 826.477 363.584 835.901C363.899 837.552 364.354 839.239 364.763 840.912C364.766 840.922 364.76 840.936 364.763 840.948C364.766 840.959 364.76 840.974 364.763 840.985C365.664 844.65 366.719 848.354 368.043 852.074C368.315 852.84 368.675 853.592 368.963 854.359C368.978 854.394 368.987 854.433 369 854.47C369.047 854.592 369.1 854.714 369.147 854.837C369.833 856.634 370.474 858.423 371.247 860.217C371.821 861.544 372.618 862.835 373.237 864.158C374.55 866.976 375.929 869.751 377.436 872.522C378.128 873.789 378.661 875.101 379.39 876.353C379.857 877.156 380.456 877.879 380.937 878.674C380.96 878.712 380.987 878.746 381.011 878.785C382.922 881.944 384.965 884.976 387.09 887.995C387.211 888.168 387.336 888.338 387.457 888.512C388.172 889.516 388.75 890.619 389.484 891.606C389.706 891.903 389.96 892.157 390.184 892.453C393.62 897 397.239 901.375 401.053 905.385C405.114 909.655 409.569 913.141 414.242 915.995C416.579 917.423 418.96 918.705 421.39 919.827C426.248 922.068 431.246 923.708 436.236 924.911C437.306 925.168 438.376 925.319 439.442 925.537C433.46 959.184 425.337 995.149 413.911 1034.11C413.911 1034.11 431.44 1045.93 462.689 1060.56C464.187 1061.26 466.102 1062.02 467.663 1062.74C563.766 1106.66 777.366 1171.38 1010.93 1025.82C1010.93 1025.82 1018.65 979.23 1019.52 914.337C1062.81 878.189 1078.54 836.502 1077.69 804.916C1077.68 804.5 1077.67 804.077 1077.66 803.664C1077.56 801.223 1077.36 798.86 1077.07 796.554C1076.97 795.771 1076.85 794.998 1076.73 794.233C1076.39 792.076 1075.99 789.985 1075.48 787.969C1075.32 787.337 1075.14 786.744 1074.97 786.127C1074.38 784.052 1073.8 782.021 1073.05 780.122C1072.89 779.716 1072.67 779.377 1072.5 778.979C1068.34 769.159 1062.04 761.816 1054.19 758.348C1031.59 748.367 1016.72 764.442 1009.09 776.659C1008.22 771.703 1007.49 766.764 1006.48 761.812C1002.54 742.577 997.475 723.431 991.187 704.78C991.679 704.703 992.168 704.624 992.698 704.559L987.982 682.896L979.914 659.133L965.693 637.839L964.698 637.322C967.547 637.193 974.904 636.896 986.029 635.849C999.125 634.61 1013.29 632.657 1017.6 629.696C1021.91 626.74 1024.71 619.069 1029.95 610.134C1029.95 610.119 1029.97 610.11 1029.98 610.096C1032.61 605.618 1035.82 600.839 1040.19 596.134C1044.56 591.426 1050.06 586.808 1057.17 582.723C1057.17 582.723 1060.65 559.861 1055.62 536.375C1055.62 536.375 1066.4 520.101 1068.22 510.328C1068.48 508.933 1068.57 507.672 1068.41 506.607C1068.41 506.607 1062.59 497.99 1053.93 485.976C1053.92 485.961 1053.9 485.953 1053.89 485.939C1053.81 485.826 1053.75 485.721 1053.67 485.608C1051.39 482.44 1050.02 480.401 1047.19 476.618C1015.14 433.813 948.598 354.345 861.356 298.045C876.033 267.64 873.109 238.95 873.109 238.95C855.568 159.414 831.293 168.472 831.293 168.472C820.402 177.977 816.497 246.705 815.414 271.629C804.029 265.971 792.396 260.758 780.488 256.192C780.488 256.192 778.579 255.688 775.035 255.013C771.639 254.367 766.576 253.585 760.409 252.839C760.421 252.783 760.473 252.636 760.483 252.581C762.166 243.842 764.623 226.246 766.009 223.366C767.396 220.486 767.519 192.713 767.519 192.713L765.825 190.172C765.774 189.928 765.729 189.553 765.678 189.324C764.907 185.826 764.13 184.019 764.13 184.019C762.943 183.333 761.645 182.745 760.409 182.103L758.199 178.824L724.193 169.504L719.588 169.613C706.431 167.668 692.19 167.134 677.257 167.882C676.967 167.786 676.004 167.403 676.004 167.403L676.151 167.992C654.156 169.186 630.762 173.283 607.11 179.929L607.368 170.019C607.368 170.019 604.766 160.814 596.057 162.024Z" stroke="black" stroke-width="0.0245956" stroke-miterlimit="10" stroke-linecap="round" stroke-linejoin="round"/>
</g>
<path d="M732.091 242.016C719.722 241.812 706.732 242.376 693.259 243.896C656.431 248.051 620.403 258.947 586.565 278.048C572.942 285.739 559.803 294.67 547.255 304.942C497.404 345.752 466 394.575 448.997 451.095C436.272 493.397 432.418 533.528 432.418 590.136C432.418 600.353 433.031 611.751 434.297 626.388C434.798 632.179 435.377 638.267 436.213 646.689C436.127 645.822 437.92 663.49 438.423 668.646C444.015 725.912 445.824 767.648 443.176 818.114C439.66 885.125 427.841 955.176 405.413 1031.65C404.328 1035.35 405.754 1039.3 408.95 1041.45C410.003 1042.16 411.959 1043.43 414.808 1045.17C419.494 1048.04 425.031 1051.22 431.313 1054.64C449.193 1064.37 469.787 1074.06 492.839 1083.12C560.415 1109.67 634.781 1125.31 713.67 1124.49C815.399 1123.43 916.888 1094.84 1015.63 1033.31C1017.78 1031.96 1019.26 1029.77 1019.68 1027.27C1019.75 1026.82 1019.86 1025.98 1020.05 1024.76C1020.35 1022.76 1020.72 1020.4 1021.08 1017.72C1022.11 1010.12 1023.14 1001.41 1024.1 991.714C1027.04 961.963 1028.71 929.648 1028.45 895.962C1028.11 852.257 1024.53 809.716 1017.03 769.557C1008.36 723.169 994.694 681.46 975.469 645.51C980.687 645.138 985.96 644.773 990.869 644.258C1007.06 642.555 1017.39 640.551 1022.63 636.962C1025.39 635.067 1027.51 632.515 1029.66 629.004C1031.07 626.717 1035.92 617.513 1035.96 617.437C1038.63 612.578 1041.16 608.675 1044.18 604.983C1048.84 599.293 1054.46 594.479 1061.57 590.394C1063.9 589.052 1065.51 586.722 1065.92 584.057C1066.09 582.92 1066.34 580.944 1066.58 578.273C1067.7 565.602 1067.34 551.788 1064.88 538.262C1065 538.071 1065.05 538.025 1065.18 537.82C1066.77 535.23 1068.36 532.503 1069.86 529.715C1071.01 527.571 1072.03 525.473 1072.95 523.452C1076.27 516.227 1077.94 510.433 1077.15 505.29C1076.97 504.065 1076.49 502.906 1075.83 501.862C1075.73 501.707 1074.33 499.555 1073.73 498.658C1072.03 496.112 1070 493.164 1067.68 489.853C1061.08 480.42 1053.35 469.908 1044.55 458.611C1019.41 426.35 990.724 394.093 958.89 363.964C903.658 311.689 844.944 271.411 783.67 247.911C783.343 247.786 783.014 247.702 782.675 247.616C781.878 247.415 780.448 247.1 778.438 246.696C775.169 246.036 771.376 245.352 767.128 244.743C756.186 243.175 744.461 242.221 732.091 242.016ZM731.76 259.7C743.382 259.891 754.385 260.813 764.623 262.28C768.535 262.84 771.989 263.418 774.939 264.011C775.953 264.216 776.824 264.397 777.554 264.564C777.615 264.578 777.611 264.588 777.664 264.6C836.401 287.192 893.156 326.114 946.732 376.821C977.871 406.293 1006 437.881 1030.62 469.479C1039.23 480.532 1046.77 490.792 1053.21 499.984C1055.45 503.191 1057.39 506.016 1059.03 508.458C1059.15 508.638 1059.27 508.832 1059.43 509.084C1059.36 509.423 1059.33 509.699 1059.21 510.115C1058.74 511.762 1057.94 513.792 1056.89 516.084C1056.13 517.748 1055.26 519.515 1054.27 521.353C1052.96 523.81 1051.53 526.26 1050.11 528.574C1049.61 529.383 1048.31 531.369 1048.23 531.483C1046.92 533.466 1046.48 535.901 1046.98 538.226C1049.7 550.949 1050.01 564.493 1048.93 576.725C1048.91 577.033 1048.89 577.245 1048.86 577.536C1041.65 582.205 1035.6 587.578 1030.51 593.784C1026.71 598.42 1023.64 603.155 1020.49 608.889C1020.18 609.445 1015.64 618.056 1014.6 619.757C1013.62 621.344 1012.93 622.15 1012.61 622.373C1012.09 622.729 1009.24 623.632 1005.09 624.436C1000.79 625.268 995.317 626.019 988.99 626.683C982.782 627.336 976.111 627.849 969.427 628.268C967.084 628.415 960.649 628.743 960.548 628.746C953.861 629.024 949.908 636.366 953.327 642.12C975.12 678.801 990.318 722.885 999.637 772.799C1006.93 811.854 1010.43 853.352 1010.76 896.072C1011.02 929.093 1009.37 960.824 1006.49 989.983C1005.55 999.461 1004.55 1007.97 1003.54 1015.37C1003.34 1016.89 1003.09 1018.48 1002.81 1020.38C907.964 1078.69 810.846 1105.79 713.486 1106.81C637.04 1107.6 564.864 1092.46 499.286 1066.69C476.938 1057.91 457.01 1048.48 439.75 1039.09C433.788 1035.85 428.615 1032.83 424.203 1030.14C445.795 954.868 457.374 885.492 460.86 819.036C463.562 767.533 461.668 724.985 455.997 666.915C455.491 661.732 453.736 644.071 453.824 644.957C452.994 636.604 452.438 630.542 451.945 624.842C450.719 610.666 450.103 599.758 450.102 590.136C450.102 535.109 453.825 496.504 465.945 456.216C481.962 402.973 511.41 357.158 558.455 318.648C570.213 309.023 582.515 300.643 595.26 293.448C626.918 275.577 660.64 265.37 695.213 261.469C707.886 260.039 720.137 259.511 731.76 259.7Z" fill="black"/>
<path d="M732.091 242.016C719.722 241.812 706.732 242.376 693.259 243.896C656.431 248.051 620.403 258.947 586.565 278.048C572.942 285.739 559.803 294.67 547.255 304.942C497.404 345.752 466 394.575 448.997 451.095C436.272 493.397 432.418 533.528 432.418 590.136C432.418 600.353 433.031 611.751 434.297 626.388C434.798 632.179 435.377 638.267 436.213 646.689C436.127 645.822 437.92 663.49 438.423 668.646C444.015 725.912 445.824 767.648 443.176 818.114C439.66 885.125 427.841 955.176 405.413 1031.65C404.328 1035.35 405.754 1039.3 408.95 1041.45C410.003 1042.16 411.959 1043.43 414.808 1045.17C419.494 1048.04 425.031 1051.22 431.313 1054.64C449.193 1064.37 469.787 1074.06 492.839 1083.12C560.415 1109.67 634.781 1125.31 713.67 1124.49C815.399 1123.43 916.888 1094.84 1015.63 1033.31C1017.78 1031.96 1019.26 1029.77 1019.68 1027.27C1019.75 1026.82 1019.86 1025.98 1020.05 1024.76C1020.35 1022.76 1020.72 1020.4 1021.08 1017.72C1022.11 1010.12 1023.14 1001.41 1024.1 991.714C1027.04 961.963 1028.71 929.648 1028.45 895.962C1028.11 852.257 1024.53 809.716 1017.03 769.557C1008.36 723.169 994.694 681.46 975.469 645.51C980.687 645.138 985.96 644.773 990.869 644.258C1007.06 642.555 1017.39 640.551 1022.63 636.962C1025.39 635.067 1027.51 632.515 1029.66 629.004C1031.07 626.717 1035.92 617.513 1035.96 617.437C1038.63 612.578 1041.16 608.675 1044.18 604.983C1048.84 599.293 1054.46 594.479 1061.57 590.394C1063.9 589.052 1065.51 586.722 1065.92 584.057C1066.09 582.92 1066.34 580.944 1066.58 578.273C1067.7 565.602 1067.34 551.788 1064.88 538.262C1065 538.071 1065.05 538.025 1065.18 537.82C1066.77 535.23 1068.36 532.503 1069.86 529.715C1071.01 527.571 1072.03 525.473 1072.95 523.452C1076.27 516.227 1077.94 510.433 1077.15 505.29C1076.97 504.065 1076.49 502.906 1075.83 501.862C1075.73 501.707 1074.33 499.555 1073.73 498.658C1072.03 496.112 1070 493.164 1067.68 489.853C1061.08 480.42 1053.35 469.908 1044.55 458.611C1019.41 426.35 990.724 394.093 958.89 363.964C903.658 311.689 844.944 271.411 783.67 247.911C783.343 247.786 783.014 247.702 782.675 247.616C781.878 247.415 780.448 247.1 778.438 246.696C775.169 246.036 771.376 245.352 767.128 244.743C756.186 243.175 744.461 242.221 732.091 242.016ZM731.76 259.7C743.382 259.891 754.385 260.813 764.623 262.28C768.535 262.84 771.989 263.418 774.939 264.011C775.953 264.216 776.824 264.397 777.554 264.564C777.615 264.578 777.611 264.588 777.664 264.6C836.401 287.192 893.156 326.114 946.732 376.821C977.871 406.293 1006 437.881 1030.62 469.479C1039.23 480.532 1046.77 490.792 1053.21 499.984C1055.45 503.191 1057.39 506.016 1059.03 508.458C1059.15 508.638 1059.27 508.832 1059.43 509.084C1059.36 509.423 1059.33 509.699 1059.21 510.115C1058.74 511.762 1057.94 513.792 1056.89 516.084C1056.13 517.748 1055.26 519.515 1054.27 521.353C1052.96 523.81 1051.53 526.26 1050.11 528.574C1049.61 529.383 1048.31 531.369 1048.23 531.483C1046.92 533.466 1046.48 535.901 1046.98 538.226C1049.7 550.949 1050.01 564.493 1048.93 576.725C1048.91 577.033 1048.89 577.245 1048.86 577.536C1041.65 582.205 1035.6 587.578 1030.51 593.784C1026.71 598.42 1023.64 603.155 1020.49 608.889C1020.18 609.445 1015.64 618.056 1014.6 619.757C1013.62 621.344 1012.93 622.15 1012.61 622.373C1012.09 622.729 1009.24 623.632 1005.09 624.436C1000.79 625.268 995.317 626.019 988.99 626.683C982.782 627.336 976.111 627.849 969.427 628.268C967.084 628.415 960.649 628.743 960.548 628.746C953.861 629.024 949.908 636.366 953.327 642.12C975.12 678.801 990.318 722.885 999.637 772.799C1006.93 811.854 1010.43 853.352 1010.76 896.072C1011.02 929.093 1009.37 960.824 1006.49 989.983C1005.55 999.461 1004.55 1007.97 1003.54 1015.37C1003.34 1016.89 1003.09 1018.48 1002.81 1020.38C907.964 1078.69 810.846 1105.79 713.486 1106.81C637.04 1107.6 564.864 1092.46 499.286 1066.69C476.938 1057.91 457.01 1048.48 439.75 1039.09C433.788 1035.85 428.615 1032.83 424.203 1030.14C445.795 954.868 457.374 885.492 460.86 819.036C463.562 767.533 461.668 724.985 455.997 666.915C455.491 661.732 453.736 644.071 453.824 644.957C452.994 636.604 452.438 630.542 451.945 624.842C450.719 610.666 450.103 599.758 450.102 590.136C450.102 535.109 453.825 496.504 465.945 456.216C481.962 402.973 511.41 357.158 558.455 318.648C570.213 309.023 582.515 300.643 595.26 293.448C626.918 275.577 660.64 265.37 695.213 261.469C707.886 260.039 720.137 259.511 731.76 259.7Z" fill="black"/>
<path d="M601.486 144.458C598.997 144.114 596.387 144.113 593.638 144.495C590.697 144.904 587.757 145.779 584.87 147.038C575.229 151.24 560.254 165.567 548.581 182.443C473.993 215.569 415.14 268.117 389.091 331.542C370.782 376.124 362.118 422.858 361.46 470.4C360.953 507.023 365.18 541.957 372.55 573.999C374.996 584.632 377.607 594.189 380.249 602.552C381.188 605.518 382.07 608.148 382.865 610.399C383.365 611.81 383.739 612.824 383.971 613.42C386.695 620.43 393.549 624.919 401.066 624.657L425.344 623.81C425.689 628.073 425.86 631.362 426.339 636.447C426.955 642.99 429.337 666.833 429.618 669.714C430.951 683.4 431.941 694.602 432.786 705.967C433.855 720.353 434.482 735.002 434.886 749.773C423.966 748.663 413.302 749.636 402.982 752.72C388.257 757.121 374.996 765.37 362.529 776.703C357.543 781.237 353.531 786.563 350.592 792.582C349.847 794.11 349.419 795.233 348.75 797.151C348.723 797.226 348.514 797.874 348.456 798.035C348.47 797.995 348.024 799.097 347.866 799.509C347.601 800.2 347.346 800.87 347.129 801.608C346.908 802.363 346.735 803.106 346.576 803.857C346.481 804.306 346.214 805.666 346.207 805.698C343.895 816.083 343.96 827.431 346.207 839.225C346.48 840.65 346.743 841.775 347.239 843.756C347.267 843.868 347.492 844.765 347.571 845.082C347.572 845.091 347.569 845.111 347.571 845.12C347.575 845.15 347.568 845.126 347.571 845.156C347.575 845.187 347.568 845.161 347.571 845.193C348.691 849.752 349.914 853.935 351.365 858.014C351.622 858.735 351.844 859.291 352.176 860.077C352.206 860.148 352.355 860.42 352.397 860.519C352.404 860.536 352.434 860.592 352.434 860.593C352.466 860.685 352.43 860.625 352.471 860.741C352.562 860.982 353.668 863.919 353.908 864.535C354.278 865.488 354.643 866.364 355.013 867.225C355.527 868.416 355.938 869.208 356.708 870.651C356.727 870.686 357.169 871.529 357.223 871.646C358.754 874.927 360.284 877.993 361.903 880.967C361.977 881.102 362.367 881.894 362.381 881.924C363.09 883.393 363.473 884.14 364.113 885.24C364.438 885.8 364.758 886.304 365.108 886.825C365.318 887.137 365.93 888.04 365.955 888.077C365.927 888.037 366.339 888.666 366.471 888.85C368.301 891.827 370.228 894.766 372.624 898.172C372.725 898.316 373.001 898.685 373.028 898.724C373.021 898.714 373.351 899.263 373.361 899.277C374.145 900.543 374.583 901.208 375.313 902.188C375.752 902.777 376.029 903.09 376.492 903.625C380.369 908.721 384.265 913.403 388.245 917.587C393.252 922.851 398.846 927.309 405.007 931.072C407.95 932.868 410.965 934.499 413.997 935.898C415.643 936.658 417.348 937.262 419.045 937.924C413.201 968.047 406.016 998.194 396.94 1029.14C394.771 1036.53 397.628 1044.48 404.013 1048.78C404.721 1049.26 405.967 1050.07 407.734 1051.18C410.58 1052.96 413.939 1054.98 417.755 1057.18C428.542 1063.41 441.045 1069.98 455.186 1076.6C456.12 1077.03 456.797 1077.3 458.429 1078C458.472 1078.02 459.91 1078.63 460.308 1078.81C489.438 1092.12 521.324 1103.83 555.655 1113.03C597.928 1124.37 641.883 1131.34 687.107 1133C798.986 1137.11 911.225 1108.8 1020.31 1040.82C1024.62 1038.14 1027.54 1033.72 1028.37 1028.7C1028.45 1028.21 1028.59 1027.35 1028.78 1026.09C1029.09 1024.04 1029.44 1021.62 1029.81 1018.9C1030.85 1011.18 1031.9 1002.38 1032.87 992.561C1035.03 970.626 1036.38 946.923 1036.92 922.341C1076.13 887.082 1096.42 844.089 1095.35 804.446C1095.35 804.219 1095.33 803.272 1095.32 802.972C1095.19 799.999 1094.97 797.13 1094.62 794.314C1094.51 793.435 1094.37 792.548 1094.21 791.514C1093.77 788.74 1093.25 786.141 1092.63 783.667C1092.48 783.079 1092.36 782.618 1092.15 781.899C1092.13 781.826 1092.03 781.436 1092 781.346C1091 777.796 1090.42 775.952 1089.49 773.609C1089.27 773.052 1089.04 772.53 1088.79 772.025C1088.66 771.746 1088.43 771.291 1088.43 771.288C1088.52 771.463 1088.61 771.651 1088.79 772.098C1082.92 758.22 1073.55 747.574 1061.35 742.183C1046.87 735.788 1032.64 736.228 1020.08 742.404C1017.19 730.199 1013.91 718.191 1010.17 706.483C1010.38 704.627 1010.41 702.742 1009.99 700.809L1005.27 679.146C1005.13 678.495 1004.94 677.825 1004.72 677.193L996.653 653.431C996.543 653.105 996.34 652.827 996.211 652.51C1011.44 650.764 1021.28 648.628 1027.6 644.294C1031.57 641.569 1034.43 638.142 1037.18 633.683C1038.72 631.186 1043.79 621.53 1045.14 619.205C1045.2 619.114 1045.18 619.154 1045.25 619.057C1047.74 614.798 1050.18 611.335 1053.13 608.152C1056.68 604.33 1060.89 600.984 1065.99 598.057C1070.66 595.375 1073.84 590.708 1074.65 585.383C1074.71 584.978 1074.8 584.348 1074.91 583.504C1075.07 582.192 1075.24 580.697 1075.38 579.046C1076.48 566.658 1076.23 553.285 1074.13 539.957C1075.31 537.962 1076.51 535.972 1077.63 533.879C1078.86 531.582 1080.01 529.333 1081.02 527.136C1083.24 522.286 1084.79 517.839 1085.59 513.578C1086.2 510.326 1086.38 507.204 1085.88 503.963C1085.49 501.37 1084.55 498.877 1083.08 496.704C1082.88 496.407 1080.09 492.334 1078.96 490.7C1075.73 486.045 1072.13 480.978 1068.27 475.631C1068.25 475.599 1068.26 475.626 1068.24 475.594C1068.14 475.444 1068.11 475.398 1068.02 475.263C1067.35 474.336 1062.92 468.112 1061.35 466.015C1040.37 438 1015.57 408.602 987.627 380.027C954.642 346.301 919.689 316.291 883.106 291.311C886.179 282.449 888.403 273.457 889.664 264.452C891.002 254.897 891.252 246.472 890.879 239.658C890.82 238.562 890.753 237.715 890.695 237.153C890.627 236.476 890.51 235.791 890.364 235.126C886.549 217.828 882.202 203.512 877.359 191.874C870.341 175.011 862.2 163.591 852.822 156.985C844.525 151.141 835.927 149.501 828.469 150.979C827.215 151.228 826.09 151.538 825.116 151.901C823.121 152.645 821.268 153.743 819.664 155.143C813.316 160.682 810.008 168.793 807.138 181.042C805.165 189.46 803.505 199.957 802.091 212.248C800.904 222.554 800.021 233.602 799.254 244.816C795.106 243.057 790.96 241.276 786.837 239.695C786.244 239.467 785.61 239.268 784.996 239.105C784.568 238.992 783.929 238.829 783.043 238.626C782.438 238.488 781.63 238.329 780.943 238.184C781.368 235.722 781.707 233.617 781.938 232.437C782.166 231.273 782.342 230.344 782.491 229.748C782.534 229.572 782.57 229.471 782.564 229.49C782.443 229.876 782.268 230.35 781.938 231.038C784.22 226.296 784.501 222.49 784.922 208.711C785.029 205.218 785.094 201.484 785.143 197.769C785.16 196.471 785.216 192.87 785.216 192.795C785.233 189.277 784.185 185.849 782.232 182.921L782.122 182.774C781.531 180.626 780.946 178.319 780.391 177.027C778.885 173.525 776.286 170.607 772.985 168.701C772.771 168.577 772.52 168.443 772.322 168.332C769.97 165.171 766.706 162.82 762.891 161.775L728.885 152.453C727.225 151.998 725.485 151.785 723.764 151.827L719.97 151.901C707.255 150.168 693.634 149.639 679.296 150.206C676.225 149.603 673.274 149.802 670.527 150.722C654.574 151.853 638.002 154.317 621.086 158.164C620.539 157.24 620.138 156.307 619.465 155.4C615.134 149.578 608.95 145.491 601.486 144.458ZM596.07 162.032C604.779 160.822 607.381 170.027 607.381 170.027L607.123 179.937C630.775 173.291 654.168 169.195 676.164 168.001L676.017 167.411C676.017 167.411 676.98 167.794 677.27 167.89C692.202 167.141 706.444 167.676 719.601 169.622L724.206 169.511L758.211 178.832L760.422 182.111C761.657 182.753 762.956 183.341 764.143 184.027C764.143 184.027 764.92 185.835 765.691 189.332C765.741 189.561 765.787 189.936 765.838 190.179L767.532 192.722C767.532 192.722 767.408 220.494 766.022 223.374C764.635 226.253 762.179 243.85 760.496 252.59C760.486 252.644 760.434 252.791 760.422 252.848C766.589 253.593 771.651 254.375 775.048 255.021C778.592 255.695 780.501 256.2 780.501 256.2C792.409 260.767 804.042 265.978 815.427 271.637C816.51 246.714 820.415 177.985 831.306 168.479C831.306 168.479 855.58 159.421 873.122 238.958C873.122 238.958 876.046 267.648 861.369 298.052C948.612 354.354 1015.16 433.822 1047.2 476.626C1050.03 480.409 1051.4 482.448 1053.68 485.615C1053.77 485.729 1053.82 485.834 1053.91 485.946C1053.92 485.962 1053.93 485.969 1053.94 485.984C1062.61 497.999 1068.42 506.616 1068.42 506.616C1068.58 507.68 1068.5 508.94 1068.24 510.336C1066.41 520.11 1055.64 536.384 1055.64 536.384C1060.66 559.87 1057.18 582.731 1057.18 582.731C1050.07 586.817 1044.57 591.435 1040.2 596.141C1035.83 600.847 1032.62 605.626 1029.99 610.104C1029.99 610.119 1029.97 610.127 1029.96 610.141C1024.73 619.076 1021.93 626.749 1017.62 629.704C1013.3 632.666 999.138 634.618 986.042 635.857C974.917 636.904 967.56 637.201 964.71 637.331L965.705 637.846L979.927 659.141L987.995 682.904L992.71 704.567C992.181 704.632 991.692 704.71 991.2 704.788C997.487 723.44 1002.56 742.586 1006.49 761.819C1007.5 766.773 1008.23 771.712 1009.11 776.667C1016.74 764.451 1031.6 748.376 1054.2 758.357C1062.05 761.825 1068.35 769.166 1072.51 778.988C1072.68 779.384 1072.9 779.725 1073.06 780.13C1073.82 782.029 1074.4 784.061 1074.98 786.135C1075.15 786.753 1075.34 787.346 1075.49 787.977C1076 789.992 1076.41 792.085 1076.75 794.24C1076.87 795.006 1076.98 795.78 1077.08 796.561C1077.37 798.869 1077.57 801.231 1077.67 803.672C1077.69 804.084 1077.69 804.509 1077.71 804.925C1078.55 836.511 1062.82 878.197 1019.53 914.345C1018.67 979.239 1010.95 1025.83 1010.95 1025.83C777.379 1171.39 563.779 1106.67 467.676 1062.74C466.115 1062.03 464.199 1061.27 462.702 1060.57C431.453 1045.94 413.923 1034.12 413.923 1034.12C425.35 995.158 433.473 959.193 439.455 925.545C438.389 925.328 437.318 925.177 436.249 924.919C431.259 923.716 426.261 922.075 421.403 919.835C418.973 918.714 416.591 917.431 414.255 916.004C409.581 913.149 405.127 909.663 401.066 905.393C397.252 901.384 393.633 897.007 390.197 892.461C389.973 892.165 389.719 891.912 389.497 891.614C388.762 890.628 388.185 889.525 387.47 888.519C387.349 888.347 387.224 888.176 387.102 888.004C384.979 884.984 382.935 881.951 381.024 878.793C381 878.755 380.973 878.721 380.95 878.682C380.469 877.886 379.87 877.165 379.403 876.362C378.674 875.108 378.141 873.796 377.449 872.53C375.941 869.76 374.563 866.984 373.25 864.167C372.631 862.844 371.834 861.553 371.26 860.224C370.486 858.431 369.846 856.643 369.16 854.846C369.113 854.722 369.06 854.601 369.013 854.477C369 854.442 368.99 854.403 368.976 854.366C368.687 853.601 368.328 852.848 368.055 852.083C366.732 848.363 365.676 844.658 364.776 840.993C364.773 840.982 364.779 840.967 364.776 840.956C364.773 840.945 364.779 840.931 364.776 840.919C364.367 839.246 363.911 837.559 363.597 835.909C361.801 826.485 361.708 817.555 363.487 809.566C363.705 808.587 363.834 807.568 364.113 806.619C364.368 805.752 364.764 804.953 365.07 804.114C365.531 802.856 365.927 801.546 366.507 800.356C368.443 796.39 371.066 792.839 374.429 789.782C393.132 772.78 419.163 759.038 453.049 772.246C452.972 747.805 451.958 725.211 450.434 704.678C447.501 665.235 443.096 632.652 441.702 605.683C441.7 605.644 441.704 605.611 441.702 605.573L400.476 607.01C400.476 607.01 349.24 475.15 405.449 338.284C431.866 273.964 493.536 225.204 560.444 196.516C560.869 195.851 561.267 195.1 561.697 194.453C573.761 176.285 587.432 165.215 591.944 163.248C593.447 162.593 594.826 162.205 596.07 162.032Z" fill="black"/>
<path d="M596.794 319.154L600.804 169.24C600.804 169.24 597.411 157.21 585.381 162.454C573.351 167.697 496.234 237.718 557.927 334.268" fill="#AF93E5"/>
<path d="M594.111 314.153C594.111 314.153 597.136 224.742 576.093 231.858C555.05 238.973 556.649 298.953 569.802 316.865C582.956 334.775 585.154 333.646 594.111 314.153Z" fill="#ABACE3"/>
<path d="M603.343 319.923L607.353 170.01C607.353 170.01 603.96 157.98 591.93 163.224C579.9 168.467 502.784 238.488 564.477 335.037" fill="#93E9CA"/>
<path d="M600.661 314.923C600.661 314.923 603.685 225.511 582.642 232.627C561.599 239.743 563.199 299.722 576.351 317.633C589.505 335.544 591.704 334.415 600.661 314.923Z" fill="#B7F2CC"/>
<path d="M603.343 319.923L607.353 170.01C607.353 170.01 603.96 157.98 591.93 163.224C579.9 168.467 502.784 238.488 564.477 335.037" stroke="black" stroke-width="0.0122978" stroke-miterlimit="10" stroke-linecap="round" stroke-linejoin="round"/>
<path d="M598.981 153.08C595.709 152.849 592.16 153.471 588.407 155.106C583.36 157.307 575.138 164.149 567.333 172.79C557.44 183.745 548.714 196.825 542.428 211.364C525.396 250.752 528.126 294.581 557.018 339.795C559.647 343.91 565.135 345.114 569.249 342.485C573.364 339.856 574.569 334.405 571.938 330.29C546.277 290.131 543.929 252.504 558.675 218.401C564.158 205.72 571.795 194.199 580.449 184.617C583.88 180.817 587.299 177.535 590.396 174.964C592.786 172.982 594.796 171.616 595.481 171.316C597.567 170.407 597.577 170.445 598.17 171.243C598.277 171.387 598.369 171.555 598.465 171.722L594.486 319.679C594.355 324.561 598.225 328.649 603.107 328.779C607.988 328.91 612.039 325.04 612.17 320.158L616.185 170.248C616.21 169.358 616.096 168.454 615.854 167.595C615.68 166.976 615.389 166.163 614.97 165.201C614.303 163.67 613.445 162.138 612.354 160.669C609.05 156.222 604.432 153.463 598.981 153.08Z" fill="black"/>
<path d="M706.165 723.356L901.067 719.573C901.067 719.573 947.995 721.513 976.733 810.815C1005.47 900.117 945.589 1020.11 864.556 1044.32C783.523 1068.52 721.548 1066.73 664.712 1044.99C607.877 1023.24 571.571 954.999 566.738 936.13C561.904 917.263 549.986 842.051 574.163 800.445C598.339 758.84 650.766 728.306 706.165 723.356Z" fill="#F3886D" stroke="black" stroke-width="0.0122978" stroke-miterlimit="10" stroke-linecap="round" stroke-linejoin="round"/>
<path d="M901.073 719.591L866.773 720.255L818.989 760.559L771.242 722.096L706.178 723.349C650.778 728.3 598.35 758.853 574.173 800.459C564.467 817.165 560.706 839.236 559.842 860.954L584.674 869.391L623.357 877.349C623.357 877.349 620.946 1001.93 744.052 1018.9C867.157 1035.86 946.637 978.166 950.514 886.08L979.473 872.154C979.473 872.154 982.492 871.801 983.414 871.712C984.794 850.838 982.952 830.097 976.746 810.812C948.008 721.51 901.073 719.591 901.073 719.591Z" fill="#F9B192"/>
<path d="M627.104 780.219L698.191 777.025" stroke="black" stroke-width="0.0122978" stroke-miterlimit="10" stroke-linecap="round" stroke-linejoin="round"/>
<path d="M897.966 777.746L942.987 778.914" stroke="black" stroke-width="0.0122978" stroke-miterlimit="10" stroke-linecap="round" stroke-linejoin="round"/>
<path d="M770.799 927.023C770.799 927.023 814.254 908.122 823.454 900.918C823.454 900.918 837.126 911.595 843.514 912.441" stroke="black" stroke-width="0.0122978" stroke-miterlimit="10" stroke-linecap="round" stroke-linejoin="round"/>
<path d="M900.9 710.72L706.007 714.514C705.802 714.519 705.585 714.533 705.381 714.552C647.176 719.752 592.183 751.85 566.523 796.008C554.731 816.303 550.022 844.324 550.718 876.988C551.206 899.864 554.539 924.194 558.16 938.329C561.484 951.306 573.798 974.52 589.181 994.808C609.766 1021.96 634.268 1042.81 661.538 1053.24C722.316 1076.49 786.782 1076.78 867.08 1052.8C953.851 1026.88 1015.08 901.084 985.158 808.092C977.42 784.047 967.93 764.631 957.011 749.403C945.506 733.36 932.945 722.665 920.206 716.393C915.595 714.122 911.248 712.573 907.275 711.641C905.819 711.299 904.513 711.058 903.332 710.904C902.532 710.799 901.867 710.775 901.417 710.757C901.237 710.749 901.08 710.716 900.9 710.72ZM900.716 728.404C900.7 728.403 900.786 728.403 900.791 728.404C900.802 728.406 900.807 728.414 901.011 728.441C901.616 728.52 902.346 728.676 903.222 728.883C905.913 729.515 909.009 730.605 912.395 732.272C922.506 737.25 932.823 746.025 942.643 759.719C952.448 773.393 961.125 791.148 968.322 813.509C995.285 897.295 939.057 1012.84 862.033 1035.85C785.295 1058.77 724.799 1058.51 667.875 1036.73C644.098 1027.64 622.008 1008.86 603.255 984.124C589.19 965.575 577.968 944.391 575.291 933.945C572.006 921.12 568.86 898.14 568.402 876.619C567.769 846.909 571.983 821.804 581.812 804.888C604.426 765.974 654.132 736.961 706.78 732.198L900.716 728.404Z" fill="black"/>
<path d="M900.9 710.757L866.601 711.42C864.574 711.46 862.625 712.176 861.075 713.483L818.854 749.109L776.78 715.215C775.164 713.912 773.145 713.222 771.069 713.262L706.007 714.514C705.801 714.519 705.586 714.533 705.381 714.552C647.186 719.752 592.187 751.843 566.523 796.009C556.831 812.688 552.049 834.563 551.012 860.594C550.857 864.507 553.273 868.065 556.981 869.325L581.812 877.761C582.16 877.879 582.521 877.982 582.88 878.056L614.75 884.615C614.769 884.934 614.764 885.054 614.786 885.388C615.135 890.69 615.788 896.468 616.813 902.63C619.674 919.843 624.927 937.01 633.171 953.103C653.739 993.258 689.437 1020.31 742.849 1027.67C865.456 1044.57 951.648 988.714 958.816 891.909L981.953 880.783C982.989 880.665 984.107 880.541 984.274 880.525C988.588 880.11 991.947 876.633 992.232 872.309C993.745 849.434 991.489 827.764 985.158 808.093C977.419 784.044 967.934 764.63 957.011 749.404C945.506 733.366 932.947 722.661 920.206 716.394C915.595 714.125 911.248 712.609 907.275 711.678C905.819 711.337 904.513 711.095 903.333 710.941C902.532 710.836 901.867 710.776 901.417 710.757C901.24 710.75 901.078 710.753 900.9 710.757ZM900.717 728.441C900.7 728.44 900.786 728.44 900.791 728.441C900.803 728.444 900.807 728.452 901.011 728.478C901.616 728.557 902.382 728.678 903.258 728.883C905.95 729.514 909.009 730.607 912.395 732.273C922.506 737.246 932.823 746.031 942.643 759.72C952.451 773.391 961.124 791.144 968.322 813.509C973.332 829.08 975.346 846.331 974.77 864.609L946.695 878.093C943.754 879.507 941.823 882.458 941.685 885.719C937.945 974.544 860.623 1026.03 745.243 1010.13C697.765 1003.59 666.925 980.221 648.901 945.035C641.559 930.698 636.856 915.28 634.275 899.756C633.35 894.191 632.746 888.947 632.434 884.209C632.321 882.494 632.248 880.97 632.212 879.604C632.19 878.708 632.207 878.029 632.212 877.577C632.213 877.511 632.212 877.484 632.212 877.503C632.295 873.244 629.312 869.557 625.139 868.699L586.97 860.851L569.175 854.809C570.596 834.412 574.594 817.312 581.812 804.889C604.429 765.966 654.142 736.96 706.78 732.198L768.196 731.02L813.438 767.457C816.735 770.112 821.44 770.039 824.675 767.31L870.027 729.031L900.717 728.441Z" fill="black" fill-opacity="0.5"/>
<path d="M697.791 768.194L626.723 771.399C621.844 771.618 618.067 775.731 618.286 780.61C618.506 785.488 622.618 789.265 627.496 789.046L698.602 785.841C703.48 785.622 707.258 781.509 707.038 776.631C706.819 771.752 702.669 767.975 697.791 768.194Z" fill="black"/>
<path d="M898.211 768.893C893.329 768.767 889.238 772.633 889.111 777.515C888.985 782.397 892.851 786.451 897.733 786.577L942.753 787.756C947.635 787.884 951.69 784.018 951.817 779.136C951.943 774.254 948.115 770.199 943.233 770.072L898.211 768.893Z" fill="black"/>
<path d="M823.459 892.093C821.536 892.095 819.605 892.72 818.007 893.972C815.513 895.924 808.359 899.803 798.37 904.657C797.018 905.313 795.608 905.961 794.169 906.646C788.292 909.444 781.989 912.36 775.675 915.193C773.464 916.186 767.376 918.871 767.275 918.914C762.797 920.863 760.759 926.078 762.707 930.556C764.655 935.035 769.834 937.072 774.311 935.124C774.425 935.076 780.648 932.338 782.896 931.33C789.322 928.447 795.747 925.498 801.759 922.636C803.238 921.931 804.713 921.213 806.106 920.535C813.555 916.917 818.831 914.081 823.09 911.545C824.327 912.413 825.543 913.301 826.812 914.125C828.124 914.977 829.397 915.757 830.644 916.483C835.108 919.087 838.843 920.732 842.359 921.199C847.2 921.84 851.628 918.449 852.269 913.608C852.911 908.768 849.521 904.303 844.68 903.662C844.141 903.59 842.121 902.723 839.559 901.23C838.573 900.654 837.513 899.982 836.427 899.277C834.628 898.109 832.816 896.859 831.086 895.593C830.48 895.15 828.997 894.001 828.912 893.935C827.311 892.686 825.382 892.092 823.459 892.093Z" fill="black"/>
<path d="M900.9 710.72L706.007 714.514C705.802 714.519 705.585 714.533 705.381 714.552C647.176 719.752 592.183 751.85 566.523 796.008C554.731 816.303 550.022 844.324 550.718 876.988C551.206 899.864 554.539 924.194 558.16 938.329C561.484 951.306 573.798 974.52 589.181 994.808C609.766 1021.96 634.268 1042.81 661.538 1053.24C722.316 1076.49 786.782 1076.78 867.08 1052.8C953.851 1026.88 1015.08 901.084 985.158 808.092C977.42 784.047 967.93 764.631 957.011 749.403C945.506 733.36 932.945 722.665 920.206 716.393C915.595 714.122 911.248 712.573 907.275 711.641C905.819 711.299 904.513 711.058 903.332 710.904C902.532 710.799 901.867 710.775 901.417 710.757C901.237 710.749 901.08 710.716 900.9 710.72ZM900.716 728.404C900.7 728.403 900.786 728.403 900.791 728.404C900.802 728.406 900.807 728.414 901.011 728.441C901.616 728.52 902.346 728.676 903.222 728.883C905.913 729.515 909.009 730.605 912.395 732.272C922.506 737.25 932.823 746.025 942.643 759.719C952.448 773.393 961.125 791.148 968.322 813.509C995.285 897.295 939.057 1012.84 862.033 1035.85C785.295 1058.77 724.799 1058.51 667.875 1036.73C644.098 1027.64 622.008 1008.86 603.255 984.124C589.19 965.575 577.968 944.391 575.291 933.945C572.006 921.12 568.86 898.14 568.402 876.619C567.769 846.909 571.983 821.804 581.812 804.888C604.426 765.974 654.132 736.961 706.78 732.198L900.716 728.404Z" fill="black"/>
<path d="M706.165 723.356L901.067 719.573C901.067 719.573 947.995 721.513 976.733 810.815C1005.47 900.117 945.589 1020.11 864.556 1044.32C783.523 1068.52 721.548 1066.73 664.712 1044.99C607.877 1023.24 571.571 954.999 566.738 936.13C561.904 917.263 549.986 842.051 574.163 800.445C598.339 758.84 650.766 728.306 706.165 723.356Z" stroke="black" stroke-width="0.0122978" stroke-miterlimit="10" stroke-linecap="round" stroke-linejoin="round"/>
<path d="M541.499 855.546C543.133 840.916 567.839 831.668 596.68 834.889C625.522 838.111 647.579 852.582 645.944 867.213C644.31 881.844 619.604 891.092 590.762 887.87C561.92 884.65 539.865 870.177 541.499 855.546Z" fill="#FF497F" stroke="black" stroke-width="0.0122978" stroke-miterlimit="10" stroke-linecap="round" stroke-linejoin="round"/>
<path d="M585.46 825.409C557.624 825.338 534.766 836.086 532.702 854.551C530.345 875.654 556.705 892.968 589.77 896.661C622.836 900.354 652.365 889.285 654.723 868.182C657.08 847.079 630.721 829.803 597.655 826.109C593.522 825.647 589.437 825.418 585.46 825.409ZM586.308 843.093C589.368 843.127 592.522 843.328 595.702 843.683C608.422 845.103 619.95 848.964 627.902 854.182C634.581 858.566 637.509 863.008 637.15 866.23C636.789 869.452 632.952 873.155 625.47 875.956C616.563 879.29 604.48 880.509 591.76 879.088C579.04 877.667 567.513 873.806 559.56 868.588C552.881 864.206 549.916 859.762 550.276 856.54C550.635 853.318 554.511 849.615 561.992 846.814C568.673 844.313 577.125 842.992 586.308 843.093Z" fill="black"/>
<path d="M921.49 872.252C921.114 857.536 944.328 845.003 973.339 844.262C1002.35 843.521 1026.17 854.85 1026.55 869.567C1026.93 884.283 1003.71 896.814 974.702 897.556C945.69 898.298 921.866 886.969 921.49 872.252Z" fill="#FF497F" stroke="black" stroke-width="0.0122978" stroke-miterlimit="10" stroke-linecap="round" stroke-linejoin="round"/>
<path d="M973.111 835.43C939.85 836.28 912.111 851.266 912.653 872.492C913.196 893.72 941.655 907.238 974.917 906.387C1008.18 905.537 1035.92 890.553 1035.37 869.325C1034.83 848.097 1006.37 834.58 973.111 835.43ZM973.553 853.114C986.349 852.788 998.306 855.035 1006.9 859.12C1014.11 862.55 1017.64 866.562 1017.73 869.803C1017.81 873.044 1014.48 877.209 1007.45 881.003C999.078 885.522 987.27 888.376 974.475 888.703C961.68 889.031 949.758 886.782 941.17 882.699C933.954 879.268 930.421 875.255 930.337 872.014C930.255 868.773 933.55 864.609 940.58 860.814C948.949 856.296 960.758 853.442 973.553 853.114Z" fill="black"/>
<path d="M365.058 804.107C354.77 832.216 373.835 876.771 401.053 905.385C433.552 939.551 490.726 924.359 490.726 924.359L492.089 910.58C491.966 910.304 491.883 910.085 491.758 909.806C450.025 817.191 381.821 805.57 365.058 804.107Z" fill="#F9B192"/>
<path d="M471.061 871.815C471.061 871.815 451.984 835.956 409.24 816.593" stroke="black" stroke-width="0.0122978" stroke-miterlimit="10" stroke-linecap="round" stroke-linejoin="round"/>
<path d="M487.438 954.432C487.438 954.432 507.342 802.646 503.815 765.195" stroke="black" stroke-width="0.0122978" stroke-miterlimit="10" stroke-linecap="round" stroke-linejoin="round"/>
<path d="M449.832 848.436C449.832 848.436 433.91 850.731 426.451 858.619" stroke="black" stroke-width="0.0122978" stroke-miterlimit="10" stroke-linecap="round" stroke-linejoin="round"/>
<path d="M490.721 924.374C490.721 924.374 433.556 939.54 401.058 905.374C368.559 871.208 347.518 814.237 374.421 789.779C401.322 765.322 443.331 747.398 502.173 807.118" stroke="black" stroke-width="0.0122978" stroke-miterlimit="10" stroke-linecap="round" stroke-linejoin="round"/>
<path d="M426.303 758.025C404.932 758.098 386.041 767.242 368.46 783.225C352.901 797.37 349.714 820.18 356.929 846.299C363.225 869.085 377.254 893.178 394.655 911.472C404.93 922.272 417.857 929.308 432.713 933.135C449.5 937.458 467.138 937.435 483.702 934.793C486.17 934.399 488.405 933.967 490.371 933.541C491.59 933.275 492.465 933.052 492.986 932.913C497.707 931.661 500.538 926.839 499.286 922.119C498.034 917.4 493.175 914.567 488.456 915.819C488.187 915.891 487.564 916.054 486.613 916.261C484.96 916.62 483.036 916.989 480.902 917.33C466.532 919.622 451.223 919.669 437.134 916.04C425.32 912.997 415.319 907.521 407.476 899.277C392.032 883.041 379.488 861.495 373.987 841.583C368.366 821.238 370.602 805.176 380.361 796.303C394.978 783.015 409.944 775.766 426.339 775.709C447.099 775.638 470.121 787.201 495.86 813.325C499.288 816.804 504.908 816.826 508.387 813.398C511.866 809.971 511.888 804.387 508.46 800.909C479.633 771.652 452.331 757.936 426.303 758.025Z" fill="black"/>
<path d="M490.721 924.374C490.721 924.374 433.556 939.54 401.058 905.374C368.559 871.208 347.518 814.237 374.421 789.779C401.322 765.322 443.331 747.398 502.173 807.118" fill="#F3886D"/>
<path d="M490.721 924.374C490.721 924.374 433.556 939.54 401.058 905.374C368.559 871.208 347.518 814.237 374.421 789.779C401.322 765.322 443.331 747.398 502.173 807.118" stroke="black" stroke-width="0.0122978" stroke-miterlimit="10" stroke-linecap="round" stroke-linejoin="round"/>
<path d="M365.058 804.107C354.77 832.216 373.835 876.771 401.053 905.385C433.552 939.551 490.726 924.359 490.726 924.359L492.089 910.58C491.966 910.304 491.883 910.085 491.758 909.806C450.025 817.191 381.821 805.57 365.058 804.107Z" fill="#F9B192"/>
<path d="M409.466 807.762C406.021 807.676 402.687 809.621 401.175 812.956C399.161 817.405 401.148 822.621 405.596 824.636C417.193 829.888 427.636 836.775 436.949 844.862C444.91 851.773 451.609 859.175 457.066 866.562C458.959 869.126 460.551 871.497 461.854 873.599C462.299 874.316 462.657 874.912 462.96 875.44C463.125 875.729 463.228 875.907 463.255 875.957C465.548 880.268 470.917 881.897 475.228 879.604C479.54 877.31 481.169 871.978 478.876 867.668C478.506 866.972 477.848 865.829 476.886 864.278C475.337 861.78 473.469 859.018 471.286 856.062C465.094 847.679 457.51 839.296 448.518 831.488C437.958 822.32 426.109 814.524 412.892 808.535C411.78 808.032 410.614 807.791 409.466 807.762Z" fill="black"/>
<path d="M448.555 839.667C447.46 839.825 445.73 840.179 443.544 840.699C439.914 841.559 436.294 842.691 432.823 844.161C427.705 846.329 423.36 849.049 420.039 852.561C416.684 856.11 416.822 861.696 420.371 865.051C423.92 868.406 429.505 868.231 432.86 864.682C434.268 863.193 436.656 861.741 439.713 860.446C442.181 859.4 444.9 858.552 447.634 857.903C448.596 857.676 449.464 857.459 450.249 857.314C450.69 857.233 450.995 857.218 451.097 857.204C455.93 856.507 459.273 852.015 458.576 847.183C457.879 842.349 453.389 838.97 448.555 839.667Z" fill="black"/>
<path d="M426.303 758.025C404.932 758.098 386.041 767.242 368.46 783.225C352.901 797.37 349.714 820.18 356.929 846.299C363.225 869.085 377.254 893.178 394.655 911.472C404.93 922.272 417.857 929.308 432.713 933.135C449.5 937.458 467.138 937.435 483.702 934.793C486.17 934.399 488.405 933.967 490.371 933.541C491.59 933.275 492.465 933.052 492.986 932.913C497.707 931.661 500.538 926.839 499.286 922.119C498.034 917.4 493.175 914.567 488.456 915.819C488.187 915.891 487.564 916.054 486.613 916.261C484.96 916.62 483.036 916.989 480.902 917.33C466.532 919.622 451.223 919.669 437.134 916.04C425.32 912.997 415.319 907.521 407.476 899.277C392.032 883.041 379.488 861.495 373.987 841.583C368.366 821.238 370.602 805.176 380.361 796.303C394.978 783.015 409.944 775.766 426.339 775.709C447.099 775.638 470.121 787.201 495.86 813.325C499.288 816.804 504.908 816.826 508.387 813.398C511.866 809.971 511.888 804.387 508.46 800.909C479.633 771.652 452.331 757.936 426.303 758.025Z" fill="black"/>
<path d="M502.971 756.405C498.109 756.862 494.556 761.158 495.013 766.02C496.29 779.578 494.369 811.267 490.039 854.809C489.134 863.924 488.129 873.397 487.055 883.178C485.223 899.873 483.236 916.598 481.271 932.546C480.584 938.127 478.664 953.229 478.655 953.288C478.021 958.13 481.44 962.564 486.282 963.198C491.124 963.834 495.558 960.415 496.192 955.572C496.202 955.506 498.154 940.327 498.845 934.72C500.818 918.699 502.787 901.909 504.629 885.13C505.709 875.292 506.701 865.719 507.614 856.541C512.074 811.684 514.052 779.528 512.624 764.362C512.166 759.5 507.833 755.946 502.971 756.405Z" fill="black"/>
<path opacity="0.201073" d="M510.125 360.082C510.125 360.082 481.465 537.77 567.444 669.604C580.678 689.897 615.986 757.856 615.986 757.856C592.439 1001.76 754.258 1059.49 754.258 1059.49C691.114 1080.41 634.73 1020.1 633.579 1031.62C630.144 1066.02 624.322 1094.88 617.18 1114.35L409.518 1033.27L430.614 955.476V925.809L391.718 901.418L358.995 803.551C358.995 803.551 420.725 799.893 459.62 854.612L499.175 833.516L498.516 807.805L472.806 783.413L447.754 762.317L447.094 716.829L437.206 614.646L391.718 610.031C391.718 610.031 368.645 552.017 369.304 538.833C369.963 525.648 379.852 453.131 379.852 453.131L452.369 456.427L475.442 408.961L510.125 360.082Z" fill="black"/>
<path opacity="0.201073" d="M1017.43 838.507L1075.75 804.671L1073.09 854.966C1073.09 854.966 1048.81 893.239 1044.48 898.488C1040.16 903.738 1023.32 917.381 1023.32 917.381C1023.32 917.381 1016.63 900.953 1017.35 894.866C1018.07 888.78 1021.97 873.195 1021.97 873.195L1017.59 854.572L1017.43 838.507Z" fill="black"/>
<path opacity="0.201073" d="M631.005 479.705C633.217 466.281 589.35 546.334 729.205 638.029C845.898 714.538 877.887 705.987 984.237 687.628L974.537 642.891L916.54 637.125L881.93 624.285L866.151 600.071L832.996 590.004L759.686 570.008L734.482 592.998L678.657 579.447L641.71 543.506C641.71 543.506 628.793 493.13 631.005 479.705Z" fill="black"/>
</g>
</svg>
