<svg width="1259" height="1328" viewBox="0 0 1259 1328" fill="none" xmlns="http://www.w3.org/2000/svg">
<mask id="mask0_311_9780" style="mask-type:luminance" maskUnits="userSpaceOnUse" x="0" y="0" width="1259" height="1328">
<path d="M1258.74 0H0V1328H1258.74V0Z" fill="white"/>
</mask>
<g mask="url(#mask0_311_9780)">
<path d="M251.731 948.702C251.731 920.498 397.323 897.633 576.921 897.633C756.518 897.633 902.11 920.498 902.11 948.702C902.11 976.908 756.518 999.773 576.921 999.773C397.323 999.773 251.731 976.908 251.731 948.702Z" fill="black" fill-opacity="0.7"/>
<path d="M837.348 551.73C837.348 551.73 854.823 509.8 882.804 502.178C910.784 494.556 954.347 599.125 858.682 680.892" fill="#F3886D"/>
<path d="M837.348 551.73C837.348 551.73 854.823 509.8 882.804 502.178C910.784 494.556 954.347 599.125 858.682 680.892" stroke="black" stroke-width="0.0122978" stroke-miterlimit="10" stroke-linejoin="round"/>
<path d="M912.101 532.301C873.131 582.907 862.834 650.942 862.834 650.942L876.103 664.109C920.117 616.35 922.693 564.266 912.101 532.301Z" fill="#F9B192"/>
<path d="M597.856 167.598C566.912 167.598 541.819 192.691 541.819 223.636C541.819 237.854 547.302 251.008 556.483 261.062C551.073 268.584 545.181 276.274 538.042 284.504C521.297 303.81 501.199 316.408 467.647 331.083C464.926 332.273 450.271 338.504 449.478 338.84C421.802 350.608 407.391 357.747 392.59 368.339C372.773 382.523 358.354 399.985 349.074 422.71C335.238 456.586 336.772 487.954 349.72 515.833C330.477 551.577 318.795 590.895 315.696 631.821C305.789 627.349 295.601 625.398 284.632 626.105C266.674 627.261 252.083 637.945 241.116 654.753C232.907 667.333 226.886 683.233 223.661 699.086C216.779 732.921 247.264 779.574 289.803 804.186C305.88 813.488 323.696 818.76 342.371 820.857C351.461 821.879 359.81 821.865 367.786 821.504C422.03 898.907 510.449 946.304 607.042 946.304C765.415 946.304 894.426 820.227 899.036 662.714C926.851 626.896 937.853 586.531 933.06 549.177C928.475 513.448 909.483 484.41 885.018 485.042C882.749 485.1 880.575 485.44 878.417 486.028C869.746 488.391 861.976 493.002 854.771 499.127C853.212 496.633 851.533 494.25 849.906 491.812C875.099 436.617 844.978 370.641 784.647 341.528C730.444 315.373 685.291 290.671 666.38 274.603C660.837 269.894 654.006 261.69 646.443 251.059C651.133 242.788 653.893 233.452 653.894 223.636C653.894 192.691 628.8 167.598 597.856 167.598ZM597.856 184.338C619.558 184.338 637.154 201.933 637.154 223.636C637.154 234.269 632.889 243.882 626.028 250.957C635.493 265.253 646.074 279.301 655.561 287.362C680.271 308.357 741.633 339.359 777.367 356.601C830.743 382.358 859.876 443.362 830.546 492.935C838.37 503.771 845.399 515.224 851.606 527.163C859.359 516.525 869.893 505.708 882.807 502.19C883.681 501.951 884.56 501.805 885.46 501.782C910.601 501.134 943.933 582.759 882.5 656.862C880.976 807.725 758.265 929.564 607.042 929.564C510.344 929.564 425.359 879.688 376.19 804.322C364.008 805.653 329.133 807.604 298.174 789.692C260.325 767.793 234.992 727.341 240.061 702.42C245.13 677.5 259.918 644.472 285.72 642.811C302.32 641.741 316.425 648.791 331.756 663.292C331.653 660.209 331.517 657.147 331.517 654.038C331.517 603.8 345.046 556.728 368.535 516.173C356.725 495.206 349.537 465.806 364.555 429.038C396.607 350.561 493.319 361.617 550.699 295.461C563.191 281.057 572.149 268.735 579.042 257.932C566.894 251.248 558.559 238.48 558.559 223.636C558.559 201.935 576.154 184.338 597.856 184.338Z" fill="black"/>
<path d="M885.257 493.616C883.706 493.655 882.183 493.881 880.664 494.296C867.092 497.994 855.416 508.032 844.938 522.433C843.116 524.937 842.864 528.26 844.292 531.007C863.967 568.871 874.403 610.742 874.403 654.038C874.403 654.274 874.4 654.525 874.369 655.126C874.368 655.132 874.307 656.302 874.301 656.828C874.222 664.516 883.853 668.02 888.761 662.102C917.904 626.968 929.257 586.963 924.554 550.265C920.463 518.348 903.982 493.132 885.257 493.616ZM885.665 509.947C888.542 509.873 893.056 513.13 897.403 519.78C902.696 527.877 906.695 539.36 908.358 552.34C911.664 578.13 905.684 605.962 889.816 632.262C887.019 595.892 877.228 560.769 861.133 528.32C868.756 518.812 876.759 512.314 884.95 510.083C885.255 509.999 885.481 509.952 885.665 509.947Z" fill="black"/>
<path d="M331.524 654.023C331.524 501.852 454.883 378.493 607.055 378.493C759.226 378.493 882.585 501.852 882.585 654.023C882.585 806.195 759.226 929.554 607.055 929.554C454.883 929.554 331.524 806.195 331.524 654.023Z" fill="#F3886D" stroke="black" stroke-width="0.0122978" stroke-miterlimit="10" stroke-linecap="round" stroke-linejoin="round"/>
<path d="M878.758 699.562C878.969 698.293 879.21 697.028 879.405 695.752C879.913 692.411 880.31 689.025 880.697 685.647C880.842 684.385 881.013 683.136 881.139 681.87C881.465 678.641 881.71 675.401 881.922 672.139C882.012 670.741 882.125 669.358 882.194 667.954C882.424 663.349 882.569 658.702 882.569 654.038C882.569 624.777 878.022 596.56 869.571 570.102C862.225 566.626 854.279 564.492 845.857 564.113C835.327 563.64 824.162 565.722 812.888 570.646C780.833 584.644 756.56 617.949 748.14 654.617C716.523 621.894 655.913 608.808 593.229 625.458C511.612 647.137 457.595 710.873 472.615 767.814C487.229 823.223 561.825 851.617 641.033 833.14C619.655 857.997 607.596 882.477 610.547 899.725C612.131 908.98 619.528 919.321 630.553 928.475C710.763 921.691 781.217 880.635 827.076 819.905C830.131 808.763 832.499 798.062 833.744 788.807C842.621 782.627 851.474 773.859 859.875 763.595C868.645 743.387 875.026 721.929 878.758 699.562Z" fill="#F9B192"/>
<path d="M607.042 370.313C450.362 370.313 323.352 497.357 323.352 654.038C323.352 810.72 450.362 937.73 607.042 937.73C763.723 937.73 890.734 810.72 890.734 654.038C890.734 497.357 763.725 370.313 607.042 370.313ZM607.042 386.644C754.704 386.644 874.403 506.377 874.403 654.038C874.403 801.699 754.704 921.398 607.042 921.398C459.381 921.398 339.683 801.699 339.683 654.038C339.683 506.377 459.381 386.644 607.042 386.644Z" fill="black"/>
<path d="M607.042 370.313C450.362 370.313 323.352 497.357 323.352 654.038C323.352 810.72 450.362 937.73 607.042 937.73C763.723 937.73 890.734 810.72 890.734 654.038C890.734 497.357 763.725 370.313 607.042 370.313ZM607.042 386.644C754.704 386.644 874.403 506.377 874.403 654.038C874.403 801.699 754.704 921.398 607.042 921.398C459.381 921.398 339.683 801.699 339.683 654.038C339.683 506.377 459.381 386.644 607.042 386.644Z" fill="black"/>
<path d="M666.176 696.466C662.994 696.43 659.942 698.266 658.589 701.365C652.877 714.451 643.476 722.973 631.131 727.938C620.155 732.354 608.396 733.474 598.401 732.701C597.485 732.63 596.875 732.565 596.631 732.531C592.164 731.912 588.031 735.04 587.411 739.506C586.791 743.973 589.919 748.072 594.385 748.693C594.948 748.771 595.887 748.868 597.142 748.965C609.424 749.914 623.548 748.58 637.222 743.079C653.369 736.584 666.047 725.109 673.559 707.898C675.363 703.765 673.474 698.95 669.34 697.146C668.307 696.696 667.237 696.478 666.176 696.466Z" fill="black"/>
<path d="M814.623 651.623C812.568 651.244 810.355 651.636 808.499 652.915C804.785 655.475 803.864 660.566 806.423 664.28C806.6 664.537 806.877 664.943 807.274 665.47C807.901 666.304 808.631 667.213 809.452 668.192C811.777 670.969 814.457 673.752 817.413 676.357C823.745 681.94 830.605 686.021 838.032 687.892C847.716 690.332 857.486 688.726 866.612 682.482C870.333 679.935 871.302 674.84 868.755 671.118C866.208 667.396 861.112 666.462 857.391 669.008C847.946 675.471 838.322 673.032 828.198 664.109C825.904 662.087 823.799 659.894 821.972 657.712C821.339 656.957 820.8 656.251 820.339 655.637C820.185 655.432 819.86 655.023 819.862 655.025C818.583 653.168 816.678 652.001 814.623 651.623Z" fill="black"/>
<path d="M643.823 728.245C638.492 728.245 634.463 731.583 632.016 736.376C630.204 739.927 629.261 744.359 629.261 748.965C629.261 753.571 630.204 758.002 632.016 761.553C634.463 766.347 638.492 769.685 643.823 769.685C649.152 769.685 653.182 766.347 655.628 761.553C657.442 758.003 658.385 753.571 658.385 748.965C658.385 744.358 657.441 739.927 655.628 736.376C653.182 731.583 649.152 728.245 643.823 728.245Z" fill="black"/>
<path d="M838.984 673.193C830.078 673.193 824.795 681.823 824.795 691.192C824.795 700.562 830.078 709.225 838.984 709.225C847.889 709.225 853.206 700.562 853.206 691.192C853.206 681.823 847.889 673.193 838.984 673.193Z" fill="black"/>
<path d="M778.387 828.037C775.243 827.551 771.965 828.935 770.187 831.814C764.222 841.473 759.069 846.192 755.115 847.329C753.228 847.871 751.748 847.445 750.215 846.24C749.781 845.898 749.374 845.543 749.059 845.185C748.912 845.018 748.874 844.942 748.923 845.015C745.741 840.352 738.91 840.25 735.585 844.81C724.561 859.938 715.009 867.054 707.209 868.185C702.156 868.918 697.728 867.003 693.702 863.047C692.397 861.767 691.255 860.383 690.299 858.998C689.973 858.526 689.67 858.077 689.449 857.706C689.338 857.521 689.31 857.428 689.313 857.434C687.209 853.444 682.245 851.929 678.255 854.031C674.265 856.134 672.749 861.065 674.853 865.055C674.981 865.299 675.168 865.635 675.431 866.075C675.832 866.747 676.323 867.475 676.86 868.253C678.373 870.443 680.143 872.628 682.236 874.684C689.599 881.917 698.831 885.9 709.557 884.347C720.625 882.742 731.818 874.901 743.274 861.108C748.026 863.774 753.552 864.752 759.606 863.013C768.085 860.577 776.164 853.188 784.069 840.388C786.439 836.55 785.253 831.53 781.416 829.159C780.457 828.567 779.435 828.199 778.387 828.037Z" fill="black"/>
<path d="M677.847 758.287L655.289 795.305L669.238 803.812L691.796 766.794L677.847 758.287Z" fill="#FF0000" fill-opacity="0.5"/>
<path d="M728.372 734.164L684.686 806.908L698.703 815.346L742.39 742.568L728.372 734.164Z" fill="#FF0000" fill-opacity="0.5"/>
<path d="M762.09 730.115L721.635 800.375L735.789 808.506L776.244 738.281L762.09 730.115Z" fill="#FF0000" fill-opacity="0.5"/>
<path d="M788.765 728.584L754.434 789.997L768.69 797.96L803.02 736.547L788.765 728.584Z" fill="#FF0000" fill-opacity="0.5"/>
<path d="M805.845 743.861L788.357 776.184L802.714 783.942L820.203 751.618L805.845 743.861Z" fill="#FF0000" fill-opacity="0.5"/>
<path d="M846.231 555.947C834.224 555.407 821.816 557.834 809.621 563.16C779.508 576.31 755.326 605.425 743.887 639.918C707.776 611.196 649.395 602.085 591.119 617.564C505.623 640.273 448.36 707.864 464.721 769.89C479.238 824.927 546.511 854.981 621.64 844.878C606.999 865.874 599.811 885.473 602.484 901.086C604.424 912.42 612.781 924.335 625.348 934.769C626.996 936.138 629.099 936.787 631.234 936.607C712.124 929.765 785.334 888.766 833.608 824.838C834.232 824.012 834.662 823.047 834.935 822.048C837.832 811.479 839.898 801.931 841.229 793.366C849.557 787.102 857.951 778.848 866.204 768.766C866.68 768.184 867.059 767.552 867.36 766.861C876.456 745.901 883.005 723.792 886.821 700.923C886.821 700.923 887.356 697.711 887.468 696.976C887.918 694.022 888.243 691.37 888.795 686.564C888.838 686.193 889.2 683.389 889.271 682.686C889.579 679.629 889.808 676.458 890.054 672.683C890.078 672.311 890.322 669.13 890.36 668.362C890.613 663.298 890.734 658.586 890.734 654.037C890.734 624.356 886.199 595.283 877.363 567.617C876.674 565.461 875.122 563.685 873.076 562.717C864.548 558.683 855.533 556.365 846.231 555.947ZM845.482 572.279C851.428 572.546 857.187 574.044 862.801 576.293C870.375 601.254 874.403 627.355 874.403 654.037C874.403 658.297 874.268 662.738 874.028 667.546C873.997 668.179 873.817 671.188 873.79 671.594C873.556 675.191 873.295 678.208 873.008 681.053C872.953 681.605 872.648 684.299 872.6 684.728C872.071 689.339 871.752 691.825 871.34 694.526C871.253 695.099 870.757 697.86 870.695 698.235C870.695 698.235 861.238 739.185 852.764 759.274C844.73 768.962 836.722 776.786 829.083 782.104C827.205 783.412 825.952 785.449 825.647 787.718C824.558 795.805 822.475 805.521 819.624 816.127C774.817 874.791 707.686 912.668 633.344 919.935C625.014 912.424 619.684 904.634 618.611 898.364C616.26 884.629 626.607 862.423 647.226 838.447C652.374 832.46 646.852 823.384 639.161 825.178C563.483 842.833 493.752 815.95 480.508 765.738C466.832 713.89 517.587 654.004 595.338 633.351C654.053 617.755 712.166 629.158 742.254 660.298C746.757 664.959 754.651 662.77 756.102 656.453C764.188 621.241 787.354 590.707 816.154 578.131C826.105 573.785 836.025 571.853 845.482 572.279Z" fill="black" fill-opacity="0.5"/>
<path d="M563.586 844.379C562.005 832.96 577.76 820.399 598.776 816.322C619.794 812.245 638.115 818.197 639.697 829.616C641.279 841.035 625.523 853.597 604.506 857.674C583.489 861.75 565.168 855.798 563.586 844.379Z" fill="#FF497F" stroke="black" stroke-width="0.0122978" stroke-miterlimit="10" stroke-linejoin="round"/>
<path d="M835.025 758.396C833.443 746.977 849.198 734.416 870.215 730.34C891.233 726.262 909.554 732.214 911.136 743.633C912.718 755.052 896.962 767.615 875.945 771.691C854.927 775.767 836.607 769.815 835.025 758.396Z" fill="#FF497F" stroke="black" stroke-width="0.0122978" stroke-miterlimit="10" stroke-linejoin="round"/>
<path d="M615.311 806.942C609.589 806.645 603.457 807.091 597.21 808.303C572.484 813.099 553.145 828.519 555.497 845.491C557.923 863.007 581.069 870.548 606.056 865.702C630.783 860.906 650.121 845.451 647.77 828.479C645.95 815.342 632.476 807.834 615.311 806.942ZM613.167 823.24C617.189 823.35 620.872 823.928 623.987 824.94C628.921 826.543 631.332 828.734 631.608 830.725C631.918 832.96 630.007 836.407 625.484 840.013C620.003 844.382 611.947 847.899 602.96 849.642C594.023 851.376 585.51 851.088 579.279 849.063C574.346 847.46 571.934 845.236 571.658 843.246C571.348 841.009 573.259 837.596 577.782 833.991C583.263 829.621 591.353 826.072 600.34 824.328C604.808 823.462 609.146 823.129 613.167 823.24Z" fill="black"/>
<path d="M886.754 720.963C881.032 720.666 874.9 721.112 868.653 722.324C843.926 727.12 824.588 742.541 826.94 759.512C829.366 777.029 852.511 784.57 877.5 779.723C902.225 774.927 921.563 759.472 919.212 742.5C917.392 729.363 903.92 721.855 886.754 720.963ZM884.61 737.227C888.632 737.337 892.314 737.916 895.429 738.928C900.364 740.53 902.775 742.755 903.051 744.746C903.361 746.981 901.449 750.428 896.926 754.034C891.446 758.405 883.39 761.92 874.403 763.663C865.467 765.397 856.952 765.109 850.723 763.085C845.788 761.481 843.377 759.258 843.101 757.267C842.791 755.03 844.703 751.618 849.225 748.012C854.706 743.642 862.796 740.093 871.784 738.349C876.252 737.483 880.588 737.116 884.61 737.227Z" fill="black"/>
<path d="M381.827 803.676C381.827 803.676 336.026 811.579 298.177 789.68C260.328 767.781 235 727.343 240.07 702.424C245.139 677.503 259.918 644.486 285.722 642.824C311.524 641.162 331.234 658.862 359.031 694.217" fill="#F3886D"/>
<path d="M381.827 803.677C381.827 803.677 336.026 811.579 298.177 789.68C260.328 767.781 235 727.343 240.07 702.423C245.139 677.503 259.918 644.486 285.722 642.824C311.524 641.162 331.234 658.862 359.031 694.217" stroke="black" stroke-width="0.0122978" stroke-miterlimit="10" stroke-linejoin="round"/>
<path d="M249.077 675.031C244.872 684.04 241.834 693.705 240.061 702.42C234.992 727.341 260.325 767.792 298.174 789.691C327.476 806.646 360.938 805.732 374.83 804.458C343.226 711.286 287.235 683.072 249.077 675.031Z" fill="#F9B192"/>
<path d="M285.823 683.265C282.692 683.832 280.066 686.225 279.324 689.525C278.335 693.926 281.117 698.302 285.517 699.29C285.505 699.288 285.659 699.323 285.993 699.426C286.674 699.635 287.484 699.926 288.442 700.31C291.329 701.471 294.621 703.16 298.208 705.448C308.763 712.186 319.447 722.532 329.543 737.328C330.696 739.019 331.855 740.777 332.981 742.569C335.378 746.388 340.389 747.518 344.208 745.121C348.027 742.722 349.191 737.679 346.794 733.858C345.558 731.89 344.322 729.971 343.052 728.109C331.71 711.488 319.399 699.593 306.986 691.669C302.533 688.826 298.346 686.703 294.533 685.17C293.147 684.613 291.904 684.152 290.791 683.809C290.05 683.581 289.483 683.455 289.089 683.367C287.99 683.12 286.867 683.076 285.823 683.265Z" fill="black"/>
<path d="M317.091 705.856C314.176 705.986 311.207 706.614 308.142 707.694C303.709 709.255 299.19 711.704 294.635 714.771C291.946 716.582 289.417 718.49 287.081 720.419C285.664 721.589 284.604 722.53 283.986 723.107C280.686 726.18 280.503 731.341 283.578 734.641C286.651 737.94 291.812 738.123 295.111 735.049C295.186 734.979 295.36 734.833 295.655 734.573C296.175 734.115 296.781 733.601 297.46 733.042C299.407 731.433 301.539 729.803 303.754 728.312C307.252 725.956 310.599 724.147 313.553 723.107C315.197 722.528 316.662 722.206 317.839 722.154C322.344 721.954 325.831 718.154 325.631 713.648C325.431 709.142 321.596 705.656 317.091 705.856Z" fill="black"/>
<path d="M285.211 634.678C270.328 635.638 257.916 644.703 248.294 659.448C240.731 671.041 235.087 685.927 232.065 700.787C226.045 730.384 254.403 773.771 294.091 796.735C294.967 797.242 295.858 797.748 296.744 798.232C310.996 806.005 326.139 810.598 341.588 812.589C352.62 814.012 362.75 813.984 371.36 813.1C373.619 812.868 375.261 812.632 376.224 812.453C380.66 811.634 383.577 807.396 382.757 802.961C381.938 798.526 377.699 795.575 373.265 796.394C373.266 796.394 372.709 796.493 372.448 796.53C371.664 796.644 370.763 796.761 369.692 796.871C362.265 797.633 353.397 797.645 343.697 796.394C330.162 794.649 316.937 790.653 304.57 783.908C303.804 783.49 303.014 783.053 302.257 782.614C268.005 762.797 243.679 725.574 248.057 704.053C253.999 674.835 268.838 652.097 286.231 650.976C306.578 649.665 323.471 662.19 352.612 699.256C355.399 702.801 360.533 703.438 364.078 700.651C367.623 697.864 368.226 692.73 365.439 689.185C349.805 669.3 338.025 656.657 326.482 648.084C313.128 638.166 299.902 633.732 285.211 634.678Z" fill="black"/>
<path d="M401.311 552.885C401.311 552.885 332.517 507.533 364.569 429.054C396.622 350.576 493.312 361.617 550.693 295.461C605.618 232.136 598.566 204.525 598.566 204.525C598.566 204.525 630.852 266.385 655.56 287.38C680.27 308.374 741.625 339.374 777.358 356.618C837.038 385.416 866.646 458.305 817.826 509.979C769.008 561.652 548.617 638.731 401.311 552.885Z" fill="#93E9CA"/>
<path d="M838.474 425.568C803.569 477.495 776 530.391 624.054 560.881C502.588 585.255 407.794 533.603 361.152 499.741C372.926 534.032 401.301 552.885 401.301 552.885C548.605 638.73 769.003 561.654 817.821 509.981C841.988 484.401 846.88 453.625 838.474 425.568Z" fill="#82D4D5"/>
<path d="M598.571 204.514C598.571 204.514 605.624 232.136 550.699 295.461C527.242 322.505 497.243 336.586 467.749 349.219C514.76 398.064 639.81 438.739 754.775 345.442C719.648 327.899 675.717 304.489 655.561 287.363C630.852 266.368 598.571 204.514 598.571 204.514Z" fill="#B7F2CC"/>
<path d="M598.571 204.514C598.571 204.514 605.185 231.07 554 291.548C588.98 309.67 609.686 322.909 655.187 286.988C630.525 265.702 598.571 204.514 598.571 204.514Z" fill="#DFFFEA"/>
<path d="M598.401 196.314C593.689 196.506 589.143 200.684 590.643 206.555C590.596 206.371 590.596 206.319 590.609 206.419C590.767 207.675 590.744 209.684 590.337 212.476C589.707 216.794 588.271 221.944 585.846 227.991C579.082 244.857 565.869 265.528 544.541 290.118C526.783 310.592 505.691 323.8 471.083 338.943C468.332 340.146 453.6 346.399 452.812 346.734C425.699 358.267 411.725 365.23 397.591 375.349C379.041 388.629 365.643 404.815 357.001 425.976C347.552 449.109 345.691 471.113 350.298 491.711C354.023 508.359 361.765 523.307 372.312 536.451C377.599 543.042 383.276 548.75 388.949 553.599C390.951 555.311 392.803 556.799 394.496 558.057C395.55 558.841 396.33 559.374 396.809 559.69C396.934 559.773 397.053 559.852 397.183 559.928C465.958 600.008 554.982 608.552 648.007 591.026C724.18 576.676 795.946 545.051 823.775 515.595C848.972 488.924 856.288 455.21 846.095 422.302C836.568 391.544 812.476 364.486 780.905 349.252C725.97 322.744 680.531 297.906 660.835 281.171C656.819 277.758 652.286 272.832 647.327 266.608C642.415 260.444 637.197 253.112 631.812 244.901C625.484 235.25 619.247 224.889 613.371 214.518C611.313 210.885 609.427 207.502 607.791 204.48C607.221 203.426 605.9 200.896 605.817 200.738C604.135 197.513 601.227 196.2 598.401 196.314ZM602.858 228.875C607.812 237.4 612.923 245.884 618.168 253.883C623.81 262.486 629.277 270.184 634.534 276.781C640.097 283.763 645.356 289.4 650.287 293.589C671.48 311.595 717.431 336.787 773.794 363.984C801.367 377.29 822.322 400.802 830.478 427.133C838.953 454.497 832.985 482.049 811.901 504.368C786.84 530.893 718.076 561.197 644.979 574.966C555.572 591.81 470.506 583.704 405.587 545.944C405.319 545.764 404.926 545.478 404.226 544.958C402.825 543.917 401.242 542.644 399.531 541.181C394.597 536.963 389.682 531.959 385.07 526.21C375.993 514.896 369.359 502.166 366.221 488.137C362.343 470.802 363.951 452.186 372.141 432.135C379.569 413.95 390.975 400.174 407.118 388.618C419.985 379.407 433.155 372.855 459.209 361.773C459.987 361.442 474.812 355.107 477.615 353.88C514.253 337.849 537.167 323.503 556.858 300.802C579.308 274.918 593.53 252.761 601.02 234.082C601.76 232.238 602.266 230.593 602.858 228.875Z" fill="black"/>
<path d="M558.566 223.634C558.566 201.933 576.158 184.34 597.861 184.34C619.562 184.34 637.155 201.933 637.155 223.634C637.155 245.336 619.562 262.929 597.861 262.929C576.158 262.929 558.566 245.336 558.566 223.634Z" fill="#FFA0CA"/>
<path d="M597.856 176.172C571.644 176.172 550.393 197.424 550.393 223.636C550.393 249.847 571.644 271.1 597.856 271.1C624.067 271.1 645.319 249.848 645.32 223.636C645.32 197.424 624.067 176.172 597.856 176.172ZM597.856 192.504C615.048 192.504 628.988 206.444 628.988 223.636C628.988 240.828 615.048 254.768 597.856 254.768C580.665 254.768 566.724 240.828 566.724 223.636C566.724 206.444 580.665 192.504 597.856 192.504Z" fill="black"/>
<path opacity="0.202659" d="M846.076 451.024C601.184 642.846 352.084 483.074 352.084 483.074L362.359 527.306L353.853 533.872L331.023 591.781L327.178 652.174L347.899 680.583C352.813 700.591 302.953 700.249 302.953 700.249L255.557 747.985L300.163 789.392L373.621 812.903L420.913 861.318L490.493 906.945L557.281 939.812L644.077 934.232L711.988 917.526L759.282 885.815C703.762 886.777 656.241 875.262 615.692 856.02C606.218 851.524 579.849 857.126 571.123 851.848C564.029 847.556 574.454 832.506 567.84 827.77C490.539 772.423 457.725 729.093 438.346 684.867C433.719 674.312 500.99 630.114 510.44 628.776C519.89 627.439 616.347 617.775 616.347 617.775L729.205 588.617L790.89 550.68L837.435 496.446L846.076 451.024Z" fill="black"/>
</g>
</svg>
