<svg width="1200" height="1265" viewBox="0 0 1200 1265" fill="none" xmlns="http://www.w3.org/2000/svg">
<mask id="mask0_311_10435" style="mask-type:luminance" maskUnits="userSpaceOnUse" x="0" y="0" width="1200" height="1265">
<path d="M1199.03 0H0V1265H1199.03V0Z" fill="white"/>
</mask>
<g mask="url(#mask0_311_10435)">
<path d="M354.013 983.761C354.013 956.894 492.699 935.113 663.777 935.113C834.853 935.113 973.539 956.894 973.539 983.761C973.539 1010.63 834.853 1032.41 663.777 1032.41C492.699 1032.41 354.013 1010.63 354.013 983.761Z" fill="black" fill-opacity="0.7"/>
<path d="M404.03 746.045C404.03 746.045 362.891 742.261 346.939 766.526C330.987 790.792 337.396 879.505 469.458 879.066" fill="#F3886D"/>
<path d="M394.983 734.16C386.73 734.345 377.819 735.489 369.055 738.083C355.451 742.109 344.379 749.195 337.196 760.121C324.967 778.724 326.165 812.285 342.868 838.358C364.164 871.6 406.561 890.942 469.493 890.732L469.428 867.397C413.947 867.582 379.123 851.719 362.509 825.783C356.151 815.86 352.817 804.767 352.429 793.989C352.108 785.027 353.93 777.099 356.675 772.922C360.457 767.169 366.956 763.032 375.699 760.445C384.431 757.86 393.884 757.19 401.79 757.593C402.165 757.611 402.957 757.658 402.956 757.658L405.095 734.42C404.65 734.379 403.939 734.339 402.988 734.29C400.41 734.159 397.734 734.099 394.983 734.16Z" fill="black"/>
<path d="M872.892 536.149C872.892 536.149 877.727 502.598 899.979 452.322C922.232 402.045 961.9 335.043 1031.57 268.139C1031.57 268.139 1025.25 260.047 1011.39 255.804C997.523 251.562 976.11 251.166 945.914 266.56C945.914 266.56 947.57 255.541 946.088 240.071C944.606 224.602 939.986 204.683 927.433 186.885C927.433 186.885 918.12 186.685 904.623 191.059C891.125 195.434 873.443 204.383 856.704 222.683C856.704 222.683 853.915 207.209 848.796 190.464C843.677 173.719 836.228 155.703 826.908 150.62C826.908 150.62 816.041 151.916 801.25 159.362C786.458 166.809 767.741 180.407 752.042 205.015C752.042 205.015 750.018 193.89 743.546 180.272C737.074 166.655 726.155 150.544 708.364 140.575C708.364 140.575 698.954 143.313 686.764 153.309C674.574 163.305 659.603 180.56 648.478 209.591C648.478 209.591 642.535 197.882 632.469 184.177C622.403 170.472 608.213 154.771 591.718 146.785C591.718 146.785 581.922 151.877 571.371 164.47C560.821 177.062 549.516 197.156 546.498 227.157C546.498 227.157 537.661 221.785 522.047 215.935C506.434 210.085 484.043 203.759 456.933 201.853C456.933 201.853 473.535 220.238 491.228 262.162C508.921 304.086 527.703 369.55 532.063 463.706C532.063 463.706 570.588 468.9 632.455 480.553C694.321 492.205 779.529 510.315 872.892 536.149Z" fill="#AF93E5"/>
<path d="M525.684 372.575C525.684 372.575 568.855 263.749 627.763 264.547C686.671 265.345 740.628 329.327 744.613 404.313C744.613 404.313 767.733 414.322 795.371 429.536C835.6 451.681 885.402 484.853 887.41 514.239C890.799 563.812 854.065 541.51 854.065 541.51L639.877 495.274L543.62 499.65L528.838 457.571L525.684 372.575Z" fill="#ABACE3"/>
<path d="M547.243 380.942L578.1 353.759L569.704 313.586L611.867 319.041L629.616 276.851L651.043 316.348L680.987 302.649L676.732 342.69L712.276 359.909L671.168 385.454L703.499 435.503L648.594 417.604L631.681 465.423L612.911 417.848L567.625 442.906L588.437 393.995L547.243 380.942Z" fill="#C3C4E1"/>
<path d="M950.997 259.925C950.997 259.925 868.339 348.834 833.609 489.144C798.879 629.454 876.674 534.988 876.674 534.988L906.084 443.414L944.807 370.486C944.807 370.486 973.848 334.023 981.27 326.6C988.693 319.179 1021.93 279.166 1021.93 279.166L1034.51 263.676L1014.51 250.77L983.529 252.383L950.997 259.925Z" fill="#B876D1"/>
<path d="M842.164 458.75C839.098 468.618 836.195 478.696 833.608 489.15C828.666 509.114 826.18 523.895 825.246 535.302L854.059 541.524C854.059 541.524 859.775 544.863 866.471 546.029C872.324 540.093 876.68 534.978 876.68 534.978L885.787 506.651C880.577 490.64 863.153 473.936 842.164 458.75Z" fill="#AF93E5"/>
<path d="M637.422 325.849C637.422 325.849 610.02 330.886 604.736 339.98C599.453 349.072 600.19 375.614 604.614 383.109C609.037 390.604 625.134 407.562 637.299 404.367C637.299 404.367 677.357 372.91 637.422 325.849Z" fill="#FFD000"/>
<path d="M870.925 540.385C870.925 540.385 875.76 506.836 898.012 456.558C920.264 406.282 959.932 339.28 1029.6 272.376C1029.6 272.376 1023.28 264.285 1009.42 260.042C995.555 255.799 974.142 255.404 943.946 270.798C943.946 270.798 945.603 259.777 944.12 244.309C942.638 228.839 938.018 208.92 925.466 191.122C925.466 191.122 916.154 190.922 902.656 195.297C889.159 199.671 871.476 208.621 854.736 226.92C854.736 226.92 851.947 211.447 846.829 194.701C841.71 177.956 834.261 159.94 824.941 154.858C824.941 154.858 814.075 156.152 799.282 163.599C784.491 171.046 765.774 184.645 750.075 209.252C750.075 209.252 748.051 198.127 741.578 184.51C735.107 170.891 724.187 154.782 706.397 144.811C706.397 144.811 696.987 147.55 684.797 157.547C672.607 167.543 657.635 184.797 646.511 213.828C646.511 213.828 640.568 202.119 630.502 188.414C620.435 174.709 606.245 159.008 589.751 151.022C589.751 151.022 579.955 156.115 569.405 168.707C558.854 181.3 547.549 201.393 544.531 231.395C544.531 231.395 535.694 226.021 520.081 220.172C504.467 214.323 482.075 207.996 454.966 206.09C454.966 206.09 471.568 224.475 489.261 266.399C506.953 308.324 525.736 373.787 530.096 467.944C530.096 467.944 568.622 473.138 630.488 484.791C692.355 496.443 777.562 514.553 870.925 540.385Z" fill="#93E9CA"/>
<path d="M523.717 376.813C523.717 376.813 566.888 267.986 625.796 268.785C684.704 269.582 738.66 333.564 742.646 408.55C742.646 408.55 765.766 418.56 793.404 433.773C833.633 455.919 883.434 489.091 885.443 518.476C888.831 568.048 852.098 545.747 852.098 545.747L637.909 499.512L541.654 503.886L526.872 461.808L523.717 376.813Z" fill="#B7F2CC"/>
<path d="M545.276 385.179L576.133 357.996L567.738 317.824L609.901 323.279L627.648 281.088L649.077 320.584L679.02 306.886L674.764 346.927L710.308 364.146L669.2 389.691L701.531 439.741L646.626 421.841L629.714 469.66L610.944 422.086L565.658 447.143L586.469 398.232L545.276 385.179Z" fill="#DFFFEA"/>
<path d="M949.03 264.162C949.03 264.162 866.372 353.071 831.642 493.381C796.911 633.692 874.707 539.225 874.707 539.225L904.118 447.65L942.84 374.723C942.84 374.723 971.882 338.26 979.304 330.838C986.725 323.416 1019.96 283.403 1019.96 283.403L1032.55 267.914L1012.54 255.007L981.562 256.621L949.03 264.162Z" fill="#82D4D5"/>
<path d="M840.196 462.988C837.131 472.856 834.229 482.933 831.64 493.388C826.699 513.352 824.212 528.133 823.279 539.539L852.091 545.762C852.091 545.762 857.809 549.1 864.504 550.267C870.357 544.331 874.713 539.216 874.713 539.216L883.82 510.889C878.61 494.878 861.186 478.174 840.196 462.988Z" fill="#93E9CA"/>
<path d="M635.455 330.087C635.455 330.087 608.053 335.124 602.77 344.218C597.486 353.31 598.223 379.852 602.647 387.347C607.071 394.842 623.167 411.8 635.332 408.605C635.332 408.605 675.39 377.148 635.455 330.087Z" fill="#FFA0CA"/>
<path d="M636.112 322.296C635.431 322.24 634.727 322.267 634.038 322.394C632.862 322.61 630.901 322.996 628.399 323.593C624.228 324.587 620.061 325.785 616.115 327.158C606.267 330.584 599.344 334.509 595.989 340.284C589.521 351.414 589.781 380.975 595.891 391.33C598.944 396.502 604.977 403.233 611.253 408.151C620.011 415.01 628.864 418.407 637.311 416.188C638.347 415.916 639.321 415.423 640.163 414.762C640.414 414.565 640.788 414.273 641.265 413.855C642.002 413.208 642.807 412.444 643.663 411.586C646.065 409.176 648.468 406.365 650.697 403.159C657.112 393.929 660.988 383.277 661.003 371.365C661.02 356.334 654.778 340.752 641.427 325.019C640.067 323.416 638.153 322.465 636.112 322.296ZM632.19 338.794C641.127 350.403 645.361 361.259 645.348 371.333C645.339 379.773 642.543 387.434 637.829 394.214C636.155 396.622 634.358 398.749 632.579 400.534C632.377 400.737 632.218 400.87 632.029 401.053C625.924 400.98 614.264 391.587 609.406 383.356C606.159 377.855 605.932 354.363 609.536 348.16C609.829 347.655 610.994 346.644 612.938 345.535C615.102 344.302 617.925 343.088 621.235 341.937C624.632 340.756 628.332 339.707 632.029 338.826C632.087 338.811 632.132 338.807 632.19 338.794Z" fill="black"/>
<path d="M707.738 133.056C706.191 132.878 704.596 133.001 703.071 133.445C702.463 133.621 701.599 133.921 700.479 134.352C698.791 135.001 696.909 135.83 694.871 136.847C689.252 139.652 683.307 143.436 677.273 148.385C665.1 158.367 654.164 171.708 645.057 188.638C643.433 186.234 641.804 183.819 640.033 181.411C626.411 162.863 611.424 148.338 594.919 140.348C591.553 138.717 587.607 138.785 584.289 140.509C583.717 140.807 582.871 141.298 581.793 141.968C580.142 142.995 578.32 144.23 576.381 145.695C570.981 149.776 565.55 154.869 560.338 161.09C548.617 175.08 539.933 192.576 535.415 213.626C531.926 212.091 528.223 210.583 524.233 209.089C503.697 201.395 480.707 196.03 455.784 194.278C445.147 193.53 439.044 206.102 446.191 214.015C446.22 214.047 446.343 214.244 446.612 214.566C447.123 215.178 447.753 215.918 448.46 216.835C450.553 219.552 452.919 222.918 455.525 226.947C463.105 238.667 470.872 253.29 478.341 270.992C499.909 322.098 514.52 387.493 518.27 468.497C518.534 474.214 522.841 478.914 528.511 479.678C528.572 479.686 533.401 480.362 535.382 480.651C541.059 481.481 547.701 482.5 555.249 483.697C576.846 487.124 601.35 491.358 628.302 496.435C705.327 510.942 786.427 529.281 867.778 551.791C874.656 553.693 881.637 549.131 882.654 542.068C882.676 541.914 882.736 541.519 882.848 540.868C883.048 539.714 883.299 538.324 883.626 536.719C884.577 532.052 885.87 526.62 887.548 520.45C892.383 502.672 899.354 482.803 908.841 461.367C936.052 399.887 977.992 338.345 1037.8 280.909C1042.18 276.702 1042.67 269.88 1038.93 265.093C1038.2 264.15 1037.03 262.855 1035.43 261.365C1032.98 259.08 1030.05 256.85 1026.62 254.787C1022.52 252.322 1017.93 250.271 1012.88 248.726C996.787 243.802 977.886 244.699 956.387 252.518C956.289 249.466 956.212 246.447 955.9 243.184C953.865 221.946 947.455 201.73 935.158 184.295C932.99 181.222 929.486 179.352 925.726 179.272C925.656 179.271 925.636 179.273 925.533 179.272C923.567 179.25 920.712 179.412 917.073 179.888C911.48 180.619 905.392 181.961 898.989 184.036C886.069 188.223 873.458 194.922 861.587 204.389C860.46 199.984 859.472 195.55 858.152 191.231C850.813 167.222 842.571 150.992 830.603 144.464C828.445 143.286 825.981 142.811 823.539 143.102C822.932 143.175 821.995 143.325 820.784 143.556C818.916 143.911 816.837 144.38 814.528 145.015C808.09 146.784 801.144 149.396 793.949 153.02C779.619 160.234 766.177 170.491 754.246 184.068C753.584 182.522 753.008 180.99 752.269 179.433C743.21 160.371 730.142 144.549 712.178 134.482C710.793 133.705 709.286 133.232 707.738 133.056ZM705.34 158.108C716.199 165.572 724.637 176.445 730.879 189.578C733.426 194.937 735.398 200.297 736.874 205.329C737.384 207.066 737.793 208.611 738.106 209.964C738.28 210.718 738.4 211.191 738.43 211.358C740.358 221.951 754.256 224.714 760.047 215.636C772.598 195.964 787.965 182.563 804.611 174.183C810.358 171.29 815.808 169.23 820.784 167.863C821.165 167.759 821.428 167.73 821.788 167.636C825.884 172.486 831.021 183.522 835.497 198.167C837.641 205.179 839.528 212.508 841.137 219.687C841.7 222.2 842.187 224.506 842.595 226.558C842.738 227.268 843.065 228.933 843.082 229.021C844.821 238.669 856.851 242.154 863.467 234.919C876.678 220.477 891.328 211.418 906.313 206.561C910.915 205.069 915.203 204.154 919.147 203.579C926.549 216.07 930.886 230.3 932.338 245.453C933.078 253.169 933.029 260.21 932.533 266.13C932.458 267.024 932.383 267.818 932.306 268.463C932.264 268.809 932.248 269.002 932.241 269.047C930.809 278.576 940.737 285.74 949.321 281.363C973.114 269.233 991.685 267.018 1005.94 271.381C1008 272.011 1009.88 272.785 1011.65 273.649C954.801 330.494 914.064 391.056 887.191 451.773C877.208 474.33 869.839 495.325 864.699 514.228C863.52 518.56 862.761 522.06 861.912 525.765C783.983 504.588 706.467 487.062 632.677 473.164C605.495 468.045 580.76 463.758 558.945 460.298C552.258 459.237 546.572 458.385 541.314 457.607C539.814 431.701 537.225 407.315 533.659 384.422C526.316 337.294 514.832 296.493 500.186 261.788C493.599 246.181 486.722 232.829 479.865 221.372C492.611 223.778 504.74 227.063 515.936 231.257C522.372 233.668 528.044 236.168 532.887 238.582C534.55 239.411 535.976 240.157 537.165 240.818C537.831 241.187 538.22 241.443 538.364 241.531C545.81 246.059 555.447 241.256 556.32 232.585C558.716 208.754 566.791 190.283 578.488 176.322C582.335 171.731 586.297 168.02 590.156 165.043C600.665 171.63 611.136 182.059 620.944 195.412C625.101 201.071 628.853 206.817 632.093 212.297C633.221 214.204 634.182 215.93 635.011 217.451C635.294 217.972 635.929 219.157 635.95 219.201C640.598 228.356 653.893 227.654 657.568 218.066C666.563 194.592 678.658 177.892 692.311 166.697C696.897 162.936 701.302 160.136 705.34 158.108Z" fill="black"/>
<path d="M395.94 699.792C395.94 556.527 513.657 440.388 658.869 440.388C804.081 440.388 921.799 556.527 921.799 699.792C921.799 843.057 804.081 959.196 658.869 959.196C513.657 959.196 395.94 843.057 395.94 699.792Z" fill="#F3886D"/>
<path d="M730.003 488.721C678.024 488.721 625.803 524.109 599.781 569.227C584.444 529.951 545.142 503.695 509.001 503.695C462.898 503.695 403.441 591.838 403.441 649.862C403.441 682.409 425.186 698.134 452.413 705.673C449.614 715.384 447.941 725.473 447.941 735.911C447.941 806.523 521.603 914.197 615.435 897.798C700.558 882.92 730.003 802.763 730.003 732.151C730.003 727.825 729.742 723.57 729.29 719.381C795.934 714.146 847.91 671.52 847.91 607.147C847.91 538.334 803.22 488.721 730.003 488.721Z" fill="#F9B192"/>
<path d="M745.009 563.07C742.522 562.66 739.303 564.177 737.263 565.144C734.651 566.38 732.123 567.795 729.614 569.227C726.284 571.128 722.978 573.074 719.697 575.061C713.933 578.552 708.224 582.114 702.553 585.757C698.891 588.102 697.807 592.984 700.154 596.646C702.501 600.307 707.382 601.359 711.043 599.012C718.7 594.117 726.451 589.349 734.346 584.849C736.844 583.425 739.361 582.023 741.93 580.733C742.069 580.663 742.213 580.607 742.352 580.538C744.719 583.072 746.937 585.745 749.028 588.511C755.438 596.987 760.619 606.283 764.682 616.092C766.449 620.332 771.332 622.365 775.572 620.596C779.811 618.829 781.812 613.947 780.044 609.707C777.054 602.573 773.58 595.656 769.479 589.094C766.972 585.086 764.216 581.228 761.279 577.524C758.661 574.223 755.87 571.067 752.885 568.092C752.124 567.334 751.346 566.58 750.551 565.856C750.258 565.59 749.959 565.181 749.612 564.981C748.741 564.481 747.913 563.878 746.986 563.491C746.362 563.229 745.677 563.179 745.009 563.07ZM739.078 577.232C739.086 577.252 739.154 577.303 739.175 577.33C739.142 577.31 739.112 577.284 739.078 577.265C739.067 577.258 739.074 577.221 739.078 577.232Z" fill="black"/>
<path d="M494.934 558.726C494.307 558.617 493.683 558.778 493.055 558.888C489.66 559.486 486.705 561.575 484.174 563.814C481.645 566.053 479.393 568.576 477.239 571.171C472.818 576.496 468.775 582.171 464.89 587.895C461.385 593.059 457.987 598.309 454.746 603.646C452.487 607.362 453.655 612.179 457.371 614.438C461.088 616.698 465.937 615.53 468.196 611.814C474.137 602.072 480.511 592.483 487.74 583.649C489.755 581.185 491.868 578.733 494.222 576.584C494.374 576.444 494.552 576.332 494.707 576.195C494.753 576.225 494.792 576.262 494.837 576.292C496.869 577.662 498.787 579.16 500.638 580.764C506.099 585.496 510.73 591.021 514.575 597.131C517.031 601.013 522.166 602.181 526.048 599.724C529.93 597.268 531.097 592.133 528.641 588.251C522.473 578.549 514.586 569.943 505.078 563.425C503.616 562.422 502.117 561.447 500.574 560.573C500.016 560.258 499.329 559.718 498.694 559.569C497.449 559.274 496.194 558.945 494.934 558.726Z" fill="black"/>
<path d="M515.612 671.186C515.612 671.186 573.617 640.383 644.952 668.305C644.952 668.305 629.223 809.441 576.286 847.709C576.286 847.709 518.503 812.707 515.612 671.186Z" fill="#AC3A34"/>
<path d="M621.624 772.987C588.364 774.952 566.312 800.918 553.467 822.963C565.746 841.244 576.283 847.724 576.283 847.724C596.379 833.197 611.077 803.816 621.624 772.987Z" fill="#FF5A51"/>
<path d="M730.003 480.878C681.334 480.878 630.793 510.46 600.818 553.184C581.79 519.051 544.991 495.851 509.001 495.851C484.06 495.851 455.953 517.212 432.514 550.494C410.086 582.339 395.599 620.169 395.599 649.862C395.599 680.796 413.049 700.436 443.047 710.793C441.137 719.203 440.097 727.562 440.097 735.911C440.097 773.796 459.724 820.117 490.656 854.692C525.651 893.808 570.423 913.616 616.796 905.511C659.032 898.129 690.768 875.065 711.4 839.849C729.038 809.744 737.847 771.704 737.847 732.151C737.847 730.241 737.616 728.254 737.522 726.317C806.701 717.934 855.753 671.309 855.753 607.147C855.754 532.351 805.947 480.878 730.003 480.878ZM730.003 496.564C797.178 496.564 840.068 540.89 840.067 607.147C840.067 664.827 794.255 706.418 728.674 711.571C724.274 711.916 721.039 715.835 721.512 720.224C721.954 724.322 722.16 728.273 722.16 732.151C722.16 769.091 714.001 804.402 697.885 831.908C679.519 863.255 651.647 883.517 614.073 890.084C573.577 897.162 533.98 879.64 502.324 844.257C473.843 812.42 455.784 769.726 455.783 735.911C455.783 726.681 457.185 717.373 459.932 707.843C461.139 703.656 458.687 699.284 454.487 698.12C426.07 690.253 411.285 675.273 411.285 649.862C411.285 593.835 469.24 511.537 509.001 511.537C542.914 511.537 578.705 536.783 592.489 572.079C594.878 578.199 603.273 578.84 606.554 573.148C632.243 528.607 682.702 496.564 730.003 496.564Z" fill="black" fill-opacity="0.401653"/>
<path d="M658.864 432.555C509.349 432.555 388.112 552.191 388.112 699.806C388.112 847.42 509.349 967.026 658.864 967.026C808.378 967.026 929.615 847.42 929.615 699.806C929.615 552.191 808.378 432.555 658.864 432.555ZM658.864 448.209C799.774 448.209 913.961 560.89 913.961 699.806C913.961 838.722 799.774 951.371 658.864 951.371C517.954 951.371 403.766 838.722 403.766 699.806C403.766 560.89 517.954 448.209 658.864 448.209Z" fill="black"/>
<path d="M528.243 456.231C526.71 456.389 525.187 456.848 523.752 457.634C435.847 505.847 380.081 597.853 380.081 699.603C380.081 716.339 381.575 732.736 384.441 748.65C384.621 749.652 384.904 750.622 385.096 751.62C386.632 751.012 388.367 750.767 389.948 750.379C393.027 749.624 396.014 748.622 399.093 747.867C401.861 747.188 404.483 747.904 407.189 747.638C407.588 747.6 407.977 747.517 408.369 747.443C408.289 747.026 408.185 746.62 408.106 746.203C405.276 731.101 403.813 715.523 403.813 699.603C403.813 606.55 454.788 522.421 535.192 478.323C540.932 475.174 543.042 467.983 539.879 462.268C537.507 457.982 532.842 455.756 528.243 456.231ZM870.688 528.447C867.681 528.041 864.515 528.76 861.903 530.731C856.679 534.672 855.651 542.076 859.608 547.276C892.739 590.799 910.973 643.814 910.973 699.603C910.973 839.027 797.445 952.048 657.394 952.048C582.954 952.048 516.056 920.08 469.667 869.226C467.504 871.597 464.926 873.58 461.57 874.611C456.354 876.213 450.311 876.323 444.819 876.765C445.519 877.596 446.143 878.488 446.852 879.31C497.71 938.305 573.175 975.674 657.394 975.674C810.552 975.674 934.706 852.076 934.706 699.603C934.706 638.617 914.753 580.578 878.522 532.982C876.543 530.382 873.695 528.852 870.688 528.447Z" fill="black"/>
<path d="M700.664 688.674C702.44 674.689 725.464 665.759 752.088 668.729C778.713 671.7 798.855 685.446 797.078 699.431C795.302 713.417 772.278 722.346 745.654 719.376C719.029 716.406 698.886 702.66 700.664 688.674Z" fill="#FF497F"/>
<path d="M377.316 691.735C376.008 677.697 396.539 663.973 423.172 661.082C449.804 658.189 472.455 667.224 473.762 681.262C475.07 695.299 454.541 709.023 427.908 711.915C401.274 714.807 378.624 705.772 377.316 691.735Z" fill="#FF497F"/>
<path d="M433.453 653.492C429.85 653.477 426.154 653.668 422.402 654.076C392.444 657.328 368.51 673.322 370.287 692.384C372.075 711.582 398.633 722.187 428.657 718.928C458.615 715.674 482.547 699.682 480.772 680.619C479.207 663.821 458.674 653.598 433.453 653.492ZM432.416 667.591C451.586 667.453 466.015 674.148 466.738 681.915C467.577 690.928 450.441 702.396 427.133 704.927C403.89 707.45 385.147 699.964 384.32 691.087C383.48 682.076 400.617 670.607 423.924 668.077C426.83 667.761 429.677 667.61 432.416 667.591Z" fill="black"/>
<path d="M741.833 661.108C716.601 661.121 695.783 671.163 693.672 687.782C691.242 706.909 714.866 723.032 744.879 726.381C774.828 729.723 801.647 719.316 804.06 700.324C806.49 681.196 782.898 665.073 752.885 661.724C749.141 661.306 745.437 661.106 741.833 661.108ZM742.773 675.207C745.53 675.234 748.383 675.4 751.297 675.726C774.531 678.317 791.215 689.698 790.091 698.542C788.95 707.52 769.735 714.98 746.435 712.38C723.2 709.789 706.517 698.408 707.64 689.564C708.638 681.708 723.47 675.014 742.773 675.207Z" fill="black"/>
<path d="M580.496 648.793C563.083 649.084 546.84 651.9 532.109 656.409C526.623 658.087 521.715 659.876 517.459 661.691C515.947 662.336 514.615 662.957 513.473 663.506C512.755 663.851 512.256 664.089 511.949 664.252C509.34 665.637 507.709 668.395 507.769 671.35C509.031 733.1 520.527 780.053 539.012 814.18C546.01 827.101 553.58 837.319 561.212 845.099C563.947 847.885 566.485 850.167 568.829 852.002C569.683 852.671 570.475 853.246 571.162 853.72C571.623 854.037 571.984 854.25 572.232 854.401C574.923 856.031 578.336 855.887 580.885 854.044C602.591 838.353 619.367 807.258 632.482 765.079C639.012 744.074 644.208 721.623 648.2 699.19C649.597 691.343 650.753 684.056 651.668 677.507C651.99 675.209 652.618 670.226 652.673 669.762C652.707 669.477 652.726 669.287 652.738 669.178C653.131 665.656 651.112 662.303 647.811 661.011C625.354 652.22 602.754 648.419 580.496 648.793ZM580.788 664.447C599.171 664.139 617.778 667.141 636.371 673.651C636.29 674.246 636.233 674.698 636.144 675.336C635.254 681.699 634.135 688.787 632.773 696.435C628.888 718.27 623.857 740.1 617.541 760.412C606.379 796.312 592.444 823.14 576.186 837.547C574.949 836.466 573.794 835.538 572.394 834.111C565.78 827.37 559.085 818.355 552.786 806.725C536.051 775.828 525.378 732.86 523.65 676.114C527.403 674.514 531.751 672.891 536.678 671.382C550.073 667.282 564.922 664.712 580.788 664.447Z" fill="black"/>
<path d="M621.171 765.177C603.932 766.194 588.479 772.993 574.858 784.46C563.941 793.65 554.594 805.448 546.693 819.009C545.183 821.601 545.279 824.848 546.952 827.338C552.658 835.832 558.49 842.636 564.13 847.919C566.155 849.816 568.014 851.403 569.704 852.683C570.792 853.507 571.625 854.068 572.167 854.401C574.864 856.059 578.319 855.932 580.885 854.076C600.691 839.759 616.383 812.531 629.047 775.515C630.849 770.246 626.729 764.848 621.171 765.177ZM609.601 783.067C599.961 807.836 588.761 826.495 576.186 837.645C575.71 837.224 575.335 836.956 574.824 836.479C570.993 832.889 566.992 828.112 562.963 822.607C575.674 802.346 591.209 788.269 609.601 783.067Z" fill="black"/>
<path d="M890.745 716.416C890.745 716.416 940.937 683.775 961.107 689.053C981.278 694.331 1022.7 718.086 1028.15 751.748C1033.6 785.409 966.135 924.974 860.406 859.396" fill="#F3886D"/>
<path d="M953.108 680.639C946.976 681.08 940.855 682.88 935.152 684.885C925.539 688.265 916.315 692.75 907.345 697.557C900.235 701.367 893.21 705.381 886.441 709.776C882.777 712.154 881.728 717.067 884.107 720.731C886.485 724.394 891.397 725.442 895.061 723.064C902.002 718.559 909.233 714.439 916.549 710.586C923.691 706.825 931.004 703.293 938.588 700.507C942.441 699.09 946.348 697.818 950.385 697.039C952.749 696.583 955.235 696.243 957.645 696.487C960.195 696.746 962.853 697.825 965.228 698.724C969.367 700.29 973.383 702.182 977.285 704.266C991.11 711.652 1004.73 722.102 1013.23 735.476C1015.84 739.59 1017.92 744.03 1019.22 748.733C1019.74 750.603 1020.21 752.558 1020.33 754.501C1020.48 757.175 1020.22 759.868 1019.81 762.507C1019.21 766.28 1018.27 769.997 1017.18 773.656C1013.9 784.641 1009.09 795.197 1003.44 805.158C1000.83 809.761 998.035 814.264 995.013 818.607C979.088 841.503 956.231 862.358 927.892 867.288C923.811 867.997 919.684 868.322 915.544 868.357C909.346 868.41 903.131 867.638 897.103 866.218C885.578 863.503 874.818 858.445 864.758 852.282C860.822 849.873 855.693 851.101 853.285 855.037C850.877 858.972 852.104 864.102 856.04 866.51C867.621 873.588 880.021 879.346 893.278 882.455C901.604 884.408 910.171 885.278 918.72 884.951C924.233 884.74 929.738 884.018 935.12 882.812C972.091 874.522 1000.62 844.144 1018.35 812.061C1024.93 800.16 1030.43 787.49 1033.84 774.304C1035.58 767.563 1036.92 760.457 1036.47 753.464C1036.26 750.396 1035.61 747.377 1034.78 744.422C1033.03 738.193 1030.26 732.298 1026.77 726.856C1016.39 710.644 999.921 697.958 982.957 689.261C978.015 686.727 972.898 684.47 967.627 682.713C964.882 681.799 962.121 680.96 959.233 680.671C957.198 680.469 955.151 680.493 953.108 680.639Z" fill="black"/>
<path d="M1029.31 751.079C915.396 756.886 869.557 812.667 851.086 858.648C961.749 923.958 1032.78 787.765 1029.31 751.079Z" fill="#F9B192"/>
<path d="M989.217 746.995C979.176 748.154 969.165 749.827 959.368 752.343C940.338 757.228 922.012 764.978 905.892 776.293C899.392 780.856 893.252 785.997 887.807 791.785C885.048 794.718 882.325 797.817 880.191 801.249C877.899 804.945 879.023 809.814 882.718 812.107C886.415 814.399 891.284 813.274 893.576 809.578C893.557 809.608 893.72 809.378 893.738 809.351C893.804 809.254 893.832 809.191 893.9 809.092C894.087 808.823 894.289 808.545 894.483 808.282C895.031 807.541 895.583 806.821 896.169 806.11C897.952 803.949 899.894 801.903 901.905 799.953C907.725 794.31 914.278 789.437 921.221 785.271C942.38 772.576 966.744 766.258 991.097 763.524C995.661 763.004 998.941 758.884 998.422 754.32C997.902 749.755 993.782 746.475 989.217 746.995Z" fill="black"/>
<path d="M935.935 765.696C931.626 766.286 928.604 770.266 929.194 774.575C929.96 780.278 930.672 785.982 931.398 791.688C932.05 796.815 932.749 801.966 933.861 807.017C934.873 811.499 939.33 814.317 943.811 813.305C948.292 812.293 951.078 807.837 950.066 803.355C949.118 799.289 948.526 795.117 947.797 791.008C946.701 784.824 945.686 778.654 944.815 772.437C944.226 768.128 940.245 765.106 935.935 765.696Z" fill="black"/>
<path d="M958.59 672.777C954.499 672.591 948.804 673.27 940.343 674.592C933.062 675.728 924.789 677.292 921.61 678.092L927.25 700.617C929.594 700.027 937.302 698.574 943.941 697.538C947.844 696.928 951.27 696.471 953.923 696.209C955.258 696.078 956.366 696.001 957.131 695.982C967.257 698.642 981.375 705.916 992.945 715.169C1006.8 726.251 1015.73 738.834 1017.84 751.241C1018.84 757.186 1015.74 770.562 1009.08 785.368C1001.28 802.726 989.752 819.89 976.188 833.497C960.699 849.038 943.287 859.312 924.755 862.99C903.58 867.192 880.962 862.859 856.824 848.568L844.993 868.532C873.92 885.659 902.342 891.089 929.292 885.742C952.709 881.095 974.106 868.503 992.652 849.896C1023.32 819.128 1044.79 771.371 1040.72 747.352C1037.52 728.503 1025.35 711.38 1007.43 697.051C993.136 685.617 975.71 676.641 962.187 673.263C961.135 673 959.954 672.838 958.59 672.777Z" fill="black"/>
<path d="M953.113 680.619C946.982 681.06 940.861 682.893 935.158 684.897C925.545 688.277 916.32 692.731 907.35 697.538C900.242 701.347 893.215 705.394 886.446 709.788C882.782 712.167 881.734 717.047 884.112 720.711C886.491 724.374 891.403 725.423 895.067 723.045C902.008 718.539 909.239 714.452 916.554 710.599C923.696 706.838 931.011 703.273 938.593 700.487C942.447 699.072 946.353 697.798 950.39 697.019C952.755 696.563 955.241 696.224 957.65 696.469C960.201 696.727 962.859 697.838 965.234 698.737C969.374 700.303 973.389 702.162 977.291 704.247C991.116 711.632 1004.74 722.115 1013.23 735.49C1015.85 739.603 1017.93 744.043 1019.23 748.745C1019.75 750.615 1020.22 752.538 1020.33 754.482C1020.49 757.155 1020.2 759.881 1019.78 762.519C1019.18 766.293 1018.28 770.009 1017.19 773.668C1013.91 784.653 1009.09 795.21 1003.45 805.171C1000.84 809.774 998.008 814.244 994.986 818.589C979.061 841.483 956.236 862.372 927.898 867.3C923.817 868.01 919.691 868.335 915.55 868.37C909.352 868.422 903.137 867.618 897.108 866.199C885.584 863.483 874.824 858.425 864.764 852.262C860.828 849.854 855.699 851.114 853.29 855.05C850.882 858.985 852.11 864.114 856.046 866.522C867.627 873.601 880.027 879.326 893.285 882.436C901.611 884.389 910.177 885.292 918.726 884.964C924.239 884.753 929.744 883.999 935.126 882.792C972.097 874.503 1000.62 844.158 1018.35 812.074C1024.93 800.174 1030.43 787.502 1033.85 774.316C1035.59 767.575 1036.93 760.47 1036.47 753.477C1036.27 750.409 1035.61 747.358 1034.79 744.402C1033.04 738.173 1030.27 732.278 1026.78 726.836C1016.4 710.625 999.927 697.97 982.963 689.273C978.021 686.739 972.904 684.484 967.632 682.727C964.888 681.811 962.127 680.972 959.239 680.685C957.203 680.481 955.157 680.473 953.113 680.619Z" fill="black"/>
<path opacity="0.196343" d="M508.09 917.571C508.09 917.571 804.611 917.461 904 600.921L924.014 689.83C924.014 689.83 884.481 770.069 916.354 777.65L979.288 758.545L1018.06 776.413L995.901 838.164L955.851 869.849L902.304 877.262L862.937 866.786L809.208 922.554L701.026 965.054L617.104 962.288L559.55 941.329L508.09 917.571Z" fill="black"/>
<path opacity="0.196343" d="M372.81 852.765L420.352 820.228L461.681 879.479L372.81 852.765Z" fill="black"/>
</g>
</svg>
