<svg width="1094" height="1154" viewBox="0 0 1094 1154" fill="none" xmlns="http://www.w3.org/2000/svg">
<mask id="mask0_311_10828" style="mask-type:luminance" maskUnits="userSpaceOnUse" x="0" y="0" width="1094" height="1154">
<path d="M1093.82 0H0V1154H1093.82V0Z" fill="white"/>
</mask>
<g mask="url(#mask0_311_10828)">
<path d="M235.76 916.082C235.76 887.359 377.988 864.074 553.436 864.074C728.884 864.074 871.112 887.359 871.112 916.082C871.112 944.805 728.884 968.089 553.436 968.089C377.988 968.089 235.76 944.805 235.76 916.082Z" fill="black" fill-opacity="0.7"/>
<path d="M253.057 614.327C253.057 614.327 225.866 593.945 207.31 616.828C188.753 639.713 180.357 697.65 270.459 729.447" fill="#F3886D"/>
<path d="M253.057 614.327C253.057 614.327 225.866 593.945 207.31 616.828C188.753 639.713 180.357 697.65 270.459 729.447" stroke="black" stroke-width="0.0122978" stroke-miterlimit="10" stroke-linejoin="round"/>
<path d="M196.735 639.389C190.658 666.842 202.719 705.537 270.473 729.447L261.633 671.084C234.538 650.65 207.377 642.178 196.735 639.389Z" fill="#F9B192"/>
<path d="M253.057 614.327C253.057 614.327 225.866 593.945 207.31 616.828C188.753 639.713 180.357 697.65 270.459 729.447" stroke="black" stroke-width="0.0122978" stroke-miterlimit="10" stroke-linejoin="round"/>
<path d="M227.129 598.884C224.692 599.021 222.243 599.426 219.827 600.096C213.019 601.985 206.913 606.049 201.791 612.366C189.448 627.588 184.482 650.471 191.384 671.971C199.951 698.658 225.211 720.991 268.108 736.129L272.809 722.765C233.789 708.995 211.97 689.662 204.895 667.625C199.507 650.84 203.402 632.908 212.819 621.295C216.104 617.245 219.711 614.846 223.641 613.755C229.464 612.139 236.135 613.385 242.829 616.564C244.489 617.353 245.99 618.18 247.323 619.019C248.086 619.498 248.602 619.845 248.802 619.994L257.317 608.641C256.818 608.267 256 607.711 254.892 607.014C253.107 605.893 251.109 604.773 248.92 603.732C241.799 600.351 234.442 598.475 227.129 598.884Z" fill="black"/>
<path d="M250.071 662.082L224.076 649.392" stroke="black" stroke-width="0.0122978" stroke-miterlimit="10" stroke-linecap="round" stroke-linejoin="round"/>
<path d="M224.469 642.317C221.707 642.167 218.987 643.636 217.698 646.278C215.979 649.799 217.429 654.049 220.95 655.768L246.968 668.453C250.489 670.172 254.739 668.722 256.458 665.2C258.179 661.679 256.699 657.429 253.177 655.71L227.189 643.026C226.308 642.596 225.389 642.366 224.469 642.317Z" fill="black"/>
<path d="M636.175 158.38L633.898 192.913C626.778 191.808 619.709 190.879 612.7 190.104L624.437 240.662C658.198 244.088 693.098 250.638 728.746 261.418C728.746 261.418 730.639 261.492 730.845 261.506C722.303 234.848 713.279 207.677 703.733 180.052C680.603 170.942 658.103 163.852 636.175 158.38Z" fill="#B7F2CC"/>
<path d="M533.876 144.366C519.302 144.031 505.06 144.427 491.183 145.49L487.782 191.79C479.731 192.874 471.832 194.132 464.042 195.515L472.202 245.305C518.708 237.901 570.062 235.145 624.437 240.662L612.699 190.105C606.445 189.413 600.236 188.844 594.072 188.389L578.609 147.648C563.356 145.769 548.45 144.702 533.876 144.366Z" fill="#93E9CA"/>
<path d="M298.118 206.78C272.578 221.488 249.51 237.479 229.317 253.465C229.317 253.465 230.766 284.704 233.16 332.405C233.16 332.405 273.783 306.254 338.8 281.375C338.314 275.991 334.927 239.036 334.927 239.036L334.483 235.074C325.804 238.846 317.428 242.65 309.707 246.428L298.118 206.78Z" fill="#DFFFEA"/>
<path d="M693.355 252.134C696.62 260.781 705.845 295.417 717.984 343.079C729.976 344.907 742.011 346.949 754.143 349.495L758.075 350.441C749.589 321.591 740.68 292.198 730.993 261.95L728.746 261.418C716.859 257.823 705.065 254.843 693.355 252.134Z" fill="#93E9CA"/>
<path d="M576.806 237.765C570.171 237.653 563.603 237.683 557.085 237.795L555.844 239.834C558.445 247.902 566.46 285.76 576.658 335.924C621.632 333.826 669.15 335.636 717.984 343.079C705.845 295.417 696.62 260.781 693.356 252.134C653.15 242.831 614.071 238.395 576.806 237.765Z" fill="#DFFFEA"/>
<path d="M551.202 237.972C498.116 239.42 449.236 247.933 406.506 259.348C409.914 286.271 412.9 310.051 419.19 358.838C465.805 347.575 519.091 338.609 576.659 335.924C566.46 285.759 558.445 247.902 555.844 239.834L551.202 237.972Z" fill="#93E9CA"/>
<path d="M423.98 155.956C399.083 161.897 375.77 169.989 353.731 179.254L351.543 227.889C345.393 230.349 339.566 232.857 333.803 235.37L334.882 238.888C334.906 238.97 334.934 239.105 334.941 239.19L338.8 281.375C375.837 267.202 420.883 253.473 472.202 245.304L464.042 195.515C455.495 197.033 447.087 198.705 438.91 200.57L423.98 155.956Z" fill="#B7F2CC"/>
<path d="M406.506 259.348C347.226 275.185 300.211 296.384 270.266 311.946C271.877 344.444 273.467 376.663 275.086 406.704C306.983 392.873 356.978 373.868 419.19 358.838C412.9 310.051 409.914 286.271 406.506 259.348Z" fill="#82D4D5"/>
<path d="M270.266 311.946C256.989 318.846 246.689 324.718 240.729 328.355C239.948 328.832 235.578 332.037 233.25 333.677C234.471 357.981 236.393 393.283 238.04 424.474C238.602 424.112 240.071 423.048 240.345 422.907C246.073 419.963 258.162 414.043 275.086 406.705C273.467 376.663 271.877 344.444 270.266 311.946Z" fill="#93E9CA"/>
<path d="M347.758 379.149C291.071 397.843 252.343 416.742 240.345 422.907C240.071 423.048 238.602 424.112 238.04 424.474C239.869 459.145 241.468 489.65 243.657 528.161C269.236 518.883 307.119 506.163 358.136 492.446C353.032 437.129 351.377 418.91 347.758 379.149Z" fill="#B7F2CC"/>
<path d="M488.552 344.912C434.778 353.373 386.996 366.21 347.758 379.149C351.377 418.91 353.032 437.129 358.136 492.446C400.969 480.93 451.477 469.404 507.445 459.954L488.552 344.912Z" fill="#DFFFEA"/>
<path d="M615.212 335.067C570.577 334.866 527.99 338.707 488.552 344.912L507.445 459.954C558.156 451.39 613.049 444.573 671.122 441.416L646.611 335.954C636.058 335.451 625.56 335.113 615.212 335.067Z" fill="#B7F2CC"/>
<path d="M646.611 335.953L671.122 441.415C707.505 439.437 745.002 438.845 783.236 440.114C775.425 411.054 767.147 381.287 758.075 350.441L754.143 349.495C717.566 341.821 681.582 337.619 646.611 335.953Z" fill="#93E9CA"/>
<path d="M748.85 439.405C745.596 439.388 742.394 439.456 739.153 439.464L769.192 568.579C784.153 566.499 799.031 564.425 814.221 562.37C805.131 523.935 794.752 482.962 783.236 440.115C771.717 439.732 760.227 439.466 748.85 439.405Z" fill="#B7F2CC"/>
<path d="M739.153 439.463C690.59 439.582 643.512 442.448 598.745 447.21C609.034 499.361 616.106 534.949 626.595 589.067C672.161 582.26 720 575.415 769.192 568.578L739.153 439.463Z" fill="#82D4D5"/>
<path d="M598.744 447.21C539.027 453.563 483.476 463.2 434.091 473.938C441.724 532.889 445.013 558.354 452.511 616.091C504.902 607.66 562.988 598.571 626.595 589.067C616.106 534.949 609.033 499.361 598.744 447.21Z" fill="#B7F2CC"/>
<path d="M434.091 473.938C371.919 487.457 319.68 502.645 281.206 515.183C284.023 562.874 286.672 604.606 289.217 643.232C329.03 636.368 383.774 627.154 452.511 616.091C445.013 558.354 441.724 532.889 434.091 473.938Z" fill="#82D4D5"/>
<path d="M281.206 515.183C265.473 520.309 254.466 524.241 243.657 528.161C245.997 569.347 248.474 610.067 251.018 649.826C261.645 647.945 269.364 646.656 289.218 643.232C286.672 604.606 284.024 562.874 281.206 515.183Z" fill="#93E9CA"/>
<path d="M370.997 629.455C312.047 639.279 273.143 645.909 251.018 649.826C253.46 687.966 255.914 722.848 258.351 754.253C284.241 758.63 327.91 764.263 383.977 765.34C380.178 726.975 375.494 676.997 370.997 629.455Z" fill="#93E9CA"/>
<path d="M531.038 603.644C468.06 613.457 417.721 621.698 370.998 629.484C375.493 677.016 380.179 726.983 383.977 765.34C433.369 766.289 491.806 763.655 555.548 753.041L531.038 603.644Z" fill="#C3C4E1"/>
<path d="M702.846 577.862C641.847 586.645 584.401 595.328 531.038 603.644L555.548 753.04C611.486 743.725 671.3 728.19 732.146 703.872L702.846 577.862Z" fill="#93E9CA"/>
<path d="M814.221 562.37C776.313 567.5 739.099 572.642 702.846 577.863L732.146 703.872C766.238 690.247 800.63 673.903 834.858 654.172C828.667 625.277 821.896 594.826 814.221 562.37Z" fill="#DFFFEA"/>
<path d="M834.858 654.172C821.312 661.981 807.748 669.216 794.175 676.021L814.576 763.743C826.651 752.919 838.582 741.222 850.321 728.589C845.748 705.612 840.473 680.373 834.858 654.172Z" fill="#93E9CA"/>
<path d="M794.175 676.021C746.934 699.707 699.749 717.536 653.885 730.747C661.389 769.911 676.917 850.378 677.005 850.845C723.38 831.696 769.974 803.724 814.576 763.743L794.175 676.021Z" fill="#B7F2CC"/>
<path d="M653.855 730.748C589.158 749.382 527.208 758.956 471.581 763.034C476.268 799.053 487.34 884.195 487.34 884.195L489.469 887.241C547.479 887.057 612.01 877.681 677.005 850.845C676.917 850.379 661.36 769.915 653.855 730.748Z" fill="#82D4D5"/>
<path d="M297.378 759.664C301.656 817.535 304.868 857.606 304.917 858.177C344.223 870.883 410.537 887.49 489.469 887.241L487.34 884.195C487.34 884.195 476.267 799.053 471.58 763.034C400.23 768.266 339.891 764.567 297.378 759.664Z" fill="#B7F2CC"/>
<path d="M258.351 754.252C261.241 791.496 264.065 824.495 266.659 844.104C266.659 844.104 280.928 850.423 304.917 858.177C304.868 857.606 301.656 817.535 297.378 759.663C281.72 757.857 268.646 755.993 258.351 754.252Z" fill="#DFFFEA"/>
<path d="M634.755 151.433C631.746 152.052 629.327 154.596 629.108 157.908L627.334 184.872C622.73 184.232 618.133 183.554 613.468 183.038C608.605 182.501 604.675 186.935 605.781 191.701L617.518 242.259C618.205 245.215 620.709 247.422 623.728 247.729C658.607 251.268 692.897 257.994 726.706 268.218C727.282 268.393 727.877 268.49 728.48 268.514C728.544 268.517 730.392 268.574 730.372 268.573C735.375 268.917 739.146 264.124 737.616 259.348C728.867 232.044 719.813 204.857 710.444 177.746C709.767 175.786 708.264 174.219 706.334 173.459C683.557 164.488 660.799 157.208 637.89 151.491C636.816 151.224 635.759 151.225 634.755 151.433ZM642.679 167.457C661.198 172.396 679.635 178.351 698.086 185.493C705.666 207.492 713.003 229.564 720.171 251.691C690.567 243.382 660.616 237.6 630.232 234.247L621.924 198.502C625.554 198.978 629.212 199.364 632.805 199.921C636.92 200.559 640.69 197.543 640.965 193.387L642.679 167.457Z" fill="#626262"/>
<path d="M534.054 137.27C519.411 136.933 504.929 137.331 490.651 138.423C487.151 138.691 484.374 141.457 484.116 144.957L481.13 185.64C475.099 186.518 469.079 187.423 462.799 188.538C458.977 189.216 456.407 192.837 457.034 196.668L465.194 246.457C465.826 250.312 469.468 252.926 473.325 252.312C522.866 244.426 573.213 242.603 623.727 247.729C628.568 248.22 632.455 243.806 631.355 239.066L619.617 188.508C618.936 185.575 616.461 183.369 613.468 183.038C608.688 182.51 603.916 182.133 599.128 181.737L585.232 145.135C584.298 142.673 582.08 140.934 579.467 140.611C564.174 138.727 549.058 137.616 534.054 137.27ZM533.699 151.462C546.855 151.765 560.161 152.748 573.554 154.271L587.45 190.903C588.428 193.481 590.79 195.254 593.541 195.456C598.005 195.785 602.478 196.25 606.934 196.698L615.331 232.769C569.234 228.889 523.335 230.609 478.085 237.292L472.202 201.399C477.763 200.477 483.34 199.552 488.729 198.827C492.055 198.379 494.603 195.67 494.849 192.322L497.806 152.26C509.649 151.528 521.594 151.184 533.699 151.462Z" fill="#626262"/>
<path d="M424.984 148.919C424.123 148.796 423.218 148.853 422.324 149.067C398.428 154.77 374.957 162.642 350.981 172.72C348.454 173.781 346.758 176.19 346.635 178.928L344.654 223.1C340.519 224.799 336.616 226.402 330.965 228.866C327.658 230.307 325.976 233.991 327.033 237.439L327.92 240.337L331.734 282.025C332.162 286.708 336.951 289.678 341.343 287.998C383.531 271.853 427.349 259.63 473.325 252.311C477.208 251.694 479.845 248.031 479.209 244.151L471.049 194.362C470.409 190.458 466.695 187.846 462.8 188.538C456.063 189.734 449.874 191.053 443.67 192.381C440.558 183.082 431.125 154.918 430.721 153.709C429.846 151.095 427.57 149.29 424.984 148.919ZM419.338 164.5C422.556 174.115 431.769 201.621 432.169 202.818C433.327 206.277 436.921 208.301 440.477 207.489C446.056 206.216 452.162 205.065 458.217 203.912L464.071 239.51C422.779 246.553 383.257 257.578 345.038 271.647L342.081 239.568C346.293 237.763 350.545 235.934 354.175 234.483C356.76 233.449 358.513 230.998 358.638 228.215L360.62 184.132C380.352 176.034 399.761 169.512 419.338 164.5Z" fill="#626262"/>
<path d="M297.703 199.684C296.647 199.746 295.565 200.057 294.57 200.63C269.912 214.83 246.529 230.793 224.912 247.906C223.121 249.324 222.116 251.508 222.221 253.789C222.224 253.852 225.016 311.885 226.065 332.76C226.339 338.21 232.416 341.332 237.004 338.378C237.058 338.343 238.127 337.666 238.601 337.372C239.971 336.526 241.596 335.53 243.48 334.416C248.889 331.217 255.244 327.653 262.461 323.801C283.125 312.775 306.623 301.729 332.532 291.427C335.45 290.267 338.389 289.127 341.343 287.998C344.309 286.862 346.152 283.887 345.866 280.724C345.668 278.525 341.993 238.238 341.993 238.238L341.55 234.276C341.019 229.532 336.023 226.667 331.645 228.57C325.134 231.4 319.751 233.948 314.201 236.553C311.229 226.383 305.208 205.791 304.917 204.799C303.95 201.49 300.873 199.497 297.703 199.684ZM293.889 217.601C296.998 228.237 302.626 247.446 302.907 248.409C304.141 252.632 308.859 254.749 312.812 252.814C317.396 250.571 323.04 248.073 328.393 245.659C329.06 252.944 330.563 269.058 331.261 276.703C329.938 277.221 328.614 277.717 327.298 278.241C300.877 288.747 276.892 300.029 255.779 311.296C249.677 314.552 244.568 317.456 239.695 320.284C238.515 296.305 236.794 261.078 236.59 256.835C254.56 242.797 273.774 229.631 293.889 217.601Z" fill="#626262"/>
<path d="M576.924 230.669C570.597 230.562 564.068 230.576 556.967 230.698C554.534 230.74 552.289 232.02 551.024 234.099L549.783 236.139C548.71 237.9 548.47 240.059 549.103 242.022C551.377 249.078 558.501 282.198 569.71 337.343C570.407 340.772 573.489 343.183 576.984 343.02C623.869 340.832 670.687 343.039 716.919 350.086C721.942 350.852 726.127 346.258 724.872 341.335C711.666 289.478 703.221 258.13 700.008 249.621C699.17 247.402 697.262 245.75 694.952 245.216C655.552 236.098 616.062 231.33 576.924 230.669ZM576.688 244.861C613.546 245.484 650.731 249.941 687.856 258.254C691.091 268.136 698.32 295.165 708.463 334.741C666.723 329.036 624.603 327.048 582.394 328.681C573.723 286.16 567.676 257.723 564.477 244.89C568.595 244.866 572.83 244.796 576.688 244.861Z" fill="#626262"/>
<path d="M692.941 245.038C688.365 245.286 684.95 250.007 686.702 254.647C689.629 262.397 698.116 293.864 711.095 344.823C711.798 347.585 714.103 349.657 716.919 350.086C730.297 352.125 741.719 354.14 752.693 356.442L756.419 357.33C761.726 358.606 766.415 353.666 764.875 348.431C755.528 316.649 746.778 287.94 737.763 259.791C737.004 257.423 735.039 255.605 732.619 255.031L730.372 254.499C719.453 251.209 708.147 248.269 694.951 245.216C694.261 245.056 693.595 245.003 692.941 245.038ZM703.881 262.009C711.426 263.896 718.628 265.808 725.405 267.833C732.853 291.185 740.209 315.335 747.845 341.068C740.288 339.6 732.329 338.201 723.689 336.841C714.805 302.049 708.049 276.379 703.881 262.009Z" fill="#626262"/>
<path d="M576.924 230.669C570.597 230.562 564.068 230.576 556.967 230.698C554.534 230.74 552.289 232.02 551.024 234.099L549.783 236.139C548.71 237.9 548.47 240.059 549.103 242.022C551.377 249.078 558.501 282.198 569.71 337.343C570.407 340.772 573.489 343.183 576.984 343.02C623.869 340.832 670.687 343.039 716.919 350.086C721.942 350.852 726.127 346.258 724.872 341.335C711.666 289.478 703.221 258.13 700.008 249.621C699.17 247.402 697.262 245.75 694.952 245.216C655.552 236.098 616.062 231.33 576.924 230.669ZM576.688 244.861C613.546 245.484 650.731 249.941 687.856 258.254C691.091 268.136 698.32 295.165 708.463 334.741C666.723 329.036 624.603 327.048 582.394 328.681C573.723 286.16 567.676 257.723 564.477 244.89C568.595 244.866 572.83 244.796 576.688 244.861Z" fill="#626262"/>
<path d="M550.995 230.876C501.131 232.236 452.203 239.791 404.673 252.488C401.244 253.405 399.024 256.714 399.47 260.235C399.805 262.883 407.559 324.125 412.153 359.754C412.693 363.943 416.74 366.718 420.845 365.726C472.053 353.355 524.218 345.482 576.984 343.02C581.331 342.816 584.473 338.77 583.607 334.505C572.173 278.259 565.114 245.491 562.585 237.647C561.938 235.639 560.432 234.027 558.475 233.242C557.895 233.009 554.413 231.611 553.833 231.379C552.933 231.017 551.965 230.85 550.995 230.876ZM549.842 245.127C552.308 253.797 558.559 282.833 568.054 329.33C519.815 332.092 472.148 339.359 425.251 350.263C420.935 316.663 415.395 273.013 414.341 264.7C458.457 253.353 503.758 246.507 549.842 245.127Z" fill="#626262"/>
<path d="M424.984 148.919C424.123 148.796 423.218 148.853 422.324 149.067C398.428 154.77 374.957 162.642 350.981 172.72C348.454 173.781 346.758 176.19 346.635 178.928L344.654 223.1C340.519 224.799 336.616 226.402 330.965 228.866C327.658 230.307 325.976 233.991 327.033 237.439L327.92 240.337L331.734 282.025C332.162 286.708 336.951 289.678 341.343 287.998C383.531 271.853 427.349 259.63 473.325 252.311C477.208 251.694 479.845 248.031 479.209 244.151L471.049 194.362C470.409 190.458 466.695 187.846 462.8 188.538C456.063 189.734 449.874 191.053 443.67 192.381C440.558 183.082 431.125 154.918 430.721 153.709C429.846 151.095 427.57 149.29 424.984 148.919ZM419.338 164.5C422.556 174.115 431.769 201.621 432.169 202.818C433.327 206.277 436.921 208.301 440.477 207.489C446.056 206.216 452.162 205.065 458.217 203.912L464.071 239.51C422.779 246.553 383.257 257.578 345.038 271.647L342.081 239.568C346.293 237.763 350.545 235.934 354.175 234.483C356.76 233.449 358.513 230.998 358.638 228.215L360.62 184.132C380.352 176.034 399.761 169.512 419.338 164.5Z" fill="#626262"/>
<path d="M407.748 252.37C406.763 252.196 405.711 252.211 404.673 252.488C353.221 266.234 307.052 284.826 266.984 305.649C264.522 306.928 263.033 309.529 263.17 312.301C264.535 339.833 267.138 391.291 267.99 407.09C268.255 412.026 273.358 415.176 277.894 413.209C319.427 395.2 367.701 378.566 420.845 365.727C424.365 364.876 426.689 361.512 426.227 357.921C421.634 322.306 413.878 261.11 413.543 258.461C413.138 255.262 410.7 252.892 407.748 252.37ZM400.504 268.425C401.774 278.452 407.123 320.647 411.355 353.575C363.686 365.44 320.111 380.254 281.679 396.357C280.676 377.234 278.849 341.409 277.598 316.263C313.8 297.773 354.934 281.181 400.504 268.425Z" fill="#626262"/>
<path d="M270.503 304.85C269.337 304.809 268.132 305.053 266.984 305.649C254.971 311.892 244.229 317.903 237.034 322.295C236.374 322.698 235.816 323.108 232.185 325.724C232.177 325.73 229.86 327.396 229.17 327.882C227.179 329.285 226.032 331.601 226.154 334.032C226.87 348.283 230.553 417.465 230.944 424.859C231.23 430.3 237.302 433.396 241.883 430.446C242.194 430.247 242.448 430.052 243.154 429.56C243.154 429.559 243.607 429.243 243.835 429.087C251.943 424.928 263.922 419.268 277.895 413.209C280.616 412.029 282.341 409.283 282.181 406.321C281.331 390.543 278.727 339.121 277.362 311.591C277.17 307.719 274.001 304.977 270.503 304.85ZM263.732 323.507C265.075 350.384 266.904 386.218 267.753 402.241C258.819 406.183 251.115 409.762 244.544 412.973C243.623 395.623 241.35 352.76 240.552 337.166C242.364 335.868 244.34 334.468 244.426 334.416C249.259 331.466 256.187 327.589 263.732 323.507Z" fill="#626262"/>
<path d="M348.764 372.113C347.722 371.963 346.625 372.05 345.541 372.408C300.072 387.402 262.874 403.361 237.093 416.609C236.648 416.838 236.417 416.983 235.88 417.348C235.667 417.495 234.29 418.441 234.195 418.502C232.055 419.88 230.809 422.316 230.944 424.858C231.019 426.29 235.266 505.782 236.561 528.576C236.83 533.321 241.614 536.465 246.081 534.844C279.014 522.897 316.054 511.114 359.97 499.305C363.305 498.408 365.519 495.235 365.203 491.796C362.153 458.753 357.039 402.835 354.825 378.499C354.514 375.088 351.889 372.56 348.764 372.113ZM341.52 388.847C343.818 414.055 347.716 456.585 350.538 487.213C312.621 497.551 279.789 507.89 250.25 518.346C248.712 490.608 245.724 434.958 245.372 428.347C268.767 416.445 301.704 402.403 341.52 388.847Z" fill="#626262"/>
<path d="M487.458 337.905C438.211 345.654 390.802 357.483 345.541 372.408C342.406 373.442 340.393 376.512 340.693 379.8C342.907 404.14 348.02 460.049 351.07 493.097C351.474 497.478 355.72 500.448 359.97 499.305C406.69 486.743 456.762 475.719 508.627 466.961C512.479 466.31 515.085 462.655 514.452 458.8C514.304 457.902 495.706 344.658 495.559 343.759C494.927 339.91 491.311 337.299 487.458 337.905ZM482.697 353.161C484.703 365.371 497.359 442.318 499.314 454.217C452.44 462.341 407.147 472.282 364.433 483.517C361.521 451.889 357.544 408.241 355.357 384.234C396.147 371.056 438.671 360.465 482.697 353.161Z" fill="#626262"/>
<path d="M615.242 327.971C572.538 327.779 529.856 331.234 487.458 337.905C483.568 338.517 480.906 342.18 481.545 346.065L500.437 461.106C501.074 464.986 504.75 467.615 508.627 466.96C563.337 457.722 617.357 451.455 671.506 448.511C675.91 448.272 679.038 444.115 678.04 439.818L653.53 334.357C652.811 331.265 650.108 329.009 646.936 328.857C635.449 328.311 625.076 328.014 615.242 327.971ZM615.183 342.163C623.142 342.198 631.886 342.525 640.934 342.902L662.311 434.911C612.758 437.917 563.277 443.636 513.298 451.852L496.741 350.943C536.078 345.098 575.638 341.985 615.183 342.163Z" fill="#626262"/>
<path d="M646.936 328.857C642.234 328.633 638.627 332.965 639.693 337.55L664.203 443.011C664.982 446.367 668.066 448.699 671.506 448.511C709.103 446.467 746.264 445.99 782.999 447.21C787.762 447.368 791.332 442.884 790.095 438.281C781.598 406.67 773.383 377.359 764.875 348.431C764.158 345.994 762.199 344.146 759.731 343.552L755.591 342.547C720.069 335.094 683.899 330.618 646.936 328.857ZM655.688 343.67C688.536 345.663 720.753 349.76 752.398 356.384C759.624 381.059 766.666 406.244 773.863 432.811C741.789 432.001 709.408 432.418 676.709 434.054L655.688 343.67Z" fill="#626262"/>
<path d="M748.88 432.309C747.276 432.301 743.164 432.338 743.085 432.339C741.101 432.36 740.217 432.366 739.124 432.368C734.563 432.379 731.201 436.618 732.234 441.061L762.273 570.176C763.106 573.75 766.533 576.121 770.167 575.616C771.237 575.467 804.851 570.803 815.167 569.407C819.322 568.845 822.104 564.824 821.139 560.744C812.003 522.11 801.593 481.058 790.095 438.281C789.285 435.266 786.593 433.122 783.473 433.019C770.961 432.604 759.633 432.366 748.88 432.309ZM748.081 446.501C748.256 446.501 748.705 446.5 748.821 446.501C757.798 446.548 767.556 446.79 777.736 447.092C787.916 485.136 797.148 521.697 805.439 556.427C793.985 557.999 780.931 559.782 774.632 560.655L748.081 446.501Z" fill="#626262"/>
<path d="M739.124 432.368C692.167 432.482 645.034 435.142 598.005 440.144C593.861 440.585 590.989 444.482 591.796 448.57C592.088 450.05 614.663 564.863 619.618 590.428C620.34 594.158 623.872 596.636 627.63 596.075C671.336 589.545 718.637 582.777 770.168 575.616C774.3 575.041 777.056 571.046 776.11 566.982C775.875 565.973 746.306 438.876 746.071 437.867C745.323 434.648 742.429 432.36 739.124 432.368ZM733.535 446.648C735.929 456.935 757.422 549.277 760.53 562.636C714.567 569.044 671.916 575.185 632.272 581.085C626.411 550.99 609.531 465.375 607.2 453.537C649.308 449.291 691.511 446.935 733.535 446.648Z" fill="#626262"/>
<path d="M598.004 440.144C541.965 446.105 486.639 455.236 432.584 466.99C428.983 467.773 426.581 471.201 427.054 474.855C428.34 484.783 442.059 590.714 445.474 617.008C445.99 620.978 449.682 623.735 453.635 623.098C510.958 613.873 568.417 604.921 627.63 596.075C631.625 595.478 634.342 591.673 633.573 587.708C628.615 562.128 605.983 447.326 605.692 445.85C604.981 442.245 601.659 439.755 598.004 440.144ZM593.068 455.045C595.095 465.345 612.189 552.338 618.198 583.185C564.023 591.305 511.188 599.492 458.602 607.931C454.623 577.276 444.139 496.216 441.985 479.585C491.458 469.037 541.945 460.712 593.068 455.045Z" fill="#626262"/>
<path d="M432.584 466.99C377.246 479.022 325.755 493.211 279.017 508.442C275.949 509.441 273.92 512.375 274.11 515.596C276.709 559.589 279.315 600.69 282.152 643.705C282.429 647.91 286.279 650.955 290.43 650.24C337.826 642.068 392.369 632.959 453.635 623.098C457.42 622.489 460.042 618.978 459.548 615.174C456.133 588.882 442.414 482.95 441.128 473.021C440.594 468.898 436.646 466.106 432.584 466.99ZM428.059 482.63C430.373 500.494 440.684 580.131 444.587 610.207C389.264 619.134 339.622 627.394 295.782 634.925C293.271 596.624 290.981 559.449 288.656 520.298C331.406 506.543 378.121 493.739 428.059 482.63Z" fill="#626262"/>
<path d="M282.27 508.175C281.214 508.012 280.123 508.081 279.018 508.442C265.39 512.882 255.498 516.305 241.233 521.48C238.287 522.549 236.383 525.446 236.561 528.576C238.833 568.558 241.291 609.157 243.922 650.27C244.193 654.492 248.094 657.541 252.261 656.803C254.253 656.451 283.827 651.378 290.43 650.24C294.009 649.622 296.523 646.383 296.284 642.759C293.45 599.776 290.899 558.727 288.302 514.769C288.095 511.288 285.438 508.665 282.27 508.175ZM274.701 524.939C276.98 563.181 279.272 599.743 281.738 637.319C273.68 638.709 264.719 640.264 257.641 641.489C255.318 604.94 253.116 568.746 251.078 533.099C259.369 530.118 267.001 527.515 274.701 524.939Z" fill="#626262"/>
<path d="M369.844 622.448C313.685 631.807 273.235 638.695 249.777 642.848C246.219 643.478 243.691 646.663 243.922 650.27C246.347 688.145 248.826 723.126 251.285 754.815C251.537 758.061 253.958 760.718 257.168 761.26C292.786 767.281 335.696 771.511 383.829 772.436C388.077 772.518 391.462 768.86 391.043 764.631C388.427 738.213 386.022 712.948 380.429 653.729C380.425 653.696 378.711 635.623 378.064 628.775C377.676 624.676 373.905 621.771 369.844 622.448ZM364.67 637.734C366.096 652.787 373.128 727.065 376.141 757.948C334.378 756.805 296.863 753.158 265.033 748.045C262.862 719.747 260.704 688.886 258.558 655.739C280.845 651.82 316.744 645.735 364.67 637.734Z" fill="#626262"/>
<path d="M529.944 596.637C473.893 605.371 425.829 613.148 369.844 622.478C366.17 623.09 363.58 626.457 363.931 630.165C364.572 636.93 374.291 739.592 376.911 766.05C377.265 769.628 380.233 772.367 383.829 772.436C440.53 773.526 498.217 769.787 556.701 760.048C560.56 759.405 563.189 755.749 562.556 751.888C562.364 750.72 538.237 603.659 538.045 602.491C537.415 598.646 533.794 596.037 529.944 596.637ZM525.184 611.774C527.288 624.605 545.261 734.159 547.388 747.128C494.354 755.528 441.995 758.875 390.422 758.215C387.963 733.272 385.616 708.915 380.429 653.995C380.418 653.881 379.435 643.363 378.685 635.427C429.341 627.003 474.512 619.694 525.184 611.774Z" fill="#626262"/>
<path d="M701.84 570.825C644.523 579.078 587.621 587.649 529.944 596.636C526.05 597.244 523.393 600.908 524.031 604.797L548.541 754.194C549.176 758.067 552.828 760.693 556.701 760.048C617.025 750.003 676.76 733.653 734.777 710.466C738.032 709.165 739.858 705.69 739.064 702.276C738.835 701.291 709.993 577.251 709.764 576.266C708.929 572.677 705.487 570.3 701.84 570.825ZM697.406 585.845C700.094 597.407 721.291 688.515 723.837 699.467C670.827 720.201 616.396 735.142 561.402 744.762L539.198 609.557C592.231 601.317 644.678 593.462 697.406 585.845Z" fill="#626262"/>
<path d="M813.275 555.333C771.718 560.957 735.606 565.963 701.84 570.825C697.725 571.418 694.986 575.409 695.927 579.459L725.227 705.469C726.212 709.702 730.741 712.079 734.777 710.466C770.54 696.172 805.06 679.546 838.406 660.322C841.075 658.784 842.451 655.706 841.806 652.693C834.985 620.865 828.279 590.934 821.139 560.744C820.299 557.191 816.893 554.844 813.275 555.333ZM808.751 570.294C814.93 596.607 820.843 622.935 826.786 650.535C797.829 666.97 767.961 681.411 737.142 694.086L711.508 583.835C741.263 579.572 773.02 575.142 808.751 570.294Z" fill="#626262"/>
<path d="M834.563 647.076C833.463 647.12 832.353 647.422 831.31 648.022C818.351 655.493 804.973 662.649 790.982 669.665C788.051 671.134 786.514 674.424 787.257 677.618L807.657 765.34C808.88 770.595 815.289 772.638 819.307 769.036C831.703 757.925 843.787 746.04 855.525 733.409C857.075 731.74 857.714 729.434 857.269 727.2C852.948 705.484 847.838 680.842 841.806 652.693C841.049 649.163 837.861 646.946 834.563 647.076ZM829.861 665.082C834.635 687.505 838.99 708.269 842.605 726.342C834.789 734.645 826.792 742.503 818.685 750.113L802.335 679.806C811.759 675.005 820.906 670.089 829.861 665.082Z" fill="#626262"/>
<path d="M794.146 668.926C793.088 668.928 792.008 669.15 790.982 669.665C746.029 692.204 699.572 710.195 651.933 723.918C648.408 724.934 646.217 728.475 646.907 732.079C649.244 744.273 670.19 853.027 670.027 852.175C670.869 856.591 675.571 859.124 679.725 857.408C729.528 836.845 776.202 807.674 819.307 769.036C821.234 767.308 822.081 764.668 821.494 762.147C821.335 761.462 801.253 675.11 801.094 674.425C800.313 671.071 797.317 668.92 794.146 668.926ZM789.268 686.192C792.408 699.696 805.003 753.956 806.682 761.172C768.001 795.282 726.427 821.586 682.297 840.793C679.936 828.535 665.682 754.558 662.045 735.627C705.5 722.746 748 706.316 789.268 686.192Z" fill="#626262"/>
<path d="M654.86 723.712C653.896 723.572 652.906 723.629 651.903 723.919C592.174 741.122 531.528 751.534 471.049 755.968C466.984 756.266 464.018 759.909 464.544 763.951C466.101 775.92 480.163 884.042 480.303 885.112C480.45 886.245 480.861 887.339 481.515 888.275L483.643 891.321C484.975 893.226 487.172 894.345 489.498 894.337C554.954 894.13 618.896 882.525 679.725 857.408C682.837 856.124 684.613 852.822 683.982 849.515C684.165 850.47 663.169 741.608 660.833 729.418C660.243 726.344 657.752 724.131 654.86 723.712ZM648.326 739.618C652.345 760.52 667.326 838.181 668.904 846.351C612.876 868.665 554.143 879.337 493.963 880.027C493.171 873.942 482.282 790.376 479.564 769.48C535.997 764.892 592.5 755.157 648.326 739.618Z" fill="#626262"/>
<path d="M298.205 752.626C293.782 752.116 289.984 755.755 290.312 760.195C292.189 785.586 297.753 857.664 297.851 858.798C298.097 861.642 300.013 864.04 302.73 864.918C326.713 872.671 352.909 879.427 381.05 884.55C416.335 890.974 452.635 894.453 489.498 894.337C495.226 894.319 498.575 887.856 495.293 883.16L494.139 881.534C493.742 878.475 480.152 773.912 478.617 762.118C478.132 758.384 474.803 755.693 471.049 755.968C409.25 760.499 351.325 758.753 298.205 752.626ZM305.095 767.587C354.769 772.835 408.446 774.293 465.401 770.515C467.975 790.294 478.577 871.924 479.622 879.967C419.22 879.113 362.458 868.787 311.629 852.796C311.109 846.167 307.209 795.735 305.095 767.587Z" fill="#626262"/>
<path d="M259.533 747.246C254.982 746.477 250.927 750.212 251.285 754.815C254.679 798.554 257.269 827.231 259.622 845.021C259.947 847.471 261.53 849.578 263.791 850.579C264.285 850.797 265.207 851.206 266.541 851.762C268.734 852.676 271.301 853.699 274.228 854.837C282.559 858.071 292.1 861.482 302.73 864.918C307.559 866.48 312.42 862.613 311.984 857.557C311.891 856.481 306.32 784.505 304.444 759.131C304.193 755.734 301.589 753.017 298.205 752.626C283.463 750.926 270.358 749.076 259.533 747.246ZM266.156 762.62C273.651 763.767 281.804 764.875 290.755 765.961C292.647 791.251 296.027 835.045 297.023 847.859C290.936 845.754 284.516 843.618 279.372 841.62C277.048 840.718 275.112 839.918 273.282 839.166C271.267 823.042 268.952 797.957 266.156 762.62Z" fill="#626262"/>
<mask id="mask1_311_10828" style="mask-type:luminance" maskUnits="userSpaceOnUse" x="181" y="130" width="688" height="772">
<path d="M868.283 130.059H181.179V901.484H868.283V130.059Z" fill="white"/>
<path d="M533.876 144.366C519.302 144.031 505.06 144.427 491.183 145.49L487.782 191.79C470.898 194.063 454.539 197.005 438.91 200.57L423.98 155.956C399.083 161.897 375.77 169.989 353.731 179.254L351.542 227.889C336.39 233.95 322.368 240.232 309.707 246.428L298.117 206.78C272.578 221.488 249.51 237.479 229.317 253.465C229.317 253.465 238.218 442.986 248.535 611.537C240.048 606.879 221.272 599.624 207.32 616.83C189.826 638.404 181.425 691.102 256.016 723.711C259.711 774.993 263.372 819.25 266.659 844.104C266.659 844.104 601.313 996.567 850.321 728.589C843.187 692.74 834.77 652.531 824.983 609.025C847.446 594.499 854.471 568.238 854.076 550.632C853.485 524.263 841.24 513.141 817.917 494.132C811.67 489.04 804.286 488.986 796.836 491.5C772.924 397.713 742.673 292.743 703.732 180.052C680.603 170.942 658.102 163.852 636.174 158.381L633.898 192.914C620.425 190.823 607.144 189.353 594.072 188.389L578.609 147.648C563.356 145.769 548.45 144.702 533.876 144.366Z" fill="black"/>
</mask>
<g mask="url(#mask1_311_10828)">
<path d="M533.876 144.366C519.302 144.031 505.06 144.427 491.183 145.49L487.782 191.79C470.898 194.063 454.539 197.005 438.91 200.57L423.98 155.956C399.083 161.897 375.77 169.989 353.731 179.254L351.542 227.889C336.39 233.95 322.368 240.232 309.707 246.428L298.117 206.78C272.578 221.488 249.51 237.479 229.317 253.465C229.317 253.465 238.218 442.986 248.535 611.537C240.048 606.879 221.272 599.624 207.32 616.83C189.826 638.404 181.425 691.102 256.016 723.711C259.711 774.993 263.372 819.25 266.659 844.104C266.659 844.104 601.313 996.567 850.321 728.589C843.187 692.74 834.77 652.531 824.983 609.025C847.446 594.499 854.471 568.238 854.076 550.632C853.485 524.263 841.24 513.141 817.917 494.132C811.67 489.04 804.286 488.986 796.836 491.5C772.924 397.713 742.673 292.743 703.732 180.052C680.603 170.942 658.102 163.852 636.174 158.381L633.898 192.914C620.425 190.823 607.144 189.353 594.072 188.389L578.609 147.648C563.356 145.769 548.45 144.702 533.876 144.366Z" stroke="black" stroke-width="0.0245956" stroke-miterlimit="10" stroke-linejoin="round"/>
</g>
<path d="M533.876 144.366C519.302 144.031 505.06 144.427 491.183 145.49L487.783 191.79C470.898 194.063 454.539 197.005 438.91 200.57L423.98 155.956C399.083 161.897 375.77 169.989 353.731 179.254L351.543 227.889C336.39 233.95 322.368 240.232 309.707 246.428L298.118 206.78C272.578 221.488 249.51 237.479 229.317 253.465C229.317 253.465 251.739 731.306 266.659 844.104C266.659 844.104 601.313 996.567 850.321 728.589C823.542 594.016 780.328 401.712 703.732 180.052C680.603 170.942 658.102 163.852 636.174 158.381L633.898 192.914C620.425 190.823 607.144 189.353 594.072 188.389L578.609 147.648C563.356 145.769 548.45 144.702 533.876 144.366Z" stroke="black" stroke-width="0.0122978" stroke-miterlimit="10" stroke-linejoin="round"/>
<path d="M534.201 130.174C519.324 129.832 504.601 130.217 490.089 131.327C483.089 131.863 477.535 137.453 477.02 144.455L474.449 179.52C465.593 180.888 456.901 182.432 448.371 184.162L437.432 151.462C435.099 144.491 427.847 140.442 420.697 142.148C396.406 147.946 372.549 155.963 348.231 166.186C343.178 168.31 339.785 173.128 339.539 178.604L337.765 218.31C331.287 221.009 324.917 223.754 318.695 226.589L311.747 202.788C309.168 193.965 298.987 189.893 291.021 194.48C266.056 208.857 242.391 225.023 220.506 242.348C216.922 245.184 214.94 249.578 215.155 254.144C215.169 254.446 218.605 324.987 219.885 350.205C223.544 422.257 227.401 494.313 231.328 561.571C231.94 572.057 232.555 581.955 233.16 592.054C232.253 591.972 231.361 591.818 230.44 591.787C217.476 591.364 205.48 596.571 196.292 607.902C183.427 623.766 177.693 647.119 183.371 669.605C189.755 694.888 209.571 716.719 242.503 732.936C246.367 785.664 249.688 824.061 252.586 845.967C253.227 850.815 256.324 854.996 260.775 857.024C261.657 857.426 263.259 858.118 265.535 859.064C269.245 860.607 273.566 862.315 278.485 864.149C292.447 869.355 308.39 874.536 326.086 879.376C376.344 893.121 430.61 901.414 486.925 901.491C559.491 901.591 630.123 887.961 696.814 857.822C756.304 830.939 811.285 791.466 860.728 738.258C863.829 734.92 865.136 730.279 864.247 725.811C857.034 689.567 849.178 652.492 840.771 614.79C849.639 607.107 856.467 597.51 861.141 586.554C866.141 574.839 868.529 561.983 868.268 550.307C867.918 534.761 864.036 522.517 856.056 511.368C849.815 502.65 842.725 496.051 826.875 483.133C820.984 478.332 814.346 476.012 807.331 475.741C781.451 375.501 751.86 275.843 717.156 175.411C715.802 171.491 712.794 168.355 708.936 166.836C685.869 157.75 662.812 150.394 639.604 144.602C631.02 142.46 622.595 148.605 622.012 157.434L620.741 176.83C615.265 176.153 609.744 175.588 604.214 175.085L591.885 142.621C590.016 137.7 585.579 134.218 580.354 133.574C564.828 131.661 549.442 130.525 534.201 130.174ZM533.876 144.366C548.45 144.702 563.356 145.769 578.609 147.648L594.072 188.389C607.144 189.353 620.425 190.823 633.898 192.914L636.174 158.381C658.102 163.852 680.603 170.942 703.732 180.052C742.673 292.743 772.924 397.713 796.836 491.5C804.286 488.986 811.67 489.04 817.916 494.132C841.24 513.141 853.485 524.262 854.076 550.632C854.47 568.238 847.445 594.499 824.983 609.025C834.769 652.531 843.187 692.74 850.321 728.589C601.313 996.567 266.659 844.104 266.659 844.104C263.371 819.25 259.711 774.993 256.015 723.711C181.425 691.102 189.825 638.404 207.32 616.83C221.272 599.624 240.048 606.879 248.534 611.537C238.218 442.986 229.317 253.465 229.317 253.465C249.51 237.479 272.578 221.488 298.117 206.78L309.707 246.428C322.368 240.232 336.389 233.95 351.542 227.889L353.731 179.254C375.769 169.989 399.082 161.897 423.979 155.956L438.91 200.57C454.539 197.005 470.898 194.063 487.782 191.79L491.183 145.49C505.06 144.427 519.302 144.031 533.876 144.366Z" fill="black"/>
<path d="M534.054 137.27C519.411 136.933 504.929 137.331 490.651 138.423C487.151 138.691 484.374 141.457 484.117 144.957L481.131 185.64C468.299 187.495 455.808 189.77 443.67 192.381L430.721 153.709C429.554 150.223 425.899 148.214 422.324 149.067C398.428 154.77 374.957 162.642 350.982 172.72C348.455 173.782 346.758 176.19 346.635 178.928L344.654 223.1C334.154 227.388 324.017 231.889 314.202 236.523L304.917 204.799C303.628 200.387 298.552 198.336 294.57 200.63C269.912 214.83 246.529 230.793 224.912 247.907C223.12 249.325 222.115 251.506 222.222 253.789C222.236 254.09 225.674 324.619 226.952 349.82C230.605 421.824 234.473 493.802 238.394 561.01C241.51 614.416 244.532 662.571 247.412 704.198C251.986 770.319 256.09 818.322 259.622 845.021C259.943 847.445 261.507 849.536 263.732 850.549C263.952 850.649 264.336 850.829 264.915 851.082C265.858 851.493 266.976 851.968 268.256 852.501C271.885 854.011 276.134 855.695 280.969 857.497C294.737 862.631 310.495 867.764 327.979 872.546C377.664 886.135 431.286 894.319 486.925 894.395C558.525 894.494 628.197 881.047 693.917 851.347C752.548 824.852 806.725 785.925 855.525 733.409C857.075 731.74 857.714 729.434 857.269 727.2C840.846 644.667 823.523 566.981 802.572 485.202C776.315 382.719 745.981 280.587 710.444 177.746C709.767 175.786 708.263 174.219 706.334 173.459C683.557 164.488 660.799 157.208 637.89 151.491C633.597 150.42 629.399 153.493 629.108 157.908L627.334 184.872C618.009 183.575 608.619 182.52 599.129 181.737L585.232 145.135C584.298 142.673 582.08 140.934 579.467 140.611C564.175 138.727 549.059 137.616 534.054 137.27ZM533.699 151.462C546.855 151.765 560.161 152.748 573.554 154.271L587.45 190.903C588.428 193.481 590.791 195.254 593.541 195.456C606.811 196.435 619.878 197.914 632.804 199.921C636.92 200.559 640.69 197.543 640.965 193.387L642.679 167.457C661.19 172.394 679.614 178.355 698.056 185.492C732.997 286.894 762.928 387.671 788.824 488.75C809.394 569.043 826.475 645.414 842.634 726.343C795.767 776.14 743.993 813.152 688.063 838.427C624.287 867.249 556.623 880.299 486.955 880.204C432.665 880.129 380.243 872.132 331.705 858.858C314.644 854.191 299.318 849.182 285.937 844.193C281.269 842.452 277.164 840.846 273.696 839.403C273.564 839.348 273.416 839.265 273.252 839.196C269.87 812.265 265.937 766.284 261.574 703.222C258.698 661.652 255.669 613.57 252.556 560.211C248.637 493.043 244.766 421.051 241.115 349.081C239.886 324.861 236.849 262.155 236.59 256.835C254.561 242.797 273.774 229.631 293.89 217.601L302.907 248.409C304.142 252.632 308.859 254.749 312.812 252.814C325.886 246.416 339.765 240.247 354.175 234.483C356.76 233.449 358.514 230.999 358.639 228.215L360.62 184.132C380.352 176.034 399.761 169.512 419.338 164.5L432.169 202.818C433.327 206.278 436.921 208.301 440.477 207.49C455.912 203.967 472.072 201.069 488.729 198.827C492.055 198.379 494.603 195.67 494.849 192.322L497.806 152.26C509.649 151.528 521.594 151.184 533.699 151.462Z" fill="black"/>
<path d="M289.063 605.468C289.063 487.576 384.634 392.005 502.527 392.005C620.419 392.005 715.989 487.576 715.989 605.468C715.989 723.361 620.419 818.932 502.527 818.932C384.634 818.932 289.063 723.361 289.063 605.468Z" fill="#F3886D" stroke="black" stroke-width="0.0122978" stroke-miterlimit="10" stroke-linejoin="round"/>
<path d="M573.909 456.553C564.024 456.676 553.864 458.094 543.721 460.929C505.376 471.648 477.558 499.812 469.157 531.769C452.643 510.2 422.741 495.113 388.944 494.132C338.396 492.663 298.43 523.212 299.655 562.37C300.412 586.564 316.738 608.369 341.017 621.857C336.989 638.404 336.3 655.414 339.747 672.148C354.732 744.926 440.107 785.045 530.447 761.763C620.786 738.48 681.88 660.604 666.894 587.826C665.568 581.389 663.629 575.223 661.246 569.317C668.227 552.871 669.986 534.853 665.091 517.341C654.58 479.742 616.743 456.018 573.909 456.553Z" fill="#F9B192"/>
<path d="M360.368 656.602C360.368 656.602 443.259 582.131 630.608 603.178C630.608 603.178 643.224 607.021 636.583 626.859C629.942 646.697 600.32 697.219 560.034 718.533C519.75 739.848 482.703 750.645 434.006 728.274C385.307 705.904 361.489 670.803 361.489 670.803L360.368 656.602Z" fill="white" stroke="black" stroke-width="0.0122978" stroke-miterlimit="10" stroke-linejoin="round"/>
<path d="M372.482 682.591C372.482 682.591 395.485 672.415 414.187 667.467" stroke="black" stroke-width="0.0122978" stroke-miterlimit="10" stroke-linecap="round" stroke-linejoin="round"/>
<path d="M634.209 624.253C634.209 624.253 611.018 627.867 597.729 631.715" stroke="black" stroke-width="0.0122978" stroke-miterlimit="10" stroke-linecap="round" stroke-linejoin="round"/>
<path d="M542.072 522.214C542.072 522.214 564.061 496.404 599.063 487.144C599.063 487.144 610.346 488.061 616.9 493.658" stroke="black" stroke-width="0.0122978" stroke-miterlimit="10" stroke-linecap="round" stroke-linejoin="round"/>
<path d="M405.604 547.5C405.604 547.5 372.449 530.685 344.592 536.668C344.592 536.668 336.967 541.191 327.503 555.07" stroke="black" stroke-width="0.0122978" stroke-miterlimit="10" stroke-linecap="round" stroke-linejoin="round"/>
<path d="M289.063 605.468C289.063 487.576 384.634 392.005 502.527 392.005C620.419 392.005 715.989 487.576 715.989 605.468C715.989 723.361 620.419 818.932 502.527 818.932C384.634 818.932 289.063 723.361 289.063 605.468Z" stroke="black" stroke-width="0.0122978" stroke-miterlimit="10" stroke-linejoin="round"/>
<path d="M502.536 384.915C380.725 384.915 281.974 483.666 281.974 605.477C281.974 727.288 380.725 826.039 502.536 826.039C624.348 826.039 723.098 727.288 723.098 605.477C723.098 483.666 624.348 384.915 502.536 384.915ZM502.536 399.106C616.509 399.106 708.907 491.503 708.907 605.477C708.907 719.45 616.509 811.847 502.536 811.847C388.563 811.847 296.166 719.45 296.166 605.477C296.166 491.503 388.563 399.106 502.536 399.106Z" fill="black"/>
<path d="M573.82 449.457C563.161 449.591 552.382 451.141 541.8 454.099C506.59 463.94 478.736 488.121 466.347 518.021C447.413 499.532 419.305 487.911 389.15 487.036C334.886 485.46 291.19 518.87 292.559 562.606C293.334 587.376 308.757 610.165 333.153 625.286C329.849 641.576 329.558 657.833 332.798 673.567C348.689 750.737 438.273 792.834 532.22 768.622C625.944 744.467 689.666 663.255 673.842 586.407C672.664 580.688 670.928 575.022 668.815 569.406C675.652 551.829 676.883 533.176 671.919 515.419C660.672 475.181 620.498 448.874 573.82 449.457ZM573.997 463.649C614.577 463.142 648.851 485.601 658.26 519.262C662.589 534.746 661.274 551.08 654.713 566.538C653.977 568.269 653.95 570.235 654.653 571.979C656.972 577.727 658.753 583.454 659.945 589.245C674.093 657.95 615.63 732.492 528.672 754.903C441.942 777.256 360.776 739.114 346.694 670.729C343.55 655.461 344.01 639.544 347.907 623.542C348.662 620.437 347.269 617.199 344.477 615.647C321.536 602.903 307.404 582.993 306.751 562.133C305.668 527.552 341.91 499.867 388.737 501.227C419.609 502.123 447.875 515.663 463.509 536.085C467.097 540.772 474.515 539.281 476.016 533.572C483.982 503.271 510.583 477.559 545.644 467.759C555.04 465.132 564.571 463.766 573.997 463.649Z" fill="black" fill-opacity="0.5"/>
<path d="M560.397 592.349C537.821 592.579 516.319 594.251 495.913 597.258C462.262 602.215 432.705 610.602 407.127 621.471C392.018 627.893 379.205 634.797 368.632 641.725C364.894 644.173 361.691 646.456 359.023 648.524C357.373 649.804 356.247 650.773 355.623 651.333C353.98 652.809 353.114 654.955 353.287 657.158C353.322 657.601 354.376 670.906 354.411 671.349C354.508 672.577 354.932 673.761 355.623 674.779C356.109 675.495 357.009 676.74 358.314 678.416C360.437 681.143 362.956 684.164 365.912 687.404C374.307 696.608 384.4 705.801 396.217 714.368C406.898 722.111 418.512 728.951 431.046 734.71C455.505 745.946 478.248 749.704 501.058 746.831C520.627 744.366 539.758 737.289 563.353 724.805C582.713 714.562 600.856 697.464 616.602 676.376C629.052 659.701 639.222 641.282 643.3 629.1C647.524 616.482 645.741 606.825 639.545 600.687C638.166 599.32 636.678 598.269 635.17 597.464C634.185 596.939 633.352 596.603 632.686 596.399C632.27 596.273 631.847 596.182 631.415 596.134C606.643 593.351 582.973 592.12 560.397 592.349ZM560.633 606.541C582.263 606.325 604.958 607.491 628.724 610.118C629.009 610.292 629.298 610.489 629.581 610.769C631.722 612.889 632.435 616.873 629.848 624.606C626.287 635.243 616.849 652.352 605.249 667.89C590.661 687.429 573.994 703.135 556.73 712.269C534.519 724.021 516.875 730.543 499.284 732.758C479.151 735.293 459.058 731.971 436.959 721.819C425.297 716.461 414.501 710.078 404.555 702.867C393.556 694.893 384.178 686.343 376.408 677.825C373.706 674.862 371.391 672.136 369.489 669.694C369.065 669.148 368.767 668.702 368.425 668.245C368.257 666.109 368 662.96 367.745 659.73C370.114 657.895 373 655.842 376.408 653.61C386.288 647.138 398.367 640.625 412.685 634.54C437.16 624.138 465.541 616.081 497.984 611.301C517.779 608.384 538.668 606.76 560.633 606.541Z" fill="black"/>
<path d="M415.199 660.44C414.286 660.309 413.308 660.367 412.361 660.617C409.406 661.399 406.264 662.307 402.958 663.367C399.53 664.466 395.989 665.695 392.314 667.033C386.872 669.013 381.45 671.124 376.319 673.242C374.523 673.983 369.698 676.07 369.608 676.109C366.024 677.695 364.415 681.868 366.001 685.452C367.586 689.036 371.76 690.675 375.344 689.089C375.411 689.06 379.996 687.084 381.73 686.369C386.687 684.323 391.926 682.273 397.163 680.367C400.674 679.09 404.061 677.918 407.305 676.878C410.389 675.89 413.293 675.052 415.996 674.335C419.786 673.333 422.054 669.432 421.053 665.643C420.301 662.802 417.936 660.83 415.199 660.44Z" fill="black"/>
<path d="M633.129 617.245C633.032 617.26 627.779 618.127 625.885 618.456C620.473 619.397 615.051 620.409 609.979 621.472C604.438 622.634 599.635 623.779 595.757 624.901C591.994 625.991 589.819 629.919 590.909 633.683C591.999 637.447 595.926 639.622 599.691 638.532C603.171 637.524 607.654 636.463 612.876 635.368C617.771 634.343 623.046 633.356 628.31 632.441C630.154 632.12 635.207 631.272 635.288 631.258C639.159 630.655 641.834 627.029 641.23 623.158C640.627 619.285 637.001 616.641 633.129 617.245Z" fill="black"/>
<path d="M599.631 480.058C598.828 479.993 598.015 480.089 597.236 480.295C584.084 483.775 571.829 489.604 560.575 497.147C553.981 501.566 548.126 506.299 543.071 511.044C541.289 512.716 539.733 514.273 538.4 515.685C537.575 516.56 537.016 517.218 536.685 517.607C534.144 520.59 534.501 525.089 537.484 527.63C540.467 530.171 544.935 529.785 547.477 526.802C547.504 526.77 548.329 525.854 548.719 525.441C549.858 524.234 551.231 522.862 552.798 521.391C557.314 517.153 562.581 512.909 568.498 508.944C578.178 502.457 588.629 497.453 599.72 494.368C600.21 494.438 600.695 494.529 601.257 494.634C603.464 495.047 605.66 495.62 607.644 496.408C609.564 497.172 611.143 498.093 612.285 499.069C615.265 501.614 619.763 501.251 622.308 498.271C624.853 495.291 624.49 490.822 621.51 488.277C619.067 486.191 616.144 484.521 612.876 483.221C609.957 482.06 606.906 481.248 603.859 480.679C602.798 480.48 601.802 480.32 600.902 480.206C600.334 480.134 599.908 480.08 599.631 480.058Z" fill="black"/>
<path d="M356.185 528.31C351.642 528.382 347.264 528.831 343.087 529.729C342.337 529.89 341.619 530.165 340.958 530.557C340.511 530.822 339.852 531.259 339.007 531.887C337.723 532.841 336.321 534.035 334.779 535.464C330.528 539.408 326.092 544.563 321.652 551.075C319.444 554.313 320.276 558.713 323.514 560.921C326.753 563.129 331.152 562.296 333.36 559.059C337.2 553.425 340.945 549.092 344.417 545.872C345.537 544.834 346.522 544.027 347.374 543.388C350.239 542.856 353.245 542.522 356.422 542.471C366.429 542.313 377.371 544.484 388.353 548.178C392.094 549.437 395.574 550.767 398.671 552.11C399.745 552.576 400.701 553 401.509 553.382C401.975 553.601 402.267 553.759 402.396 553.825C405.892 555.598 410.174 554.215 411.946 550.721C413.719 547.226 412.307 542.943 408.812 541.17C407.943 540.731 406.419 540.012 404.318 539.101C400.867 537.605 397.016 536.118 392.876 534.726C380.491 530.559 368.028 528.122 356.185 528.31Z" fill="black"/>
<path d="M502.536 384.915C380.725 384.915 281.974 483.666 281.974 605.477C281.974 727.288 380.725 826.039 502.536 826.039C624.348 826.039 723.098 727.288 723.098 605.477C723.098 483.666 624.348 384.915 502.536 384.915ZM502.536 399.106C616.509 399.106 708.907 491.503 708.907 605.477C708.907 719.45 616.509 811.847 502.536 811.847C388.563 811.847 296.166 719.45 296.166 605.477C296.166 491.503 388.563 399.106 502.536 399.106Z" fill="black"/>
<path d="M601.365 561.42C599.362 549.981 615.36 537.622 637.099 533.815C658.837 530.008 678.083 536.195 680.086 547.634C682.089 559.073 666.091 571.433 644.353 575.239C622.615 579.046 603.369 572.859 601.365 561.42Z" fill="#FF497F" stroke="black" stroke-width="0.0122978" stroke-miterlimit="10" stroke-linejoin="round"/>
<path d="M302.268 614.725C298.258 603.827 311.796 588.813 332.507 581.19C353.217 573.568 373.259 576.224 377.269 587.122C381.281 598.02 367.743 613.035 347.032 620.657C326.32 628.28 306.28 625.623 302.268 614.725Z" fill="#FF497F" stroke="black" stroke-width="0.0122978" stroke-miterlimit="10" stroke-linejoin="round"/>
<path d="M654.062 525.708C648.312 525.368 642.151 525.733 635.879 526.831C610.789 531.225 591.477 546.122 594.369 562.636C597.26 579.149 620.487 586.632 645.577 582.238C670.666 577.845 689.979 562.918 687.088 546.405C684.918 534.019 671.313 526.728 654.062 525.708ZM651.342 539.811C663.447 540.132 672.267 544.085 673.102 548.858C674.217 555.222 661.51 565.033 643.123 568.253C624.736 571.474 609.468 566.546 608.353 560.182C607.239 553.818 619.946 544.036 638.333 540.816C642.93 540.012 647.307 539.704 651.342 539.811Z" fill="black"/>
<path d="M356.067 569.732C348.01 569.628 339.012 571.222 330.049 574.521C306.144 583.319 289.814 601.451 295.604 617.185C301.395 632.919 325.57 636.123 349.473 627.326C373.377 618.528 389.708 600.396 383.918 584.662C380.299 574.829 369.495 569.906 356.067 569.732ZM353.347 583.953C362.479 583.529 369.219 585.781 370.613 589.571C372.844 595.634 362.113 607.545 344.595 613.992C327.077 620.44 311.17 618.34 308.938 612.277C306.707 606.214 317.438 594.303 334.956 587.856C341.526 585.438 347.867 584.207 353.347 583.953Z" fill="black"/>
<path d="M755.539 525.041C755.539 525.041 794.584 475.115 817.906 494.126C841.23 513.136 853.496 524.249 854.087 550.618C854.679 576.987 838.801 622.929 778.993 619.465" fill="#F3886D"/>
<path d="M838.613 512.581C788.299 535.145 777.146 586.29 774.809 602.638L778.979 619.461C838.787 622.926 854.667 577.001 854.076 550.631C853.697 533.706 848.449 523.058 838.613 512.581Z" fill="#F9B192"/>
<path d="M784.507 570.744C784.507 570.744 795.341 542.522 819.146 524.561" stroke="black" stroke-width="0.0122978" stroke-miterlimit="10" stroke-linecap="round" stroke-linejoin="round"/>
<path d="M820.134 517.548C818.336 517.296 816.435 517.727 814.871 518.907C808.476 523.732 802.634 529.447 797.339 535.879C791.546 542.914 786.687 550.423 782.703 557.934C781.306 560.57 780.116 563.021 779.126 565.237C778.517 566.602 778.111 567.604 777.884 568.194C776.48 571.853 778.306 575.955 781.964 577.359C785.623 578.764 789.725 576.938 791.129 573.279C791.154 573.216 791.222 573.054 791.337 572.777C791.541 572.282 791.809 571.696 792.106 571.032C792.969 569.098 793.996 566.931 795.239 564.586C798.802 557.869 803.166 551.14 808.308 544.896C812.926 539.286 817.962 534.346 823.415 530.231C826.544 527.871 827.166 523.425 824.805 520.297C823.625 518.733 821.933 517.799 820.134 517.548Z" fill="black"/>
<path d="M799.087 545.673C799.087 545.673 812.458 549.531 818.226 557.506" stroke="black" stroke-width="0.0122978" stroke-miterlimit="10" stroke-linecap="round" stroke-linejoin="round"/>
<path d="M798.256 538.628C795.51 538.957 793.098 540.889 792.283 543.714C791.197 547.479 793.366 551.408 797.132 552.494C797.215 552.519 797.428 552.584 797.783 552.702C798.415 552.912 799.136 553.169 799.911 553.47C802.125 554.331 804.339 555.356 806.356 556.545C809.112 558.169 811.227 559.932 812.477 561.66C814.773 564.836 819.206 565.554 822.382 563.256C825.557 560.96 826.275 556.528 823.978 553.352C821.425 549.823 817.872 546.871 813.57 544.334C810.832 542.72 807.936 541.375 805.055 540.255C803.315 539.577 801.937 539.116 801.064 538.865C800.122 538.593 799.171 538.518 798.256 538.628Z" fill="black"/>
<path d="M755.539 525.041C755.539 525.041 794.584 475.115 817.906 494.126C841.23 513.136 853.496 524.249 854.087 550.618C854.679 576.987 838.801 622.929 778.993 619.465" stroke="black" stroke-width="0.0122978" stroke-miterlimit="10" stroke-linejoin="round"/>
<path d="M804.671 482.719C800.804 482.866 796.785 483.786 792.667 485.38C784.398 488.58 775.936 494.427 767.389 502.173C762.932 506.212 758.712 510.52 754.882 514.828C753.54 516.337 752.353 517.729 751.305 518.996C750.663 519.771 750.2 520.356 749.944 520.681L761.121 529.403C761.156 529.359 761.917 528.437 762.244 528.043C763.189 526.901 764.269 525.64 765.497 524.258C769.009 520.308 772.861 516.337 776.909 512.669C784.279 505.989 791.42 501.058 797.783 498.595C804.392 496.038 809.413 496.362 813.423 499.63C827.827 511.371 833.992 517.102 838.761 523.756C844.184 531.323 846.725 539.409 846.98 550.78C847.294 564.752 842.71 580.343 833.617 591.817C822.197 606.227 804.436 613.846 779.392 612.395L778.594 626.557C808.166 628.27 830.414 618.733 844.763 600.628C856.041 586.396 861.555 567.567 861.172 550.454C860.854 536.301 857.425 525.433 850.292 515.478C844.54 507.453 837.766 501.171 822.381 488.632C817.119 484.343 811.115 482.473 804.671 482.719Z" fill="black"/>
<path d="M747.46 504.807C747.46 504.807 780.546 617.812 780.893 641.708" stroke="black" stroke-width="0.0122978" stroke-miterlimit="10" stroke-linecap="round" stroke-linejoin="round"/>
<path d="M748.259 497.767C747.343 497.661 746.42 497.729 745.48 498.004C741.719 499.105 739.56 503.024 740.661 506.786C740.676 506.838 744.497 520.109 745.865 524.939C749.773 538.738 753.661 552.915 757.306 566.627C758.269 570.246 759.214 573.776 760.115 577.241C768.594 609.868 773.68 633.271 773.804 641.813C773.861 645.732 777.07 648.847 780.989 648.79C784.907 648.734 788.053 645.524 787.996 641.607C787.847 631.4 782.718 607.733 773.863 573.663C772.956 570.171 771.994 566.605 771.025 562.961C767.357 549.168 763.452 534.933 759.524 521.065C758.149 516.213 754.278 502.882 754.261 502.823C753.435 500.003 751.006 498.086 748.259 497.767Z" fill="black"/>
<path opacity="0.203389" d="M313.624 234.5L334.346 469.347C312.121 690.227 485.734 813.983 485.734 813.983C485.734 813.983 428.907 814.313 364.343 766.53L370.273 876.521L264.237 842.144L248.744 718.679L218.24 699.312C218.24 699.312 191.611 653.799 190.642 647.02C189.674 640.241 199.358 616.517 199.358 616.517L219.209 598.602L239.06 601.508L240.513 529.365L225.019 246.121L297.646 202.061L313.624 234.5Z" fill="black"/>
<path opacity="0.203389" d="M791.233 549.069C802.963 535.493 807.332 528.331 818.935 524.293C842.333 516.149 855.43 559.637 855.43 559.637C855.43 559.637 866.016 593.95 840.887 601.846C813.502 610.451 822.031 659.563 822.031 659.563L803.625 664.195L778.905 618.773C778.905 618.773 748.526 540.207 761.16 551.496C771.296 560.552 786.318 554.757 791.233 549.069Z" fill="black"/>
</g>
</svg>
