<svg width="800" height="800" viewBox="0 0 800 800" fill="none" xmlns="http://www.w3.org/2000/svg">
<path d="M143.85 528.199C143.85 402.445 245.794 300.501 371.548 300.501C497.301 300.501 599.245 402.445 599.245 528.199C599.245 653.953 497.301 755.896 371.548 755.896C245.794 755.896 143.85 653.953 143.85 528.199Z" fill="#F3886D"/>
<path d="M392.106 427.382C349.696 427.382 299.883 443.158 274.412 477.508C264.033 443.766 232.631 419.249 195.487 419.249C185.271 419.249 175.488 421.104 166.456 424.496C166.456 424.496 128.111 499.45 147.012 566.736C153.967 591.495 192.478 585.856 195.548 577.383C198.617 568.91 187.043 581.623 190.26 581.242C186.571 591.085 187.105 603.201 187.105 614.316C187.105 664.468 240.519 706.129 291.142 706.129C341.764 706.129 382.804 665.49 382.804 615.339C382.804 607.613 381.712 600.147 379.88 592.985C433.188 579.819 475.211 539.258 473.155 509.772C470.227 467.789 449.937 427.382 392.106 427.382Z" fill="#F9B192"/>
<path d="M371.54 290.31C240.165 290.31 133.668 396.834 133.668 528.21C133.668 659.585 240.165 766.082 371.54 766.082C502.916 766.082 609.412 659.585 609.412 528.21C609.412 396.834 502.916 290.31 371.54 290.31ZM371.54 310.666C491.672 310.666 589.055 408.078 589.055 528.21C589.055 648.342 491.672 745.725 371.54 745.725C251.408 745.725 154.025 648.342 154.025 528.21C154.025 408.077 251.408 310.667 371.54 310.666Z" fill="black"/>
<path d="M378.402 495.199C373.8 494.763 370.513 497.542 368.364 501.638C366.906 504.417 365.965 507.972 365.608 511.732C365.252 515.492 365.514 519.16 366.424 522.164C367.765 526.591 370.454 529.938 375.056 530.374C379.657 530.81 382.917 528.031 385.066 523.935C386.523 521.156 387.493 517.601 387.849 513.841C388.205 510.08 387.916 506.413 387.006 503.409C385.664 498.982 383.003 495.635 378.402 495.199Z" fill="black"/>
<path d="M202.078 482.321C197.477 481.885 194.218 484.664 192.069 488.76C190.611 491.539 189.641 495.094 189.285 498.854C188.929 502.615 189.218 506.282 190.129 509.286C191.47 513.713 194.159 517.06 198.761 517.496C203.362 517.932 206.621 515.125 208.77 511.029C210.228 508.25 211.198 504.723 211.554 500.963C211.91 497.203 211.621 493.535 210.71 490.532C209.369 486.105 206.68 482.757 202.078 482.321Z" fill="black"/>
<path d="M259.043 615.991C258.172 616.04 257.288 616.256 256.456 616.666C253.128 618.302 251.755 622.336 253.391 625.663C255.156 629.253 257.339 632.728 259.802 635.87C262.065 638.757 264.708 641.521 268.012 643.208C269.769 644.105 271.713 644.666 273.692 644.727C276.872 644.824 280.081 643.656 282.943 642.393C289.021 639.711 294.71 635.956 300.01 631.961C303.132 629.596 303.753 625.158 301.388 622.036C299.022 618.914 294.584 618.293 291.462 620.658C289.161 622.432 286.742 624.077 284.292 625.635C282.935 626.499 281.56 627.347 280.159 628.137C278.613 629.01 277.027 629.809 275.379 630.471C274.97 630.636 274.539 630.775 274.114 630.893C274.085 630.901 274.063 630.919 274.029 630.921C273.96 630.886 273.89 630.842 273.833 630.809C273.48 630.6 273.169 630.372 272.849 630.106C272.177 629.547 271.591 628.881 271.021 628.222C270.576 627.708 270.166 627.218 269.756 626.675C269.135 625.854 268.546 625.007 267.984 624.145C267.061 622.728 266.206 621.246 265.454 619.73C264.226 617.235 261.655 615.842 259.043 615.991Z" fill="black"/>
<path d="M195.497 412.562C184.654 412.562 174.066 414.506 164.118 418.242C162.561 418.827 161.277 419.966 160.519 421.447C160.296 421.884 159.902 422.679 159.366 423.809C158.49 425.659 157.514 427.8 156.47 430.22C153.502 437.102 150.547 444.829 147.782 453.248C137.255 485.302 132.421 518.006 136.536 548.763C137.443 555.54 138.784 562.121 140.584 568.529C144.581 582.759 156.962 590.305 172.357 591.191C175.349 591.364 178.312 591.234 181.185 590.91C180.704 594.738 180.477 598.954 180.426 603.872C180.407 605.762 180.409 607.254 180.426 610.565C180.436 612.468 180.426 613.282 180.426 614.305C180.426 640.344 193.639 665.311 215.826 684.12C237.072 702.13 264.678 712.799 291.152 712.799C345.452 712.798 389.479 669.195 389.479 615.344C389.479 609.485 388.716 603.622 387.595 597.743C439.383 582.744 482.128 542.42 479.82 509.314C478.129 485.07 471.156 464.08 458.366 448.581C443.422 430.471 421.253 420.688 392.094 420.688C347.42 420.688 303.025 436.623 276.587 464.664C262.302 433.463 230.968 412.564 195.497 412.562ZM195.497 425.918C229.052 425.918 258.326 447.901 268.04 479.481C269.649 484.715 276.503 485.876 279.764 481.478C301.818 451.736 346.766 434.072 392.094 434.072C417.383 434.072 435.75 442.138 448.074 457.072C458.889 470.177 464.98 488.561 466.492 510.242C467.333 522.295 458.682 537.992 442.76 552.558C425.809 568.066 402.729 580.459 378.288 586.496C374.686 587.386 372.476 591.056 373.396 594.651C375.185 601.643 376.122 608.516 376.122 615.344C376.122 661.789 338.104 699.443 291.152 699.443C267.928 699.443 243.351 689.956 224.459 673.94C205.093 657.524 193.782 636.133 193.782 614.305C193.782 613.251 193.763 605.81 193.782 604.013C193.86 596.454 194.417 590.965 195.667 586.411C198.611 584.609 200.843 582.372 201.823 579.664C202.46 577.907 202.807 576.414 202.752 574.883C202.621 571.174 199.937 567.838 195.639 567.798C192.583 567.769 190.623 569.089 188.159 571.509C186.69 572.953 185.293 574.71 184.392 576.261C184.297 576.423 184.252 576.579 184.167 576.74C180.857 577.613 176.999 578.088 173.116 577.865C162.873 577.275 155.668 572.883 153.435 564.93C151.808 559.138 150.604 553.159 149.778 546.992C145.969 518.525 150.511 487.741 160.463 457.438C163.097 449.416 165.914 442.035 168.73 435.507C169.641 433.396 170.466 431.595 171.232 429.967C178.981 427.351 187.13 425.918 195.497 425.918Z" fill="black" fill-opacity="0.5"/>
<path d="M371.94 589.727C372.574 577.308 389.248 568.753 409.184 570.62C429.12 572.486 444.768 584.067 444.135 596.486C443.502 608.905 426.828 617.46 406.891 615.593C386.955 613.727 371.307 602.146 371.94 589.727Z" fill="#FF497F" stroke="black" stroke-width="0.0185569" stroke-miterlimit="10" stroke-linecap="round" stroke-linejoin="round"/>
<path d="M127.855 580.123C127.855 568.626 144.482 559.305 164.991 559.305C185.501 559.305 202.127 568.626 202.127 580.123C202.127 591.621 185.501 600.942 164.991 600.942C144.482 600.942 127.855 591.621 127.855 580.123Z" fill="#FF497F" stroke="black" stroke-width="0.0188804" stroke-miterlimit="10" stroke-linecap="round" stroke-linejoin="round"/>
<path d="M401.26 563.75C381.776 564.534 366.033 574.425 365.27 589.393C364.414 606.178 383.209 620.074 406.265 622.233C429.491 624.407 449.931 613.921 450.803 596.815C451.658 580.03 432.864 566.133 409.808 563.974C406.904 563.702 404.044 563.638 401.26 563.75ZM402.525 577.048C404.472 577.001 406.49 577.079 408.571 577.273C425.387 578.848 437.886 588.088 437.475 596.141C437.081 603.873 424.147 610.492 407.502 608.933C390.686 607.359 378.187 598.121 378.598 590.068C378.943 583.302 388.897 577.378 402.525 577.048Z" fill="black"/>
<path d="M164.991 552.503C141.227 552.503 121.071 563.806 121.072 580.114C121.072 596.422 141.227 607.725 164.991 607.725C188.754 607.725 208.91 596.422 208.91 580.114C208.91 563.806 188.755 552.503 164.991 552.503ZM164.991 566.112C182.246 566.112 195.329 573.426 195.329 580.114C195.329 586.802 182.247 594.145 164.991 594.145C147.735 594.145 134.652 586.802 134.652 580.114C134.652 573.426 147.735 566.112 164.991 566.112Z" fill="black"/>
<path d="M144.062 528.503C144.062 402.749 246.006 300.805 371.759 300.805C497.513 300.805 599.457 402.749 599.457 528.503C599.457 654.257 497.513 756.201 371.759 756.201C246.006 756.201 144.062 654.257 144.062 528.503Z" fill="#F3886D"/>
<path d="M392.318 427.686C349.908 427.686 300.095 443.463 274.624 477.812C264.246 444.07 232.844 419.553 195.699 419.553C185.483 419.553 175.7 421.408 166.669 424.8C166.669 424.8 128.323 499.754 147.225 567.04C154.18 591.799 192.691 586.161 195.76 577.688C198.83 569.215 187.255 581.927 190.473 581.546C186.784 591.389 187.318 603.506 187.318 614.621C187.318 664.772 240.732 706.434 291.354 706.434C341.977 706.434 383.016 665.794 383.016 615.643C383.016 607.917 381.925 600.451 380.092 593.29C433.4 580.123 475.424 539.562 473.367 510.077C470.439 468.093 450.15 427.686 392.318 427.686Z" fill="#F9B192"/>
<path d="M371.753 290.613C240.377 290.613 133.881 397.137 133.881 528.513C133.881 659.889 240.377 766.385 371.753 766.385C503.128 766.385 609.625 659.889 609.625 528.513C609.625 397.138 503.128 290.613 371.753 290.613ZM371.753 310.97C491.885 310.97 589.268 408.381 589.268 528.513C589.268 648.645 491.885 746.028 371.753 746.028C251.621 746.028 154.238 648.645 154.238 528.513C154.238 408.381 251.621 310.97 371.753 310.97Z" fill="black"/>
<path d="M378.612 495.503C374.011 495.067 370.723 497.846 368.575 501.942C367.117 504.721 366.175 508.276 365.819 512.036C365.463 515.797 365.725 519.465 366.634 522.468C367.976 526.895 370.665 530.242 375.266 530.678C379.868 531.114 383.128 528.336 385.276 524.239C386.734 521.46 387.703 517.905 388.06 514.145C388.416 510.385 388.126 506.717 387.216 503.714C385.875 499.287 383.214 495.939 378.612 495.503Z" fill="black"/>
<path d="M202.289 482.626C197.687 482.19 194.428 484.968 192.279 489.065C190.822 491.843 189.852 495.398 189.496 499.159C189.139 502.919 189.429 506.587 190.339 509.59C191.681 514.017 194.37 517.364 198.971 517.8C203.573 518.236 206.832 515.43 208.981 511.333C210.439 508.555 211.408 505.028 211.765 501.267C212.121 497.507 211.831 493.839 210.921 490.836C209.58 486.409 206.891 483.062 202.289 482.626Z" fill="black"/>
<path d="M259.256 616.295C258.385 616.345 257.501 616.561 256.669 616.97C253.341 618.607 251.968 622.64 253.604 625.967C255.369 629.557 257.551 633.032 260.015 636.174C262.278 639.061 264.921 641.825 268.225 643.513C269.982 644.41 271.925 644.971 273.905 645.031C277.084 645.128 280.294 643.96 283.155 642.697C289.234 640.015 294.923 636.261 300.222 632.266C303.344 629.9 303.966 625.462 301.6 622.34C299.235 619.218 294.797 618.597 291.675 620.963C289.373 622.736 286.955 624.381 284.505 625.939C283.148 626.803 281.773 627.651 280.372 628.442C278.826 629.314 277.24 630.114 275.592 630.776C275.183 630.94 274.752 631.08 274.326 631.197C274.298 631.205 274.275 631.224 274.242 631.225C274.173 631.19 274.103 631.147 274.045 631.113C273.692 630.905 273.382 630.676 273.061 630.41C272.39 629.852 271.804 629.185 271.234 628.526C270.788 628.012 270.378 627.523 269.968 626.98C269.348 626.159 268.759 625.311 268.197 624.449C267.274 623.032 266.418 621.55 265.666 620.035C264.439 617.539 261.868 616.146 259.256 616.295Z" fill="black"/>
<path d="M195.711 412.867C184.867 412.867 174.28 414.81 164.332 418.546C162.775 419.131 161.491 420.271 160.733 421.752C160.51 422.188 160.115 422.983 159.58 424.114C158.703 425.964 157.728 428.105 156.684 430.524C153.715 437.406 150.761 445.133 147.996 453.552C137.469 485.607 132.633 518.31 136.749 549.067C137.656 555.844 138.998 562.426 140.798 568.833C144.795 583.064 157.175 590.61 172.57 591.496C175.562 591.668 178.525 591.539 181.399 591.215C180.918 595.043 180.691 599.258 180.64 604.177C180.62 606.066 180.622 607.557 180.64 610.869C180.65 612.771 180.64 613.585 180.64 614.608C180.64 640.647 193.852 665.614 216.039 684.423C237.285 702.434 264.891 713.103 291.366 713.103C345.666 713.103 389.692 669.499 389.692 615.648C389.692 609.789 388.929 603.927 387.808 598.047C439.596 583.048 482.341 542.724 480.032 509.618C478.342 485.374 471.37 464.384 458.579 448.885C443.634 430.776 421.466 420.993 392.307 420.993C347.633 420.993 303.239 436.927 276.801 464.968C262.515 433.767 231.181 412.867 195.711 412.867ZM195.711 426.222C229.265 426.222 258.54 448.205 268.253 479.786C269.863 485.019 276.717 486.18 279.978 481.782C302.032 452.041 346.978 434.377 392.307 434.376C417.596 434.376 435.963 442.442 448.288 457.376C459.103 470.481 465.193 488.866 466.705 510.546C467.545 522.599 458.896 538.297 442.974 552.863C426.022 568.37 402.941 580.764 378.501 586.8C374.899 587.69 372.688 591.359 373.609 594.954C375.398 601.946 376.336 608.821 376.336 615.648C376.336 662.093 338.318 699.747 291.366 699.747C268.141 699.747 243.564 690.26 224.671 674.245C205.306 657.828 193.996 636.437 193.995 614.608C193.995 613.554 193.977 606.114 193.995 604.317C194.074 596.758 194.631 591.27 195.879 586.716C198.823 584.912 201.056 582.675 202.037 579.968C202.673 578.211 203.019 576.719 202.965 575.188C202.833 571.478 200.15 568.143 195.851 568.102C192.797 568.073 190.835 569.393 188.372 571.814C186.903 573.257 185.505 575.015 184.604 576.565C184.51 576.728 184.465 576.884 184.379 577.043C181.07 577.916 177.212 578.392 173.329 578.168C163.087 577.579 155.881 573.188 153.647 565.234C152.02 559.443 150.817 553.462 149.992 547.295C146.183 518.828 150.725 488.045 160.677 457.742C163.311 449.721 166.127 442.338 168.943 435.81C169.854 433.699 170.679 431.899 171.445 430.271C179.195 427.656 187.344 426.222 195.711 426.222Z" fill="black" fill-opacity="0.5"/>
<path d="M372.151 590.031C372.784 577.612 389.459 569.058 409.395 570.924C429.331 572.791 444.979 584.371 444.346 596.79C443.713 609.209 427.038 617.764 407.102 615.898C387.166 614.031 371.518 602.451 372.151 590.031Z" fill="#FF497F" stroke="black" stroke-width="0.0185569" stroke-miterlimit="10" stroke-linecap="round" stroke-linejoin="round"/>
<path d="M128.068 580.427C128.068 568.929 144.694 559.608 165.204 559.608C185.713 559.608 202.34 568.929 202.34 580.427C202.34 591.925 185.713 601.245 165.204 601.245C144.694 601.245 128.068 591.925 128.068 580.427Z" fill="#FF497F" stroke="black" stroke-width="0.0188804" stroke-miterlimit="10" stroke-linecap="round" stroke-linejoin="round"/>
<path d="M401.471 564.053C381.987 564.837 366.244 574.729 365.481 589.696C364.625 606.482 383.42 620.379 406.476 622.537C429.702 624.712 450.141 614.225 451.013 597.119C451.869 580.334 433.074 566.437 410.018 564.278C407.115 564.006 404.254 563.941 401.471 564.053ZM402.736 577.353C404.683 577.306 406.701 577.383 408.781 577.578C425.597 579.152 438.097 588.391 437.686 596.444C437.292 604.176 424.358 610.796 407.713 609.238C390.897 607.663 378.398 598.424 378.808 590.371C379.153 583.605 389.108 577.682 402.736 577.353Z" fill="black"/>
<path d="M165.202 552.807C141.439 552.807 121.283 564.111 121.283 580.419C121.283 596.726 141.439 608.03 165.202 608.03C188.966 608.03 209.121 596.726 209.122 580.419C209.122 564.111 188.966 552.807 165.202 552.807ZM165.202 566.416C182.458 566.416 195.541 573.731 195.541 580.419C195.541 587.106 182.458 594.449 165.202 594.449C147.947 594.449 134.864 587.107 134.864 580.419C134.864 573.731 147.947 566.416 165.202 566.416Z" fill="black"/>
<path d="M390.055 477.351C389.184 477.254 388.277 477.31 387.384 477.576L352.912 487.839C349.34 488.902 347.322 492.674 348.385 496.246C349.448 499.818 353.192 501.836 356.764 500.773L391.236 490.51C394.808 489.447 396.826 485.703 395.763 482.131C394.965 479.452 392.668 477.642 390.055 477.351Z" fill="black"/>
<path d="M195.821 461.803C193.204 461.549 190.546 462.86 189.213 465.318C187.436 468.594 188.665 472.678 191.941 474.456L221.154 490.314C224.43 492.092 228.544 490.892 230.321 487.615C232.098 484.339 230.869 480.226 227.593 478.449L198.38 462.59C197.561 462.146 196.693 461.888 195.821 461.803Z" fill="black"/>
<path d="M561.738 530.741C561.738 530.741 603.661 498.52 637.809 503.252C671.957 507.983 681.881 592.072 648.476 627.645C615.072 663.218 578.344 665.015 551.324 650.477" fill="#F3886D"/>
<path d="M561.738 530.741C561.738 530.741 603.661 498.52 637.809 503.252C671.957 507.983 681.881 592.072 648.476 627.645C615.072 663.218 578.344 665.015 551.324 650.477" stroke="black" stroke-width="0.0192069" stroke-miterlimit="10" stroke-linejoin="round"/>
<path d="M666.141 538.438C603.258 561.291 571.291 611.315 555.135 652.341C581.738 664.745 616.614 661.592 648.484 627.653C668.017 606.853 672.529 568.062 666.141 538.438Z" fill="#F9B192"/>
<path d="M636.095 547.019C635.175 546.987 634.227 547.12 633.312 547.469C616.219 554.041 602.373 566.701 590.574 580.394C585.568 586.203 580.736 592.262 576.543 598.699C574.518 601.806 575.376 605.98 578.483 608.006C581.59 610.03 585.765 609.144 587.79 606.037C592.432 598.945 597.924 592.332 603.704 586.158C613.492 575.705 624.833 565.851 638.373 560.712C642.032 559.314 643.876 555.233 642.478 551.574C641.43 548.83 638.858 547.116 636.095 547.019Z" fill="black"/>
<path d="M608.823 567.882C606.247 567.423 603.534 568.502 602.018 570.834C599.997 573.944 600.878 578.12 603.987 580.141C603.95 580.117 604.063 580.173 604.099 580.198C604.179 580.254 604.243 580.308 604.324 580.366C604.504 580.498 604.682 580.651 604.858 580.788C605.302 581.134 605.731 581.484 606.152 581.856C607.382 582.945 608.543 584.132 609.554 585.427C612.785 589.569 614.669 594.489 614.643 599.767C614.654 603.684 617.84 606.864 621.757 606.853C625.674 606.842 628.853 603.656 628.842 599.739C628.815 596.584 628.453 593.471 627.577 590.432C625.697 583.913 621.736 578.135 616.892 573.449C615.167 571.78 613.313 570.18 611.297 568.866C610.52 568.361 609.681 568.035 608.823 567.882Z" fill="black"/>
<path d="M629.375 488.535C619.775 488.801 609.657 491.327 599.178 495.677L606.882 514.206C617.831 509.662 627.739 507.77 636.039 508.92C646.198 510.328 655.824 527.779 658.28 552.727C660.931 579.656 654.502 606.559 641.157 620.771C613.624 650.09 582.447 655.824 556.074 641.634L546.57 659.32C581.105 677.901 622.159 670.351 655.806 634.52C693.284 594.609 683.483 495.233 638.795 489.041C635.711 488.614 632.576 488.447 629.375 488.535Z" fill="black"/>
<path d="M629.798 495.875C626.738 495.918 623.608 496.169 620.407 496.634C607.644 498.488 594.25 503.504 580.762 510.665C574.78 513.84 569.173 517.218 564.088 520.618C562.302 521.813 560.697 522.933 559.308 523.936C558.458 524.55 557.874 524.998 557.537 525.257C554.51 527.584 553.945 531.931 556.272 534.958C558.598 537.985 562.917 538.55 565.944 536.223C565.989 536.188 566.972 535.468 567.406 535.155C568.663 534.246 570.12 533.217 571.764 532.118C576.48 528.964 581.715 525.809 587.257 522.867C599.46 516.389 611.439 511.92 622.403 510.327C627.578 509.575 632.404 509.485 636.856 510.102C640.637 510.626 644.12 507.979 644.644 504.198C645.168 500.416 642.549 496.933 638.768 496.409C635.86 496.006 632.858 495.832 629.798 495.875Z" fill="black"/>
<path d="M240.24 365.123C240.24 365.123 199.802 323.791 266.777 278.498C333.752 233.204 560.363 291.262 560.363 291.262L567.466 321.694C567.466 321.694 575.04 361.184 558.448 382.294C541.857 403.403 364.175 435.458 240.24 365.123Z" fill="#DFFFEA"/>
<path d="M358.634 254.543C315.633 253.875 282.944 259.497 263.036 272.96C239.603 288.807 226.63 305.67 222.715 323.037C219.687 336.475 222.271 348.949 228.367 359.871C229.866 362.556 231.469 364.939 233.091 367.012C233.671 367.754 234.221 368.415 234.722 368.981C235.046 369.348 235.309 369.62 235.481 369.796C235.918 370.243 236.4 370.612 236.943 370.921C293.699 403.131 365.777 416.893 439.809 414.671C498.936 412.897 552.733 400.359 563.694 386.413C569.324 379.25 572.803 370.14 574.547 359.561C576.314 348.843 576.21 337.565 574.969 326.889C574.769 325.173 574.537 323.62 574.322 322.25C574.189 321.405 574.08 320.774 574.013 320.422C573.996 320.335 566.871 289.746 566.871 289.746C566.305 287.321 564.446 285.415 562.035 284.798C561.968 284.78 558.215 283.839 556.72 283.476C552.459 282.441 547.563 281.286 542.099 280.046C526.5 276.506 509.485 272.974 491.601 269.67C461.709 264.149 432.476 259.868 405 257.271C388.468 255.708 372.968 254.766 358.634 254.543ZM359.534 267.955C373.177 268.192 387.953 269.051 403.734 270.542C430.781 273.098 459.651 277.346 489.183 282.801C506.879 286.07 523.715 289.59 539.147 293.092C544.544 294.317 549.373 295.447 553.571 296.466C553.917 296.55 554.271 296.65 554.78 296.776L560.91 322.953C560.95 323.163 561.026 323.636 561.135 324.33C561.323 325.526 561.519 326.904 561.697 328.436C562.806 337.979 562.895 348.086 561.36 357.396C559.953 365.928 557.278 372.994 553.206 378.175C550.284 381.892 536.814 387.429 517.637 391.896C495.591 397.032 468.166 400.451 439.387 401.316C368.005 403.458 298.692 390.311 244.45 359.814C244.193 359.519 244.029 359.314 243.607 358.774C242.393 357.222 241.184 355.404 240.036 353.347C235.429 345.095 233.5 335.871 235.734 325.961C238.833 312.213 249.709 298.109 270.515 284.038C287.838 272.323 318.605 267.245 359.534 267.955Z" fill="black"/>
<path d="M168.627 212.293C171.409 154.717 279.35 129.395 411.674 135.78C543.997 142.165 649.002 181.348 646.221 238.924C643.439 296.5 543.257 339.506 410.933 333.121C278.609 326.736 165.846 269.869 168.627 212.293Z" fill="#93E9CA"/>
<path d="M368.691 161.042L348.342 194.008L399.691 168.569L414.519 200.84L427.602 171.36L476.27 190.2L462.315 156.184L416.961 145.369L372.479 144.845L368.691 161.042Z" fill="#DFFFEA"/>
<path d="M178.531 244.135C208.633 289.337 303.297 327.932 410.92 333.126C505.188 337.674 582.936 317.084 620.984 284.089C420.805 340.78 210.004 257.381 178.531 244.135Z" fill="#82D4D5"/>
<path d="M312.979 319.017C312.979 319.017 269.263 280.908 275.226 238.916C281.189 196.925 333.617 153.691 414.619 158.163C495.62 162.636 543.178 194.069 548.398 246.929C553.617 299.788 499.991 327.279 500.16 331.133C500.16 331.133 587.655 332.866 595.364 247.53C603.073 162.194 444.141 131.361 410.293 134.907C376.444 138.454 227.721 143.662 218.894 226.006C210.067 308.351 312.979 319.017 312.979 319.017Z" fill="#B7F2CC"/>
<path d="M266.1 318.989C263.53 319.478 261.373 321.472 260.786 324.191C259.821 328.618 258.925 333.067 258.087 337.518C257.207 342.195 256.409 346.945 256.428 351.718C256.467 355.634 259.681 358.758 263.598 358.719C267.515 358.68 270.666 355.494 270.627 351.577C270.564 348.095 271.082 344.589 271.527 341.146C272.139 336.406 272.927 331.677 273.917 327.003C274.699 323.377 272.397 319.827 268.772 319.045C267.865 318.85 266.957 318.826 266.1 318.989Z" fill="black"/>
<path d="M299.335 328.436C295.679 327.816 292.195 330.262 291.575 333.918C290.714 338.923 289.954 343.976 289.353 349.017C288.848 353.265 288.452 357.603 288.988 361.867C289.501 365.75 293.09 368.482 296.973 367.968C300.856 367.455 303.588 363.894 303.075 360.011C302.62 356.832 302.97 353.492 303.187 350.311C303.511 345.57 304.041 340.856 304.818 336.168C305.438 332.512 302.991 329.056 299.335 328.436Z" fill="black"/>
<path d="M346.994 339.148C344.416 339.596 342.225 341.556 341.595 344.266C339.396 353.611 336.931 362.875 334.707 372.214C333.82 376.029 336.205 379.847 340.021 380.734C343.836 381.62 347.654 379.234 348.54 375.42C350.662 366.057 352.549 356.659 354.698 347.302C355.538 343.69 353.277 340.072 349.665 339.233C348.762 339.023 347.853 338.999 346.994 339.148Z" fill="black"/>
<path d="M400.134 346.852C396.44 346.534 393.198 349.259 392.88 352.954C392.04 362.396 390.907 371.799 390.04 381.24C389.704 385.142 392.605 388.58 396.507 388.916C400.41 389.252 403.847 386.38 404.183 382.477C404.945 373.028 405.448 363.554 406.236 354.107C406.554 350.412 403.829 347.171 400.134 346.852Z" fill="black"/>
<path d="M460.531 349.328C456.824 349.228 453.742 352.144 453.643 355.851C453.367 365.13 452.82 374.409 452.518 383.687C452.413 387.603 455.491 390.864 459.407 390.969C463.322 391.075 466.584 387.968 466.689 384.053C466.886 374.771 466.859 365.497 467.083 356.216C467.182 352.509 464.238 349.427 460.531 349.328Z" fill="black"/>
<path d="M503.607 345.138C499.902 345.305 497.029 348.435 497.196 352.139C497.619 362.119 497.756 372.104 498.152 382.084C498.328 385.997 501.662 389.037 505.575 388.861C509.488 388.684 512.5 385.379 512.323 381.466C511.822 371.49 511.083 361.526 510.608 351.549C510.441 347.844 507.311 344.972 503.607 345.138Z" fill="black"/>
<path d="M537.01 335.605C533.323 336.006 530.649 339.314 531.049 343C532.002 352.066 532.334 361.259 531.837 370.358C531.645 374.271 534.673 377.59 538.585 377.781C542.497 377.973 545.816 374.974 546.008 371.061C546.437 361.213 545.489 351.325 544.405 341.538C544.005 337.851 540.697 335.205 537.01 335.605Z" fill="black"/>
<path d="M362.711 127.847C315.05 128.474 272.741 133.7 239.614 143.312C191.221 157.352 163.136 180.496 161.617 211.946C158.562 275.182 275.296 333.604 410.595 340.132C544.111 346.575 650.158 303.228 653.247 239.276C654.766 207.824 628.95 181.211 582.335 161.672C539.129 143.562 479.039 131.982 412.001 128.747C395.066 127.93 378.598 127.638 362.711 127.847ZM361.868 141.906C377.644 141.684 394.154 141.977 411.326 142.805C546.464 149.326 641.574 189.179 639.188 238.573C637.981 263.573 614.975 286.938 574.491 303.496C532.075 320.843 474.393 329.148 411.27 326.102C348.141 323.056 287.335 308.172 242.257 285.613C198.639 263.784 174.466 237.074 175.647 212.621C177.702 170.079 251.435 143.458 361.868 141.906Z" fill="black"/>
<path d="M452.265 125.008C446.747 124.482 441.854 128.544 441.327 134.062C440.801 139.58 444.863 144.473 450.381 145C563.755 155.816 638.321 194.698 636.208 238.433C634.967 264.124 608.739 288.468 562.962 304.677C557.738 306.528 555.011 312.246 556.861 317.471C558.711 322.696 564.458 325.451 569.683 323.6C622.291 304.972 654.535 275.036 656.256 239.417C659.104 180.447 575.333 136.75 452.265 125.008Z" fill="black"/>
<path d="M370.893 120.312C316.855 120.55 268.731 127.241 232.219 139.825C186.815 155.474 160.005 179.988 158.468 211.805C156.815 246.004 187.585 278.702 239.783 303.552C244.858 305.968 250.947 303.819 253.363 298.744C255.78 293.668 253.631 287.608 248.555 285.191C202.967 263.488 177.646 236.589 178.796 212.789C180.977 167.65 268.981 137.31 393.781 140.95C399.4 141.114 404.105 136.7 404.269 131.08C404.433 125.461 400.019 120.757 394.399 120.593C386.455 120.361 378.613 120.278 370.893 120.312Z" fill="black"/>
<path d="M241.807 285.895C239.047 285.71 236.209 286.574 233.962 288.538C227.649 294.101 222.19 300.667 218.723 308.389C213.204 320.679 212.755 334.521 216.333 347.416C217.43 351.368 218.816 355.353 220.775 358.972C223.472 363.939 229.698 365.773 234.665 363.077C239.633 360.381 241.467 354.155 238.77 349.187C238.784 349.212 238.564 348.78 238.517 348.681C238.343 348.311 238.17 347.934 238.011 347.556C237.483 346.303 237.035 345.032 236.634 343.732C235.549 340.22 234.89 336.557 234.806 332.879C234.753 330.537 234.927 328.184 235.34 325.878C236.861 317.397 241.784 310.365 248.19 304.818C252.684 300.889 253.131 294.045 249.202 289.55C247.237 287.303 244.567 286.08 241.807 285.895Z" fill="black"/>
<path d="M572.24 308.95C570.908 308.746 569.496 308.796 568.107 309.147C562.55 310.553 559.193 316.215 560.6 321.772C560.592 321.74 560.62 321.824 560.628 321.856C560.643 321.922 560.669 321.987 560.684 322.053C560.721 322.216 560.733 322.395 560.768 322.559C560.886 323.1 561.002 323.618 561.106 324.162C561.419 325.805 561.698 327.481 561.921 329.138C562.577 334.019 562.873 338.948 562.765 343.872C562.437 358.759 558.791 373.819 549.212 385.542C545.401 390.245 546.111 397.166 550.815 400.978C555.519 404.79 562.44 404.051 566.251 399.347C570.72 393.794 574.399 387.689 577.133 381.099C582.608 367.897 584.204 353.393 583.656 339.204C583.473 334.465 583.02 329.754 582.334 325.061C581.923 322.25 581.428 319.411 580.732 316.654C579.677 312.487 576.238 309.564 572.24 308.95Z" fill="black"/>
<path d="M419.142 127.706C415.56 127.634 412.356 127.753 409.582 128.044C409.626 128.039 383.069 130.325 372.045 131.558C352.027 133.798 333.641 136.77 316.204 140.922C288.97 147.405 266.131 156.319 248.61 168.364C227.328 182.996 214.537 201.884 212.03 225.273C209.703 246.978 214.442 265.502 225.273 280.805C234.268 293.513 247.066 303.501 262.613 311.143C273.478 316.484 285.067 320.371 296.635 323.065C300.681 324.008 304.435 324.747 307.825 325.286C309.894 325.615 311.408 325.816 312.268 325.905C318.98 326.601 322.613 318.249 317.526 313.815C317.483 313.778 316.487 312.892 316.064 312.493C314.834 311.332 313.478 309.968 311.987 308.416C307.706 303.963 303.41 298.926 299.418 293.43C286.395 275.497 279.619 257.153 282.07 239.894C284.817 220.55 298.635 201.076 320.534 186.921C345.001 171.107 377.459 163.043 414.249 165.074C492.302 169.384 536.69 198.803 541.508 247.598C543.646 269.255 535.331 287.773 519.436 304.48C514.593 309.57 509.875 313.744 503.409 318.904C502.858 319.344 500.769 320.994 500.288 321.378C499.173 322.269 498.38 322.903 497.701 323.487C496.781 324.279 496.073 324.947 495.48 325.624C494.019 327.292 493.146 328.883 493.259 331.444C493.419 335.087 496.389 337.979 500.035 338.052C500.085 338.053 500.059 338.05 500.176 338.052C501.44 338.064 503.297 338.029 505.63 337.883C509.197 337.659 513.077 337.22 517.215 336.561C528.76 334.724 540.261 331.354 551.068 326.046C579.957 311.854 598.777 286.513 602.241 248.161C604.255 225.868 596.119 205.888 579.438 188.637C565.304 174.019 545.299 161.599 521.067 151.494C487.148 137.349 444.215 128.214 419.142 127.706ZM418.495 141.568C427.293 141.771 439.736 143.204 453.276 145.786C474.436 149.82 496.315 156.153 515.753 164.259C564.433 184.56 591.587 212.627 588.492 246.896C585.48 280.241 569.711 301.504 544.995 313.646C537.542 317.307 529.613 319.908 521.573 321.659C524.299 319.209 526.878 316.74 529.474 314.011C547.902 294.642 557.872 272.441 555.285 246.249C549.674 189.421 499.108 155.912 415.008 151.269C375.371 149.08 340.014 157.866 313.027 175.309C287.944 191.522 271.725 214.379 268.377 237.954C265.327 259.427 273.297 280.968 288.228 301.527C289.782 303.668 291.418 305.653 293.036 307.657C284.712 305.338 276.457 302.549 268.714 298.744C255.091 292.048 244.103 283.453 236.576 272.82C227.699 260.278 223.81 245.107 225.779 226.735C229.62 190.906 263.388 167.698 319.41 154.362C336.232 150.357 354.063 147.461 373.564 145.28C384.369 144.071 410.873 141.808 411.016 141.793C413.046 141.58 415.562 141.501 418.495 141.568Z" fill="black"/>
<path d="M399.013 43.6553L397.832 68.5953L362.966 67.6112L361.926 104.838L396.088 105.794L394.362 128.849L444.186 131.21L445.968 107.2L476.082 108.044L477.122 70.8166L447.712 70.0012L448.836 45.989L399.013 43.6553Z" fill="#FFA0CA"/>
<path d="M399.488 33.6264C393.953 33.3671 389.262 37.6519 389 43.1862L388.297 58.2852L363.245 57.5823C357.703 57.4259 353.081 61.7975 352.926 67.339L351.885 104.566C351.73 110.106 356.101 114.702 361.642 114.857L385.598 115.532L385.12 125.907C384.863 131.444 389.143 136.137 394.68 136.395C400.216 136.652 404.91 132.372 405.167 126.835L406.123 106.253C406.384 100.644 401.98 95.9224 396.367 95.7655L372.242 95.0907L372.72 77.9111L397.548 78.614C403.013 78.7683 407.608 74.5441 407.867 69.0822L408.57 54.152L438.346 55.5297L437.699 69.5321C437.436 75.1436 441.812 79.8642 447.428 80.0198L466.8 80.5541L466.322 97.7337L446.247 97.1714C440.78 97.0183 436.213 101.268 435.956 106.731L434.944 128.269C434.683 133.805 438.939 138.496 444.475 138.757C450.012 139.017 454.731 134.733 454.991 129.197L455.554 117.5L475.798 118.062C481.339 118.217 485.962 113.874 486.117 108.334L487.157 71.1067C487.312 65.5652 482.942 60.9412 477.401 60.7876L458.225 60.2534L458.871 46.4478C459.131 40.9112 454.848 36.2195 449.312 35.9601L399.488 33.6264Z" fill="black"/>
<path opacity="0.203921" d="M648.458 238.815C648.458 238.815 398.105 313.766 186.125 245.985L231.957 289.033L297.104 312.595L339.477 322.97L407.774 377.321C340.239 378.191 269.116 371.349 231.704 343.777L234.431 362.813L270.955 381.117L325.306 398.184L370.968 404.623C370.968 404.623 454.825 420.562 478.039 437.886C496.031 451.313 530.875 461.791 545.952 501.879C447.98 743.178 217.364 691.672 217.364 691.672L276.382 736.969L330.648 752.771L389.947 753.952L453.296 741.299L503.373 711.72L558.482 654.389L590.649 660.743L624.699 646.713L655.937 610.273L671.868 536.384L606.247 565.068C571.679 561.439 576.178 518.96 576.178 518.96L601.335 499.72L585.475 459.283L587.527 457.624L555.643 389.721L561.322 379.992L561.997 379.964L562.222 378.446L571.219 363.038C571.219 363.038 567.188 363.662 564.331 364.106L572.204 310.739C622.543 293.339 648.458 238.815 648.458 238.815Z" fill="black"/>
</svg>
