<svg width="800" height="800" viewBox="0 0 800 800" fill="none" xmlns="http://www.w3.org/2000/svg">
<path d="M156.039 565.871C156.039 565.871 120.348 562.588 106.51 583.64C92.6703 604.691 98.2304 681.654 212.802 681.274" fill="#F3886D"/>
<path d="M148.191 555.56C141.031 555.72 133.3 556.712 125.697 558.963C113.895 562.456 104.289 568.603 98.058 578.082C87.4486 594.221 88.4878 623.337 102.978 645.957C121.453 674.796 158.236 691.576 212.832 691.395L212.776 671.15C164.643 671.31 134.432 657.548 120.017 635.048C114.502 626.439 111.609 616.816 111.273 607.465C110.994 599.69 112.575 592.811 114.956 589.189C118.238 584.197 123.876 580.608 131.461 578.363C139.036 576.121 147.237 575.54 154.096 575.889C154.421 575.906 155.108 575.945 155.108 575.945L156.963 555.785C156.577 555.75 155.961 555.715 155.136 555.673C152.899 555.559 150.578 555.507 148.191 555.56Z" fill="black"/>
<path d="M562.802 383.774C562.802 383.774 566.997 354.668 586.302 311.05C605.606 267.433 640.021 209.305 700.461 151.262C700.461 151.262 694.982 144.242 682.954 140.561C670.926 136.88 652.349 136.537 626.153 149.892C626.153 149.892 627.589 140.332 626.303 126.912C625.018 113.491 621.009 96.2107 610.12 80.7702C610.12 80.7702 602.04 80.5964 590.33 84.3915C578.621 88.1867 563.28 95.9508 548.758 111.826C548.758 111.826 546.338 98.4021 541.897 83.875C537.456 69.3479 530.994 53.7183 522.909 49.3081C522.909 49.3081 513.481 50.4316 500.649 56.8921C487.816 63.3526 471.578 75.1502 457.959 96.4983C457.959 96.4983 456.202 86.8468 450.587 75.0329C444.973 63.219 435.499 49.2426 420.065 40.5928C420.065 40.5928 411.902 42.9687 401.326 51.641C390.751 60.3134 377.762 75.2822 368.111 100.468C368.111 100.468 362.955 90.3103 354.222 78.4205C345.489 66.5308 333.179 52.909 318.869 45.9813C318.869 45.9813 310.37 50.3989 301.217 61.3236C292.064 72.2484 282.256 89.6801 279.638 115.708C279.638 115.708 271.972 111.047 258.426 105.972C244.88 100.897 225.455 95.4093 201.936 93.7552C201.936 93.7552 216.339 109.705 231.688 146.077C247.037 182.448 263.332 239.241 267.115 320.927C267.115 320.927 300.538 325.433 354.21 335.542C407.883 345.651 481.804 361.363 562.802 383.774Z" fill="#AF93E5"/>
<path d="M261.58 241.866C261.58 241.866 299.034 147.453 350.14 148.146C401.246 148.838 448.055 204.345 451.514 269.4C451.514 269.4 471.571 278.083 495.548 291.282C530.449 310.494 573.655 339.273 575.397 364.766C578.337 407.774 546.469 388.425 546.469 388.425L360.649 348.314L277.142 352.109L264.318 315.604L261.58 241.866Z" fill="#ABACE3"/>
<path d="M280.285 249.124L307.055 225.542L299.771 190.689L336.35 195.422L351.747 158.82L370.337 193.085L396.315 181.201L392.623 215.938L423.459 230.877L387.795 253.039L415.844 296.459L368.211 280.93L353.539 322.416L337.255 281.143L297.967 302.882L316.022 260.449L280.285 249.124Z" fill="#C3C4E1"/>
<path d="M630.563 144.135C630.563 144.135 558.852 221.269 528.722 342.995C498.592 464.722 566.084 382.767 566.084 382.767L591.599 303.321L625.192 240.053C625.192 240.053 650.388 208.419 656.826 201.98C663.265 195.541 692.1 160.828 692.1 160.828L703.018 147.39L685.661 136.193L658.786 137.592L630.563 144.135Z" fill="#B876D1"/>
<path d="M536.144 316.627C533.484 325.188 530.966 333.931 528.721 343.001C524.434 360.321 522.277 373.144 521.467 383.04L546.463 388.438C546.463 388.438 551.423 391.334 557.232 392.347C562.31 387.197 566.089 382.759 566.089 382.759L573.99 358.184C569.469 344.294 554.354 329.802 536.144 316.627Z" fill="#AF93E5"/>
<path d="M358.518 201.328C358.518 201.328 334.746 205.699 330.162 213.587C325.578 221.476 326.218 244.502 330.055 251.005C333.893 257.508 347.858 272.219 358.412 269.447C358.412 269.447 393.164 242.157 358.518 201.328Z" fill="#FFD000"/>
<path d="M561.095 387.451C561.095 387.451 565.29 358.344 584.594 314.726C603.899 271.109 638.315 212.981 698.754 154.938C698.754 154.938 693.275 147.918 681.246 144.237C669.219 140.556 650.641 140.214 624.445 153.569C624.445 153.569 625.882 144.008 624.596 130.588C623.31 117.167 619.303 99.8866 608.413 84.4461C608.413 84.4461 600.333 84.2723 588.624 88.0674C576.914 91.8625 561.574 99.6266 547.051 115.503C547.051 115.503 544.631 102.078 540.19 87.5509C535.749 73.0238 529.288 57.3941 521.202 52.984C521.202 52.984 511.774 54.1075 498.941 60.568C486.109 67.0285 469.872 78.826 456.251 100.174C456.251 100.174 454.496 90.5227 448.881 78.7088C443.266 66.8948 433.793 52.9184 418.359 44.2686C418.359 44.2686 410.195 46.6445 399.619 55.3169C389.044 63.9892 376.055 78.9581 366.404 104.144C366.404 104.144 361.248 93.9862 352.515 82.0964C343.783 70.2066 331.471 56.5849 317.161 49.6571C317.161 49.6571 308.663 54.0748 299.51 64.9995C290.357 75.9242 280.55 93.356 277.932 119.384C277.932 119.384 270.266 114.723 256.72 109.648C243.174 104.574 223.748 99.0851 200.229 97.431C200.229 97.431 214.633 113.381 229.982 149.753C245.331 186.124 261.626 242.917 265.409 324.604C265.409 324.604 298.832 329.11 352.503 339.219C406.175 349.328 480.098 365.04 561.095 387.451Z" fill="#93E9CA"/>
<path d="M259.873 245.542C259.873 245.542 297.326 151.129 348.432 151.822C399.538 152.514 446.348 208.021 449.806 273.076C449.806 273.076 469.864 281.76 493.841 294.959C528.742 314.17 571.947 342.949 573.69 368.443C576.629 411.45 544.762 392.102 544.762 392.102L358.942 351.99L275.434 355.786L262.61 319.28L259.873 245.542Z" fill="#B7F2CC"/>
<path d="M278.578 252.801L305.348 229.218L298.065 194.366L334.643 199.099L350.041 162.496L368.631 196.762L394.609 184.877L390.916 219.615L421.753 234.553L386.089 256.716L414.138 300.136L366.505 284.607L351.833 326.092L335.548 284.819L296.261 306.558L314.316 264.125L278.578 252.801Z" fill="#DFFFEA"/>
<path d="M628.855 147.812C628.855 147.812 557.145 224.945 527.015 346.672C496.885 468.398 564.376 386.444 564.376 386.444L589.891 306.997L623.485 243.729C623.485 243.729 648.68 212.095 655.119 205.657C661.558 199.218 690.393 164.504 690.393 164.504L701.311 151.067L683.954 139.869L657.079 141.269L628.855 147.812Z" fill="#82D4D5"/>
<path d="M534.437 320.303C531.777 328.865 529.259 337.607 527.014 346.677C522.727 363.997 520.57 376.821 519.76 386.716L544.756 392.115C544.756 392.115 549.716 395.01 555.525 396.023C560.602 390.873 564.382 386.435 564.382 386.435L572.283 361.861C567.762 347.97 552.646 333.479 534.437 320.303Z" fill="#93E9CA"/>
<path d="M356.813 205.004C356.813 205.004 333.041 209.375 328.457 217.264C323.873 225.152 324.512 248.178 328.35 254.681C332.188 261.184 346.153 275.895 356.706 273.123C356.706 273.123 391.459 245.833 356.813 205.004Z" fill="#FFA0CA"/>
<path d="M357.383 198.246C356.793 198.197 356.182 198.221 355.584 198.331C354.564 198.518 352.863 198.853 350.691 199.371C347.074 200.234 343.458 201.273 340.035 202.464C331.491 205.436 325.485 208.841 322.574 213.851C316.963 223.507 317.189 249.153 322.49 258.136C325.138 262.623 330.371 268.463 335.817 272.729C343.414 278.68 351.096 281.627 358.424 279.702C359.323 279.466 360.167 279.039 360.898 278.465C361.115 278.294 361.44 278.041 361.854 277.677C362.493 277.116 363.192 276.454 363.935 275.709C366.019 273.619 368.103 271.179 370.036 268.399C375.603 260.391 378.965 251.15 378.977 240.816C378.993 227.775 373.577 214.257 361.995 200.608C360.814 199.217 359.154 198.393 357.383 198.246ZM353.981 212.558C361.735 222.63 365.407 232.048 365.397 240.788C365.388 248.11 362.963 254.756 358.874 260.638C357.421 262.728 355.862 264.573 354.319 266.121C354.143 266.297 354.005 266.413 353.841 266.571C348.545 266.508 338.429 258.359 334.215 251.219C331.397 246.445 331.2 226.065 334.327 220.684C334.582 220.246 335.592 219.368 337.279 218.406C339.156 217.337 341.605 216.284 344.478 215.285C347.424 214.26 350.634 213.351 353.841 212.586C353.892 212.574 353.931 212.57 353.981 212.558Z" fill="black"/>
<path d="M419.522 34.0696C418.18 33.9161 416.797 34.0219 415.474 34.407C414.946 34.5606 414.196 34.8201 413.224 35.1942C411.761 35.7577 410.128 36.4771 408.36 37.3593C403.485 39.7919 398.328 43.0758 393.092 47.369C382.531 56.0294 373.044 67.6031 365.144 82.2907C363.735 80.2046 362.321 78.1102 360.786 76.0205C348.967 59.9299 335.965 47.3279 321.646 40.3959C318.726 38.9819 315.303 39.0398 312.424 40.5365C311.928 40.7944 311.193 41.2204 310.259 41.8018C308.826 42.6935 307.245 43.7642 305.563 45.0353C300.878 48.5754 296.167 52.9943 291.645 58.391C281.477 70.5276 273.943 85.7064 270.023 103.969C266.996 102.637 263.784 101.329 260.323 100.033C242.507 93.3582 222.56 88.7037 200.939 87.1831C191.711 86.5341 186.416 97.4409 192.616 104.306C192.641 104.334 192.748 104.505 192.982 104.784C193.425 105.315 193.972 105.958 194.584 106.753C196.401 109.11 198.454 112.03 200.714 115.525C207.29 125.693 214.028 138.38 220.509 153.737C239.219 198.074 251.895 254.808 255.149 325.083C255.379 330.042 259.114 334.12 264.034 334.784C264.086 334.791 268.276 335.376 269.995 335.627C274.919 336.347 280.682 337.231 287.231 338.27C305.967 341.243 327.225 344.916 350.607 349.32C417.431 361.906 487.789 377.817 558.366 397.344C564.332 398.995 570.388 395.037 571.271 388.909C571.29 388.777 571.342 388.434 571.44 387.869C571.613 386.867 571.831 385.661 572.115 384.27C572.94 380.221 574.061 375.508 575.517 370.155C579.712 354.732 585.76 337.494 593.99 318.897C617.597 265.56 653.982 212.169 705.869 162.34C709.668 158.691 710.094 152.772 706.853 148.619C706.214 147.801 705.205 146.677 703.816 145.386C701.684 143.403 699.148 141.468 696.168 139.678C692.609 137.54 688.628 135.761 684.247 134.42C670.289 130.148 653.89 130.926 635.238 137.71C635.154 135.062 635.087 132.442 634.816 129.612C633.051 111.187 627.49 93.649 616.821 78.5229C614.941 75.857 611.9 74.2349 608.639 74.1648C608.578 74.1635 608.561 74.1659 608.47 74.1648C606.765 74.1462 604.288 74.2861 601.132 74.699C596.279 75.3338 590.998 76.4976 585.442 78.298C574.234 81.9306 563.293 87.7423 552.995 95.9556C552.016 92.1338 551.16 88.2874 550.015 84.54C543.648 63.7117 536.497 49.6299 526.115 43.9668C524.242 42.9451 522.104 42.5334 519.985 42.7859C519.459 42.8486 518.646 42.9796 517.596 43.1795C515.975 43.4878 514.172 43.8945 512.169 44.4448C506.583 45.9798 500.558 48.2468 494.314 51.3898C481.882 57.6486 470.221 66.5475 459.871 78.3261C459.296 76.9849 458.797 75.6554 458.156 74.3054C450.296 57.7677 438.959 44.0409 423.375 35.3067C422.172 34.633 420.865 34.223 419.522 34.0696ZM417.442 55.8042C426.863 62.2796 434.183 71.7128 439.598 83.1061C441.808 87.7557 443.52 92.4051 444.8 96.7711C445.242 98.2783 445.596 99.618 445.868 100.792C446.02 101.446 446.123 101.856 446.15 102.001C447.822 111.192 459.879 113.588 464.904 105.712C475.791 88.6464 489.124 77.0204 503.565 69.7504C508.551 67.2404 513.279 65.4536 517.596 64.2675C517.926 64.1767 518.155 64.151 518.467 64.0707C522.021 68.2772 526.477 77.8521 530.361 90.5571C532.22 96.6401 533.857 102.999 535.253 109.227C535.742 111.407 536.164 113.408 536.518 115.188C536.641 115.804 536.926 117.249 536.94 117.325C538.449 125.696 548.885 128.718 554.626 122.442C566.087 109.913 578.797 102.053 591.797 97.8395C595.789 96.5456 599.509 95.7512 602.931 95.2527C609.352 106.09 613.116 118.434 614.375 131.58C615.017 138.275 614.974 144.383 614.544 149.519C614.479 150.294 614.414 150.983 614.347 151.543C614.311 151.843 614.297 152.01 614.291 152.049C613.048 160.316 621.661 166.531 629.109 162.734C649.75 152.211 665.862 150.289 678.229 154.074C680.018 154.621 681.645 155.293 683.178 156.042C633.863 205.358 598.521 257.899 575.208 310.575C566.547 330.143 560.154 348.358 555.694 364.757C554.672 368.515 554.013 371.551 553.276 374.766C485.669 356.394 418.42 341.189 354.403 329.132C330.821 324.691 309.362 320.972 290.436 317.969C284.635 317.049 279.702 316.31 275.14 315.636C273.84 293.161 271.593 272.005 268.499 252.144C262.129 211.257 252.166 175.86 239.46 145.751C233.746 132.212 227.779 120.629 221.83 110.689C232.888 112.776 243.411 115.626 253.125 119.265C258.707 121.356 263.628 123.525 267.83 125.619C269.272 126.338 270.509 126.986 271.541 127.559C272.119 127.88 272.457 128.102 272.582 128.178C279.041 132.106 287.402 127.94 288.159 120.418C290.239 99.7422 297.244 83.7171 307.391 71.6061C310.729 67.6224 314.167 64.4037 317.513 61.8213C326.63 67.5355 335.716 76.5829 344.224 88.1672C347.83 93.0763 351.086 98.0625 353.897 102.816C354.875 104.47 355.709 105.968 356.427 107.287C356.673 107.738 357.223 108.768 357.243 108.805C361.274 116.748 372.81 116.139 375.997 107.821C383.801 87.4559 394.294 72.9685 406.139 63.2553C410.117 59.9926 413.938 57.5631 417.442 55.8042Z" fill="black"/>
<path d="M149.021 525.744C149.021 401.454 251.147 300.697 377.126 300.697C503.105 300.697 605.231 401.454 605.231 525.744C605.231 650.034 503.105 750.791 377.126 750.791C251.147 750.791 149.021 650.034 149.021 525.744Z" fill="#F3886D"/>
<path d="M438.838 342.628C393.743 342.628 348.438 373.329 325.863 412.472C312.557 378.398 278.462 355.618 247.106 355.618C207.11 355.618 155.529 432.088 155.529 482.427C155.528 510.664 174.393 524.305 198.014 530.845C195.585 539.271 194.134 548.023 194.134 557.079C194.134 618.339 258.04 711.752 339.444 697.524C413.292 684.617 438.838 615.077 438.838 553.817C438.838 550.064 438.611 546.373 438.219 542.739C496.036 538.196 541.129 501.217 541.129 445.369C541.129 385.67 502.357 342.628 438.838 342.628Z" fill="#F9B192"/>
<path d="M451.858 407.13C449.7 406.775 446.908 408.092 445.138 408.93C442.873 410.003 440.679 411.23 438.503 412.473C435.613 414.122 432.744 415.81 429.899 417.534C424.898 420.563 419.945 423.653 415.025 426.812C411.848 428.848 410.908 433.083 412.944 436.26C414.98 439.436 419.215 440.348 422.391 438.312C429.034 434.065 435.758 429.93 442.608 426.025C444.774 424.79 446.958 423.574 449.187 422.454C449.307 422.394 449.433 422.345 449.553 422.286C451.606 424.484 453.531 426.803 455.345 429.202C460.906 436.556 465.4 444.62 468.926 453.13C470.459 456.809 474.694 458.572 478.373 457.038C482.051 455.505 483.786 451.269 482.253 447.591C479.659 441.403 476.646 435.401 473.087 429.708C470.912 426.23 468.522 422.884 465.973 419.671C463.702 416.807 461.281 414.069 458.691 411.488C458.03 410.83 457.356 410.177 456.666 409.548C456.412 409.317 456.153 408.963 455.851 408.789C455.096 408.355 454.377 407.832 453.573 407.496C453.032 407.27 452.438 407.226 451.858 407.13ZM446.713 419.418C446.719 419.434 446.779 419.478 446.797 419.502C446.768 419.485 446.742 419.462 446.713 419.446C446.704 419.44 446.709 419.408 446.713 419.418Z" fill="black"/>
<path d="M234.905 403.362C234.36 403.267 233.818 403.406 233.274 403.502C230.328 404.021 227.765 405.833 225.57 407.776C223.375 409.718 221.421 411.907 219.553 414.159C215.717 418.778 212.21 423.702 208.84 428.667C205.799 433.148 202.85 437.702 200.039 442.332C198.079 445.556 199.093 449.735 202.317 451.695C205.541 453.655 209.748 452.642 211.708 449.418C216.862 440.966 222.392 432.648 228.663 424.984C230.411 422.847 232.243 420.719 234.286 418.854C234.418 418.733 234.572 418.635 234.708 418.517C234.746 418.543 234.781 418.575 234.82 418.601C236.582 419.79 238.247 421.09 239.853 422.481C244.59 426.586 248.608 431.38 251.944 436.681C254.074 440.048 258.529 441.061 261.897 438.93C265.265 436.799 266.277 432.344 264.146 428.976C258.796 420.559 251.953 413.094 243.705 407.439C242.436 406.568 241.136 405.722 239.797 404.964C239.313 404.69 238.717 404.223 238.166 404.093C237.086 403.837 235.997 403.551 234.905 403.362Z" fill="black"/>
<path d="M252.844 500.927C252.844 500.927 303.166 474.204 365.054 498.429C365.054 498.429 351.407 620.872 305.482 654.071C305.482 654.071 255.353 623.705 252.844 500.927Z" fill="#AC3A34"/>
<path d="M344.815 589.245C315.959 590.949 296.828 613.476 285.684 632.602C296.338 648.461 305.479 654.083 305.479 654.083C322.914 641.48 335.665 615.99 344.815 589.245Z" fill="#FF5A51"/>
<path d="M438.839 335.824C396.616 335.824 352.769 361.488 326.764 398.554C310.256 368.942 278.331 348.814 247.107 348.814C225.471 348.814 201.085 367.346 180.751 396.22C161.294 423.847 148.725 456.666 148.725 482.427C148.725 509.264 163.864 526.303 189.889 535.288C188.232 542.584 187.33 549.836 187.33 557.079C187.33 589.946 204.358 630.132 231.193 660.128C261.553 694.064 300.394 711.248 340.625 704.216C377.268 697.812 404.8 677.803 422.7 647.251C438.002 621.133 445.643 588.131 445.643 553.817C445.643 552.16 445.443 550.436 445.362 548.756C505.378 541.483 547.934 501.033 547.934 445.369C547.934 380.48 504.724 335.824 438.839 335.824ZM438.839 349.433C497.116 349.433 534.325 387.887 534.325 445.369C534.325 495.41 494.581 531.492 437.686 535.963C433.868 536.263 431.062 539.662 431.472 543.47C431.855 547.025 432.035 550.453 432.035 553.817C432.035 585.864 424.956 616.499 410.975 640.362C395.042 667.556 370.861 685.135 338.264 690.832C303.13 696.973 268.778 681.772 241.315 651.075C216.606 623.455 200.939 586.415 200.939 557.079C200.939 549.072 202.155 540.997 204.538 532.729C205.585 529.096 203.458 525.303 199.814 524.294C175.161 517.468 162.334 504.472 162.334 482.427C162.334 433.82 212.613 362.423 247.107 362.423C276.528 362.423 307.58 384.325 319.538 414.946C321.611 420.255 328.893 420.811 331.74 415.874C354.027 377.232 397.802 349.433 438.839 349.433Z" fill="black" fill-opacity="0.401653"/>
<path d="M377.122 293.901C247.41 293.901 142.23 397.692 142.23 525.756C142.23 653.82 247.41 757.583 377.122 757.583C506.833 757.583 612.013 653.82 612.013 525.756C612.013 397.692 506.833 293.901 377.122 293.901ZM377.122 307.482C499.368 307.482 598.433 405.239 598.433 525.756C598.433 646.273 499.368 744.002 377.122 744.002C254.875 744.002 155.811 646.273 155.811 525.756C155.811 405.239 254.875 307.482 377.122 307.482Z" fill="black"/>
<path d="M263.801 314.442C262.471 314.58 261.15 314.977 259.905 315.659C183.643 357.487 135.262 437.306 135.262 525.581C135.262 540.099 136.559 554.325 139.044 568.131C139.201 569 139.447 569.841 139.613 570.707C140.946 570.18 142.451 569.968 143.822 569.632C146.494 568.976 149.085 568.107 151.756 567.452C154.158 566.863 156.432 567.484 158.78 567.254C159.126 567.22 159.464 567.148 159.804 567.084C159.734 566.722 159.644 566.37 159.577 566.008C157.121 552.906 155.851 539.391 155.851 525.581C155.851 444.851 200.075 371.866 269.83 333.608C274.81 330.877 276.64 324.637 273.896 319.68C271.839 315.961 267.791 314.03 263.801 314.442ZM560.89 377.093C558.281 376.741 555.534 377.365 553.269 379.075C548.737 382.493 547.844 388.917 551.278 393.428C580.021 431.187 595.84 477.18 595.84 525.581C595.84 646.538 497.347 744.59 375.846 744.59C311.265 744.59 253.228 716.856 212.983 672.738C211.107 674.794 208.87 676.514 205.959 677.409C201.433 678.799 196.191 678.895 191.427 679.278C192.034 679.999 192.575 680.772 193.19 681.486C237.313 732.667 302.782 765.086 375.846 765.086C508.719 765.086 616.429 657.858 616.429 525.581C616.429 472.671 599.119 422.32 567.687 381.028C565.97 378.772 563.499 377.445 560.89 377.093Z" fill="black"/>
<path d="M413.386 516.099C414.928 503.965 434.902 496.218 458 498.795C481.098 501.373 498.573 513.298 497.031 525.431C495.49 537.564 475.515 545.311 452.417 542.734C429.319 540.157 411.845 528.232 413.386 516.099Z" fill="#FF497F"/>
<path d="M132.866 518.755C131.731 506.577 149.542 494.67 172.648 492.161C195.753 489.653 215.403 497.491 216.538 509.669C217.673 521.847 199.862 533.754 176.756 536.262C153.651 538.771 134 530.933 132.866 518.755Z" fill="#FF497F"/>
<path d="M181.566 485.576C178.44 485.563 175.234 485.729 171.978 486.083C145.988 488.905 125.225 502.779 126.766 519.317C128.317 535.973 151.358 545.174 177.405 542.345C203.395 539.523 224.158 525.648 222.617 509.111C221.26 494.537 203.446 485.668 181.566 485.576ZM180.666 497.807C197.298 497.688 209.815 503.497 210.443 510.235C211.171 518.054 196.304 528.003 176.083 530.199C155.919 532.388 139.658 525.893 138.94 518.192C138.212 510.374 153.079 500.425 173.3 498.229C175.82 497.956 178.29 497.825 180.666 497.807Z" fill="black"/>
<path d="M449.101 492.185C427.211 492.196 409.15 500.908 407.319 515.326C405.21 531.92 425.706 545.908 451.744 548.813C477.726 551.712 500.993 542.684 503.086 526.207C505.194 509.613 484.727 495.624 458.689 492.719C455.441 492.357 452.228 492.183 449.101 492.185ZM449.916 504.416C452.309 504.44 454.784 504.584 457.311 504.866C477.469 507.115 491.942 516.988 490.967 524.66C489.978 532.45 473.307 538.922 453.094 536.667C432.936 534.418 418.462 524.545 419.437 516.872C420.303 510.056 433.17 504.249 449.916 504.416Z" fill="black"/>
<path d="M309.134 481.499C294.027 481.752 279.935 484.195 267.155 488.107C262.397 489.563 258.138 491.115 254.446 492.69C253.135 493.25 251.978 493.789 250.988 494.265C250.364 494.564 249.932 494.77 249.666 494.911C247.402 496.114 245.986 498.506 246.039 501.069C247.134 554.64 257.108 595.375 273.144 624.982C279.215 636.191 285.782 645.056 292.404 651.806C294.777 654.224 296.978 656.203 299.012 657.795C299.753 658.375 300.44 658.874 301.036 659.285C301.436 659.56 301.749 659.745 301.964 659.875C304.299 661.29 307.26 661.165 309.472 659.566C328.302 645.954 342.857 618.977 354.234 582.384C359.9 564.162 364.408 544.684 367.871 525.222C369.082 518.415 370.085 512.092 370.88 506.411C371.159 504.417 371.704 500.094 371.751 499.691C371.78 499.444 371.797 499.28 371.807 499.185C372.148 496.129 370.397 493.22 367.534 492.1C348.05 484.473 328.443 481.176 309.134 481.499ZM309.387 495.08C325.335 494.813 341.477 497.418 357.608 503.065C357.538 503.582 357.489 503.974 357.411 504.527C356.639 510.048 355.668 516.197 354.487 522.832C351.116 541.775 346.751 560.713 341.272 578.335C331.588 609.48 319.499 632.755 305.395 645.254C304.321 644.316 303.318 643.511 302.105 642.274C296.367 636.425 290.558 628.604 285.094 618.515C270.575 591.71 261.316 554.432 259.816 505.202C263.073 503.814 266.844 502.406 271.12 501.097C282.739 497.541 295.622 495.311 309.387 495.08Z" fill="black"/>
<path d="M344.421 582.469C329.466 583.352 316.059 589.25 304.242 599.198C294.771 607.171 286.663 617.406 279.808 629.171C278.497 631.42 278.581 634.237 280.033 636.397C284.983 643.767 290.042 649.669 294.935 654.252C296.692 655.898 298.304 657.275 299.771 658.385C300.715 659.1 301.438 659.586 301.908 659.875C304.247 661.314 307.246 661.203 309.472 659.594C326.654 647.173 340.267 623.551 351.254 591.438C352.818 586.867 349.243 582.184 344.421 582.469ZM334.383 597.989C326.021 619.478 316.304 635.666 305.395 645.339C304.981 644.974 304.656 644.741 304.214 644.327C300.89 641.213 297.418 637.069 293.923 632.292C304.95 614.716 318.427 602.503 334.383 597.989Z" fill="black"/>
<path d="M148.854 526.656C148.854 402.366 250.98 301.609 376.959 301.609C502.938 301.609 605.065 402.366 605.065 526.656C605.065 650.946 502.938 751.703 376.959 751.703C250.98 751.703 148.854 650.946 148.854 526.656Z" fill="#F3886D"/>
<path d="M438.67 343.54C393.575 343.54 348.27 374.241 325.695 413.384C312.389 379.31 278.294 356.53 246.938 356.53C206.942 356.53 155.361 433 155.361 483.339C155.361 511.575 174.225 525.217 197.846 531.757C195.417 540.183 193.966 548.935 193.966 557.991C193.966 619.251 257.872 712.664 339.276 698.436C413.125 685.529 438.67 615.989 438.67 554.729C438.67 550.976 438.443 547.285 438.052 543.651C495.868 539.108 540.961 502.128 540.961 446.281C540.961 386.582 502.189 343.54 438.67 343.54Z" fill="#F9B192"/>
<path d="M438.671 336.736C396.448 336.736 352.601 362.399 326.596 399.465C310.088 369.854 278.163 349.726 246.939 349.726C225.303 349.726 200.917 368.258 180.583 397.132C161.126 424.759 148.557 457.578 148.557 483.339C148.557 510.176 163.696 527.214 189.721 536.2C188.064 543.496 187.162 550.748 187.162 557.991C187.162 590.858 204.19 631.044 231.025 661.04C261.385 694.976 300.226 712.16 340.458 705.128C377.1 698.724 404.632 678.715 422.532 648.163C437.834 622.045 445.475 589.043 445.475 554.729C445.475 553.072 445.275 551.347 445.194 549.668C505.21 542.395 547.766 501.945 547.766 446.281C547.766 381.392 504.556 336.736 438.671 336.736ZM438.671 350.345C496.948 350.345 534.157 388.799 534.157 446.281C534.157 496.322 494.413 532.404 437.518 536.875C433.7 537.175 430.894 540.574 431.304 544.382C431.687 547.937 431.867 551.365 431.867 554.729C431.867 586.776 424.788 617.411 410.807 641.274C394.874 668.468 370.693 686.047 338.096 691.744C302.962 697.885 268.61 682.684 241.147 651.987C216.438 624.367 200.771 587.327 200.771 557.991C200.771 549.984 201.987 541.909 204.37 533.641C205.417 530.008 203.29 526.215 199.646 525.206C174.993 518.38 162.166 505.384 162.166 483.339C162.166 434.732 212.445 363.335 246.939 363.335C276.361 363.335 307.412 385.237 319.37 415.858C321.443 421.167 328.725 421.723 331.572 416.786C353.859 378.144 397.635 350.345 438.671 350.345Z" fill="black" fill-opacity="0.401653"/>
<path d="M376.954 294.813C247.242 294.813 142.062 398.605 142.062 526.669C142.062 654.732 247.242 758.495 376.954 758.495C506.665 758.495 611.846 654.732 611.845 526.669C611.845 398.605 506.665 294.813 376.954 294.813ZM376.954 308.394C499.2 308.394 598.265 406.152 598.265 526.669C598.265 647.185 499.2 744.914 376.954 744.914C254.707 744.914 155.643 647.185 155.643 526.669C155.643 406.152 254.707 308.394 376.954 308.394Z" fill="black"/>
<path d="M263.633 315.355C262.303 315.492 260.982 315.89 259.737 316.572C183.475 358.4 135.094 438.218 135.094 526.493C135.094 541.012 136.391 555.238 138.877 569.044C139.033 569.913 139.279 570.754 139.445 571.62C140.778 571.093 142.283 570.881 143.654 570.545C146.326 569.889 148.917 569.02 151.588 568.365C153.99 567.776 156.264 568.396 158.612 568.165C158.958 568.132 159.296 568.06 159.636 567.996C159.566 567.634 159.476 567.283 159.409 566.921C156.953 553.818 155.683 540.303 155.683 526.493C155.683 445.763 199.907 372.779 269.662 334.521C274.642 331.79 276.472 325.55 273.728 320.592C271.671 316.874 267.623 314.943 263.633 315.355ZM560.722 378.006C558.113 377.654 555.366 378.278 553.101 379.988C548.569 383.406 547.676 389.83 551.11 394.341C579.853 432.1 595.672 478.092 595.672 526.493C595.672 647.451 497.179 745.501 375.678 745.501C311.097 745.501 253.06 717.769 212.815 673.651C210.939 675.707 208.702 677.427 205.791 678.322C201.265 679.712 196.023 679.808 191.259 680.19C191.866 680.912 192.407 681.685 193.022 682.399C237.145 733.58 302.614 765.999 375.678 765.999C508.551 765.999 616.261 658.771 616.261 526.493C616.261 473.583 598.951 423.233 567.519 381.941C565.802 379.685 563.331 378.358 560.722 378.006Z" fill="black"/>
<path d="M413.218 517.012C414.76 504.878 434.734 497.131 457.832 499.708C480.93 502.286 498.405 514.211 496.863 526.344C495.322 538.477 475.347 546.224 452.249 543.647C429.151 541.07 411.677 529.145 413.218 517.012Z" fill="#FF497F"/>
<path d="M132.698 519.667C131.563 507.489 149.374 495.582 172.48 493.073C195.585 490.565 215.235 498.403 216.37 510.581C217.505 522.759 199.694 534.665 176.588 537.174C153.483 539.683 133.832 531.845 132.698 519.667Z" fill="#FF497F"/>
<path d="M181.398 486.488C178.272 486.475 175.066 486.641 171.81 486.995C145.82 489.817 125.057 503.691 126.598 520.229C128.149 536.885 151.19 546.086 177.237 543.257C203.227 540.435 223.99 526.56 222.449 510.023C221.092 495.449 203.278 486.58 181.398 486.488ZM180.498 498.719C197.13 498.6 209.647 504.409 210.275 511.147C211.003 518.966 196.136 528.915 175.915 531.11C155.751 533.3 139.49 526.805 138.772 519.104C138.044 511.286 152.911 501.337 173.132 499.141C175.652 498.867 178.123 498.737 180.498 498.719Z" fill="black"/>
<path d="M448.933 493.097C427.043 493.108 408.982 501.82 407.151 516.237C405.042 532.832 425.538 546.82 451.576 549.725C477.558 552.624 500.825 543.596 502.918 527.119C505.026 510.525 484.559 496.536 458.521 493.631C455.273 493.269 452.06 493.095 448.933 493.097ZM449.748 505.328C452.141 505.352 454.616 505.496 457.143 505.778C477.301 508.027 491.774 517.9 490.8 525.572C489.81 533.362 473.139 539.834 452.926 537.578C432.768 535.329 418.294 525.456 419.269 517.784C420.135 510.968 433.002 505.161 449.748 505.328Z" fill="black"/>
<path d="M255.09 526.584C273.082 509.671 335.484 509.786 373.353 524.436C373.353 524.436 330.952 591.548 301.386 592.085C271.82 592.622 255.09 526.584 255.09 526.584Z" fill="#AC3A34" stroke="black" stroke-width="0.01875" stroke-miterlimit="10" stroke-linecap="round" stroke-linejoin="round"/>
<path d="M417.195 421.932C417.195 411.016 425.863 402.167 436.556 402.167C447.248 402.167 455.916 411.016 455.916 421.932C455.916 432.847 447.248 441.696 436.556 441.696C425.863 441.696 417.195 432.847 417.195 421.932Z" fill="white" stroke="black" stroke-width="0.01875" stroke-miterlimit="10" stroke-linecap="round" stroke-linejoin="round"/>
<path d="M211.918 424.821C211.918 413.905 220.586 405.057 231.279 405.057C241.972 405.057 250.64 413.905 250.64 424.821C250.64 435.736 241.972 444.585 231.279 444.585C220.586 444.585 211.918 435.736 211.918 424.821Z" fill="white" stroke="black" stroke-width="0.01875" stroke-miterlimit="10" stroke-linecap="round" stroke-linejoin="round"/>
<path d="M462.523 373.019L418.07 374.537C414.345 374.663 411.421 377.786 411.547 381.51C411.673 385.235 414.795 388.16 418.52 388.034L462.973 386.515C466.698 386.389 469.623 383.267 469.496 379.542C469.37 375.818 466.247 372.893 462.523 373.019Z" fill="black"/>
<path d="M213.46 372.878C209.773 372.332 206.358 374.899 205.812 378.586C205.265 382.273 207.804 385.687 211.491 386.234L257.772 393.095C261.459 393.642 264.902 391.102 265.448 387.415C265.995 383.729 263.456 380.314 259.769 379.767L213.46 372.878Z" fill="black"/>
<path d="M332.763 551.535C305.579 552.444 276.763 575.702 276.641 575.8C283.432 585.242 291.705 592.255 301.384 592.08C317.076 591.795 336.234 572.826 350.899 555.021C345.192 552.304 339.02 551.325 332.763 551.535Z" fill="#FF5A51" stroke="black" stroke-width="0.01875" stroke-miterlimit="10" stroke-linecap="round" stroke-linejoin="round"/>
<path d="M306.698 506.912C281.259 507.199 260.606 512.14 250.464 521.674C248.677 523.354 247.95 525.876 248.552 528.253C248.698 528.828 248.965 529.853 249.367 531.262C250.029 533.583 250.819 536.137 251.729 538.91C254.331 546.842 257.421 554.796 260.979 562.247C265.687 572.111 270.87 580.379 276.668 586.597C284.084 594.548 292.364 598.994 301.496 598.828C309.64 598.68 318.258 594.832 327.421 588.003C335.787 581.767 344.51 573.127 353.429 562.641C359.867 555.071 366.037 546.966 371.733 538.882C373.727 536.053 375.508 533.429 377.076 531.065C377.626 530.234 378.977 528.18 379.072 528.029C381.342 524.436 379.746 519.665 375.783 518.131C356.565 510.697 330.87 506.64 306.698 506.912ZM307.261 520.409C325.578 520.254 345.84 522.758 362.848 527.972C362.115 529.038 361.514 529.982 360.711 531.121C355.234 538.893 349.286 546.668 343.137 553.896C334.822 563.675 326.779 571.669 319.351 577.206C312.243 582.504 306.07 585.244 301.271 585.332C291.869 585.502 281.964 574.885 273.155 556.427C269.872 549.549 266.985 542.142 264.551 534.72C263.888 532.7 263.355 530.915 262.836 529.153C271.729 523.534 288.439 520.567 307.261 520.409Z" fill="black"/>
<path d="M436.542 395.429C422.091 395.429 410.449 407.332 410.449 421.943C410.449 436.555 422.091 448.458 436.542 448.458C450.993 448.458 462.663 436.554 462.663 421.943C462.663 407.332 450.992 395.428 436.542 395.429ZM436.542 408.925C443.476 408.925 449.167 414.724 449.167 421.943C449.167 429.163 443.476 434.962 436.542 434.961C429.608 434.961 423.945 429.162 423.945 421.943C423.945 414.724 429.608 408.925 436.542 408.925Z" fill="black"/>
<path d="M231.287 398.296C216.836 398.296 205.166 410.199 205.166 424.811C205.166 439.423 216.836 451.325 231.287 451.326C245.738 451.326 257.38 439.423 257.38 424.811C257.38 410.199 245.738 398.297 231.287 398.296ZM231.287 411.793C238.221 411.793 243.884 417.591 243.883 424.811C243.883 432.03 238.221 437.829 231.287 437.829C224.353 437.829 218.662 432.031 218.662 424.811C218.662 417.592 224.353 411.793 231.287 411.793Z" fill="black"/>
<path d="M332.537 544.786C319.371 545.227 305.378 550.188 291.261 558.086C286.4 560.806 281.866 563.696 277.765 566.577C276.319 567.593 275.011 568.534 273.885 569.389C273.186 569.919 272.691 570.303 272.394 570.542C269.608 572.791 269.067 576.829 271.157 579.736C279.969 591.987 289.949 599.038 301.496 598.828C317.854 598.531 335.967 583.765 356.099 559.323C358.89 555.935 357.757 550.807 353.794 548.92C347.323 545.839 340.182 544.53 332.537 544.786ZM332.987 558.283C334.95 558.217 336.762 558.465 338.582 558.676C323.867 575.02 310.612 585.162 301.271 585.332C296.442 585.419 291.445 582.573 286.397 577.065C289.927 574.621 293.723 572.171 297.841 569.867C310.245 562.927 322.36 558.638 332.987 558.283Z" fill="black"/>
<path d="M578.292 540.166C578.292 540.166 621.835 511.848 639.334 516.428C656.833 521.007 692.771 541.616 697.499 570.819C702.227 600.021 643.696 721.102 551.971 664.209" fill="#F3886D"/>
<path d="M632.531 508.376C623.951 509.002 615.384 512.246 607.562 515.657C600.817 518.599 594.263 521.969 587.844 525.563C583.199 528.164 578.592 530.882 574.125 533.782C570.592 536.076 569.613 540.781 571.906 544.313C574.2 547.846 578.905 548.857 582.438 546.563C587.511 543.27 592.783 540.233 598.094 537.345C604.207 534.019 610.454 530.899 616.906 528.282C620.797 526.704 624.772 525.298 628.875 524.376C631.15 523.865 633.564 523.426 635.906 523.595C637.831 523.733 639.701 524.484 641.5 525.126C644.033 526.03 646.51 527.096 648.938 528.251C658.428 532.768 667.411 538.767 674.906 546.157C680.314 551.489 685.072 557.689 687.844 564.813C688.879 567.474 689.77 570.383 689.938 573.251C690.254 578.655 688.752 584.465 687.219 589.595C684.388 599.067 680.249 608.19 675.375 616.782C673.122 620.754 670.702 624.628 668.094 628.376C654.4 648.054 634.742 666.014 610.375 670.251C606.893 670.856 603.377 671.175 599.844 671.189C594.514 671.209 589.186 670.567 584 669.345C574.085 667.008 564.842 662.648 556.188 657.345C552.393 655.023 547.416 656.206 545.094 660.001C542.772 663.796 543.986 668.773 547.781 671.095C557.903 677.28 568.728 682.285 580.312 685.001C587.604 686.711 595.107 687.476 602.594 687.189C607.425 687.003 612.252 686.371 616.969 685.313C649.274 678.068 674.196 651.576 689.688 623.532C695.145 613.653 699.706 603.203 702.719 592.313C704.505 585.856 705.943 579.018 705.5 572.282C705.298 569.211 704.575 566.16 703.688 563.22C702.047 557.785 699.509 552.632 696.375 547.907C687.25 534.149 673.232 523.41 658.656 515.939C654.767 513.945 650.746 512.15 646.625 510.689C644.312 509.868 641.955 509.079 639.531 508.657C637.232 508.257 634.855 508.207 632.531 508.376Z" fill="black"/>
<path d="M698.502 570.238C599.677 575.275 559.91 623.668 543.885 663.559C639.89 720.219 701.514 602.065 698.502 570.238Z" fill="#F9B192"/>
<path d="M663.722 566.695C655.01 567.7 646.325 569.152 637.826 571.334C621.316 575.573 605.418 582.296 591.432 592.113C585.793 596.071 580.467 600.531 575.743 605.553C573.349 608.097 570.987 610.786 569.135 613.763C567.147 616.97 568.122 621.194 571.329 623.182C574.535 625.171 578.759 624.196 580.748 620.989C580.731 621.016 580.873 620.815 580.888 620.792C580.946 620.707 580.97 620.653 581.029 620.567C581.191 620.334 581.367 620.093 581.535 619.865C582.01 619.222 582.489 618.597 582.997 617.981C584.545 616.106 586.229 614.33 587.974 612.638C593.023 607.743 598.708 603.516 604.732 599.901C623.088 588.888 644.226 583.406 665.353 581.035C669.312 580.584 672.158 577.009 671.707 573.049C671.256 569.09 667.682 566.244 663.722 566.695Z" fill="black"/>
<path d="M617.496 582.918C613.758 583.43 611.136 586.884 611.648 590.623C612.311 595.569 612.93 600.518 613.56 605.468C614.125 609.917 614.732 614.385 615.697 618.768C616.575 622.655 620.441 625.1 624.329 624.223C628.216 623.345 630.633 619.478 629.755 615.591C628.933 612.062 628.42 608.443 627.787 604.878C626.835 599.514 625.955 594.161 625.2 588.767C624.688 585.029 621.234 582.407 617.496 582.918Z" fill="black"/>
<path d="M637.151 502.306C633.601 502.146 628.661 502.735 621.321 503.881C615.004 504.867 607.826 506.224 605.069 506.917L609.962 526.459C611.996 525.948 618.682 524.687 624.442 523.788C627.828 523.259 630.801 522.862 633.102 522.635C634.261 522.521 635.221 522.454 635.886 522.438C644.669 524.746 656.918 531.056 666.955 539.084C678.977 548.698 686.724 559.614 688.549 570.378C689.424 575.536 686.736 587.14 680.958 599.986C674.184 615.045 664.185 629.935 652.419 641.74C638.98 655.222 623.875 664.136 607.797 667.326C589.426 670.972 569.805 667.213 548.863 654.814L538.6 672.134C563.696 686.993 588.353 691.704 611.733 687.065C632.049 683.033 650.612 672.109 666.702 655.967C693.309 629.274 711.935 587.842 708.4 567.004C705.627 550.652 695.067 535.797 679.524 523.366C667.121 513.447 652.004 505.658 640.272 502.728C639.359 502.5 638.334 502.36 637.151 502.306Z" fill="black"/>
<path d="M632.398 509.111C627.079 509.493 621.769 511.082 616.821 512.822C608.482 515.754 600.48 519.618 592.698 523.788C586.53 527.093 580.434 530.603 574.561 534.416C571.382 536.48 570.473 540.713 572.537 543.892C574.6 547.07 578.861 547.98 582.04 545.916C588.062 542.008 594.335 538.462 600.682 535.119C606.878 531.856 613.223 528.764 619.802 526.346C623.145 525.118 626.535 524.014 630.036 523.338C632.088 522.942 634.245 522.648 636.336 522.86C638.548 523.084 640.854 524.048 642.914 524.828C646.505 526.187 649.99 527.8 653.375 529.608C665.368 536.016 677.188 545.11 684.557 556.713C686.823 560.282 688.629 564.133 689.758 568.213C690.206 569.836 690.613 571.504 690.714 573.19C690.852 575.509 690.597 577.874 690.235 580.163C689.718 583.437 688.935 586.661 687.987 589.835C685.142 599.365 680.965 608.524 676.065 617.165C673.801 621.159 671.348 625.037 668.727 628.806C654.91 648.668 635.108 666.79 610.523 671.066C606.982 671.682 603.403 671.963 599.81 671.994C594.433 672.04 589.042 671.342 583.813 670.11C573.814 667.755 564.478 663.367 555.751 658.02C552.336 655.93 547.886 657.023 545.797 660.438C543.708 663.852 544.774 668.302 548.188 670.391C558.236 676.532 568.993 681.499 580.495 684.197C587.718 685.891 595.149 686.674 602.566 686.39C607.349 686.207 612.126 685.553 616.794 684.506C648.869 677.314 673.615 650.988 688.998 623.154C694.704 612.83 699.479 601.837 702.438 590.398C703.951 584.549 705.113 578.385 704.716 572.318C704.541 569.656 703.973 567.009 703.255 564.445C701.74 559.042 699.333 553.927 696.31 549.206C687.304 535.142 673.011 524.163 658.294 516.618C654.007 514.42 649.568 512.463 644.995 510.938C642.614 510.145 640.219 509.416 637.712 509.167C635.947 508.991 634.172 508.983 632.398 509.111Z" fill="black"/>
<path opacity="0.196343" d="M246.316 714.678C246.316 714.678 503.564 714.583 589.789 439.968L607.153 517.101C607.153 517.101 572.856 586.713 600.507 593.29L655.105 576.715L688.741 592.217L669.519 645.789L634.773 673.277L588.318 679.708L554.165 670.62L507.553 719.002L413.699 755.873L340.892 753.473L290.961 735.29L246.316 714.678Z" fill="black"/>
<path opacity="0.196343" d="M128.955 658.456L170.201 630.229L206.055 681.633L128.955 658.456Z" fill="black"/>
</svg>
