<svg width="800" height="800" viewBox="0 0 800 800" fill="none" xmlns="http://www.w3.org/2000/svg">
<path d="M141.636 493.725C141.636 493.725 115.777 474.342 98.1296 496.104C80.4822 517.867 72.4977 572.965 158.185 603.204" fill="#F3886D"/>
<path d="M141.636 493.725C141.636 493.725 115.777 474.342 98.1296 496.104C80.4822 517.867 72.4977 572.965 158.185 603.204" stroke="black" stroke-width="0.01875" stroke-miterlimit="10" stroke-linejoin="round"/>
<path d="M88.073 517.56C82.2938 543.668 93.7637 580.466 158.197 603.205L149.79 547.702C124.023 528.269 98.1934 520.213 88.073 517.56Z" fill="#F9B192"/>
<path d="M141.636 493.725C141.636 493.725 115.777 474.342 98.1296 496.104C80.4822 517.867 72.4977 572.965 158.185 603.204" stroke="black" stroke-width="0.01875" stroke-miterlimit="10" stroke-linejoin="round"/>
<path d="M116.977 479.039C114.659 479.168 112.331 479.554 110.033 480.191C103.558 481.987 97.7518 485.853 92.881 491.86C81.1422 506.336 76.4197 528.098 82.9837 548.544C91.1311 573.923 115.153 595.162 155.948 609.559L160.419 596.85C123.31 583.754 102.561 565.368 95.8333 544.411C90.709 528.449 94.4132 511.395 103.369 500.352C106.492 496.5 109.922 494.218 113.66 493.182C119.198 491.645 125.541 492.829 131.908 495.853C133.487 496.603 134.914 497.39 136.182 498.186C136.908 498.643 137.398 498.972 137.587 499.114L145.685 488.317C145.212 487.962 144.433 487.433 143.38 486.771C141.682 485.704 139.782 484.639 137.7 483.65C130.929 480.433 123.932 478.649 116.977 479.039Z" fill="black"/>
<path d="M138.794 539.14L114.072 527.072" stroke="black" stroke-width="0.01875" stroke-miterlimit="10" stroke-linecap="round" stroke-linejoin="round"/>
<path d="M114.447 520.343C111.821 520.201 109.234 521.599 108.008 524.111C106.373 527.46 107.752 531.501 111.101 533.136L135.844 545.199C139.193 546.833 143.235 545.455 144.87 542.106C146.505 538.757 145.098 534.715 141.749 533.08L117.034 521.018C116.196 520.609 115.322 520.39 114.447 520.343Z" fill="black"/>
<path d="M505.981 60.1191L503.816 92.9601C497.045 91.9092 490.322 91.0257 483.656 90.2889L494.818 138.37C526.925 141.628 560.116 147.856 594.016 158.108C594.016 158.108 595.817 158.179 596.012 158.193C587.889 132.84 579.307 107.001 570.229 80.7291C548.232 72.0654 526.834 65.3224 505.981 60.1191Z" fill="#B7F2CC"/>
<path d="M408.694 46.792C394.834 46.4731 381.291 46.8505 368.093 47.8605L364.859 91.8921C357.202 92.923 349.69 94.1195 342.281 95.4349L350.041 142.784C394.269 135.744 443.107 133.123 494.817 138.37L483.655 90.2894C477.706 89.6321 471.802 89.091 465.941 88.6586L451.235 49.9131C436.73 48.1262 422.554 47.111 408.694 46.792Z" fill="#93E9CA"/>
<path d="M184.488 106.147C160.2 120.135 138.263 135.342 119.059 150.545C119.059 150.545 120.437 180.254 122.714 225.618C122.714 225.618 161.346 200.747 223.177 177.087C222.715 171.967 219.494 136.823 219.494 136.823L219.072 133.056C210.818 136.643 202.852 140.26 195.51 143.853L184.488 106.147Z" fill="#DFFFEA"/>
<path d="M560.359 149.279C563.463 157.503 572.237 190.442 583.78 235.768C595.185 237.506 606.63 239.449 618.168 241.87L621.907 242.769C613.838 215.332 605.365 187.38 596.152 158.614L594.015 158.108C582.711 154.69 571.494 151.856 560.359 149.279Z" fill="#93E9CA"/>
<path d="M449.521 135.614C443.211 135.508 436.965 135.536 430.767 135.642L429.586 137.583C432.059 145.255 439.683 181.257 449.381 228.964C492.151 226.968 537.341 228.69 583.781 235.768C572.238 190.442 563.464 157.503 560.36 149.279C522.124 140.432 484.961 136.214 449.521 135.614Z" fill="#DFFFEA"/>
<path d="M425.172 135.812C374.687 137.189 328.202 145.285 287.566 156.141C290.807 181.745 293.646 204.36 299.628 250.756C343.958 240.046 394.635 231.519 449.381 228.965C439.683 181.258 432.059 145.256 429.586 137.584L425.172 135.812Z" fill="#93E9CA"/>
<path d="M304.183 57.8135C280.506 63.4642 258.336 71.1596 237.377 79.9699L235.296 126.223C229.447 128.563 223.905 130.948 218.426 133.337L219.451 136.683C219.475 136.76 219.5 136.889 219.507 136.97L223.177 177.087C258.399 163.61 301.239 150.553 350.042 142.784L342.282 95.4344C334.154 96.8776 326.158 98.4681 318.382 100.243L304.183 57.8135Z" fill="#B7F2CC"/>
<path d="M287.566 156.14C231.19 171.201 186.479 191.361 158.002 206.161C159.534 237.066 161.045 267.707 162.585 296.276C192.919 283.123 240.464 265.048 299.628 250.755C293.646 204.359 290.807 181.744 287.566 156.14Z" fill="#82D4D5"/>
<path d="M158.002 206.161C145.375 212.723 135.579 218.307 129.912 221.766C129.169 222.219 125.013 225.268 122.799 226.827C123.96 249.939 125.788 283.513 127.354 313.175C127.889 312.83 129.286 311.819 129.547 311.685C134.994 308.885 146.49 303.256 162.585 296.276C161.045 267.707 159.534 237.066 158.002 206.161Z" fill="#93E9CA"/>
<path d="M231.697 270.071C177.787 287.849 140.957 305.821 129.547 311.685C129.286 311.819 127.889 312.83 127.354 313.175C129.094 346.148 130.614 375.157 132.696 411.782C157.022 402.958 193.049 390.862 241.566 377.816C236.712 325.209 235.138 307.884 231.697 270.071Z" fill="#B7F2CC"/>
<path d="M365.591 237.511C314.452 245.558 269.012 257.766 231.697 270.071C235.138 307.884 236.712 325.209 241.566 377.816C282.299 366.864 330.333 355.903 383.558 346.916L365.591 237.511Z" fill="#DFFFEA"/>
<path d="M486.045 228.148C443.596 227.958 403.097 231.61 365.59 237.511L383.557 346.916C431.785 338.772 483.987 332.289 539.214 329.286L515.905 228.992C505.869 228.514 495.885 228.193 486.045 228.148Z" fill="#B7F2CC"/>
<path d="M515.906 228.992L539.215 329.286C573.817 327.405 609.475 326.841 645.836 328.049C638.408 300.413 630.536 272.105 621.908 242.769L618.169 241.87C583.385 234.572 549.163 230.576 515.906 228.992Z" fill="#93E9CA"/>
<path d="M613.135 327.374C610.04 327.358 606.995 327.423 603.912 327.43L632.479 450.218C646.708 448.241 660.857 446.269 675.302 444.314C666.658 407.762 656.788 368.797 645.835 328.049C634.881 327.685 623.954 327.431 613.135 327.374Z" fill="#B7F2CC"/>
<path d="M603.912 327.43C557.728 327.543 512.958 330.268 470.383 334.797C480.169 384.392 486.894 418.236 496.87 469.704C540.203 463.229 585.697 456.72 632.479 450.218L603.912 327.43Z" fill="#82D4D5"/>
<path d="M470.384 334.797C413.593 340.838 360.764 350.003 313.799 360.215C321.058 416.278 324.186 440.495 331.316 495.403C381.141 487.384 436.381 478.741 496.871 469.704C486.895 418.236 480.17 384.392 470.384 334.797Z" fill="#B7F2CC"/>
<path d="M313.798 360.215C254.673 373.072 204.993 387.516 168.404 399.439C171.084 444.793 173.602 484.481 176.024 521.215C213.885 514.686 265.946 505.923 331.315 495.403C324.185 440.495 321.057 416.278 313.798 360.215Z" fill="#82D4D5"/>
<path d="M168.404 399.439C153.443 404.314 142.974 408.053 132.695 411.782C134.921 450.95 137.276 489.675 139.696 527.485C149.802 525.696 157.143 524.47 176.024 521.215C173.602 484.481 171.084 444.793 168.404 399.439Z" fill="#93E9CA"/>
<path d="M253.797 508.112C197.736 517.454 160.738 523.76 139.697 527.485C142.019 563.757 144.353 596.929 146.67 626.795C171.292 630.957 212.821 636.314 266.141 637.339C262.528 600.854 258.074 553.325 253.797 508.112Z" fill="#93E9CA"/>
<path d="M405.996 483.566C346.104 492.898 298.231 500.735 253.797 508.14C258.073 553.342 262.528 600.861 266.141 637.339C313.112 638.242 368.687 635.736 429.305 625.642L405.996 483.566Z" fill="#C3C4E1"/>
<path d="M569.385 459.047C511.376 467.4 456.744 475.658 405.996 483.566L429.305 625.642C482.502 616.784 539.384 602.009 597.249 578.883L569.385 459.047Z" fill="#93E9CA"/>
<path d="M675.303 444.314C639.252 449.193 603.862 454.083 569.385 459.047L597.249 578.883C629.672 565.925 662.378 550.383 694.929 531.618C689.04 504.139 682.602 475.179 675.303 444.314Z" fill="#DFFFEA"/>
<path d="M694.928 531.618C682.046 539.044 669.146 545.925 656.238 552.397L675.639 635.82C687.123 625.527 698.47 614.403 709.633 602.389C705.285 580.538 700.267 556.536 694.928 531.618Z" fill="#93E9CA"/>
<path d="M656.238 552.397C611.312 574.922 566.44 591.878 522.822 604.443C529.959 641.687 544.725 718.211 544.81 718.654C588.912 700.444 633.223 673.842 675.639 635.82L656.238 552.397Z" fill="#B7F2CC"/>
<path d="M522.794 604.442C461.267 622.163 402.352 631.267 349.451 635.146C353.908 669.4 364.438 750.37 364.438 750.37L366.462 753.266C421.631 753.092 482.999 744.175 544.81 718.654C544.725 718.211 529.931 641.689 522.794 604.442Z" fill="#82D4D5"/>
<path d="M183.785 631.94C187.854 686.977 190.908 725.083 190.955 725.627C228.335 737.71 291.4 753.503 366.463 753.266L364.439 750.37C364.439 750.37 353.909 669.4 349.452 635.146C281.597 640.121 224.215 636.604 183.785 631.94Z" fill="#B7F2CC"/>
<path d="M146.67 626.795C149.419 662.213 152.105 693.596 154.571 712.243C154.571 712.243 168.141 718.252 190.955 725.627C190.908 725.083 187.854 686.977 183.785 631.94C168.894 630.223 156.461 628.45 146.67 626.795Z" fill="#DFFFEA"/>
<path d="M504.63 53.5128C501.768 54.1023 499.467 56.522 499.26 59.6705L497.573 85.3134C493.194 84.7052 488.823 84.0605 484.386 83.5701C479.761 83.059 476.023 87.2762 477.075 91.8085L488.238 139.889C488.89 142.7 491.271 144.8 494.142 145.091C527.313 148.457 559.923 154.853 592.075 164.576C592.623 164.742 593.189 164.835 593.762 164.857C593.823 164.86 595.581 164.915 595.561 164.914C600.319 165.241 603.905 160.683 602.45 156.141C594.13 130.175 585.52 104.32 576.61 78.5371C575.966 76.6736 574.537 75.1826 572.702 74.4601C551.04 65.9284 529.398 59.0054 507.611 53.569C506.59 53.3144 505.584 53.3163 504.63 53.5128ZM512.166 68.7523C529.777 73.449 547.311 79.1125 564.857 85.9039C572.066 106.825 579.043 127.817 585.861 148.859C557.707 140.957 529.223 135.458 500.328 132.269L492.427 98.2755C495.879 98.7293 499.358 99.0949 502.774 99.6251C506.689 100.233 510.274 97.3639 510.535 93.4112L512.166 68.7523Z" fill="#626262"/>
<path d="M408.863 40.0443C394.937 39.7239 381.165 40.1017 367.587 41.1409C364.258 41.3956 361.617 44.0255 361.373 47.3548L358.533 86.0441C352.797 86.8786 347.071 87.7394 341.1 88.7996C337.465 89.4451 335.02 92.8885 335.617 96.5319L343.378 143.882C343.978 147.548 347.441 150.033 351.11 149.449C398.224 141.949 446.103 140.215 494.142 145.09C498.746 145.558 502.443 141.36 501.397 136.853L490.234 88.7715C489.586 85.9819 487.232 83.8844 484.386 83.5698C479.84 83.0674 475.302 82.7083 470.749 82.3327L457.534 47.5235C456.645 45.183 454.536 43.5276 452.051 43.2216C437.508 41.4301 423.133 40.3726 408.863 40.0443ZM408.525 53.5406C421.037 53.8285 433.691 54.7629 446.427 56.2117L459.643 91.049C460.573 93.5008 462.819 95.1862 465.435 95.3791C469.681 95.6923 473.934 96.1343 478.172 96.56L486.157 130.864C442.319 127.174 398.669 128.81 355.637 135.165L350.041 101.031C355.331 100.155 360.635 99.2743 365.759 98.5844C368.923 98.1585 371.345 95.5821 371.579 92.3986L374.391 54.2998C385.654 53.6034 397.013 53.2757 408.525 53.5406Z" fill="#626262"/>
<path d="M305.138 51.1225C304.319 51.0049 303.458 51.0602 302.608 51.2631C279.882 56.6866 257.562 64.1724 234.761 73.7569C232.358 74.767 230.744 77.0577 230.627 79.6616L228.744 121.669C224.812 123.285 221.099 124.809 215.725 127.152C212.581 128.523 210.981 132.026 211.986 135.306L212.829 138.062L216.456 177.707C216.864 182.16 221.418 184.985 225.594 183.387C265.716 168.034 307.387 156.409 351.11 149.449C354.802 148.861 357.31 145.378 356.705 141.689L348.945 94.3387C348.336 90.6264 344.804 88.1419 341.1 88.7996C334.694 89.9372 328.807 91.1912 322.908 92.4549C319.949 83.6113 310.978 56.8269 310.593 55.6775C309.761 53.1915 307.597 51.4753 305.138 51.1225ZM299.768 65.9403C302.828 75.0838 311.59 101.242 311.971 102.381C313.072 105.671 316.489 107.595 319.872 106.823C325.177 105.613 330.984 104.518 336.742 103.421L342.309 137.274C303.04 143.974 265.455 154.458 229.109 167.838L226.297 137.331C230.302 135.614 234.346 133.875 237.797 132.494C240.257 131.511 241.924 129.18 242.043 126.534L243.927 84.6102C262.692 76.9089 281.15 70.7063 299.768 65.9403Z" fill="#626262"/>
<path d="M184.093 99.4002C183.089 99.4596 182.06 99.7546 181.113 100.3C157.664 113.805 135.426 128.985 114.869 145.26C113.166 146.608 112.209 148.685 112.31 150.855C112.313 150.914 114.968 206.104 115.965 225.956C116.225 231.139 122.005 234.107 126.369 231.298C126.42 231.265 127.436 230.621 127.887 230.342C129.189 229.537 130.735 228.59 132.526 227.531C137.67 224.488 143.714 221.1 150.578 217.437C170.229 206.95 192.576 196.445 217.216 186.648C219.99 185.545 222.785 184.462 225.594 183.387C228.415 182.307 230.168 179.478 229.896 176.47C229.708 174.378 226.213 136.065 226.213 136.065L225.791 132.298C225.286 127.786 220.536 125.061 216.372 126.871C210.18 129.562 205.061 131.986 199.783 134.463C196.956 124.791 191.23 105.208 190.954 104.265C190.034 101.118 187.107 99.2223 184.093 99.4002ZM180.466 116.439C183.423 126.554 188.774 144.822 189.042 145.738C190.216 149.755 194.702 151.767 198.461 149.927C202.821 147.794 208.189 145.418 213.279 143.123C213.913 150.051 215.342 165.375 216.006 172.646C214.749 173.137 213.489 173.611 212.239 174.108C187.112 184.099 164.301 194.828 144.223 205.543C138.42 208.64 133.561 211.402 128.927 214.091C127.806 191.287 126.169 157.787 125.975 153.751C143.065 140.401 161.336 127.88 180.466 116.439Z" fill="#626262"/>
<path d="M449.633 128.866C443.615 128.764 437.406 128.778 430.654 128.894C428.34 128.934 426.205 130.151 425.002 132.128L423.821 134.068C422.801 135.744 422.573 137.796 423.174 139.663C425.337 146.373 432.111 177.871 442.772 230.313C443.435 233.574 446.365 235.867 449.689 235.712C494.278 233.632 538.801 235.73 582.768 242.432C587.545 243.16 591.524 238.792 590.332 234.109C577.772 184.794 569.74 154.982 566.685 146.889C565.888 144.779 564.074 143.208 561.877 142.7C524.408 134.03 486.852 129.496 449.633 128.866ZM449.408 142.363C484.46 142.955 519.824 147.194 555.129 155.1C558.206 164.498 565.08 190.202 574.727 227.839C535.031 222.414 494.975 220.522 454.834 222.075C446.589 181.639 440.838 154.594 437.795 142.391C441.711 142.367 445.739 142.3 449.408 142.363Z" fill="#626262"/>
<path d="M559.965 142.532C555.614 142.769 552.366 147.257 554.032 151.67C556.815 159.041 564.887 188.965 577.229 237.428C577.898 240.054 580.089 242.024 582.768 242.433C595.491 244.372 606.353 246.288 616.79 248.478L620.333 249.322C625.379 250.536 629.839 245.838 628.374 240.858C619.485 210.635 611.164 183.332 602.591 156.563C601.869 154.31 600 152.581 597.698 152.036L595.561 151.53C585.177 148.401 574.426 145.605 561.877 142.701C561.22 142.549 560.587 142.498 559.965 142.532ZM570.368 158.672C577.545 160.466 584.393 162.284 590.838 164.211C597.921 186.418 604.917 209.385 612.179 233.857C604.992 232.46 597.423 231.13 589.207 229.836C580.758 196.75 574.333 172.337 570.368 158.672Z" fill="#626262"/>
<path d="M449.633 128.866C443.615 128.764 437.406 128.778 430.654 128.894C428.34 128.934 426.205 130.151 425.002 132.128L423.821 134.068C422.801 135.744 422.573 137.796 423.174 139.663C425.337 146.373 432.111 177.871 442.772 230.313C443.435 233.574 446.365 235.867 449.689 235.712C494.278 233.632 538.801 235.73 582.768 242.432C587.545 243.16 591.524 238.792 590.332 234.109C577.772 184.794 569.74 154.982 566.685 146.889C565.888 144.779 564.074 143.208 561.877 142.7C524.408 134.03 486.852 129.496 449.633 128.866ZM449.408 142.363C484.46 142.955 519.824 147.194 555.129 155.1C558.206 164.498 565.08 190.202 574.727 227.839C535.031 222.414 494.975 220.522 454.834 222.075C446.589 181.639 440.838 154.594 437.795 142.391C441.711 142.367 445.739 142.3 449.408 142.363Z" fill="#626262"/>
<path d="M424.973 129.063C377.553 130.356 331.022 137.541 285.821 149.617C282.559 150.488 280.448 153.635 280.872 156.983C281.191 159.502 288.566 217.743 292.934 251.626C293.448 255.61 297.296 258.249 301.201 257.306C349.9 245.541 399.508 238.053 449.688 235.712C453.823 235.519 456.811 231.67 455.986 227.614C445.113 174.125 438.4 142.962 435.995 135.502C435.38 133.593 433.948 132.059 432.087 131.312C431.535 131.091 428.224 129.762 427.672 129.541C426.816 129.197 425.896 129.038 424.973 129.063ZM423.876 142.616C426.222 150.86 432.167 178.474 441.197 222.694C395.321 225.32 349.989 232.231 305.39 242.601C301.286 210.646 296.017 169.136 295.015 161.229C336.969 150.439 380.051 143.928 423.876 142.616Z" fill="#626262"/>
<path d="M305.138 51.1225C304.319 51.0049 303.458 51.0602 302.608 51.2631C279.882 56.6866 257.562 64.1724 234.761 73.7569C232.358 74.767 230.744 77.0577 230.627 79.6616L228.744 121.669C224.812 123.285 221.099 124.809 215.725 127.152C212.581 128.523 210.981 132.026 211.986 135.306L212.829 138.062L216.456 177.707C216.864 182.16 221.418 184.985 225.594 183.387C265.716 168.034 307.387 156.409 351.11 149.449C354.802 148.861 357.31 145.378 356.705 141.689L348.945 94.3387C348.336 90.6264 344.804 88.1419 341.1 88.7996C334.694 89.9372 328.807 91.1912 322.908 92.4549C319.949 83.6113 310.978 56.8269 310.593 55.6775C309.761 53.1915 307.597 51.4753 305.138 51.1225ZM299.768 65.9403C302.828 75.0838 311.59 101.242 311.971 102.381C313.072 105.671 316.489 107.595 319.872 106.823C325.177 105.613 330.984 104.518 336.742 103.421L342.309 137.274C303.04 143.974 265.455 154.458 229.109 167.838L226.297 137.331C230.302 135.614 234.346 133.875 237.797 132.494C240.257 131.511 241.924 129.18 242.043 126.534L243.927 84.6102C262.692 76.9089 281.15 70.7063 299.768 65.9403Z" fill="#626262"/>
<path d="M288.746 149.504C287.81 149.339 286.809 149.353 285.822 149.617C236.891 162.688 192.984 180.369 154.88 200.172C152.538 201.388 151.122 203.863 151.252 206.498C152.55 232.681 155.026 281.619 155.836 296.642C156.089 301.337 160.941 304.333 165.255 302.462C204.752 285.335 250.662 269.516 301.202 257.306C304.549 256.497 306.76 253.298 306.319 249.883C301.952 216.012 294.576 157.816 294.257 155.296C293.872 152.255 291.554 150.001 288.746 149.504ZM281.857 164.772C283.065 174.307 288.152 214.436 292.176 245.75C246.843 257.033 205.403 271.121 168.854 286.435C167.9 268.25 166.163 234.179 164.974 210.266C199.401 192.682 238.52 176.903 281.857 164.772Z" fill="#626262"/>
<path d="M158.225 199.413C157.116 199.373 155.97 199.606 154.88 200.173C143.455 206.11 133.239 211.827 126.397 216.003C125.769 216.386 125.238 216.777 121.786 219.264C121.777 219.27 119.574 220.854 118.918 221.317C117.025 222.65 115.933 224.853 116.05 227.165C116.731 240.719 120.234 306.51 120.605 313.541C120.878 318.716 126.651 321.661 131.008 318.856C131.304 318.665 131.545 318.481 132.217 318.012C132.217 318.012 132.647 317.711 132.864 317.562C140.575 313.607 151.967 308.225 165.255 302.463C167.843 301.341 169.484 298.729 169.332 295.912C168.523 280.907 166.047 232.005 164.749 205.824C164.566 202.141 161.553 199.534 158.225 199.413ZM151.787 217.155C153.063 242.716 154.803 276.794 155.611 292.032C147.114 295.781 139.788 299.184 133.539 302.238C132.662 285.738 130.501 244.976 129.743 230.146C131.466 228.911 133.345 227.58 133.426 227.531C138.022 224.725 144.612 221.038 151.787 217.155Z" fill="#626262"/>
<path d="M232.652 263.38C231.661 263.238 230.618 263.321 229.587 263.661C186.346 277.921 150.97 293.097 126.453 305.697C126.03 305.914 125.81 306.052 125.3 306.4C125.097 306.538 123.788 307.438 123.697 307.496C121.662 308.807 120.477 311.124 120.605 313.541C120.676 314.903 124.715 390.5 125.947 412.177C126.203 416.689 130.752 419.679 135.001 418.138C166.32 406.776 201.545 395.57 243.308 384.341C246.48 383.488 248.587 380.47 248.285 377.199C245.386 345.775 240.522 292.597 238.416 269.454C238.121 266.21 235.624 263.806 232.652 263.38ZM225.763 279.295C227.948 303.267 231.655 343.714 234.339 372.841C198.279 382.672 167.056 392.505 138.965 402.448C137.503 376.069 134.661 323.146 134.326 316.859C156.575 305.54 187.899 292.186 225.763 279.295Z" fill="#626262"/>
<path d="M364.549 230.849C317.716 238.218 272.629 249.467 229.586 263.661C226.604 264.645 224.69 267.564 224.975 270.691C227.081 293.838 231.944 347.008 234.844 378.436C235.229 382.603 239.266 385.427 243.307 384.341C287.74 372.394 335.358 361.909 384.681 353.58C388.344 352.962 390.822 349.486 390.22 345.82C390.08 344.965 372.393 237.27 372.253 236.416C371.652 232.756 368.213 230.272 364.549 230.849ZM360.022 245.357C361.929 256.969 373.966 330.145 375.824 341.462C331.246 349.187 288.174 358.642 247.553 369.326C244.783 339.247 241.001 297.738 238.921 274.908C277.712 262.375 318.153 252.304 360.022 245.357Z" fill="#626262"/>
<path d="M486.074 221.401C445.463 221.219 404.871 224.504 364.551 230.849C360.852 231.431 358.321 234.914 358.928 238.609L376.894 348.013C377.5 351.703 380.996 354.203 384.683 353.58C436.712 344.795 488.086 338.835 539.581 336.035C543.769 335.808 546.744 331.854 545.795 327.769L522.486 227.474C521.802 224.534 519.231 222.388 516.215 222.245C505.291 221.724 495.426 221.443 486.074 221.401ZM486.018 234.897C493.586 234.931 501.902 235.242 510.508 235.6L530.836 323.101C483.711 325.96 436.655 331.399 389.125 339.212L373.38 243.248C410.788 237.689 448.411 234.728 486.018 234.897Z" fill="#626262"/>
<path d="M516.213 222.244C511.742 222.031 508.311 226.15 509.325 230.51L532.634 330.804C533.376 333.995 536.308 336.212 539.579 336.034C575.334 334.09 610.674 333.637 645.609 334.797C650.139 334.948 653.534 330.683 652.357 326.306C644.277 296.243 636.465 268.369 628.373 240.857C627.692 238.541 625.828 236.783 623.481 236.218L619.544 235.262C585.763 228.175 551.365 223.918 516.213 222.244ZM524.536 236.33C555.774 238.225 586.413 242.122 616.508 248.421C623.379 271.887 630.076 295.838 636.921 321.104C606.419 320.333 575.624 320.729 544.528 322.285L524.536 236.33Z" fill="#626262"/>
<path d="M613.163 320.626C611.637 320.618 607.727 320.653 607.652 320.654C605.765 320.673 604.925 320.68 603.884 320.682C599.546 320.693 596.35 324.724 597.333 328.949L625.9 451.737C626.691 455.137 629.95 457.391 633.407 456.91C634.423 456.769 666.391 452.333 676.202 451.006C680.153 450.471 682.799 446.647 681.881 442.767C673.193 406.027 663.293 366.986 652.358 326.306C651.588 323.438 649.028 321.399 646.06 321.301C634.162 320.906 623.389 320.68 613.163 320.626ZM612.404 334.122C612.57 334.122 612.997 334.122 613.107 334.122C621.643 334.167 630.924 334.397 640.605 334.685C650.286 370.865 659.065 405.634 666.951 438.662C656.057 440.157 643.643 441.853 637.653 442.683L612.404 334.122Z" fill="#626262"/>
<path d="M603.884 320.683C559.229 320.792 514.405 323.321 469.68 328.078C465.739 328.497 463.009 332.203 463.776 336.091C464.053 337.498 485.522 446.686 490.234 470.998C490.922 474.546 494.28 476.902 497.854 476.368C539.418 470.159 584.401 463.722 633.407 456.911C637.337 456.365 639.958 452.566 639.059 448.701C638.836 447.742 610.715 326.872 610.492 325.913C609.779 322.851 607.028 320.675 603.884 320.683ZM598.57 334.264C600.846 344.046 621.285 431.864 624.241 444.568C580.531 450.662 539.97 456.502 502.268 462.113C496.694 433.493 480.641 352.072 478.425 340.815C518.47 336.776 558.604 334.537 598.57 334.264Z" fill="#626262"/>
<path d="M469.679 328.077C416.386 333.746 363.77 342.429 312.363 353.608C308.939 354.352 306.656 357.612 307.105 361.087C308.328 370.529 321.375 471.269 324.622 496.275C325.113 500.05 328.624 502.672 332.383 502.067C386.898 493.293 441.541 484.781 497.853 476.367C501.652 475.8 504.235 472.181 503.504 468.41C498.79 444.084 477.267 334.907 476.99 333.504C476.313 330.075 473.155 327.707 469.679 328.077ZM464.984 342.248C466.912 352.042 483.168 434.773 488.884 464.108C437.363 471.831 387.117 479.617 337.107 487.643C333.324 458.489 323.353 381.402 321.305 365.585C368.354 355.554 416.366 347.637 464.984 342.248Z" fill="#626262"/>
<path d="M312.364 353.609C259.739 365.051 210.771 378.545 166.323 393.029C163.405 393.98 161.475 396.77 161.656 399.833C164.128 441.67 166.607 480.758 169.304 521.665C169.567 525.663 173.228 528.56 177.177 527.879C222.25 520.108 274.12 511.445 332.384 502.068C335.984 501.488 338.477 498.149 338.007 494.532C334.76 469.528 321.713 368.786 320.49 359.344C319.983 355.423 316.228 352.768 312.364 353.609ZM308.062 368.483C310.262 385.471 320.068 461.206 323.78 489.809C271.167 498.297 223.958 506.154 182.266 513.315C179.878 476.891 177.701 441.537 175.489 404.304C216.145 391.224 260.571 379.047 308.062 368.483Z" fill="#626262"/>
<path d="M169.415 392.776C168.411 392.621 167.373 392.686 166.322 393.029C153.362 397.252 143.955 400.507 130.388 405.429C127.586 406.445 125.777 409.201 125.946 412.177C128.107 450.199 130.444 488.81 132.947 527.907C133.204 531.923 136.914 534.823 140.876 534.121C142.771 533.786 170.896 528.962 177.176 527.879C180.579 527.293 182.97 524.212 182.743 520.766C180.048 479.888 177.621 440.85 175.151 399.046C174.956 395.736 172.428 393.241 169.415 392.776ZM162.217 408.718C164.384 445.086 166.564 479.858 168.909 515.592C161.246 516.913 152.724 518.393 145.993 519.557C143.784 484.799 141.69 450.379 139.751 416.479C147.636 413.644 154.894 411.169 162.217 408.718Z" fill="#626262"/>
<path d="M252.698 501.449C199.291 510.349 160.823 516.9 138.514 520.85C135.13 521.449 132.728 524.478 132.947 527.907C135.253 563.927 137.61 597.193 139.948 627.33C140.188 630.418 142.49 632.944 145.544 633.46C179.416 639.185 220.224 643.208 265.998 644.088C270.039 644.166 273.257 640.687 272.859 636.665C270.371 611.541 268.083 587.514 262.764 531.197C262.762 531.166 261.131 513.979 260.515 507.466C260.146 503.569 256.56 500.805 252.698 501.449ZM247.778 515.986C249.133 530.302 255.821 600.94 258.687 630.31C218.97 629.222 183.294 625.754 153.023 620.891C150.958 593.981 148.905 564.632 146.865 533.109C168.061 529.382 202.2 523.595 247.778 515.986Z" fill="#626262"/>
<path d="M404.953 476.902C351.649 485.208 305.94 492.604 252.698 501.476C249.205 502.058 246.742 505.261 247.075 508.787C247.684 515.22 256.927 612.852 259.419 638.014C259.756 641.417 262.579 644.021 265.998 644.087C319.921 645.123 374.781 641.568 430.4 632.306C434.07 631.695 436.569 628.217 435.967 624.545C435.785 623.435 412.84 483.579 412.658 482.469C412.058 478.812 408.615 476.331 404.953 476.902ZM400.427 491.298C402.428 503.499 419.519 607.686 421.543 620.019C371.108 628.008 321.313 631.19 272.268 630.563C269.929 606.842 267.698 583.679 262.764 531.449C262.754 531.341 261.819 521.338 261.106 513.792C309.28 505.779 352.237 498.829 400.427 491.298Z" fill="#626262"/>
<path d="M568.427 452.355C513.918 460.204 459.804 468.355 404.953 476.902C401.25 477.479 398.723 480.964 399.33 484.662L422.639 626.739C423.244 630.423 426.717 632.919 430.4 632.306C487.768 622.753 544.575 607.204 599.75 585.153C602.845 583.916 604.582 580.611 603.827 577.365C603.609 576.428 576.18 458.465 575.963 457.529C575.169 454.116 571.895 451.856 568.427 452.355ZM564.21 466.639C566.766 477.635 586.925 564.278 589.346 574.694C538.933 594.411 487.169 608.621 434.87 617.769L413.754 489.189C464.189 481.353 514.066 473.883 564.21 466.639Z" fill="#626262"/>
<path d="M674.403 437.623C634.883 442.971 600.54 447.733 568.429 452.356C564.515 452.92 561.91 456.715 562.806 460.567L590.67 580.402C591.606 584.428 595.914 586.688 599.752 585.154C633.763 571.561 666.591 555.749 698.303 537.467C700.841 536.004 702.15 533.077 701.536 530.213C695.05 499.944 688.672 471.479 681.882 442.768C681.083 439.39 677.844 437.157 674.403 437.623ZM670.101 451.85C675.977 476.874 681.601 501.913 687.253 528.16C659.714 543.79 631.309 557.523 602.001 569.577L577.624 464.728C605.92 460.675 636.121 456.461 670.101 451.85Z" fill="#626262"/>
<path d="M694.647 524.87C693.601 524.911 692.545 525.198 691.554 525.77C679.229 532.874 666.508 539.68 653.202 546.351C650.414 547.749 648.953 550.877 649.659 553.915L669.06 637.339C670.222 642.337 676.318 644.278 680.138 640.853C691.927 630.286 703.419 618.985 714.582 606.972C716.057 605.385 716.663 603.192 716.241 601.068C712.131 580.416 707.272 556.981 701.535 530.212C700.816 526.855 697.783 524.746 694.647 524.87ZM690.176 541.993C694.715 563.318 698.857 583.064 702.295 600.252C694.862 608.148 687.257 615.621 679.548 622.858L663.999 555.996C672.961 551.43 681.659 546.756 690.176 541.993Z" fill="#626262"/>
<path d="M656.211 545.648C655.206 545.65 654.178 545.862 653.203 546.351C610.453 567.786 566.272 584.896 520.967 597.947C517.615 598.912 515.531 602.28 516.187 605.707C518.41 617.304 538.329 720.729 538.175 719.919C538.975 724.118 543.447 726.527 547.398 724.896C594.761 705.34 639.146 677.598 680.139 640.853C681.973 639.21 682.778 636.701 682.22 634.302C682.068 633.65 662.97 551.53 662.819 550.878C662.077 547.689 659.228 545.643 656.211 545.648ZM651.572 562.069C654.559 574.912 666.537 626.512 668.133 633.374C631.347 665.813 591.81 690.83 549.844 709.094C547.597 697.437 534.042 627.085 530.583 609.081C571.909 596.832 612.327 581.207 651.572 562.069Z" fill="#626262"/>
<path d="M523.75 597.751C522.833 597.618 521.892 597.673 520.938 597.948C464.135 614.308 406.461 624.21 348.945 628.427C345.079 628.71 342.259 632.175 342.759 636.018C344.24 647.401 357.613 750.225 357.746 751.243C357.886 752.32 358.276 753.361 358.898 754.251L360.923 757.147C362.19 758.96 364.279 760.023 366.49 760.015C428.739 759.819 489.549 748.782 547.397 724.897C550.356 723.675 552.045 720.535 551.445 717.39C551.619 718.298 531.651 614.77 529.43 603.177C528.869 600.254 526.5 598.149 523.75 597.751ZM517.536 612.878C521.359 632.756 535.605 706.611 537.106 714.381C483.824 735.602 427.968 745.751 370.736 746.407C369.983 740.62 359.628 661.149 357.043 641.276C410.711 636.913 464.445 627.656 517.536 612.878Z" fill="#626262"/>
<path d="M184.571 625.249C180.365 624.764 176.752 628.225 177.064 632.447C178.849 656.594 184.141 725.139 184.234 726.218C184.467 728.923 186.29 731.204 188.873 732.039C211.682 739.412 236.593 745.836 263.356 750.709C296.913 756.818 331.434 760.126 366.49 760.015C371.938 759.998 375.122 753.852 372.001 749.387L370.904 747.841C370.526 744.932 357.602 645.492 356.143 634.275C355.681 630.725 352.515 628.165 348.945 628.427C290.174 632.736 235.088 631.076 184.571 625.249ZM191.123 639.477C238.363 644.468 289.41 645.855 343.574 642.26C346.022 661.071 356.104 738.702 357.099 746.35C299.656 745.538 245.675 735.718 197.337 720.511C196.842 714.206 193.133 666.246 191.123 639.477Z" fill="#626262"/>
<path d="M147.794 620.131C143.465 619.399 139.61 622.952 139.949 627.329C143.177 668.925 145.641 696.197 147.878 713.115C148.187 715.446 149.693 717.449 151.843 718.401C152.312 718.609 153.19 718.997 154.458 719.526C156.544 720.395 158.984 721.369 161.768 722.45C169.691 725.526 178.765 728.77 188.873 732.038C193.466 733.522 198.089 729.845 197.674 725.037C197.586 724.014 192.288 655.564 190.504 631.434C190.265 628.204 187.789 625.62 184.571 625.248C170.551 623.631 158.088 621.871 147.794 620.131ZM154.092 634.752C161.22 635.843 168.973 636.896 177.486 637.929C179.285 661.98 182.499 703.628 183.447 715.814C177.657 713.812 171.553 711.781 166.661 709.881C164.45 709.023 162.609 708.263 160.869 707.548C158.952 692.213 156.751 668.358 154.092 634.752Z" fill="#626262"/>
<mask id="mask0_415_14914" style="mask-type:luminance" maskUnits="userSpaceOnUse" x="71" y="31" width="658" height="738">
<path d="M728.219 31.6816H71.7754V768.316H728.219V31.6816Z" fill="white"/>
<path d="M408.695 46.792C394.835 46.4731 381.292 46.8505 368.094 47.8605L364.86 91.8921C348.803 94.0539 333.246 96.8513 318.382 100.243L304.183 57.814C280.506 63.4647 258.336 71.1601 237.377 79.9704L235.296 126.223C220.885 131.987 207.551 137.961 195.51 143.853L184.488 106.147C160.2 120.135 138.263 135.342 119.059 150.545C119.059 150.545 127.524 330.779 137.335 491.073C129.264 486.642 111.409 479.743 98.1395 496.106C81.502 516.623 73.5133 566.738 144.449 597.75C147.964 646.519 151.445 688.607 154.571 712.243C154.571 712.243 472.828 857.231 709.634 602.389C702.85 568.297 694.845 530.057 685.538 488.683C706.9 474.869 713.58 449.895 713.205 433.151C712.643 408.074 700.998 397.498 678.818 379.419C672.877 374.577 665.855 374.526 658.77 376.917C636.03 287.725 607.261 187.899 570.229 80.7296C548.232 72.0659 526.834 65.3229 505.981 60.1196L503.816 92.9606C491.003 90.972 478.373 89.5755 465.942 88.6586L451.236 49.9131C436.731 48.1262 422.555 47.111 408.695 46.792Z" fill="black"/>
</mask>
<g mask="url(#mask0_415_14914)">
<path d="M408.695 46.792C394.835 46.4731 381.292 46.8505 368.094 47.8605L364.86 91.8921C348.803 94.0539 333.246 96.8513 318.382 100.243L304.183 57.814C280.506 63.4647 258.336 71.1601 237.377 79.9704L235.296 126.223C220.885 131.987 207.551 137.961 195.51 143.853L184.488 106.147C160.2 120.135 138.263 135.342 119.059 150.545C119.059 150.545 127.524 330.779 137.335 491.073C129.264 486.642 111.409 479.743 98.1395 496.106C81.502 516.623 73.5133 566.738 144.449 597.75C147.964 646.519 151.445 688.607 154.571 712.243C154.571 712.243 472.828 857.231 709.634 602.389C702.85 568.297 694.845 530.057 685.538 488.683C706.9 474.869 713.58 449.895 713.205 433.151C712.643 408.074 700.998 397.498 678.818 379.419C672.877 374.577 665.855 374.526 658.77 376.917C636.03 287.725 607.261 187.899 570.229 80.7296C548.232 72.0659 526.834 65.3229 505.981 60.1196L503.816 92.9606C491.003 90.972 478.373 89.5755 465.942 88.6586L451.236 49.9131C436.731 48.1262 422.555 47.111 408.695 46.792Z" stroke="black" stroke-width="0.0375" stroke-miterlimit="10" stroke-linejoin="round"/>
</g>
<path d="M408.695 46.792C394.835 46.4731 381.292 46.8505 368.094 47.8605L364.86 91.8921C348.803 94.0539 333.246 96.8513 318.382 100.243L304.183 57.814C280.506 63.4647 258.336 71.1601 237.377 79.9704L235.296 126.223C220.885 131.987 207.551 137.961 195.51 143.853L184.488 106.147C160.2 120.135 138.263 135.342 119.059 150.545C119.059 150.545 140.382 604.972 154.571 712.243C154.571 712.243 472.828 857.231 709.634 602.389C684.167 474.409 643.071 291.528 570.229 80.7296C548.232 72.0659 526.834 65.3229 505.981 60.1196L503.816 92.9606C491.003 90.972 478.373 89.5756 465.942 88.6586L451.236 49.9131C436.731 48.1262 422.555 47.111 408.695 46.792Z" stroke="black" stroke-width="0.01875" stroke-miterlimit="10" stroke-linejoin="round"/>
<path d="M409.003 33.2957C394.854 32.9701 380.854 33.336 367.052 34.3922C360.395 34.9017 355.113 40.2177 354.625 46.8763L352.178 80.2234C343.757 81.5245 335.491 82.9924 327.379 84.6378L316.976 53.5401C314.757 46.9108 307.861 43.0604 301.061 44.6831C277.96 50.1965 255.272 57.8213 232.146 67.5425C227.34 69.5626 224.114 74.1439 223.879 79.3517L222.192 117.113C216.032 119.68 209.974 122.29 204.057 124.986L197.449 102.352C194.996 93.9606 185.314 90.0878 177.739 94.4507C153.998 108.124 131.492 123.496 110.679 139.973C107.271 142.671 105.386 146.849 105.59 151.191C105.603 151.478 108.871 218.562 110.089 242.544C113.568 311.067 117.237 379.592 120.97 443.555C121.552 453.526 122.137 462.94 122.713 472.544C121.85 472.465 121.002 472.319 120.127 472.29C107.798 471.887 96.389 476.839 87.6512 487.614C75.4166 502.702 69.964 524.91 75.3639 546.295C81.4353 570.339 100.279 591.101 131.598 606.522C135.272 656.668 138.431 693.183 141.186 714.015C141.796 718.626 144.742 722.602 148.975 724.53C149.814 724.912 151.337 725.57 153.502 726.471C157.029 727.938 161.139 729.562 165.817 731.307C179.095 736.257 194.257 741.185 211.086 745.787C258.881 758.859 310.488 766.745 364.044 766.819C433.053 766.914 500.225 753.951 563.648 725.29C620.223 699.723 672.511 662.184 719.53 611.583C722.48 608.409 723.722 603.996 722.876 599.746C716.018 565.278 708.546 530.02 700.551 494.166C708.985 486.859 715.478 477.733 719.924 467.314C724.678 456.172 726.949 443.947 726.7 432.842C726.369 418.059 722.677 406.413 715.088 395.812C709.153 387.52 702.41 381.246 687.336 368.96C681.734 364.393 675.421 362.187 668.751 361.93C644.139 266.601 615.997 171.827 582.993 76.3151C581.705 72.588 578.845 69.6061 575.176 68.1611C553.239 59.5209 531.313 52.5241 509.241 47.0169C501.078 44.9799 493.065 50.824 492.512 59.2198L491.303 77.6647C486.095 77.0214 480.845 76.4844 475.585 76.0058L463.86 45.133C462.084 40.452 457.864 37.1413 452.894 36.5291C438.129 34.7103 423.497 33.6292 409.003 33.2957ZM408.694 46.7919C422.554 47.1109 436.73 48.1261 451.235 49.913L465.941 88.6585C478.372 89.5755 491.002 90.9719 503.815 92.9605L505.98 60.1195C526.833 65.3228 548.231 72.0658 570.228 80.7295C607.26 187.899 636.029 287.725 658.769 376.917C665.854 374.526 672.876 374.577 678.817 379.419C700.997 397.498 712.642 408.074 713.204 433.151C713.579 449.895 706.899 474.869 685.537 488.683C694.844 530.057 702.849 568.297 709.633 602.389C472.827 857.231 154.57 712.243 154.57 712.243C151.444 688.608 147.963 646.519 144.448 597.75C73.5126 566.738 81.5014 516.623 98.1389 496.106C111.408 479.743 129.263 486.642 137.334 491.073C127.523 330.779 119.058 150.545 119.058 150.545C138.262 135.342 160.199 120.135 184.487 106.147L195.509 143.853C207.55 137.961 220.884 131.987 235.295 126.223L237.376 79.9703C258.335 71.16 280.505 63.4646 304.182 57.8139L318.381 100.243C333.245 96.8512 348.802 94.0538 364.859 91.892L368.093 47.8604C381.291 46.8504 394.834 46.473 408.694 46.7919Z" fill="black"/>
<path d="M408.863 40.0443C394.937 39.7239 381.165 40.1018 367.587 41.1409C364.258 41.3956 361.617 44.0255 361.373 47.3548L358.533 86.0441C346.33 87.8084 334.45 89.9716 322.908 92.4549L310.593 55.6775C309.484 52.3629 306.008 50.4517 302.608 51.2631C279.882 56.6866 257.562 64.1725 234.761 73.7569C232.358 74.767 230.745 77.0576 230.627 79.6615L228.744 121.669C218.758 125.747 209.118 130.028 199.783 134.434L190.954 104.265C189.728 100.069 184.901 98.1181 181.113 100.3C157.664 113.805 135.426 128.985 114.869 145.26C113.165 146.609 112.208 148.684 112.31 150.855C112.323 151.141 115.593 218.214 116.809 242.18C120.283 310.656 123.961 379.105 127.69 443.02C130.653 493.809 133.527 539.605 136.266 579.193C140.616 642.073 144.52 687.724 147.878 713.115C148.183 715.422 149.67 717.409 151.787 718.373C151.996 718.468 152.361 718.64 152.911 718.88C153.808 719.271 154.872 719.722 156.089 720.229C159.54 721.664 163.581 723.266 168.179 724.98C181.273 729.862 196.258 734.745 212.885 739.292C260.136 752.214 311.13 759.998 364.044 760.071C432.135 760.164 498.393 747.377 560.893 719.133C616.651 693.935 668.173 656.915 714.582 606.972C716.057 605.385 716.663 603.193 716.241 601.068C700.622 522.578 684.149 448.699 664.224 370.928C639.254 273.465 610.406 176.339 576.61 78.5368C575.966 76.6733 574.537 75.1823 572.702 74.4598C551.04 65.928 529.398 59.005 507.611 53.5687C503.529 52.5502 499.536 55.4723 499.26 59.6702L497.573 85.3131C488.704 84.0802 479.774 83.0763 470.749 82.3327L457.534 47.5235C456.645 45.183 454.536 43.5276 452.051 43.2216C437.508 41.4301 423.133 40.3726 408.863 40.0443ZM408.525 53.5406C421.037 53.8285 433.691 54.7629 446.427 56.2117L459.643 91.049C460.573 93.5008 462.819 95.1862 465.435 95.3791C478.055 96.3099 490.481 97.7168 502.774 99.6248C506.689 100.233 510.274 97.3636 510.535 93.4109L512.166 68.752C529.769 73.4465 547.291 79.1163 564.829 85.9036C598.057 182.337 626.522 278.175 651.149 374.302C670.712 450.66 686.956 523.289 702.323 600.253C657.752 647.609 608.515 682.808 555.326 706.845C494.674 734.254 430.326 746.665 364.072 746.574C312.442 746.503 262.588 738.898 216.428 726.274C200.204 721.836 185.629 717.073 172.903 712.328C168.464 710.673 164.56 709.146 161.262 707.773C161.137 707.721 160.996 707.641 160.84 707.576C157.624 681.964 153.883 638.237 149.734 578.264C146.999 538.731 144.119 493.005 141.158 442.261C137.431 378.384 133.749 309.921 130.277 241.477C129.108 218.443 126.221 158.811 125.975 153.751C143.065 140.401 161.336 127.88 180.466 116.439L189.042 145.738C190.216 149.755 194.702 151.766 198.461 149.926C210.895 143.842 224.094 137.975 237.797 132.493C240.257 131.51 241.924 129.18 242.043 126.534L243.927 84.6102C262.692 76.9089 281.15 70.7063 299.768 65.9403L311.971 102.381C313.072 105.671 316.489 107.595 319.872 106.823C334.55 103.474 349.919 100.717 365.759 98.5844C368.923 98.1585 371.345 95.5821 371.579 92.3986L374.391 54.2998C385.654 53.6034 397.013 53.2757 408.525 53.5406Z" fill="black"/>
<path d="M175.877 485.301C175.877 373.185 266.765 282.297 378.88 282.297C490.996 282.297 581.884 373.185 581.884 485.301C581.884 597.417 490.996 688.304 378.88 688.304C266.765 688.304 175.877 597.417 175.877 485.301Z" fill="#F3886D" stroke="black" stroke-width="0.01875" stroke-miterlimit="10" stroke-linejoin="round"/>
<path d="M446.764 343.681C437.363 343.799 427.701 345.146 418.056 347.842C381.589 358.036 355.135 384.82 347.144 415.211C331.441 394.699 303.003 380.351 270.862 379.418C222.791 378.022 184.783 407.075 185.948 444.313C186.668 467.322 202.194 488.058 225.284 500.885C221.452 516.621 220.798 532.798 224.075 548.712C238.327 617.924 319.519 656.077 405.431 633.936C491.344 611.794 549.444 537.733 535.193 468.522C533.932 462.4 532.087 456.536 529.822 450.92C536.461 435.28 538.133 418.145 533.477 401.49C523.483 365.733 487.499 343.172 446.764 343.681Z" fill="#F9B192"/>
<path d="M243.688 533.928C243.688 533.928 322.516 463.106 500.685 483.121C500.685 483.121 512.682 486.776 506.367 505.642C500.052 524.508 471.882 572.555 433.571 592.825C395.259 613.095 360.028 623.363 313.717 602.088C267.405 580.813 244.753 547.433 244.753 547.433L243.688 533.928Z" fill="white" stroke="black" stroke-width="0.01875" stroke-miterlimit="10" stroke-linejoin="round"/>
<path d="M255.207 558.645C255.207 558.645 277.083 548.967 294.869 544.262" stroke="black" stroke-width="0.01875" stroke-miterlimit="10" stroke-linecap="round" stroke-linejoin="round"/>
<path d="M504.111 503.165C504.111 503.165 482.056 506.602 469.418 510.261" stroke="black" stroke-width="0.01875" stroke-miterlimit="10" stroke-linecap="round" stroke-linejoin="round"/>
<path d="M416.488 406.125C416.488 406.125 437.4 381.58 470.687 372.772C470.687 372.772 481.417 373.646 487.65 378.969" stroke="black" stroke-width="0.01875" stroke-miterlimit="10" stroke-linecap="round" stroke-linejoin="round"/>
<path d="M286.708 430.173C286.708 430.173 255.177 414.182 228.685 419.872C228.685 419.872 221.434 424.172 212.434 437.372" stroke="black" stroke-width="0.01875" stroke-miterlimit="10" stroke-linecap="round" stroke-linejoin="round"/>
<path d="M175.877 485.301C175.877 373.185 266.765 282.297 378.88 282.297C490.996 282.297 581.884 373.185 581.884 485.301C581.884 597.417 490.996 688.304 378.88 688.304C266.765 688.304 175.877 597.417 175.877 485.301Z" stroke="black" stroke-width="0.01875" stroke-miterlimit="10" stroke-linejoin="round"/>
<path d="M378.89 275.554C263.047 275.554 169.135 369.466 169.135 485.309C169.135 601.152 263.047 695.064 378.89 695.064C494.733 695.064 588.645 601.151 588.645 485.309C588.645 369.466 494.733 275.554 378.89 275.554ZM378.89 289.05C487.279 289.05 575.148 376.92 575.148 485.309C575.148 593.698 487.279 681.567 378.89 681.567C270.501 681.567 182.631 593.698 182.631 485.309C182.631 376.92 270.501 289.05 378.89 289.05Z" fill="black"/>
<path d="M446.681 336.934C436.545 337.061 426.295 338.535 416.23 341.348C382.746 350.708 356.256 373.703 344.475 402.138C326.468 384.555 299.738 373.504 271.061 372.671C219.456 371.173 177.901 402.946 179.202 444.539C179.939 468.094 194.606 489.767 217.807 504.147C214.665 519.639 214.388 535.099 217.47 550.063C232.582 623.451 317.777 663.486 407.121 640.46C496.251 617.489 556.851 540.256 541.802 467.173C540.682 461.734 539.031 456.347 537.022 451.006C543.524 434.29 544.695 416.55 539.975 399.664C529.278 361.397 491.073 336.379 446.681 336.934ZM446.85 350.43C485.441 349.948 518.036 371.307 526.984 403.319C531.101 418.044 529.85 433.578 523.61 448.278C522.912 449.924 522.885 451.793 523.554 453.452C525.759 458.919 527.453 464.365 528.587 469.872C542.041 535.211 486.443 606.1 403.746 627.413C321.265 648.671 244.076 612.398 230.685 547.364C227.695 532.843 228.132 517.707 231.837 502.488C232.556 499.537 231.232 496.457 228.576 494.981C206.759 482.862 193.319 463.927 192.698 444.089C191.669 411.202 226.135 384.874 270.667 386.167C300.026 387.02 326.908 399.896 341.776 419.318C345.188 423.775 352.242 422.356 353.67 416.928C361.246 388.111 386.543 363.658 419.886 354.339C428.822 351.841 437.885 350.542 446.85 350.43Z" fill="black" fill-opacity="0.5"/>
<path d="M433.915 472.824C412.446 473.042 391.997 474.632 372.592 477.491C340.589 482.207 312.48 490.182 288.155 500.519C273.787 506.626 261.602 513.192 251.547 519.78C247.992 522.109 244.946 524.28 242.409 526.247C240.839 527.463 239.768 528.385 239.175 528.918C237.612 530.322 236.789 532.362 236.954 534.457C236.987 534.879 237.989 547.531 238.022 547.953C238.114 549.12 238.518 550.246 239.175 551.215C239.637 551.896 240.493 553.08 241.734 554.673C243.753 557.266 246.149 560.139 248.96 563.221C256.944 571.973 266.542 580.716 277.78 588.864C287.937 596.227 298.983 602.733 310.902 608.208C334.163 618.894 355.791 622.468 377.484 619.736C396.094 617.393 414.288 610.662 436.727 598.789C455.138 589.048 472.392 572.788 487.366 552.733C499.206 536.875 508.878 519.359 512.756 507.773C516.773 495.774 515.077 486.59 509.185 480.753C507.873 479.453 506.458 478.453 505.024 477.688C504.088 477.189 503.296 476.869 502.662 476.676C502.266 476.555 501.864 476.469 501.453 476.423C477.895 473.776 455.384 472.606 433.915 472.824ZM434.14 486.32C454.71 486.115 476.293 487.223 498.894 489.722C499.165 489.887 499.44 490.074 499.71 490.341C501.745 492.357 502.424 496.146 499.963 503.5C496.577 513.616 487.602 529.887 476.569 544.663C462.696 563.244 446.846 578.181 430.429 586.867C409.305 598.044 392.525 604.246 375.797 606.353C356.651 608.764 337.541 605.603 316.526 595.949C305.434 590.854 295.168 584.784 285.709 577.926C275.25 570.343 266.331 562.212 258.942 554.111C256.372 551.294 254.171 548.701 252.362 546.378C251.958 545.859 251.674 545.436 251.35 545.001C251.19 542.97 250.946 539.975 250.703 536.903C252.956 535.158 255.701 533.205 258.942 531.083C268.337 524.927 279.824 518.734 293.441 512.947C316.716 503.055 343.708 495.393 374.56 490.847C393.386 488.073 413.251 486.528 434.14 486.32Z" fill="black"/>
<path d="M295.83 537.578C294.963 537.454 294.032 537.508 293.131 537.746C290.321 538.49 287.333 539.354 284.19 540.361C280.93 541.406 277.562 542.576 274.068 543.848C268.892 545.731 263.736 547.739 258.856 549.753C257.147 550.458 252.559 552.442 252.474 552.48C249.065 553.988 247.535 557.957 249.043 561.365C250.551 564.773 254.52 566.331 257.928 564.823C257.992 564.795 262.353 562.917 264.002 562.237C268.716 560.291 273.698 558.341 278.679 556.529C282.017 555.314 285.239 554.2 288.323 553.211C291.256 552.271 294.018 551.473 296.59 550.793C300.192 549.84 302.351 546.129 301.398 542.526C300.683 539.824 298.434 537.949 295.83 537.578Z" fill="black"/>
<path d="M503.083 496.498C502.99 496.513 497.994 497.339 496.194 497.651C491.046 498.546 485.89 499.509 481.067 500.519C475.797 501.623 471.23 502.713 467.543 503.781C463.963 504.817 461.895 508.552 462.931 512.132C463.968 515.712 467.702 517.779 471.282 516.743C474.592 515.785 478.856 514.775 483.822 513.734C488.476 512.759 493.493 511.82 498.5 510.951C500.254 510.646 505.058 509.838 505.135 509.826C508.818 509.252 511.361 505.804 510.787 502.122C510.213 498.439 506.765 495.925 503.083 496.498Z" fill="black"/>
<path d="M471.226 366.035C470.462 365.973 469.689 366.064 468.948 366.26C456.441 369.57 444.786 375.114 434.083 382.287C427.813 386.49 422.244 390.99 417.438 395.502C415.743 397.093 414.262 398.574 412.995 399.917C412.21 400.749 411.679 401.375 411.364 401.744C408.947 404.581 409.287 408.859 412.123 411.276C414.96 413.693 419.21 413.326 421.627 410.489C421.653 410.459 422.438 409.588 422.808 409.195C423.892 408.047 425.197 406.743 426.688 405.343C430.983 401.312 435.992 397.277 441.618 393.506C450.824 387.336 460.762 382.578 471.31 379.644C471.776 379.711 472.238 379.797 472.772 379.897C474.871 380.289 476.96 380.834 478.846 381.584C480.672 382.311 482.174 383.187 483.26 384.115C486.094 386.535 490.372 386.19 492.792 383.356C495.212 380.521 494.867 376.272 492.033 373.852C489.709 371.868 486.93 370.28 483.822 369.044C481.045 367.94 478.144 367.167 475.247 366.626C474.237 366.437 473.29 366.284 472.435 366.176C471.895 366.108 471.49 366.057 471.226 366.035Z" fill="black"/>
<path d="M239.708 411.923C235.388 411.991 231.225 412.419 227.252 413.272C226.539 413.426 225.856 413.687 225.228 414.06C224.802 414.312 224.176 414.728 223.372 415.325C222.151 416.232 220.817 417.367 219.351 418.727C215.309 422.477 211.09 427.38 206.867 433.573C204.768 436.652 205.559 440.836 208.639 442.936C211.718 445.036 215.902 444.244 218.002 441.165C221.654 435.808 225.216 431.687 228.518 428.624C229.582 427.637 230.52 426.87 231.329 426.263C234.054 425.757 236.912 425.439 239.933 425.391C249.45 425.24 259.857 427.305 270.3 430.818C273.858 432.014 277.167 433.279 280.113 434.557C281.134 435 282.044 435.403 282.812 435.766C283.255 435.975 283.533 436.125 283.656 436.188C286.979 437.874 291.052 436.559 292.737 433.236C294.423 429.912 293.081 425.84 289.757 424.154C288.931 423.735 287.481 423.052 285.483 422.186C282.202 420.762 278.539 419.349 274.602 418.024C262.824 414.062 250.972 411.744 239.708 411.923Z" fill="black"/>
<path d="M378.89 275.554C263.047 275.554 169.135 369.466 169.135 485.309C169.135 601.152 263.047 695.064 378.89 695.064C494.733 695.064 588.645 601.151 588.645 485.309C588.645 369.466 494.733 275.554 378.89 275.554ZM378.89 289.05C487.279 289.05 575.148 376.92 575.148 485.309C575.148 593.698 487.279 681.567 378.89 681.567C270.501 681.567 182.631 593.698 182.631 485.309C182.631 376.92 270.501 289.05 378.89 289.05Z" fill="black"/>
<path d="M472.876 443.41C470.971 432.531 486.186 420.778 506.859 417.157C527.532 413.537 545.835 419.421 547.74 430.299C549.645 441.178 534.431 452.932 513.757 456.552C493.084 460.172 474.781 454.288 472.876 443.41Z" fill="#FF497F" stroke="black" stroke-width="0.01875" stroke-miterlimit="10" stroke-linejoin="round"/>
<path d="M188.435 494.104C184.62 483.739 197.495 469.461 217.191 462.212C236.887 454.964 255.946 457.489 259.761 467.854C263.575 478.218 250.701 492.496 231.004 499.745C211.308 506.994 192.249 504.468 188.435 494.104Z" fill="#FF497F" stroke="black" stroke-width="0.01875" stroke-miterlimit="10" stroke-linejoin="round"/>
<path d="M522.991 409.447C517.522 409.124 511.664 409.471 505.699 410.516C481.839 414.694 463.472 428.861 466.222 444.566C468.972 460.271 491.061 467.386 514.921 463.208C538.781 459.029 557.148 444.834 554.398 429.129C552.335 417.351 539.396 410.417 522.991 409.447ZM520.404 422.859C531.916 423.164 540.303 426.924 541.098 431.463C542.158 437.515 530.073 446.846 512.587 449.908C495.101 452.97 480.581 448.284 479.521 442.232C478.462 436.18 490.546 426.878 508.032 423.815C512.404 423.05 516.567 422.758 520.404 422.859Z" fill="black"/>
<path d="M239.597 451.315C231.935 451.216 223.378 452.733 214.854 455.87C192.121 464.236 176.59 481.481 182.097 496.443C187.604 511.406 210.594 514.454 233.327 506.087C256.059 497.721 271.59 480.477 266.083 465.514C262.642 456.163 252.367 451.48 239.597 451.315ZM237.01 464.839C245.695 464.436 252.104 466.578 253.431 470.182C255.553 475.948 245.347 487.275 228.687 493.407C212.028 499.538 196.9 497.542 194.778 491.776C192.656 486.009 202.861 474.682 219.521 468.551C225.769 466.252 231.799 465.081 237.01 464.839Z" fill="black"/>
<path d="M619.496 408.814C619.496 408.814 656.628 361.336 678.808 379.414C700.988 397.492 712.654 408.061 713.216 433.138C713.778 458.215 698.679 501.906 641.801 498.612" fill="#F3886D"/>
<path d="M698.501 396.964C650.652 418.424 640.046 467.063 637.824 482.61L641.788 498.608C698.666 501.903 713.768 458.228 713.206 433.151C712.845 417.055 707.855 406.928 698.501 396.964Z" fill="#F9B192"/>
<path d="M647.045 452.278C647.045 452.278 657.348 425.439 679.987 408.359" stroke="black" stroke-width="0.01875" stroke-miterlimit="10" stroke-linecap="round" stroke-linejoin="round"/>
<path d="M680.926 401.688C679.216 401.449 677.409 401.859 675.922 402.981C669.84 407.57 664.284 413.005 659.248 419.121C653.739 425.812 649.118 432.953 645.33 440.096C644 442.603 642.869 444.933 641.928 447.041C641.348 448.338 640.962 449.292 640.747 449.853C639.411 453.332 641.148 457.234 644.627 458.569C648.106 459.905 652.008 458.168 653.343 454.689C653.367 454.629 653.431 454.475 653.54 454.211C653.735 453.74 653.989 453.184 654.271 452.552C655.092 450.714 656.069 448.652 657.252 446.423C660.64 440.034 664.79 433.635 669.68 427.697C674.071 422.362 678.861 417.664 684.047 413.75C687.023 411.506 687.614 407.278 685.369 404.303C684.247 402.815 682.637 401.927 680.926 401.688Z" fill="black"/>
<path d="M660.912 428.436C660.912 428.436 673.627 432.105 679.113 439.69" stroke="black" stroke-width="0.01875" stroke-miterlimit="10" stroke-linecap="round" stroke-linejoin="round"/>
<path d="M660.12 421.736C657.509 422.048 655.215 423.886 654.44 426.572C653.407 430.153 655.47 433.889 659.051 434.923C659.13 434.945 659.332 435.008 659.67 435.119C660.271 435.319 660.957 435.564 661.694 435.851C663.8 436.669 665.905 437.644 667.824 438.775C670.445 440.32 672.455 441.995 673.644 443.639C675.828 446.659 680.043 447.341 683.063 445.157C686.083 442.973 686.766 438.758 684.582 435.738C682.154 432.381 678.776 429.574 674.684 427.162C672.081 425.627 669.326 424.347 666.587 423.282C664.931 422.638 663.621 422.2 662.791 421.961C661.896 421.702 660.99 421.631 660.12 421.736Z" fill="black"/>
<path d="M619.496 408.814C619.496 408.814 656.628 361.336 678.808 379.414C700.988 397.492 712.654 408.061 713.216 433.138C713.778 458.215 698.679 501.906 641.801 498.612" stroke="black" stroke-width="0.01875" stroke-miterlimit="10" stroke-linejoin="round"/>
<path d="M666.221 368.566C662.544 368.706 658.721 369.581 654.805 371.096C646.941 374.14 638.893 379.7 630.765 387.067C626.527 390.908 622.514 395.005 618.872 399.101C617.595 400.537 616.467 401.861 615.469 403.066C614.859 403.803 614.418 404.359 614.176 404.668L624.804 412.963C624.838 412.921 625.562 412.045 625.873 411.67C626.772 410.584 627.798 409.384 628.966 408.071C632.306 404.314 635.97 400.537 639.819 397.049C646.828 390.696 653.619 386.007 659.67 383.665C665.955 381.232 670.73 381.541 674.544 384.649C688.243 395.815 694.105 401.264 698.64 407.593C703.797 414.789 706.215 422.478 706.457 433.292C706.755 446.58 702.396 461.407 693.748 472.319C682.888 486.022 665.997 493.268 642.181 491.888L641.422 505.356C669.545 506.985 690.702 497.916 704.348 480.698C715.074 467.163 720.318 449.257 719.953 432.983C719.651 419.522 716.39 409.187 709.606 399.72C704.137 392.088 697.694 386.114 683.063 374.189C678.059 370.11 672.35 368.333 666.221 368.566Z" fill="black"/>
<path d="M611.814 389.571C611.814 389.571 643.279 497.04 643.609 519.765" stroke="black" stroke-width="0.01875" stroke-miterlimit="10" stroke-linecap="round" stroke-linejoin="round"/>
<path d="M612.573 382.878C611.703 382.777 610.825 382.841 609.93 383.103C606.354 384.15 604.3 387.877 605.347 391.453C605.362 391.504 608.995 404.124 610.296 408.717C614.013 421.84 617.71 435.323 621.177 448.363C622.092 451.804 622.992 455.161 623.848 458.457C631.912 489.485 636.749 511.742 636.867 519.865C636.921 523.591 639.973 526.555 643.699 526.501C647.426 526.447 650.417 523.396 650.363 519.669C650.222 509.963 645.343 487.455 636.923 455.055C636.06 451.734 635.145 448.342 634.224 444.876C630.736 431.759 627.021 418.222 623.286 405.034C621.979 400.418 618.297 387.741 618.281 387.686C617.496 385.003 615.186 383.18 612.573 382.878Z" fill="black"/>
<path d="M174.977 483.524C174.977 371.408 265.865 280.521 377.981 280.521C490.097 280.521 580.984 371.408 580.984 483.524C580.984 595.639 490.097 686.527 377.981 686.527C265.865 686.527 174.977 595.639 174.977 483.524Z" fill="#F3886D" stroke="black" stroke-width="0.01875" stroke-miterlimit="10" stroke-linejoin="round"/>
<path d="M445.865 341.905C436.465 342.022 426.803 343.37 417.158 346.066C380.69 356.259 354.236 383.044 346.246 413.435C330.542 392.922 302.104 378.575 269.964 377.642C221.893 376.246 183.884 405.298 185.05 442.536C185.769 465.545 201.295 486.281 224.386 499.108C220.554 514.845 219.899 531.021 223.177 546.936C237.428 616.147 318.62 654.301 404.533 632.159C490.446 610.017 548.546 535.957 534.294 466.745C533.033 460.623 531.189 454.76 528.924 449.144C535.562 433.503 537.234 416.369 532.579 399.714C522.584 363.957 486.601 341.396 445.865 341.905Z" fill="#F9B192"/>
<path d="M242.787 532.151C242.787 532.151 321.616 461.329 499.786 481.345C499.786 481.345 511.783 485 505.468 503.866C499.153 522.732 470.981 570.778 432.67 591.048C394.359 611.319 359.128 621.587 312.816 600.312C266.504 579.037 243.853 545.656 243.853 545.656L242.787 532.151Z" fill="white" stroke="black" stroke-width="0.01875" stroke-miterlimit="10" stroke-linejoin="round"/>
<path d="M254.307 556.867C254.307 556.867 276.183 547.19 293.97 542.484" stroke="black" stroke-width="0.01875" stroke-miterlimit="10" stroke-linecap="round" stroke-linejoin="round"/>
<path d="M503.211 501.389C503.211 501.389 481.156 504.826 468.518 508.485" stroke="black" stroke-width="0.01875" stroke-miterlimit="10" stroke-linecap="round" stroke-linejoin="round"/>
<path d="M174.977 483.524C174.977 371.408 265.865 280.521 377.981 280.521C490.097 280.521 580.984 371.408 580.984 483.524C580.984 595.64 490.097 686.527 377.981 686.527C265.865 686.527 174.977 595.64 174.977 483.524Z" stroke="black" stroke-width="0.01875" stroke-miterlimit="10" stroke-linejoin="round"/>
<path d="M377.989 273.777C262.146 273.777 168.234 367.689 168.234 483.531C168.234 599.374 262.146 693.286 377.989 693.286C493.832 693.286 587.744 599.374 587.744 483.531C587.744 367.689 493.832 273.777 377.989 273.777ZM377.989 287.273C486.378 287.273 574.248 375.142 574.248 483.531C574.248 591.92 486.378 679.79 377.989 679.79C269.6 679.79 181.731 591.92 181.731 483.531C181.731 375.142 269.6 287.273 377.989 287.273Z" fill="black"/>
<path d="M445.781 335.157C435.644 335.283 425.394 336.758 415.33 339.571C381.846 348.93 355.356 371.926 343.575 400.361C325.568 382.778 298.837 371.726 270.16 370.894C218.555 369.395 177 401.168 178.301 442.761C179.038 466.317 193.705 487.989 216.906 502.37C213.765 517.862 213.488 533.321 216.569 548.285C231.681 621.674 316.876 661.71 406.22 638.682C495.351 615.711 555.951 538.479 540.902 465.396C539.782 459.956 538.131 454.569 536.122 449.228C542.624 432.513 543.794 414.773 539.074 397.886C528.378 359.62 490.172 334.602 445.781 335.157ZM445.95 348.653C484.541 348.171 517.136 369.529 526.084 401.541C530.2 416.267 528.949 431.8 522.71 446.501C522.011 448.147 521.984 450.016 522.653 451.675C524.858 457.141 526.552 462.588 527.686 468.095C541.141 533.433 485.542 604.323 402.846 625.636C320.364 646.894 243.176 610.62 229.784 545.586C226.794 531.066 227.231 515.93 230.937 500.711C231.656 497.759 230.331 494.679 227.675 493.204C205.859 481.084 192.418 462.15 191.798 442.311C190.769 409.425 225.235 383.097 269.767 384.39C299.126 385.242 326.007 398.119 340.875 417.54C344.288 421.997 351.342 420.579 352.769 415.15C360.345 386.333 385.643 361.881 418.985 352.561C427.921 350.063 436.985 348.765 445.95 348.653Z" fill="black" fill-opacity="0.5"/>
<path d="M433.016 471.047C411.547 471.265 391.097 472.855 371.692 475.715C339.69 480.43 311.58 488.405 287.256 498.743C272.888 504.849 260.702 511.416 250.647 518.003C247.092 520.332 244.046 522.503 241.509 524.47C239.94 525.686 238.868 526.609 238.275 527.141C236.713 528.545 235.889 530.586 236.054 532.68C236.088 533.102 237.089 545.755 237.123 546.177C237.215 547.344 237.618 548.47 238.275 549.438C238.738 550.119 239.593 551.303 240.834 552.897C242.853 555.49 245.249 558.363 248.06 561.444C256.044 570.197 265.643 578.94 276.88 587.087C287.038 594.451 298.083 600.956 310.003 606.432C333.263 617.118 354.891 620.692 376.584 617.96C395.195 615.616 413.388 608.885 435.827 597.013C454.238 587.272 471.492 571.012 486.467 550.957C498.307 535.099 507.979 517.583 511.856 505.997C515.873 493.998 514.177 484.813 508.286 478.976C506.974 477.677 505.559 476.677 504.124 475.912C503.188 475.412 502.396 475.092 501.762 474.899C501.366 474.779 500.965 474.693 500.553 474.646C476.996 472 454.485 470.829 433.016 471.047ZM433.241 484.544C453.81 484.338 475.394 485.447 497.995 487.946C498.266 488.111 498.541 488.298 498.81 488.564C500.846 490.581 501.525 494.37 499.063 501.723C495.677 511.839 486.702 528.111 475.67 542.887C461.796 561.468 445.947 576.405 429.529 585.091C408.406 596.267 391.626 602.469 374.897 604.576C355.751 606.988 336.642 603.827 315.626 594.173C304.535 589.078 294.268 583.007 284.81 576.15C274.351 568.567 265.431 560.435 258.042 552.334C255.472 549.517 253.271 546.925 251.462 544.602C251.058 544.083 250.775 543.659 250.45 543.224C250.29 541.193 250.046 538.198 249.804 535.127C252.057 533.382 254.802 531.429 258.042 529.306C267.437 523.151 278.925 516.958 292.542 511.171C315.817 501.279 342.808 493.616 373.66 489.07C392.486 486.297 412.352 484.752 433.241 484.544Z" fill="black"/>
<path d="M294.932 535.801C294.064 535.678 293.133 535.732 292.233 535.97C289.423 536.713 286.435 537.577 283.291 538.585C280.032 539.63 276.664 540.8 273.169 542.072C267.994 543.955 262.837 545.962 257.958 547.976C256.249 548.681 251.66 550.666 251.575 550.704C248.167 552.211 246.637 556.18 248.145 559.589C249.652 562.997 253.621 564.555 257.03 563.047C257.094 563.019 261.454 561.141 263.103 560.46C267.817 558.515 272.799 556.565 277.78 554.752C281.119 553.538 284.34 552.423 287.424 551.435C290.358 550.494 293.119 549.697 295.691 549.016C299.294 548.063 301.452 544.353 300.499 540.75C299.784 538.048 297.535 536.172 294.932 535.801Z" fill="black"/>
<path d="M502.184 494.722C502.092 494.736 497.095 495.562 495.295 495.875C490.148 496.769 484.992 497.732 480.168 498.743C474.898 499.847 470.331 500.937 466.644 502.004C463.064 503.041 460.996 506.775 462.033 510.355C463.069 513.935 466.804 516.003 470.383 514.966C473.694 514.008 477.957 512.999 482.924 511.958C487.578 510.983 492.595 510.044 497.601 509.174C499.355 508.87 504.16 508.062 504.237 508.05C507.919 507.476 510.462 504.028 509.888 500.345C509.314 496.663 505.867 494.148 502.184 494.722Z" fill="black"/>
<path d="M377.989 273.777C262.146 273.777 168.234 367.689 168.234 483.531C168.234 599.374 262.146 693.286 377.989 693.286C493.832 693.286 587.744 599.374 587.744 483.531C587.744 367.689 493.832 273.777 377.989 273.777ZM377.989 287.273C486.378 287.273 574.248 375.142 574.248 483.531C574.248 591.92 486.378 679.79 377.989 679.79C269.6 679.79 181.731 591.92 181.731 483.531C181.731 375.142 269.6 287.273 377.989 287.273Z" fill="black"/>
<path d="M471.976 441.633C470.07 430.755 485.285 419.001 505.958 415.381C526.631 411.761 544.934 417.644 546.839 428.523C548.744 439.402 533.53 451.155 512.857 454.776C492.184 458.396 473.881 452.512 471.976 441.633Z" fill="#FF497F" stroke="black" stroke-width="0.01875" stroke-miterlimit="10" stroke-linejoin="round"/>
<path d="M187.535 492.326C183.721 481.962 196.595 467.684 216.292 460.435C235.988 453.186 255.047 455.712 258.861 466.076C262.676 476.441 249.801 490.719 230.105 497.968C210.409 505.217 191.35 502.691 187.535 492.326Z" fill="#FF497F" stroke="black" stroke-width="0.01875" stroke-miterlimit="10" stroke-linejoin="round"/>
<path d="M522.091 407.671C516.623 407.348 510.764 407.695 504.799 408.739C480.939 412.918 462.572 427.085 465.322 442.789C468.073 458.494 490.161 465.61 514.021 461.431C537.881 457.253 556.248 443.058 553.498 427.353C551.435 415.574 538.497 408.641 522.091 407.671ZM519.504 421.083C531.016 421.388 539.404 425.148 540.199 429.687C541.259 435.739 529.174 445.069 511.688 448.132C494.202 451.194 479.682 446.508 478.622 440.456C477.562 434.403 489.647 425.101 507.133 422.039C511.504 421.273 515.667 420.981 519.504 421.083Z" fill="black"/>
<path d="M238.696 449.539C231.034 449.439 222.478 450.956 213.953 454.094C191.221 462.46 175.69 479.704 181.196 494.667C186.703 509.629 209.694 512.677 232.426 504.311C255.159 495.945 270.689 478.7 265.183 463.738C261.741 454.386 251.467 449.704 238.696 449.539ZM236.109 463.063C244.794 462.66 251.204 464.801 252.53 468.405C254.652 474.172 244.446 485.499 227.787 491.63C211.127 497.761 195.999 495.766 193.877 489.999C191.755 484.233 201.961 472.906 218.621 466.774C224.868 464.475 230.899 463.305 236.109 463.063Z" fill="black"/>
<path d="M471.685 357.349C459.481 357.701 447.411 362.71 435.892 370.873C431.833 373.748 428.161 376.82 424.898 379.899C423.748 380.984 422.713 382.019 421.833 382.936C421.286 383.506 420.909 383.914 420.68 384.173C418.212 386.965 418.479 391.236 421.271 393.705C424.063 396.173 428.306 395.906 430.774 393.114C430.884 392.99 431.172 392.705 431.59 392.27C432.318 391.51 433.166 390.639 434.148 389.712C436.977 387.043 440.196 384.384 443.708 381.895C456.207 373.039 468.933 368.923 480.795 371.744C484.421 372.606 488.059 370.366 488.921 366.74C489.783 363.114 487.542 359.477 483.916 358.614C479.831 357.643 475.753 357.232 471.685 357.349Z" fill="black"/>
<path d="M258.922 401.267C252.826 401.463 246.722 402.24 240.73 403.46C238.34 403.947 236.166 404.452 234.235 404.979C233.044 405.303 232.179 405.573 231.676 405.738C228.135 406.9 226.212 410.716 227.374 414.257C228.536 417.799 232.324 419.721 235.865 418.559C235.914 418.543 237.209 418.152 237.777 417.997C239.434 417.545 241.336 417.101 243.429 416.676C253.849 414.553 264.66 413.98 274.555 415.832C279.2 416.701 283.488 418.072 287.348 420.021C290.675 421.702 294.722 420.368 296.402 417.041C298.082 413.714 296.748 409.668 293.422 407.987C288.37 405.436 282.877 403.655 277.029 402.561C271.102 401.452 265.017 401.071 258.922 401.267Z" fill="black"/>
<path d="M262.352 432.656C262.352 427.727 266.234 423.731 271.024 423.731C275.813 423.731 279.696 427.727 279.696 432.656C279.696 437.585 275.813 441.581 271.024 441.581C266.234 441.581 262.352 437.585 262.352 432.656Z" fill="black"/>
<path d="M441.883 398.409C441.883 393.573 445.275 389.653 449.46 389.653C453.646 389.653 457.038 393.573 457.038 398.409C457.038 403.245 453.646 407.166 449.46 407.166C445.275 407.166 441.883 403.245 441.883 398.409Z" fill="black"/>
<path opacity="0.203389" d="M199.235 132.51L218.941 355.85C197.805 565.907 362.912 683.599 362.912 683.599C362.912 683.599 308.87 683.912 247.469 638.471L253.108 743.072L152.269 710.38L137.534 592.964L108.525 574.546C108.525 574.546 83.2005 531.263 82.2796 524.817C81.3587 518.37 90.5678 495.808 90.5678 495.808L109.446 478.771L128.325 481.534L129.706 412.926L114.972 143.561L184.04 101.659L199.235 132.51Z" fill="black"/>
<path opacity="0.203389" d="M653.442 431.664C664.597 418.754 668.752 411.943 679.786 408.102C702.038 400.358 714.493 441.715 714.493 441.715C714.493 441.715 724.56 474.347 700.663 481.856C674.62 490.038 682.731 536.745 682.731 536.745L665.227 541.15L641.719 497.954C641.719 497.954 612.827 423.237 624.843 433.972C634.482 442.585 648.768 437.074 653.442 431.664Z" fill="black"/>
</svg>
