<svg width="800" height="800" viewBox="0 0 800 800" fill="none" xmlns="http://www.w3.org/2000/svg">
<path d="M154.697 349.648C154.697 349.648 132.082 337.651 127.439 337.906C107.534 338.997 60.8352 352.483 123.437 464.568" fill="#F3886D"/>
<path d="M128.25 326.844C126.171 326.768 124.027 327.015 121.969 327.281C119.488 327.603 117.046 328.054 114.625 328.688C110.402 329.792 106.287 331.412 102.5 333.594C99.6457 335.238 96.963 337.181 94.5624 339.438C84.5921 348.809 80.7241 362.09 80.5937 375.469C80.4667 388.495 83.4804 401.458 87.4999 413.781C93.9267 433.485 103.192 452.16 113.219 470.25C116.353 475.886 123.489 477.916 129.125 474.781C134.761 471.647 136.791 464.543 133.656 458.906C126.361 445.833 119.536 432.445 113.906 418.562C109.646 408.057 105.934 397.174 104.188 385.938C103.866 383.87 103.619 381.775 103.469 379.688C102.874 371.44 103.625 361.747 109.938 355.656C113.373 352.342 117.973 350.565 122.594 349.656C123.709 349.437 124.839 349.279 125.969 349.156C126.31 349.119 126.655 349.072 127 349.062C128.308 349.411 129.607 349.928 130.844 350.438C132.767 351.23 134.677 352.09 136.562 352.969C140.935 355.007 145.266 357.151 149.531 359.406C154.927 362.264 161.611 360.208 164.469 354.812C167.327 349.417 165.271 342.733 159.875 339.875C153.681 336.59 147.375 333.433 140.938 330.656C136.985 328.951 132.628 327.003 128.25 326.844Z" fill="black"/>
<path d="M134.985 329.486C137.423 330.342 139.785 331.353 142.144 332.404C147.977 335.001 153.708 337.843 159.349 340.834C164.208 343.408 166.065 349.453 163.491 354.312C160.918 359.171 154.908 361.011 150.049 358.437C144.808 355.665 139.487 353.017 134.068 350.611C132.366 349.855 130.65 349.126 128.9 348.488C128.453 348.325 127.998 348.157 127.543 348.017C127.44 347.986 127.321 347.97 127.213 347.94C126.766 347.97 126.325 347.991 125.879 348.039C125.151 348.117 124.28 348.232 123.559 348.35C119.32 349.042 115.084 350.423 111.544 352.909C102.946 358.946 101.621 370.037 102.314 379.766C102.973 389.013 105.392 398.113 108.331 406.873C112.332 418.797 117.467 430.324 123.101 441.557C126.129 447.597 129.326 453.545 132.616 459.444C135.439 464.52 133.636 470.927 128.56 473.75C123.484 476.573 117.078 474.769 114.255 469.693C104.693 452.449 95.7946 434.666 89.4271 415.969C85.1946 403.541 81.9091 390.503 81.7204 377.306C81.5185 363.18 85.3593 349.037 96.2503 339.418C98.6282 337.317 101.257 335.498 104.049 333.992C108.045 331.837 112.332 330.299 116.758 329.304C119.59 328.667 122.477 328.241 125.371 328.019C126.336 327.945 127.219 327.891 128.183 327.926C130.507 328.012 132.806 328.72 134.985 329.486Z" fill="black"/>
<path d="M586.89 465.885C586.89 465.885 581.958 407.325 562.735 378.976C543.511 350.627 560.831 243.378 560.831 243.378L610.69 136.456C610.69 136.456 672.368 135.295 697.039 146.468C721.709 157.64 701.471 422.59 672.329 479.938C672.329 479.938 618.29 474.18 586.89 465.885Z" fill="#82D4D5"/>
<path d="M615.375 125.312C614.187 125.315 613 125.33 611.812 125.344C611.576 125.346 610.7 125.246 610.5 125.344C607.688 126.717 604.756 127.875 602.062 129.469C601.553 129.77 601.388 130.443 601.062 130.938C600.254 132.168 599.677 133.772 599.062 135.094C598.804 135.651 598.54 136.224 598.281 136.781C598.022 137.338 597.759 137.88 597.5 138.438C594.392 145.124 591.295 151.813 588.188 158.5C584.562 166.301 580.938 174.105 577.312 181.906C571.356 194.722 565.401 207.531 559.438 220.344C557.622 224.243 555.816 228.163 554 232.062C553.222 233.734 552.434 235.391 551.656 237.062C551.389 237.635 551.06 238.187 550.844 238.781C550.5 239.727 550.286 240.723 550 241.688C549.744 242.549 549.695 243.552 549.562 244.438C549.288 246.272 549.037 248.1 548.781 249.938C548.02 255.399 547.32 260.866 546.688 266.344C544.724 283.351 543.272 300.444 542.844 317.562C542.586 327.88 542.698 338.213 543.594 348.5C544.246 355.987 545.306 363.511 547.375 370.75C548.53 374.79 550 378.767 552.062 382.438C553.488 384.974 555.22 387.323 556.625 389.875C558.675 393.601 560.398 397.507 561.938 401.469C566.301 412.699 569.211 424.476 571.531 436.281C573.401 445.797 572.092 439.501 575.688 464.281C574.883 469.998 578.277 475.549 584 477.031C647.188 488.429 626.026 485.594 647.188 488.438C652.998 489.218 658.833 489.941 664.656 490.625C666.235 490.81 667.795 490.98 669.375 491.156C669.705 491.193 670.795 491.44 671.094 491.344C674.046 490.397 677.153 489.829 679.969 488.531C680.812 488.143 681.22 487.152 681.812 486.438C682.575 485.518 683.118 484.052 683.625 482.969C683.8 482.595 683.986 482.22 684.156 481.844C684.512 481.058 684.821 480.295 685.156 479.5C685.48 478.733 685.85 477.867 686.156 477.094C686.658 475.826 687.13 474.532 687.594 473.25C688.08 471.905 688.548 470.575 689 469.219C692.146 459.773 694.593 450.082 696.781 440.375C699.033 430.384 700.985 420.344 702.719 410.25C708.503 376.587 712.457 342.596 715.281 308.562C717.802 278.186 719.473 247.676 719.406 217.188C719.369 200.434 719.028 183.509 716.594 166.906C715.89 162.106 714.976 157.304 713.562 152.656C712.53 149.261 711.231 145.901 709.25 142.938C707.894 140.908 706.208 139.075 704.188 137.688C701.076 135.55 697.075 134.327 693.5 133.219C684.269 130.357 674.548 128.912 664.969 127.812C652.651 126.398 640.267 125.721 627.875 125.438C623.711 125.342 619.54 125.305 615.375 125.312ZM620.594 141.5C620.57 141.546 620.556 141.611 620.531 141.656C620.476 141.758 620.435 141.871 620.375 141.969C620.45 141.814 620.518 141.655 620.594 141.5ZM617.719 147.625C627.224 147.649 636.743 147.931 646.219 148.562C654.294 149.101 662.337 149.907 670.344 151.094C675.888 151.915 681.486 152.953 686.844 154.625C688.258 155.066 689.601 155.623 690.969 156.156C690.973 156.165 690.965 156.179 690.969 156.188C691.159 156.598 691.343 157.013 691.5 157.438C692.746 160.808 693.395 164.402 693.969 167.938C694.79 172.992 695.329 178.084 695.719 183.188C696.806 197.423 696.947 211.761 696.75 226.031C696.379 252.952 694.839 279.832 692.562 306.656C690.639 329.327 688.208 351.965 685.062 374.5C681.904 397.131 678.253 419.786 672.844 442C671.012 449.523 668.978 457.005 666.406 464.312C666.025 465.397 665.568 466.458 665.156 467.531C664.792 467.487 664.427 467.451 664.062 467.406C657.743 466.639 651.429 465.821 645.125 464.938C628.081 462.549 636.972 463.617 596.562 456.062C595 444.215 595.154 444.052 593.812 436.656C591.473 423.759 588.433 410.944 584.094 398.562C581.786 391.979 579.083 385.494 575.719 379.375C573.591 375.506 570.868 372.017 569.344 367.844C567.242 362.086 566.308 355.881 565.656 349.812C564.793 341.765 564.551 333.652 564.594 325.562C564.691 307.111 566.183 288.667 568.281 270.344C568.946 264.539 569.687 258.754 570.5 252.969C570.748 251.204 571.016 249.449 571.281 247.688C571.338 247.313 571.411 246.937 571.469 246.562C571.511 246.458 571.529 246.416 571.562 246.344C571.823 245.787 572.084 245.244 572.344 244.688C573.384 242.461 574.429 240.227 575.469 238C585.609 216.287 595.752 194.581 605.906 172.875C609.291 165.64 612.678 158.391 616.062 151.156C616.613 149.979 617.174 148.805 617.719 147.625Z" fill="black"/>
<path d="M692.036 133.97C694.484 134.683 696.892 135.474 699.255 136.434C700.746 137.04 702.219 137.684 703.552 138.6C705.156 139.702 706.52 141.102 707.676 142.662C709.949 145.728 711.413 149.365 712.516 152.993C714.043 158.016 714.959 163.208 715.676 168.401C717.861 184.21 718.228 200.264 718.282 216.207C718.386 246.991 716.716 277.792 714.168 308.463C711.343 342.463 707.387 376.417 701.608 410.047C699.876 420.121 697.925 430.165 695.678 440.137C693.498 449.807 691.056 459.424 687.921 468.834C687.328 470.615 686.695 472.41 686.04 474.17C685.576 475.417 685.102 476.643 684.599 477.874C684.271 478.679 683.977 479.426 683.629 480.222C683.311 480.951 682.943 481.744 682.605 482.464C682.124 483.49 681.575 484.896 680.85 485.77C680.316 486.414 679.96 487.31 679.201 487.66C676.665 488.829 673.869 489.36 671.21 490.213C671.002 490.28 670.592 490.144 670.382 490.121C669.721 490.048 669.039 489.989 668.378 489.914C666.065 489.652 663.768 489.365 661.457 489.085C656.753 488.517 652.034 487.91 647.338 487.279C636.216 485.784 625.122 484.152 614.069 482.21C604.074 480.453 614.082 482.193 584.306 475.912C579.156 474.578 576.068 469.59 576.788 464.445C573.09 438.994 574.492 445.679 572.603 436.07C570.271 424.201 567.319 412.378 562.932 401.088C561.375 397.082 559.638 393.141 557.564 389.373C556.158 386.817 554.431 384.453 553.005 381.914C550.983 378.317 549.546 374.41 548.415 370.451C546.365 363.279 545.324 355.853 544.679 348.435C543.873 339.178 543.745 329.854 543.88 320.568C544.143 302.491 545.686 284.416 547.759 266.466C548.427 260.681 549.173 254.906 549.985 249.139C550.226 247.433 550.473 245.73 550.73 244.026C550.836 243.324 550.851 242.535 551.052 241.852C551.303 240.996 551.534 240.135 551.824 239.292C552.126 238.414 552.631 237.535 553.024 236.693C553.802 235.022 554.583 233.354 555.362 231.682C557.567 226.948 559.786 222.208 561.991 217.473C568.863 202.711 575.73 187.95 582.595 173.184C587.517 162.598 592.428 152.021 597.349 141.435C597.868 140.321 598.39 139.209 598.908 138.095C599.297 137.259 599.693 136.412 600.082 135.576C600.341 135.019 600.575 134.454 600.834 133.897C601.292 132.912 601.734 131.663 602.422 130.833C602.966 130.175 603.356 129.331 604.107 128.924C606.116 127.838 608.4 127.276 610.531 126.455C610.864 126.327 611.465 126.431 611.813 126.427C612.637 126.418 613.453 126.403 614.278 126.4C617.278 126.387 620.285 126.413 623.284 126.456C633.015 126.595 642.754 126.995 652.458 127.739C659.478 128.276 666.457 129.036 673.424 130.053C679.688 130.968 685.955 132.2 692.036 133.97ZM688.843 154.089C685.605 153.014 682.283 152.193 678.945 151.495C667.1 149.018 654.961 147.944 642.896 147.239C634.294 146.736 625.671 146.483 617.047 146.474C616.136 148.449 615.217 150.419 614.297 152.386C610.783 159.9 607.267 167.396 603.753 174.91C593.341 197.174 582.923 219.427 572.525 241.697C571.875 243.089 571.222 244.494 570.572 245.886C570.509 246.021 570.442 246.162 570.379 246.297C570.286 246.903 570.208 247.499 570.117 248.106C569.785 250.333 569.459 252.574 569.153 254.805C568.309 260.963 567.552 267.119 566.873 273.298C564.869 291.532 563.393 309.954 563.526 328.313C563.586 336.571 563.857 344.838 564.933 353.034C565.607 358.161 566.536 363.344 568.315 368.217C568.826 369.618 569.424 371.003 570.152 372.306C570.779 373.426 571.557 374.445 572.241 375.529C573.138 376.95 573.984 378.408 574.794 379.88C578.13 385.946 580.793 392.379 583.08 398.906C587.401 411.233 590.402 424.028 592.731 436.869C594.101 444.425 593.905 444.06 595.625 457.013C638.481 464.976 628.429 463.78 646.012 466.224C652.208 467.085 658.429 467.887 664.639 468.637C665.058 468.687 665.476 468.729 665.895 468.779C666.43 467.419 667.008 466.06 667.492 464.682C670.075 457.341 672.104 449.834 673.944 442.277C679.362 420.023 683.038 397.352 686.201 374.682C689.779 349.043 692.458 323.252 694.461 297.443C696.381 272.701 697.676 247.892 697.883 223.072C698.002 208.795 697.833 194.477 696.588 180.248C696.161 175.366 695.615 170.473 694.733 165.65C694.17 162.572 693.499 159.445 692.341 156.528C692.158 156.066 691.952 155.609 691.717 155.171C691.691 155.16 691.662 155.156 691.636 155.145C690.711 154.767 689.791 154.405 688.843 154.089Z" fill="black"/>
<path d="M583.817 534.087C623.834 410.925 556.433 278.642 433.271 238.624C366.685 216.989 297.434 226.752 241.537 259.748C194.043 287.784 156.192 332.594 137.809 389.17C97.7914 512.332 165.193 644.615 288.354 684.632C411.516 724.65 543.799 657.248 583.817 534.087Z" fill="#F3886D" stroke="black" stroke-width="0.0185569" stroke-miterlimit="10" stroke-linecap="round" stroke-linejoin="round"/>
<path d="M435.342 232.257C562.014 273.416 631.343 409.482 590.185 536.155C549.026 662.827 412.961 732.156 286.288 690.998C159.615 649.84 90.2858 513.773 131.444 387.101C149.856 330.436 187.868 283.665 238.135 253.992C297.325 219.051 368.681 210.598 435.342 232.257ZM431.211 244.97C368.235 224.508 300.855 232.48 244.932 265.492C197.445 293.524 161.552 337.696 144.157 391.231C105.28 510.882 170.768 639.408 290.418 678.285C410.069 717.162 538.595 651.675 577.472 532.024C616.349 412.373 550.862 283.847 431.211 244.97Z" fill="black"/>
<path d="M251.054 250.137C278.379 244.886 310.458 299.305 321.153 340.087C350.46 329.947 398.663 331.746 445.932 347.104C515.598 369.74 545.888 448.31 524.528 484.965C508.34 512.746 454.998 534.161 393.421 521.282C394.844 537.615 393.633 553.507 389.056 567.592C369.083 629.063 316.26 628.478 248.642 606.508C181.024 584.537 121.602 486.001 159.125 378.223C159.703 376.565 160.865 375.588 162.412 375.029C148.267 356.445 140.126 364.887 152.429 343.672C182.352 292.075 251.054 250.137 251.054 250.137Z" fill="#F9B192"/>
<path d="M261.979 243.63C274.249 246.674 286.498 257.438 298.073 273.792C309.699 290.219 319.719 311.552 325.823 331.543C357.645 323.036 403.94 326.063 448.107 340.413C482.451 351.573 509.98 376.465 525.659 407.629C540.342 436.814 542.563 467.973 530.598 488.505C521.403 504.286 502.365 517.489 478.085 525.089C454.827 532.369 428.107 534.132 400.82 529.752C401.228 544.145 399.669 557.698 395.748 569.767C385.414 601.571 366.019 619.695 338.074 625.238C314.193 629.975 284.676 625.613 246.469 613.199C210.229 601.424 177.206 569.496 158.043 527.448C137.173 481.652 134.264 428.234 152.479 375.915C152.616 375.519 152.843 375.185 153.013 374.816C152.001 373.742 150.994 372.748 149.938 371.805C148.675 370.676 144.906 367.61 144.448 367.21C140.513 363.774 138.691 360.126 139.567 355.001C140.176 351.435 142.02 347.601 146.351 340.132C147.71 337.789 149.143 335.451 150.676 333.104C162.644 314.783 179.491 296.786 199.679 279.46C210.642 270.051 221.933 261.419 232.883 253.765C236.721 251.083 240.242 248.712 243.384 246.672C244.49 245.954 247.18 244.245 247.379 244.123C248.098 243.684 248.912 243.392 249.739 243.233C253.804 242.452 257.889 242.615 261.979 243.63ZM259.834 257.698C257.541 256.953 255.396 256.794 253.368 257.018C252.51 257.56 251.693 258.047 251.03 258.477C248.018 260.432 244.638 262.73 240.936 265.317C230.346 272.719 219.457 281.057 208.873 290.141C189.612 306.671 173.606 323.755 162.464 340.811C161.066 342.952 159.758 345.07 158.526 347.195C155.45 352.498 154.155 355.206 153.73 356.673C153.949 356.86 157.714 359.877 159.3 361.294C162.327 363.999 165.149 366.999 168.005 370.751C170.679 374.265 169.382 379.146 165.609 381.128C148.827 429.795 151.552 479.245 170.859 521.61C188.461 560.235 218.54 589.329 250.817 599.817C325.802 624.18 365.855 616.235 382.366 565.418C386.484 552.745 387.812 537.951 386.414 521.905C386.005 517.204 390.246 513.417 394.865 514.383C422.851 520.236 450.443 518.998 473.898 511.656C495.082 505.026 511.226 493.838 518.459 481.425C527.709 465.552 525.809 439.231 513.079 413.928C499.034 386.012 474.399 363.751 443.758 353.795C399.037 339.265 351.991 336.857 323.465 346.726C319.591 348.066 315.399 345.838 314.359 341.874C309.066 321.691 298.524 298.796 286.583 281.924C277.169 268.624 267.805 260.288 259.834 257.698Z" fill="black" fill-opacity="0.5"/>
<path d="M290.323 226.061C292.651 227.233 294.531 229.305 295.414 231.976C297.179 237.318 294.268 243.075 288.926 244.84C223.492 266.46 170.475 321.619 147.503 392.318C109.224 510.129 173.695 636.66 291.505 674.939C409.643 713.325 538.046 648.718 576.22 531.232C584.3 506.363 588.522 487.106 589.124 469.114C589.312 463.491 594.034 459.092 599.658 459.281C605.281 459.469 609.688 464.164 609.5 469.787C608.822 490.052 604.216 511.001 595.597 537.529C553.932 665.76 414.007 736.166 285.209 694.317C156.697 652.56 86.3692 514.535 128.125 386.022C153.063 309.272 210.829 249.184 282.549 225.488C285.22 224.605 287.994 224.889 290.323 226.061Z" fill="black"/>
<path d="M186.918 384.574C195.356 376.214 187.251 358.055 168.813 344.015C150.376 329.974 128.589 325.37 120.15 333.73C111.712 342.091 119.818 360.25 138.255 374.29C142.391 377.439 146.695 380.114 150.979 382.274C165.795 389.744 180.372 391.059 186.918 384.574Z" fill="#FF497F" stroke="black" stroke-width="0.019536" stroke-miterlimit="10" stroke-linecap="round" stroke-linejoin="round"/>
<path d="M439.243 528.282C446.734 519.805 437.453 502.776 418.513 490.246C409.635 484.372 400.211 480.53 391.931 478.978C382.548 477.22 374.635 478.403 370.655 482.906C363.164 491.383 372.445 508.412 391.385 520.942C410.325 533.472 431.752 536.758 439.243 528.282Z" fill="#FF497F" stroke="black" stroke-width="0.019536" stroke-miterlimit="10" stroke-linecap="round" stroke-linejoin="round"/>
<path d="M235.469 317.75C243.04 320.209 247.724 327.938 245.304 335.385C242.884 342.832 234.561 346.305 226.991 343.845C219.42 341.385 214.728 333.684 217.148 326.237C219.567 318.789 227.899 315.29 235.469 317.75Z" fill="black"/>
<path d="M412.943 422.226C420.338 424.628 424.456 432.509 422.057 439.893C419.658 447.277 411.685 451.259 404.29 448.856C396.896 446.454 392.786 438.546 395.185 431.162C397.585 423.778 405.548 419.823 412.943 422.226Z" fill="black"/>
<path d="M226.688 458.703C229.54 459.29 231.928 461.532 232.535 464.567C232.74 465.618 232.945 466.643 233.341 467.64C234.669 470.985 237.407 472.12 240.834 472.265C242.548 472.337 244.258 472.181 245.939 471.853C246.444 471.755 246.943 471.644 247.441 471.511C247.595 471.47 247.749 471.412 247.902 471.366C247.924 471.36 247.939 471.364 247.964 471.356C250.688 472.169 253.612 472.494 256.135 473.804C256.955 474.229 257.017 475.423 257.408 476.26C257.656 476.791 257.686 477.528 257.752 478.118C257.776 478.333 257.787 478.542 257.81 478.757C257.817 478.817 257.831 478.885 257.838 478.945C257.841 478.974 257.843 479.062 257.839 479.034C257.893 479.469 257.943 479.923 258 480.358C258.059 480.804 258.122 481.247 258.188 481.691C258.318 482.564 258.45 483.357 258.608 484.225C259.838 490.996 261.989 498.215 266.683 503.449C270.15 507.314 274.984 509.388 280.159 509.514C281.955 509.557 283.76 509.389 285.521 509.036C286.015 508.937 286.51 508.82 286.996 508.687C287.164 508.64 287.327 508.574 287.493 508.523C287.513 508.517 287.769 508.439 287.689 508.468C291.357 507.122 295.425 508.994 296.771 512.663C298.117 516.331 296.245 520.398 292.577 521.744C288.556 523.213 284.075 523.762 279.821 523.666C276.51 523.592 273.203 523.071 270.046 522.059C267.398 521.209 264.863 520.029 262.526 518.52C253.064 512.411 247.832 501.868 245.143 491.242C244.786 489.83 244.537 488.388 244.256 486.959C241.938 487.154 239.61 487.181 237.305 486.86C230.33 485.887 224.171 482.062 220.739 475.826C219.302 473.215 218.445 470.398 217.855 467.492C217.046 463.445 219.686 459.5 223.733 458.69C224.745 458.488 225.737 458.508 226.688 458.703Z" fill="black"/>
<path d="M387.46 390.007C389.223 390.749 390.716 392.16 391.495 394.071C392.72 397.119 394.892 399.632 397.241 401.885C400.687 405.191 404.629 408.025 408.645 410.591C415.72 415.112 423.212 418.921 430.85 422.392C439.274 426.221 447.948 429.693 456.762 432.528C460.483 433.72 462.524 437.689 461.333 441.41C460.141 445.132 456.171 447.173 452.45 445.981C443.844 443.23 435.385 439.91 427.076 436.375C417.31 432.221 407.681 427.574 398.763 421.79C390.25 416.269 381.612 409.349 377.646 399.72C376.087 395.898 377.907 391.538 381.728 389.98C383.639 389.2 385.697 389.266 387.46 390.007Z" fill="black"/>
<path d="M219.339 294.724C221.083 295.508 222.518 296.966 223.251 298.895C224.148 301.285 225.291 303.617 226.933 305.595C231.995 311.694 239.454 314.325 247.145 315.151C250.488 315.51 253.878 315.525 257.228 315.261C258.363 315.171 259.507 315.046 260.634 314.888C261.045 314.83 261.443 314.762 261.852 314.692C261.969 314.672 262.082 314.648 262.198 314.627C262.253 314.617 262.413 314.579 262.358 314.59C266.186 313.802 269.924 316.288 270.712 320.115C271.5 323.943 269.05 327.663 265.222 328.451C261.102 329.298 256.835 329.623 252.639 329.659C239.628 329.774 225.833 326.492 216.737 316.574C213.434 312.972 211.019 308.753 209.274 304.207C207.809 300.349 209.766 296.019 213.624 294.554C215.553 293.821 217.594 293.94 219.339 294.724Z" fill="black"/>
<path d="M148.651 325.315C156.775 327.975 165.23 332.46 173.063 338.425C182.923 345.933 190.483 354.833 194.372 363.547C198.82 373.511 198.382 383.113 191.865 389.57C182.714 398.636 165.333 397.407 147.805 388.57C143.054 386.174 138.404 383.237 133.998 379.882C124.138 372.374 116.578 363.474 112.689 354.76C108.241 344.796 108.679 335.194 115.197 328.737C122.496 321.505 135.109 320.881 148.651 325.315ZM145.471 339.106C143.365 338.364 141.266 337.779 139.264 337.356C132.28 335.88 127.225 336.646 125.115 338.736C120.819 342.993 127.008 356.873 142.519 368.684C146.24 371.517 150.165 373.976 154.143 375.982C166.876 382.402 178.288 383.23 181.973 379.58C186.269 375.323 180.053 361.434 164.543 349.623C158.413 344.955 151.79 341.333 145.471 339.106Z" fill="black"/>
<path d="M400.457 473.857C407.788 476.112 415.339 479.721 422.393 484.388C432.516 491.084 440.524 499.237 444.977 507.408C450.11 516.827 450.462 526.222 444.521 532.944C433.978 544.875 409.024 541.052 387.509 526.818C377.387 520.121 369.388 511.942 364.935 503.771C359.801 494.352 359.45 484.956 365.39 478.235C371.247 471.607 381.383 469.85 393.226 472.07C395.595 472.514 398.013 473.105 400.457 473.857ZM396.456 487.352C394.468 486.735 392.517 486.256 390.625 485.902C383.143 484.499 377.827 485.44 375.936 487.579C374.583 489.11 374.68 492.283 377.271 497.038C380.543 503.041 386.944 509.573 395.261 515.074C403.661 520.631 412.815 524.318 420.686 525.525C427.479 526.567 432.217 525.606 433.967 523.626C435.32 522.096 435.196 518.914 432.605 514.159C429.333 508.156 422.932 501.625 414.615 496.123C408.702 492.21 402.421 489.203 396.456 487.352Z" fill="black"/>
<path d="M584.112 534.281C624.13 411.119 556.728 278.836 433.567 238.819C366.981 217.184 297.729 226.946 241.833 259.942C194.339 287.979 156.487 332.788 138.104 389.364C98.0867 512.526 165.488 644.809 288.65 684.826C411.812 724.844 544.095 657.443 584.112 534.281Z" fill="#F3886D" stroke="black" stroke-width="0.0185569" stroke-miterlimit="10" stroke-linecap="round" stroke-linejoin="round"/>
<path d="M435.638 232.451C562.311 273.61 631.64 409.676 590.481 536.349C549.323 663.021 413.257 732.351 286.584 691.192C159.911 650.034 90.5824 513.967 131.741 387.295C150.152 330.63 188.164 283.859 238.431 254.186C297.621 219.245 368.977 210.792 435.638 232.451ZM431.507 245.165C368.531 224.702 301.151 232.674 245.229 265.686C197.742 293.718 161.848 337.89 144.454 391.426C105.577 511.076 171.064 639.602 290.715 678.479C410.365 717.356 538.891 651.869 577.768 532.218C616.645 412.567 551.158 284.041 431.507 245.165Z" fill="black"/>
<path d="M251.35 250.331C278.674 245.08 310.754 299.499 321.448 340.281C350.756 330.141 398.958 331.94 446.227 347.298C515.894 369.935 546.184 448.504 524.823 485.159C508.635 512.94 455.294 534.355 393.717 521.476C395.139 537.809 393.928 553.701 389.351 567.787C369.378 629.258 316.556 628.672 248.938 606.702C181.32 584.731 121.897 486.195 159.421 378.417C159.998 376.759 161.161 375.783 162.707 375.224C148.563 356.639 140.421 365.081 152.724 343.866C182.647 292.269 251.35 250.331 251.35 250.331Z" fill="#F9B192"/>
<path d="M262.273 243.824C274.543 246.868 286.792 257.632 298.367 273.986C309.994 290.413 320.014 311.746 326.118 331.737C357.94 323.23 404.235 326.257 448.401 340.607C482.746 351.767 510.275 376.659 525.954 407.823C540.637 437.008 542.858 468.168 530.893 488.7C521.697 504.48 502.66 517.683 478.379 525.283C455.121 532.563 428.402 534.326 401.114 529.946C401.522 544.339 399.964 557.892 396.043 569.961C385.709 601.765 366.313 619.889 338.368 625.433C314.488 630.169 284.97 625.807 246.764 613.393C210.524 601.618 177.5 569.69 158.338 527.642C137.467 481.846 134.558 428.428 152.773 376.109C152.911 375.713 153.138 375.379 153.308 375.01C152.296 373.936 151.288 372.942 150.232 371.999C148.969 370.87 145.201 367.804 144.742 367.404C140.808 363.968 138.986 360.32 139.862 355.195C140.471 351.629 142.315 347.795 146.646 340.326C148.005 337.983 149.438 335.645 150.971 333.298C162.939 314.977 179.786 296.98 199.973 279.654C210.936 270.246 222.228 261.613 233.178 253.959C237.015 251.277 240.536 248.906 243.679 246.866C244.785 246.148 247.474 244.439 247.673 244.317C248.392 243.878 249.206 243.586 250.034 243.427C254.098 242.646 258.183 242.809 262.273 243.824ZM260.129 257.892C257.835 257.147 255.69 256.988 253.662 257.212C252.805 257.754 251.987 258.241 251.324 258.671C248.313 260.626 244.932 262.924 241.231 265.511C230.641 272.913 219.751 281.251 209.167 290.335C189.907 306.866 173.9 323.949 162.759 341.005C161.36 343.146 160.052 345.264 158.82 347.389C155.745 352.692 154.45 355.401 154.024 356.868C154.243 357.054 158.008 360.071 159.595 361.489C162.622 364.193 165.444 367.193 168.299 370.945C170.974 374.459 169.677 379.34 165.904 381.322C149.121 429.99 151.847 479.439 171.153 521.804C188.755 560.429 218.834 589.523 251.112 600.011C326.096 624.375 366.149 616.429 382.66 565.613C386.778 552.939 388.106 538.145 386.709 522.099C386.299 517.398 390.541 513.611 395.159 514.577C423.145 520.43 450.737 519.192 474.192 511.85C495.376 505.22 511.52 494.032 518.754 481.619C528.003 465.746 526.103 439.425 513.373 414.122C499.329 386.206 474.694 363.945 444.053 353.989C399.332 339.459 352.286 337.051 323.759 346.92C319.885 348.26 315.693 346.032 314.654 342.068C309.361 321.885 298.818 298.99 286.877 282.118C277.464 268.818 268.1 260.482 260.129 257.892Z" fill="black" fill-opacity="0.5"/>
<path d="M290.619 226.255C292.948 227.427 294.828 229.499 295.71 232.17C297.475 237.512 294.564 243.269 289.222 245.034C223.789 266.654 170.771 321.813 147.799 392.513C109.52 510.323 173.991 636.854 291.802 675.133C409.94 713.519 538.343 648.912 576.516 531.427C584.597 506.558 588.818 487.3 589.421 469.308C589.609 463.685 594.331 459.286 599.954 459.475C605.577 459.663 609.985 464.358 609.797 469.981C609.118 490.246 604.513 511.195 595.894 537.723C554.229 665.954 414.303 736.36 285.506 694.511C156.993 652.755 86.6658 514.729 128.422 386.217C153.36 309.467 211.126 249.378 282.846 225.682C285.517 224.799 288.29 225.083 290.619 226.255Z" fill="black"/>
<path d="M187.212 384.768C195.651 376.408 187.545 358.249 169.108 344.209C150.671 330.169 128.883 325.564 120.445 333.924C112.006 342.285 120.112 360.444 138.549 374.484C142.685 377.633 146.989 380.308 151.273 382.468C166.089 389.938 180.667 391.254 187.212 384.768Z" fill="#FF497F" stroke="black" stroke-width="0.019536" stroke-miterlimit="10" stroke-linecap="round" stroke-linejoin="round"/>
<path d="M439.538 528.476C447.03 519.999 437.749 502.97 418.809 490.44C409.931 484.566 400.506 480.724 392.226 479.172C382.843 477.414 374.93 478.597 370.95 483.1C363.459 491.577 372.74 508.606 391.68 521.136C410.62 533.667 432.047 536.953 439.538 528.476Z" fill="#FF497F" stroke="black" stroke-width="0.019536" stroke-miterlimit="10" stroke-linecap="round" stroke-linejoin="round"/>
<path d="M148.945 325.509C157.07 328.169 165.525 332.654 173.358 338.619C183.217 346.128 190.777 355.028 194.667 363.741C199.115 373.705 198.676 383.307 192.159 389.764C183.009 398.83 165.627 397.601 148.099 388.764C143.349 386.369 138.698 383.431 134.292 380.076C124.433 372.568 116.873 363.668 112.983 354.954C108.536 344.99 108.974 335.388 115.491 328.931C122.791 321.699 135.403 321.075 148.945 325.509ZM145.766 339.3C143.66 338.558 141.56 337.973 139.558 337.55C132.574 336.074 127.52 336.84 125.41 338.93C121.113 343.187 127.303 357.067 142.813 368.878C146.534 371.711 150.46 374.171 154.438 376.176C167.171 382.596 178.582 383.425 182.267 379.774C186.564 375.517 180.347 361.628 164.837 349.817C158.707 345.149 152.084 341.527 145.766 339.3Z" fill="black"/>
<path d="M400.753 474.051C408.085 476.306 415.636 479.915 422.69 484.582C432.812 491.279 440.82 499.431 445.273 507.602C450.407 517.021 450.758 526.417 444.818 533.138C434.274 545.069 409.321 541.246 387.806 527.012C377.683 520.316 369.684 512.136 365.231 503.965C360.098 494.546 359.746 485.15 365.687 478.429C371.544 471.802 381.679 470.044 393.522 472.264C395.891 472.708 398.309 473.3 400.753 474.051ZM396.753 487.546C394.765 486.929 392.813 486.45 390.922 486.096C383.439 484.693 378.123 485.634 376.232 487.773C374.88 489.304 374.976 492.477 377.568 497.232C380.84 503.235 387.241 509.767 395.557 515.268C403.957 520.825 413.112 524.512 420.982 525.719C427.775 526.761 432.514 525.8 434.263 523.821C435.616 522.29 435.493 519.108 432.901 514.353C429.63 508.35 423.228 501.819 414.912 496.317C408.998 492.405 402.718 489.398 396.753 487.546Z" fill="black"/>
<path d="M407.688 417.077C409.732 410.788 405.906 403.908 399.144 401.711C392.381 399.514 385.242 402.831 383.199 409.12C381.155 415.409 384.981 422.289 391.744 424.486C398.506 426.683 405.645 423.366 407.688 417.077Z" fill="black"/>
<path d="M245.012 328.618C246.682 323.478 243.595 317.869 238.117 316.089C232.64 314.309 226.846 317.033 225.176 322.172C223.506 327.312 226.593 332.921 232.07 334.701C237.548 336.481 243.342 333.757 245.012 328.618Z" fill="black"/>
<path d="M220.274 401.364C218.792 401.439 217.282 401.661 215.711 402.051C211.3 403.146 206.355 405.472 201.024 408.801C197.364 411.089 196.267 415.92 198.555 419.583C200.843 423.242 205.645 424.371 209.305 422.083C213.358 419.549 216.897 417.875 219.461 417.239C220.005 417.104 220.217 417.114 220.555 417.083C220.809 417.691 221.071 418.381 221.43 419.489C221.415 419.443 222.703 423.587 223.149 424.895C225.589 432.064 228.349 436.787 233.367 439.926C236.829 442.092 240.749 442.578 244.992 441.895C247.749 441.452 250.419 440.576 254.024 439.145C254.609 438.913 255.205 438.696 256.024 438.364C259.709 436.855 260.8 436.418 262.18 436.02C262.693 435.873 263.019 435.819 263.336 435.77C263.483 435.916 263.614 436.045 263.805 436.301C264.541 437.292 265.309 438.804 266.024 440.739C267.457 444.619 268.538 449.818 269.117 455.239C269.73 460.973 273.04 465.113 278.367 466.333C281.182 466.977 282.455 466.871 288.024 466.114C292.459 465.509 294.723 465.515 296.899 466.239C297.997 466.604 299.04 467.167 300.055 468.02C302.111 469.744 303.308 471.038 303.805 471.895C303.781 471.977 303.773 472.02 303.711 472.176C303.558 472.564 303.316 473.042 302.961 473.708C302.832 473.95 300.614 477.887 299.836 479.395C298.978 481.062 298.226 482.716 297.555 484.426C295.023 490.875 296.216 496.974 300.68 501.395C303.628 504.316 307.437 506.105 312.43 507.52C314.491 508.104 320.088 509.375 320.274 509.426C320.65 509.525 320.889 509.606 320.992 509.645C325.029 511.173 329.528 509.119 331.055 505.083C332.582 501.046 330.56 496.548 326.524 495.02C325.829 494.757 325.104 494.527 324.242 494.301C323.652 494.146 318.246 492.931 316.68 492.489C314.26 491.804 312.741 491.081 311.992 490.489C312.03 490.361 312.051 490.283 312.117 490.114C312.583 488.928 313.114 487.771 313.742 486.551C314.35 485.371 316.472 481.589 316.742 481.083C318.15 478.447 318.989 476.329 319.336 473.895C320.268 467.351 317.133 461.928 310.086 456.02C307.553 453.896 304.793 452.379 301.836 451.395C296.758 449.708 292.553 449.741 285.899 450.645C284.673 450.812 284.683 450.809 284.242 450.864C283.484 445.255 282.341 439.828 280.68 435.333C277.932 427.896 274.061 422.648 268.086 420.708C264.856 419.658 261.606 419.919 257.867 420.989C255.707 421.609 254.395 422.132 250.086 423.895C249.315 424.211 248.796 424.404 248.274 424.614C245.649 425.657 243.851 426.241 242.492 426.458C242.04 426.53 241.785 426.528 241.555 426.52C240.478 425.752 239.278 423.699 237.961 419.833C237.587 418.734 236.341 414.787 236.305 414.676C234.909 410.367 233.815 407.905 231.742 405.676C228.704 402.412 224.718 401.14 220.274 401.364Z" fill="black"/>
<path d="M655.901 358.05C655.901 358.05 649.116 140.358 600.909 59.4292C600.909 59.4292 453.814 41.2999 270.113 159.464C270.113 159.464 270.3 193.526 280.918 222.797C280.918 222.797 461.651 255.141 541.026 392.284C541.026 392.284 548.293 405.858 568.38 405.422C588.468 404.985 636.276 394.026 648.347 383.922C648.347 383.922 654.697 369.773 655.901 358.05Z" fill="#93E9CA"/>
<path d="M577.093 50.4995C555.426 50.5338 533.752 52.5299 512.343 55.7807C468.29 62.4698 425.116 74.8498 383.78 91.4057C362.394 99.9716 341.435 109.616 321.061 120.375C306.699 127.96 292.58 136.005 278.718 144.469C275.322 146.542 271.981 148.645 268.624 150.781C267.549 151.465 266.192 152.157 265.218 153C264.865 153.305 264.361 153.519 264.155 153.938C263.27 155.737 262.726 157.694 261.999 159.562C261.889 159.845 261.993 160.429 261.999 160.719C262.022 161.777 262.049 162.817 262.093 163.875C262.228 167.165 262.444 170.468 262.718 173.75C263.622 184.601 265.185 195.409 267.593 206.031C268.788 211.304 270.184 216.551 271.874 221.688C272.311 223.016 272.781 224.348 273.28 225.656C273.31 225.733 273.382 225.919 273.405 225.969C273.539 226.252 273.567 226.617 273.811 226.812C275.621 228.262 277.578 229.501 279.468 230.844C285.67 231.979 291.805 233.513 297.905 235.094C309.017 237.973 320.036 241.28 330.905 244.969C363.036 255.872 394.178 269.988 423.187 287.625C455.515 307.281 485.013 331.507 509.124 360.75C515.304 368.245 521.06 376.118 526.374 384.25C528.974 388.228 531.419 392.32 533.843 396.406C533.86 396.436 533.864 396.451 533.874 396.469C533.881 396.48 533.898 396.488 533.905 396.5C533.971 396.614 534.025 396.732 534.093 396.844C534.258 397.117 534.447 397.39 534.624 397.656C535.154 398.454 535.706 399.194 536.311 399.938C538.016 402.027 539.989 403.916 542.124 405.562C543.911 406.941 545.805 408.154 547.811 409.188C550.168 410.401 552.666 411.379 555.218 412.094C562.685 414.185 570.369 413.877 577.999 413.031C585.043 412.251 592.056 411.038 598.999 409.625C612.278 406.923 625.597 403.564 638.218 398.594C642.293 396.988 646.34 395.201 650.061 392.875C650.932 392.331 651.708 391.802 652.53 391.188C652.879 390.926 653.275 390.704 653.561 390.375C654.417 389.392 655.149 388.318 655.937 387.281C656.183 386.957 656.311 386.433 656.468 386.062C656.784 385.314 657.073 384.536 657.374 383.781C658.487 380.988 659.516 378.175 660.437 375.312C661.62 371.631 662.648 367.893 663.374 364.094C663.593 362.949 663.395 364.09 664.155 359.031C664.309 357.729 664.063 356.501 663.655 355.344C663.652 355.249 663.663 355.062 663.655 354.875C663.589 353.141 663.513 351.39 663.437 349.656C663.199 344.311 662.927 338.967 662.624 333.625C661.656 316.536 660.388 299.484 658.874 282.438C656.2 252.329 652.723 222.255 647.937 192.406C644.281 169.608 639.905 146.917 634.093 124.562C629.38 106.438 623.775 88.4088 615.999 71.3433C614.169 67.3272 612.191 63.3653 610.061 59.4995C609.803 59.0302 609.544 58.5596 609.28 58.0933C608.81 57.2623 608.326 56.4483 607.843 55.6245C607.728 55.4291 607.522 54.9695 607.374 54.8745C605.568 53.7135 603.684 52.6663 601.843 51.562C601.728 51.4932 601.471 51.5133 601.343 51.4995C600.88 51.4494 600.4 51.4175 599.937 51.3745C598.194 51.2127 596.465 51.0742 594.718 50.9683C588.852 50.6126 582.969 50.4902 577.093 50.4995ZM567.53 66.5307C574.64 66.3135 581.765 66.2618 588.874 66.5307C591.292 66.6222 593.707 66.849 596.124 67.0307C596.855 68.3531 597.591 69.6556 598.28 70.9995C600.422 75.1767 602.341 79.4524 604.155 83.7807C609.974 97.6589 614.49 112.09 618.343 126.625C624.299 149.094 628.718 171.964 632.405 194.906C636.953 223.206 640.298 251.71 642.905 280.25C644.485 297.542 645.768 314.853 646.78 332.188C647.12 338.007 647.423 343.833 647.687 349.656C647.774 351.599 647.861 353.526 647.937 355.469C647.945 355.688 647.959 355.906 647.968 356.125C647.888 356.451 647.696 356.721 647.655 357.062C647.076 360.959 647.311 359.827 647.093 360.969C646.917 361.885 646.715 362.716 646.499 363.625C645.774 366.682 644.872 369.689 643.843 372.656C643.215 374.465 642.526 376.255 641.811 378.031C641.74 378.21 641.665 378.385 641.593 378.562C641.216 378.805 640.83 379.072 640.468 379.281C638.684 380.313 636.796 381.184 634.905 382C629.076 384.516 623.027 386.449 616.937 388.219C610.881 389.978 604.723 391.442 598.561 392.781C591.678 394.278 584.743 395.523 577.749 396.375C569.899 397.329 561.486 398.064 554.374 393.906C553.485 393.386 552.644 392.804 551.843 392.156C548.488 389.443 547.149 386.298 544.905 382.656C542.716 379.102 540.47 375.568 538.155 372.094C529.77 359.505 520.223 347.672 509.968 336.562C479.758 303.837 442.859 277.984 403.374 257.688C377.895 244.59 351.107 233.914 323.749 225.438C314.507 222.574 305.186 219.957 295.78 217.688C292.903 216.993 290.019 216.334 287.124 215.719C286.837 214.829 286.534 213.903 286.28 213.062C285.049 208.978 283.998 204.824 283.093 200.656C281.255 192.196 280.011 183.617 279.187 175C278.829 171.268 278.661 167.502 278.499 163.75C279.518 163.101 280.537 162.453 281.561 161.812C285.759 159.188 289.974 156.581 294.218 154.031C306.355 146.74 318.708 139.795 331.28 133.281C387.728 104.037 448.296 82.1761 511.187 72.062C529.825 69.0645 548.655 67.1076 567.53 66.5307Z" fill="black"/>
<path d="M313.174 232.255C393.677 240.428 471.445 312.965 508.753 349.488C520.066 360.564 524.555 369.614 525.189 368.274C559.891 294.898 544.419 212.138 486.004 175.614C427.012 138.729 344.804 161.866 294.142 226.637C293.385 227.605 299.566 230.874 313.174 232.255Z" fill="#B7F2CC"/>
<path d="M453.844 300.902L504.991 292.865L456.877 272.363L490.923 254.901L453.922 245.239L468.792 177.82L398.847 216.12L386.64 188.911L376.319 228.57L355.121 218.154L368.03 250.405L453.844 300.902Z" fill="#DFFFEA"/>
<path d="M519.778 130.028C524.684 131.628 529.097 136.236 527.125 148.305C527.125 148.305 515.716 155.105 498.37 169.322C510.822 178.774 519.705 187.35 519.705 187.35C520.16 204.3 502.874 204.547 502.874 204.547C498.762 199.985 489.338 193.002 479.372 185.992C464.162 200.138 446.757 218.294 428.958 241.249C428.958 241.249 410.476 246.39 409.191 228.228C409.191 228.228 433.06 199.144 459.101 172.245C452.296 167.84 443.119 161.874 443.119 161.874C436.382 152.386 453.932 145.444 453.932 145.444C461.29 147.108 469.123 150.597 476.724 154.891C488.955 143.448 500.646 133.885 509.48 129.848C509.48 129.848 514.871 128.429 519.778 130.028Z" fill="#FFA0CA"/>
<path d="M602.117 49.3712C604.46 50.7652 606.863 52.0875 609.161 53.5538C609.339 53.667 609.379 53.9004 609.495 54.0764C609.521 54.1165 609.616 54.2792 609.648 54.3333C610.146 55.1644 610.649 56.0205 611.135 56.8583C611.394 57.3035 611.664 57.7319 611.92 58.1784C612.176 58.6255 612.415 59.068 612.669 59.5165C615.351 64.264 617.916 69.1037 620.334 73.9911C629.92 93.3637 637.264 113.678 642.402 134.661C643.73 140.078 640.392 145.537 634.975 146.865C629.558 148.192 624.09 144.881 622.762 139.464C618.483 122.022 612.613 105.092 605.015 88.8093C602.368 83.1362 599.517 77.5499 596.487 72.0719C595.934 71.073 595.356 70.0865 594.791 69.0945C593.846 69.0321 592.896 68.9599 591.951 68.9114C586.682 68.6414 581.41 68.5592 576.134 68.5954C560.25 68.7047 544.374 69.8727 528.618 71.8573C481.828 77.751 435.655 90.4204 391.957 108.057C359.589 121.121 328.308 136.705 298.296 154.529C293.131 157.597 287.998 160.715 282.909 163.91C282.305 164.289 281.715 164.69 281.111 165.072C281.301 168.76 281.438 172.461 281.809 176.128C282.625 184.19 283.833 192.209 285.551 200.128C286.506 204.527 287.617 208.884 288.943 213.185C289.188 213.978 289.451 214.775 289.709 215.564C290.572 215.979 291.43 216.374 292.317 216.737C295.87 218.19 299.554 219.309 303.254 220.32C308.936 221.876 312.296 227.753 310.741 233.435C309.185 239.117 303.308 242.476 297.626 240.921C291.486 239.236 285.36 237.26 279.653 234.4C278.332 233.738 277.023 233 275.783 232.196C275.409 231.953 274.755 231.661 274.477 231.298C273.272 229.723 272.042 228.183 270.934 226.537C270.721 226.221 270.68 225.796 270.552 225.437C270.317 224.774 270.086 224.132 269.861 223.466C269.304 221.815 268.757 220.146 268.257 218.477C266.419 212.355 264.951 206.125 263.746 199.849C261.861 190.031 260.623 180.091 259.942 170.118C259.769 167.579 259.641 165.02 259.555 162.476C259.529 161.708 259.515 160.95 259.502 160.181C259.5 160.035 259.403 159.685 259.471 159.549C260.889 156.69 262.245 153.784 263.739 150.964C263.829 150.795 264.043 150.75 264.2 150.641C264.318 150.558 264.451 150.484 264.572 150.406C265.47 149.827 266.363 149.251 267.264 148.677C267.747 148.37 268.233 148.065 268.717 147.758C269.201 147.452 269.685 147.145 270.169 146.84C270.651 146.536 271.139 146.224 271.622 145.921C277.798 142.051 284.026 138.254 290.313 134.566C315.547 119.761 341.697 106.589 368.578 95.045C390.812 85.4968 413.658 77.2513 436.863 70.3913C472.207 59.9427 508.54 52.6701 545.296 49.669C557.798 48.6483 570.351 48.1336 582.895 48.3335C587.585 48.4082 592.291 48.5745 596.97 48.9119C598.22 49.002 599.471 49.0898 600.719 49.2127C600.986 49.2391 601.897 49.2405 602.117 49.3712Z" fill="black"/>
<path d="M601.766 52.364C603.417 53.3481 605.108 54.2725 606.727 55.3077C606.757 55.3269 606.967 55.6715 607.043 55.7948C607.318 56.2469 607.582 56.691 607.845 57.1503C608.099 57.5945 608.342 58.0427 608.594 58.4884C608.854 58.9491 609.123 59.4341 609.379 59.8975C611.772 64.2411 613.946 68.6954 615.968 73.2233C623.77 90.7006 629.423 109.166 634.1 127.702C640.364 152.529 645.004 177.733 648.795 203.049C652.834 230.015 655.883 257.113 658.267 284.273C659.743 301.098 660.965 317.948 661.908 334.812C662.198 340 662.449 345.198 662.676 350.389C662.726 351.54 662.792 353.422 662.875 355.603C663.245 356.648 663.467 357.77 663.328 358.946C663.138 360.54 663.186 359.827 663.135 360.54C663.016 362.227 662.585 363.952 662.23 365.602C661.545 368.794 660.658 371.956 659.659 375.064C658.745 377.908 657.732 380.712 656.626 383.488C656.291 384.329 655.932 385.155 655.577 385.987C655.455 386.274 655.363 386.699 655.175 386.952C654.506 387.853 653.86 388.768 653.149 389.637C652.733 390.143 651.981 390.571 651.45 390.949C650.457 391.656 649.405 392.321 648.35 392.93C645.02 394.856 641.488 396.416 637.913 397.824C631.83 400.22 625.574 402.152 619.279 403.902C612.187 405.873 605.035 407.589 597.817 409.03C590.679 410.456 583.471 411.651 576.225 412.372C569.247 413.066 562.256 413.208 555.446 411.301C552.948 410.602 550.505 409.661 548.198 408.473C546.236 407.462 544.357 406.259 542.609 404.911C540.119 402.99 537.861 400.744 535.999 398.206C535.571 397.623 535.185 397.019 534.811 396.4C534.76 396.317 534.669 396.166 534.603 396.037C534.627 396.077 534.517 395.876 534.522 395.922C532.324 392.172 530.082 388.453 527.719 384.804C522.206 376.292 516.204 368.062 509.751 360.236C503.194 352.284 496.3 344.642 488.976 337.389C469.369 317.97 447.15 301.232 423.591 286.909C394.116 268.99 362.441 254.713 329.766 243.729C318.452 239.926 306.992 236.519 295.417 233.604C292.103 232.77 288.778 231.986 285.441 231.251C284.026 230.939 282.627 230.632 281.207 230.348C280.861 230.279 279.876 230.197 279.62 230.04C278.098 229.106 276.483 228.304 275.06 227.227C274.68 226.939 274.543 226.417 274.303 226.004C273.861 225.242 273.608 224.204 273.322 223.378C273.21 223.053 273.104 222.709 272.994 222.383C272.885 222.059 272.765 221.741 272.658 221.416C272.551 221.091 272.453 220.783 272.348 220.457C270.807 215.659 269.506 210.771 268.392 205.856C266.094 195.716 264.559 185.4 263.638 175.047C263.306 171.322 263.075 167.603 262.921 163.866C262.877 162.813 262.822 161.743 262.799 160.69C262.794 160.494 262.718 159.669 262.799 159.506C263.775 157.537 264.687 155.56 265.718 153.619C265.767 153.526 266.123 153.32 266.257 153.232C266.703 152.943 267.148 152.68 267.595 152.395C268.078 152.086 268.573 151.757 269.056 151.449C269.537 151.143 270.018 150.862 270.5 150.557C274.316 148.142 278.138 145.749 281.997 143.404C295.797 135.018 309.89 127.074 324.223 119.633C383.443 88.8871 447.28 66.4868 513.354 56.4526C534.752 53.203 556.433 51.287 578.085 51.2979C583.977 51.3009 589.876 51.442 595.755 51.8312C597.225 51.9285 598.696 52.0584 600.163 52.1982C600.465 52.2271 601.517 52.2158 601.766 52.364ZM596.612 66.313C592.791 65.9989 588.968 65.7248 585.145 65.6347C577.269 65.4491 569.387 65.581 561.519 65.9475C535.973 67.1378 510.495 70.6991 485.497 76.0738C437.049 86.4902 390.121 103.272 345.649 125.086C322.258 136.559 299.644 149.494 277.628 163.407C277.927 171.893 278.8 180.404 280.099 188.77C281.546 198.087 283.533 207.45 286.53 216.425C289.296 217.008 292.053 217.627 294.802 218.284C302.736 220.18 310.6 222.323 318.416 224.655C348.811 233.723 378.513 245.551 406.613 260.295C444.899 280.384 481.02 305.903 510.197 338.011C520.35 349.184 529.766 361.006 538.144 373.574C540.468 377.061 542.741 380.588 544.908 384.176C545.93 385.868 546.801 387.672 547.91 389.234C549.482 391.451 551.631 393.269 553.967 394.635C561.244 398.889 569.804 398.164 577.845 397.186C585.207 396.29 592.501 394.927 599.745 393.353C605.896 392.016 612.015 390.529 618.051 388.737C623.866 387.012 629.686 385.166 635.262 382.76C637.182 381.932 639.082 381.053 640.892 380.003C641.366 379.728 641.817 379.424 642.274 379.12C642.377 378.868 642.478 378.614 642.579 378.361C643.297 376.579 643.977 374.77 644.603 372.953C645.637 369.951 646.569 366.919 647.301 363.828C647.617 362.5 647.912 361.156 648.134 359.808C648.204 359.384 648.136 359.805 648.488 357.171C648.525 356.859 648.693 356.613 648.766 356.315C648.755 356.023 648.735 355.736 648.724 355.443C648.649 353.499 648.581 351.542 648.493 349.598C648.23 343.772 647.908 337.958 647.568 332.135C646.538 314.489 645.197 296.87 643.589 279.267C640.786 248.578 637.118 217.912 631.973 187.522C628.39 166.358 624.17 145.287 618.582 124.554C614.687 110.1 610.179 95.7416 604.278 81.9712C602.441 77.6858 600.458 73.4724 598.29 69.3439C597.754 68.3216 597.174 67.3207 596.612 66.313Z" fill="black"/>
<path d="M521.952 123.337C531.61 126.486 536.32 135.642 534.066 149.436C533.731 151.486 532.506 153.293 530.722 154.356C530.665 154.39 529.424 155.146 528.87 155.501C527.264 156.531 525.393 157.799 523.266 159.272C519.083 162.169 514.46 165.671 509.638 169.432C512.794 172 516.066 174.58 518.898 177.086C520.452 178.462 521.855 179.714 523.064 180.837C523.801 181.52 524.322 182.01 524.606 182.285C525.933 183.565 526.703 185.311 526.752 187.154C527.062 198.707 521.124 206.248 512.088 209.701C510.012 210.494 507.933 211.008 505.915 211.305C505.2 211.411 504.547 211.508 503.941 211.552C503.538 211.581 503.212 211.591 502.981 211.595C500.953 211.624 498.999 210.774 497.641 209.268C495.023 206.363 488.671 201.434 480.02 195.198C464.328 210.175 449.118 226.726 434.508 245.567C433.58 246.764 432.301 247.61 430.842 248.016C430.497 248.112 429.98 248.255 429.332 248.383C428.319 248.583 427.224 248.75 426.043 248.853C421.229 249.274 416.53 248.648 412.328 246.35C406.373 243.093 402.753 237.049 402.164 228.726C402.037 226.931 402.605 225.157 403.746 223.766C403.795 223.707 406.551 220.373 407.635 219.082C410.728 215.399 414.205 211.333 418 206.945C427.921 195.474 438.117 184.174 448.174 173.547C443.93 170.793 439.3 167.802 439.275 167.786C438.532 167.302 437.896 166.681 437.383 165.958C433.969 161.15 433.692 155.742 436.228 150.935C438.062 147.461 441.069 144.657 444.884 142.237C446.342 141.312 447.828 140.516 449.279 139.819C450.169 139.392 450.893 139.078 451.355 138.895C452.671 138.375 454.101 138.267 455.482 138.579C461.744 139.995 468.525 142.848 475.556 146.463C488.045 135.077 498.355 127.202 506.556 123.454C506.922 123.287 507.304 123.156 507.693 123.054C508.022 122.967 508.483 122.855 509.096 122.741C510.054 122.563 511.103 122.423 512.217 122.334C515.522 122.072 518.811 122.313 521.952 123.337ZM517.604 136.719C516.448 136.343 514.948 136.215 513.347 136.342C512.609 136.401 512.215 136.483 511.827 136.559C504.622 140.008 494.388 148.007 481.533 160.034C479.288 162.134 475.932 162.525 473.255 161.013C466.466 157.178 460.215 154.493 454.603 152.941C453.871 153.318 453.146 153.684 452.441 154.132C450.685 155.246 449.488 156.362 448.922 157.22C451.721 159.037 461.755 165.571 462.919 166.325C466.64 168.733 467.251 173.961 464.167 177.146C463.182 178.163 462.179 179.187 461.182 180.23C450.403 191.501 439.357 203.768 428.651 216.146C424.903 220.48 421.468 224.516 418.419 228.149C417.95 228.708 417.494 229.275 416.761 230.155C417.247 232.022 417.959 233.369 419.095 233.99C420.471 234.743 422.512 235.011 424.806 234.81C424.987 234.795 425.014 234.773 425.18 234.754C441.031 214.553 457.474 196.724 474.571 180.822C477.006 178.558 480.711 178.326 483.431 180.239C493.743 187.492 500.71 192.813 505.228 197.027C505.847 196.88 506.466 196.789 507.067 196.559C510.112 195.396 511.892 193.518 512.439 190.226C511.537 189.401 510.645 188.564 509.562 187.605C505.353 183.88 500.735 180.042 495.824 176.247C495.258 175.81 494.691 175.356 494.123 174.925C490.5 172.174 490.379 166.757 493.897 163.874C501.636 157.531 508.82 152.153 515.248 147.701C517.177 146.366 518.813 145.254 520.366 144.245C520.509 141.7 520.364 139.629 519.761 138.456C519.31 137.578 518.682 137.071 517.604 136.719Z" fill="black"/>
<path d="M513.745 605.616C513.745 605.616 573.588 593.04 591.155 609.152C620.719 636.266 632.378 711.848 603.405 727.357C574.432 742.866 559.935 742.523 531.637 739.666C503.339 736.809 458.108 709.238 441.934 670.896" fill="#F3886D"/>
<path d="M620.923 697.436C620.923 697.436 553.001 629.467 445.25 677.789L452.168 700.882L470.371 715.103L494.426 729.554L521.134 738.1L545.983 739.843C545.983 739.843 565.83 737.773 570.031 737.539C574.233 737.305 593.717 731.678 593.717 731.678L610.623 722.186L620.923 697.436Z" fill="#F9B192"/>
<path d="M571.318 660.249C576.875 662.259 582.294 664.647 587.507 667.433C590.496 669.03 593.499 670.725 596.224 672.751C599.358 675.084 599.986 679.52 597.652 682.654C595.319 685.788 590.91 686.424 587.776 684.09C587.802 684.109 587.703 684.048 587.677 684.029C587.587 683.964 587.501 683.916 587.409 683.853C587.191 683.702 586.977 683.55 586.756 683.404C586.114 682.979 585.448 682.573 584.789 682.173C582.962 681.065 581.112 680.015 579.203 679.056C573.308 676.095 567.135 673.695 560.807 671.836C542.054 666.327 522.248 665.405 502.931 668.004C498.84 668.546 495.086 665.671 494.544 661.58C494.001 657.488 496.876 653.735 500.968 653.192C508.972 652.145 517.034 651.597 525.11 651.745C540.851 652.033 556.513 654.896 571.318 660.249Z" fill="black"/>
<path d="M545.794 654.204C548.527 654.569 550.923 656.521 551.698 659.348C552.632 662.733 553.429 666.173 554.196 669.599C555.565 675.714 556.605 681.916 556.26 688.201C556.004 692.32 552.458 695.44 548.339 695.185C544.219 694.929 541.091 691.41 541.346 687.291C541.604 683.676 541.184 680.011 540.703 676.429C540.1 671.934 539.225 667.49 538.048 663.109C537.015 659.341 539.232 655.454 543.001 654.421C543.943 654.163 544.883 654.083 545.794 654.204Z" fill="black"/>
<path d="M576.89 589.918C579.229 590.559 581.538 591.341 583.823 592.348C594.786 597.181 603.298 605.927 609.818 615.797C615.515 624.42 619.792 633.927 623.059 643.712C625.882 652.167 627.925 660.884 629.139 669.714C630.648 680.685 630.973 691.98 629.089 702.927C627.934 709.638 625.909 716.28 622.525 722.218C619.889 726.842 616.405 730.986 612.087 734.124C610.021 735.627 607.764 736.816 605.504 737.992C603.716 738.923 601.913 739.83 600.096 740.703C588.187 746.426 575.846 750.444 562.613 751.427C554.243 752.048 545.858 751.546 537.512 750.816C529.081 750.079 520.749 749.089 512.529 747.019C494.886 742.576 478.347 734.135 464.313 722.565C452.37 712.718 442.61 700.937 434.326 687.906C431.169 682.933 432.631 676.328 437.605 673.171C442.579 670.014 449.175 671.502 452.332 676.476C457.754 685.032 463.893 693.055 471.156 700.139C481.94 710.659 494.881 718.862 509.105 723.862C514.651 725.812 520.366 727.304 526.163 728.28C530.539 729.017 534.974 729.421 539.391 729.826C545.403 730.378 551.421 730.815 557.463 730.668C562.247 730.551 567.02 730.018 571.689 728.958C578.43 727.427 584.9 724.885 591.134 721.931C593.038 721.029 594.913 720.092 596.782 719.12C598.019 718.477 599.268 717.865 600.37 717.002C602.106 715.643 603.489 713.851 604.586 711.951C607.181 707.453 608.45 702.236 609.163 697.134C610.307 688.958 610.006 680.604 608.931 672.44C607.934 664.865 606.181 657.393 603.778 650.141C601.22 642.418 597.934 634.891 593.572 628.006C589.341 621.328 583.972 614.909 576.759 611.358C570.075 608.066 562.603 607.74 555.293 607.756C549.715 607.771 545.175 603.265 545.16 597.688C545.146 592.11 549.651 587.569 555.229 587.555C562.625 587.534 569.873 587.995 576.89 589.918Z" fill="black"/>
<path d="M585.394 597.801C589.563 599.335 593.075 601.371 595.907 603.968C611.449 618.223 622.871 644.774 626.199 671.748C629.761 700.619 623.561 724.561 606.734 733.569C591.846 741.538 580.138 745.709 568.224 747.362C558.026 748.776 548.892 748.479 530.93 746.666C515.185 745.076 495.658 736.807 478.155 724.311C458.903 710.565 443.578 692.904 435.445 673.623L448.405 668.158C455.443 684.841 469.054 700.522 486.318 712.848C501.956 724.014 519.257 731.335 532.345 732.656C549.252 734.363 557.529 734.639 566.302 733.422C576.412 732.02 586.57 728.379 600.089 721.142C610.385 715.631 615.167 697.185 612.24 673.456C609.289 649.54 599.164 626.06 586.383 614.337C582.096 610.406 572.486 608.181 559.209 607.994C553.12 607.908 546.489 608.254 539.522 608.935C533.559 609.518 527.679 610.313 522.177 611.229C520.255 611.55 518.514 611.86 516.995 612.15C516.469 612.25 515.258 612.497 515.192 612.511L512.301 598.729C512.69 598.648 513.402 598.501 514.39 598.313C516.013 598.004 517.849 597.684 519.882 597.346C525.68 596.38 531.859 595.527 538.161 594.911C545.615 594.183 552.745 593.819 559.405 593.913C569.699 594.058 578.447 595.244 585.394 597.801Z" fill="black"/>
<path opacity="0.197261" d="M533.12 389.785C533.12 389.785 431.319 714.713 150.984 573.052L185.505 627.409L243.244 672.492L348.545 701.921L437.257 679.296L465.341 714.359L518.061 740.705L570.774 738.532L606.523 724.81L614.63 701.684L583.5 676.801L519.058 658.674C519.058 658.674 507.775 615.958 513.518 607.62L549.914 601.846L595.358 473.49L590.635 439.127L584.649 410.489L551.416 404.654L533.12 389.785Z" fill="black"/>
<path opacity="0.197261" d="M130.519 398.68L87.9609 378.164L114.636 455.251L130.519 398.68Z" fill="black"/>
</svg>
