<svg width="800" height="800" viewBox="0 0 800 800" fill="none" xmlns="http://www.w3.org/2000/svg">
<path d="M160.734 441.218C160.734 441.218 159.142 404.416 130.638 407.326C102.135 410.236 76.9072 471.624 125.278 538.323" fill="#F3886D"/>
<path d="M160.734 441.218C160.734 441.218 159.142 404.416 130.638 407.326C102.135 410.236 76.9072 471.624 125.278 538.323" stroke="black" stroke-width="0.01875" stroke-miterlimit="10" stroke-linecap="round" stroke-linejoin="round"/>
<path d="M119.597 411.558C142.1 445.154 136.154 484.728 136.154 484.728C136.154 484.728 127.88 513.518 121.504 532.638C84.453 477.034 97.4896 426.272 119.597 411.558Z" fill="#F9B192"/>
<path d="M119.597 411.558C142.1 445.154 136.154 484.728 136.154 484.728C136.154 484.728 127.88 513.518 121.504 532.638C84.453 477.034 97.4896 426.272 119.597 411.558Z" fill="#F9B192"/>
<path d="M142.988 401.735C146.938 402.948 150.483 404.989 153.579 407.751C158.46 412.103 161.905 417.959 164.255 424.801C165.523 428.496 166.397 432.255 166.947 435.914C167.14 437.198 167.277 438.36 167.374 439.426C167.434 440.096 167.461 440.625 167.474 440.938C167.635 444.665 164.749 447.794 161.022 447.955C157.295 448.116 154.139 445.221 153.978 441.494C153.973 441.385 153.968 441.104 153.927 440.649C153.854 439.841 153.729 438.913 153.577 437.902C153.141 435.003 152.454 432.027 151.473 429.17C147.804 418.488 141.645 412.989 131.325 414.042C120.122 415.186 109.084 429.352 105.807 449.958C101.778 475.304 109.663 505.257 130.761 534.349C132.951 537.369 132.251 541.604 129.231 543.794C126.211 545.984 121.994 545.319 119.804 542.3C96.6634 510.391 87.8587 476.838 92.4687 447.844C96.6082 421.808 111.669 402.472 129.951 400.606C134.676 400.123 139.038 400.521 142.988 401.735Z" fill="black"/>
<path d="M600.728 436.137L646.222 452.687C646.222 452.687 714.559 368.978 706.03 256.283C697.502 143.588 556.892 43.5971 481.872 59.5532C481.872 59.5532 465.916 77.7768 472.988 119.42" fill="#ABACE3"/>
<path d="M625.421 416.234C625.421 416.234 667.925 419.573 672.083 389.869C676.24 360.165 644.148 360.453 638.568 359.111C638.568 359.111 684.528 359.065 684.126 326.522C683.723 293.98 649.623 292.756 640.255 295.339C640.255 295.339 688.438 289.667 681.128 256.445C673.817 223.223 635.612 233.994 626.877 235.957C626.877 235.957 670.572 218.474 654.327 187.261C638.082 156.049 599.679 174.421 599.679 174.421L585.181 135.175C585.181 135.175 592.043 104.781 568.903 93.035C545.764 81.2884 523.365 101.302 509.972 121.296L522.18 82.0411L538.912 67.0342L514.296 58.4243L487.408 57.1807L477.342 65.0798C477.342 65.0798 470.884 85.2827 471.211 87.702C471.538 90.1213 469.174 103.469 468.333 110.215C467.493 116.962 467.923 144.666 467.923 144.666L519.316 275.113C519.316 275.113 546.16 375.051 547.603 387.483C549.047 399.915 571.254 442.021 579.211 443.61C587.169 445.199 625.421 416.234 625.421 416.234Z" fill="#C3C4E1"/>
<path d="M629.943 397.484C629.943 397.484 655.207 398.391 658.102 387.1C660.997 375.809 639.504 377.142 635.986 374.829" fill="#FFD000"/>
<path d="M641.516 341.029C641.516 341.029 674.508 340.716 667.553 321.196C660.599 301.676 637.473 317.689 637.473 317.689" fill="#FFD000"/>
<path d="M633.622 277.428C633.622 277.428 663.132 276.451 663.893 261.819C664.653 247.187 635.583 250.968 628.092 255.899" fill="#FFD000"/>
<path d="M617.243 223.835C617.243 223.835 640.337 214.598 638.884 199.96C637.43 185.323 617.555 188.153 606.695 195.602" fill="#FFD000"/>
<path d="M555.07 147.496C555.07 147.496 571.546 123.142 564.956 111.686C558.366 100.23 540.97 107.976 527.771 132.542" fill="#FFD000"/>
<path d="M595.787 435.15L641.281 451.699C641.281 451.699 709.617 367.991 701.089 255.296C692.56 142.601 551.95 42.6109 476.93 58.5669C476.93 58.5669 460.974 76.7906 468.046 118.433" fill="#B7F2CC"/>
<path d="M620.479 415.248C620.479 415.248 662.984 418.587 667.141 388.883C671.298 359.178 639.206 359.467 633.628 358.125C633.628 358.125 679.587 358.079 679.184 325.536C678.782 292.994 644.682 291.77 635.313 294.353C635.313 294.353 683.496 288.681 676.186 255.459C668.876 222.237 630.671 233.007 621.936 234.971C621.936 234.971 665.631 217.487 649.386 186.275C633.14 155.063 594.737 173.435 594.737 173.435L580.239 134.189C580.239 134.189 587.101 103.795 563.962 92.0486C540.823 80.302 518.423 100.315 505.031 120.31L517.238 81.0547L533.97 66.0478L509.354 57.4379L482.466 56.1943L472.401 64.0934C472.401 64.0934 465.942 84.2963 466.269 86.7156C466.596 89.1349 464.232 102.483 463.392 109.229C462.551 115.976 462.981 143.68 462.981 143.68L514.375 274.127C514.375 274.127 541.218 374.065 542.662 386.497C544.106 398.928 566.312 441.035 574.27 442.624C582.227 444.212 620.479 415.248 620.479 415.248Z" fill="#DFFFEA"/>
<path d="M625.004 396.498C625.004 396.498 650.267 397.405 653.163 386.114C656.058 374.823 634.564 376.155 631.046 373.842" fill="#FFA0CA"/>
<path d="M636.574 340.043C636.574 340.043 669.566 339.729 662.612 320.209C655.658 300.689 632.531 316.702 632.531 316.702" fill="#FFA0CA"/>
<path d="M628.679 276.442C628.679 276.442 658.19 275.465 658.95 260.833C659.711 246.201 630.641 249.982 623.15 254.913" fill="#FFA0CA"/>
<path d="M612.303 222.849C612.303 222.849 635.397 213.612 633.943 198.974C632.49 184.336 612.615 187.167 601.754 194.616" fill="#FFA0CA"/>
<path d="M550.127 146.51C550.127 146.51 566.604 122.156 560.014 110.7C553.424 99.2437 536.028 106.99 522.83 131.556" fill="#FFA0CA"/>
<path d="M547.675 61.1779C550.064 62.2836 551.706 64.7506 551.613 67.5467C551.488 71.2747 548.342 74.1856 544.614 74.0608C544.268 74.0492 543.413 74.079 542.195 74.2215C540.088 74.4679 537.905 74.9679 535.772 75.7743C530.433 77.7925 526.396 81.3288 524.083 86.9784C522.27 91.4052 520.397 97.0932 518.524 103.725C516.936 109.346 515.403 115.413 513.97 121.657C513.191 125.049 512.51 128.271 511.897 131.221C511.684 132.252 511.165 134.776 511.134 134.938C510.429 138.601 506.899 141.007 503.236 140.302C499.573 139.598 497.176 136.041 497.881 132.378C497.891 132.323 498.449 129.558 498.67 128.492C499.301 125.453 500.01 122.113 500.811 118.624C502.291 112.178 503.893 105.898 505.547 100.042C507.547 92.959 509.541 86.819 511.576 81.8494C515.415 72.4748 522.361 66.3956 531.004 63.1288C534.243 61.9043 537.499 61.154 540.642 60.7863C541.753 60.6563 542.774 60.5975 543.702 60.5673C544.302 60.5476 544.76 60.5286 545.072 60.5391C546.004 60.5702 546.879 60.8093 547.675 61.1779Z" fill="black"/>
<path d="M534.267 56.8212C561.771 65.2808 591.17 81.451 618.213 103.449C669.359 145.054 703.69 200.172 707.822 254.771C710.533 290.589 705.906 325.735 695.403 359.656C687.297 385.833 676.201 409.727 663.549 430.827C659.359 437.814 655.296 444.005 651.506 449.313C650.17 451.184 648.967 452.821 647.903 454.209C647.25 455.06 646.767 455.647 646.502 455.972C644.685 458.198 641.661 459.032 638.962 458.05L593.476 441.495C589.97 440.22 588.175 436.354 589.45 432.849C590.725 429.343 594.599 427.521 598.105 428.796L638.906 443.651C639.446 442.918 639.907 442.293 640.509 441.45C644.095 436.427 647.981 430.572 651.981 423.902C664.106 403.681 674.73 380.744 682.495 355.67C692.519 323.297 696.923 289.842 694.347 255.808C690.527 205.33 658.181 153.382 609.687 113.935C565.525 78.0115 515.162 58.8463 480.815 64.7826C480.676 65.0042 480.556 65.1428 480.41 65.3909C477.935 69.5793 475.765 75.2147 474.398 82.3454C472.495 92.2683 472.42 103.88 474.699 117.3C475.323 120.978 472.856 124.469 469.178 125.094C465.501 125.718 462.009 123.25 461.385 119.573C458.838 104.578 458.935 91.3122 461.145 79.7851C462.811 71.0956 465.539 64.0371 468.789 58.5375C469.495 57.3417 470.195 56.2966 470.838 55.4161C471.266 54.8305 471.602 54.4038 471.852 54.118C472.813 53.0209 474.085 52.2667 475.511 51.9632C492.604 48.3276 512.874 50.2416 534.267 56.8212Z" fill="black"/>
<path d="M650.345 371.38C652.115 372.083 653.667 372.937 655.055 374.005C659.32 377.287 661.141 382.241 659.716 387.799C658.499 392.546 655.195 396.075 650.578 398.53C647.256 400.297 643.3 401.493 638.832 402.259C635.634 402.808 632.36 403.105 629.139 403.223C627.199 403.293 625.671 403.28 624.752 403.247C621.024 403.113 618.13 399.985 618.264 396.257C618.398 392.529 621.509 389.6 625.236 389.734C625.359 389.739 625.656 389.743 626.091 389.745C626.848 389.749 627.711 389.751 628.645 389.717C631.306 389.62 634.012 389.382 636.559 388.945C642.511 387.925 645.967 386.081 646.511 384.544C645.628 383.971 643.994 383.39 641.55 382.873C640.374 382.625 639.151 382.388 637.415 382.122C637.121 382.077 635.449 381.847 634.983 381.775C634.036 381.628 633.283 381.488 632.604 381.357C630.344 380.922 628.81 380.472 627.321 379.493C624.205 377.444 623.341 373.253 625.39 370.136C627.44 367.02 631.63 366.156 634.747 368.205C634.382 367.966 634.218 367.885 634.148 367.863C634.352 367.925 634.691 368.013 635.164 368.104C635.653 368.198 636.245 368.295 637.044 368.419C637.474 368.486 639.119 368.735 639.441 368.784C641.405 369.085 642.868 369.325 644.342 369.637C646.577 370.109 648.575 370.677 650.345 371.38Z" fill="black"/>
<path d="M654.864 304.289C656.669 304.731 658.411 305.433 660.086 306.43C664.112 308.827 667.125 312.713 668.984 317.932C671.742 325.675 670.194 332.654 665.014 337.71C661.313 341.322 656.183 343.616 650.012 345.085C646.968 345.81 643.852 346.288 640.803 346.562C638.963 346.727 637.523 346.798 636.64 346.807C632.91 346.842 629.861 343.825 629.825 340.095C629.79 336.365 632.772 333.334 636.502 333.298C636.604 333.297 636.865 333.266 637.258 333.248C637.949 333.217 638.732 333.165 639.588 333.088C642.033 332.869 644.534 332.498 646.886 331.938C650.895 330.984 653.958 329.626 655.578 328.045C656.942 326.714 657.272 325.295 656.265 322.469C655.417 320.088 654.368 318.742 653.179 318.034C651.019 316.747 647.159 317.11 642.463 319.05C640.894 319.698 639.375 320.46 637.986 321.264C637.504 321.542 637.091 321.807 636.728 322.039C636.531 322.165 636.423 322.233 636.391 322.255C633.325 324.378 629.095 323.622 626.972 320.556C624.848 317.489 625.631 313.268 628.698 311.145C629.228 310.778 630.074 310.232 631.222 309.568C633.1 308.482 635.159 307.443 637.322 306.549C643.504 303.995 649.449 302.964 654.864 304.289Z" fill="black"/>
<path d="M659.131 244.993C660.18 245.406 661.169 245.878 662.097 246.43C667.109 249.409 669.922 254.332 669.607 260.38C669.299 266.309 666.141 271.092 661.083 274.595C657.422 277.13 652.884 278.958 647.643 280.259C644.276 281.096 640.812 281.66 637.422 282.028C635.379 282.249 633.773 282.36 632.806 282.392C629.078 282.516 625.965 279.596 625.842 275.868C625.718 272.14 628.637 269.027 632.365 268.904C632.496 268.9 632.812 268.874 633.273 268.844C634.074 268.791 634.96 268.726 635.95 268.619C638.773 268.313 641.665 267.833 644.384 267.157C651.939 265.281 655.956 262.482 656.101 259.691C656.189 258.008 653.987 256.7 647.818 256.497C641.375 256.284 633.44 258 630.783 259.75C627.667 261.801 623.457 260.943 621.406 257.827C619.355 254.712 620.231 250.537 623.347 248.486C628.612 245.02 639.252 242.704 648.268 243.002C652.308 243.135 655.987 243.754 659.131 244.993Z" fill="black"/>
<path d="M628.792 182.992C635.374 185.232 639.875 190.437 640.655 198.298C640.937 201.129 640.626 203.932 639.757 206.617C637.574 213.372 632.314 218.905 625.149 223.619C622.8 225.164 620.383 226.491 618.042 227.642C616.617 228.343 615.508 228.831 614.814 229.108C611.351 230.493 607.414 228.829 606.029 225.366C604.643 221.903 606.334 217.974 609.798 216.589C609.863 216.563 610.032 216.472 610.321 216.345C610.837 216.118 611.447 215.849 612.095 215.531C613.959 214.614 615.878 213.542 617.722 212.329C622.558 209.147 625.875 205.65 626.912 202.443C627.219 201.493 627.321 200.587 627.228 199.646C626.927 196.617 625.274 195.371 621.17 195.251C616.334 195.109 610.036 197.122 605.571 200.184C602.495 202.294 598.306 201.516 596.196 198.44C594.086 195.364 594.872 191.147 597.948 189.038C604.695 184.41 613.777 181.545 621.584 181.774C624.175 181.85 626.598 182.245 628.792 182.992Z" fill="black"/>
<path d="M555.927 98.3878C560.311 99.3255 564.11 102.059 566.722 106.6C570.378 112.956 569.766 120.91 566.473 130.132C564.938 134.43 562.873 138.791 560.493 143.072C559.557 144.757 558.616 146.313 557.743 147.712C557.208 148.568 556.827 149.192 556.582 149.554C554.492 152.644 550.27 153.442 547.18 151.352C544.091 149.262 543.283 145.067 545.374 141.977C545.403 141.934 546.045 140.982 546.306 140.564C547.063 139.351 547.867 137.989 548.687 136.514C550.734 132.831 552.492 129.101 553.748 125.583C555.831 119.75 556.17 115.348 555.008 113.328C553.744 111.13 551.837 110.799 547.876 112.874C542.014 115.947 535.325 123.387 529.614 134.016C527.849 137.302 523.781 138.529 520.496 136.764C517.21 134.998 515.955 130.922 517.721 127.636C524.609 114.816 533.076 105.375 541.618 100.899C546.572 98.3027 551.542 97.45 555.927 98.3878Z" fill="black"/>
<path d="M421.558 119.542C421.558 119.542 443.621 43.9171 436.743 32.4186C436.743 32.4186 421.252 20.1042 389.735 73.744C389.735 73.744 378.434 99.0209 386.09 128.914" fill="#AF93E5"/>
<path d="M416.619 118.554C416.619 118.554 438.682 42.9298 431.803 31.4313C431.803 31.4313 416.312 19.1169 384.795 72.7567C384.795 72.7567 373.494 98.0336 381.151 127.926" fill="#93E9CA"/>
<path d="M431.844 24.0744C432.869 24.3776 433.837 24.7831 434.71 25.2719C435.237 25.5667 435.654 25.8606 435.998 26.1342C436.635 26.64 437.179 27.2577 437.596 27.9554C441.828 35.0297 439.981 51.0138 434.196 77.1239C432.072 86.7096 429.539 96.8815 426.832 106.984C425.885 110.518 424.991 113.805 424.165 116.741C423.875 117.77 423.121 120.403 423.107 120.451C422.062 124.032 418.304 126.08 414.723 125.035C411.142 123.991 409.094 120.232 410.138 116.651C410.184 116.495 410.869 114.082 411.153 113.075C411.964 110.192 412.862 106.965 413.794 103.488C416.455 93.5615 418.953 83.5777 421.03 74.2069C423.352 63.7262 424.984 54.6847 425.802 47.5881C426.245 43.7455 426.439 40.5507 426.362 38.1237C426.35 37.7278 426.283 37.5155 426.257 37.1723C425.785 37.2302 425.446 37.1723 424.835 37.3611C420.552 38.6841 414.962 42.8212 408.179 50.7388C402.81 57.0046 397.011 65.3512 390.811 75.8691C390.741 76.0371 390.708 76.1579 390.584 76.476C388.97 80.6201 387.386 86.1564 386.346 92.7052C384.821 102.314 384.808 112.217 386.765 122.106C387.04 123.492 387.344 124.882 387.696 126.255C388.621 129.869 386.45 133.545 382.837 134.471C379.223 135.396 375.52 133.216 374.595 129.603C374.181 127.987 373.839 126.354 373.516 124.725C371.229 113.17 371.254 101.665 373.017 90.5637C374.218 82.9958 376.036 76.5463 377.981 71.5524C378.262 70.8303 378.495 70.3063 378.636 69.99C378.738 69.7622 378.843 69.5441 378.969 69.329C385.63 57.9926 391.938 48.9463 397.922 41.9617C406.236 32.2576 413.848 26.6348 420.857 24.4693C425.055 23.1723 428.771 23.1648 431.844 24.0744Z" fill="black"/>
<path d="M535.639 759.799C535.639 759.799 287.219 830.815 103.861 612.832C103.861 612.832 131.275 430.917 231.84 342.615C231.84 342.615 197.396 329.82 192.52 323.479C187.644 317.138 191.685 298.618 174.872 280.028C174.872 280.028 177.746 262.596 186.942 246.721C186.942 246.721 181.731 227.978 184.681 222.097C184.681 222.097 314.856 115.314 452.946 108.119C452.946 108.119 548.868 114.525 605.18 202.253C661.492 289.98 639.274 373.2 620.556 430.808C601.837 488.416 540.941 576.255 535.639 759.799Z" fill="#AF93E5"/>
<path d="M507.345 293.963L508.861 295.669L514.22 301.671C514.22 301.671 508.901 376.931 450.937 388.521C392.972 400.11 375.634 373.848 375.634 373.848L329.748 371.366C329.748 371.366 296.966 429.894 196.952 385.741C195.461 385.083 194.366 384.419 192.951 383.76L201.49 369.136L212.96 353.777L228.318 341.664C228.318 341.664 268.715 351.168 276.989 349.963C285.264 348.758 306.86 340.18 310.426 334.936L391.923 337.922C391.923 337.922 396.935 373.319 439.266 369.253C493.622 364.032 509.292 299.626 509.292 299.626L507.345 293.963Z" fill="#B876D1"/>
<path d="M620.868 230.983C656.494 307.951 637.22 379.551 620.561 430.822C601.843 488.431 540.932 576.241 535.63 759.785C535.63 759.785 518.288 764.618 489.824 767.893C490.851 755.883 508.719 558.207 584.785 430.827C626.245 361.399 614.682 269.242 618.78 237.318C619.065 235.105 619.826 233.018 620.868 230.983Z" fill="#B876D1"/>
<path d="M300.228 219.108C340.625 237.132 331.741 261.14 331.741 261.14L321.795 331.913L307.7 337.926C307.7 337.926 291.036 348.664 272.069 349.832C253.102 351 251.504 347.533 231.831 342.599C231.831 342.599 197.405 329.838 192.529 323.496C187.653 317.155 191.685 298.622 174.871 280.032C174.871 280.032 177.74 262.603 186.935 246.728C186.935 246.728 181.725 227.965 184.675 222.085C184.675 222.085 212.453 202.84 230.422 190.48C247.795 193.688 295.179 216.855 300.228 219.108Z" fill="#ABACE3"/>
<path d="M200.337 210.307C223.234 229.714 245.874 231.169 245.874 231.169C245.874 231.169 268.446 229.352 275.398 237.566C282.349 245.78 279.896 267.434 279.896 267.434C277.96 284.672 235.968 288.432 235.968 288.432C251.012 328.137 243.804 341.814 243.804 341.814C243.804 341.814 228.532 345.496 231.831 342.599C231.831 342.599 197.405 329.838 192.529 323.496C187.653 317.155 191.685 298.622 174.871 280.032C174.871 280.032 177.74 262.603 186.935 246.728C186.935 246.728 181.725 227.965 184.675 222.085C184.675 222.085 191.023 217.116 200.337 210.307Z" fill="#C3C4E1"/>
<path d="M530.699 758.812C530.699 758.812 282.279 829.828 98.9219 611.844C98.9219 611.844 126.335 429.929 226.901 341.627C226.901 341.627 192.457 328.833 187.581 322.492C182.704 316.151 186.746 297.63 169.932 279.041C169.932 279.041 172.807 261.609 182.002 245.734C182.002 245.734 176.791 226.991 179.742 221.11C179.742 221.11 309.917 114.327 448.007 107.131C448.007 107.131 543.928 113.538 600.241 201.265C656.553 288.993 634.334 372.212 615.616 429.82C596.898 487.429 536.002 575.268 530.699 758.812Z" fill="#93E9CA"/>
<path d="M615.93 229.996C651.556 306.964 632.282 378.564 615.622 429.835C596.904 487.443 535.994 575.254 530.692 758.798C530.692 758.798 513.349 763.631 484.885 766.906C485.913 754.896 503.78 557.22 579.847 429.84C621.306 360.412 609.744 268.255 613.842 236.33C614.126 234.117 614.888 232.03 615.93 229.996Z" fill="#82D4D5"/>
<path d="M502.406 292.976L503.923 294.682L509.282 300.684C509.282 300.684 503.963 375.944 445.998 387.533C388.034 399.123 370.696 372.86 370.696 372.86L324.809 370.379C324.809 370.379 292.028 428.907 192.014 384.754C190.522 384.095 189.427 383.432 188.012 382.773L196.551 368.149L208.022 352.79L223.379 340.677C223.379 340.677 263.777 350.181 272.051 348.976C280.325 347.77 301.922 339.193 305.488 333.949L386.985 336.934C386.985 336.934 391.997 372.332 434.327 368.266C488.683 363.045 504.353 298.639 504.353 298.639L502.406 292.976Z" fill="#82D4D5"/>
<path d="M295.289 218.121C335.686 236.144 326.801 260.153 326.801 260.153L316.855 330.926L302.761 336.939C302.761 336.939 286.097 347.676 267.13 348.845C248.163 350.013 246.564 346.546 226.892 341.612C226.892 341.612 192.465 328.85 187.589 322.509C182.713 316.168 186.745 297.634 169.932 279.045C169.932 279.045 172.801 261.616 181.996 245.741C181.996 245.741 176.785 226.978 179.735 221.097C179.735 221.097 207.514 201.853 225.482 189.493C242.856 192.701 290.239 215.868 295.289 218.121Z" fill="#B7F2CC"/>
<path d="M195.398 209.32C218.295 228.727 240.935 230.182 240.935 230.182C240.935 230.182 263.506 228.365 270.458 236.579C277.409 244.793 274.956 266.447 274.956 266.447C273.021 283.684 231.028 287.445 231.028 287.445C246.072 327.15 238.864 340.826 238.864 340.826C238.864 340.826 223.593 344.508 226.892 341.612C226.892 341.612 192.465 328.85 187.589 322.509C182.713 316.168 186.745 297.634 169.932 279.045C169.932 279.045 172.801 261.616 181.996 245.741C181.996 245.741 176.785 226.978 179.735 221.097C179.735 221.097 186.084 216.129 195.398 209.32Z" fill="#DFFFEA"/>
<path d="M513.891 214.031C513.891 214.031 490.827 211.077 478.967 203.389" stroke="black" stroke-width="0.01875" stroke-miterlimit="10" stroke-linecap="round" stroke-linejoin="round"/>
<path d="M514.746 207.334C518.446 207.807 521.052 211.181 520.579 214.88C520.105 218.58 516.723 221.214 513.023 220.74C512.609 220.687 511.902 220.563 510.911 220.409C509.286 220.157 507.48 219.866 505.556 219.498C499.844 218.403 494.22 216.999 489.024 215.28C483.638 213.498 479.018 211.454 475.307 209.048C472.177 207.019 471.276 202.858 473.306 199.728C475.335 196.598 479.496 195.697 482.626 197.726C485.232 199.415 488.861 201.028 493.243 202.477C497.815 203.99 502.918 205.216 508.098 206.209C509.859 206.547 511.491 206.852 512.964 207.08C513.474 207.159 514.684 207.326 514.746 207.334Z" fill="black"/>
<path d="M223.277 296.876L172.27 276.128" stroke="black" stroke-width="0.01875" stroke-miterlimit="10" stroke-linecap="round" stroke-linejoin="round"/>
<path d="M174.827 269.871L225.818 290.611C229.273 292.016 230.93 295.964 229.525 299.42C228.119 302.875 224.198 304.541 220.742 303.135L169.725 282.386C166.269 280.981 164.612 277.033 166.018 273.577C167.423 270.122 171.372 268.465 174.827 269.871Z" fill="black"/>
<path d="M230.607 268.331C230.607 268.331 268.033 223.998 263.53 257.531" stroke="black" stroke-width="0.01875" stroke-miterlimit="10" stroke-linecap="round" stroke-linejoin="round"/>
<path d="M261.579 238.375C262.833 238.64 264.052 239.143 265.248 239.923C270.292 243.209 271.424 249.407 270.212 258.431C269.716 262.128 266.317 264.717 262.62 264.22C258.923 263.724 256.335 260.325 256.831 256.629C257.061 254.922 256.947 254.055 256.937 252.935C256.746 253.044 256.68 253.044 256.476 253.169C253.9 254.755 250.697 257.336 247.179 260.653C244.473 263.205 241.731 266.032 239.117 268.893C238.2 269.896 237.38 270.831 236.646 271.671C236.392 271.962 235.786 272.646 235.755 272.683C233.349 275.533 229.107 275.909 226.257 273.503C223.406 271.096 223.04 266.828 225.446 263.977C225.64 263.747 226.001 263.333 226.487 262.777C227.284 261.864 228.164 260.847 229.151 259.767C231.975 256.676 234.936 253.643 237.912 250.836C242.041 246.943 245.885 243.817 249.385 241.663C253.775 238.96 257.815 237.582 261.579 238.375Z" fill="black"/>
<path d="M223.381 340.678C223.381 340.678 263.785 350.181 272.059 348.976C280.333 347.771 301.922 339.196 305.488 333.952L386.98 336.936C386.98 336.936 391.99 372.325 434.321 368.259C488.677 363.037 504.336 298.646 504.336 298.646" stroke="black" stroke-width="0.01875" stroke-miterlimit="10" stroke-linecap="round" stroke-linejoin="round"/>
<path d="M505.938 292.088C509.562 292.97 511.776 296.614 510.894 300.238C510.822 300.537 510.691 301.043 510.496 301.736C509.145 306.555 507.063 312.481 504.122 318.987C499.801 328.546 494.38 337.616 487.762 345.659C474.038 362.339 456.534 372.92 434.971 374.991C410.483 377.344 394.221 368.058 385.424 352.176C383.813 349.268 382.638 346.37 381.727 343.518L308.188 340.81C304.863 343.624 299.721 346.388 293.185 349.192C285.739 352.385 277.817 354.966 273.033 355.663C268.623 356.305 259.887 355.123 246.694 352.579C241.214 351.523 235.376 350.281 229.571 348.998C227.54 348.55 221.925 347.274 221.824 347.25C218.193 346.396 215.942 342.768 216.796 339.137C217.65 335.506 221.306 333.264 224.937 334.118C225.026 334.139 230.493 335.391 232.488 335.831C238.183 337.09 243.916 338.268 249.263 339.3C260.476 341.462 268.87 342.623 271.071 342.302C274.473 341.807 281.407 339.552 287.867 336.782C294.255 334.042 299.264 331.097 299.902 330.158C301.209 328.236 303.422 327.119 305.745 327.204L387.215 330.18C390.483 330.3 393.217 332.74 393.675 335.978C393.68 336.01 393.702 336.194 393.768 336.512C393.894 337.115 394.071 337.827 394.3 338.608C394.97 340.891 395.94 343.302 397.246 345.661C399.924 350.495 403.653 354.513 408.628 357.348C414.986 360.97 423.184 362.525 433.668 361.519C451.366 359.819 465.769 351.153 477.356 337.07C483.154 330.023 487.956 321.961 491.816 313.421C494.457 307.579 496.324 302.306 497.502 298.106C497.654 297.567 497.752 297.193 497.788 297.045C498.669 293.421 502.313 291.207 505.938 292.088Z" fill="black"/>
<path d="M530.699 758.812C530.699 758.812 282.279 829.828 98.9219 611.844C98.9219 611.844 126.335 429.929 226.901 341.627C226.901 341.627 192.457 328.833 187.581 322.492C182.704 316.151 186.746 297.63 169.932 279.041C169.932 279.041 172.807 261.609 182.002 245.734C182.002 245.734 176.791 226.991 179.742 221.11C179.742 221.11 309.917 114.327 448.007 107.131C448.007 107.131 543.928 113.538 600.241 201.265C656.553 288.993 634.334 372.212 615.616 429.82C596.898 487.429 536.002 575.268 530.699 758.812Z" stroke="black" stroke-width="0.01875" stroke-miterlimit="10" stroke-linecap="round" stroke-linejoin="round"/>
<mask id="mask0_415_10352" style="mask-type:luminance" maskUnits="userSpaceOnUse" x="83" y="15" width="634" height="770">
<path d="M716.828 15.2051H83.1504V784.815H716.828V15.2051Z" fill="white"/>
<path d="M604.216 82.2653C605.079 82.6846 605.99 83.2914 606.927 84.1225C609.74 86.6159 617.058 97.8854 621.534 113.932C621.694 114.503 621.806 115.142 621.958 115.726C663.792 152.36 697.085 202.338 701.093 255.3C709.621 367.995 641.275 451.693 641.275 451.693L611.664 440.918C611.654 440.946 611.649 440.971 611.638 440.999C604.26 460.261 593.369 482.892 581.929 510.853C575.975 525.41 569.905 541.584 564.08 559.322C591.815 557.725 607.482 573.852 617.056 590.619C618.777 593.634 619.844 596.833 620.314 600.17C620.455 601.172 620.432 602.216 620.471 603.24C620.496 603.922 620.595 604.595 620.575 605.286C620.554 606.04 620.407 606.811 620.335 607.575C619.741 613.798 617.565 620.263 614.036 626.685C613.417 627.81 612.69 628.928 611.997 630.047C611.992 630.055 611.994 630.066 611.989 630.073C611.984 630.081 611.984 630.093 611.979 630.1C610.461 632.55 608.819 634.992 606.979 637.382C606.602 637.874 606.162 638.336 605.771 638.824C605.753 638.847 605.738 638.873 605.719 638.896C605.656 638.975 605.589 639.05 605.525 639.129C604.603 640.272 603.715 641.42 602.729 642.541C601.999 643.37 601.116 644.12 600.354 644.935C598.735 646.671 597.077 648.362 595.328 650.019C594.527 650.776 593.831 651.604 593.005 652.342C592.477 652.815 591.871 653.198 591.333 653.662C591.309 653.685 591.28 653.703 591.255 653.725C589.121 655.569 586.92 657.289 584.664 658.982C584.535 659.079 584.405 659.173 584.275 659.269C583.519 659.831 582.839 660.496 582.072 661.039C581.841 661.203 581.596 661.327 581.364 661.49C577.795 663.981 574.133 666.306 570.416 668.318C566.457 670.462 562.399 671.943 558.33 672.913C556.295 673.399 554.262 673.769 552.232 674.01C548.173 674.491 544.157 674.503 540.247 674.199C539.41 674.134 538.596 673.991 537.771 673.897C534.174 699.753 531.585 727.797 530.69 758.798C530.69 758.798 515.164 763.249 489.01 766.501C487.757 766.657 486.186 766.756 484.884 766.906C404.701 776.132 234.253 772.729 98.9308 611.853C98.9308 611.853 104.321 576.185 119.01 528.838C96.0922 492.359 94.5044 458.363 102.577 435.617C102.683 435.317 102.791 435.011 102.9 434.715C103.548 432.965 104.248 431.296 105.006 429.689C105.262 429.144 105.527 428.609 105.795 428.081C106.551 426.595 107.341 425.172 108.183 423.827C108.447 423.405 108.721 423.018 108.993 422.61C109.907 421.241 110.807 419.902 111.802 418.7C112.014 418.444 112.258 418.249 112.473 418.001C117.81 411.847 124.122 408.001 130.645 407.335C149.418 405.418 156.423 420.605 159.082 431.281C160.888 427.888 162.582 424.472 164.487 421.112C171.884 408.068 180.086 395.356 189.056 383.29C188.717 383.118 188.381 382.945 188.011 382.773L196.55 368.149L208.021 352.79L223.378 340.677L224.223 340.537C222.183 339.77 216.91 337.818 209.074 334.431C199.853 330.44 190.027 325.68 187.589 322.509C185.156 319.344 184.933 313.111 183.241 305.384C183.238 305.372 183.225 305.361 183.223 305.349C182.372 301.475 181.167 297.246 179.105 292.796C177.042 288.345 174.135 283.692 169.932 279.045C169.932 279.045 172.801 261.616 181.996 245.741C181.996 245.741 178.012 231.375 178.991 223.844C179.131 222.769 179.367 221.832 179.735 221.097C179.735 221.097 185.994 216.21 195.124 209.527C195.135 209.519 195.148 209.517 195.159 209.509C195.245 209.446 195.311 209.383 195.398 209.32C197.806 207.559 199.28 206.4 202.23 204.32C235.614 180.789 302.713 138.765 379.38 118.457C375.895 92.9055 384.79 72.7534 384.79 72.7534C416.307 19.1135 431.805 31.4234 431.805 31.4234C437.473 40.8994 424.087 91.7503 418.991 110.112C428.598 108.688 438.279 107.648 448.007 107.141C448.007 107.141 449.514 107.226 452.246 107.572C454.867 107.904 458.729 108.531 463.385 109.445C463.39 109.402 463.387 109.283 463.392 109.241C464.233 102.494 466.6 89.1314 466.273 86.7121C465.947 84.2928 472.411 64.0876 472.411 64.0876L474.243 62.6409C474.337 62.4759 474.458 62.2146 474.549 62.0601C475.935 59.7009 476.926 58.5713 476.926 58.5713C477.951 58.3533 479.033 58.2328 480.082 58.0578L482.462 56.1976L509.365 57.4529L512.685 58.6202C522.702 60.3126 533.175 63.2858 543.846 67.3543C544.078 67.353 544.869 67.302 544.869 67.302L544.622 67.6955C560.32 73.7546 576.348 82.2525 591.961 92.6639L594.112 85.4034C594.112 85.4034 598.176 79.3304 604.216 82.2653Z" fill="black"/>
</mask>
<g mask="url(#mask0_415_10352)">
<path d="M604.216 82.2653C605.079 82.6846 605.989 83.2914 606.927 84.1225C609.74 86.6159 617.058 97.8854 621.534 113.932C621.694 114.503 621.806 115.142 621.958 115.726C663.792 152.36 697.085 202.338 701.093 255.3C709.621 367.995 641.275 451.693 641.275 451.693L611.664 440.918C611.654 440.946 611.649 440.971 611.638 440.999C604.26 460.261 593.369 482.892 581.929 510.853C575.975 525.41 569.905 541.584 564.08 559.322C591.815 557.725 607.482 573.852 617.056 590.619C618.777 593.634 619.844 596.833 620.314 600.17C620.455 601.172 620.433 602.216 620.471 603.24C620.496 603.922 620.595 604.595 620.575 605.286C620.554 606.04 620.407 606.811 620.335 607.575C619.741 613.798 617.564 620.263 614.036 626.685C613.417 627.81 612.69 628.928 611.997 630.047C611.993 630.055 611.994 630.066 611.989 630.073C611.984 630.081 611.984 630.093 611.979 630.1C610.46 632.55 608.819 634.992 606.979 637.382C606.601 637.874 606.162 638.336 605.771 638.824C605.753 638.847 605.738 638.873 605.719 638.896C605.656 638.975 605.589 639.05 605.525 639.129C604.603 640.272 603.715 641.42 602.729 642.541C601.999 643.37 601.116 644.12 600.354 644.935C598.735 646.671 597.077 648.362 595.328 650.019C594.527 650.776 593.83 651.604 593.005 652.342C592.477 652.815 591.871 653.198 591.333 653.662C591.308 653.685 591.28 653.703 591.255 653.725C589.121 655.569 586.92 657.289 584.664 658.982C584.535 659.079 584.405 659.173 584.275 659.269C583.519 659.831 582.839 660.496 582.072 661.039C581.841 661.203 581.596 661.327 581.364 661.49C577.795 663.981 574.133 666.306 570.416 668.318C566.457 670.462 562.399 671.943 558.33 672.913C556.295 673.399 554.262 673.769 552.232 674.01C548.173 674.491 544.157 674.503 540.247 674.199C539.41 674.134 538.597 673.991 537.771 673.897C534.174 699.753 531.585 727.797 530.69 758.798C530.69 758.798 515.164 763.249 489.01 766.501C487.756 766.657 486.186 766.756 484.884 766.906C404.701 776.132 234.253 772.729 98.9308 611.853C98.9308 611.853 104.321 576.185 119.01 528.838C96.0922 492.359 94.5044 458.363 102.577 435.617C102.683 435.317 102.791 435.011 102.9 434.715C103.548 432.965 104.248 431.296 105.006 429.689C105.262 429.144 105.527 428.609 105.795 428.081C106.551 426.595 107.341 425.172 108.183 423.827C108.447 423.405 108.721 423.018 108.993 422.61C109.907 421.241 110.807 419.902 111.802 418.7C112.014 418.444 112.258 418.249 112.473 418.001C117.81 411.847 124.122 408.001 130.645 407.335C149.418 405.418 156.423 420.605 159.082 431.281C160.888 427.888 162.582 424.472 164.487 421.112C171.884 408.068 180.086 395.356 189.056 383.29C188.717 383.118 188.381 382.945 188.011 382.773L196.55 368.149L208.021 352.79L223.378 340.677L224.223 340.537C222.183 339.77 216.91 337.818 209.074 334.431C199.853 330.44 190.027 325.68 187.589 322.509C185.156 319.344 184.933 313.111 183.241 305.384C183.238 305.372 183.225 305.361 183.223 305.349C182.372 301.475 181.167 297.246 179.105 292.796C177.042 288.345 174.135 283.692 169.932 279.045C169.932 279.045 172.801 261.616 181.996 245.741C181.996 245.741 178.012 231.375 178.991 223.844C179.131 222.769 179.367 221.832 179.735 221.097C179.735 221.097 185.994 216.21 195.124 209.527C195.135 209.519 195.148 209.517 195.159 209.509C195.245 209.446 195.311 209.383 195.398 209.32C197.806 207.559 199.28 206.4 202.23 204.32C235.614 180.789 302.713 138.765 379.38 118.457C375.895 92.9055 384.79 72.7534 384.79 72.7534C416.307 19.1135 431.805 31.4234 431.805 31.4234C437.473 40.8994 424.087 91.7503 418.991 110.112C428.598 108.688 438.279 107.648 448.007 107.141C448.007 107.141 449.514 107.226 452.246 107.572C454.867 107.904 458.729 108.531 463.385 109.445C463.39 109.402 463.387 109.283 463.392 109.241C464.233 102.494 466.6 89.1314 466.273 86.7121C465.946 84.2928 472.411 64.0876 472.411 64.0876L474.243 62.6409C474.337 62.4759 474.458 62.2146 474.549 62.0601C475.934 59.7009 476.926 58.5713 476.926 58.5713C477.951 58.3533 479.033 58.2328 480.082 58.0578L482.462 56.1976L509.365 57.4529L512.685 58.6202C522.702 60.3126 533.175 63.2858 543.846 67.3543C544.078 67.353 544.869 67.302 544.869 67.302L544.622 67.6955C560.32 73.7546 576.348 82.2525 591.961 92.6639L594.112 85.4034C594.112 85.4034 598.175 79.3304 604.216 82.2653Z" stroke="black" stroke-width="0.0375" stroke-miterlimit="10" stroke-linecap="round" stroke-linejoin="round"/>
</g>
<path d="M486.511 108.267C495.545 111.038 504.849 114.513 514.277 118.798C540.051 130.51 563.653 146.929 583.725 168.792C591.807 177.595 599.243 187.185 605.935 197.609C632.517 239.022 643.806 281.903 642.817 326.976C642.077 360.711 635.403 390.774 622.041 431.898C619.63 439.32 616.494 447.455 612.119 457.791C610.389 461.879 608.531 466.165 605.936 472.086C606.203 471.477 600.73 483.888 599.147 487.516C581.567 527.798 570.402 557.69 560.414 594.977C547.15 644.487 539.201 698.166 537.444 759.016C537.359 761.958 535.391 764.492 532.561 765.301C531.629 765.567 529.908 766.029 527.427 766.621C523.347 767.595 518.572 768.604 513.202 769.604C497.917 772.449 480.668 774.63 461.783 775.77C406.424 779.11 348.708 772.919 291.592 753.701C217.94 728.918 150.96 684.193 93.7548 616.185C92.5057 614.7 91.9477 612.757 92.2369 610.839C92.2887 610.495 92.4073 609.859 92.5606 608.932C92.813 607.406 93.1044 605.602 93.4722 603.576C94.519 597.81 95.8248 591.238 97.4171 583.968C102.303 561.66 108.72 537.792 116.86 513.381C127.421 481.711 140.067 451.653 154.994 424.248C172.236 392.593 192.013 365.521 214.465 343.942C210.762 342.44 207.018 340.931 203.573 339.397C192.214 334.34 185.179 330.444 182.224 326.602C180.663 324.572 179.728 322.219 178.99 319.16C178.509 317.166 177.157 309.335 177.144 309.269C176.351 305.109 175.441 301.678 174.115 298.283C172.071 293.048 169.128 288.225 164.926 283.58C163.545 282.053 162.929 279.981 163.263 277.95C163.406 277.083 163.688 275.587 164.147 273.591C166.324 264.121 169.843 254.17 174.822 244.925C174.781 244.758 174.756 244.713 174.713 244.535C174.167 242.277 173.655 239.92 173.227 237.542C172.897 235.712 172.653 233.948 172.457 232.262C171.756 226.23 171.911 221.628 173.693 218.075C174.117 217.23 174.734 216.5 175.465 215.899C175.575 215.81 177.1 214.577 177.747 214.067C179.585 212.618 181.749 210.955 184.215 209.096C191.238 203.802 199.335 197.991 208.398 191.861C234.273 174.358 262.727 157.696 292.965 143.323C345.428 118.385 397.589 102.983 447.65 100.374C447.917 100.36 448.175 100.377 448.442 100.395C449.069 100.437 450.182 100.546 451.737 100.726C454.268 101.019 457.185 101.416 460.415 101.977C468.733 103.421 477.477 105.495 486.511 108.267ZM482.578 121.192C474.089 118.587 465.878 116.659 458.095 115.308C455.121 114.792 452.475 114.396 450.193 114.131C449.407 114.04 448.731 113.967 448.162 113.915C448.115 113.911 448.115 113.92 448.073 113.916C400.07 116.464 349.653 131.343 298.763 155.533C269.184 169.593 241.293 185.901 215.949 203.044C207.084 209.04 199.186 214.715 192.342 219.874C189.955 221.674 187.875 223.267 186.113 224.656C185.983 224.758 185.851 224.872 185.671 225.015C185.643 225.278 185.601 225.487 185.588 225.817C185.539 227.123 185.643 228.787 185.865 230.7C186.027 232.089 186.24 233.578 186.522 235.145C186.899 237.241 187.355 239.357 187.842 241.374C188.012 242.078 188.492 243.83 188.52 243.931C189.006 245.682 188.749 247.553 187.838 249.125C182.857 257.725 179.434 267.491 177.332 276.633C177.279 276.863 177.243 277.021 177.195 277.239C181.327 282.331 184.459 287.664 186.688 293.373C188.353 297.637 189.467 301.802 190.403 306.712C190.493 307.187 191.762 314.515 192.119 315.999C192.453 317.381 192.764 318.13 192.947 318.368C193.24 318.749 195.092 320.077 197.92 321.641C200.848 323.261 204.647 325.098 209.086 327.074C213.442 329.014 218.166 330.96 222.924 332.843C224.591 333.502 229.189 335.259 229.261 335.286C234.053 337.067 235.192 343.333 231.35 346.706C206.86 368.21 185.414 396.647 166.862 430.708C152.345 457.358 140.004 486.678 129.681 517.635C121.702 541.563 115.407 565.003 110.619 586.866C109.062 593.974 107.787 600.392 106.768 606.003C106.558 607.16 106.366 608.372 106.121 609.817C161.256 674.564 225.411 717.179 295.9 740.897C351.247 759.521 407.256 765.552 460.978 762.311C479.286 761.207 495.988 759.064 510.743 756.318C515.839 755.369 520.31 754.398 524.15 753.484C526.232 693.705 534.196 640.572 547.349 591.472C557.543 553.419 568.963 522.957 586.789 482.11C588.38 478.464 593.824 466.049 593.551 466.671C596.125 460.799 597.96 456.526 599.664 452.501C603.901 442.493 606.923 434.714 609.194 427.724C622.183 387.749 628.591 358.825 629.297 326.696C630.229 284.236 619.649 244.003 594.563 204.922C588.294 195.155 581.334 186.163 573.774 177.928C554.994 157.472 532.905 142.098 508.711 131.103C499.841 127.073 491.066 123.797 482.578 121.192Z" fill="black"/>
<path d="M486.511 108.267C495.545 111.038 504.849 114.513 514.277 118.798C540.051 130.51 563.653 146.929 583.725 168.792C591.807 177.595 599.243 187.185 605.935 197.609C632.517 239.022 643.806 281.903 642.817 326.976C642.077 360.711 635.403 390.774 622.041 431.898C619.63 439.32 616.494 447.455 612.119 457.791C610.389 461.879 608.531 466.165 605.936 472.086C606.203 471.477 600.73 483.888 599.147 487.516C581.567 527.798 570.402 557.69 560.414 594.977C547.15 644.487 539.201 698.166 537.444 759.016C537.359 761.958 535.391 764.492 532.561 765.301C531.629 765.567 529.908 766.029 527.427 766.621C523.347 767.595 518.572 768.604 513.202 769.604C497.917 772.449 480.668 774.63 461.783 775.77C406.424 779.11 348.708 772.919 291.592 753.701C217.94 728.918 150.96 684.193 93.7548 616.185C92.5057 614.7 91.9477 612.757 92.2369 610.839C92.2887 610.495 92.4073 609.859 92.5606 608.932C92.813 607.406 93.1044 605.602 93.4722 603.576C94.519 597.81 95.8248 591.238 97.4171 583.968C102.303 561.66 108.72 537.792 116.86 513.381C127.421 481.711 140.067 451.653 154.994 424.248C172.236 392.593 192.013 365.521 214.465 343.942C210.762 342.44 207.018 340.931 203.573 339.397C192.214 334.34 185.179 330.444 182.224 326.602C180.663 324.572 179.728 322.219 178.99 319.16C178.509 317.166 177.157 309.335 177.144 309.269C176.351 305.109 175.441 301.678 174.115 298.283C172.071 293.048 169.128 288.225 164.926 283.58C163.545 282.053 162.929 279.981 163.263 277.95C163.406 277.083 163.688 275.587 164.147 273.591C166.324 264.121 169.843 254.17 174.822 244.925C174.781 244.758 174.756 244.713 174.713 244.535C174.167 242.277 173.655 239.92 173.227 237.542C172.897 235.712 172.653 233.948 172.457 232.262C171.756 226.23 171.911 221.628 173.693 218.075C174.117 217.23 174.734 216.5 175.465 215.899C175.575 215.81 177.1 214.577 177.747 214.067C179.585 212.618 181.749 210.955 184.215 209.096C191.238 203.802 199.335 197.991 208.398 191.861C234.273 174.358 262.727 157.696 292.965 143.323C345.428 118.385 397.589 102.983 447.65 100.374C447.917 100.36 448.175 100.377 448.442 100.395C449.069 100.437 450.182 100.546 451.737 100.726C454.268 101.019 457.185 101.416 460.415 101.977C468.733 103.421 477.477 105.495 486.511 108.267ZM482.578 121.192C474.089 118.587 465.878 116.659 458.095 115.308C455.121 114.792 452.475 114.396 450.193 114.131C449.407 114.04 448.731 113.967 448.162 113.915C448.115 113.911 448.115 113.92 448.073 113.916C400.07 116.464 349.653 131.343 298.763 155.533C269.184 169.593 241.293 185.901 215.949 203.044C207.084 209.04 199.186 214.715 192.342 219.874C189.955 221.674 187.875 223.267 186.113 224.656C185.983 224.758 185.851 224.872 185.671 225.015C185.643 225.278 185.601 225.487 185.588 225.817C185.539 227.123 185.643 228.787 185.865 230.7C186.027 232.089 186.24 233.578 186.522 235.145C186.899 237.241 187.355 239.357 187.842 241.374C188.012 242.078 188.492 243.83 188.52 243.931C189.006 245.682 188.749 247.553 187.838 249.125C182.857 257.725 179.434 267.491 177.332 276.633C177.279 276.863 177.243 277.021 177.195 277.239C181.327 282.331 184.459 287.664 186.688 293.373C188.353 297.637 189.467 301.802 190.403 306.712C190.493 307.187 191.762 314.515 192.119 315.999C192.453 317.381 192.764 318.13 192.947 318.368C193.24 318.749 195.092 320.077 197.92 321.641C200.848 323.261 204.647 325.098 209.086 327.074C213.442 329.014 218.166 330.96 222.924 332.843C224.591 333.502 229.189 335.259 229.261 335.286C234.053 337.067 235.192 343.333 231.35 346.706C206.86 368.21 185.414 396.647 166.862 430.708C152.345 457.358 140.004 486.678 129.681 517.635C121.702 541.563 115.407 565.003 110.619 586.866C109.062 593.974 107.787 600.392 106.768 606.003C106.558 607.16 106.366 608.372 106.121 609.817C161.256 674.564 225.411 717.179 295.9 740.897C351.247 759.521 407.256 765.552 460.978 762.311C479.286 761.207 495.988 759.064 510.743 756.318C515.839 755.369 520.31 754.398 524.15 753.484C526.232 693.705 534.196 640.572 547.349 591.472C557.543 553.419 568.963 522.957 586.789 482.11C588.38 478.464 593.824 466.049 593.551 466.671C596.125 460.799 597.96 456.526 599.664 452.501C603.901 442.493 606.923 434.714 609.194 427.724C622.183 387.749 628.591 358.825 629.297 326.696C630.229 284.236 619.649 244.003 594.563 204.922C588.294 195.155 581.334 186.163 573.774 177.928C554.994 157.472 532.905 142.098 508.711 131.103C499.841 127.073 491.066 123.797 482.578 121.192Z" fill="black"/>
<path d="M604.419 68.2227C606.308 68.56 608.205 69.1755 610.111 70.1018C612.152 71.0931 614.081 72.4222 615.881 74.0182C621.893 79.3469 629.39 93.2897 633.887 108.305C680.253 149.976 710.604 202.041 714.556 254.266C717.334 290.975 712.597 326.97 701.853 361.663C693.576 388.389 682.261 412.769 669.343 434.307C665.057 441.454 660.903 447.78 657.01 453.232C655.628 455.166 654.367 456.868 653.257 458.315C652.562 459.222 652.05 459.871 651.741 460.249C648.108 464.698 642.069 466.341 636.67 464.377L619.233 458.031C617.976 461.046 617.075 463.395 615.527 466.976C613.535 471.584 606.177 488.343 605.292 490.37C601.093 499.998 597.73 507.901 594.434 515.958C590.262 526.157 586.348 536.651 582.568 547.285C590.764 549.057 598.281 552.281 605.05 556.958C614.709 563.63 622.395 572.754 628.776 583.93C631.329 588.4 632.986 593.215 633.7 598.283C633.881 599.568 633.927 600.485 633.96 602.036C633.961 602.098 633.96 602.617 633.965 602.748C633.964 602.715 634.028 603.622 634.046 603.958C634.075 604.522 634.102 605.07 634.085 605.657C634.068 606.257 634.018 606.837 633.956 607.42C633.919 607.77 633.791 608.821 633.789 608.846C633.017 616.936 630.292 625.164 625.875 633.201C625.341 634.173 624.885 634.927 624.056 636.25C624.01 636.324 623.634 636.922 623.502 637.135C623.499 637.14 623.497 637.157 623.494 637.162C623.484 637.183 623.495 637.167 623.485 637.188C623.475 637.21 623.486 637.193 623.476 637.215C621.587 640.262 619.711 643.012 617.693 645.633C617.336 646.097 617.044 646.447 616.617 646.941C616.579 646.985 616.406 647.148 616.353 647.21C616.344 647.22 616.308 647.255 616.308 647.255C616.263 647.314 616.303 647.279 616.247 647.353C616.123 647.507 614.627 649.379 614.307 649.771C613.813 650.376 613.342 650.927 612.87 651.464C612.215 652.207 611.729 652.686 610.83 653.553C610.808 653.574 610.287 654.082 610.22 654.154C608.334 656.176 606.499 658.042 604.621 659.821C604.535 659.902 604.064 660.385 604.047 660.403C603.185 661.303 602.731 661.755 602.006 662.403C601.638 662.733 601.287 663.024 600.91 663.319C600.683 663.497 600.025 664.009 599.998 664.029C600.028 664.007 599.581 664.367 599.441 664.47C597.409 666.2 595.315 667.88 592.771 669.789C592.664 669.87 592.376 670.073 592.346 670.095C592.354 670.089 591.985 670.409 591.975 670.418C591.107 671.152 590.631 671.532 589.87 672.071C589.412 672.396 589.137 672.557 588.674 672.837C584.654 675.624 580.719 678.106 576.84 680.206C571.96 682.849 566.844 684.766 561.48 686.045C558.918 686.657 556.342 687.129 553.81 687.43C552.434 687.593 551.053 687.629 549.665 687.71C546.801 710.972 544.903 734.569 544.192 759.197C544.022 765.076 540.072 770.171 534.418 771.792C533.791 771.972 532.694 772.266 531.149 772.654C528.661 773.278 525.744 773.951 522.452 774.651C513.146 776.628 502.512 778.448 490.676 779.92C489.895 780.017 489.34 780.052 487.991 780.172C487.955 780.175 486.766 780.279 486.434 780.317C462.129 783.114 436.202 784.093 409.09 782.675C375.704 780.93 342.127 775.621 308.881 766.153C226.634 742.731 151.78 695.672 88.5827 620.54C86.0833 617.569 85.0023 613.669 85.5824 609.83C85.6391 609.455 85.746 608.795 85.9054 607.834C86.1644 606.272 86.4768 604.435 86.8518 602.372C87.916 596.518 89.2351 589.872 90.8481 582.513C94.4526 566.068 99.0679 548.529 104.479 530.544C84.319 495.676 79.7276 459.654 89.8589 431.106C89.9166 430.942 90.1543 430.259 90.2336 430.044C91.0237 427.913 91.8606 425.881 92.7857 423.92C93.0733 423.307 93.3798 422.694 93.741 421.981C94.7141 420.069 95.7098 418.306 96.7442 416.654C96.9891 416.262 97.1876 415.956 97.5095 415.483C97.5423 415.435 97.7073 415.175 97.747 415.116C99.3106 412.773 100.165 411.57 101.393 410.087C101.685 409.734 101.976 409.409 102.275 409.101C102.441 408.931 102.716 408.655 102.717 408.653C102.609 408.758 102.501 408.874 102.258 409.155C109.8 400.459 119.119 394.936 129.259 393.901C141.287 392.673 151.516 396.35 159.183 403.801C164.168 395.619 169.385 387.669 174.861 380.045C175.15 378.649 175.572 377.272 176.334 375.967L184.873 361.343C185.13 360.903 185.431 360.463 185.736 360.055L197.206 344.696C197.363 344.486 197.576 344.331 197.745 344.131C187.094 339.269 180.449 335.394 176.881 330.754C174.638 327.837 173.368 324.672 172.427 320.785C171.9 318.608 170.495 310.396 170.063 308.388C170.039 308.307 170.044 308.341 170.018 308.255C169.209 304.572 168.259 301.482 166.864 298.471C165.19 294.858 162.918 291.433 159.906 288.103C157.146 285.051 155.94 280.913 156.608 276.852C156.659 276.543 156.741 276.064 156.864 275.427C157.057 274.435 157.285 273.309 157.569 272.075C159.696 262.816 163.038 253.162 167.705 243.974C167.318 242.245 166.918 240.518 166.598 238.732C166.246 236.773 165.939 234.867 165.727 233.034C165.257 228.985 165.181 225.39 165.608 222.106C165.934 219.599 166.541 217.29 167.664 215.051C168.562 213.261 169.833 211.671 171.411 210.439C171.627 210.27 174.617 207.97 175.826 207.051C179.271 204.432 183.081 201.601 187.145 198.626C187.173 198.609 187.153 198.625 187.18 198.608C187.289 198.523 187.317 198.495 187.419 198.419C188.123 197.904 192.81 194.428 194.446 193.275C216.296 177.874 241.251 162.371 268.299 148.209C300.221 131.494 332.697 117.943 365.17 108.431C365.029 101.269 365.536 94.2107 366.745 87.372C368.029 80.1142 369.836 73.9346 371.714 69.0726C372.017 68.2899 372.265 67.6908 372.44 67.2962C372.65 66.8203 372.895 66.3508 373.159 65.9024C380.014 54.2355 386.551 44.8618 392.816 37.5508C401.894 26.9568 410.504 20.5823 418.876 17.9967C426.282 15.7095 432.916 16.5476 437.985 19.3824C438.838 19.8592 439.582 20.3491 440.203 20.8428C441.477 21.8549 442.564 23.0887 443.399 24.4851C446.703 30.0074 447.191 36.6802 446.385 46.2572C445.832 52.8374 444.56 60.8554 442.686 70.118C441.115 77.8852 439.149 86.1192 437.06 94.4472C440.488 94.1481 443.92 93.8332 447.288 93.6576C447.773 93.6324 448.281 93.6371 448.766 93.6642C449.103 93.6831 449.606 93.7155 450.297 93.7772C450.77 93.8195 451.394 93.8946 451.927 93.9517C452.2 92.0625 452.451 90.4533 452.561 89.5417C452.67 88.6418 452.762 87.9263 452.794 87.4574C452.804 87.3196 452.802 87.2377 452.802 87.2527C452.798 87.5623 452.814 87.9479 452.891 88.5246C452.353 84.5413 453.047 81.7103 455.993 71.601C456.74 69.0382 457.574 66.3101 458.416 63.5999C458.71 62.6532 459.519 60.0239 459.536 59.9693C460.355 57.4097 461.926 55.1668 464.035 53.5008L464.15 53.4199C465.086 51.9987 466.056 50.4612 466.764 49.6534C468.684 47.4645 471.261 45.9584 474.109 45.3526C474.294 45.3134 474.508 45.2748 474.678 45.2415C477.133 43.5 480.059 42.5627 483.078 42.7037L509.981 43.9589C511.295 44.0202 512.609 44.2764 513.849 44.7127L516.589 45.662C526.234 47.404 536.254 50.2353 546.536 54.0315C548.909 54.3186 551.007 55.16 552.785 56.4759C564.107 61.0634 575.565 66.765 586.946 73.5526C587.561 73.0106 588.072 72.4269 588.776 71.928C593.296 68.721 598.753 67.211 604.419 68.2227ZM604.206 82.2677C598.165 79.3327 594.102 85.4058 594.102 85.4058L591.95 92.6662C576.336 82.2549 560.308 73.757 544.611 67.6978L544.857 67.3044C544.857 67.3044 544.067 67.3554 543.834 67.3566C533.163 63.2882 522.691 60.315 512.673 58.6226L509.354 57.4552L482.45 56.2L480.07 58.0602C479.022 58.2352 477.94 58.3557 476.915 58.5736C476.915 58.5736 475.924 59.7033 474.539 62.0625C474.448 62.217 474.326 62.4783 474.232 62.6433L472.4 64.09C472.4 64.09 465.935 84.2952 466.262 86.7144C466.59 89.1337 464.222 102.497 463.381 109.243C463.376 109.285 463.379 109.404 463.374 109.448C458.718 108.534 454.855 107.907 452.235 107.575C449.502 107.228 447.996 107.144 447.996 107.144C438.267 107.651 428.586 108.691 418.979 110.114C424.075 91.7527 437.462 40.9018 431.793 31.4258C431.793 31.4258 416.297 19.1159 384.78 72.7557C384.78 72.7557 375.883 92.9079 379.369 118.46C302.701 138.768 235.602 180.791 202.219 204.323C199.268 206.403 197.795 207.562 195.387 209.323C195.3 209.386 195.234 209.449 195.148 209.512C195.137 209.52 195.123 209.522 195.112 209.53C185.983 216.213 179.724 221.1 179.724 221.1C179.355 221.835 179.119 222.771 178.98 223.847C178 231.378 181.985 245.743 181.985 245.743C172.789 261.618 169.921 279.047 169.921 279.047C174.124 283.695 177.031 288.348 179.094 292.799C181.155 297.248 182.361 301.478 183.211 305.351C183.214 305.363 183.227 305.375 183.229 305.387C184.922 313.113 185.144 319.347 187.578 322.512C190.016 325.683 199.842 330.443 209.063 334.434C216.898 337.821 222.172 339.773 224.211 340.54L223.367 340.68L208.009 352.793L196.539 368.151L188 382.776C188.369 382.948 188.706 383.12 189.045 383.293C180.075 395.358 171.873 408.07 164.476 421.115C162.571 424.474 160.877 427.89 159.071 431.284C156.412 420.607 149.407 405.421 130.634 407.337C124.11 408.003 117.799 411.849 112.462 418.003C112.247 418.252 112.003 418.446 111.791 418.703C110.796 419.905 109.895 421.244 108.981 422.613C108.71 423.021 108.435 423.407 108.172 423.83C107.33 425.174 106.54 426.598 105.784 428.084C105.516 428.612 105.251 429.146 104.995 429.692C104.237 431.298 103.537 432.968 102.888 434.718C102.779 435.014 102.671 435.32 102.566 435.619C94.4938 458.366 96.0816 492.362 118.999 528.841C104.31 576.187 98.9202 611.856 98.9202 611.856C234.241 772.731 404.689 776.134 484.873 766.909C486.175 766.759 487.746 766.66 488.999 766.504C515.154 763.252 530.679 758.801 530.679 758.801C531.575 727.8 534.163 699.755 537.76 673.9C538.585 673.994 539.398 674.136 540.236 674.201C544.146 674.506 548.163 674.493 552.222 674.012C554.251 673.772 556.284 673.401 558.319 672.916C562.388 671.946 566.446 670.465 570.405 668.321C574.122 666.309 577.784 663.984 581.353 661.492C581.585 661.33 581.83 661.206 582.061 661.042C582.828 660.499 583.508 659.834 584.264 659.272C584.393 659.176 584.524 659.081 584.653 658.984C586.909 657.292 589.11 655.572 591.243 653.728C591.269 653.706 591.297 653.687 591.323 653.665C591.861 653.201 592.466 652.817 592.995 652.344C593.82 651.606 594.517 650.779 595.318 650.022C597.067 648.365 598.723 646.674 600.343 644.938C601.105 644.123 601.989 643.373 602.719 642.543C603.705 641.423 604.591 640.275 605.514 639.131C605.577 639.053 605.645 638.977 605.708 638.899C605.726 638.876 605.742 638.85 605.761 638.827C606.152 638.339 606.59 637.877 606.969 637.385C608.809 634.995 610.449 632.553 611.969 630.103C611.973 630.095 611.973 630.084 611.977 630.076C611.982 630.068 611.981 630.057 611.986 630.049C612.679 628.931 613.407 627.813 614.025 626.688C617.554 620.266 619.73 613.8 620.323 607.577C620.396 606.814 620.543 606.043 620.564 605.288C620.583 604.598 620.485 603.924 620.46 603.242C620.422 602.219 620.444 601.174 620.303 600.173C619.832 596.835 618.766 593.637 617.044 590.622C607.471 573.855 591.804 557.728 564.069 559.324C569.894 541.587 575.964 525.413 581.918 510.856C593.358 482.895 604.25 460.264 611.628 441.001C611.638 440.974 611.643 440.948 611.654 440.921L641.264 451.696C641.264 451.696 709.61 367.998 701.081 255.303C697.073 202.341 663.781 152.363 621.947 115.729C621.795 115.145 621.683 114.506 621.524 113.934C617.048 97.8878 609.729 86.6183 606.916 84.1249C605.978 83.2938 605.069 82.6869 604.206 82.2677Z" fill="black"/>
<path d="M566.592 196.24L599.065 86.3871C599.065 86.3871 604.369 78.4486 611.871 85.0977C619.372 91.7468 658.866 160.817 591.259 216.394" fill="#AF93E5"/>
<path d="M569.721 193.241C569.721 193.241 588.628 127.573 602.236 137.709C615.843 147.845 600.524 191.041 586.74 200.948C572.957 210.855 571.626 209.515 569.721 193.241Z" fill="#ABACE3"/>
<path d="M561.652 195.253L594.125 85.3998C594.125 85.3998 599.43 77.4612 606.931 84.1103C614.433 90.7594 653.927 159.83 586.32 215.407" fill="#93E9CA"/>
<path d="M564.781 192.254C564.781 192.254 583.689 126.585 597.296 136.722C610.904 146.858 595.584 190.054 581.801 199.961C568.018 209.868 566.687 208.528 564.781 192.254Z" fill="#B7F2CC"/>
<path d="M561.652 195.253L594.125 85.3998C594.125 85.3998 599.43 77.4612 606.931 84.1103C614.433 90.7594 653.927 159.83 586.32 215.407" stroke="black" stroke-width="0.01875" stroke-miterlimit="10" stroke-linecap="round" stroke-linejoin="round"/>
<path d="M604.203 75.0775C606.634 75.6823 609.067 76.9715 611.406 79.0454C614.554 81.8349 618.911 88.7467 622.541 96.8665C627.143 107.16 630.394 118.721 631.529 130.767C634.605 163.402 622.276 194.597 590.615 220.624C587.734 222.993 583.463 222.572 581.095 219.691C578.726 216.809 579.138 212.565 582.019 210.197C610.14 187.08 620.728 160.299 618.065 132.044C617.075 121.538 614.247 111.366 610.222 102.362C608.626 98.7923 606.918 95.6005 605.274 93.0018C604.006 90.9975 602.869 89.5309 602.441 89.152C601.14 87.9986 601.124 88.024 600.505 88.4637C600.393 88.5433 600.287 88.6434 600.178 88.742L568.144 197.166C567.087 200.744 563.31 202.8 559.733 201.742C556.156 200.685 554.127 196.917 555.184 193.34L587.652 83.4886C587.845 82.8361 588.141 82.2057 588.519 81.6398C588.792 81.231 589.195 80.7088 589.727 80.1088C590.573 79.1535 591.557 78.2434 592.697 77.4342C596.146 74.9838 600.153 74.0695 604.203 75.0775Z" fill="black"/>
<path d="M391.729 464.062L251.033 415.309C251.033 415.309 216.484 405.641 174.527 463.732C132.571 521.824 147.75 623.128 200.904 659.84C254.058 696.553 299.502 709.882 345.924 707.5C392.347 705.118 434.829 664.112 442.794 651.546C450.759 638.98 477.17 587.154 469.428 551.222C461.685 515.291 430.806 480.735 391.729 464.062Z" fill="#F3886D" stroke="black" stroke-width="0.01875" stroke-miterlimit="10" stroke-linecap="round" stroke-linejoin="round"/>
<path d="M251.024 415.32L275.785 423.898L300.985 464.458L344.75 447.786L391.72 464.054C430.798 480.727 461.673 515.298 469.415 551.23C472.524 565.657 470.046 582.578 465.548 598.56L445.517 598.828L415.536 595.478C415.536 595.478 387.88 686.552 294.445 669.817C201.01 653.082 156.888 592.41 175.808 524.598L158.058 507.646C158.058 507.646 155.948 506.676 155.299 506.394C159.223 490.904 165.457 476.272 174.518 463.727C216.474 405.636 251.024 415.32 251.024 415.32Z" fill="#F9B192"/>
<path d="M435.743 524.033L384.854 504.933" stroke="black" stroke-width="0.01875" stroke-miterlimit="10" stroke-linecap="round" stroke-linejoin="round"/>
<path d="M239.554 458.301L206.572 448.522" stroke="black" stroke-width="0.01875" stroke-miterlimit="10" stroke-linecap="round" stroke-linejoin="round"/>
<path d="M296.701 596.761C296.701 596.761 269.594 572.773 264.611 565.369C264.611 565.369 252.158 569.898 247.318 569.005" stroke="black" stroke-width="0.01875" stroke-miterlimit="10" stroke-linecap="round" stroke-linejoin="round"/>
<path d="M253.243 408.916L393.931 457.676C394.079 457.728 394.233 457.789 394.377 457.851C435.432 475.368 467.806 511.666 476.024 549.803C479.801 567.329 476.608 588.796 468.392 612.362C462.638 628.865 454.474 645.753 448.506 655.168C443.028 663.809 428.603 677.768 412.639 688.875C391.277 703.739 368.556 713.101 346.282 714.244C296.64 716.791 249.739 701.786 197.068 665.406C140.15 626.094 125.36 520.257 169.049 459.766C180.346 444.124 191.823 432.259 203.35 423.774C215.495 414.835 227.145 410.031 237.879 408.481C241.765 407.92 245.289 407.821 248.396 408.081C249.534 408.176 250.539 408.31 251.433 408.476C252.04 408.589 252.528 408.729 252.86 408.821C252.991 408.858 253.114 408.871 253.243 408.916ZM249.203 421.807C249.215 421.81 249.152 421.79 249.149 421.789C249.14 421.788 249.134 421.793 248.98 421.764C248.522 421.679 247.955 421.621 247.27 421.563C245.165 421.387 242.659 421.448 239.805 421.86C231.286 423.09 221.72 427.029 211.353 434.66C201.002 442.279 190.508 453.129 180.002 467.675C140.637 522.178 154.211 619.39 204.735 654.286C255.071 689.052 299.08 703.144 345.574 700.758C364.995 699.761 385.475 691.333 404.937 677.791C419.534 667.635 432.686 654.896 437.096 647.939C442.51 639.397 450.219 623.446 455.632 607.92C463.105 586.486 465.969 567.253 462.821 552.644C455.579 519.036 426.318 486.228 389.194 470.34L249.203 421.807Z" fill="black"/>
<path d="M253.233 408.943L277.995 417.521C279.458 418.028 280.705 419.009 281.522 420.324L303.785 456.171L342.35 441.479C343.832 440.915 345.461 440.889 346.96 441.409L393.93 457.676C394.078 457.728 394.231 457.789 394.376 457.851C435.425 475.365 467.804 511.66 476.023 549.803C479.127 564.208 477.438 581.227 472.047 600.382C471.236 603.262 468.641 605.276 465.65 605.316L445.619 605.584C445.339 605.588 445.052 605.577 444.773 605.546L420.074 602.788C419.985 603.016 419.96 603.104 419.865 603.341C418.36 607.11 416.522 611.153 414.323 615.389C408.182 627.217 400.313 638.449 390.526 648.195C366.106 672.51 333.786 683.737 293.247 676.477C200.19 659.81 150.758 598.89 168.4 526.873L154.219 513.329C153.494 512.999 152.711 512.645 152.593 512.593C149.557 511.274 147.938 507.955 148.752 504.747C153.052 487.772 159.806 472.562 169.048 459.766C180.347 444.121 191.82 432.257 203.349 423.774C215.493 414.839 227.144 410.026 237.878 408.481C241.764 407.922 245.28 407.846 248.386 408.108C249.524 408.204 250.529 408.337 251.424 408.503C252.03 408.616 252.527 408.729 252.859 408.821C252.989 408.858 253.105 408.898 253.233 408.943ZM249.193 421.833C249.206 421.837 249.143 421.816 249.14 421.816C249.13 421.815 249.125 421.819 248.97 421.791C248.512 421.705 247.927 421.612 247.242 421.555C245.138 421.377 242.657 421.45 239.804 421.86C231.286 423.086 221.717 427.034 211.352 434.66C201 442.277 190.508 453.127 180.001 467.675C172.685 477.804 167.151 489.86 163.255 503.275L180.467 519.697C182.27 521.419 182.977 524.018 182.307 526.42C164.057 591.831 208.076 647.487 295.647 663.172C331.682 669.626 359.603 659.927 381.002 638.62C389.721 629.938 396.776 619.847 402.315 609.179C404.301 605.354 405.978 601.687 407.323 598.319C407.81 597.1 408.223 596.01 408.571 595.026C408.799 594.38 408.946 593.883 409.049 593.554C409.064 593.505 409.071 593.486 409.066 593.5C410.012 590.386 413.049 588.412 416.284 588.773L445.864 592.082L460.217 591.893C464 576.739 465.132 563.374 462.82 552.644C455.577 519.03 426.31 486.225 389.193 470.34L344.856 454.987L303.388 470.778C300.367 471.929 296.966 470.765 295.26 468.019L271.349 429.506L249.193 421.833Z" fill="black" fill-opacity="0.5"/>
<path d="M387.229 498.611L438.101 517.715C441.593 519.025 443.366 522.905 442.056 526.397C440.745 529.889 436.865 531.663 433.373 530.352L382.474 511.24C378.982 509.929 377.209 506.049 378.519 502.557C379.83 499.065 383.736 497.3 387.229 498.611Z" fill="black"/>
<path d="M241.465 451.812C245.041 452.872 247.101 456.646 246.04 460.223C244.98 463.799 241.215 465.832 237.638 464.772L204.654 455.002C201.078 453.941 199.044 450.176 200.105 446.599C201.165 443.023 204.904 440.982 208.48 442.042L241.465 451.812Z" fill="black"/>
<path d="M266.69 558.957C268.087 559.412 269.342 560.321 270.208 561.609C271.559 563.616 275.839 568.122 281.951 574.005C282.778 574.801 283.649 575.605 284.533 576.442C288.142 579.863 292.033 583.469 295.951 587.017C297.323 588.259 301.112 591.648 301.175 591.703C303.968 594.175 304.218 598.445 301.746 601.239C299.274 604.032 295.03 604.29 292.236 601.818C292.166 601.756 288.291 598.298 286.896 597.035C282.909 593.424 278.937 589.765 275.245 586.266C274.337 585.406 273.435 584.536 272.583 583.715C268.025 579.328 264.863 576.022 262.366 573.175C261.264 573.513 260.17 573.871 259.054 574.17C257.9 574.48 256.791 574.745 255.714 574.979C251.855 575.817 248.754 576.13 246.09 575.639C242.422 574.963 240.005 571.454 240.682 567.787C241.358 564.118 244.875 561.675 248.543 562.352C248.952 562.427 250.624 562.274 252.837 561.794C253.69 561.609 254.618 561.371 255.573 561.115C257.156 560.69 258.767 560.21 260.324 559.699C260.868 559.52 262.217 559.036 262.294 559.008C263.752 558.477 265.293 558.502 266.69 558.957Z" fill="black"/>
<path d="M253.243 408.916L393.931 457.676C394.079 457.728 394.233 457.789 394.377 457.851C435.432 475.368 467.806 511.666 476.024 549.803C479.801 567.329 476.608 588.796 468.392 612.362C462.638 628.865 454.474 645.753 448.506 655.168C443.028 663.809 428.603 677.768 412.639 688.875C391.277 703.739 368.556 713.101 346.282 714.244C296.64 716.791 249.739 701.786 197.068 665.406C140.15 626.094 125.36 520.257 169.049 459.766C180.346 444.124 191.823 432.259 203.35 423.774C215.495 414.835 227.145 410.031 237.879 408.481C241.765 407.92 245.289 407.821 248.396 408.081C249.534 408.176 250.539 408.31 251.433 408.476C252.04 408.589 252.528 408.729 252.86 408.821C252.991 408.858 253.114 408.871 253.243 408.916ZM249.203 421.807C249.215 421.81 249.152 421.79 249.149 421.789C249.14 421.788 249.134 421.793 248.98 421.764C248.522 421.679 247.955 421.621 247.27 421.563C245.165 421.387 242.659 421.448 239.805 421.86C231.286 423.09 221.72 427.029 211.353 434.66C201.002 442.279 190.508 453.129 180.002 467.675C140.637 522.178 154.211 619.39 204.735 654.286C255.071 689.052 299.08 703.144 345.574 700.758C364.995 699.761 385.475 691.333 404.937 677.791C419.534 667.635 432.686 654.896 437.096 647.939C442.51 639.397 450.219 623.446 455.632 607.92C463.105 586.486 465.969 567.253 462.821 552.644C455.579 519.036 426.318 486.228 389.194 470.34L249.203 421.807Z" fill="black"/>
<path d="M391.729 464.062L251.033 415.309C251.033 415.309 216.484 405.641 174.527 463.732C132.571 521.824 147.75 623.128 200.904 659.84C254.058 696.553 299.502 709.882 345.924 707.5C392.347 705.118 434.829 664.112 442.794 651.546C450.759 638.98 477.17 587.154 469.428 551.222C461.685 515.291 430.806 480.735 391.729 464.062Z" stroke="black" stroke-width="0.01875" stroke-miterlimit="10" stroke-linecap="round" stroke-linejoin="round"/>
<path d="M480.15 598.962C482.417 587.947 466.652 575.397 444.939 570.93C423.226 566.462 403.787 571.769 401.521 582.784C399.255 593.798 415.02 606.348 436.732 610.816C458.445 615.283 477.884 609.976 480.15 598.962Z" fill="#FF497F" stroke="black" stroke-width="0.01875" stroke-miterlimit="10" stroke-linecap="round" stroke-linejoin="round"/>
<path d="M455.327 566.691C475.565 573.21 489.635 586.413 486.775 600.315C483.506 616.202 460.27 622.558 435.377 617.436C410.484 612.314 391.645 597.303 394.914 581.415C398.182 565.528 421.41 559.199 446.303 564.321C449.414 564.961 452.436 565.76 455.327 566.691ZM450.537 579.338C448.306 578.64 445.967 578.041 443.573 577.549C433.997 575.578 424.711 575.662 417.703 577.576C411.816 579.183 408.64 581.72 408.141 584.145C407.642 586.571 409.556 590.167 414.33 593.968C420.014 598.493 428.504 602.229 438.08 604.2C447.656 606.17 456.941 606.086 463.95 604.172C469.837 602.565 473.039 600.037 473.538 597.612C474.038 595.186 472.097 591.581 467.323 587.781C463.06 584.387 457.232 581.431 450.537 579.338Z" fill="black"/>
<path d="M200.158 521.403C203.905 510.801 189.999 496.218 169.098 488.831C148.198 481.444 128.217 484.051 124.47 494.654C120.722 505.256 134.628 519.839 155.529 527.226C176.43 534.612 196.411 532.005 200.158 521.403Z" fill="#FF497F" stroke="black" stroke-width="0.01875" stroke-miterlimit="10" stroke-linecap="round" stroke-linejoin="round"/>
<path d="M171.348 482.469C195.31 490.937 211.925 508.371 206.52 523.664C201.115 538.957 177.25 542.06 153.288 533.591C129.326 525.122 112.711 507.689 118.116 492.395C123.521 477.102 147.386 474 171.348 482.469ZM166.853 495.211C157.635 491.954 148.418 490.764 141.214 491.704C135.163 492.493 131.648 494.574 130.823 496.909C129.998 499.244 131.435 503.056 135.647 507.471C140.66 512.729 148.565 517.59 157.783 520.848C167.001 524.106 176.192 525.287 183.396 524.347C189.446 523.558 192.961 521.477 193.786 519.142C194.611 516.807 193.201 513.004 188.989 508.588C183.976 503.33 176.071 498.47 166.853 495.211Z" fill="black"/>
<path d="M620.471 603.24C621.31 626.089 596.943 653.956 570.416 668.318C538.742 685.467 500.793 660.935 500.793 660.935L503.055 650.604C503.21 650.432 503.322 650.292 503.479 650.12C555.657 592.689 607.948 600.346 620.471 603.24Z" fill="#F9B192"/>
<path d="M527.482 627.406C527.482 627.406 549.805 605.859 585.428 601.882" stroke="black" stroke-width="0.01875" stroke-miterlimit="10" stroke-linecap="round" stroke-linejoin="round"/>
<path d="M496.084 683.559C496.084 683.559 517.452 568.594 528.854 542.22" stroke="black" stroke-width="0.01875" stroke-miterlimit="10" stroke-linecap="round" stroke-linejoin="round"/>
<path d="M548.424 615.433C548.424 615.433 559.448 620.858 563.005 628.349" stroke="black" stroke-width="0.01875" stroke-miterlimit="10" stroke-linecap="round" stroke-linejoin="round"/>
<path d="M500.793 660.947C500.793 660.947 538.741 685.458 570.415 668.309C602.089 651.16 630.821 614.738 617.051 590.621C603.281 566.504 576.994 543.566 520.151 573.063" stroke="black" stroke-width="0.01875" stroke-miterlimit="10" stroke-linecap="round" stroke-linejoin="round"/>
<path d="M586.856 555.306C602.364 560.404 613.929 571.505 622.928 587.266C630.893 601.215 627.824 618.538 616.417 635.808C606.465 650.876 590.587 665.067 573.627 674.249C563.614 679.671 552.562 681.73 540.866 681.004C527.651 680.182 514.842 676.002 503.433 670.172C501.733 669.304 500.211 668.463 498.884 667.688C498.061 667.208 497.478 666.839 497.132 666.616C493.998 664.592 493.079 660.42 495.103 657.287C497.127 654.154 501.325 653.243 504.459 655.267C504.637 655.382 505.05 655.648 505.693 656.023C506.808 656.674 508.12 657.396 509.589 658.147C519.488 663.204 530.598 666.852 541.689 667.541C550.991 668.119 559.549 666.502 567.191 662.364C582.243 654.215 596.442 641.523 605.138 628.356C614.024 614.903 616.191 602.707 611.196 593.958C603.714 580.854 594.553 572.055 582.655 568.144C567.591 563.192 548.138 566.158 523.272 579.061C519.961 580.779 515.873 579.468 514.155 576.157C512.437 572.846 513.738 568.785 517.049 567.067C544.897 552.617 567.969 549.097 586.856 555.306Z" fill="black"/>
<path d="M500.793 660.947C500.793 660.947 538.741 685.458 570.415 668.309C602.089 651.16 630.821 614.738 617.051 590.621C603.281 566.504 576.994 543.566 520.151 573.063" fill="#F3886D"/>
<path d="M500.793 660.947C500.793 660.947 538.741 685.458 570.415 668.309C602.089 651.16 630.821 614.738 617.051 590.621C603.281 566.504 576.994 543.566 520.151 573.063" stroke="black" stroke-width="0.01875" stroke-miterlimit="10" stroke-linecap="round" stroke-linejoin="round"/>
<path d="M620.471 603.24C621.31 626.089 596.943 653.956 570.416 668.318C538.742 685.467 500.793 660.935 500.793 660.935L503.055 650.604C503.21 650.432 503.322 650.292 503.479 650.12C555.657 592.689 607.948 600.346 620.471 603.24Z" fill="#F9B192"/>
<path d="M587.348 595.412C589.871 596.162 591.833 598.362 592.143 601.142C592.557 604.849 589.882 608.169 586.175 608.583C576.512 609.662 567.3 612.199 558.624 615.876C551.21 619.018 544.596 622.813 538.889 626.892C536.908 628.308 535.193 629.654 533.749 630.874C533.256 631.289 532.855 631.639 532.511 631.951C532.323 632.121 532.206 632.226 532.175 632.256C529.491 634.847 525.206 634.763 522.616 632.08C520.025 629.396 520.1 625.137 522.783 622.547C523.216 622.13 523.964 621.453 525.029 620.554C526.744 619.106 528.752 617.54 531.036 615.908C537.513 611.279 545.001 606.98 553.377 603.43C563.212 599.262 573.66 596.395 584.676 595.165C585.603 595.062 586.507 595.162 587.348 595.412Z" fill="black"/>
<path d="M551.419 609.363C552.177 609.736 553.35 610.402 554.815 611.295C557.249 612.778 559.612 614.454 561.786 616.342C564.993 619.125 567.508 622.127 569.091 625.462C570.69 628.831 569.271 632.857 565.902 634.456C562.532 636.056 558.515 634.61 556.916 631.241C556.244 629.827 554.852 628.208 552.937 626.545C551.391 625.203 549.616 623.945 547.783 622.829C547.138 622.436 546.558 622.074 546.022 621.783C545.721 621.62 545.503 621.537 545.433 621.503C542.086 619.856 540.719 615.804 542.366 612.458C544.013 609.111 548.072 607.716 551.419 609.363Z" fill="black"/>
<path d="M586.856 555.306C602.364 560.404 613.929 571.505 622.928 587.266C630.893 601.215 627.824 618.538 616.417 635.808C606.465 650.876 590.587 665.067 573.627 674.249C563.614 679.671 552.562 681.73 540.866 681.004C527.651 680.182 514.842 676.002 503.433 670.172C501.733 669.304 500.211 668.463 498.884 667.688C498.061 667.208 497.478 666.839 497.132 666.616C493.998 664.592 493.079 660.42 495.103 657.287C497.127 654.154 501.325 653.243 504.459 655.267C504.637 655.382 505.05 655.648 505.693 656.023C506.808 656.674 508.12 657.396 509.589 658.147C519.488 663.204 530.598 666.852 541.689 667.541C550.991 668.119 559.549 666.502 567.191 662.364C582.243 654.215 596.442 641.523 605.138 628.356C614.024 614.903 616.191 602.707 611.196 593.958C603.714 580.854 594.553 572.055 582.655 568.144C567.591 563.192 548.138 566.158 523.272 579.061C519.961 580.779 515.873 579.468 514.155 576.157C512.437 572.846 513.738 568.785 517.049 567.067C544.897 552.617 567.969 549.097 586.856 555.306Z" fill="black"/>
<path d="M531.542 536.032C534.966 537.513 536.534 541.473 535.054 544.896C530.926 554.444 524.842 577.918 517.709 610.572C516.216 617.408 514.709 624.526 513.181 631.885C510.571 644.446 508.067 657.066 505.73 669.115C504.912 673.331 502.742 684.756 502.734 684.8C502.052 688.468 498.522 690.882 494.854 690.2C491.187 689.518 488.773 685.988 489.455 682.32C489.464 682.27 491.628 670.783 492.45 666.546C494.798 654.442 497.331 641.779 499.953 629.156C501.491 621.753 503.03 614.565 504.534 607.682C511.882 574.043 518.034 550.215 522.652 539.534C524.132 536.11 528.119 534.552 531.542 536.032Z" fill="black"/>
<path d="M391.577 464.494L250.882 415.741C250.882 415.741 216.333 406.073 174.376 464.164C132.42 522.255 147.599 623.56 200.753 660.272C253.907 696.985 299.351 710.314 345.773 707.932C392.195 705.549 434.678 664.544 442.643 651.978C450.608 639.411 477.02 587.586 469.277 551.654C461.534 515.722 430.655 481.167 391.577 464.494Z" fill="#F3886D" stroke="black" stroke-width="0.01875" stroke-miterlimit="10" stroke-linecap="round" stroke-linejoin="round"/>
<path d="M250.875 415.752L275.636 424.33L300.835 464.889L344.601 448.218L391.571 464.485C430.649 481.158 461.524 515.73 469.266 551.662C472.375 566.089 469.897 583.01 465.398 598.992L445.368 599.259L415.387 595.909C415.387 595.909 387.731 686.984 294.296 670.249C200.861 653.514 156.739 592.842 175.659 525.03L157.909 508.078C157.909 508.078 155.799 507.108 155.15 506.826C159.074 491.336 165.308 476.704 174.369 464.158C216.325 406.067 250.875 415.752 250.875 415.752Z" fill="#F9B192"/>
<path d="M253.093 409.348L393.781 458.108C393.929 458.159 394.083 458.221 394.227 458.283C435.282 475.799 467.656 512.097 475.874 550.235C479.651 567.761 476.457 589.228 468.242 612.793C462.488 629.297 454.324 646.185 448.356 655.599C442.878 664.241 428.453 678.2 412.489 689.307C391.126 704.171 368.406 713.533 346.132 714.676C296.49 717.223 249.589 702.217 196.918 665.838C140 626.526 125.21 520.689 168.899 460.198C180.196 444.556 191.673 432.691 203.2 424.206C215.345 415.267 226.994 410.463 237.729 408.913C241.615 408.352 245.139 408.252 248.245 408.513C249.384 408.608 250.389 408.742 251.283 408.908C251.89 409.02 252.378 409.16 252.71 409.253C252.841 409.29 252.964 409.303 253.093 409.348ZM249.053 422.238C249.065 422.242 249.002 422.221 248.999 422.221C248.99 422.22 248.984 422.224 248.83 422.196C248.372 422.111 247.805 422.052 247.12 421.995C245.015 421.818 242.509 421.88 239.655 422.292C231.135 423.522 221.57 427.461 211.203 435.092C200.852 442.711 190.357 453.561 179.852 468.106C140.487 522.61 154.061 619.821 204.585 654.718C254.921 689.484 298.93 703.576 345.424 701.189C364.845 700.193 385.325 691.765 404.787 678.223C419.383 668.067 432.536 655.328 436.946 648.371C442.36 639.829 450.069 623.877 455.482 608.352C462.954 586.918 465.819 567.685 462.671 553.076C455.429 519.468 426.168 486.66 389.044 470.772L249.053 422.238Z" fill="black"/>
<path d="M253.083 409.376L277.844 417.954C279.308 418.461 280.555 419.441 281.372 420.757L303.635 456.604L342.2 441.912C343.682 441.347 345.311 441.322 346.809 441.841L393.78 458.109C393.928 458.16 394.081 458.222 394.226 458.284C435.275 475.798 467.654 512.093 475.873 550.236C478.977 564.641 477.288 581.66 471.897 600.815C471.086 603.695 468.491 605.709 465.5 605.749L445.469 606.017C445.188 606.021 444.902 606.01 444.623 605.979L419.924 603.221C419.835 603.449 419.81 603.536 419.715 603.774C418.21 607.543 416.372 611.586 414.173 615.821C408.031 627.65 400.163 638.882 390.376 648.627C365.956 672.943 333.636 684.17 293.097 676.91C200.04 660.242 150.608 599.323 168.25 527.306L154.069 513.761C153.344 513.432 152.561 513.078 152.443 513.026C149.407 511.707 147.788 508.388 148.601 505.179C152.902 488.204 159.656 472.995 168.898 460.199C180.197 444.554 191.67 432.69 203.199 424.207C215.343 415.272 226.994 410.459 237.728 408.914C241.614 408.355 245.13 408.279 248.236 408.54C249.374 408.636 250.379 408.769 251.273 408.936C251.88 409.048 252.377 409.161 252.709 409.254C252.839 409.291 252.955 409.331 253.083 409.376ZM249.043 422.266C249.056 422.27 248.993 422.249 248.989 422.249C248.98 422.248 248.974 422.252 248.82 422.223C248.362 422.138 247.777 422.045 247.092 421.987C244.988 421.81 242.507 421.882 239.654 422.293C231.136 423.519 221.567 427.466 211.202 435.093C200.85 442.709 190.358 453.559 179.851 468.107C172.535 478.237 167.001 490.293 163.105 503.708L180.317 520.13C182.12 521.852 182.827 524.451 182.157 526.853C163.907 592.263 207.926 647.92 295.497 663.604C331.532 670.059 359.453 660.36 380.852 639.053C389.571 630.371 396.626 620.28 402.165 609.612C404.151 605.787 405.828 602.12 407.173 598.752C407.66 597.533 408.073 596.443 408.421 595.459C408.649 594.813 408.796 594.316 408.899 593.987C408.914 593.938 408.921 593.919 408.916 593.933C409.862 590.819 412.899 588.845 416.133 589.206L445.714 592.515L460.067 592.325C463.85 577.172 464.982 563.807 462.67 553.077C455.427 519.463 426.16 486.658 389.043 470.773L344.706 455.42L303.238 471.211C300.217 472.362 296.816 471.198 295.11 468.452L271.199 429.938L249.043 422.266Z" fill="black" fill-opacity="0.5"/>
<path d="M253.093 409.348L393.781 458.108C393.929 458.159 394.083 458.221 394.227 458.283C435.282 475.799 467.656 512.097 475.874 550.235C479.651 567.761 476.457 589.228 468.242 612.793C462.488 629.297 454.324 646.185 448.356 655.599C442.878 664.241 428.453 678.2 412.489 689.307C391.126 704.171 368.406 713.533 346.132 714.676C296.49 717.223 249.589 702.217 196.918 665.838C140 626.526 125.21 520.689 168.899 460.198C180.196 444.556 191.673 432.691 203.2 424.206C215.345 415.267 226.994 410.463 237.729 408.913C241.615 408.352 245.139 408.252 248.245 408.513C249.384 408.608 250.389 408.742 251.283 408.908C251.89 409.02 252.378 409.16 252.71 409.253C252.841 409.29 252.964 409.303 253.093 409.348ZM249.053 422.238C249.065 422.242 249.002 422.221 248.999 422.221C248.99 422.22 248.984 422.224 248.83 422.196C248.372 422.111 247.805 422.052 247.12 421.995C245.015 421.818 242.509 421.88 239.655 422.292C231.135 423.522 221.57 427.461 211.203 435.092C200.852 442.711 190.357 453.561 179.852 468.106C140.487 522.61 154.061 619.821 204.585 654.718C254.921 689.484 298.93 703.576 345.424 701.189C364.845 700.193 385.325 691.765 404.787 678.223C419.383 668.067 432.536 655.328 436.946 648.371C442.36 639.829 450.069 623.877 455.482 608.352C462.954 586.918 465.819 567.685 462.671 553.076C455.429 519.468 426.168 486.66 389.044 470.772L249.053 422.238Z" fill="black"/>
<path d="M391.577 464.494L250.882 415.741C250.882 415.741 216.333 406.073 174.376 464.164C132.42 522.255 147.599 623.56 200.753 660.272C253.907 696.985 299.351 710.314 345.773 707.932C392.195 705.549 434.678 664.544 442.643 651.978C450.608 639.411 477.019 587.586 469.277 551.654C461.534 515.722 430.655 481.167 391.577 464.494Z" stroke="black" stroke-width="0.01875" stroke-miterlimit="10" stroke-linecap="round" stroke-linejoin="round"/>
<path d="M480 599.393C482.267 588.379 466.502 575.829 444.789 571.361C423.076 566.894 403.637 572.201 401.371 583.216C399.105 594.23 414.869 606.78 436.582 611.248C458.295 615.715 477.734 610.408 480 599.393Z" fill="#FF497F" stroke="black" stroke-width="0.01875" stroke-miterlimit="10" stroke-linecap="round" stroke-linejoin="round"/>
<path d="M455.178 567.123C475.416 573.642 489.486 586.845 486.626 600.746C483.357 616.634 460.121 622.989 435.228 617.868C410.335 612.746 391.496 597.734 394.764 581.847C398.033 565.96 421.26 559.631 446.154 564.753C449.265 565.393 452.287 566.191 455.178 567.123ZM450.388 579.77C448.156 579.072 445.818 578.473 443.424 577.98C433.848 576.01 424.562 576.094 417.553 578.008C411.667 579.615 408.491 582.151 407.992 584.577C407.493 587.002 409.406 590.599 414.18 594.399C419.865 598.924 428.355 602.661 437.931 604.631C447.507 606.602 456.792 606.518 463.801 604.604C469.688 602.997 472.89 600.469 473.389 598.044C473.888 595.618 471.948 592.013 467.174 588.212C462.911 584.819 457.083 581.863 450.388 579.77Z" fill="black"/>
<path d="M200.006 521.836C203.753 511.233 189.847 496.651 168.946 489.264C148.045 481.877 128.064 484.484 124.317 495.086C120.57 505.689 134.476 520.271 155.377 527.657C176.278 535.044 196.259 532.438 200.006 521.836Z" fill="#FF497F" stroke="black" stroke-width="0.01875" stroke-miterlimit="10" stroke-linecap="round" stroke-linejoin="round"/>
<path d="M171.197 482.901C195.159 491.369 211.774 508.803 206.369 524.096C200.964 539.389 177.099 542.491 153.137 534.023C129.174 525.554 112.56 508.12 117.965 492.827C123.37 477.534 147.235 474.432 171.197 482.901ZM166.702 495.643C157.484 492.385 148.267 491.196 141.063 492.136C135.012 492.925 131.497 495.006 130.672 497.341C129.847 499.675 131.284 503.487 135.495 507.903C140.509 513.161 148.414 518.022 157.632 521.28C166.85 524.538 176.04 525.719 183.244 524.779C189.295 523.99 192.81 521.909 193.635 519.574C194.46 517.239 193.05 513.436 188.838 509.02C183.824 503.762 175.92 498.901 166.702 495.643Z" fill="black"/>
<path d="M390.497 495.867C396.42 497.791 399.993 503.98 398.053 509.951C396.113 515.922 389.576 518.855 383.653 516.931C377.73 515.006 374.166 508.791 376.106 502.82C378.046 496.849 384.574 493.943 390.497 495.867ZM387.827 504.084C386.93 503.792 385.671 504.345 385.206 505.777C384.741 507.209 385.426 508.422 386.323 508.714C387.22 509.005 388.488 508.426 388.953 506.994C389.418 505.562 388.724 504.375 387.827 504.084Z" fill="black"/>
<path d="M235.664 445.559C241.337 447.402 244.059 453.6 242.246 459.179C240.434 464.757 234.588 468.172 228.916 466.328C223.244 464.485 220.522 458.288 222.334 452.709C224.146 447.13 229.992 443.716 235.664 445.559ZM233.09 453.481C231.308 452.902 229.79 453.803 229.4 455.005C229.009 456.206 229.709 457.827 231.49 458.406C233.272 458.985 234.79 458.085 235.181 456.883C235.571 455.681 234.872 454.06 233.09 453.481Z" fill="black"/>
<path d="M354.451 517.918C356.911 518.852 358.709 521.185 358.813 523.981C359.02 529.545 361.697 534.05 366.509 537.814C368.798 539.604 371.452 541.109 374.269 542.347C376.227 543.208 378 543.832 379.4 544.222C379.584 544.273 379.683 544.286 379.703 544.291C383.33 545.162 385.584 548.831 384.713 552.458C383.842 556.085 380.181 558.313 376.554 557.441C376.381 557.4 376.139 557.32 375.796 557.225C370.235 555.675 363.901 552.886 358.206 548.432C350.479 542.389 345.677 534.395 345.308 524.475C345.169 520.747 348.085 517.613 351.813 517.475C352.745 517.44 353.63 517.606 354.451 517.918Z" fill="black"/>
<path d="M239.936 473.668C241.645 473.922 243.26 474.823 244.37 476.322C246.591 479.319 245.979 483.563 242.982 485.783C242.431 486.192 241.51 486.816 240.299 487.575C238.313 488.82 236.149 490.006 233.874 491.05C225.789 494.758 218.183 495.888 211.485 492.564C209.937 491.795 208.504 490.797 207.218 489.579C204.51 487.014 204.384 482.731 206.949 480.023C209.515 477.315 213.789 477.216 216.497 479.782C216.805 480.074 217.143 480.286 217.49 480.459C219.618 481.515 223.521 480.92 228.254 478.749C229.955 477.969 231.609 477.084 233.129 476.131C233.657 475.8 234.125 475.472 234.528 475.195C234.75 475.042 234.901 474.948 234.944 474.916C236.442 473.806 238.226 473.413 239.936 473.668Z" fill="black"/>
<path d="M239.876 533.484C251.982 517.546 273.37 520.045 272.854 557.483C272.854 557.483 251.599 555.921 242.711 552.255C233.823 548.59 236.899 537.403 239.876 533.484Z" fill="#AC3A34" stroke="black" stroke-width="0.01875" stroke-miterlimit="10" stroke-linecap="round" stroke-linejoin="round"/>
<path d="M260.244 517.992C261.535 518.316 262.795 518.795 264.046 519.405C274.416 524.459 279.876 537.935 279.607 557.572C279.553 561.46 276.238 564.497 272.36 564.213C272.195 564.201 270.039 564.032 269.189 563.952C266.768 563.725 264.192 563.433 261.565 563.102C258.939 562.772 256.394 562.408 253.992 562.003C248.213 561.029 243.539 559.911 240.127 558.504C233.351 555.71 230.047 549.794 230.104 542.908C230.143 538.029 231.928 532.771 234.495 529.392C241.404 520.296 251.203 515.726 260.244 517.992ZM258.148 531.544C254.721 529.874 249.606 531.817 245.245 537.56C244.437 538.624 243.603 541.07 243.587 543.028C243.573 544.747 244 545.476 245.283 546.005C247.538 546.935 251.39 547.862 256.249 548.681C258.452 549.052 260.802 549.406 263.252 549.713C264.106 549.821 264.897 549.892 265.737 549.988C264.866 539.703 261.976 533.409 258.148 531.544Z" fill="black"/>
<path d="M237.205 457.515C238.078 454.827 236.586 451.933 233.872 451.051C231.158 450.17 228.249 451.634 227.376 454.321C226.503 457.009 227.995 459.903 230.709 460.785C233.423 461.667 236.331 460.203 237.205 457.515Z" fill="black"/>
<path d="M392.099 507.318C393.063 504.35 391.742 501.261 389.149 500.418C386.555 499.576 383.671 501.298 382.706 504.267C381.742 507.235 383.063 510.324 385.656 511.167C388.25 512.009 391.135 510.287 392.099 507.318Z" fill="black"/>
<path opacity="0.201073" d="M619.894 246.43C619.894 246.43 598.772 382.279 505.193 457.757C490.789 469.375 449.098 510.41 449.098 510.41C408.631 693.158 277.451 696.897 277.451 696.897C318.384 726.997 373.58 696.499 371.697 705.138C366.073 730.94 363.491 753.276 364.082 769.111L534.081 759.222L537.118 697.73L544.12 676.178L578.134 667.639L625.006 604.267C625.006 604.267 581.025 587.039 539.854 617.608L516.098 592.947L522.646 574.424L547.081 562.773L570.259 553.361L581.475 520.471L612.779 448.573L646.913 455.958C646.913 455.958 677.369 419.259 680.002 409.525C682.636 399.792 692.569 344.776 692.569 344.776L639.11 330.054L633.552 290.126L619.894 246.43Z" fill="black"/>
<path opacity="0.201073" d="M138.427 474.242L104.05 435.897L94.1094 473.062C94.1094 473.062 102.712 506.597 104.614 511.43C106.516 516.264 115.528 530.15 115.528 530.15C115.528 530.15 124.271 519.797 125.185 515.205C126.098 510.613 126.943 498.37 126.943 498.37L134.521 485.876L138.427 474.242Z" fill="black"/>
<path opacity="0.201073" d="M503.843 304.8C505.404 294.525 518.376 363.036 395.133 396.636C292.301 424.673 271.08 410.91 198.154 372.47L215.761 342.26L259.254 351.761L287.428 350.603L304.606 336.736L331.068 337.248L389.045 340.026L401.929 362.678L445.681 366.011L481.006 348.621C481.006 348.621 502.281 315.074 503.843 304.8Z" fill="black"/>
</svg>
