<svg width="800" height="800" viewBox="0 0 800 800" fill="none" xmlns="http://www.w3.org/2000/svg">
<path d="M234.506 331.076C234.506 331.076 231.475 293.626 211.413 280.479C191.351 267.331 130.356 338.455 184.71 427.227" fill="#F3886D"/>
<path d="M234.506 331.076C234.506 331.076 231.475 293.626 211.413 280.479C191.351 267.331 130.356 338.455 184.71 427.227" stroke="black" stroke-width="0.01875" stroke-miterlimit="10" stroke-linejoin="round"/>
<path d="M180.668 296.686C198.389 346.455 189.099 402.606 189.099 402.606L175.295 409.572C152.88 360.753 164.166 319.124 180.668 296.686Z" fill="#F9B192"/>
<path d="M521.079 90.1181C545.422 98.0273 558.747 124.18 550.838 148.522C547.204 159.706 539.529 168.653 529.736 174.214C532.069 181.515 534.739 189.07 538.251 197.368C546.489 216.835 559.078 231.881 581.721 252.001C583.557 253.633 593.493 262.279 594.03 262.747C612.794 279.077 622.305 288.377 631.241 300.492C643.205 316.714 650.083 334.136 651.576 354.384C653.801 384.569 644.577 408.852 627.266 427.473C633.266 460.508 632.407 494.423 624.384 527.409C633.321 526.423 641.833 527.492 650.281 530.852C664.113 536.352 672.859 548.485 677.19 564.51C680.432 576.504 681.105 590.551 679.589 603.845C676.355 632.22 640.45 661.127 600.697 669.615C585.673 672.823 570.311 672.417 555.085 669.293C547.673 667.773 541.109 665.628 534.927 663.306C472.474 710.329 390.806 725.014 314.822 700.325C190.241 659.846 120.981 527.696 157.614 402.613C144.889 367.328 146.551 332.764 159.869 304.604C172.607 277.671 194.969 259.684 214.052 266.433C215.822 267.059 217.446 267.883 218.993 268.896C225.21 272.971 230.144 278.584 234.246 285.244C236.109 283.681 238.039 282.235 239.943 280.733C234.233 230.876 274.789 186.675 329.688 179.195C379.011 172.474 420.845 164.583 439.826 156.778C445.39 154.49 452.861 149.782 461.528 143.353C459.952 135.648 460.167 127.598 462.676 119.876C470.585 95.5342 496.738 82.2091 521.079 90.1181ZM516.801 103.286C499.73 97.7395 481.391 107.083 475.844 124.155C473.126 132.519 474.024 141.172 477.613 148.49C466.514 157.317 454.6 165.663 445.076 169.58C420.273 179.779 364.079 188.482 331.563 192.912C282.992 199.531 244.483 240.073 254.885 286.565C245.96 293.089 237.503 300.301 229.569 308.107C226.19 297.757 220.668 286.555 211.409 280.487C210.782 280.077 210.128 279.736 209.426 279.488C189.815 272.552 142.733 328.242 172.117 402.236C134.757 521.299 200.144 648.506 319.1 687.157C395.167 711.873 474.767 694.36 532.707 647.642C541.95 651.803 568.886 662.251 597.817 656.074C633.187 648.521 663.455 623.176 665.837 602.276C668.219 581.377 665.028 551.617 645.155 543.715C632.371 538.631 619.474 540.572 603.708 548.061C604.576 545.661 605.466 543.288 606.26 540.842C619.101 501.323 620.489 460.837 612.378 422.931C627.027 409.455 640.196 388.166 637.78 355.405C632.625 285.48 553.723 269.458 525.494 202.751C519.349 188.229 515.452 176.246 512.792 165.986C524.055 163.833 533.876 155.92 537.67 144.243C543.216 127.172 533.872 108.833 516.801 103.286Z" fill="black"/>
<path d="M211.675 273.117C212.884 273.544 214.024 274.112 215.114 274.826C224.845 281.203 231.463 292.084 236.025 306.091C236.818 308.526 236.167 311.205 234.342 313.001C209.187 337.756 190.275 368.026 179.21 402.084C179.149 402.27 179.088 402.469 178.958 402.95C178.957 402.954 178.707 403.89 178.577 404.305C176.674 410.373 168.203 410.667 165.854 404.758C151.91 369.672 153.203 335.301 166.283 307.635C177.658 283.573 197.068 267.951 211.675 273.117ZM207.179 285.859C204.935 285.065 200.552 286.473 195.432 290.594C189.199 295.611 183.118 303.621 178.492 313.407C169.301 332.849 166.89 356.271 172.651 381.016C184.147 353.12 200.826 327.993 221.78 306.582C218.215 297.155 213.58 289.998 207.707 286.149C207.488 286.006 207.322 285.91 207.179 285.859Z" fill="black"/>
<path d="M606.259 540.829C645.153 421.126 579.644 292.558 459.941 253.664C340.238 214.77 211.67 280.279 172.776 399.982C133.883 519.685 199.391 648.253 319.094 687.146C438.797 726.04 567.365 660.532 606.259 540.829Z" fill="#F3886D" stroke="black" stroke-width="0.01875" stroke-miterlimit="10" stroke-linecap="round" stroke-linejoin="round"/>
<path d="M164.147 436.782C164.306 435.729 164.439 434.672 164.613 433.619C165.066 430.862 165.62 428.096 166.178 425.34C166.387 424.311 166.572 423.285 166.796 422.256C167.365 419.633 168.001 417.021 168.667 414.401C168.953 413.278 169.219 412.162 169.523 411.04C170.519 407.358 171.593 403.666 172.785 399.997C180.264 376.98 191.053 355.945 204.463 337.292C211.13 336.436 217.926 336.788 224.648 338.643C233.052 340.961 241.303 345.453 248.913 352.208C270.55 371.413 281.131 403.815 278.383 434.811C311.618 417.152 362.641 422.35 407.694 451.468C466.356 489.382 492.557 553.325 466.188 594.279C440.53 634.13 374.592 637.399 317.008 602.62C327.471 627.637 330.701 649.976 323.97 662.789C320.359 669.665 311.897 675.909 300.885 680.292C239.523 654.455 194.596 604.151 174.044 544.657C174.488 535.112 175.36 526.089 176.746 518.49C171.343 511.36 166.62 502.2 162.635 491.979C160.901 473.841 161.367 455.33 164.147 436.782Z" fill="#F9B192"/>
<path d="M462.04 247.232C585.29 287.278 652.729 419.679 612.683 542.929C572.636 666.18 440.263 733.627 317.012 693.581C193.762 653.534 126.314 521.161 166.361 397.91C206.407 274.66 338.789 207.185 462.04 247.232ZM457.866 260.079C341.71 222.338 216.949 285.929 179.208 402.084C141.466 518.24 205.031 642.993 321.187 680.734C437.342 718.475 562.095 654.91 599.836 538.755C637.577 422.6 574.021 297.82 457.866 260.079Z" fill="black"/>
<path d="M462.04 247.232C585.29 287.278 652.729 419.679 612.683 542.929C572.636 666.18 440.263 733.627 317.012 693.581C193.762 653.534 126.314 521.161 166.361 397.91C206.407 274.66 338.789 207.185 462.04 247.232ZM457.866 260.079C341.71 222.338 216.949 285.929 179.208 402.084C141.466 518.24 205.031 642.993 321.187 680.734C437.342 718.475 562.095 654.91 599.836 538.755C637.577 422.6 574.021 297.82 457.866 260.079Z" fill="black"/>
<path d="M332.161 488.681C334.673 489.465 336.605 491.69 336.877 494.474C338.025 506.228 343.243 515.334 351.684 522.395C359.19 528.674 368.154 532.561 376.214 534.508C376.952 534.686 377.449 534.79 377.649 534.826C381.322 535.48 383.774 538.997 383.12 542.669C382.466 546.342 378.957 548.767 375.285 548.113C374.823 548.031 374.06 547.867 373.048 547.623C363.143 545.23 352.374 540.57 343.024 532.748C331.982 523.512 324.942 511.245 323.431 495.786C323.069 492.074 325.786 488.77 329.498 488.407C330.426 488.317 331.324 488.419 332.161 488.681Z" fill="black"/>
<path d="M226.851 415.464C228.564 415.691 230.205 416.565 231.338 418.046C233.605 421.008 233.028 425.249 230.066 427.516C229.861 427.672 229.54 427.921 229.093 428.235C228.386 428.73 227.58 429.259 226.684 429.82C224.144 431.41 221.325 432.914 218.334 434.208C211.926 436.98 205.487 438.438 199.167 438.011C190.924 437.455 183.65 433.695 178.068 426.451C175.791 423.496 176.331 419.24 179.286 416.964C182.241 414.687 186.488 415.254 188.764 418.209C194.542 425.706 202.736 426.248 212.98 421.816C215.303 420.812 217.518 419.625 219.513 418.376C220.205 417.943 220.809 417.525 221.328 417.161C221.502 417.039 221.862 416.799 221.86 416.801C223.341 415.667 225.138 415.236 226.851 415.464Z" fill="black"/>
<path d="M341.623 519.392C345.816 520.754 348.132 524.411 348.832 528.806C349.35 532.063 348.959 535.79 347.782 539.414C346.605 543.037 344.731 546.282 342.397 548.612C339.247 551.757 335.224 553.353 331.031 551.991C326.838 550.629 324.522 546.972 323.822 542.577C323.304 539.32 323.694 535.593 324.872 531.97C326.049 528.346 327.924 525.101 330.257 522.771C333.407 519.626 337.43 518.03 341.623 519.392Z" fill="black"/>
<path d="M202.174 426.207C209.18 428.483 211.129 436.621 208.735 443.991C206.34 451.361 199.971 456.826 192.965 454.55C185.959 452.274 183.992 444.1 186.386 436.73C188.781 429.36 195.169 423.93 202.174 426.207Z" fill="black"/>
<path d="M210.266 563.498C212.864 563.92 215.088 565.847 215.751 568.565C217.975 577.688 220.822 582.717 223.642 584.622C224.988 585.531 226.26 585.574 227.774 585.018C228.204 584.86 228.614 584.685 228.954 584.484C229.112 584.39 229.162 584.34 229.104 584.384C232.798 581.529 238.199 583.195 239.648 587.633C244.454 602.35 250.149 610.39 255.995 613.273C259.783 615.14 263.755 614.766 267.934 612.684C269.287 612.009 270.54 611.213 271.645 610.368C272.023 610.08 272.376 609.804 272.645 609.569C272.779 609.451 272.825 609.386 272.821 609.389C275.495 606.789 279.788 606.865 282.389 609.539C284.99 612.213 284.922 616.48 282.248 619.08C282.084 619.24 281.852 619.456 281.532 619.736C281.045 620.161 280.473 620.609 279.852 621.083C278.102 622.419 276.15 623.686 273.979 624.768C266.338 628.576 258.058 629.35 250.018 625.386C241.722 621.295 234.92 612.265 229.434 598.488C225.015 599.371 220.418 598.728 216.1 595.812C210.053 591.728 205.587 583.852 202.64 571.761C201.756 568.137 203.973 564.491 207.597 563.607C208.503 563.387 209.4 563.357 210.266 563.498Z" fill="black"/>
<path d="M308.739 540.897L313.904 562.647C314.765 566.274 312.523 569.914 308.896 570.776L308.883 570.779C305.256 571.642 301.617 569.399 300.756 565.772L295.592 544.022C294.731 540.395 296.973 536.756 300.6 535.894L300.613 535.891C304.24 535.029 307.878 537.27 308.739 540.897Z" fill="#FF0000" fill-opacity="0.5"/>
<path d="M275.12 509.019L287.858 564.247C288.696 567.881 286.43 571.509 282.797 572.351L282.77 572.357C279.137 573.199 275.513 570.936 274.676 567.302L261.944 512.047C261.106 508.413 263.374 504.79 267.008 503.954L267.022 503.951C270.656 503.116 274.282 505.385 275.12 509.019Z" fill="#FF0000" fill-opacity="0.5"/>
<path d="M249.507 497.234L260.583 549.646C261.354 553.29 259.023 556.866 255.378 557.632L255.365 557.635C251.72 558.402 248.141 556.069 247.37 552.425L236.288 500.04C235.517 496.396 237.845 492.815 241.489 492.042L241.516 492.036C245.159 491.263 248.737 493.59 249.507 497.234Z" fill="#FF0000" fill-opacity="0.5"/>
<path d="M224.269 535.699L215.583 491.85C214.859 488.195 217.235 484.647 220.89 483.924L220.903 483.922C224.558 483.199 228.108 485.576 228.832 489.231L237.518 533.081C238.242 536.736 235.866 540.283 232.211 541.006L232.198 541.009C228.543 541.731 224.993 539.354 224.269 535.699Z" fill="#FF0000" fill-opacity="0.5"/>
<path d="M203.535 491.483L203.549 491.48C207.211 490.809 210.726 493.234 211.4 496.897L214.457 513.53C215.13 517.192 212.707 520.705 209.044 521.376L209.031 521.379C205.368 522.05 201.853 519.625 201.18 515.962L198.122 499.329C197.449 495.667 199.873 492.154 203.535 491.483Z" fill="#FF0000" fill-opacity="0.5"/>
<path d="M226.441 332.124C236.024 334.769 245.165 339.849 253.396 347.156C273.722 365.197 285.304 394.281 285.486 424.337C321.233 410.973 369.485 418.728 411.371 445.799C472.821 485.516 500.59 553.32 471.867 597.93C446.381 637.513 385.779 643.96 329.264 616.811C335.414 637.069 336.058 654.323 329.966 665.922C325.543 674.342 315.922 681.579 303.371 686.575C301.724 687.23 299.905 687.203 298.271 686.515C236.388 660.459 189.278 609.495 167.644 546.869C167.364 546.06 167.273 545.191 167.313 544.335C167.735 535.281 168.551 527.243 169.693 520.164C164.743 513.108 160.25 504.47 156.335 494.431C156.109 493.85 155.972 493.257 155.912 492.636C154.114 473.823 154.613 454.758 157.456 435.793C157.456 435.793 157.856 433.129 157.956 432.523C158.357 430.084 158.779 427.915 159.574 423.994C159.635 423.691 160.066 421.392 160.19 420.821C160.729 418.337 161.36 415.785 162.131 412.752C162.207 412.454 162.829 409.889 162.995 409.275C164.09 405.227 165.199 401.489 166.362 397.911C173.948 374.563 184.946 352.852 198.969 333.348C200.061 331.828 201.737 330.828 203.593 330.589C211.333 329.595 219.017 330.077 226.441 332.124ZM222.855 345.163C218.111 343.853 213.197 343.559 208.206 343.894C195.868 361.594 186.029 381.096 179.209 402.085C178.12 405.435 177.091 408.963 176.051 412.807C175.913 413.313 175.286 415.726 175.203 416.052C174.468 418.941 173.902 421.382 173.401 423.693C173.304 424.142 172.854 426.338 172.783 426.688C172.021 430.451 171.636 432.488 171.269 434.718C171.191 435.191 170.876 437.489 170.829 437.8C170.829 437.8 167.802 472.43 169.333 490.398C173.177 500.073 177.477 508.274 182.126 514.41C183.269 515.919 183.734 517.842 183.394 519.704C182.184 526.344 181.338 534.519 180.87 543.592C201.123 601.191 244.25 648.144 300.873 672.862C309.345 669.083 315.528 664.317 317.975 659.659C323.334 649.456 320.872 629.343 310.78 605.213C308.26 599.187 314.924 593.459 320.515 596.836C375.534 630.066 437.257 626.743 460.509 590.629C484.519 553.339 459.9 493.258 404.017 457.139C361.816 429.864 313.188 423.981 281.561 440.786C276.828 443.302 271.178 439.562 271.651 434.223C274.29 404.456 263.871 374.517 244.431 357.262C237.713 351.3 230.404 347.245 222.855 345.163Z" fill="black" fill-opacity="0.5"/>
<path d="M375.056 631.255C379.219 622.677 370.036 608.769 354.545 600.19C339.054 591.611 323.122 591.611 318.959 600.189C314.796 608.767 323.979 622.676 339.47 631.254C354.96 639.833 370.893 639.834 375.056 631.255Z" fill="#FF497F" stroke="black" stroke-width="0.01875" stroke-miterlimit="10" stroke-linejoin="round"/>
<path d="M183.51 494.241C187.673 485.663 178.49 471.754 162.999 463.175C147.508 454.597 131.576 454.596 127.413 463.174C123.249 471.753 132.433 485.661 147.923 494.24C163.414 502.818 179.347 502.819 183.51 494.241Z" fill="#FF497F" stroke="black" stroke-width="0.01875" stroke-miterlimit="10" stroke-linejoin="round"/>
<path d="M343.938 588.585C348.515 589.814 353.224 591.733 357.829 594.282C376.054 604.375 387.324 621.448 381.137 634.197C374.751 647.356 354.617 647.372 336.199 637.173C317.975 627.08 306.713 609.98 312.9 597.231C317.69 587.362 330.207 584.899 343.938 588.585ZM341.459 601.953C338.267 601.012 335.222 600.526 332.513 600.526C328.222 600.526 325.765 601.633 325.039 603.128C324.224 604.808 324.847 608.007 327.483 612C330.677 616.838 336.115 621.663 342.74 625.331C349.326 628.979 356.097 630.929 361.515 630.929C365.806 630.929 368.272 629.796 368.998 628.3C369.813 626.621 369.182 623.447 366.546 619.455C363.351 614.617 357.895 609.757 351.271 606.088C347.977 604.264 344.65 602.895 341.459 601.953Z" fill="black"/>
<path d="M152.388 451.573C156.965 452.802 161.674 454.72 166.278 457.27C184.503 467.363 195.774 484.436 189.586 497.185C183.201 510.344 163.066 510.36 144.649 500.161C126.424 490.068 115.163 472.968 121.35 460.219C126.139 450.35 138.656 447.887 152.388 451.573ZM149.917 464.914C146.725 463.973 143.68 463.487 140.971 463.487C136.68 463.487 134.215 464.62 133.489 466.116C132.674 467.795 133.296 470.996 135.932 474.988C139.127 479.826 144.565 484.651 151.189 488.319C157.776 491.967 164.547 493.917 169.965 493.917C174.256 493.917 176.722 492.784 177.447 491.288C178.262 489.608 177.631 486.435 174.995 482.443C171.801 477.605 166.344 472.744 159.72 469.076C156.427 467.252 153.109 465.856 149.917 464.914Z" fill="black"/>
<path d="M606.28 540.876C645.174 421.173 579.666 292.605 459.963 253.711C340.26 214.817 211.692 280.326 172.798 400.029C133.904 519.732 199.413 648.3 319.116 687.194C438.818 726.088 567.387 660.579 606.28 540.876Z" fill="#F3886D" stroke="black" stroke-width="0.01875" stroke-miterlimit="10" stroke-linecap="round" stroke-linejoin="round"/>
<path d="M164.169 436.829C164.327 435.776 164.461 434.72 164.634 433.666C165.087 430.909 165.641 428.144 166.2 425.387C166.409 424.358 166.593 423.332 166.817 422.303C167.386 419.68 168.022 417.068 168.689 414.449C168.975 413.326 169.24 412.209 169.544 411.087C170.54 407.405 171.615 403.713 172.807 400.045C180.286 377.027 191.074 355.992 204.484 337.339C211.151 336.483 217.947 336.835 224.669 338.69C233.074 341.009 241.324 345.5 248.934 352.255C270.571 371.46 281.153 403.862 278.405 434.859C311.639 417.199 362.662 422.397 407.715 451.516C466.377 489.43 492.578 553.372 466.21 594.326C440.551 634.177 374.614 637.447 317.029 602.667C327.492 627.684 330.722 650.023 323.992 662.836C320.38 669.712 311.918 675.956 300.906 680.339C239.544 654.502 194.617 604.198 174.065 544.704C174.51 535.159 175.382 526.136 176.768 518.537C171.364 511.407 166.642 502.247 162.656 492.026C160.923 473.888 161.388 455.377 164.169 436.829Z" fill="#F9B192"/>
<path d="M462.063 247.279C585.314 287.326 652.753 419.726 612.706 542.976C572.66 666.227 440.286 733.675 317.036 693.628C193.785 653.581 126.338 521.208 166.384 397.958C206.431 274.707 338.813 207.233 462.063 247.279ZM457.889 260.126C341.734 222.385 216.972 285.976 179.231 402.132C141.49 518.287 205.055 643.04 321.21 680.781C437.365 718.522 562.118 654.958 599.859 538.802C637.6 422.647 574.044 297.867 457.889 260.126Z" fill="black"/>
<path d="M462.063 247.279C585.314 287.326 652.753 419.726 612.706 542.976C572.66 666.227 440.286 733.675 317.036 693.628C193.785 653.581 126.338 521.208 166.384 397.958C206.431 274.707 338.813 207.233 462.063 247.279ZM457.889 260.126C341.734 222.385 216.972 285.976 179.231 402.132C141.49 518.287 205.055 643.04 321.21 680.781C437.365 718.522 562.118 654.958 599.859 538.802C637.6 422.647 574.044 297.867 457.889 260.126Z" fill="black"/>
<path d="M308.762 540.943L313.926 562.693C314.787 566.32 312.545 569.959 308.918 570.821L308.905 570.825C305.278 571.687 301.64 569.445 300.779 565.818L295.614 544.068C294.753 540.441 296.995 536.802 300.622 535.939L300.635 535.936C304.262 535.074 307.9 537.315 308.762 540.943Z" fill="#FF0000" fill-opacity="0.5"/>
<path d="M275.141 509.066L287.879 564.295C288.717 567.928 286.451 571.557 282.818 572.398L282.791 572.405C279.158 573.247 275.534 570.983 274.697 567.349L261.965 512.094C261.128 508.46 263.395 504.837 267.03 504.002L267.043 503.999C270.677 503.163 274.303 505.432 275.141 509.066Z" fill="#FF0000" fill-opacity="0.5"/>
<path d="M249.53 497.281L260.606 549.693C261.376 553.337 259.046 556.913 255.401 557.679L255.387 557.682C251.743 558.449 248.163 556.116 247.392 552.472L236.31 500.087C235.539 496.443 237.868 492.862 241.511 492.089L241.538 492.083C245.182 491.31 248.76 493.637 249.53 497.281Z" fill="#FF0000" fill-opacity="0.5"/>
<path d="M224.291 535.747L215.604 491.897C214.88 488.243 217.256 484.694 220.911 483.972L220.924 483.969C224.579 483.247 228.129 485.624 228.853 489.278L237.54 533.128C238.264 536.782 235.888 540.331 232.233 541.053L232.22 541.056C228.565 541.778 225.015 539.401 224.291 535.747Z" fill="#FF0000" fill-opacity="0.5"/>
<path d="M203.557 491.53L203.57 491.528C207.233 490.857 210.748 493.281 211.421 496.944L214.478 513.577C215.152 517.24 212.728 520.753 209.065 521.424L209.052 521.426C205.389 522.097 201.874 519.672 201.201 516.01L198.144 499.376C197.47 495.714 199.894 492.201 203.557 491.53Z" fill="#FF0000" fill-opacity="0.5"/>
<path d="M226.463 332.171C236.046 334.815 245.187 339.895 253.418 347.202C273.744 365.243 285.326 394.327 285.508 424.383C321.255 411.019 369.508 418.774 411.393 445.845C472.844 485.562 500.612 553.366 471.89 597.976C446.403 637.56 385.802 644.006 329.286 616.857C335.436 637.116 336.081 654.369 329.988 665.968C325.565 674.389 315.945 681.625 303.393 686.621C301.746 687.276 299.927 687.249 298.293 686.562C236.411 660.505 189.3 609.542 167.666 546.916C167.387 546.106 167.296 545.237 167.336 544.382C167.757 535.328 168.574 527.289 169.715 520.211C164.765 513.155 160.272 504.517 156.357 494.477C156.131 493.896 155.994 493.303 155.934 492.682C154.136 473.87 154.635 454.804 157.479 435.839C157.479 435.839 157.879 433.176 157.979 432.569C158.38 430.13 158.802 427.961 159.596 424.04C159.658 423.737 160.089 421.439 160.213 420.867C160.752 418.384 161.382 415.831 162.154 412.798C162.23 412.5 162.851 409.935 163.017 409.321C164.113 405.273 165.222 401.535 166.384 397.958C173.971 374.609 184.969 352.899 198.991 333.394C200.084 331.874 201.759 330.874 203.616 330.635C211.356 329.642 219.039 330.123 226.463 332.171ZM222.878 345.209C218.133 343.9 213.219 343.606 208.229 343.941C195.891 361.64 186.051 381.143 179.231 402.132C178.143 405.482 177.113 409.01 176.073 412.853C175.936 413.359 175.309 415.772 175.226 416.099C174.491 418.988 173.925 421.428 173.424 423.739C173.326 424.188 172.877 426.384 172.805 426.734C172.043 430.497 171.658 432.534 171.291 434.764C171.213 435.237 170.899 437.536 170.852 437.847C170.852 437.847 167.825 472.477 169.356 490.445C173.199 500.119 177.499 508.32 182.148 514.456C183.292 515.965 183.757 517.888 183.417 519.751C182.206 526.39 181.361 534.565 180.893 543.638C201.146 601.237 244.272 648.19 300.895 672.908C309.367 669.129 315.551 664.363 317.997 659.705C323.357 649.502 320.894 629.389 310.803 605.259C308.282 599.233 314.946 593.505 320.537 596.882C375.556 630.112 437.28 626.789 460.532 590.676C484.542 553.385 459.923 493.304 404.039 457.186C361.838 429.911 313.211 424.027 281.584 440.833C276.85 443.348 271.2 439.608 271.673 434.269C274.312 404.503 263.893 374.563 244.453 357.309C237.735 351.346 230.426 347.292 222.878 345.209Z" fill="black" fill-opacity="0.5"/>
<path d="M375.079 631.303C379.242 622.725 370.059 608.816 354.568 600.237C339.077 591.659 323.144 591.658 318.981 600.236C314.818 608.815 324.001 622.723 339.492 631.302C354.983 639.88 370.916 639.881 375.079 631.303Z" fill="#FF497F" stroke="black" stroke-width="0.01875" stroke-miterlimit="10" stroke-linejoin="round"/>
<path d="M183.534 494.288C187.697 485.71 178.514 471.801 163.023 463.223C147.532 454.644 131.599 454.643 127.436 463.222C123.273 471.8 132.456 485.708 147.947 494.287C163.438 502.866 179.371 502.866 183.534 494.288Z" fill="#FF497F" stroke="black" stroke-width="0.01875" stroke-miterlimit="10" stroke-linejoin="round"/>
<path d="M343.959 588.633C348.536 589.861 353.246 591.78 357.85 594.33C376.075 604.422 387.346 621.495 381.158 634.245C374.772 647.403 354.638 647.419 336.221 637.22C317.996 627.127 306.734 610.028 312.922 597.278C317.711 587.409 330.228 584.947 343.959 588.633ZM341.48 602.001C338.288 601.059 335.243 600.573 332.534 600.573C328.243 600.573 325.787 601.68 325.061 603.175C324.246 604.855 324.868 608.055 327.504 612.047C330.699 616.886 336.137 621.711 342.761 625.379C349.348 629.026 356.119 630.976 361.537 630.976C365.828 630.976 368.293 629.843 369.019 628.348C369.834 626.668 369.203 623.495 366.567 619.502C363.373 614.664 357.916 609.804 351.292 606.136C347.999 604.312 344.672 602.942 341.48 602.001Z" fill="black"/>
<path d="M152.409 451.62C156.986 452.849 161.695 454.768 166.3 457.317C184.525 467.41 195.795 484.483 189.608 497.232C183.222 510.391 163.088 510.407 144.67 500.208C126.446 490.115 115.184 473.015 121.371 460.266C126.161 450.397 138.678 447.934 152.409 451.62ZM149.938 464.962C146.747 464.02 143.702 463.535 140.992 463.534C136.701 463.534 134.236 464.667 133.51 466.163C132.695 467.843 133.318 471.043 135.954 475.035C139.148 479.873 144.587 484.698 151.211 488.366C157.797 492.014 164.568 493.964 169.986 493.964C174.277 493.964 176.743 492.831 177.469 491.335C178.284 489.656 177.652 486.483 175.017 482.49C171.822 477.652 166.366 472.791 159.742 469.123C156.448 467.3 153.13 465.903 149.938 464.962Z" fill="black"/>
<path d="M368.647 520.826C371.495 512.062 366.622 502.623 357.763 499.745C348.904 496.866 339.414 501.638 336.567 510.402C333.719 519.167 338.592 528.605 347.45 531.484C356.309 534.362 365.799 529.59 368.647 520.826Z" fill="white" stroke="black" stroke-width="0.01875" stroke-miterlimit="10" stroke-linejoin="round"/>
<path d="M228.577 433.999C231.425 425.234 226.552 415.796 217.694 412.917C208.835 410.039 199.345 414.811 196.497 423.575C193.649 432.34 198.522 441.778 207.381 444.656C216.24 447.535 225.73 442.763 228.577 433.999Z" fill="white" stroke="black" stroke-width="0.01875" stroke-miterlimit="10" stroke-linejoin="round"/>
<path d="M275.422 617.687C281.76 610.094 279.162 597.48 269.618 589.513C260.074 581.547 247.199 581.244 240.861 588.837C234.522 596.43 237.121 609.044 246.664 617.011C256.208 624.977 269.083 625.28 275.422 617.687Z" fill="#AC3A34" stroke="black" stroke-width="0.01875" stroke-miterlimit="10" stroke-linejoin="round"/>
<path d="M264.081 578.559C267.538 579.859 270.904 581.798 273.95 584.34C286.13 594.508 289.591 611.264 280.616 622.014C271.642 632.765 254.513 632.349 242.332 622.18C230.152 612.013 226.691 595.256 235.665 584.506C242.396 576.443 253.707 574.66 264.081 578.559ZM259.88 591.397C254.364 589.116 248.822 589.849 246.046 593.175C242.343 597.611 244.085 606.06 250.993 611.827C257.9 617.592 266.534 617.781 270.236 613.345C273.939 608.909 272.197 600.459 265.289 594.694C263.562 593.252 261.718 592.158 259.88 591.397Z" fill="black"/>
<path d="M359.859 493.333C372.25 497.359 379.076 510.596 375.07 522.924C371.065 535.251 357.763 541.948 345.371 537.922C332.98 533.896 326.127 520.65 330.133 508.323C334.139 495.995 347.467 489.307 359.859 493.333ZM355.685 506.18C350.358 504.449 344.67 507.295 342.98 512.497C341.29 517.698 344.219 523.345 349.545 525.075C354.872 526.806 360.533 523.951 362.223 518.75C363.914 513.548 361.011 507.911 355.685 506.18Z" fill="black"/>
<path d="M219.772 406.478C232.163 410.504 239.016 423.75 235.01 436.077C231.005 448.405 217.676 455.093 205.284 451.067C192.893 447.041 186.067 433.804 190.073 421.476C194.078 409.149 207.381 402.452 219.772 406.478ZM215.598 419.325C210.272 417.594 204.61 420.449 202.92 425.651C201.23 430.852 204.133 436.49 209.458 438.22C214.785 439.951 220.473 437.105 222.163 431.903C223.853 426.702 220.924 421.055 215.598 419.325Z" fill="black"/>
<path d="M528.438 645.694C528.438 645.694 562.446 663.616 597.816 656.064C633.187 648.511 663.446 623.175 665.828 602.276C668.21 581.377 665.024 551.628 645.151 543.726C625.278 535.823 605.248 544.709 574.346 565.416" fill="#F3886D"/>
<path d="M528.438 645.694C528.438 645.694 562.446 663.616 597.816 656.064C633.187 648.511 663.446 623.175 665.828 602.276C668.21 581.377 665.024 551.628 645.151 543.726C625.278 535.823 605.248 544.709 574.346 565.416" stroke="black" stroke-width="0.01875" stroke-miterlimit="10" stroke-linejoin="round"/>
<path d="M665.744 578.427C666.749 586.588 666.669 594.967 665.836 602.276C663.454 623.176 633.187 648.521 597.816 656.074C570.433 661.921 544.344 652.65 533.742 648.097C582.417 582.883 633.672 574.999 665.744 578.427Z" fill="#F9B192"/>
<path d="M634.734 575.512C637.052 576.758 638.506 579.312 638.246 582.097C637.899 585.811 634.593 588.543 630.879 588.196C630.888 588.197 630.759 588.186 630.469 588.181C629.88 588.172 629.168 588.193 628.316 588.251C625.749 588.426 622.728 588.913 619.322 589.797C609.296 592.399 598.247 597.807 586.523 606.865C585.184 607.9 583.824 608.986 582.481 610.109C579.618 612.501 575.388 612.109 572.996 609.246C570.605 606.384 570.978 602.119 573.841 599.726C575.316 598.494 576.779 597.3 578.254 596.16C591.424 585.985 604.148 579.774 615.938 576.713C620.167 575.616 624.004 575.015 627.395 574.784C628.628 574.7 629.723 574.655 630.687 574.67C631.329 574.68 631.805 574.726 632.138 574.757C633.067 574.844 633.961 575.096 634.734 575.512Z" fill="black"/>
<path d="M604.363 585.291C606.622 586.138 608.797 587.391 610.932 589.024C614.021 591.385 616.95 594.467 619.749 598.043C621.402 600.155 622.903 602.303 624.247 604.417C625.063 605.7 625.656 606.71 625.996 607.322C627.806 610.584 626.63 614.689 623.369 616.5C620.107 618.31 616.001 617.134 614.191 613.873C614.15 613.799 614.05 613.639 613.885 613.359C613.594 612.866 613.248 612.308 612.858 611.694C611.737 609.93 610.476 608.103 609.115 606.365C606.965 603.617 604.795 601.338 602.737 599.765C601.592 598.89 600.521 598.262 599.609 597.92C596.116 596.611 594.345 592.731 595.654 589.238C596.962 585.745 600.87 583.982 604.363 585.291Z" fill="black"/>
<path d="M647.635 537.449C659.097 542.007 666.544 552.31 670.343 566.369C673.33 577.422 673.964 590.573 672.544 603.035C669.715 627.856 636.318 654.738 599.229 662.657C598.41 662.832 597.58 663.003 596.759 663.157C583.561 665.629 570.475 665.371 557.813 662.99C548.772 661.289 540.811 658.678 534.264 655.782C532.546 655.022 531.315 654.416 530.602 654.03C527.323 652.252 526.112 648.172 527.89 644.893C529.667 641.614 533.756 640.376 537.035 642.154C537.035 642.154 537.447 642.373 537.643 642.469C538.23 642.759 538.91 643.082 539.724 643.441C545.371 645.94 552.344 648.215 560.293 649.711C571.388 651.797 582.813 652.034 594.264 649.889C594.974 649.756 595.706 649.614 596.414 649.463C628.423 642.628 657.073 619.565 659.13 601.517C661.922 577.015 656.062 555.335 642.666 550.008C626.996 543.777 610.505 549.312 578.109 571.02C575.01 573.097 570.809 572.286 568.733 569.187C566.656 566.088 567.494 561.896 570.593 559.819C587.974 548.173 600.472 541.239 611.743 537.445C624.782 533.056 636.32 532.949 647.635 537.449Z" fill="black"/>
<path d="M577.212 443.432C577.212 443.432 642.92 425.339 637.765 355.413C632.609 285.488 553.727 269.459 525.499 202.752C498.478 138.9 511.083 118.983 511.083 118.983C511.083 118.983 469.876 159.393 445.073 169.592C420.27 179.791 364.082 188.495 331.566 192.926C277.259 200.326 235.339 250.096 260.534 303.222C285.729 356.347 439.395 473.31 577.212 443.432Z" fill="#93E9CA"/>
<path d="M265.867 231.545C280.052 281.314 288.218 329.97 399.951 392.791C489.27 443.01 577.041 426.608 622.386 411.891C604.36 435.857 577.221 443.436 577.221 443.436C439.404 473.314 285.733 356.352 260.538 303.226C248.065 276.926 252.083 251.467 265.867 231.545Z" fill="#82D4D5"/>
<path d="M511.082 118.975C511.082 118.975 498.474 138.9 525.494 202.751C537.034 230.021 557.033 248.765 577.006 266.241C527.541 292.648 418.776 292.683 352.188 189.908C384.303 185.086 424.844 177.9 445.076 169.58C469.881 159.38 511.082 118.975 511.082 118.975Z" fill="#B7F2CC"/>
<path d="M511.083 118.975C511.083 118.975 499.093 138.174 523.899 198.83C491.751 204.145 472.079 209.266 445.467 169.381C470.308 158.939 511.083 118.975 511.083 118.975Z" fill="#DFFFEA"/>
<path d="M513.312 112.568C516.969 113.923 519.477 118.371 516.796 122.607C516.881 122.474 516.894 122.433 516.858 122.508C516.413 123.455 515.917 125.042 515.524 127.342C514.916 130.9 514.73 135.318 515.091 140.695C516.101 155.691 521.211 175.329 531.704 200.123C540.44 220.767 553.656 236.548 577.009 257.305C578.865 258.955 588.855 267.639 589.39 268.104C607.771 284.106 616.983 293.155 625.515 304.727C636.714 319.915 643.115 336.072 644.505 354.927C646.024 375.54 641.865 393.325 632.976 408.349C625.791 420.494 615.88 430.273 604.224 437.918C598.38 441.75 592.456 444.789 586.753 447.154C584.742 447.989 582.904 448.686 581.252 449.243C580.222 449.59 579.471 449.811 579.014 449.936C578.894 449.969 578.78 450.002 578.659 450.028C514.315 463.978 442.101 447.944 373.404 410.382C317.151 379.624 268.781 336.405 254.419 306.12C241.415 278.7 244.278 250.31 260.707 227.028C276.062 205.268 301.93 190.142 330.658 186.227C380.646 179.415 422.739 171.491 442.511 163.361C446.541 161.703 451.366 158.986 456.858 155.358C462.297 151.764 468.276 147.331 474.611 142.248C482.056 136.274 489.61 129.718 496.883 123.061C499.43 120.729 501.779 118.55 503.838 116.591C504.556 115.908 506.241 114.255 506.346 114.152C508.494 112.046 511.117 111.755 513.312 112.568ZM501.483 137.042C495.407 142.481 489.218 147.849 483.047 152.801C476.411 158.126 470.143 162.784 464.321 166.63C458.16 170.701 452.583 173.79 447.633 175.825C426.36 184.573 383.775 192.645 332.486 199.633C307.396 203.052 284.902 216.191 271.757 234.82C258.096 254.179 255.748 277.378 266.63 300.323C279.563 327.595 325.911 369.008 379.891 398.523C445.916 434.624 514.905 449.99 575.622 436.88C575.879 436.806 576.261 436.682 576.945 436.452C578.313 435.991 579.884 435.394 581.604 434.681C586.563 432.624 591.708 429.944 596.805 426.6C606.837 420.02 615.309 411.702 621.364 401.469C628.845 388.824 632.338 373.769 631.021 355.902C629.826 339.699 624.375 325.947 614.629 312.73C606.862 302.196 598.176 293.675 580.515 278.299C579.987 277.84 569.945 269.067 568.053 267.385C543.33 245.411 528.971 228.269 519.285 205.379C508.24 179.279 502.716 158.216 501.598 141.607C501.488 139.968 501.51 138.544 501.483 137.042Z" fill="black"/>
<path d="M537.664 144.24C543.211 127.169 533.869 108.833 516.797 103.286C499.726 97.7393 481.39 107.082 475.844 124.153C470.297 141.224 479.639 159.56 496.71 165.107C513.782 170.654 532.117 161.311 537.664 144.24Z" fill="#FFA0CA"/>
<path d="M518.887 96.8624C539.506 103.562 550.791 125.711 544.092 146.33C537.393 166.949 515.243 178.235 494.624 171.535C474.006 164.836 462.72 142.687 469.42 122.068C476.119 101.449 498.268 90.1629 518.887 96.8624ZM514.713 109.71C501.189 105.315 486.661 112.718 482.266 126.242C477.872 139.766 485.275 154.294 498.799 158.688C512.322 163.082 526.851 155.68 531.245 142.156C535.639 128.632 528.237 114.104 514.713 109.71Z" fill="black"/>
<path opacity="0.202659" d="M253.379 249.627C396.991 463.113 633.778 401.1 633.778 401.1L614.39 433.267L619.403 440.607L622.561 491.995L610.149 540.484L586.588 557.536C577.609 572.019 616.917 584.494 616.917 584.494L641.999 634.158L596.328 655.329L532.535 655.048L482.957 681.046L416.563 699.153L355.624 707.937L288.774 681.363L239.622 650.864L210.525 613.832C253.953 628.779 294.278 631.866 331.092 627.094C339.694 625.979 359.005 637.126 367.219 635.204C373.896 633.641 369.542 619.137 375.956 617.103C450.909 593.322 487.797 567.624 514.345 537.789C520.681 530.668 479.061 478.707 471.969 475.239C464.877 471.772 391.471 439.516 391.471 439.516L310.146 387.733L271.319 342.125L248.567 287.566L253.379 249.627Z" fill="black"/>
</svg>
