<svg width="800" height="800" viewBox="0 0 800 800" fill="none" xmlns="http://www.w3.org/2000/svg">
<g clip-path="url(#clip0_415_10137)">
<path d="M146.021 490.978C146.021 490.978 113.063 476.815 93.3785 492.573C73.6946 508.331 55.1835 583.311 164.359 618.384" fill="#F3886D"/>
<path d="M141.739 478.737C134.874 476.675 127.208 475.228 119.275 475.019C106.961 474.694 95.9152 477.575 87.0522 484.67C71.9618 496.751 63.9457 524.788 70.7432 550.801C79.4098 583.966 109.233 611.315 161.259 628.029L167.466 608.741C121.599 594.006 97.0982 571.563 90.3366 545.687C87.7495 535.786 87.9718 525.731 90.5439 516.726C92.6828 509.239 96.3151 503.18 99.7026 500.469C104.37 496.732 110.847 495.06 118.761 495.269C126.666 495.478 134.651 497.461 141.072 499.914C141.377 500.031 142.02 500.281 142.018 500.281L150.02 481.665C149.663 481.512 149.088 481.288 148.315 480.992C146.221 480.192 144.027 479.425 141.739 478.737Z" fill="black"/>
<path d="M589.53 443.451C589.53 443.451 602.525 417.042 634.391 381.494C666.258 345.946 716.994 301.258 792.477 264.702C792.477 264.702 789.433 256.325 779.123 249.101C768.812 241.877 751.235 235.805 722.168 240.416C722.168 240.416 726.493 231.76 729.42 218.587C732.347 205.415 733.876 187.726 728.285 169.661C728.285 169.661 720.649 166.996 708.329 166.987C696.008 166.978 679.005 169.624 660.271 180.244C660.271 180.244 662.12 166.717 662.386 151.516C662.651 136.314 661.334 119.438 655.002 112.739C655.002 112.739 645.68 110.893 631.467 113.074C617.254 115.254 598.149 121.462 578.582 137.571C578.582 137.571 579.895 127.841 578.204 114.858C576.513 101.876 571.819 85.6424 559.802 72.6353C559.802 72.6353 551.297 72.3721 538.548 77.3562C525.799 82.3404 508.806 92.5718 491.83 113.561C491.83 113.561 490.064 102.297 485.428 88.2786C480.792 74.2599 473.287 57.4861 461.809 46.4658C461.809 46.4658 452.353 48.0425 440.261 55.6106C428.17 63.1787 413.443 76.7383 402.9 100.704C402.9 100.704 397.044 93.8963 385.72 84.8762C374.395 75.8561 357.602 64.6239 335.726 55.7753C335.726 55.7753 344.504 75.4126 347.865 114.782C351.226 154.15 349.172 213.25 327.508 292.176C327.508 292.176 357.929 306.802 405.892 333.025C453.856 359.248 519.361 397.066 589.53 443.451Z" fill="#AF93E5"/>
<path d="M346.693 215.207C346.693 215.207 411.544 136.921 459.977 153.386C508.41 169.852 535.8 237.165 518.971 300.16C518.971 300.16 535.377 314.629 554.119 334.608C581.398 363.69 613.624 404.447 607.398 429.253C596.895 471.1 572.544 442.826 572.544 442.826L408.071 347.173L327.408 324.959L326.492 286.244L346.693 215.207Z" fill="#ABACE3"/>
<path d="M362.252 227.901L395.027 213.733L398.874 178.305L432.228 194.123L458.205 164.044L465.303 202.411L493.707 199.133L479.448 231.056L504.181 254.814L463.379 264.879L476.649 314.885L436.111 285.371L409.313 320.323L406.578 275.999L362.457 284.541L392.767 249.734L362.252 227.901Z" fill="#C3C4E1"/>
<path d="M728.148 236.3C728.148 236.3 636.032 287.543 569.703 394.093C503.375 500.644 592.966 443.507 592.966 443.507L641.825 375.775L693.37 325.941C693.37 325.941 727.137 303.622 735.257 299.484C743.378 295.347 781.561 271.222 781.561 271.222L796.11 261.808L783.052 245.78L757.037 238.801L728.148 236.3Z" fill="#B876D1"/>
<path d="M584.923 371.289C579.744 378.616 574.643 386.159 569.7 394.098C560.263 409.259 554.243 420.798 550.412 429.967L572.536 442.837C572.536 442.837 576.361 447.127 581.578 449.888C588.004 446.556 592.974 443.5 592.974 443.5L608.095 422.552C608.088 407.932 598.182 389.463 584.923 371.289Z" fill="#AF93E5"/>
<path d="M451.506 206.602C451.506 206.602 427.525 203.409 420.722 209.501C413.919 215.592 407.406 237.708 409.048 245.085C410.69 252.462 419.433 270.784 430.336 271.41C430.336 271.41 471.857 256.181 451.506 206.602Z" fill="#FFD000"/>
<path d="M586.768 446.422C586.768 446.422 599.763 420.013 631.629 384.465C663.495 348.917 714.232 304.23 789.715 267.674C789.715 267.674 786.671 259.297 776.36 252.073C766.05 244.849 748.472 238.777 719.406 243.387C719.406 243.387 723.731 234.731 726.658 221.559C729.584 208.387 731.114 190.698 725.523 172.632C725.523 172.632 717.886 169.968 705.566 169.959C693.246 169.95 676.243 172.596 657.509 183.216C657.509 183.216 659.358 169.689 659.623 154.488C659.889 139.286 658.572 122.41 652.24 115.711C652.24 115.711 642.918 113.865 628.705 116.045C614.491 118.226 595.386 124.434 575.819 140.542C575.819 140.542 577.133 130.812 575.442 117.83C573.751 104.848 569.056 88.614 557.04 75.6069C557.04 75.6069 548.535 75.3437 535.786 80.3279C523.037 85.312 506.044 95.5434 489.067 116.533C489.067 116.533 487.301 105.269 482.666 91.2502C478.03 77.2315 470.525 60.4577 459.046 49.4375C459.046 49.4375 449.591 51.0141 437.499 58.5822C425.407 66.1504 410.68 79.71 400.138 103.676C400.138 103.676 394.282 96.8679 382.958 87.8478C371.633 78.8278 354.84 67.5955 332.964 58.7469C332.964 58.7469 341.741 78.3843 345.103 117.753C348.464 157.122 346.41 216.222 324.746 295.148C324.746 295.148 355.167 309.774 403.13 335.997C451.093 362.219 516.599 400.038 586.768 446.422Z" fill="#93E9CA"/>
<path d="M343.93 218.178C343.93 218.178 408.782 139.892 457.215 156.358C505.647 172.823 533.037 240.137 516.208 303.131C516.208 303.131 532.615 317.6 551.357 337.58C578.636 366.662 610.863 407.419 604.637 432.224C594.133 474.071 569.783 445.798 569.783 445.798L405.309 350.145L324.646 327.93L323.73 289.215L343.93 218.178Z" fill="#B7F2CC"/>
<path d="M359.49 230.873L392.265 216.705L396.112 181.277L429.466 197.095L455.443 167.016L462.541 205.382L490.944 202.104L476.686 234.028L501.418 257.785L460.616 267.851L473.886 317.857L433.348 288.343L406.551 323.294L403.816 278.971L359.695 287.512L390.005 252.705L359.49 230.873Z" fill="#DFFFEA"/>
<path d="M725.386 239.271C725.386 239.271 633.27 290.515 566.941 397.064C500.612 503.615 590.204 446.479 590.204 446.479L639.063 378.747L690.608 328.912C690.608 328.912 724.375 306.592 732.495 302.456C740.616 298.318 778.799 274.193 778.799 274.193L793.348 264.779L780.289 248.752L754.275 241.772L725.386 239.271Z" fill="#82D4D5"/>
<path d="M582.161 374.261C576.981 381.588 571.881 389.131 566.938 397.07C557.501 412.23 551.481 423.77 547.65 432.939L569.773 445.808C569.773 445.808 573.599 450.099 578.815 452.859C585.241 449.528 590.212 446.472 590.212 446.472L605.333 425.524C605.326 410.904 595.419 392.434 582.161 374.261Z" fill="#93E9CA"/>
<path d="M448.744 209.573C448.744 209.573 424.763 206.381 417.96 212.472C411.157 218.564 404.644 240.68 406.286 248.056C407.928 255.433 416.671 273.756 427.574 274.381C427.574 274.381 469.094 259.153 448.744 209.573Z" fill="#FFA0CA"/>
<path d="M451.378 203.317C450.831 203.087 450.242 202.921 449.639 202.84C448.61 202.703 446.887 202.496 444.66 202.317C440.949 202.02 437.186 201.891 433.56 201.966C424.508 202.152 417.737 203.536 413.417 207.405C405.09 214.861 397.372 239.342 399.64 249.532C400.773 254.623 403.948 261.8 407.813 267.545C413.204 275.56 419.604 280.74 427.175 281.175C428.103 281.228 429.04 281.083 429.913 280.762C430.172 280.667 430.56 280.526 431.066 280.308C431.848 279.972 432.718 279.558 433.655 279.078C436.286 277.733 439.024 276.056 441.724 274.007C449.5 268.106 455.558 260.349 458.766 250.516C462.814 238.108 461.84 223.565 455.036 206.991C454.343 205.302 453.017 204.004 451.378 203.317ZM443.713 215.887C447.978 227.873 448.561 237.973 445.848 246.289C443.575 253.257 439.211 258.833 433.499 263.167C431.47 264.707 429.416 265.981 427.468 266.978C427.246 267.091 427.079 267.158 426.873 267.258C421.852 265.56 414.743 254.674 412.94 246.575C411.735 241.159 417.85 221.699 422.491 217.544C422.869 217.205 424.102 216.682 426.006 216.289C428.122 215.851 430.779 215.607 433.823 215.544C436.944 215.48 440.282 215.607 443.57 215.871C443.623 215.875 443.661 215.883 443.713 215.887Z" fill="black"/>
<path d="M561.303 66.2584C560.073 65.6971 558.724 65.37 557.345 65.3273C556.795 65.3103 556.001 65.3254 554.96 65.381C553.393 65.4647 551.616 65.6445 549.66 65.9374C544.267 66.7453 538.343 68.2761 532.031 70.7435C519.3 75.7207 506.69 83.8034 494.627 95.3407C493.931 92.9193 493.233 90.4882 492.418 88.0243C486.144 69.0527 477.665 53.0356 466.18 42.0087C463.837 39.7594 460.561 38.7559 457.358 39.2902C456.806 39.3822 455.975 39.5605 454.906 39.825C453.266 40.2306 451.43 40.7609 449.436 41.4506C443.881 43.3714 438.03 46.1205 432.057 49.859C418.624 58.2666 406.758 70.385 397.378 86.5565C394.909 84.3524 392.256 82.1139 389.362 79.8093C374.468 67.9458 356.921 57.3462 336.81 49.2115C328.227 45.7397 319.814 54.4842 323.592 62.9369C323.607 62.9707 323.656 63.1671 323.792 63.505C324.05 64.1468 324.371 64.9279 324.709 65.8742C325.709 68.6797 326.76 72.0945 327.83 76.1204C330.945 87.8333 333.435 101.993 334.854 118.615C338.952 166.606 333.47 224.531 314.833 292.431C313.518 297.222 315.812 302.259 320.29 304.413C320.337 304.435 324.145 306.289 325.703 307.059C330.168 309.267 335.38 311.891 341.292 314.906C358.207 323.53 377.307 333.602 398.201 345.025C457.917 377.674 519.969 414.579 581.11 454.996C586.279 458.412 593.268 456.518 596.004 450.958C596.063 450.838 596.218 450.527 596.486 450.02C596.961 449.12 597.541 448.039 598.241 446.803C600.279 443.204 602.804 439.064 605.845 434.419C614.608 421.035 625.697 406.497 639.283 391.341C678.25 347.871 729.397 308.303 794.199 276.92C798.944 274.622 801.18 269.119 799.379 264.163C799.025 263.187 798.411 261.805 797.489 260.146C796.073 257.599 794.257 254.973 791.974 252.348C789.248 249.211 786.009 246.287 782.252 243.655C770.287 235.272 754.437 230.941 734.585 231.629C735.324 229.083 736.07 226.569 736.688 223.791C740.706 205.707 740.836 187.292 735.36 169.594C734.395 166.475 732.002 163.991 728.919 162.915C728.861 162.895 728.844 162.892 728.759 162.863C727.141 162.318 724.74 161.685 721.608 161.102C716.792 160.205 711.405 159.68 705.56 159.675C693.768 159.666 681.556 161.815 669.213 166.448C669.463 162.507 669.838 158.581 669.907 154.66C670.288 132.864 667.837 117.249 659.706 108.647C658.239 107.095 656.331 106.042 654.236 105.627C653.716 105.524 652.902 105.397 651.84 105.263C650.202 105.055 648.359 104.884 646.283 104.789C640.491 104.522 634.054 104.816 627.139 105.877C613.37 107.99 599.517 112.854 586.022 120.865C585.89 119.41 585.826 117.99 585.633 116.507C583.266 98.334 576.721 81.7615 564.587 68.6274C563.651 67.6143 562.534 66.8197 561.303 66.2584ZM552.6 86.3037C559.566 95.3813 563.616 106.625 565.247 119.144C565.912 124.254 566.103 129.209 565.972 133.761C565.926 135.332 565.849 136.717 565.745 137.918C565.687 138.588 565.658 139.011 565.639 139.156C564.388 148.422 575.125 154.432 582.343 148.49C597.985 135.612 614.272 128.669 630.266 126.215C635.788 125.368 640.842 125.13 645.317 125.336C645.66 125.352 645.886 125.398 646.208 125.418C648.29 130.521 649.57 141.014 649.337 154.309C649.226 160.674 648.817 167.233 648.22 173.593C648.011 175.82 647.793 177.855 647.581 179.659C647.507 180.283 647.332 181.747 647.321 181.823C646.169 190.258 655.168 196.363 662.573 192.164C677.359 183.782 691.887 180.232 705.565 180.242C709.766 180.245 713.552 180.639 716.964 181.223C719.724 193.525 719.488 206.439 716.621 219.342C715.161 225.913 713.232 231.714 711.234 236.47C710.932 237.188 710.657 237.824 710.42 238.336C710.294 238.61 710.228 238.765 710.21 238.8C706.471 246.285 712.747 254.864 721.01 253.554C743.914 249.921 759.844 253.075 770.446 260.503C771.979 261.577 773.32 262.719 774.548 263.907C712.353 295.597 662.462 334.679 623.978 377.61C609.682 393.558 597.963 408.919 588.646 423.15C586.511 426.411 584.944 429.098 583.249 431.93C524.576 393.531 465.266 358.259 408.058 326.983C386.985 315.461 367.709 305.285 350.622 296.573C345.385 293.903 340.917 291.674 336.784 289.621C342.497 267.826 346.902 246.992 350.099 227.13C356.682 186.241 358.146 149.465 355.363 116.875C354.112 102.22 352.015 89.3492 349.426 78.0478C359.306 83.4546 368.441 89.4216 376.562 95.8899C381.23 99.6075 385.243 103.193 388.595 106.487C389.745 107.617 390.722 108.617 391.527 109.481C391.978 109.965 392.231 110.281 392.326 110.392C397.26 116.128 406.507 114.749 409.554 107.823C417.929 88.7855 429.553 75.6981 442.958 67.3081C447.367 64.5484 451.635 62.5479 455.619 61.1248C462.53 69.3838 468.38 80.8059 472.897 94.4644C474.811 100.252 476.368 106.006 477.573 111.4C477.992 113.277 478.323 114.961 478.599 116.438C478.693 116.944 478.899 118.094 478.906 118.136C480.287 126.944 491.455 129.931 497.062 122.999C510.789 106.028 525.258 95.4828 539.537 89.9004C544.333 88.0253 548.722 86.8944 552.6 86.3037Z" fill="black"/>
<path d="M151.751 450.613C190.192 332.303 318.567 267.98 438.484 306.944C558.401 345.907 624.451 473.402 586.01 591.712C547.568 710.021 419.194 774.344 299.276 735.381C179.359 696.417 113.31 568.922 151.751 450.613Z" fill="#F3886D"/>
<path d="M484.259 365.944C441.334 351.997 388.713 367.209 355.118 397.485C352.991 360.936 327.581 328.707 297.735 319.01C259.663 306.639 186.913 363.476 171.343 411.393C162.61 438.271 176.348 457.091 196.809 470.621C191.891 477.89 187.803 485.773 185.002 494.392C166.056 552.705 197.995 661.389 279.883 673.023C354.17 683.576 399.994 625.284 418.941 566.971C420.102 563.399 421.027 559.815 421.778 556.235C478.218 569.793 532.578 548.539 549.851 495.378C568.315 438.552 544.722 385.59 484.259 365.944Z" fill="#F9B192"/>
<path d="M476.702 431.367C474.758 430.362 471.693 430.751 469.749 431.002C467.26 431.322 464.793 431.812 462.337 432.322C459.076 432.998 455.824 433.718 452.582 434.478C446.885 435.815 441.214 437.225 435.554 438.71C431.9 439.666 429.696 443.406 430.651 447.059C431.607 450.713 435.356 452.891 439.009 451.935C446.645 449.947 454.325 448.09 462.053 446.492C464.497 445.986 466.952 445.504 469.42 445.128C469.553 445.107 469.687 445.1 469.82 445.08C471.095 447.808 472.209 450.611 473.194 453.455C476.214 462.175 477.997 471.242 478.721 480.432C479.043 484.408 482.529 487.396 486.505 487.074C490.481 486.753 493.442 483.257 493.121 479.282C492.565 472.589 491.553 465.944 489.926 459.425C488.932 455.441 487.691 451.517 486.259 447.67C484.983 444.241 483.525 440.886 481.858 437.629C481.433 436.798 480.993 435.967 480.531 435.156C480.361 434.857 480.223 434.44 479.99 434.181C479.405 433.534 478.883 432.814 478.222 432.246C477.776 431.863 477.224 431.637 476.702 431.367ZM468.004 441.472C468.005 441.49 468.049 441.55 468.058 441.578C468.036 441.553 468.018 441.523 467.995 441.499C467.988 441.491 468.004 441.461 468.004 441.472Z" fill="black"/>
<path d="M271.352 360.681C270.863 360.423 270.304 360.388 269.756 360.311C266.792 359.894 263.792 360.826 261.101 361.996C258.411 363.166 255.875 364.646 253.399 366.211C248.319 369.422 243.458 373.024 238.715 376.708C234.434 380.033 230.219 383.456 226.111 386.993C223.248 389.456 222.921 393.747 225.383 396.61C227.846 399.473 232.164 399.81 235.027 397.347C242.547 390.896 250.384 384.688 258.723 379.333C261.048 377.839 263.451 376.381 265.972 375.237C266.135 375.163 266.312 375.118 266.477 375.047C266.506 375.083 266.53 375.125 266.558 375.162C267.868 376.838 269.051 378.59 270.149 380.412C273.389 385.784 275.73 391.59 277.266 397.667C278.253 401.532 282.18 403.873 286.045 402.887C289.91 401.9 292.251 397.973 291.265 394.108C288.774 384.441 284.57 375.218 278.468 367.284C277.529 366.063 276.553 364.856 275.513 363.72C275.137 363.31 274.715 362.68 274.231 362.386C273.282 361.809 272.334 361.2 271.352 360.681Z" fill="black"/>
<path d="M258.252 459.1C258.252 459.1 314.419 449.226 365.836 491.426C365.836 491.426 314.976 603.757 260.993 621.154C260.993 621.154 222.668 576.745 258.252 459.1Z" fill="#AC3A34"/>
<path d="M318.484 571.614C290.489 564.311 265.312 579.838 248.789 594.596C254.024 612.988 260.987 621.167 260.987 621.167C281.481 614.562 301.502 594.242 318.484 571.614Z" fill="#FF5A51"/>
<path d="M486.362 359.466C446.171 346.408 396.496 357.275 360.278 384.514C353.724 351.222 329.56 322.189 299.838 312.532C279.243 305.84 250.299 315.938 222.013 337.133C194.948 357.413 172.833 384.766 164.865 409.288C156.565 434.833 165.706 455.734 187.699 472.336C183.866 478.769 180.764 485.393 178.524 492.287C168.359 523.573 172.138 567.092 188.405 603.944C206.808 645.637 238.466 674.007 278.936 679.757C315.796 684.993 348.192 674.462 374.68 650.917C397.323 630.788 414.804 601.738 425.417 569.075C425.93 567.497 426.272 565.794 426.715 564.17C486.092 575.809 539.111 550.468 556.327 497.482C576.396 435.715 549.076 379.844 486.362 359.466ZM482.153 372.42C537.626 390.445 561.151 438.557 543.373 493.273C527.896 540.906 478.904 562.96 423.365 549.618C419.638 548.723 415.915 551.091 415.128 554.843C414.393 558.345 413.504 561.664 412.463 564.866C402.551 595.371 386.339 622.342 365.649 640.733C342.072 661.691 313.618 670.945 280.827 666.286C245.485 661.265 217.487 636.171 200.84 598.457C185.862 564.524 182.405 524.421 191.478 496.496C193.954 488.875 197.609 481.564 202.435 474.431C204.556 471.297 203.704 467.028 200.547 464.941C179.191 450.818 171.001 434.481 177.819 413.497C192.853 367.229 262.795 314.817 295.629 325.486C323.635 334.585 346.418 365.037 348.33 397.883C348.661 403.578 355.421 406.36 359.658 402.54C392.824 372.651 443.091 359.728 482.153 372.42Z" fill="black" fill-opacity="0.401653"/>
<path d="M440.58 300.474C317.11 260.356 184.89 326.622 145.282 448.524C105.674 570.425 173.7 701.726 297.17 741.844C420.641 781.962 552.852 715.722 592.46 593.821C632.069 471.919 564.05 340.591 440.58 300.474ZM436.38 313.401C552.745 351.21 616.807 474.903 579.533 589.62C542.259 704.338 417.735 766.726 301.371 728.917C185.006 691.108 120.935 567.442 158.209 452.724C195.483 338.006 320.016 275.592 436.38 313.401Z" fill="black"/>
<path d="M326.36 284.978C325.052 284.697 323.672 284.667 322.275 284.932C236.746 301.159 166.007 362.175 138.705 446.202C134.214 460.022 131.048 473.964 129.145 487.875C129.025 488.75 128.999 489.627 128.889 490.503C130.321 490.413 131.819 490.676 133.228 490.78C135.974 490.983 138.709 490.957 141.455 491.159C143.923 491.342 145.896 492.636 148.202 493.143C148.542 493.218 148.885 493.254 149.229 493.298C149.275 492.933 149.298 492.569 149.345 492.204C151.06 478.973 154.031 465.716 158.303 452.57C183.271 375.725 247.941 319.929 326.171 305.086C331.756 304.027 335.429 298.653 334.35 293.085C333.541 288.91 330.286 285.82 326.36 284.978ZM589.777 436.499C587.403 435.358 584.595 435.102 581.91 436.028C576.539 437.881 573.702 443.719 575.576 449.076C591.257 493.908 592.09 542.58 577.121 588.652C539.71 703.789 415.631 766.66 299.976 729.081C238.502 709.107 191.835 664.758 167.172 610.316C164.75 611.693 162.089 612.639 159.041 612.59C154.303 612.514 149.284 610.983 144.631 609.874C144.985 610.748 145.261 611.651 145.626 612.521C171.796 674.886 224.088 725.994 293.636 748.592C420.116 789.687 555.807 720.932 596.719 595.02C613.083 544.656 612.179 491.373 595.03 442.347C594.093 439.669 592.152 437.641 589.777 436.499Z" fill="black"/>
<path d="M406.377 523.195C411.597 512.123 433.006 510.926 454.195 520.523C475.385 530.12 488.331 546.876 483.111 557.949C477.89 569.022 456.481 570.218 435.292 560.621C414.102 551.024 401.156 534.268 406.377 523.195Z" fill="#FF497F"/>
<path d="M138.534 438.962C141.22 427.019 161.857 421.194 184.626 425.952C207.396 430.71 223.677 444.249 220.99 456.192C218.304 468.135 197.667 473.96 174.898 469.202C152.128 464.444 135.847 450.905 138.534 438.962Z" fill="#FF497F"/>
<path d="M195.152 422.443C192.181 421.463 189.078 420.629 185.869 419.959C160.256 414.607 136.201 421.392 132.553 437.611C128.879 453.945 147.965 469.829 173.633 475.193C199.246 480.545 223.301 473.759 226.949 457.541C230.164 443.249 215.951 429.297 195.152 422.443ZM190.513 433.807C206.381 438.837 216.499 448.238 215.013 454.846C213.288 462.513 196.059 467.386 176.132 463.222C156.261 459.069 142.791 447.858 144.49 440.306C146.215 432.638 163.443 427.766 183.37 431.93C185.854 432.449 188.246 433.088 190.513 433.807Z" fill="black"/>
<path d="M447.772 511.478C426.932 504.719 407.046 507.425 400.843 520.582C393.704 535.726 408.887 555.38 432.774 566.199C456.609 576.994 481.549 575.596 488.637 560.56C495.776 545.416 480.62 525.771 456.734 514.952C453.754 513.603 450.749 512.444 447.772 511.478ZM444.765 523.373C447.035 524.135 449.347 525.038 451.665 526.088C470.157 534.463 480.881 548.338 477.58 555.34C474.229 562.448 456.359 563.452 437.815 555.054C419.323 546.679 408.6 532.804 411.9 525.803C414.833 519.582 428.877 518.035 444.765 523.373Z" fill="black"/>
<path d="M317.844 458.018C303.385 453.586 289.216 451.553 275.841 451.324C270.861 451.238 266.327 451.398 262.326 451.756C260.905 451.882 259.637 452.038 258.547 452.185C257.861 452.277 257.386 452.34 257.089 452.392C254.562 452.836 252.475 454.675 251.732 457.131C236.205 508.463 233.101 550.323 239.209 583.465C241.521 596.013 245.03 606.482 249.246 614.955C250.756 617.99 252.24 620.555 253.683 622.699C254.209 623.481 254.709 624.168 255.149 624.744C255.444 625.129 255.685 625.402 255.85 625.593C257.635 627.661 260.492 628.459 263.092 627.62C285.226 620.487 307.424 599.31 329.572 567.997C340.601 552.403 350.916 535.257 360.232 517.803C363.49 511.698 366.4 505.99 368.913 500.828C369.796 499.016 371.652 495.069 371.822 494.701C371.926 494.475 371.992 494.323 372.032 494.236C373.301 491.433 372.534 488.122 370.155 486.17C353.967 472.884 336.324 463.682 317.844 458.018ZM313.884 471.023C329.147 475.701 343.708 483.173 357.316 493.538C357.089 494.008 356.921 494.366 356.676 494.869C354.233 499.885 351.407 505.438 348.231 511.388C339.164 528.377 329.151 545.054 318.486 560.134C299.635 586.785 280.929 605.201 263.637 612.736C262.906 611.511 262.2 610.435 261.428 608.882C257.774 601.54 254.665 592.298 252.584 581.005C247.054 550.999 249.769 512.652 263.568 465.327C267.097 465.013 271.123 464.838 275.597 464.915C287.758 465.123 300.711 466.985 313.884 471.023Z" fill="black"/>
<path d="M320.205 565.042C305.696 561.257 291.11 562.725 276.784 568.54C265.304 573.2 254.42 580.435 244.256 589.514C242.313 591.249 241.522 593.956 242.235 596.462C244.668 605.007 247.658 612.19 250.898 618.066C252.062 620.176 253.17 621.985 254.223 623.496C254.901 624.469 255.438 625.155 255.796 625.576C257.578 627.669 260.466 628.49 263.083 627.647C283.28 621.138 303.544 602.863 323.935 575.693C326.837 571.826 324.883 566.263 320.205 565.042ZM305.85 576.711C291.243 594.579 276.988 606.984 263.611 612.817C263.331 612.342 263.093 612.02 262.8 611.488C260.599 607.496 258.577 602.478 256.726 596.85C272.659 583.53 289.265 576.073 305.85 576.711Z" fill="black"/>
<path d="M151.583 450.971C190.024 332.661 318.4 268.338 438.316 307.302C558.234 346.265 624.283 473.76 585.842 592.07C547.401 710.379 419.026 774.702 299.109 735.739C179.191 696.775 113.142 569.28 151.583 450.971Z" fill="#F3886D"/>
<path d="M484.092 366.302C441.167 352.355 388.547 367.567 354.951 397.843C352.824 361.294 327.415 329.065 297.568 319.368C259.497 306.997 186.746 363.834 171.177 411.751C162.444 438.629 176.181 457.448 196.643 470.979C191.725 478.248 187.636 486.131 184.836 494.75C165.889 553.063 197.829 661.747 279.716 673.38C354.003 683.934 399.827 625.642 418.774 567.329C419.935 563.757 420.861 560.173 421.612 556.593C478.052 570.151 532.412 548.897 549.684 495.736C568.148 438.91 544.555 385.948 484.092 366.302Z" fill="#F9B192"/>
<path d="M486.195 359.826C446.004 346.768 396.329 357.635 360.111 384.874C353.557 351.582 329.393 322.549 299.672 312.892C279.076 306.2 250.132 316.298 221.846 337.493C194.781 357.773 172.666 385.126 164.699 409.648C156.399 435.193 165.54 456.094 187.533 472.696C183.699 479.129 180.598 485.753 178.358 492.647C168.192 523.933 171.972 567.452 188.238 604.304C206.641 645.997 238.299 674.367 278.769 680.117C315.63 685.353 348.025 674.822 374.513 651.276C397.157 631.148 414.637 602.098 425.25 569.435C425.763 567.857 426.106 566.154 426.548 564.53C485.925 576.169 538.944 550.828 556.16 497.842C576.23 436.075 548.91 380.204 486.195 359.826ZM481.986 372.78C537.459 390.805 560.985 438.917 543.206 493.633C527.73 541.266 478.738 563.32 423.198 549.978C419.471 549.083 415.749 551.451 414.961 555.203C414.226 558.705 413.337 562.023 412.296 565.226C402.385 595.731 386.172 622.702 365.483 641.093C341.906 662.051 313.451 671.305 280.66 666.646C245.319 661.625 217.32 636.531 200.674 598.817C185.696 564.884 182.238 524.781 191.312 496.856C193.788 489.235 197.443 481.924 202.268 474.791C204.389 471.657 203.537 467.388 200.381 465.301C179.025 451.178 170.834 434.841 177.653 413.857C192.686 367.589 262.628 315.177 295.463 325.846C323.468 334.945 346.252 365.397 348.163 398.243C348.495 403.938 355.254 406.72 359.492 402.9C392.658 373.011 442.924 360.088 481.986 372.78Z" fill="black" fill-opacity="0.401653"/>
<path d="M440.415 300.832C316.945 260.714 184.724 326.98 145.116 448.882C105.508 570.783 173.535 702.084 297.005 742.202C420.475 782.32 552.687 716.08 592.295 594.179C631.903 472.277 563.885 340.949 440.415 300.832ZM436.215 313.759C552.579 351.568 616.641 475.261 579.368 589.978C542.093 704.696 417.57 767.084 301.205 729.275C184.841 691.466 120.77 567.8 158.043 453.082C195.317 338.364 319.85 275.95 436.215 313.759Z" fill="black"/>
<path d="M326.194 285.336C324.885 285.055 323.505 285.025 322.109 285.289C236.579 301.517 165.84 362.533 138.538 446.56C134.048 460.38 130.882 474.322 128.978 488.232C128.858 489.108 128.832 489.985 128.723 490.861C130.155 490.771 131.653 491.034 133.062 491.138C135.808 491.341 138.543 491.315 141.288 491.517C143.756 491.7 145.729 492.994 148.036 493.501C148.375 493.576 148.719 493.612 149.063 493.656C149.108 493.291 149.131 492.927 149.179 492.562C150.893 479.331 153.865 466.074 158.136 452.928C183.105 376.083 247.774 320.287 326.005 305.444C331.59 304.385 335.262 299.011 334.184 293.443C333.375 289.268 330.12 286.178 326.194 285.336ZM589.611 436.857C587.236 435.716 584.428 435.46 581.743 436.386C576.373 438.239 573.536 444.077 575.409 449.433C591.09 494.266 591.924 542.938 576.954 589.01C539.544 704.147 415.464 767.018 299.809 729.439C238.336 709.465 191.669 665.116 167.005 610.674C164.583 612.051 161.922 612.997 158.874 612.948C154.137 612.872 149.117 611.341 144.464 610.232C144.819 611.106 145.094 612.009 145.459 612.879C171.629 675.244 223.921 726.352 293.47 748.95C419.949 790.045 555.641 721.29 596.552 595.378C612.917 545.014 612.012 491.731 594.863 442.705C593.927 440.027 591.985 437.999 589.611 436.857Z" fill="black"/>
<path d="M406.211 523.553C411.431 512.481 432.84 511.284 454.03 520.881C475.219 530.478 488.165 547.234 482.945 558.307C477.725 569.379 456.316 570.576 435.126 560.979C413.937 551.382 400.991 534.626 406.211 523.553Z" fill="#FF497F"/>
<path d="M138.366 439.32C141.053 427.377 161.689 421.552 184.459 426.31C207.228 431.068 223.509 444.607 220.822 456.55C218.136 468.493 197.5 474.318 174.73 469.56C151.96 464.802 135.68 451.263 138.366 439.32Z" fill="#FF497F"/>
<path d="M194.987 422.802C192.015 421.823 188.912 420.989 185.703 420.319C160.091 414.967 136.036 421.752 132.387 437.971C128.713 454.305 147.799 470.189 173.468 475.553C199.08 480.905 223.135 474.119 226.784 457.901C229.999 443.609 215.785 429.657 194.987 422.802ZM190.347 434.167C206.215 439.196 216.333 448.598 214.847 455.206C213.122 462.873 195.893 467.746 175.967 463.582C156.095 459.429 142.625 448.218 144.324 440.666C146.049 432.998 163.278 428.126 183.204 432.29C185.688 432.809 188.08 433.448 190.347 434.167Z" fill="black"/>
<path d="M447.605 511.837C426.765 505.077 406.879 507.784 400.677 520.941C393.537 536.085 408.72 555.739 432.607 566.558C456.442 577.353 481.382 575.955 488.471 560.919C495.61 545.775 480.453 526.13 456.567 515.311C453.588 513.962 450.583 512.803 447.605 511.837ZM444.599 523.732C446.869 524.494 449.181 525.396 451.499 526.446C469.991 534.821 480.714 548.697 477.413 555.699C474.062 562.807 456.192 563.81 437.649 555.412C419.156 547.037 408.433 533.163 411.734 526.162C414.666 519.941 428.71 518.394 444.599 523.732Z" fill="black"/>
<path d="M497.695 432.736C496.865 432.421 495.973 432.25 495.03 432.285C494.983 432.286 492.611 432.396 491.694 432.444C489.078 432.576 486.157 432.747 483.003 432.963C473.989 433.583 464.919 434.435 456.298 435.56C446.906 436.786 438.609 438.267 431.761 440.045C422.496 442.45 415.951 445.297 412.119 449.316C407.927 453.713 411.134 461.007 417.208 460.882C417.342 460.879 417.633 460.869 418.071 460.867C418.824 460.864 419.694 460.865 420.67 460.882C423.474 460.933 426.529 461.076 429.733 461.312C435.911 461.768 441.86 462.556 447.203 463.734C450.776 464.521 453.962 465.467 456.729 466.562C460.237 467.95 464.23 466.212 465.617 462.704C467.005 459.196 465.285 455.24 461.777 453.851C458.279 452.467 454.387 451.333 450.146 450.398C450.056 450.378 449.959 450.357 449.869 450.337C452.534 449.907 455.133 449.473 458.056 449.092C466.37 448.007 475.204 447.192 483.961 446.59C487.029 446.379 489.848 446.2 492.385 446.072C493.27 446.027 495.402 445.946 495.535 445.942C499.305 445.803 502.231 442.641 502.093 438.87C501.989 436.042 500.183 433.682 497.695 432.736Z" fill="black"/>
<path d="M274.933 344.791C272.424 343.9 269.498 344.549 267.587 346.636C265.039 349.418 265.225 353.723 268.007 356.271C267.994 356.258 268.081 356.352 268.249 356.528C268.596 356.893 269.006 357.357 269.479 357.933C270.91 359.676 272.484 361.883 274.086 364.608C277.732 370.806 280.938 378.496 283.482 387.693C279.516 384.748 275.554 382.032 271.621 379.844C268.758 378.252 265.953 376.902 263.217 375.841C259.699 374.478 255.736 376.225 254.373 379.744C253.011 383.262 254.758 387.225 258.276 388.588C260.391 389.407 262.652 390.474 264.993 391.775C269.349 394.198 273.881 397.34 278.438 400.938C281.27 403.173 283.929 405.425 286.329 407.615C287.165 408.377 287.916 409.087 288.552 409.698C288.923 410.054 289.157 410.292 289.269 410.405C293.902 415.045 301.783 411.143 300.875 404.649C300.332 400.762 299.691 397.006 298.939 393.396C295.898 378.829 291.337 367.001 285.861 357.692C283.896 354.351 281.925 351.552 280.048 349.265C279.363 348.431 278.721 347.712 278.145 347.107C277.76 346.702 277.474 346.396 277.257 346.197C276.562 345.56 275.769 345.088 274.933 344.791Z" fill="black"/>
<path d="M226.641 535.765C234.81 555.027 248.179 551.066 258.113 550.364C278.176 548.945 284.899 531.854 285.977 508.346C286.877 488.72 280.775 471.125 263.008 479.19C245.241 487.255 218.472 516.504 226.641 535.765Z" fill="#AC3A34" stroke="black" stroke-width="0.0189639" stroke-miterlimit="10" stroke-linecap="round" stroke-linejoin="round"/>
<path d="M285.443 514.797C284.565 514.56 283.675 514.241 282.812 514.061C267.316 510.83 231.511 543 231.133 543.341C239.189 553.604 249.825 550.949 258.116 550.362C276.275 549.078 283.434 534.896 285.443 514.797Z" fill="#FF5A51" stroke="black" stroke-width="0.0189639" stroke-miterlimit="10" stroke-linecap="round" stroke-linejoin="round"/>
<path d="M275.846 470.934C271.215 469.749 265.875 470.39 260.181 472.975C249.921 477.632 237.958 487.876 229.606 499.229C219.53 512.926 215.436 526.851 220.354 538.448C224.247 547.626 229.711 553.402 236.739 556.14C241.988 558.185 246.673 558.344 254.139 557.592C254.523 557.553 256.123 557.4 256.523 557.36C257.362 557.276 258.002 557.217 258.595 557.176C270.487 556.335 279.403 550.774 285.064 541.098C289.801 533.004 292.166 522.287 292.792 508.663C293.328 496.967 291.609 486.708 287.296 479.773C284.403 475.121 280.476 472.119 275.846 470.934ZM271.967 484.054C273.512 484.336 274.66 485.322 275.692 486.981C278.275 491.135 279.577 498.831 279.154 508.019C278.075 531.538 271.639 542.558 257.637 543.549C256.89 543.602 256.099 543.677 255.138 543.773C254.707 543.816 253.136 543.977 252.782 544.013C247.327 544.563 244.381 544.446 241.706 543.403C238.329 542.087 235.453 539.055 232.924 533.093C230.316 526.942 233.069 517.542 240.587 507.324C247.619 497.764 257.811 489.034 265.819 485.4C268.471 484.197 270.424 483.773 271.967 484.054Z" fill="black"/>
<path d="M497.695 432.736C496.865 432.421 495.973 432.25 495.03 432.285C494.983 432.286 492.611 432.396 491.694 432.444C489.078 432.576 486.157 432.747 483.003 432.963C473.989 433.583 464.919 434.435 456.298 435.56C446.906 436.786 438.609 438.267 431.761 440.045C422.496 442.45 415.951 445.297 412.119 449.316C407.927 453.713 411.134 461.007 417.208 460.882C417.342 460.879 417.633 460.869 418.071 460.867C418.824 460.864 419.694 460.865 420.67 460.882C423.474 460.933 426.529 461.076 429.733 461.312C435.911 461.768 441.86 462.556 447.203 463.734C450.776 464.521 453.962 465.467 456.729 466.562C460.237 467.95 464.23 466.212 465.617 462.704C467.005 459.196 465.285 455.24 461.777 453.851C458.279 452.467 454.387 451.333 450.146 450.398C450.056 450.378 449.959 450.357 449.869 450.337C452.534 449.907 455.133 449.473 458.056 449.092C466.37 448.007 475.204 447.192 483.961 446.59C487.029 446.379 489.848 446.2 492.385 446.072C493.27 446.027 495.402 445.946 495.535 445.942C499.305 445.803 502.231 442.641 502.093 438.87C501.989 436.042 500.183 433.682 497.695 432.736Z" fill="black"/>
<path d="M274.933 344.791C272.424 343.9 269.498 344.549 267.587 346.636C265.039 349.418 265.225 353.723 268.007 356.271C267.994 356.258 268.081 356.352 268.249 356.528C268.596 356.893 269.006 357.357 269.479 357.933C270.91 359.676 272.484 361.883 274.086 364.608C277.732 370.806 280.938 378.496 283.482 387.693C279.516 384.748 275.554 382.032 271.621 379.844C268.758 378.252 265.953 376.902 263.217 375.841C259.699 374.478 255.736 376.225 254.373 379.744C253.011 383.262 254.758 387.225 258.276 388.588C260.391 389.407 262.652 390.474 264.993 391.775C269.349 394.198 273.881 397.34 278.438 400.938C281.27 403.173 283.929 405.425 286.329 407.615C287.165 408.377 287.916 409.087 288.552 409.698C288.923 410.054 289.157 410.292 289.269 410.405C293.902 415.045 301.783 411.143 300.875 404.649C300.332 400.762 299.691 397.006 298.939 393.396C295.898 378.829 291.337 367.001 285.861 357.692C283.896 354.351 281.925 351.552 280.048 349.265C279.363 348.431 278.721 347.712 278.145 347.107C277.76 346.702 277.474 346.396 277.257 346.197C276.562 345.56 275.769 345.088 274.933 344.791Z" fill="black"/>
<path d="M286.45 507.965C285.424 507.653 284.931 507.536 284.212 507.386C274.816 505.427 262.63 511.06 247.371 521.78C242.421 525.257 237.516 529.034 232.842 532.89C231.196 534.248 229.686 535.538 228.35 536.697C227.523 537.414 226.927 537.952 226.565 538.277C223.892 540.681 223.544 544.747 225.763 547.574C229.836 552.763 234.84 555.852 240.636 557.171C244.827 558.124 248.555 558.129 254.353 557.574C254.77 557.534 258.024 557.217 258.595 557.177C269.395 556.413 277.763 551.728 283.445 543.532C288.305 536.522 291.067 527.2 292.239 515.468C292.571 512.144 290.451 509.09 287.226 508.217C287.055 508.171 286.488 507.976 286.45 507.965ZM277.677 521.034C274.982 535.722 268.773 542.763 257.637 543.55C256.934 543.6 253.42 543.939 253.03 543.976C247.938 544.464 244.587 544.252 241.865 543.189C246.19 539.632 250.699 536.12 255.225 532.942C264.504 526.424 272.558 522.231 277.677 521.034Z" fill="black"/>
<path d="M275.846 470.934C271.215 469.749 265.875 470.39 260.181 472.975C249.921 477.632 237.958 487.876 229.606 499.229C219.53 512.926 215.436 526.851 220.354 538.448C224.247 547.626 229.711 553.402 236.739 556.14C241.988 558.185 246.673 558.344 254.139 557.592C254.523 557.553 256.123 557.4 256.523 557.36C257.362 557.276 258.002 557.217 258.595 557.176C270.487 556.335 279.403 550.774 285.064 541.098C289.801 533.004 292.166 522.287 292.792 508.663C293.328 496.967 291.609 486.708 287.296 479.773C284.403 475.121 280.476 472.119 275.846 470.934ZM271.967 484.054C273.512 484.336 274.66 485.322 275.692 486.981C278.275 491.135 279.577 498.831 279.154 508.019C278.075 531.538 271.639 542.558 257.637 543.549C256.89 543.602 256.099 543.677 255.138 543.773C254.707 543.816 253.136 543.977 252.782 544.013C247.327 544.563 244.381 544.446 241.706 543.403C238.329 542.087 235.453 539.055 232.924 533.093C230.316 526.942 233.069 517.542 240.587 507.324C247.619 497.764 257.811 489.034 265.819 485.4C268.471 484.197 270.424 483.773 271.967 484.054Z" fill="black"/>
<path d="M555.905 597.107C555.905 597.107 606.112 583.619 621.352 593.39C636.593 603.161 664.427 633.893 659.896 663.153C655.364 692.413 562.201 789.565 492.486 707.04" fill="#F3886D"/>
<path d="M604.407 582.156C600.011 582.114 595.626 582.43 591.376 582.844C584.045 583.558 576.754 584.752 569.532 586.188C564.306 587.226 559.087 588.371 553.939 589.75C549.87 590.84 547.443 595.025 548.532 599.094C549.622 603.162 553.807 605.558 557.876 604.469C564.253 602.761 570.756 601.414 577.251 600.25C584.128 599.018 591.052 598.017 598.032 597.625C602.101 597.397 606.231 597.34 610.282 597.844C612.168 598.078 614.107 598.437 615.876 599.156C617.666 599.884 619.205 601.145 620.72 602.312C622.851 603.956 624.891 605.743 626.845 607.594C634.482 614.829 641.152 623.303 646.001 632.656C649.5 639.405 652.128 646.797 652.563 654.438C652.726 657.291 652.697 660.343 651.97 663.125C650.599 668.367 647.36 673.435 644.313 677.844C638.689 685.985 631.923 693.391 624.626 700.062C621.253 703.147 617.737 706.083 614.095 708.844C594.972 723.341 570.726 734.379 546.22 730.875C542.718 730.374 539.244 729.58 535.876 728.5C530.795 726.871 525.935 724.611 521.376 721.844C512.66 716.553 505.193 709.537 498.595 701.812C495.703 698.431 490.632 698.015 487.251 700.906C483.87 703.798 483.484 708.9 486.376 712.281C494.097 721.299 502.846 729.425 513.032 735.594C519.443 739.476 526.348 742.52 533.563 744.562C538.22 745.88 542.997 746.767 547.813 747.219C580.803 750.314 612.739 732.807 636.157 710.906C644.407 703.191 651.985 694.652 658.22 685.219C661.917 679.625 665.371 673.548 667.032 667C667.79 664.014 668.093 660.916 668.157 657.844C668.277 652.164 667.429 646.466 665.907 641C661.477 625.083 651.439 610.526 639.876 598.906C636.79 595.806 633.534 592.853 630.063 590.188C628.116 588.692 626.115 587.182 623.939 586.031C621.874 584.939 619.64 584.182 617.376 583.625C613.196 582.596 608.804 582.198 604.407 582.156Z" fill="black"/>
<path d="M661.03 662.912C565.402 637.142 512.581 670.907 484.99 703.922C558.851 787.549 654.053 694.139 661.03 662.912Z" fill="#F9B192"/>
<path d="M629.019 648.782C620.416 647.045 611.7 645.741 602.934 645.189C585.908 644.117 568.695 645.6 552.347 650.619C545.755 652.643 539.305 655.241 533.255 658.56C530.19 660.242 527.11 662.07 524.426 664.331C521.542 666.768 521.164 671.091 523.601 673.976C526.038 676.86 530.36 677.238 533.245 674.801C533.221 674.821 533.418 674.674 533.44 674.657C533.521 674.594 533.56 674.55 533.643 674.487C533.87 674.315 534.111 674.139 534.342 673.974C534.993 673.509 535.642 673.062 536.317 672.633C538.37 671.327 540.522 670.158 542.706 669.087C549.026 665.989 555.745 663.723 562.597 662.146C583.476 657.339 605.292 658.659 626.136 662.936C630.045 663.732 633.859 661.209 634.655 657.301C635.451 653.392 632.928 649.578 629.019 648.782Z" fill="black"/>
<path d="M580 649.928C576.283 649.259 572.719 651.736 572.05 655.453C571.152 660.367 570.21 665.269 569.279 670.176C568.441 674.585 567.637 679.026 567.199 683.496C566.833 687.468 569.757 690.992 573.729 691.358C577.701 691.725 581.197 688.792 581.564 684.82C581.872 681.207 582.503 677.603 583.004 674.014C583.757 668.614 584.575 663.247 585.525 657.878C586.193 654.161 583.716 650.597 580 649.928Z" fill="black"/>
<path d="M623.641 579.274C620.312 578.023 615.428 577.056 608.086 575.877C601.768 574.862 594.516 573.933 591.677 573.741L590.29 593.855C592.384 593.997 599.139 594.866 604.9 595.791C608.286 596.335 611.239 596.876 613.5 597.372C614.638 597.622 615.573 597.855 616.21 598.046C623.858 602.959 633.565 612.754 640.637 623.5C649.106 636.37 653.104 649.156 651.513 659.967C650.75 665.148 644.602 675.362 635.129 685.802C624.024 698.041 609.901 709.123 595.05 716.72C578.088 725.397 560.952 729.21 544.661 727.275C526.047 725.063 508.532 715.416 492.433 697.137L477.307 710.45C496.6 732.355 518.613 744.466 542.303 747.281C562.888 749.727 583.937 745.07 604.246 734.681C637.828 717.501 668.372 683.823 671.452 662.895C673.87 646.472 668.412 629.066 657.462 612.425C648.724 599.147 636.743 587.058 626.482 580.64C625.683 580.141 624.751 579.691 623.641 579.274Z" fill="black"/>
<path d="M617.014 584.282C611.833 583.001 606.286 582.872 601.038 582.997C592.193 583.209 583.38 584.411 574.683 585.974C567.79 587.212 560.902 588.669 554.133 590.482C550.469 591.463 548.294 595.211 549.275 598.875C550.256 602.539 554.031 604.723 557.695 603.742C564.636 601.883 571.704 600.448 578.779 599.23C585.686 598.04 592.683 597.059 599.692 596.793C603.255 596.658 606.822 596.654 610.365 597.094C612.44 597.352 614.584 597.739 616.508 598.587C618.545 599.485 620.442 601.116 622.162 602.496C625.16 604.899 627.977 607.512 630.64 610.281C640.075 620.089 648.513 632.402 651.939 645.726C652.992 649.823 653.521 654.049 653.333 658.281C653.259 659.964 653.13 661.678 652.704 663.314C652.117 665.564 651.145 667.737 650.092 669.804C648.587 672.76 646.844 675.587 644.96 678.315C639.304 686.506 632.495 693.932 625.159 700.643C621.768 703.744 618.234 706.676 614.573 709.453C595.279 724.087 570.826 735.212 546.101 731.679C542.54 731.17 539.045 730.331 535.616 729.249C530.484 727.629 525.567 725.298 520.97 722.507C512.181 717.173 504.653 710.109 497.999 702.32C495.395 699.275 490.821 698.939 487.776 701.543C484.732 704.147 484.369 708.712 486.973 711.757C494.638 720.71 503.341 728.765 513.455 734.89C519.807 738.737 526.639 741.781 533.787 743.804C538.396 745.109 543.144 745.964 547.912 746.412C580.668 749.486 612.366 732.081 635.618 710.344C644.243 702.281 652.188 693.294 658.543 683.32C661.792 678.221 664.804 672.713 666.302 666.815C666.959 664.227 667.237 661.531 667.346 658.869C667.575 653.257 666.866 647.643 665.448 642.215C661.225 626.042 651.017 611.171 639.342 599.437C635.941 596.019 632.32 592.783 628.439 589.918C626.418 588.426 624.363 586.992 622.055 585.979C620.428 585.266 618.741 584.709 617.014 584.282Z" fill="black"/>
<path opacity="0.196343" d="M185.932 660.548C185.932 660.548 430.831 740.02 597.842 505.287L590.513 584.079C590.513 584.079 536.337 639.734 560.624 654.547L617.721 655.656L644.943 680.815L610.078 725.864L568.502 741.283L522.293 733.037L492.595 713.823L433.261 745.46L332.519 751.529L263.958 726.727L222.054 693.976L185.932 660.548Z" fill="black"/>
<path opacity="0.196343" d="M91.6035 570.733L139.595 556.62L157.826 616.64L91.6035 570.733Z" fill="black"/>
</g>
<defs>
<clipPath id="clip0_415_10137">
<rect width="800" height="800" fill="white"/>
</clipPath>
</defs>
</svg>
