<svg width="800" height="800" viewBox="0 0 800 800" fill="none" xmlns="http://www.w3.org/2000/svg">
<path d="M150.238 412.845C150.238 412.845 131.618 386.397 108.089 401.654C84.5604 416.912 59.9191 466.889 132.131 522.175" fill="#F3886D"/>
<path d="M150.238 412.845C150.238 412.845 131.618 386.397 108.089 401.654C84.5604 416.912 59.9191 466.889 132.131 522.175" stroke="black" stroke-width="0.01875" stroke-miterlimit="10" stroke-linejoin="round"/>
<path d="M91.8803 418.967C78.3045 442.031 77.8412 480.606 132.142 522.179L141.306 466.747C122.789 440.279 100.694 424.622 91.8803 418.967Z" fill="#F9B192"/>
<path d="M150.238 412.845C150.238 412.845 131.618 386.397 108.089 401.654C84.5604 416.912 59.9191 466.889 132.131 522.175" stroke="black" stroke-width="0.01875" stroke-miterlimit="10" stroke-linejoin="round"/>
<path d="M131.309 391.239C129.062 390.646 126.727 390.293 124.342 390.189C117.624 389.896 110.901 391.78 104.407 395.991C88.7551 406.14 77.5291 425.394 77.4535 446.887C77.3596 473.564 93.6567 501.211 128.037 527.533L136.223 516.818C104.95 492.875 90.8856 468.956 90.9632 446.927C91.0222 430.148 99.8228 415.06 111.764 407.318C115.928 404.618 119.898 403.507 123.777 403.676C129.524 403.926 135.196 407.015 140.321 411.862C141.592 413.065 142.707 414.255 143.667 415.406C144.217 416.064 144.582 416.53 144.718 416.724L155.766 408.951C155.425 408.466 154.847 407.721 154.049 406.765C152.764 405.225 151.285 403.624 149.608 402.038C144.158 396.882 138.05 393.02 131.309 391.239Z" fill="black"/>
<path d="M133.488 455.197L113.689 436.062" stroke="black" stroke-width="0.01875" stroke-miterlimit="10" stroke-linecap="round" stroke-linejoin="round"/>
<path d="M116.125 429.774C113.669 428.826 110.774 429.357 108.83 431.369C106.238 434.051 106.301 438.325 108.983 440.917L128.805 460.051C131.487 462.643 135.761 462.581 138.353 459.899C140.945 457.216 140.856 452.934 138.173 450.342L118.378 431.216C117.708 430.568 116.943 430.089 116.125 429.774Z" fill="black"/>
<path d="M631.157 112.789L618.939 143.381C612.819 140.286 606.693 137.366 600.575 134.603L596.33 183.822C625.884 196.853 655.552 213.048 684.65 233.291C684.65 233.291 686.342 233.916 686.524 233.989C686.633 207.344 686.455 180.094 685.939 152.279C667.68 137.229 649.398 124.192 631.157 112.789Z" fill="#B7F2CC"/>
<path d="M542.676 70.0139C529.581 65.4237 516.573 61.5941 503.698 58.4736L487.001 99.3864C479.394 97.9995 471.873 96.8149 464.414 95.7757L457.156 143.247C501.433 150.225 548.732 162.834 596.331 183.822L600.576 134.603C595.118 132.137 589.665 129.796 584.219 127.572L582.205 86.1422C568.95 79.9549 555.77 74.6041 542.676 70.0139Z" fill="#93E9CA"/>
<path d="M310.897 57.1699C283.452 62.9728 257.867 70.6631 234.885 79.1946C234.885 79.1946 227.008 107.9 215.146 151.786C215.146 151.786 259.61 140.06 325.784 136.662C326.928 131.645 334.731 97.1966 334.731 97.1966L335.495 93.4797C326.528 94.3414 317.827 95.3207 309.727 96.4698L310.897 57.1699Z" fill="#DFFFEA"/>
<path d="M655.344 214.479C655.756 223.267 653.919 257.334 650.889 304.05C661.207 309.232 671.501 314.621 681.734 320.493L685.016 322.506C685.82 293.894 686.4 264.666 686.528 234.435L684.65 233.292C674.947 226.542 665.147 220.376 655.344 214.479Z" fill="#93E9CA"/>
<path d="M554.066 167.19C548.092 165.136 542.138 163.232 536.206 161.416L534.481 162.897C534.463 170.965 530.584 207.593 525.061 256.004C566.39 267.333 608.873 282.948 650.89 304.049C653.92 257.333 655.757 223.266 655.345 214.478C621.686 194.23 587.615 178.721 554.066 167.19Z" fill="#DFFFEA"/>
<path d="M530.826 159.847C482.345 145.543 435.593 138.873 393.554 136.638C388.72 162.013 384.429 184.417 375.773 230.431C421.283 233.947 472.158 241.504 525.06 256.005C530.583 207.594 534.462 170.966 534.48 162.898L530.826 159.847Z" fill="#93E9CA"/>
<path d="M439.783 48.1821C415.497 46.2378 392.014 46.7061 369.338 48.61L353.052 91.9938C346.761 92.4116 340.749 92.9682 334.793 93.5475L334.735 97.0496C334.733 97.1308 334.718 97.2609 334.7 97.3402L325.785 136.662C363.481 134.726 408.297 135.548 457.155 143.247L464.413 95.7762C456.23 94.636 448.126 93.677 440.176 92.961L439.783 48.1821Z" fill="#B7F2CC"/>
<path d="M393.555 136.637C335.234 133.537 286.439 138.899 254.755 144.179C246.654 174.071 238.616 203.704 231.246 231.376C264.188 228.237 315.036 225.737 375.774 230.43C384.43 184.416 388.721 162.012 393.555 136.637Z" fill="#82D4D5"/>
<path d="M254.755 144.18C240.706 146.52 229.655 148.807 223.191 150.346C222.343 150.548 217.443 152.164 214.854 152.964C208.811 175.323 200.168 207.846 192.484 236.566C193.099 236.403 194.742 235.872 195.032 235.825C201.083 234.846 213.767 233.042 231.246 231.377C238.616 203.705 246.654 174.072 254.755 144.18Z" fill="#93E9CA"/>
<path d="M305.136 227.808C248.322 228.056 207.705 233.773 195.031 235.825C194.741 235.872 193.098 236.403 192.483 236.566C183.941 268.49 176.416 296.574 167.07 332.08C192.954 331.204 230.989 330.833 281.207 333.421C292.856 281.844 296.717 264.865 305.136 227.808Z" fill="#B7F2CC"/>
<path d="M442.658 238.225C391.491 230.068 344.462 227.635 305.136 227.807C296.717 264.864 292.856 281.843 281.207 333.42C323.367 335.593 372.48 340.016 425.924 347.922L442.658 238.225Z" fill="#DFFFEA"/>
<path d="M560.213 266.568C519.865 253.258 480.185 244.209 442.658 238.226L425.924 347.923C474.349 355.087 526.045 365.062 579.543 379.284L588.375 276.607C578.97 273.048 569.566 269.654 560.213 266.568Z" fill="#B7F2CC"/>
<path d="M588.375 276.606L579.543 379.283C613.062 388.194 647.179 398.686 681.416 411.082C682.893 382.479 684.155 353.097 685.016 322.505L681.734 320.492C650.881 302.788 619.542 288.4 588.375 276.606Z" fill="#93E9CA"/>
<path d="M650.498 400.326C647.557 399.353 644.639 398.473 641.702 397.527L630.918 523.242C645.073 525.761 659.152 528.259 673.506 530.866C676.583 493.4 679.239 453.257 681.416 411.082C671.102 407.348 660.779 403.727 650.498 400.326Z" fill="#B7F2CC"/>
<path d="M641.702 397.527C597.706 383.35 554.246 372.098 512.32 363.241C506.295 413.476 502.23 447.772 495.807 499.848C539.058 507.088 584.376 514.962 630.918 523.242L641.702 397.527Z" fill="#82D4D5"/>
<path d="M512.32 363.241C456.393 351.426 403.272 343.811 355.408 339.006C344.978 394.617 340.465 418.635 330.271 473.107C380.178 480.884 435.432 489.742 495.807 499.848C502.23 447.772 506.296 413.476 512.32 363.241Z" fill="#B7F2CC"/>
<path d="M355.409 339.007C295.152 332.958 243.396 331.342 204.879 331.375C193.403 375.376 183.525 413.933 174.469 449.648C212.528 455.144 264.794 462.905 330.272 473.108C340.466 418.636 344.979 394.618 355.409 339.007Z" fill="#82D4D5"/>
<path d="M204.878 331.374C189.129 331.388 178.008 331.709 167.07 332.079C157.075 370.051 147.339 407.641 137.949 444.38C148.122 445.802 155.489 446.906 174.468 449.647C183.524 413.932 193.402 375.375 204.878 331.374Z" fill="#93E9CA"/>
<path d="M252.552 461.229C196.298 452.783 159.13 447.342 137.95 444.38C128.942 479.625 120.904 511.923 113.873 541.068C136.022 552.645 173.896 570.589 224.333 588.055C232.178 552.208 242.639 505.589 252.552 461.229Z" fill="#93E9CA"/>
<path d="M405.018 484.936C345.121 475.296 297.128 467.95 252.542 461.256C242.632 505.605 232.176 552.216 224.332 588.055C268.764 603.442 322.44 618.246 383.263 627.386L405.018 484.936Z" fill="#C3C4E1"/>
<path d="M568.129 512.133C510.328 502.142 455.771 493.106 405.019 484.937L383.264 627.387C436.641 635.408 495.356 638.936 557.589 634.819L568.129 512.133Z" fill="#93E9CA"/>
<path d="M673.506 530.867C637.682 524.361 602.482 518.071 568.128 512.133L557.588 634.82C592.458 632.514 628.398 627.835 665.186 620.04C668.08 592.062 670.909 562.505 673.506 530.867Z" fill="#DFFFEA"/>
<path d="M665.187 620.039C650.628 623.124 636.221 625.684 621.933 627.852L614.598 713.262C628.713 707.016 642.954 699.936 657.296 691.953C659.916 669.809 662.563 645.41 665.187 620.039Z" fill="#93E9CA"/>
<path d="M621.933 627.853C572.201 635.4 524.244 637.661 478.839 636.13C474.114 673.79 464.501 751.199 464.445 751.647C512.057 747.954 562.464 736.336 614.598 713.263L621.933 627.853Z" fill="#B7F2CC"/>
<path d="M478.812 636.12C414.764 633.96 355.868 624.404 304.313 611.735C297.962 645.719 282.941 726.05 282.941 726.05L283.973 729.433C336.541 746.33 397.714 756.822 464.444 751.646C464.5 751.198 474.086 673.783 478.812 636.12Z" fill="#82D4D5"/>
<path d="M147.61 557.445C134.461 611.092 125.582 648.309 125.459 648.842C157.303 671.904 212.449 706.443 283.974 729.433L282.942 726.05C282.942 726.05 297.963 645.719 304.314 611.735C238.186 595.484 184.653 574.389 147.61 557.445Z" fill="#B7F2CC"/>
<path d="M113.872 541.068C105.533 575.632 98.3844 606.335 94.9648 624.849C94.9648 624.849 106.023 634.766 125.458 648.842C125.581 648.309 134.46 611.092 147.609 557.445C133.966 551.205 122.679 545.672 113.872 541.068Z" fill="#DFFFEA"/>
<path d="M631.917 106.082C629.01 105.758 626.072 107.35 624.901 110.283L615.364 134.17C611.384 132.237 607.422 130.271 603.351 128.432C599.107 126.515 594.244 129.374 593.844 134.013L589.599 183.233C589.351 186.11 590.967 188.845 593.61 190.01C624.144 203.473 653.206 219.647 680.804 238.847C681.275 239.174 681.785 239.438 682.323 239.636C682.381 239.658 684.037 240.254 684.018 240.246C688.446 242.03 693.269 238.8 693.289 234.027C693.4 206.737 693.201 179.462 692.694 152.165C692.658 150.192 691.758 148.331 690.235 147.076C672.254 132.255 653.794 118.971 634.737 107.058C633.844 106.5 632.886 106.19 631.917 106.082ZM634.377 122.919C649.688 132.837 664.627 143.651 679.228 155.542C679.619 177.687 679.768 199.826 679.75 221.964C655.395 205.735 629.982 191.691 603.464 179.719L606.457 144.917C609.603 146.417 612.801 147.841 615.889 149.402C619.427 151.191 623.727 149.569 625.198 145.887L634.377 122.919Z" fill="#626262"/>
<path d="M544.924 63.6431C531.768 59.0311 518.542 55.1312 505.295 51.9208C502.048 51.1338 498.721 52.8203 497.458 55.9138L482.789 91.8632C477.071 90.8834 471.355 89.932 465.343 89.0944C461.683 88.5845 458.291 91.1061 457.733 94.7589L450.475 142.23C449.913 145.905 452.441 149.342 456.113 149.921C503.28 157.354 549.391 170.512 593.611 190.01C597.849 191.879 602.666 189.026 603.065 184.412L607.31 135.192C607.556 132.337 605.964 129.612 603.352 128.432C599.18 126.548 594.972 124.803 590.754 123.037L588.94 85.8156C588.819 83.3129 587.322 81.0847 585.052 80.0249C571.762 73.8216 558.406 68.369 544.924 63.6431ZM540.429 76.3856C552.25 80.5293 564.005 85.3323 575.681 90.6508L577.486 127.899C577.613 130.52 579.23 132.819 581.66 133.812C585.605 135.423 589.516 137.159 593.419 138.875L590.411 173.998C549.823 156.927 507.767 144.984 464.84 137.725L470.071 103.502C475.377 104.304 480.698 105.107 485.789 106.035C488.932 106.608 492.035 104.905 493.242 101.947L507.702 66.551C518.639 69.3717 529.553 72.5729 540.429 76.3856Z" fill="#626262"/>
<path d="M442.764 42.1082C442.021 41.7428 441.184 41.5292 440.312 41.4594C417.003 39.5933 393.441 39.8155 368.773 41.8868C366.173 42.105 363.929 43.7865 363.012 46.2289L348.227 85.6322C343.985 85.9539 339.979 86.2568 334.139 86.8249C330.722 87.1573 328.115 89.9969 328.058 93.4299L328.008 96.3137L319.199 135.174C318.21 139.539 321.671 143.636 326.141 143.406C369.081 141.201 412.341 143.024 456.113 149.922C459.81 150.504 463.274 147.965 463.84 144.265L471.097 96.7938C471.666 93.0718 469.072 89.6145 465.343 89.0949C458.893 88.1963 452.902 87.5694 446.896 86.9478C446.814 77.6144 446.559 49.3441 446.548 48.1311C446.525 45.5075 444.996 43.2044 442.764 42.1082ZM433.07 54.552C433.154 64.202 433.404 91.8109 433.415 93.0128C433.445 96.4853 436.103 99.3737 439.562 99.6852C444.986 100.174 450.853 100.928 456.673 101.665L451.502 135.611C412.05 129.842 373.031 128.198 334.296 129.693L341.055 99.7833C345.398 99.3876 349.785 98.9831 353.497 98.7366C356.143 98.561 358.45 96.8581 359.382 94.3757L374.141 55.0528C394.386 53.5259 413.874 53.3305 433.07 54.552Z" fill="#626262"/>
<path d="M312.612 50.6251C311.637 50.3708 310.566 50.3335 309.496 50.5597C282.999 56.1622 257.136 63.7345 232.534 72.8675C230.496 73.6241 228.943 75.3058 228.368 77.4023C228.353 77.4589 213.811 130.816 208.62 150.021C207.264 155.035 211.848 159.648 216.87 158.324C216.93 158.308 218.096 158.009 218.611 157.883C220.1 157.519 221.864 157.096 223.897 156.642C229.734 155.336 236.535 153.98 244.202 152.616C266.151 148.712 290.672 145.625 317.155 143.919C320.138 143.727 323.134 143.561 326.14 143.406C329.159 143.251 331.702 141.1 332.374 138.153C332.841 136.104 341.365 98.5528 341.365 98.5528L342.128 94.8359C343.043 90.3848 339.364 86.3225 334.841 86.7571C328.115 87.4035 322.492 88.1275 316.702 88.8527C317.002 78.7722 317.608 58.3609 317.638 57.3772C317.735 54.0975 315.536 51.3879 312.612 50.6251ZM303.889 65.7224C303.575 76.2647 303.019 95.3088 302.991 96.2632C302.866 100.451 306.514 103.753 310.661 103.165C315.471 102.482 321.315 101.881 326.87 101.271C325.331 108.062 321.952 123.09 320.335 130.217C318.986 130.296 317.641 130.357 316.297 130.443C289.288 132.182 264.257 135.34 241.831 139.33C235.35 140.483 229.871 141.609 224.628 142.735C230.613 120.682 239.417 88.287 240.48 84.3854C260.876 76.9633 282.141 70.6961 303.889 65.7224Z" fill="#626262"/>
<path d="M556.261 160.801C550.564 158.843 544.65 156.936 538.187 154.958C535.972 154.28 533.563 154.778 531.807 156.288L530.083 157.769C528.594 159.049 527.741 160.932 527.737 162.895C527.72 169.951 524.427 202.028 518.355 255.245C517.977 258.554 520.057 261.642 523.269 262.523C566.356 274.333 608.087 290.101 647.866 310.079C652.188 312.249 657.327 309.322 657.64 304.496C660.937 253.67 662.512 222.808 662.107 214.159C662.001 211.905 660.76 209.848 658.826 208.684C625.841 188.843 591.495 172.912 556.261 160.801ZM551.873 173.578C585.055 184.984 617.406 199.956 648.567 218.4C648.59 228.298 647.183 254.891 644.725 293.701C608.618 276.26 571.074 262.07 532.385 251.134C537.042 210.093 539.932 182.571 540.811 170.013C544.545 171.202 548.4 172.385 551.873 173.578Z" fill="#626262"/>
<path d="M657.057 207.933C652.842 206.812 648.362 210.08 648.584 214.796C648.953 222.673 647.381 253.654 644.141 303.602C643.965 306.308 645.442 308.862 647.865 310.079C659.376 315.86 669.123 321.043 678.38 326.356L681.492 328.254C685.92 330.971 691.618 327.878 691.764 322.685C692.65 291.167 693.174 262.604 693.292 234.471C693.302 232.104 692.058 229.88 690.035 228.649L688.158 227.507C679.241 221.316 669.872 215.33 658.825 208.684C658.247 208.337 657.659 208.093 657.057 207.933ZM661.968 226.513C668.244 230.441 674.2 234.289 679.739 238.116C679.613 261.446 679.169 285.471 678.513 311.012C672.104 307.459 665.311 303.853 657.89 300.08C660.081 265.973 661.516 240.747 661.968 226.513Z" fill="#626262"/>
<path d="M556.261 160.801C550.564 158.843 544.65 156.936 538.187 154.958C535.972 154.28 533.563 154.778 531.807 156.288L530.083 157.769C528.594 159.049 527.741 160.932 527.737 162.895C527.72 169.951 524.427 202.028 518.355 255.245C517.977 258.554 520.057 261.642 523.269 262.523C566.356 274.333 608.087 290.101 647.866 310.079C652.188 312.249 657.327 309.322 657.64 304.496C660.937 253.67 662.512 222.808 662.107 214.159C662.001 211.905 660.76 209.848 658.826 208.684C625.841 188.843 591.495 172.912 556.261 160.801ZM551.873 173.578C585.055 184.984 617.406 199.956 648.567 218.4C648.59 228.298 647.183 254.891 644.725 293.701C608.618 276.26 571.074 262.07 532.385 251.134C537.042 210.093 539.932 182.571 540.811 170.013C544.545 171.202 548.4 172.385 551.873 173.578Z" fill="#626262"/>
<path d="M532.728 153.363C487.19 139.927 440.675 132.375 393.914 129.89C390.541 129.71 387.558 132.053 386.925 135.371C386.45 137.868 375.457 195.587 369.136 229.191C368.392 233.142 371.239 236.844 375.248 237.154C425.242 241.017 474.779 249.232 523.269 262.524C527.265 263.619 531.299 260.88 531.769 256.764C537.962 202.485 541.21 170.746 541.228 162.901C541.233 160.893 540.345 158.991 538.804 157.704C538.347 157.323 535.606 155.034 535.15 154.653C534.441 154.06 533.614 153.624 532.728 153.363ZM527.493 165.924C527.175 174.497 524.293 202.621 519.213 247.506C474.732 235.817 429.444 228.375 383.784 224.452C389.76 192.766 397.583 151.623 399.075 143.787C442.348 146.492 485.37 153.619 527.493 165.924Z" fill="#626262"/>
<path d="M442.764 42.1082C442.021 41.7428 441.184 41.5292 440.312 41.4594C417.003 39.5933 393.441 39.8155 368.773 41.8868C366.173 42.105 363.929 43.7865 363.012 46.2289L348.227 85.6322C343.985 85.9539 339.979 86.2568 334.139 86.8249C330.722 87.1573 328.115 89.9969 328.058 93.4299L328.008 96.3137L319.199 135.174C318.21 139.539 321.671 143.636 326.141 143.406C369.081 141.201 412.341 143.024 456.113 149.922C459.81 150.504 463.274 147.965 463.84 144.265L471.097 96.7938C471.666 93.0718 469.072 89.6145 465.343 89.0949C458.893 88.1963 452.902 87.5694 446.896 86.9478C446.814 77.6144 446.559 49.3441 446.548 48.1311C446.525 45.5075 444.996 43.2044 442.764 42.1082ZM433.07 54.552C433.154 64.202 433.404 91.8109 433.415 93.0128C433.445 96.4853 436.103 99.3737 439.562 99.6852C444.986 100.174 450.853 100.928 456.673 101.665L451.502 135.611C412.05 129.842 373.031 128.198 334.296 129.693L341.055 99.7833C345.398 99.3876 349.785 98.9831 353.497 98.7366C356.143 98.561 358.45 96.8581 359.382 94.3757L374.141 55.0528C394.386 53.5259 413.874 53.3305 433.07 54.552Z" fill="#626262"/>
<path d="M396.734 130.687C395.894 130.24 394.937 129.944 393.915 129.89C343.296 127.199 296.034 130.449 253.638 137.513C251.033 137.947 248.919 139.865 248.229 142.414C241.366 167.738 228.587 215.087 224.711 229.638C223.5 234.185 227.192 238.537 231.877 238.091C274.771 234.004 323.364 233.145 375.249 237.154C378.685 237.419 381.779 235.058 382.416 231.671C388.735 198.079 399.712 140.402 400.188 137.905C400.762 134.89 399.253 132.028 396.734 130.687ZM385.454 143.089C383.655 152.54 376.086 192.31 370.232 223.362C323.59 220.082 279.787 220.675 240.26 223.948C244.977 206.343 253.861 173.375 260.124 150.244C298.334 144.154 340.45 141.233 385.454 143.089Z" fill="#626262"/>
<path d="M257.056 137.826C256.012 137.444 254.85 137.311 253.636 137.513C240.925 139.631 229.432 141.914 221.628 143.772C220.911 143.943 220.286 144.151 216.23 145.451C216.22 145.454 213.633 146.281 212.865 146.518C210.651 147.201 208.931 148.961 208.326 151.198C204.782 164.309 187.768 228.019 185.947 234.826C184.606 239.837 189.191 244.426 194.206 243.103C194.546 243.013 194.833 242.912 195.618 242.674C195.618 242.674 196.12 242.52 196.373 242.445C204.936 241.065 217.445 239.466 231.875 238.091C234.686 237.823 237.055 235.845 237.782 233.116C241.653 218.583 254.42 171.268 261.282 145.945C262.248 142.383 260.186 138.969 257.056 137.826ZM245.439 152.722C238.749 177.448 229.865 210.424 225.921 225.179C216.674 226.12 208.648 227.093 201.754 228.067C206.024 212.091 216.574 172.621 220.439 158.27C222.46 157.628 224.661 156.942 224.753 156.92C229.996 155.671 237.409 154.199 245.439 152.722Z" fill="#626262"/>
<path d="M308.118 221.733C307.219 221.292 306.2 221.048 305.114 221.053C259.544 221.253 221.176 224.758 193.941 229.168C193.471 229.244 193.219 229.307 192.627 229.481C192.39 229.55 190.866 230.001 190.762 230.029C188.419 230.647 186.574 232.486 185.948 234.826C185.595 236.145 166.058 309.353 160.527 330.368C159.375 334.743 162.78 338.995 167.301 338.842C200.627 337.714 237.623 337.942 280.85 340.17C284.134 340.339 287.072 338.117 287.797 334.911C294.755 304.102 306.573 251.978 311.726 229.297C312.448 226.119 310.816 223.058 308.118 221.733ZM296.639 234.752C291.304 258.247 282.323 297.894 275.869 326.449C238.504 324.654 205.742 324.357 175.928 325.134C182.694 299.572 196.358 248.316 197.983 242.228C222.662 238.336 256.609 235.312 296.639 234.752Z" fill="#626262"/>
<path d="M443.73 231.56C396.871 224.09 350.475 220.854 305.113 221.052C301.97 221.066 299.246 223.253 298.549 226.317C293.395 249.002 281.579 301.118 274.62 331.93C273.697 336.016 276.666 339.953 280.849 340.169C326.839 342.539 375.409 347.286 424.934 354.613C428.612 355.158 432.046 352.615 432.607 348.939C432.738 348.082 449.211 240.099 449.342 239.242C449.901 235.572 447.396 232.145 443.73 231.56ZM434.934 243.971C433.158 255.614 421.982 328.993 420.251 340.339C375.43 333.906 331.505 329.583 289.535 327.19C296.201 297.701 305.439 257.02 310.52 234.645C351.321 234.713 392.931 237.633 434.934 243.971Z" fill="#626262"/>
<path d="M562.327 260.154C523.727 247.42 484.073 237.993 443.73 231.561C440.029 230.971 436.542 233.504 435.977 237.209L419.242 346.906C418.678 350.605 421.232 354.066 424.934 354.614C477.177 362.343 527.922 372.559 577.805 385.821C581.862 386.899 585.917 384.056 586.277 379.874L595.109 277.196C595.368 274.186 593.584 271.348 590.758 270.279C580.52 266.405 571.216 263.086 562.327 260.154ZM558.1 272.983C565.294 275.357 573.113 278.224 581.194 281.227L573.482 370.805C527.74 358.951 481.266 349.574 433.607 342.312L448.299 246.095C485.627 252.373 522.355 261.191 558.1 272.983Z" fill="#626262"/>
<path d="M590.758 270.279C586.567 268.693 582.028 271.553 581.644 276.017L572.812 378.695C572.531 381.962 574.636 384.978 577.805 385.821C612.442 395.029 646.221 405.527 679.116 417.437C683.382 418.981 687.932 415.972 688.166 411.441C689.772 380.326 690.957 351.376 691.764 322.686C691.832 320.271 690.602 318.021 688.542 316.757L685.09 314.63C655.126 297.435 623.7 282.745 590.758 270.279ZM594.323 286.262C623.472 297.727 651.431 310.913 678.13 326.216C677.413 350.679 676.38 375.548 675.081 401.715C646.286 391.548 616.849 382.401 586.768 374.264L594.323 286.262Z" fill="#626262"/>
<path d="M652.613 393.912C651.164 393.433 647.43 392.257 647.359 392.234C645.556 391.669 644.755 391.415 643.763 391.096C639.631 389.764 635.342 392.613 634.971 396.938L624.187 522.654C623.888 526.134 626.293 529.288 629.733 529.9C630.744 530.08 662.545 535.745 672.294 537.515C676.22 538.228 679.922 535.407 680.249 531.43C683.341 493.77 685.992 453.546 688.166 411.441C688.319 408.473 686.513 405.741 683.719 404.729C672.515 400.673 662.331 397.127 652.613 393.912ZM647.716 406.524C647.875 406.576 648.281 406.707 648.385 406.742C656.497 409.425 665.261 412.514 674.387 415.782C672.412 453.215 670.015 489.026 667.306 522.905C656.474 520.959 644.133 518.733 638.174 517.671L647.716 406.524Z" fill="#626262"/>
<path d="M643.763 391.095C601.224 377.387 557.774 365.931 513.73 356.627C509.849 355.807 506.104 358.49 505.631 362.428C505.46 363.853 492.126 474.427 489.092 499.027C488.649 502.616 491.117 505.898 494.684 506.495C536.168 513.439 580.978 521.225 629.733 529.899C633.642 530.595 637.312 527.788 637.652 523.832C637.736 522.85 648.351 399.099 648.436 398.117C648.705 394.982 646.759 392.06 643.763 391.095ZM634.505 402.378C633.646 412.394 625.941 502.308 624.825 515.315C581.334 507.597 540.918 500.611 503.295 494.291C506.841 465.324 516.743 382.856 518.115 371.455C557.482 379.997 596.378 390.277 634.505 402.378Z" fill="#626262"/>
<path d="M513.73 356.628C461.248 345.541 408.478 337.533 356.088 332.274C352.598 331.924 349.416 334.32 348.769 337.767C347.013 347.133 328.275 447.061 323.632 471.868C322.931 475.614 325.462 479.195 329.228 479.782C383.834 488.291 438.48 497.088 494.684 506.496C498.476 507.131 502.054 504.486 502.525 500.67C505.56 476.056 518.84 365.476 519.011 364.054C519.427 360.581 517.153 357.351 513.73 356.628ZM504.878 368.665C503.684 378.584 493.571 462.362 489.938 492.053C438.508 483.47 388.271 475.34 338.185 467.512C343.601 438.592 357.952 362.13 360.894 346.441C408.782 351.444 456.932 358.758 504.878 368.665Z" fill="#626262"/>
<path d="M356.089 332.273C302.457 326.889 251.671 324.588 204.882 324.628C201.811 324.631 199.11 326.69 198.335 329.662C187.749 370.25 178.019 408.224 167.934 447.997C166.949 451.884 169.537 455.774 173.506 456.347C218.814 462.89 270.868 470.686 329.229 479.781C332.835 480.343 336.24 477.935 336.912 474.347C341.554 449.541 360.293 349.612 362.049 340.246C362.779 336.357 360.026 332.668 356.089 332.273ZM347.393 345.101C344.233 361.952 330.144 437.076 324.83 465.45C272.124 457.258 224.756 450.135 182.855 444.057C191.848 408.647 200.71 374.322 210.12 338.196C252.865 338.319 298.919 340.469 347.393 345.101Z" fill="#626262"/>
<path d="M207.905 325.345C206.997 324.887 205.989 324.628 204.882 324.629C191.24 324.641 181.279 324.83 166.843 325.319C163.861 325.42 161.286 327.483 160.527 330.368C150.824 367.229 141.107 404.705 131.397 442.695C130.4 446.597 133.035 450.505 137.023 451.063C138.931 451.329 167.194 455.436 173.506 456.348C176.927 456.842 180.156 454.649 181.006 451.298C191.083 411.554 200.847 373.644 211.425 333.088C212.263 329.876 210.628 326.72 207.905 325.345ZM196.122 338.294C186.937 373.582 178.258 407.355 169.438 442.095C161.735 440.982 153.166 439.756 146.399 438.781C155.045 405.013 163.697 371.601 172.338 338.733C180.72 338.473 188.394 338.362 196.122 338.294Z" fill="#626262"/>
<path d="M253.571 454.548C199.98 446.501 161.337 440.839 138.88 437.699C135.474 437.223 132.25 439.363 131.398 442.695C122.453 477.695 114.408 510.09 107.313 539.499C106.586 542.512 107.996 545.629 110.743 547.065C141.215 562.991 178.815 579.442 222.114 594.436C225.937 595.76 230.076 593.444 230.94 589.492C236.343 564.808 241.596 541.23 253.952 485.977C253.958 485.947 257.722 469.082 259.15 462.693C260.005 458.869 257.446 455.129 253.571 454.548ZM244.391 466.863C241.253 480.909 225.772 550.217 219.417 579.061C181.947 565.741 149.06 551.406 121.749 537.414C128.107 511.16 135.23 482.588 143.038 451.951C164.366 454.959 198.653 460.009 244.391 466.863Z" fill="#626262"/>
<path d="M406.091 478.271C352.782 469.692 306.986 462.594 253.562 454.573C250.057 454.047 246.721 456.333 245.948 459.793C244.538 466.105 223.14 561.898 217.73 586.619C216.998 589.963 218.88 593.315 222.114 594.435C273.122 612.1 326.442 625.682 382.249 634.068C385.931 634.621 389.386 632.084 389.948 628.403C390.118 627.29 411.533 487.067 411.703 485.954C412.263 482.287 409.753 478.861 406.091 478.271ZM397.33 490.575C395.462 502.808 379.507 607.268 377.618 619.633C327.139 611.639 278.756 599.267 232.265 583.501C237.376 560.198 242.415 537.46 253.873 486.217C253.897 486.111 256.1 476.3 257.756 468.896C306.09 476.169 349.13 482.84 397.33 490.575Z" fill="#626262"/>
<path d="M569.289 505.466C514.975 496.078 460.945 487.1 406.089 478.271C402.386 477.675 398.903 480.211 398.336 483.919L376.582 626.369C376.018 630.062 378.552 633.513 382.247 634.068C439.809 642.718 498.692 645.487 558.032 641.562C561.361 641.342 564.036 638.733 564.322 635.409C564.404 634.451 574.779 513.68 574.862 512.721C575.162 509.228 572.744 506.063 569.289 505.466ZM560.857 517.758C559.89 529.016 552.28 617.724 551.364 628.388C497.278 631.565 443.61 629.081 390.998 621.614L410.666 492.689C461.098 500.829 510.885 509.145 560.857 517.758Z" fill="#626262"/>
<path d="M674.721 524.218C635.448 517.086 601.285 510.997 569.289 505.466C565.389 504.792 561.735 507.599 561.397 511.542L550.857 634.23C550.503 638.352 553.904 641.835 558.032 641.562C594.611 639.142 630.749 634.244 666.59 626.65C669.458 626.042 671.61 623.661 671.911 620.745C675.099 589.926 677.832 560.858 680.249 531.429C680.533 527.966 678.14 524.839 674.721 524.218ZM666.225 536.43C664.079 562.067 661.688 587.641 658.95 614.373C627.903 620.734 596.617 625.02 564.991 627.43L574.215 520.086C602.403 524.98 632.454 530.31 666.225 536.43Z" fill="#626262"/>
<path d="M667.008 613.529C666.001 613.245 664.907 613.191 663.786 613.429C649.857 616.38 635.643 618.923 620.914 621.159C617.828 621.627 615.469 624.153 615.202 627.263L607.868 712.673C607.429 717.789 612.63 721.523 617.326 719.445C631.816 713.032 646.25 705.829 660.591 697.846C662.486 696.792 663.742 694.892 663.997 692.739C666.472 671.811 669.094 648 671.913 620.745C672.267 617.327 670.032 614.381 667.008 613.529ZM657.457 628.446C655.182 650.149 653.018 670.225 650.974 687.65C641.457 692.867 631.907 697.628 622.33 702.133L628.209 633.678C638.152 632.104 647.877 630.345 657.457 628.446Z" fill="#626262"/>
<path d="M623.994 621.42C623.037 621.111 621.993 620.995 620.913 621.159C573.59 628.34 526.244 630.962 479.083 629.373C475.593 629.255 472.567 631.817 472.133 635.281C470.661 647.008 457.635 751.617 457.738 750.798C457.201 755.043 460.712 758.719 464.978 758.388C516.11 754.422 566.94 741.743 617.325 719.445C619.579 718.447 621.121 716.307 621.332 713.852C621.389 713.185 628.609 629.109 628.666 628.442C628.947 625.177 626.867 622.348 623.994 621.42ZM614.499 635.616C613.37 648.764 608.813 701.586 608.21 708.612C563.161 728.113 517.79 739.697 472.193 744.103C473.66 732.312 482.516 661.153 484.792 642.945C527.918 644.068 571.223 641.695 614.499 635.616Z" fill="#626262"/>
<path d="M481.793 630.047C480.962 629.637 480.048 629.399 479.056 629.365C419.926 627.37 361.964 618.957 305.912 605.183C302.145 604.257 298.388 606.683 297.676 610.496C295.565 621.789 276.492 723.802 276.304 724.811C276.104 725.88 276.154 726.991 276.471 728.031L277.503 731.414C278.148 733.531 279.807 735.189 281.914 735.866C341.228 754.931 402.526 763.233 464.978 758.389C468.173 758.141 470.751 755.675 471.153 752.495C471.037 753.414 484.05 648.692 485.521 636.969C485.892 634.013 484.288 631.277 481.793 630.047ZM471.2 642.525C468.69 662.628 459.409 737.336 458.434 745.196C401.153 748.917 344.845 741.302 290.165 724.225C291.238 718.484 305.96 639.634 309.646 619.918C362.081 632.364 416.092 640.172 471.2 642.525Z" fill="#626262"/>
<path d="M150.43 551.319C146.576 549.556 142.067 551.733 141.058 555.849C135.289 579.385 119.126 646.269 118.881 647.325C118.266 649.972 119.296 652.707 121.497 654.3C140.927 668.373 162.653 682.193 186.621 695.108C216.674 711.302 248.511 725.128 281.914 735.865C287.105 737.534 292.037 732.668 290.447 727.453L289.882 725.641C290.421 722.755 308.875 624.103 310.955 612.975C311.613 609.453 309.391 606.037 305.912 605.182C248.636 591.106 196.714 572.489 150.43 551.319ZM152.266 566.888C195.689 586.25 243.852 603.358 296.521 616.689C293.033 635.351 278.62 712.365 277.201 719.953C222.774 701.413 174.427 675.371 133.118 645.944C134.597 639.791 145.9 592.99 152.266 566.888Z" fill="#626262"/>
<path d="M117.005 535.074C113.111 533.039 108.342 535.228 107.312 539.499C97.5188 580.092 91.4291 606.814 88.3268 623.61C87.8994 625.924 88.7137 628.297 90.4657 629.868C90.8478 630.21 91.5634 630.852 92.6069 631.747C94.3237 633.219 96.3456 634.902 98.6612 636.791C105.252 642.17 112.885 648.065 121.497 654.301C125.409 657.135 130.947 655.065 132.039 650.359C132.271 649.359 148.399 582.563 154.164 559.043C154.936 555.894 153.378 552.668 150.43 551.32C137.584 545.444 126.266 539.914 117.005 535.074ZM118.478 550.939C124.925 554.182 131.98 557.583 139.764 561.199C134.038 584.649 124.216 625.288 121.349 637.18C116.457 633.484 111.275 629.662 107.206 626.341C105.367 624.84 103.849 623.547 102.414 622.328C105.332 607.139 110.615 583.75 118.478 550.939Z" fill="#626262"/>
<mask id="mask0_415_11435" style="mask-type:luminance" maskUnits="userSpaceOnUse" x="69" y="31" width="662" height="738">
<path d="M730.751 31.9336H69.252V768.043H730.751V31.9336Z" fill="white"/>
<path d="M542.676 70.0144C529.581 65.4242 516.573 61.5946 503.698 58.4741L487.001 99.3869C471.048 96.4784 455.374 94.3295 440.177 92.961L439.784 48.1821C415.498 46.2378 392.015 46.7061 369.339 48.61L353.053 91.9938C337.553 93.023 323.013 94.5853 309.729 96.4699L310.899 57.17C283.454 62.9729 257.869 70.6632 234.887 79.1947C234.887 79.1947 187.201 253.375 146.964 408.99C140.651 402.276 125.789 390.186 108.098 401.658C85.9153 416.042 62.811 461.275 120.741 512.734C109.003 560.243 99.3 601.383 94.9657 624.849C94.9657 624.849 353.065 861.293 657.296 691.953C661.383 657.403 665.59 618.527 669.527 576.266C694.133 569.723 708.217 548.017 713.038 531.963C720.259 507.919 712.446 494.25 696.924 470.181C692.767 463.735 686.098 461.514 678.615 461.599C684.555 369.665 688.045 265.745 685.94 152.279C667.681 137.229 649.399 124.192 631.158 112.789L618.94 143.381C607.359 137.525 595.768 132.289 584.219 127.572L582.205 86.1427C568.95 79.9554 555.77 74.6046 542.676 70.0144Z" fill="black"/>
</mask>
<g mask="url(#mask0_415_11435)">
<path d="M542.676 70.0144C529.581 65.4242 516.573 61.5946 503.698 58.4741L487.001 99.3869C471.048 96.4784 455.374 94.3295 440.177 92.961L439.784 48.1821C415.498 46.2378 392.015 46.7061 369.339 48.61L353.053 91.9938C337.553 93.023 323.013 94.5853 309.729 96.4699L310.899 57.17C283.454 62.9729 257.869 70.6632 234.887 79.1947C234.887 79.1947 187.201 253.375 146.964 408.99C140.651 402.276 125.789 390.186 108.098 401.658C85.9153 416.042 62.811 461.275 120.741 512.734C109.003 560.243 99.3 601.383 94.9657 624.849C94.9657 624.849 353.065 861.293 657.296 691.953C661.383 657.403 665.59 618.527 669.527 576.266C694.133 569.723 708.217 548.017 713.038 531.963C720.259 507.919 712.446 494.25 696.924 470.181C692.767 463.735 686.098 461.514 678.615 461.599C684.555 369.665 688.045 265.745 685.94 152.279C667.681 137.229 649.399 124.192 631.158 112.789L618.94 143.381C607.359 137.525 595.768 132.289 584.219 127.572L582.205 86.1427C568.95 79.9554 555.77 74.6046 542.676 70.0144Z" stroke="black" stroke-width="0.0375" stroke-miterlimit="10" stroke-linejoin="round"/>
</g>
<path d="M542.675 70.0144C529.58 65.4242 516.572 61.5945 503.697 58.4741L487 99.3869C471.047 96.4784 455.373 94.3295 440.176 92.961L439.783 48.1821C415.497 46.2378 392.014 46.7061 369.338 48.61L353.052 91.9938C337.552 93.023 323.012 94.5853 309.728 96.4699L310.898 57.17C283.453 62.9729 257.867 70.6632 234.886 79.1947C234.886 79.1947 114.635 518.351 94.9648 624.849C94.9648 624.849 353.064 861.293 657.295 691.953C672.636 562.255 690.079 375.463 685.939 152.279C667.68 137.229 649.398 124.192 631.157 112.789L618.939 143.381C607.358 137.525 595.767 132.289 584.218 127.572L582.204 86.1427C568.949 79.9554 555.769 74.6046 542.675 70.0144Z" stroke="black" stroke-width="0.01875" stroke-miterlimit="10" stroke-linejoin="round"/>
<path d="M547.145 57.2628C533.778 52.5768 520.338 48.595 506.874 45.3318C500.379 43.7578 493.708 47.1844 491.183 53.3714L478.541 84.3573C470.122 82.9912 461.8 81.8319 453.569 80.8892L453.284 48.0703C453.223 41.0738 447.85 35.2758 440.875 34.7174C417.18 32.8205 393.226 33.0615 368.206 35.1623C363.006 35.5989 358.518 38.9619 356.685 43.8466L343.4 79.2693C336.742 79.8073 330.168 80.4183 323.702 81.1543L324.413 57.5654C324.673 48.8195 316.655 42.1385 308.094 43.9485C281.267 49.6208 255.089 57.293 230.182 66.5394C226.103 68.0536 223.017 71.448 221.868 75.6443C221.792 75.9217 204.155 140.789 197.896 163.993C180.015 230.294 162.313 296.657 146.084 358.697C143.554 368.369 141.2 377.51 138.778 386.83C137.98 386.488 137.218 386.087 136.394 385.789C124.783 381.592 112.392 382.777 100.742 390.331C84.4294 400.909 72.3704 420.362 70.8965 442.388C69.2392 467.153 80.7553 492.744 105.798 517.11C93.7858 565.979 85.4987 601.714 81.6786 622.395C80.833 626.974 82.4071 631.67 85.8399 634.814C86.52 635.437 87.7666 636.534 89.5489 638.061C92.4529 640.549 95.8622 643.366 99.776 646.473C110.884 655.292 123.792 664.672 138.388 674.258C179.841 701.483 226.525 724.951 277.481 741.585C343.141 763.019 411.089 771.456 480.326 763.789C542.086 756.951 603.467 737.39 663.875 703.766C667.664 701.657 670.211 697.84 670.721 693.533C674.852 658.603 678.645 622.731 682.124 586.129C692.412 581.782 701.416 575.103 708.87 566.56C716.841 557.425 722.784 546.49 725.982 535.843C730.238 521.669 730.326 509.442 726.381 497.003C723.296 487.275 718.818 479.217 708.27 462.86C704.349 456.78 699.022 452.728 692.752 450.42C698.808 352.066 701.334 253.148 699.458 152.025C699.385 148.079 697.584 144.356 694.539 141.846C676.33 126.836 657.622 113.395 638.316 101.326C631.176 96.862 621.741 99.9469 618.617 107.768L611.762 124.951C607.004 122.728 602.172 120.593 597.314 118.511L595.701 85.497C595.458 80.4917 592.465 76.0352 587.924 73.9156C574.432 67.6174 560.839 62.063 547.145 57.2628ZM542.677 70.014C555.771 74.6042 568.951 79.955 582.206 86.1423L584.22 127.572C595.769 132.289 607.36 137.525 618.941 143.381L631.159 112.789C649.4 124.192 667.682 137.229 685.941 152.279C688.046 265.745 684.556 369.665 678.616 461.599C686.099 461.514 692.768 463.735 696.925 470.181C712.447 494.25 720.26 507.919 713.039 531.963C708.218 548.017 694.134 569.723 669.528 576.266C665.591 618.527 661.384 657.403 657.297 691.953C353.066 861.293 94.9663 624.849 94.9663 624.849C99.3005 601.383 109.004 560.243 120.742 512.734C62.8116 461.275 85.9159 416.042 108.099 401.658C125.79 390.186 140.652 402.276 146.965 408.99C187.202 253.375 234.888 79.1943 234.888 79.1943C257.869 70.6628 283.455 62.9725 310.9 57.1696L309.73 96.4695C323.014 94.5849 337.554 93.0226 353.054 91.9934L369.34 48.6096C392.016 46.7057 415.499 46.2374 439.785 48.1817L440.178 92.9606C455.375 94.3291 471.049 96.478 487.002 99.3865L503.699 58.4737C516.574 61.5941 529.582 65.4238 542.677 70.014Z" fill="black"/>
<path d="M544.923 63.6436C531.767 59.0316 518.541 55.1317 505.294 51.9213C502.047 51.1343 498.72 52.8208 497.457 55.9143L482.788 91.8637C470.627 89.769 458.65 88.1538 446.895 86.9478L446.547 48.1311C446.516 44.6329 443.798 41.7386 440.311 41.4594C417.002 39.5933 393.44 39.8155 368.772 41.8868C366.172 42.1051 363.928 43.7865 363.011 46.2289L348.226 85.6322C337.459 86.4254 326.96 87.5185 316.711 88.826L317.638 57.3773C317.768 53.0043 313.776 49.6548 309.496 50.5598C282.999 56.1623 257.136 63.7346 232.534 72.8676C230.495 73.6247 228.943 75.3043 228.368 77.4024C228.292 77.6788 210.66 142.536 204.405 165.725C186.533 231.98 168.864 298.275 152.645 360.268C139.758 409.529 128.329 454.01 118.692 492.54C103.385 553.741 92.9822 598.402 88.3261 623.61C87.9033 625.899 88.7037 628.251 90.4201 629.823C90.5896 629.979 90.8842 630.254 91.3342 630.653C92.067 631.303 92.9393 632.062 93.9411 632.92C96.7821 635.354 100.133 638.129 103.98 641.183C114.934 649.88 127.688 659.162 142.109 668.633C183.089 695.547 229.222 718.728 279.567 735.163C344.353 756.312 411.378 764.631 479.606 757.077C540.474 750.337 600.967 731.034 660.589 697.847C662.484 696.793 663.74 694.893 663.995 692.74C673.403 613.197 680.572 537.778 685.66 457.586C692.035 357.09 694.615 255.714 692.694 152.166C692.658 150.193 691.758 148.332 690.235 147.077C672.254 132.255 653.794 118.972 634.737 107.059C631.166 104.827 626.462 106.374 624.901 110.284L615.364 134.171C607.304 130.255 599.114 126.537 590.753 123.038L588.939 85.8161C588.818 83.3134 587.321 81.0852 585.051 80.0254C571.761 73.8221 558.405 68.3696 544.923 63.6436ZM540.428 76.3861C552.249 80.5298 564.004 85.3329 575.68 90.6513L577.485 127.9C577.612 130.521 579.229 132.82 581.659 133.813C593.384 138.602 604.777 143.785 615.889 149.403C619.427 151.192 623.727 149.57 625.198 145.888L634.377 122.92C649.681 132.833 664.606 143.65 679.202 155.535C681.005 257.605 678.459 357.635 672.171 456.754C667.176 535.489 660.175 609.646 650.998 687.659C593.926 718.953 536.171 737.23 478.107 743.659C411.897 750.99 346.806 742.903 283.768 722.325C234.644 706.289 189.542 683.63 149.507 657.337C135.436 648.095 123.036 639.052 112.39 630.6C108.676 627.652 105.433 624.99 102.718 622.664C102.615 622.575 102.505 622.457 102.377 622.346C107.237 596.972 117.2 554.192 131.8 495.822C141.423 457.345 152.824 412.928 165.7 363.711C181.909 301.754 199.579 235.446 217.442 169.221C223.454 146.935 239.149 89.2776 240.48 84.3855C260.876 76.9634 282.141 70.6962 303.889 65.7225L302.991 96.2633C302.866 100.451 306.514 103.753 310.661 103.165C324.378 101.219 338.757 99.7153 353.496 98.7366C356.142 98.561 358.449 96.8581 359.381 94.3757L374.14 55.0528C394.384 53.5259 413.873 53.3305 433.069 54.552L433.414 93.0128C433.444 96.4853 436.102 99.3737 439.561 99.6852C454.569 101.037 470.051 103.167 485.788 106.036C488.931 106.609 492.034 104.906 493.241 101.948L507.701 66.5515C518.638 69.3722 529.552 72.5734 540.428 76.3861Z" fill="black"/>
<path d="M185.437 415.417C220.112 308.696 334.737 250.292 441.458 284.967C548.179 319.643 606.584 434.268 571.908 540.989C537.232 647.71 422.607 706.114 315.886 671.439C209.165 636.763 150.761 522.138 185.437 415.417Z" fill="#F3886D" stroke="black" stroke-width="0.01875" stroke-miterlimit="10" stroke-linejoin="round"/>
<path d="M487.091 364.393C478.106 361.598 468.492 359.892 458.477 359.476C420.612 357.9 387.147 375.214 370.142 401.671C361.538 377.289 338.906 354.836 308.6 344.007C263.274 327.811 218.109 343.71 207.701 379.516C201.27 401.641 209.636 426.181 227.647 445.532C219.133 459.327 213.507 474.522 211.704 490.685C203.864 560.974 269.349 622.403 357.976 627.898C446.603 633.393 524.813 580.866 532.653 510.577C533.347 504.36 533.404 498.207 532.985 492.161C544.142 479.327 551.033 463.533 551.753 446.24C553.298 409.112 526.024 376.508 487.091 364.393Z" fill="#F9B192"/>
<path d="M234.944 482.677C234.944 482.677 331.884 439.643 495.29 513.801C495.29 513.801 505.579 520.991 493.733 536.996C481.887 553.001 440.211 590.022 397.474 597.468C354.737 604.914 318.025 603.792 280.522 569.217C243.019 534.642 231.781 495.862 231.781 495.862L234.944 482.677Z" fill="white" stroke="black" stroke-width="0.01875" stroke-miterlimit="10" stroke-linejoin="round"/>
<path d="M238.266 509.767C238.266 509.767 262.083 507.321 280.469 508.343" stroke="black" stroke-width="0.01875" stroke-miterlimit="10" stroke-linecap="round" stroke-linejoin="round"/>
<path d="M492.353 533.939C492.353 533.939 470.296 530.389 457.135 529.963" stroke="black" stroke-width="0.01875" stroke-miterlimit="10" stroke-linecap="round" stroke-linejoin="round"/>
<path d="M438.959 414.469C438.959 414.469 466.456 397.573 500.865 399.485C500.865 399.485 510.809 403.634 515.096 410.629" stroke="black" stroke-width="0.01875" stroke-miterlimit="10" stroke-linecap="round" stroke-linejoin="round"/>
<path d="M307.985 397.22C307.985 397.22 282.918 372.246 255.94 369.469C255.94 369.469 247.708 371.32 235.059 381.1" stroke="black" stroke-width="0.01875" stroke-miterlimit="10" stroke-linecap="round" stroke-linejoin="round"/>
<path d="M185.437 415.417C220.112 308.696 334.737 250.292 441.458 284.967C548.179 319.643 606.584 434.268 571.908 540.989C537.232 647.71 422.607 706.114 315.886 671.439C209.165 636.763 150.761 522.138 185.437 415.417Z" stroke="black" stroke-width="0.01875" stroke-miterlimit="10" stroke-linejoin="round"/>
<path d="M443.553 278.551C333.284 242.722 214.845 303.07 179.017 413.338C143.188 523.607 203.536 642.046 313.805 677.874C424.073 713.703 542.512 653.355 578.341 543.087C614.169 432.818 553.822 314.379 443.553 278.551ZM439.379 291.398C542.552 324.921 599.017 435.739 565.494 538.912C531.971 642.086 421.152 698.551 317.979 665.028C214.805 631.504 158.341 520.686 191.864 417.513C225.387 314.339 336.205 257.874 439.379 291.398Z" fill="black"/>
<path d="M489.098 357.945C479.409 354.93 469.196 353.164 458.747 352.729C423.979 351.282 391.651 364.978 371.643 388.4C359.94 366.094 337.914 347.307 310.875 337.646C262.216 320.258 212.833 337.65 201.208 377.644C194.624 400.295 201.882 425.46 219.519 446.325C211.738 460.1 206.692 474.73 204.997 489.927C196.684 564.458 265.398 628.916 357.564 634.63C449.511 640.331 531.082 585.557 539.36 511.337C539.976 505.813 540.071 500.174 539.811 494.469C551.17 480.568 557.771 464.044 558.5 446.51C560.154 406.777 531.525 371.146 489.098 357.945ZM485.084 370.844C521.967 382.32 546.388 412.733 545.005 445.972C544.368 461.262 538.374 475.661 527.888 487.725C526.713 489.075 526.11 490.846 526.234 492.632C526.642 498.517 526.57 504.226 525.946 509.819C518.545 576.174 443.697 626.457 358.387 621.168C273.3 615.892 211.045 557.491 218.411 491.444C220.056 476.698 225.154 462.426 233.388 449.085C234.985 446.498 234.677 443.156 232.605 440.93C215.587 422.646 208.649 400.466 214.194 381.39C223.386 349.768 264.336 335.367 306.326 350.371C334.009 360.262 355.614 380.833 363.76 403.919C365.629 409.217 372.783 410.048 375.82 405.322C391.945 380.235 423.588 364.784 458.208 366.224C467.487 366.611 476.516 368.178 485.084 370.844Z" fill="black" fill-opacity="0.5"/>
<path d="M434.918 483.348C414.414 476.915 394.457 472.104 375.101 468.824C343.18 463.415 313.957 462.312 287.606 464.629C272.04 465.998 258.41 468.48 246.801 471.64C242.697 472.758 239.126 473.882 236.103 474.97C234.233 475.642 232.928 476.189 232.199 476.512C230.277 477.366 228.862 479.053 228.371 481.098C228.272 481.51 225.313 493.863 225.214 494.275C224.941 495.415 224.977 496.611 225.303 497.736C225.532 498.528 225.98 499.919 226.669 501.82C227.789 504.913 229.181 508.388 230.903 512.191C235.796 522.992 242.229 534.283 250.406 545.514C257.797 555.665 266.299 565.273 275.951 574.172C294.788 591.538 314.27 601.629 335.764 605.738C354.203 609.263 373.603 608.483 398.635 604.122C419.173 600.543 440.625 590.403 461.082 575.944C477.257 564.511 491.881 550.829 499.155 541C506.69 530.82 507.917 521.553 504.113 514.175C503.267 512.532 502.229 511.143 501.1 509.971C500.363 509.206 499.709 508.657 499.165 508.277C498.825 508.04 498.47 507.833 498.092 507.662C476.487 497.857 455.421 489.78 434.918 483.348ZM430.958 496.264C450.601 502.431 470.803 510.161 491.544 519.53C491.75 519.771 491.955 520.034 492.128 520.371C493.442 522.921 492.917 526.737 488.299 532.975C481.948 541.557 468.372 554.27 453.3 564.923C434.348 578.319 414.641 587.635 396.327 590.826C372.763 594.931 354.873 595.645 338.297 592.476C319.327 588.85 302.114 579.931 285.096 564.242C276.114 555.961 268.219 547.008 261.336 537.555C253.726 527.102 247.751 516.603 243.222 506.607C241.648 503.131 240.354 499.982 239.351 497.212C239.127 496.592 238.988 496.101 238.814 495.587C239.289 493.604 239.983 490.678 240.702 487.679C243.387 486.715 246.604 485.705 250.345 484.687C261.192 481.733 274.042 479.391 288.793 478.094C314.008 475.877 342.07 476.931 372.844 482.146C391.622 485.328 411.009 490.002 430.958 496.264Z" fill="black"/>
<path d="M283.451 502.28C282.663 501.894 281.76 501.657 280.829 501.605C277.924 501.444 274.813 501.342 271.509 501.329C268.083 501.316 264.515 501.388 260.796 501.517C255.287 501.709 249.758 502.025 244.49 502.433C242.645 502.576 237.664 503.046 237.571 503.055C233.86 503.436 231.177 506.741 231.558 510.452C231.939 514.162 235.235 516.873 238.946 516.492C239.015 516.485 243.747 516.046 245.527 515.908C250.616 515.514 255.961 515.199 261.263 515.014C264.817 514.891 268.228 514.826 271.469 514.839C274.552 514.851 277.427 514.946 280.086 515.094C283.81 515.301 287.012 512.436 287.219 508.712C287.375 505.919 285.814 503.438 283.451 502.28Z" fill="black"/>
<path d="M493.436 527.277C493.343 527.262 488.332 526.503 486.522 526.244C481.345 525.503 476.139 524.825 471.236 524.295C465.878 523.716 461.193 523.341 457.353 523.217C453.625 523.096 450.502 526.012 450.381 529.74C450.26 533.468 453.176 536.591 456.904 536.712C460.351 536.824 464.722 537.181 469.771 537.727C474.503 538.238 479.569 538.896 484.603 539.617C486.367 539.869 491.19 540.586 491.267 540.598C494.95 541.191 498.437 538.696 499.03 535.013C499.622 531.33 497.118 527.87 493.436 527.277Z" fill="black"/>
<path d="M503.462 393.237C502.754 392.941 501.991 392.789 501.225 392.747C488.295 392.028 475.487 393.701 463.08 397.219C455.812 399.28 449.119 401.842 443.148 404.65C441.043 405.64 439.176 406.591 437.554 407.478C436.55 408.027 435.851 408.459 435.437 408.713C432.259 410.666 431.259 414.843 433.211 418.021C435.164 421.199 439.323 422.164 442.501 420.211C442.535 420.19 443.552 419.604 444.025 419.345C445.412 418.587 447.058 417.749 448.91 416.878C454.245 414.369 460.261 412.078 466.783 410.228C477.454 407.203 488.386 405.747 499.334 406.217C499.756 406.425 500.169 406.65 500.647 406.91C502.523 407.932 504.344 409.097 505.906 410.394C507.42 411.65 508.579 412.949 509.326 414.168C511.275 417.349 515.453 418.343 518.634 416.394C521.814 414.444 522.8 410.293 520.85 407.113C519.252 404.505 517.098 402.134 514.522 399.997C512.22 398.086 509.697 396.454 507.107 395.042C506.205 394.551 505.35 394.112 504.57 393.745C504.077 393.512 503.707 393.339 503.462 393.237Z" fill="black"/>
<path d="M268.894 365.312C264.76 364.041 260.665 363.161 256.619 362.744C255.893 362.67 255.162 362.707 254.449 362.868C253.966 362.976 253.241 363.178 252.291 363.498C250.848 363.984 249.228 364.652 247.412 365.493C242.404 367.812 236.871 371.175 230.937 375.764C227.986 378.045 227.445 382.273 229.727 385.224C232.009 388.175 236.236 388.715 239.187 386.434C244.321 382.464 248.986 379.643 253.076 377.749C254.394 377.139 255.524 376.698 256.483 376.371C259.233 376.732 262.052 377.313 264.942 378.202C274.048 381.002 283.315 386.186 292.169 392.759C295.186 394.999 297.944 397.226 300.353 399.354C301.189 400.092 301.93 400.756 302.549 401.34C302.905 401.676 303.123 401.905 303.221 402.002C305.864 404.635 310.146 404.643 312.779 402.001C315.412 399.358 315.394 395.067 312.751 392.434C312.094 391.78 310.925 390.681 309.292 389.239C306.608 386.869 303.559 384.391 300.221 381.912C290.235 374.498 279.67 368.626 268.894 365.312Z" fill="black"/>
<path d="M443.553 278.551C333.284 242.722 214.845 303.07 179.017 413.338C143.188 523.607 203.536 642.046 313.805 677.874C424.073 713.703 542.512 653.355 578.341 543.087C614.169 432.818 553.822 314.379 443.553 278.551ZM439.379 291.398C542.552 324.921 599.017 435.739 565.494 538.912C531.971 642.086 421.152 698.551 317.979 665.028C214.805 631.504 158.341 520.686 191.864 417.513C225.387 314.339 336.205 257.874 439.379 291.398Z" fill="black"/>
<path d="M481.1 467.399C482.651 456.455 500.769 449.972 521.567 452.92C542.365 455.868 557.968 467.13 556.416 478.074C554.865 489.018 536.748 495.501 515.95 492.553C495.152 489.605 479.549 478.344 481.1 467.399Z" fill="#FF497F" stroke="black" stroke-width="0.01875" stroke-miterlimit="10" stroke-linejoin="round"/>
<path d="M194.668 427.68C194.243 416.634 210.914 407.025 231.904 406.216C252.894 405.408 270.255 413.707 270.68 424.753C271.106 435.798 254.435 445.407 233.444 446.216C212.454 447.024 195.093 438.725 194.668 427.68Z" fill="#FF497F" stroke="black" stroke-width="0.01875" stroke-miterlimit="10" stroke-linejoin="round"/>
<path d="M539.308 450.572C534.203 448.573 528.519 447.091 522.518 446.241C498.514 442.838 476.649 450.643 474.41 466.443C472.17 482.242 490.996 495.847 515 499.249C539.004 502.651 560.877 494.82 563.117 479.02C564.796 467.171 554.624 456.569 539.308 450.572ZM532.698 462.538C543.561 466.389 550.383 472.562 549.735 477.129C548.872 483.217 534.483 488.361 516.892 485.868C499.3 483.375 486.928 474.423 487.791 468.335C488.654 462.246 503.034 457.129 520.626 459.622C525.024 460.245 529.077 461.255 532.698 462.538Z" fill="black"/>
<path d="M256.603 402.774C249.34 400.31 240.726 399.108 231.642 399.457C207.415 400.39 187.298 412.001 187.912 427.947C188.526 443.893 209.468 453.905 233.694 452.972C257.92 452.039 278.037 440.428 277.423 424.482C277.04 414.516 268.708 406.881 256.603 402.774ZM249.958 414.848C258.349 417.15 263.788 421.171 263.936 425.012C264.172 431.157 250.955 438.783 233.2 439.466C215.446 440.15 201.663 433.572 201.427 427.426C201.19 421.281 214.408 413.655 232.162 412.972C238.82 412.715 244.923 413.466 249.958 414.848Z" fill="black"/>
<path d="M631.366 479.814C631.366 479.814 681.395 446.105 696.916 470.173C712.438 494.242 720.274 507.91 713.053 531.954C705.832 555.999 677.946 592.917 624.824 572.189" fill="#F3886D"/>
<path d="M710.232 492.969C658.049 498.598 632.911 541.616 625.987 555.727L624.812 572.182C677.934 592.91 705.818 556.008 713.039 531.963C717.674 516.53 716.055 505.347 710.232 492.969Z" fill="#F9B192"/>
<path d="M644.146 529.707C644.146 529.707 662.254 507.346 689.086 498.09" stroke="black" stroke-width="0.01875" stroke-miterlimit="10" stroke-linecap="round" stroke-linejoin="round"/>
<path d="M692.043 492.031C690.489 491.274 688.642 491.106 686.879 491.714C679.671 494.2 672.701 497.655 666.016 501.92C658.703 506.585 652.096 511.953 646.28 517.581C644.239 519.556 642.442 521.424 640.894 523.14C639.941 524.195 639.278 524.984 638.9 525.451C636.552 528.35 636.999 532.601 639.898 534.948C642.796 537.296 647.047 536.849 649.395 533.95C649.435 533.9 649.544 533.774 649.73 533.556C650.06 533.168 650.475 532.717 650.939 532.203C652.289 530.707 653.856 529.047 655.671 527.29C660.873 522.257 666.802 517.45 673.293 513.309C679.123 509.59 685.135 506.599 691.283 504.478C694.809 503.261 696.68 499.42 695.463 495.894C694.855 494.131 693.597 492.787 692.043 492.031Z" fill="black"/>
<path d="M664.719 511.3C664.719 511.3 675.688 518.726 678.564 527.642" stroke="black" stroke-width="0.01875" stroke-miterlimit="10" stroke-linecap="round" stroke-linejoin="round"/>
<path d="M666.037 504.677C663.455 504.168 660.703 505.208 659.135 507.524C657.044 510.613 657.852 514.808 660.941 516.899C661.009 516.946 661.183 517.067 661.469 517.278C661.98 517.654 662.557 518.099 663.17 518.6C664.921 520.031 666.624 521.61 668.1 523.279C670.117 525.561 671.513 527.778 672.136 529.71C673.281 533.26 677.082 535.213 680.632 534.068C684.183 532.923 686.136 529.122 684.991 525.572C683.718 521.626 681.371 517.909 678.222 514.348C676.219 512.081 673.993 510.011 671.714 508.15C670.338 507.025 669.226 506.202 668.51 505.718C667.738 505.195 666.898 504.847 666.037 504.677Z" fill="black"/>
<path d="M631.366 479.814C631.366 479.814 681.395 446.105 696.916 470.173C712.438 494.242 720.274 507.91 713.053 531.954C705.832 555.999 677.946 592.917 624.824 572.189" stroke="black" stroke-width="0.01875" stroke-miterlimit="10" stroke-linejoin="round"/>
<path d="M688.29 455.954C684.747 454.95 680.838 454.601 676.641 454.832C668.214 455.297 658.834 458.101 648.818 462.599C643.596 464.945 638.509 467.603 633.775 470.376C632.116 471.347 630.632 472.259 629.31 473.097C628.502 473.61 627.91 474.003 627.583 474.223L635.135 485.405C635.18 485.375 636.141 484.766 636.552 484.505C637.744 483.749 639.092 482.924 640.609 482.035C644.951 479.493 649.607 477.031 654.349 474.901C662.986 471.022 670.901 468.658 677.384 468.3C684.12 467.929 688.57 469.699 691.238 473.837C700.825 488.703 704.72 495.703 707.079 503.13C709.762 511.575 709.685 519.642 706.571 530.01C702.745 542.751 694.01 555.516 682.403 563.228C667.828 572.913 649.509 574.586 627.265 565.907L622.377 578.493C648.643 588.741 671.587 586.652 689.902 574.482C704.298 564.917 714.828 549.494 719.514 533.89C723.39 520.984 723.482 510.137 719.952 499.027C717.107 490.071 712.821 482.392 702.583 466.516C699.081 461.086 694.196 457.628 688.29 455.954Z" fill="black"/>
<path d="M630.003 459.121C630.003 459.121 626.715 571.15 620 592.883" stroke="black" stroke-width="0.01875" stroke-miterlimit="10" stroke-linecap="round" stroke-linejoin="round"/>
<path d="M632.798 452.985C632 452.619 631.144 452.409 630.212 452.381C626.484 452.272 623.376 455.184 623.267 458.913C623.265 458.965 622.819 472.102 622.637 476.877C622.116 490.518 621.465 504.495 620.733 517.98C620.54 521.539 620.359 525.013 620.154 528.414C618.234 560.444 615.953 583.125 613.553 590.894C612.452 594.458 614.44 598.222 618.004 599.324C621.568 600.425 625.359 598.445 626.46 594.881C629.328 585.598 631.646 562.665 633.652 529.22C633.858 525.792 634.036 522.28 634.231 518.696C634.967 505.132 635.619 491.097 636.142 477.388C636.325 472.59 636.742 459.385 636.744 459.327C636.826 456.53 635.191 454.081 632.798 452.985Z" fill="black"/>
<path d="M184.566 415.016C219.242 308.295 333.867 249.891 440.588 284.567C547.309 319.242 605.713 433.867 571.037 540.588C536.361 647.31 421.737 705.714 315.016 671.038C208.294 636.362 149.89 521.737 184.566 415.016Z" fill="#F3886D" stroke="black" stroke-width="0.01875" stroke-miterlimit="10" stroke-linejoin="round"/>
<path d="M486.22 363.994C477.236 361.198 467.622 359.493 457.607 359.076C419.741 357.5 386.276 374.814 369.271 401.271C360.667 376.889 338.035 354.437 307.73 343.607C262.404 327.411 217.239 343.31 206.83 379.117C200.399 401.241 208.765 425.782 226.777 445.133C218.262 458.927 212.636 474.123 210.834 490.285C202.994 560.574 268.478 622.003 357.105 627.498C445.732 632.994 523.943 580.466 531.783 510.177C532.476 503.96 532.534 497.808 532.114 491.762C543.271 478.927 550.162 463.134 550.882 445.84C552.427 408.713 525.153 376.108 486.22 363.994Z" fill="#F9B192"/>
<path d="M184.566 415.016C219.242 308.295 333.867 249.891 440.588 284.567C547.309 319.242 605.713 433.867 571.037 540.588C536.361 647.31 421.737 705.714 315.016 671.038C208.294 636.362 149.89 521.737 184.566 415.016Z" stroke="black" stroke-width="0.01875" stroke-miterlimit="10" stroke-linejoin="round"/>
<path d="M442.682 278.151C332.413 242.323 213.975 302.67 178.146 412.939C142.318 523.208 202.665 641.646 312.934 677.475C423.203 713.303 541.641 652.956 577.47 542.687C613.298 432.418 552.951 313.979 442.682 278.151ZM438.508 290.998C541.681 324.521 598.146 435.339 564.623 538.513C531.1 641.686 420.282 698.151 317.108 664.628C213.935 631.105 157.47 520.286 190.993 417.113C224.516 313.939 335.334 257.475 438.508 290.998Z" fill="black"/>
<path d="M488.227 357.544C478.539 354.53 468.326 352.763 457.876 352.328C423.108 350.881 390.781 364.577 370.772 388C359.07 365.694 337.043 346.907 310.004 337.245C261.345 319.858 211.963 337.25 200.337 377.244C193.753 399.894 201.012 425.06 218.649 445.924C210.867 459.699 205.822 474.329 204.127 489.526C195.813 564.057 264.527 628.515 356.693 634.23C448.64 639.931 530.211 585.157 538.49 510.936C539.106 505.412 539.201 499.774 538.94 494.068C550.299 480.168 556.9 463.644 557.63 446.11C559.283 406.376 530.654 370.746 488.227 357.544ZM484.213 370.443C521.097 381.92 545.517 412.332 544.134 445.571C543.498 460.861 537.503 475.261 527.017 487.324C525.843 488.675 525.24 490.446 525.363 492.231C525.771 498.117 525.699 503.825 525.076 509.418C517.674 575.774 442.826 626.057 357.517 620.767C272.429 615.492 210.174 557.091 217.541 491.044C219.185 476.298 224.283 462.025 232.517 448.684C234.114 446.097 233.806 442.755 231.734 440.53C214.716 422.246 207.778 400.066 213.323 380.99C222.515 349.367 263.466 334.966 305.455 349.97C333.138 359.862 354.743 380.433 362.889 403.518C364.759 408.816 371.912 409.648 374.95 404.922C391.074 379.835 422.717 364.383 457.338 365.824C466.616 366.21 475.645 367.777 484.213 370.443Z" fill="black" fill-opacity="0.5"/>
<path d="M442.682 278.151C332.413 242.323 213.975 302.67 178.146 412.939C142.318 523.208 202.665 641.646 312.934 677.475C423.203 713.303 541.641 652.956 577.47 542.687C613.298 432.418 552.951 313.979 442.682 278.151ZM438.508 290.998C541.681 324.521 598.146 435.339 564.623 538.513C531.1 641.686 420.282 698.151 317.108 664.628C213.935 631.105 157.47 520.286 190.993 417.113C224.516 313.939 335.334 257.475 438.508 290.998Z" fill="black"/>
<path d="M480.229 467C481.781 456.055 499.898 449.573 520.696 452.521C541.494 455.468 557.097 466.73 555.546 477.674C553.995 488.619 535.877 495.101 515.079 492.153C494.281 489.206 478.678 477.944 480.229 467Z" fill="#FF497F" stroke="black" stroke-width="0.01875" stroke-miterlimit="10" stroke-linejoin="round"/>
<path d="M193.797 427.28C193.372 416.234 210.043 406.625 231.033 405.817C252.024 405.009 269.384 413.307 269.81 424.353C270.235 435.398 253.564 445.008 232.574 445.816C211.583 446.624 194.222 438.325 193.797 427.28Z" fill="#FF497F" stroke="black" stroke-width="0.01875" stroke-miterlimit="10" stroke-linejoin="round"/>
<path d="M538.437 450.171C533.331 448.172 527.647 446.69 521.646 445.84C497.642 442.438 475.777 450.242 473.538 466.042C471.299 481.842 490.124 495.446 514.128 498.849C538.132 502.251 560.006 494.42 562.245 478.62C563.925 466.77 553.753 456.168 538.437 450.171ZM531.826 462.138C542.69 465.988 549.511 472.161 548.864 476.728C548.001 482.817 533.612 487.961 516.02 485.467C498.428 482.974 486.056 474.023 486.919 467.934C487.782 461.845 502.163 456.728 519.754 459.221C524.152 459.845 528.205 460.854 531.826 462.138Z" fill="black"/>
<path d="M255.731 402.374C248.468 399.909 239.855 398.707 230.77 399.057C206.544 399.99 186.427 411.601 187.041 427.546C187.655 443.492 208.596 453.504 232.823 452.571C257.049 451.638 277.166 440.027 276.552 424.081C276.168 414.115 267.836 406.481 255.731 402.374ZM249.086 414.447C257.478 416.75 262.916 420.77 263.064 424.611C263.301 430.756 250.083 438.382 232.328 439.066C214.574 439.749 200.792 433.171 200.555 427.026C200.318 420.88 213.536 413.255 231.291 412.571C237.949 412.315 244.051 413.066 249.086 414.447Z" fill="black"/>
<path d="M446.139 415.96C448.951 407.304 458.248 402.567 466.904 405.38C475.56 408.192 480.296 417.489 477.484 426.144C474.672 434.8 465.375 439.537 456.719 436.725C448.064 433.912 443.327 424.616 446.139 415.96Z" fill="white" stroke="black" stroke-width="0.0145549" stroke-miterlimit="10" stroke-linejoin="round"/>
<path d="M287.516 394.49C290.328 385.834 299.625 381.098 308.281 383.91C316.936 386.722 321.673 396.019 318.861 404.675C316.048 413.33 306.752 418.068 298.096 415.256C289.44 412.444 284.703 403.146 287.516 394.49Z" fill="white" stroke="black" stroke-width="0.0145549" stroke-miterlimit="10" stroke-linejoin="round"/>
<path d="M459.905 398.939C451.286 399.682 443.528 405.443 440.686 414.189C436.897 425.849 443.306 438.373 454.966 442.158C466.626 445.946 479.147 439.566 482.936 427.908C486.725 416.247 480.346 403.726 468.686 399.939C465.771 398.992 462.778 398.691 459.905 398.939ZM460.905 410.314C462.297 410.194 463.711 410.355 465.124 410.814C470.775 412.65 473.866 418.725 472.03 424.376C470.194 430.028 464.15 433.117 458.499 431.283C452.847 429.446 449.755 423.374 451.591 417.72C452.968 413.482 456.727 410.673 460.905 410.314Z" fill="black"/>
<path d="M301.28 377.47C292.661 378.213 284.903 383.976 282.061 392.72C278.272 404.38 284.681 416.902 296.341 420.689C308.001 424.477 320.522 418.097 324.311 406.439C328.1 394.779 321.721 382.257 310.061 378.47C307.146 377.523 304.153 377.223 301.28 377.47ZM302.28 388.845C303.672 388.725 305.086 388.886 306.499 389.345C312.15 391.181 315.272 397.256 313.436 402.908C311.6 408.559 305.525 411.648 299.874 409.814C294.222 407.978 291.13 401.905 292.966 396.251C294.343 392.013 298.102 389.205 302.28 388.845Z" fill="black"/>
<path d="M289.059 540.541C272.57 530.543 275.991 504.432 292.275 490.124C308.559 475.816 330.736 467.351 365.248 469.838C399.76 472.326 412.753 482.107 430.324 500.074C447.894 518.041 437.391 550.456 419.368 557.967C401.345 565.477 374.907 524.91 359.736 522.445C339.542 519.164 305.549 550.539 289.059 540.541Z" fill="#AC3A34" stroke="black" stroke-width="0.0145549" stroke-miterlimit="10" stroke-linejoin="round"/>
<path d="M425.526 495.355C393.085 491.342 364.972 524.445 364.972 524.445L364.955 524.498C380.456 533.071 403.247 564.686 419.353 557.974C437.376 550.464 447.893 518.047 430.323 500.08C428.686 498.407 427.104 496.888 425.526 495.355Z" fill="#FF5A51" stroke="black" stroke-width="0.0145549" stroke-miterlimit="10" stroke-linejoin="round"/>
<path d="M398.054 470.806C389.116 467.546 378.681 465.559 365.622 464.618C332.119 462.203 307.73 469.556 288.814 486.177C269.531 503.121 266.928 533.254 286.351 545.03C292.035 548.476 298.92 548.523 307.317 546.072C313.06 544.395 317.542 542.43 328.865 537.035C331.363 535.845 332.765 535.179 334.283 534.476C346.267 528.922 353.549 526.748 358.882 527.614C362.727 528.239 367.148 531.686 380.578 543.896C382.235 545.402 383.499 546.542 384.745 547.647C391.632 553.75 396.836 557.744 401.965 560.491C408.964 564.238 415.44 565.289 421.392 562.809C431.892 558.433 440.172 547.229 443.281 534.147C446.593 520.207 443.62 506.188 434.059 496.412C423.295 485.404 415.869 479.263 406.536 474.479C403.845 473.1 401.033 471.892 398.054 470.806ZM394.283 480.588C396.923 481.543 399.41 482.612 401.757 483.815C409.871 487.975 416.518 493.472 426.559 503.74C433.416 510.752 435.62 521.077 433.09 531.723C430.707 541.753 424.483 550.15 417.35 553.121C412.245 555.249 404.422 551.06 391.707 539.789C390.5 538.719 389.257 537.605 387.63 536.127C378.96 528.244 377.655 527.069 374.174 524.357C368.981 520.31 364.709 517.949 360.584 517.278C352.444 515.956 343.769 518.535 329.886 524.969C328.324 525.693 326.9 526.35 324.37 527.556C313.607 532.684 309.366 534.544 304.375 536.002C298.525 537.71 294.455 537.674 291.782 536.053C279.325 528.5 281.181 506.844 295.718 494.071C312.43 479.387 334.055 472.833 364.864 475.054C376.942 475.924 386.366 477.722 394.283 480.588Z" fill="black"/>
<path d="M427.805 490.621C427.297 490.378 426.748 490.223 426.181 490.153C411.617 488.351 397.078 492.995 383.101 502.076C377.245 505.881 371.874 510.21 367.089 514.746C365.411 516.336 363.906 517.836 362.62 519.212C361.832 520.055 361.298 520.684 360.987 521.049C360.545 521.57 360.206 522.177 359.995 522.827L359.978 522.881C359.202 525.269 360.23 527.876 362.428 529.092C366.512 531.351 369.474 533.845 380.571 543.923C382.228 545.428 383.492 546.57 384.737 547.673C391.621 553.768 396.837 557.75 401.966 560.491C408.963 564.231 415.415 565.281 421.367 562.8C431.866 558.425 440.17 547.228 443.282 534.147C446.599 520.206 443.621 506.189 434.06 496.412C432.803 495.126 432.001 494.347 429.622 492.04C429.397 491.822 429.174 491.599 429.174 491.599C428.764 491.201 428.313 490.865 427.805 490.621ZM423.252 500.445C424.353 501.52 425.757 502.899 426.587 503.748C433.444 510.76 435.625 521.077 433.091 531.723C430.705 541.754 424.475 550.176 417.342 553.148C412.232 555.278 404.408 551.069 391.699 539.816C390.493 538.747 389.25 537.631 387.622 536.153C380.153 529.37 376.264 525.983 373.065 523.582C373.496 523.159 373.828 522.794 374.293 522.354C378.643 518.231 383.523 514.281 388.801 510.852C400.336 503.358 411.993 499.521 423.252 500.445Z" fill="black"/>
<path opacity="0.203389" d="M316.783 86.8243L266.465 305.513C181.379 498.925 302.14 662.02 302.14 662.02C302.14 662.02 250.602 645.603 206.209 583.358L179.226 684.67L93.3501 622.363L115.639 506.04L93.7233 479.536C93.7233 479.536 83.0036 430.503 84.1207 424.082C85.2379 417.661 100.982 399.033 100.982 399.033L124.221 388.655L141.337 397.123L163.871 332.244L233.156 71.2822L311.861 52.7588L316.783 86.8243Z" fill="black"/>
<path opacity="0.203389" d="M656.612 512.064C671.223 503.225 677.285 498.027 688.976 497.784C712.552 497.294 711.616 540.513 711.616 540.513C711.616 540.513 711.107 574.689 686.037 574.445C658.716 574.179 651.991 621.147 651.991 621.147L633.968 619.926L624.95 571.538C624.95 571.538 620.558 491.48 628.675 505.416C635.186 516.595 650.489 515.768 656.612 512.064Z" fill="black"/>
</svg>
