<svg width="800" height="800" viewBox="0 0 800 800" fill="none" xmlns="http://www.w3.org/2000/svg">
<path d="M141.629 493.727C141.629 493.727 115.769 474.343 98.122 496.106C80.4742 517.869 72.4896 572.968 158.178 603.209" fill="#F3886D"/>
<path d="M141.629 493.727C141.629 493.727 115.769 474.343 98.122 496.106C80.4742 517.869 72.4896 572.968 158.178 603.209" stroke="black" stroke-width="0.01875" stroke-miterlimit="10" stroke-linejoin="round"/>
<path d="M88.0652 517.561C82.2859 543.669 93.756 580.468 158.191 603.208L149.784 547.703C124.017 528.27 98.1858 520.213 88.0652 517.561Z" fill="#F9B192"/>
<path d="M141.629 493.727C141.629 493.727 115.769 474.343 98.122 496.106C80.4742 517.869 72.4896 572.968 158.178 603.209" stroke="black" stroke-width="0.01875" stroke-miterlimit="10" stroke-linejoin="round"/>
<path d="M116.971 479.039C114.652 479.169 112.324 479.554 110.026 480.192C103.551 481.988 97.7444 485.854 92.8734 491.861C81.1345 506.337 76.4118 528.1 82.976 548.547C91.1235 573.926 115.146 595.165 155.942 609.562L160.413 596.853C123.304 583.757 102.554 565.371 95.8258 544.413C90.7014 528.451 94.4057 511.397 103.362 500.353C106.485 496.501 109.915 494.219 113.653 493.182C119.191 491.646 125.535 492.83 131.901 495.854C133.481 496.604 134.907 497.391 136.175 498.187C136.901 498.644 137.392 498.973 137.581 499.115L145.679 488.318C145.205 487.963 144.426 487.433 143.373 486.772C141.676 485.705 139.776 484.64 137.694 483.651C130.922 480.434 123.926 478.65 116.971 479.039Z" fill="black"/>
<path d="M138.788 539.141L114.066 527.072" stroke="black" stroke-width="0.01875" stroke-miterlimit="10" stroke-linecap="round" stroke-linejoin="round"/>
<path d="M114.439 520.344C111.813 520.202 109.226 521.6 108 524.112C106.365 527.461 107.744 531.503 111.093 533.138L135.837 545.2C139.186 546.835 143.228 545.457 144.863 542.108C146.498 538.758 145.091 534.717 141.742 533.082L117.026 521.019C116.189 520.61 115.314 520.392 114.439 520.344Z" fill="black"/>
<path d="M505.98 60.1113L503.815 92.953C497.043 91.902 490.321 91.0186 483.654 90.2818L494.817 138.364C526.925 141.621 560.116 147.85 594.017 158.102C594.017 158.102 595.818 158.173 596.013 158.187C587.89 132.834 579.308 106.994 570.229 80.7217C548.232 72.0578 526.833 65.3147 505.98 60.1113Z" fill="#B7F2CC"/>
<path d="M408.693 46.7842C394.833 46.4653 381.289 46.8426 368.091 47.8527L364.858 91.8852C357.2 92.916 349.688 94.1126 342.279 95.428L350.039 142.778C394.268 135.738 443.107 133.116 494.818 138.364L483.655 90.2825C477.707 89.6251 471.803 89.084 465.941 88.6516L451.236 49.9053C436.729 48.1183 422.553 47.1031 408.693 46.7842Z" fill="#93E9CA"/>
<path d="M184.482 106.141C160.193 120.129 138.255 135.336 119.051 150.539C119.051 150.539 120.429 180.248 122.707 225.613C122.707 225.613 161.339 200.742 223.172 177.082C222.709 171.962 219.488 136.817 219.488 136.817L219.067 133.049C210.812 136.637 202.846 140.254 195.504 143.847L184.482 106.141Z" fill="#DFFFEA"/>
<path d="M560.361 149.273C563.466 157.497 572.239 190.437 583.783 235.764C595.188 237.502 606.633 239.445 618.171 241.865L621.911 242.765C613.841 215.328 605.368 187.375 596.155 158.608L594.018 158.102C582.713 154.684 571.497 151.85 560.361 149.273Z" fill="#93E9CA"/>
<path d="M449.519 135.608C443.209 135.501 436.963 135.53 430.765 135.636L429.584 137.576C432.057 145.248 439.68 181.251 449.379 228.959C492.149 226.964 537.341 228.685 583.782 235.764C572.238 190.437 563.465 157.497 560.36 149.273C522.124 140.425 484.959 136.207 449.519 135.608Z" fill="#DFFFEA"/>
<path d="M425.17 135.805C374.684 137.182 328.199 145.278 287.562 156.134C290.802 181.739 293.643 204.354 299.625 250.751C343.956 240.04 394.634 231.513 449.381 228.959C439.682 181.251 432.058 145.248 429.585 137.576L425.17 135.805Z" fill="#93E9CA"/>
<path d="M304.179 57.8066C280.501 63.4574 258.331 71.1529 237.371 79.9634L235.291 126.218C229.441 128.557 223.9 130.942 218.42 133.331L219.445 136.678C219.469 136.755 219.494 136.884 219.502 136.964L223.172 177.083C258.395 163.605 301.235 150.548 350.039 142.779L342.279 95.4282C334.151 96.8714 326.155 98.462 318.379 100.237L304.179 57.8066Z" fill="#B7F2CC"/>
<path d="M287.561 156.135C231.183 171.196 186.472 191.357 157.994 206.157C159.526 237.063 161.037 267.704 162.577 296.274C192.911 283.12 240.458 265.045 299.623 250.752C293.641 204.355 290.801 181.74 287.561 156.135Z" fill="#82D4D5"/>
<path d="M157.995 206.156C145.368 212.718 135.572 218.302 129.905 221.761C129.162 222.215 125.005 225.263 122.791 226.822C123.952 249.935 125.781 283.509 127.346 313.172C127.881 312.828 129.278 311.816 129.539 311.682C134.987 308.883 146.483 303.253 162.578 296.273C161.038 267.703 159.527 237.062 157.995 206.156Z" fill="#93E9CA"/>
<path d="M231.691 270.066C177.78 287.845 140.949 305.817 129.539 311.681C129.278 311.815 127.881 312.827 127.346 313.171C129.086 346.145 130.607 375.155 132.689 411.78C157.015 402.956 193.043 390.86 241.561 377.814C236.707 325.206 235.132 307.88 231.691 270.066Z" fill="#B7F2CC"/>
<path d="M365.589 237.508C314.448 245.555 269.007 257.763 231.691 270.068C235.132 307.882 236.707 325.208 241.561 377.816C282.295 366.863 330.33 355.902 383.556 346.915L365.589 237.508Z" fill="#DFFFEA"/>
<path d="M486.044 228.144C443.595 227.953 403.095 231.605 365.588 237.507L383.555 346.914C431.783 338.77 483.987 332.286 539.215 329.284L515.906 228.987C505.869 228.509 495.885 228.188 486.044 228.144Z" fill="#B7F2CC"/>
<path d="M515.906 228.988L539.215 329.285C573.817 327.403 609.476 326.84 645.838 328.047C638.41 300.411 630.538 272.102 621.91 242.766L618.17 241.866C583.385 234.569 549.163 230.573 515.906 228.988Z" fill="#93E9CA"/>
<path d="M613.137 327.372C610.042 327.355 606.997 327.42 603.914 327.428L632.482 450.218C646.711 448.241 660.86 446.269 675.306 444.314C666.661 407.761 656.791 368.796 645.838 328.046C634.883 327.683 623.956 327.429 613.137 327.372Z" fill="#B7F2CC"/>
<path d="M603.916 327.428C557.732 327.54 512.96 330.266 470.385 334.795C480.17 384.391 486.896 418.236 496.872 469.704C540.206 463.23 585.701 456.72 632.484 450.218L603.916 327.428Z" fill="#82D4D5"/>
<path d="M470.383 334.795C413.591 340.836 360.761 350.001 313.795 360.213C321.053 416.278 324.181 440.495 331.312 495.404C381.137 487.385 436.378 478.742 496.87 469.704C486.894 418.236 480.168 384.391 470.383 334.795Z" fill="#B7F2CC"/>
<path d="M313.796 360.213C254.669 373.07 204.988 387.514 168.398 399.438C171.078 444.793 173.596 484.481 176.018 521.216C213.881 514.688 265.943 505.925 331.313 495.404C324.182 440.495 321.054 416.278 313.796 360.213Z" fill="#82D4D5"/>
<path d="M168.398 399.438C153.437 404.312 142.968 408.052 132.689 411.781C134.915 450.95 137.27 489.674 139.69 527.486C149.796 525.697 157.137 524.471 176.018 521.215C173.596 484.48 171.078 444.792 168.398 399.438Z" fill="#93E9CA"/>
<path d="M253.791 508.113C197.728 517.456 160.73 523.761 139.689 527.486C142.011 563.759 144.345 596.932 146.662 626.798C171.284 630.961 212.814 636.318 266.135 637.343C262.522 600.857 258.068 553.327 253.791 508.113Z" fill="#93E9CA"/>
<path d="M405.993 483.566C346.1 492.899 298.226 500.736 253.791 508.141C258.067 553.344 262.523 600.864 266.135 637.343C313.107 638.246 368.683 635.74 429.303 625.646L405.993 483.566Z" fill="#C3C4E1"/>
<path d="M569.387 459.047C511.376 467.4 456.744 475.658 405.994 483.566L429.304 625.646C482.501 616.787 539.385 602.013 597.251 578.886L569.387 459.047Z" fill="#93E9CA"/>
<path d="M675.307 444.314C639.255 449.193 603.864 454.083 569.387 459.047L597.251 578.886C629.674 565.928 662.382 550.385 694.933 531.62C689.044 504.14 682.606 475.179 675.307 444.314Z" fill="#DFFFEA"/>
<path d="M694.932 531.621C682.049 539.047 669.15 545.928 656.242 552.4L675.643 635.825C687.127 625.531 698.474 614.407 709.637 602.393C705.289 580.542 700.272 556.539 694.932 531.621Z" fill="#93E9CA"/>
<path d="M656.243 552.398C611.315 574.924 566.442 591.879 522.824 604.444C529.961 641.689 544.727 718.215 544.812 718.658C588.915 700.448 633.227 673.845 675.644 635.823L656.243 552.398Z" fill="#B7F2CC"/>
<path d="M522.795 604.445C461.267 622.166 402.351 631.271 349.449 635.149C353.906 669.404 364.436 750.376 364.436 750.376L366.46 753.272C421.63 753.098 483 744.181 544.812 718.659C544.727 718.216 529.933 641.693 522.795 604.445Z" fill="#82D4D5"/>
<path d="M183.779 631.945C187.847 686.982 190.902 725.09 190.949 725.634C228.329 737.717 291.396 753.511 366.46 753.273L364.436 750.377C364.436 750.377 353.906 669.405 349.449 635.15C281.593 640.125 224.21 636.609 183.779 631.945Z" fill="#B7F2CC"/>
<path d="M146.662 626.799C149.41 662.219 152.097 693.601 154.563 712.25C154.563 712.25 168.133 718.259 190.948 725.634C190.901 725.09 187.846 686.982 183.778 631.945C168.886 630.227 156.453 628.454 146.662 626.799Z" fill="#DFFFEA"/>
<path d="M504.764 54.6191L502.599 87.4607C495.828 86.4098 489.106 85.5263 482.439 84.7895L493.601 132.871C525.709 136.129 558.9 142.358 592.801 152.61C592.801 152.61 594.602 152.681 594.798 152.694C586.674 127.341 578.092 101.502 569.014 75.2294C547.016 66.5656 525.618 59.8224 504.764 54.6191Z" fill="#ABACE3"/>
<path d="M407.478 41.292C393.618 40.9731 380.074 41.3504 366.875 42.3605L363.642 86.393C355.985 87.4238 348.471 88.6204 341.062 89.9359L348.824 137.287C393.053 130.246 441.891 127.625 493.602 132.872L482.44 84.7903C476.491 84.1329 470.587 83.5918 464.725 83.1595L450.02 44.4131C435.514 42.6262 421.338 41.6109 407.478 41.292Z" fill="#AF93E5"/>
<path d="M183.266 100.648C158.978 114.636 137.04 129.844 117.836 145.046C117.836 145.046 119.213 174.756 121.491 220.121C121.491 220.121 160.124 195.25 221.956 171.589C221.494 166.469 218.273 131.325 218.273 131.325L217.851 127.557C209.596 131.144 201.63 134.761 194.288 138.354L183.266 100.648Z" fill="#C3C4E1"/>
<path d="M559.145 143.781C562.25 152.004 571.024 184.944 582.567 230.271C593.972 232.01 605.418 233.952 616.955 236.373L620.695 237.273C612.626 209.835 604.152 181.882 594.939 153.116L592.802 152.61C581.498 149.191 570.281 146.358 559.145 143.781Z" fill="#AF93E5"/>
<path d="M448.305 130.116C441.994 130.009 435.748 130.037 429.55 130.144L428.369 132.084C430.842 139.756 438.466 175.759 448.164 223.467C490.935 221.472 536.126 223.193 582.567 230.271C571.024 184.944 562.25 152.004 559.145 143.781C520.909 134.933 483.745 130.715 448.305 130.116Z" fill="#C3C4E1"/>
<path d="M423.955 130.312C373.469 131.689 326.983 139.787 286.346 150.642C289.587 176.246 292.426 198.861 298.408 245.258C342.74 234.548 393.417 226.021 448.164 223.467C438.466 175.759 430.842 139.757 428.369 132.085L423.955 130.312Z" fill="#AF93E5"/>
<path d="M302.963 52.3145C279.285 57.9653 257.114 65.6608 236.155 74.4712L234.074 120.725C228.225 123.065 222.683 125.45 217.203 127.839L218.229 131.185C218.252 131.263 218.278 131.391 218.285 131.472L221.955 171.59C257.178 158.112 300.018 145.055 348.823 137.287L341.062 89.9362C332.934 91.3793 324.938 92.9699 317.162 94.7443L302.963 52.3145Z" fill="#ABACE3"/>
<path d="M286.346 150.643C229.969 165.704 185.257 185.865 156.779 200.664C158.311 231.571 159.823 262.212 161.362 290.782C191.697 277.628 239.243 259.553 298.408 245.259C292.426 198.862 289.587 176.247 286.346 150.643Z" fill="#B876D1"/>
<path d="M156.778 200.664C144.151 207.226 134.355 212.811 128.688 216.27C127.945 216.723 123.788 219.772 121.574 221.331C122.736 244.444 124.564 278.018 126.13 307.681C126.664 307.336 128.062 306.325 128.323 306.191C133.77 303.391 145.266 297.761 161.361 290.782C159.822 262.212 158.31 231.571 156.778 200.664Z" fill="#AF93E5"/>
<path d="M230.476 264.576C176.565 282.354 139.734 300.327 128.324 306.191C128.063 306.325 126.665 307.336 126.131 307.681C127.871 340.654 129.391 369.664 131.473 406.29C155.799 397.465 191.827 385.369 240.345 372.324C235.491 319.715 233.917 302.389 230.476 264.576Z" fill="#ABACE3"/>
<path d="M364.374 232.016C313.234 240.062 267.793 252.271 230.477 264.576C233.918 302.389 235.492 319.715 240.346 372.324C281.08 361.371 329.115 350.41 382.341 341.422L364.374 232.016Z" fill="#C3C4E1"/>
<path d="M484.83 222.652C442.38 222.462 401.88 226.114 364.373 232.016L382.34 341.422C430.569 333.278 482.772 326.795 538.001 323.792L514.691 223.496C504.655 223.018 494.67 222.697 484.83 222.652Z" fill="#ABACE3"/>
<path d="M514.691 223.496L538.001 323.792C572.603 321.911 608.262 321.347 644.623 322.555C637.195 294.919 629.323 266.61 620.695 237.274L616.955 236.374C582.171 229.076 547.949 225.08 514.691 223.496Z" fill="#AF93E5"/>
<path d="M611.921 321.879C608.826 321.863 605.781 321.928 602.699 321.935L631.266 444.726C645.495 442.749 659.644 440.776 674.09 438.821C665.445 402.269 655.575 363.303 644.622 322.554C633.668 322.19 622.74 321.937 611.921 321.879Z" fill="#ABACE3"/>
<path d="M602.7 321.936C556.515 322.049 511.743 324.775 469.168 329.303C478.954 378.9 485.679 412.744 495.655 464.213C538.989 457.738 584.484 451.229 631.267 444.727L602.7 321.936Z" fill="#B876D1"/>
<path d="M312.581 354.721C253.454 367.578 203.774 382.022 167.184 393.945C169.864 439.301 172.382 478.989 174.804 515.724C212.666 509.195 264.728 500.432 330.098 489.911C322.967 435.002 319.84 410.785 312.581 354.721Z" fill="#B876D1"/>
<path d="M167.183 393.945C152.221 398.821 141.752 402.56 131.473 406.289C133.699 445.457 136.054 484.183 138.474 521.994C148.58 520.205 155.921 518.979 174.803 515.724C172.381 478.989 169.863 439.301 167.183 393.945Z" fill="#AF93E5"/>
<path d="M252.577 502.621C196.515 511.963 159.516 518.269 138.475 521.994C140.797 558.267 143.131 591.439 145.448 621.306C170.071 625.468 211.6 630.825 264.921 631.85C261.308 595.364 256.854 547.835 252.577 502.621Z" fill="#AF93E5"/>
<path d="M568.17 453.555C510.159 461.908 455.527 470.166 404.777 478.074L428.087 620.153C481.285 611.295 538.169 596.52 596.035 573.393L568.17 453.555Z" fill="#AF93E5"/>
<path d="M674.092 438.822C638.041 443.701 602.65 448.592 568.172 453.556L596.037 573.394C628.46 560.436 661.167 544.893 693.718 526.128C687.829 498.648 681.391 469.688 674.092 438.822Z" fill="#C3C4E1"/>
<path d="M693.717 526.127C680.835 533.554 667.935 540.434 655.027 546.906L674.428 630.332C685.912 620.038 697.259 608.914 708.423 596.9C704.075 575.048 699.057 551.045 693.717 526.127Z" fill="#AF93E5"/>
<path d="M655.026 546.906C610.099 569.433 565.225 586.388 521.607 598.952C528.744 636.197 543.511 712.724 543.595 713.167C587.698 694.957 632.01 668.354 674.427 630.332L655.026 546.906Z" fill="#ABACE3"/>
<path d="M521.579 598.953C460.05 616.675 401.134 625.779 348.232 629.658C352.69 663.913 363.219 744.885 363.219 744.885L365.244 747.781C420.413 747.607 481.783 738.69 543.595 713.168C543.511 712.725 528.716 636.201 521.579 598.953Z" fill="#B876D1"/>
<path d="M182.562 626.453C186.631 681.49 189.685 719.598 189.732 720.141C227.113 732.224 290.18 748.018 365.245 747.781L363.22 744.885C363.22 744.885 352.691 663.913 348.233 629.658C280.377 634.633 222.993 631.116 182.562 626.453Z" fill="#ABACE3"/>
<path d="M145.447 621.307C148.196 656.726 150.882 688.109 153.349 706.757C153.349 706.757 166.919 712.767 189.733 720.141C189.686 719.598 186.632 681.49 182.563 626.453C167.671 624.735 155.238 622.962 145.447 621.307Z" fill="#C3C4E1"/>
<path d="M504.632 53.5049C501.77 54.0945 499.469 56.5143 499.262 59.6627L497.575 85.3062C493.196 84.698 488.824 84.0533 484.387 83.5629C479.763 83.0518 476.025 87.2691 477.077 91.8014L488.24 139.883C488.892 142.694 491.273 144.793 494.144 145.085C527.316 148.451 559.926 154.847 592.079 164.57C592.627 164.736 593.193 164.829 593.766 164.852C593.827 164.854 595.585 164.909 595.565 164.908C600.323 165.235 603.909 160.677 602.454 156.135C594.134 130.169 585.523 104.313 576.614 78.5298C575.97 76.6663 574.54 75.1752 572.706 74.4527C551.043 65.9208 529.4 58.9977 507.613 53.5612C506.592 53.3065 505.586 53.3084 504.632 53.5049ZM512.168 68.7448C529.78 73.4416 547.314 79.1051 564.861 85.8967C572.069 106.819 579.047 127.81 585.865 148.853C557.71 140.951 529.226 135.452 500.33 132.263L492.429 98.2685C495.881 98.7224 499.36 99.088 502.777 99.6182C506.691 100.226 510.276 97.357 510.537 93.4041L512.168 68.7448Z" fill="#626262"/>
<path d="M408.862 40.0365C394.936 39.7161 381.164 40.0939 367.585 41.1331C364.256 41.3878 361.615 44.0178 361.371 47.3471L358.531 86.0373C352.795 86.8717 347.069 87.7326 341.098 88.7928C337.463 89.4383 335.018 92.8818 335.615 96.5252L343.376 143.876C343.976 147.542 347.439 150.027 351.108 149.443C398.223 141.943 446.103 140.21 494.143 145.085C498.747 145.552 502.444 141.354 501.398 136.846L490.235 88.7647C489.587 85.975 487.233 83.8775 484.386 83.5629C479.84 83.0605 475.303 82.7014 470.749 82.3257L457.534 47.5158C456.646 45.1753 454.536 43.5199 452.051 43.2138C437.507 41.4223 423.132 40.3648 408.862 40.0365ZM408.525 53.5331C421.036 53.821 433.69 54.7554 446.427 56.2043L459.643 91.0423C460.573 93.4941 462.82 95.1795 465.435 95.3724C469.682 95.6856 473.934 96.1276 478.172 96.5533L486.158 130.857C442.319 127.167 398.668 128.804 355.635 135.159L350.039 101.024C355.329 100.148 360.633 99.2677 365.757 98.5778C368.921 98.1519 371.344 95.5755 371.578 92.3919L374.389 54.2922C385.653 53.5959 397.012 53.2682 408.525 53.5331Z" fill="#626262"/>
<path d="M305.136 51.1157C304.317 50.9981 303.456 51.0535 302.606 51.2563C279.88 56.6799 257.559 64.1659 234.757 73.7506C232.354 74.7607 230.741 77.0513 230.624 79.6553L228.74 121.664C224.808 123.279 221.095 124.804 215.722 127.147C212.577 128.518 210.977 132.021 211.982 135.301L212.825 138.056L216.453 177.702C216.86 182.156 221.414 184.98 225.591 183.382C265.713 168.029 307.385 156.404 351.109 149.444C354.802 148.856 357.309 145.373 356.704 141.683L348.944 94.3328C348.335 90.6204 344.803 88.1359 341.099 88.7936C334.692 89.9312 328.807 91.1852 322.908 92.4489C319.948 83.6052 310.976 56.8202 310.591 55.6708C309.759 53.1848 307.595 51.4685 305.136 51.1157ZM299.766 65.9338C302.826 75.0776 311.588 101.236 311.969 102.375C313.07 105.665 316.487 107.589 319.87 106.817C325.175 105.607 330.983 104.512 336.741 103.415L342.309 137.269C303.038 143.968 265.452 154.453 229.106 167.833L226.294 137.325C230.299 135.608 234.343 133.869 237.794 132.489C240.254 131.505 241.921 129.175 242.04 126.528L243.924 84.6041C262.689 76.9026 281.148 70.6999 299.766 65.9338Z" fill="#626262"/>
<path d="M184.089 99.3924C183.084 99.4518 182.055 99.7468 181.109 100.292C157.659 113.797 135.421 128.978 114.863 145.252C113.16 146.601 112.204 148.678 112.304 150.848C112.307 150.907 114.963 206.098 115.959 225.951C116.22 231.134 122 234.102 126.363 231.293C126.415 231.26 127.43 230.616 127.881 230.337C129.184 229.532 130.73 228.585 132.521 227.525C137.665 224.483 143.709 221.094 150.573 217.431C170.224 206.944 192.572 196.439 217.212 186.642C219.987 185.538 222.782 184.455 225.591 183.38C228.412 182.301 230.165 179.471 229.893 176.463C229.704 174.372 226.21 136.058 226.21 136.058L225.788 132.29C225.283 127.778 220.532 125.054 216.368 126.863C210.176 129.554 205.057 131.978 199.779 134.455C196.952 124.784 191.226 105.2 190.95 104.257C190.03 101.11 187.103 99.2145 184.089 99.3924ZM180.462 116.432C183.419 126.546 188.77 144.815 189.038 145.73C190.212 149.748 194.698 151.76 198.457 149.92C202.817 147.786 208.185 145.411 213.275 143.115C213.91 150.044 215.339 165.368 216.003 172.639C214.745 173.131 213.486 173.604 212.235 174.101C187.107 184.093 164.297 194.822 144.218 205.537C138.415 208.634 133.556 211.396 128.922 214.085C127.8 191.281 126.164 157.78 125.969 153.744C143.06 140.394 161.331 127.873 180.462 116.432Z" fill="#626262"/>
<path d="M449.634 128.861C443.616 128.759 437.407 128.773 430.654 128.889C428.341 128.929 426.206 130.146 425.003 132.122L423.822 134.063C422.802 135.738 422.573 137.791 423.175 139.658C425.338 146.368 432.112 177.866 442.773 230.31C443.436 233.571 446.366 235.863 449.69 235.709C494.28 233.628 538.804 235.727 582.772 242.429C587.549 243.157 591.528 238.789 590.335 234.106C577.776 184.79 569.744 154.977 566.688 146.884C565.892 144.774 564.077 143.203 561.88 142.695C524.41 134.024 486.854 129.49 449.634 128.861ZM449.409 142.357C484.462 142.95 519.826 147.189 555.132 155.095C558.209 164.493 565.083 190.197 574.73 227.836C535.034 222.41 494.977 220.519 454.836 222.071C446.59 181.635 440.838 154.589 437.796 142.385C441.712 142.362 445.74 142.295 449.409 142.357Z" fill="#626262"/>
<path d="M559.967 142.526C555.616 142.763 552.368 147.251 554.034 151.664C556.817 159.035 564.889 188.96 577.232 237.424C577.9 240.05 580.092 242.02 582.771 242.429C595.494 244.368 606.356 246.284 616.793 248.474L620.336 249.318C625.383 250.532 629.842 245.834 628.378 240.854C619.489 210.63 611.168 183.326 602.594 156.557C601.872 154.304 600.003 152.575 597.701 152.03L595.564 151.524C585.18 148.394 574.428 145.599 561.879 142.695C561.223 142.543 560.589 142.492 559.967 142.526ZM570.371 158.666C577.547 160.46 584.395 162.278 590.841 164.205C597.924 186.413 604.92 209.38 612.182 233.853C604.995 232.456 597.426 231.126 589.21 229.832C580.761 196.745 574.336 172.332 570.371 158.666Z" fill="#626262"/>
<path d="M449.634 128.861C443.616 128.759 437.407 128.773 430.654 128.889C428.341 128.929 426.206 130.146 425.003 132.122L423.822 134.063C422.802 135.738 422.573 137.791 423.175 139.658C425.338 146.368 432.112 177.866 442.773 230.31C443.436 233.571 446.366 235.863 449.69 235.709C494.28 233.628 538.804 235.727 582.772 242.429C587.549 243.157 591.528 238.789 590.335 234.106C577.776 184.79 569.744 154.977 566.688 146.884C565.892 144.774 564.077 143.203 561.88 142.695C524.41 134.024 486.854 129.49 449.634 128.861ZM449.409 142.357C484.462 142.95 519.826 147.189 555.132 155.095C558.209 164.493 565.083 190.197 574.73 227.836C535.034 222.41 494.977 220.519 454.836 222.071C446.59 181.635 440.838 154.589 437.796 142.385C441.712 142.362 445.74 142.295 449.409 142.357Z" fill="#626262"/>
<path d="M424.973 129.057C377.552 130.35 331.02 137.535 285.818 149.611C282.557 150.482 280.446 153.629 280.87 156.978C281.188 159.496 288.563 217.738 292.932 251.622C293.446 255.606 297.294 258.245 301.199 257.302C349.899 245.536 399.508 238.048 449.689 235.708C453.824 235.515 456.812 231.666 455.987 227.61C445.114 174.119 438.4 142.956 435.996 135.496C435.38 133.586 433.949 132.053 432.087 131.306C431.535 131.085 428.225 129.756 427.673 129.535C426.816 129.191 425.896 129.031 424.973 129.057ZM423.877 142.609C426.222 150.854 432.167 178.469 441.197 222.689C395.321 225.316 349.988 232.226 305.388 242.596C301.284 210.642 296.015 169.13 295.013 161.223C336.968 150.433 380.051 143.922 423.877 142.609Z" fill="#626262"/>
<path d="M305.136 51.1157C304.317 50.9981 303.456 51.0535 302.606 51.2563C279.88 56.6799 257.559 64.1659 234.757 73.7506C232.354 74.7607 230.741 77.0513 230.624 79.6553L228.74 121.664C224.808 123.279 221.095 124.804 215.722 127.147C212.577 128.518 210.977 132.021 211.982 135.301L212.825 138.056L216.453 177.702C216.86 182.156 221.414 184.98 225.591 183.382C265.713 168.029 307.385 156.404 351.109 149.444C354.802 148.856 357.309 145.373 356.704 141.683L348.944 94.3328C348.335 90.6204 344.803 88.1359 341.099 88.7936C334.692 89.9312 328.807 91.1852 322.908 92.4489C319.948 83.6052 310.976 56.8202 310.591 55.6708C309.759 53.1848 307.595 51.4685 305.136 51.1157ZM299.766 65.9338C302.826 75.0776 311.588 101.236 311.969 102.375C313.07 105.665 316.487 107.589 319.87 106.817C325.175 105.607 330.983 104.512 336.741 103.415L342.309 137.269C303.038 143.968 265.452 154.453 229.106 167.833L226.294 137.325C230.299 135.608 234.343 133.869 237.794 132.489C240.254 131.505 241.921 129.175 242.04 126.528L243.924 84.6041C262.689 76.9026 281.148 70.6999 299.766 65.9338Z" fill="#626262"/>
<path d="M288.744 149.499C287.808 149.334 286.807 149.348 285.819 149.612C236.888 162.684 192.98 180.365 154.875 200.168C152.533 201.384 151.117 203.859 151.247 206.494C152.545 232.678 155.021 281.616 155.831 296.64C156.084 301.335 160.936 304.331 165.25 302.46C204.748 285.332 250.658 269.514 301.2 257.303C304.547 256.494 306.758 253.295 306.317 249.88C301.95 216.009 294.574 157.811 294.255 155.291C293.87 152.25 291.551 149.996 288.744 149.499ZM281.855 164.767C283.063 174.303 288.15 214.432 292.174 245.747C246.839 257.03 205.399 271.119 168.849 286.433C167.896 268.247 166.159 234.176 164.969 210.262C199.397 192.678 238.517 176.899 281.855 164.767Z" fill="#626262"/>
<path d="M158.221 199.409C157.111 199.369 155.965 199.602 154.875 200.169C143.45 206.106 133.234 211.823 126.391 215.999C125.763 216.382 125.233 216.773 121.78 219.261C121.771 219.267 119.569 220.851 118.912 221.313C117.019 222.646 115.928 224.849 116.044 227.162C116.725 240.715 120.228 306.508 120.599 313.54C120.872 318.715 126.646 321.66 131.003 318.854C131.298 318.664 131.54 318.479 132.212 318.01C132.212 318.01 132.642 317.71 132.858 317.561C140.57 313.605 151.962 308.223 165.25 302.461C167.839 301.339 169.479 298.727 169.327 295.91C168.519 280.905 166.042 232.002 164.744 205.82C164.561 202.137 161.548 199.53 158.221 199.409ZM151.782 217.152C153.058 242.713 154.798 276.792 155.606 292.03C147.109 295.779 139.783 299.182 133.533 302.236C132.657 285.736 130.496 244.973 129.737 230.142C131.46 228.908 133.339 227.577 133.421 227.527C138.017 224.722 144.606 221.034 151.782 217.152Z" fill="#626262"/>
<path d="M232.648 263.376C231.658 263.235 230.615 263.318 229.584 263.658C186.342 277.917 150.965 293.094 126.447 305.694C126.024 305.911 125.805 306.049 125.295 306.397C125.091 306.536 123.782 307.435 123.692 307.493C121.656 308.804 120.471 311.121 120.599 313.539C120.671 314.9 124.709 390.499 125.941 412.176C126.198 416.688 130.746 419.678 134.995 418.137C166.315 406.776 201.54 395.569 243.305 384.339C246.477 383.486 248.584 380.468 248.282 377.197C245.382 345.773 240.519 292.594 238.413 269.45C238.118 266.206 235.621 263.802 232.648 263.376ZM225.76 279.291C227.945 303.265 231.652 343.712 234.336 372.839C198.275 382.671 167.051 392.504 138.96 402.447C137.497 376.068 134.656 323.144 134.32 316.857C156.57 305.537 187.894 292.183 225.76 279.291Z" fill="#626262"/>
<path d="M364.548 230.845C317.714 238.214 272.627 249.464 229.583 263.659C226.601 264.642 224.687 267.561 224.971 270.688C227.078 293.835 231.941 347.007 234.841 378.436C235.225 382.603 239.263 385.427 243.304 384.34C287.737 372.393 335.357 361.908 384.681 353.579C388.344 352.961 390.822 349.485 390.22 345.819C390.079 344.964 372.393 237.267 372.253 236.412C371.651 232.752 368.212 230.269 364.548 230.845ZM360.021 245.354C361.928 256.966 373.965 330.144 375.824 341.461C331.245 349.186 288.171 358.641 247.55 369.325C244.78 339.246 240.997 297.736 238.918 274.906C277.71 262.373 318.151 252.301 360.021 245.354Z" fill="#626262"/>
<path d="M486.075 221.398C445.463 221.215 404.871 224.501 364.549 230.845C360.85 231.427 358.319 234.91 358.926 238.606L376.893 348.012C377.499 351.702 380.995 354.202 384.682 353.579C436.712 344.794 488.087 338.834 539.583 336.034C543.771 335.806 546.746 331.853 545.797 327.767L522.487 227.471C521.804 224.531 519.232 222.385 516.217 222.241C505.292 221.721 495.426 221.439 486.075 221.398ZM486.018 234.894C493.587 234.928 501.903 235.239 510.509 235.597L530.838 323.1C483.712 325.959 436.655 331.398 389.124 339.211L373.378 243.245C410.788 237.686 448.411 234.725 486.018 234.894Z" fill="#626262"/>
<path d="M516.216 222.24C511.744 222.027 508.313 226.146 509.327 230.507L532.637 330.803C533.378 333.994 536.31 336.211 539.582 336.033C575.338 334.089 610.678 333.635 645.614 334.796C650.144 334.946 653.539 330.681 652.362 326.304C644.282 296.241 636.469 268.366 628.378 240.854C627.697 238.538 625.833 236.779 623.485 236.215L619.549 235.259C585.767 228.171 551.368 223.915 516.216 222.24ZM524.539 236.327C555.778 238.222 586.417 242.119 616.512 248.418C623.384 271.885 630.081 295.836 636.926 321.102C606.423 320.331 575.628 320.728 544.53 322.283L524.539 236.327Z" fill="#626262"/>
<path d="M613.167 320.624C611.642 320.616 607.731 320.652 607.656 320.652C605.769 320.672 604.929 320.678 603.888 320.681C599.55 320.691 596.354 324.722 597.337 328.947L625.905 451.738C626.695 455.138 629.955 457.392 633.412 456.911C634.428 456.77 666.396 452.335 676.207 451.007C680.158 450.472 682.805 446.648 681.887 442.768C673.198 406.027 663.298 366.985 652.363 326.304C651.593 323.437 649.033 321.398 646.065 321.299C634.167 320.904 623.394 320.679 613.167 320.624ZM612.408 334.121C612.574 334.121 613.001 334.12 613.111 334.121C621.648 334.166 630.929 334.395 640.61 334.683C650.291 370.864 659.07 405.634 666.957 438.663C656.062 440.158 643.648 441.854 637.658 442.684L612.408 334.121Z" fill="#626262"/>
<path d="M603.889 320.682C559.233 320.79 514.408 323.319 469.683 328.077C465.742 328.496 463.011 332.202 463.778 336.09C464.056 337.497 485.525 446.687 490.237 471C490.925 474.547 494.283 476.904 497.857 476.37C539.422 470.16 584.406 463.723 633.413 456.912C637.343 456.366 639.964 452.567 639.065 448.702C638.841 447.743 610.72 326.871 610.497 325.912C609.784 322.849 607.033 320.674 603.889 320.682ZM598.575 334.263C600.851 344.045 621.291 431.864 624.247 444.569C580.536 450.663 539.974 456.504 502.271 462.114C496.697 433.494 480.644 352.071 478.427 340.814C518.474 336.775 558.609 334.535 598.575 334.263Z" fill="#626262"/>
<path d="M469.682 328.075C416.387 333.744 363.77 342.427 312.363 353.606C308.939 354.35 306.655 357.61 307.105 361.085C308.327 370.527 321.374 471.269 324.622 496.275C325.112 500.051 328.623 502.673 332.382 502.068C386.899 493.294 441.543 484.781 497.856 476.368C501.655 475.8 504.239 472.182 503.508 468.411C498.793 444.084 477.269 334.905 476.992 333.501C476.316 330.072 473.157 327.705 469.682 328.075ZM464.986 342.246C466.915 352.04 483.171 434.773 488.886 464.109C437.365 471.832 387.118 479.617 337.106 487.643C333.323 458.49 323.352 381.401 321.304 365.584C368.354 355.552 416.367 347.635 464.986 342.246Z" fill="#626262"/>
<path d="M312.362 353.607C259.736 365.05 210.766 378.544 166.318 393.028C163.4 393.979 161.469 396.769 161.65 399.832C164.122 441.67 166.601 480.759 169.298 521.667C169.562 525.665 173.223 528.562 177.171 527.881C222.245 520.109 274.117 511.446 332.381 502.069C335.982 501.489 338.475 498.15 338.005 494.533C334.758 469.528 321.71 368.784 320.488 359.343C319.98 355.421 316.225 352.766 312.362 353.607ZM308.06 368.481C310.26 385.47 320.066 461.206 323.777 489.809C271.164 498.298 223.953 506.155 182.26 513.316C179.872 476.891 177.695 441.537 175.484 404.303C216.14 391.222 260.567 379.046 308.06 368.481Z" fill="#626262"/>
<path d="M169.411 392.775C168.407 392.62 167.369 392.685 166.319 393.028C153.358 397.251 143.951 400.506 130.384 405.428C127.582 406.444 125.772 409.2 125.941 412.176C128.102 450.199 130.44 488.811 132.943 527.909C133.2 531.925 136.91 534.825 140.872 534.123C142.767 533.787 170.892 528.963 177.172 527.881C180.575 527.294 182.967 524.213 182.739 520.767C180.044 479.888 177.618 440.85 175.148 399.045C174.952 395.735 172.424 393.24 169.411 392.775ZM162.213 408.718C164.381 445.086 166.56 479.858 168.905 515.593C161.242 516.915 152.72 518.394 145.989 519.558C143.78 484.8 141.685 450.379 139.747 416.478C147.632 413.643 154.89 411.168 162.213 408.718Z" fill="#626262"/>
<path d="M252.698 501.45C199.289 510.351 160.82 516.902 138.511 520.851C135.127 521.451 132.724 524.479 132.944 527.909C135.249 563.93 137.607 597.196 139.945 627.334C140.185 630.421 142.487 632.947 145.54 633.463C179.414 639.189 220.222 643.212 265.997 644.092C270.038 644.17 273.256 640.691 272.858 636.669C270.37 611.544 268.082 587.517 262.764 531.199C262.761 531.168 261.13 513.98 260.514 507.467C260.146 503.57 256.559 500.807 252.698 501.45ZM247.777 515.987C249.132 530.304 255.82 600.943 258.687 630.314C218.968 629.226 183.291 625.758 153.02 620.895C150.955 593.984 148.902 564.634 146.862 533.111C168.058 529.384 202.198 523.597 247.777 515.987Z" fill="#626262"/>
<path d="M404.955 476.904C351.649 485.211 305.939 492.606 252.697 501.479C249.203 502.061 246.739 505.264 247.073 508.79C247.682 515.223 256.925 612.858 259.417 638.019C259.754 641.423 262.577 644.027 265.996 644.093C319.92 645.129 374.782 641.574 430.401 632.312C434.071 631.7 436.571 628.222 435.969 624.551C435.786 623.441 412.841 483.582 412.659 482.472C412.059 478.815 408.616 476.334 404.955 476.904ZM400.428 491.301C402.429 503.502 419.521 607.691 421.544 620.024C371.108 628.014 321.312 631.196 272.267 630.568C269.927 606.847 267.696 583.684 262.763 531.453C262.752 531.345 261.817 521.342 261.104 513.795C309.279 505.783 352.237 498.832 400.428 491.301Z" fill="#626262"/>
<path d="M568.431 452.356C513.921 460.205 459.806 468.356 404.954 476.903C401.25 477.48 398.723 480.965 399.33 484.664L422.64 626.743C423.244 630.427 426.718 632.924 430.4 632.311C487.77 622.757 544.578 607.209 599.754 585.157C602.849 583.92 604.586 580.615 603.831 577.368C603.613 576.432 576.184 458.466 575.966 457.53C575.173 454.117 571.899 451.857 568.431 452.356ZM564.213 466.64C566.77 477.636 586.928 564.281 589.35 574.697C538.935 594.415 487.171 608.625 434.871 617.774L413.754 489.191C464.19 481.354 514.068 473.884 564.213 466.64Z" fill="#626262"/>
<path d="M674.408 437.624C634.887 442.972 600.543 447.734 568.432 452.357C564.518 452.921 561.912 456.716 562.808 460.568L590.673 580.406C591.609 584.432 595.917 586.692 599.755 585.158C633.767 571.565 666.595 555.752 698.308 537.47C700.846 536.007 702.155 533.08 701.541 530.216C695.055 499.946 688.677 471.481 681.887 442.769C681.088 439.39 677.849 437.158 674.408 437.624ZM670.106 451.851C675.981 476.876 681.606 501.915 687.258 528.163C659.719 543.793 631.313 557.526 602.004 569.581L577.626 464.729C605.923 460.676 636.125 456.462 670.106 451.851Z" fill="#626262"/>
<path d="M694.654 524.872C693.608 524.914 692.552 525.2 691.561 525.772C679.236 532.877 666.514 539.683 653.208 546.354C650.42 547.752 648.959 550.88 649.665 553.918L669.066 637.344C670.229 642.341 676.324 644.283 680.145 640.858C691.934 630.291 703.426 618.989 714.589 606.976C716.064 605.389 716.671 603.196 716.248 601.072C712.139 580.42 707.279 556.984 701.542 530.215C700.823 526.857 697.79 524.748 694.654 524.872ZM690.183 541.996C694.722 563.322 698.864 583.067 702.302 600.256C694.869 608.152 687.264 615.625 679.554 622.863L664.005 555.999C672.967 551.433 681.666 546.759 690.183 541.996Z" fill="#626262"/>
<path d="M656.216 545.65C655.21 545.652 654.183 545.864 653.207 546.353C610.456 567.788 566.274 584.899 520.969 597.95C517.616 598.915 515.532 602.284 516.189 605.71C518.411 617.308 538.331 720.734 538.177 719.925C538.977 724.124 543.448 726.533 547.4 724.902C594.763 705.345 639.15 677.603 680.144 640.857C681.977 639.214 682.782 636.704 682.225 634.306C682.073 633.654 662.975 551.532 662.823 550.88C662.082 547.691 659.232 545.645 656.216 545.65ZM651.576 562.071C654.563 574.914 666.542 626.515 668.137 633.378C631.351 665.817 591.813 690.834 549.846 709.099C547.599 697.442 534.044 627.089 530.585 609.084C571.911 596.835 612.33 581.21 651.576 562.071Z" fill="#626262"/>
<path d="M523.753 597.755C522.837 597.622 521.895 597.677 520.942 597.952C464.138 614.312 406.462 624.214 348.945 628.431C345.079 628.715 342.259 632.18 342.759 636.023C344.24 647.406 357.613 750.232 357.746 751.25C357.886 752.328 358.276 753.368 358.899 754.259L360.923 757.155C362.19 758.967 364.279 760.03 366.49 760.023C428.74 759.826 489.551 748.789 547.401 724.904C550.36 723.682 552.049 720.541 551.449 717.396C551.623 718.304 531.655 614.775 529.433 603.181C528.873 600.258 526.504 598.153 523.753 597.755ZM517.539 612.882C521.362 632.761 535.609 706.617 537.109 714.387C483.826 735.609 427.969 745.758 370.736 746.414C369.984 740.627 359.628 661.154 357.043 641.281C410.712 636.918 464.447 627.661 517.539 612.882Z" fill="#626262"/>
<path d="M184.567 625.253C180.361 624.768 176.747 628.228 177.06 632.451C178.845 656.598 184.136 725.145 184.23 726.224C184.463 728.929 186.286 731.21 188.869 732.044C211.678 739.417 236.59 745.842 263.353 750.715C296.911 756.824 331.433 760.133 366.489 760.022C371.937 760.005 375.122 753.858 372 749.393L370.904 747.847C370.526 744.938 357.602 645.496 356.142 634.279C355.68 630.729 352.514 628.169 348.944 628.43C290.172 632.739 235.084 631.08 184.567 625.253ZM191.118 639.481C238.359 644.472 289.408 645.859 343.573 642.264C346.02 661.075 356.103 738.708 357.098 746.356C299.654 745.544 245.672 735.724 197.332 720.516C196.838 714.212 193.129 666.25 191.118 639.481Z" fill="#626262"/>
<path d="M147.79 620.135C143.461 619.403 139.605 622.956 139.945 627.333C143.173 668.929 145.637 696.202 147.874 713.12C148.183 715.451 149.689 717.454 151.839 718.406C152.308 718.614 153.186 719.003 154.454 719.531C156.54 720.4 158.981 721.374 161.764 722.455C169.688 725.531 178.762 728.776 188.87 732.043C193.463 733.528 198.086 729.851 197.671 725.042C197.583 724.02 192.285 655.568 190.501 631.438C190.262 628.208 187.786 625.623 184.568 625.252C170.547 623.635 158.084 621.875 147.79 620.135ZM154.088 634.756C161.216 635.847 168.969 636.9 177.482 637.933C179.282 661.984 182.496 703.634 183.443 715.819C177.654 713.818 171.549 711.786 166.657 709.887C164.447 709.028 162.605 708.268 160.865 707.553C158.948 692.218 156.747 668.362 154.088 634.756Z" fill="#626262"/>
<mask id="mask0_415_9913" style="mask-type:luminance" maskUnits="userSpaceOnUse" x="71" y="31" width="658" height="738">
<path d="M728.225 31.6738H71.7676V768.323H728.225V31.6738Z" fill="white"/>
<path d="M408.693 46.7842C394.833 46.4653 381.289 46.8426 368.091 47.8527L364.858 91.8852C348.8 94.047 333.242 96.8444 318.379 100.236L304.179 57.8064C280.501 63.4572 258.331 71.1527 237.371 79.9632L235.291 126.217C220.88 131.98 207.545 137.954 195.504 143.847L184.482 106.141C160.193 120.129 138.255 135.336 119.051 150.539C119.051 150.539 127.517 330.777 137.328 491.074C129.257 486.643 111.401 479.743 98.1319 496.107C81.4941 516.624 73.5051 566.74 144.442 597.753C147.957 646.523 151.438 688.612 154.564 712.249C154.564 712.249 472.827 857.24 709.638 602.392C702.854 568.299 694.849 530.058 685.541 488.684C706.904 474.87 713.585 449.895 713.209 433.151C712.647 408.073 701.002 397.497 678.821 379.418C672.881 374.576 665.858 374.524 658.773 376.915C636.033 287.721 607.264 187.894 570.23 80.7224C548.233 72.0585 526.834 65.3154 505.981 60.112L503.816 92.9537C491.003 90.9651 478.372 89.5685 465.941 88.6516L451.236 49.9053C436.729 48.1183 422.553 47.1031 408.693 46.7842Z" fill="black"/>
</mask>
<g mask="url(#mask0_415_9913)">
<path d="M408.693 46.7842C394.833 46.4653 381.289 46.8426 368.091 47.8527L364.858 91.8852C348.8 94.047 333.242 96.8444 318.379 100.236L304.179 57.8064C280.501 63.4572 258.331 71.1527 237.371 79.9632L235.291 126.217C220.88 131.98 207.545 137.954 195.504 143.847L184.482 106.141C160.193 120.129 138.255 135.336 119.051 150.539C119.051 150.539 127.517 330.777 137.328 491.074C129.257 486.643 111.401 479.743 98.1319 496.107C81.4941 516.624 73.5051 566.74 144.442 597.753C147.957 646.523 151.438 688.612 154.564 712.249C154.564 712.249 472.827 857.24 709.638 602.392C702.854 568.299 694.849 530.058 685.541 488.684C706.904 474.87 713.585 449.895 713.209 433.151C712.647 408.073 701.002 397.497 678.821 379.418C672.881 374.576 665.858 374.524 658.773 376.915C636.033 287.721 607.264 187.894 570.23 80.7224C548.233 72.0585 526.834 65.3154 505.981 60.112L503.816 92.9537C491.003 90.9651 478.372 89.5685 465.941 88.6516L451.236 49.9053C436.729 48.1183 422.553 47.1031 408.693 46.7842Z" stroke="black" stroke-width="0.0375" stroke-miterlimit="10" stroke-linejoin="round"/>
</g>
<path d="M408.693 46.7842C394.833 46.4653 381.289 46.8426 368.091 47.8527L364.858 91.8852C348.8 94.047 333.242 96.8445 318.379 100.236L304.179 57.8064C280.501 63.4572 258.331 71.1527 237.371 79.9632L235.291 126.217C220.88 131.98 207.545 137.954 195.504 143.847L184.482 106.141C160.193 120.129 138.255 135.336 119.051 150.539C119.051 150.539 140.375 604.976 154.564 712.249C154.564 712.249 472.827 857.24 709.638 602.392C684.171 474.409 643.073 291.525 570.23 80.7224C548.233 72.0585 526.835 65.3154 505.981 60.112L503.816 92.9537C491.003 90.9651 478.372 89.5686 465.941 88.6516L451.236 49.9053C436.729 48.1183 422.553 47.1031 408.693 46.7842Z" stroke="black" stroke-width="0.01875" stroke-miterlimit="10" stroke-linejoin="round"/>
<path d="M409.003 33.2869C394.853 32.9613 380.852 33.3273 367.051 34.3835C360.394 34.893 355.112 40.2091 354.623 46.8678L352.176 80.2156C343.755 81.5168 335.488 82.9847 327.376 84.6301L316.973 53.5318C314.754 46.9024 307.858 43.0518 301.058 44.6746C277.956 50.1881 255.268 57.813 232.141 67.5344C227.335 69.5546 224.109 74.136 223.875 79.3439L222.188 117.106C216.027 119.673 209.969 122.284 204.052 124.979L197.444 102.345C194.991 93.9531 185.309 90.0802 177.733 94.4432C153.992 108.117 131.486 123.49 110.672 139.966C107.264 142.664 105.379 146.843 105.583 151.185C105.596 151.472 108.864 218.558 110.082 242.54C113.561 311.064 117.23 379.591 120.963 443.555C121.546 453.526 122.13 462.94 122.707 472.544C121.843 472.466 120.995 472.32 120.12 472.291C107.791 471.887 96.3817 476.839 87.6436 487.615C75.4089 502.703 69.9561 524.912 75.3561 546.297C81.4276 570.342 100.272 591.103 131.592 606.525C135.266 656.672 138.425 693.188 141.18 714.02C141.79 718.631 144.736 722.608 148.969 724.536C149.807 724.918 151.331 725.576 153.496 726.476C157.023 727.944 161.133 729.568 165.811 731.312C179.09 736.263 194.252 741.191 211.081 745.793C258.877 758.865 310.485 766.752 364.042 766.825C433.053 766.92 500.226 753.958 563.651 725.295C620.227 699.728 672.515 662.189 719.536 611.587C722.485 608.412 723.728 603.999 722.882 599.749C716.023 565.281 708.552 530.022 700.556 494.167C708.991 486.86 715.484 477.734 719.93 467.314C724.683 456.172 726.955 443.946 726.706 432.842C726.375 418.058 722.683 406.413 715.093 395.81C709.158 387.519 702.415 381.244 687.341 368.958C681.738 364.392 675.426 362.185 668.755 361.928C644.143 266.598 616.001 171.821 582.996 76.3072C581.708 72.5801 578.848 69.5981 575.179 68.153C553.241 59.5127 531.314 52.5157 509.243 47.0084C501.079 44.9714 493.066 50.8156 492.513 59.2116L491.303 77.6569C486.096 77.0136 480.845 76.4766 475.586 75.9979L463.86 45.1245C462.084 40.4434 457.864 37.1327 452.894 36.5205C438.129 34.7016 423.497 33.6204 409.003 33.2869ZM408.693 46.7835C422.553 47.1024 436.729 48.1176 451.236 49.9046L465.941 88.6509C478.372 89.5679 491.003 90.9644 503.816 92.953L505.981 60.1113C526.835 65.3147 548.233 72.0578 570.23 80.7217C607.264 187.894 636.033 287.721 658.773 376.915C665.858 374.524 672.881 374.576 678.821 379.418C701.002 397.497 712.647 408.073 713.209 433.151C713.585 449.895 706.904 474.87 685.541 488.684C694.849 530.058 702.854 568.299 709.638 602.392C472.827 857.24 154.564 712.249 154.564 712.249C151.438 688.612 147.957 646.523 144.442 597.753C73.5048 566.74 81.4938 516.624 98.1316 496.107C111.401 479.743 129.257 486.643 137.328 491.074C127.517 330.777 119.051 150.539 119.051 150.539C138.255 135.336 160.193 120.129 184.482 106.141L195.504 143.847C207.545 137.954 220.88 131.98 235.291 126.217L237.371 79.9625C258.331 71.1521 280.501 63.4565 304.179 57.8057L318.379 100.236C333.242 96.8437 348.8 94.0463 364.858 91.8845L368.091 47.852C381.289 46.8419 394.833 46.4646 408.693 46.7835Z" fill="black"/>
<path d="M408.861 40.0365C394.935 39.7161 381.162 40.094 367.584 41.1331C364.255 41.3878 361.614 44.0178 361.37 47.3471L358.53 86.0373C346.327 87.8016 334.447 89.9648 322.905 92.4481L310.589 55.67C309.48 52.3553 306.004 50.4441 302.604 51.2555C279.878 56.6791 257.557 64.1652 234.755 73.7498C232.352 74.7599 230.739 77.0506 230.622 79.6545L228.738 121.663C218.752 125.741 209.112 130.021 199.777 134.428L190.948 104.258C189.721 100.062 184.894 98.1115 181.107 100.293C157.657 113.798 135.419 128.979 114.861 145.253C113.157 146.602 112.2 148.678 112.302 150.849C112.316 151.135 115.585 218.209 116.801 242.176C120.275 310.653 123.953 379.105 127.683 443.021C130.646 493.811 133.52 539.608 136.259 579.196C140.609 642.078 144.513 687.73 147.871 713.121C148.176 715.427 149.663 717.415 151.78 718.379C151.989 718.474 152.354 718.645 152.904 718.885C153.801 719.277 154.865 719.729 156.082 720.235C159.533 721.671 163.574 723.272 168.172 724.987C181.267 729.869 196.252 734.751 212.88 739.299C260.131 752.222 311.126 760.005 364.041 760.078C432.134 760.172 498.393 747.383 560.894 719.138C616.653 693.94 668.177 656.92 714.586 606.976C716.061 605.389 716.668 603.196 716.245 601.072C700.626 522.581 684.152 448.7 664.227 370.927C639.257 273.463 610.408 176.333 576.612 78.5298C575.968 76.6663 574.538 75.1752 572.704 74.4527C551.041 65.9207 529.398 58.9976 507.611 53.5612C503.529 52.5427 499.536 55.4648 499.26 59.6627L497.573 85.3062C488.704 84.0733 479.774 83.0693 470.748 82.3257L457.533 47.5158C456.645 45.1753 454.535 43.5199 452.05 43.2138C437.507 41.4223 423.131 40.3648 408.861 40.0365ZM408.524 53.5331C421.035 53.821 433.689 54.7554 446.426 56.2043L459.642 91.0423C460.572 93.4941 462.819 95.1795 465.434 95.3724C478.054 96.3033 490.481 97.7102 502.775 99.6182C506.689 100.226 510.274 97.357 510.535 93.4041L512.166 68.7448C529.77 73.4394 547.292 79.1093 564.831 85.8967C598.059 182.332 626.524 278.172 651.152 374.301C670.716 450.661 686.959 523.291 702.327 600.256C657.756 647.615 608.517 682.814 555.327 706.851C494.674 734.26 430.325 746.672 364.069 746.581C312.438 746.51 262.583 738.905 216.423 726.28C200.198 721.843 185.622 717.079 172.896 712.334C168.457 710.679 164.554 709.151 161.255 707.779C161.13 707.727 160.989 707.648 160.834 707.582C157.617 681.969 153.876 638.241 149.727 578.268C146.992 538.734 144.112 493.007 141.151 442.262C137.424 378.384 133.742 309.918 130.269 241.473C129.101 218.439 126.213 158.805 125.967 153.745C143.058 140.395 161.329 127.874 180.46 116.433L189.036 145.731C190.21 149.749 194.696 151.761 198.455 149.921C210.889 143.837 224.088 137.969 237.792 132.488C240.252 131.504 241.919 129.174 242.038 126.527L243.922 84.6033C262.687 76.9018 281.146 70.6991 299.764 65.933L311.967 102.374C313.068 105.664 316.485 107.588 319.868 106.816C334.547 103.467 349.916 100.71 365.756 98.5778C368.92 98.1519 371.343 95.5755 371.577 92.3919L374.388 54.2922C385.652 53.5959 397.011 53.2682 408.524 53.5331Z" fill="black"/>
<path d="M175.871 485.302C175.871 373.184 266.761 282.295 378.879 282.295C490.997 282.295 581.887 373.184 581.887 485.302C581.887 597.421 490.997 688.31 378.879 688.31C266.761 688.31 175.871 597.421 175.871 485.302Z" fill="#F3886D" stroke="black" stroke-width="0.01875" stroke-miterlimit="10" stroke-linejoin="round"/>
<path d="M446.765 343.68C437.364 343.797 427.702 345.145 418.056 347.841C381.588 358.035 355.134 384.82 347.143 415.212C331.439 394.699 303.001 380.351 270.86 379.418C222.788 378.022 184.779 407.075 185.944 444.314C186.664 467.323 202.19 488.06 225.281 500.887C221.449 516.624 220.794 532.8 224.072 548.715C238.324 617.928 319.517 656.083 405.432 633.94C491.346 611.798 549.447 537.736 535.195 468.523C533.935 462.401 532.09 456.537 529.825 450.921C536.463 435.281 538.136 418.145 533.48 401.49C523.485 365.733 487.501 343.171 446.765 343.68Z" fill="#F9B192"/>
<path d="M243.684 533.932C243.684 533.932 322.514 463.108 500.688 483.124C500.688 483.124 512.685 486.779 506.369 505.645C500.054 524.512 471.882 572.559 433.57 592.83C395.258 613.1 360.026 623.369 313.714 602.094C267.401 580.818 244.749 547.437 244.749 547.437L243.684 533.932Z" fill="white" stroke="black" stroke-width="0.01875" stroke-miterlimit="10" stroke-linejoin="round"/>
<path d="M255.203 558.649C255.203 558.649 277.079 548.971 294.866 544.266" stroke="black" stroke-width="0.01875" stroke-miterlimit="10" stroke-linecap="round" stroke-linejoin="round"/>
<path d="M504.111 503.166C504.111 503.166 482.056 506.603 469.418 510.262" stroke="black" stroke-width="0.01875" stroke-miterlimit="10" stroke-linecap="round" stroke-linejoin="round"/>
<path d="M416.488 406.126C416.488 406.126 437.4 381.58 470.687 372.773C470.687 372.773 481.417 373.646 487.651 378.969" stroke="black" stroke-width="0.01875" stroke-miterlimit="10" stroke-linecap="round" stroke-linejoin="round"/>
<path d="M286.704 430.175C286.704 430.175 255.172 414.183 228.679 419.873C228.679 419.873 221.428 424.174 212.428 437.373" stroke="black" stroke-width="0.01875" stroke-miterlimit="10" stroke-linecap="round" stroke-linejoin="round"/>
<path d="M175.871 485.302C175.871 373.184 266.761 282.295 378.879 282.295C490.997 282.295 581.887 373.184 581.887 485.302C581.887 597.421 490.997 688.31 378.879 688.31C266.761 688.31 175.871 597.421 175.871 485.302Z" stroke="black" stroke-width="0.01875" stroke-miterlimit="10" stroke-linejoin="round"/>
<path d="M378.888 275.551C263.043 275.551 169.129 369.465 169.129 485.311C169.129 601.156 263.043 695.07 378.888 695.07C494.733 695.07 588.647 601.155 588.647 485.311C588.647 369.465 494.734 275.551 378.888 275.551ZM378.888 289.048C487.279 289.048 575.151 376.919 575.151 485.311C575.151 593.702 487.279 681.573 378.888 681.573C270.497 681.573 182.626 593.701 182.626 485.311C182.626 376.919 270.497 289.048 378.888 289.048Z" fill="black"/>
<path d="M446.681 336.933C436.544 337.059 426.294 338.534 416.23 341.347C382.745 350.707 356.254 373.703 344.473 402.138C326.466 384.555 299.735 373.503 271.057 372.67C219.451 371.172 177.895 402.946 179.196 444.54C179.934 468.096 194.601 489.768 217.802 504.149C214.661 519.642 214.383 535.102 217.465 550.066C232.577 623.456 317.774 663.491 407.12 640.465C496.252 617.493 556.853 540.259 541.804 467.175C540.684 461.735 539.033 456.348 537.024 451.007C543.526 434.291 544.697 416.551 539.976 399.664C529.28 361.396 491.074 336.378 446.681 336.933ZM446.85 350.429C485.442 349.947 518.038 371.306 526.986 403.319C531.102 418.045 529.852 433.578 523.612 448.279C522.913 449.926 522.887 451.794 523.556 453.453C525.761 458.92 527.455 464.366 528.589 469.874C542.043 535.213 486.444 606.105 403.746 627.418C321.262 648.676 244.072 612.402 230.68 547.367C227.69 532.846 228.127 517.71 231.833 502.49C232.552 499.539 231.227 496.458 228.571 494.983C206.754 482.863 193.314 463.929 192.693 444.09C191.664 411.202 226.131 384.874 270.664 386.167C300.023 387.02 326.905 399.896 341.774 419.318C345.186 423.775 352.24 422.357 353.668 416.928C361.244 388.11 386.542 363.658 419.885 354.338C428.821 351.84 437.885 350.541 446.85 350.429Z" fill="black" fill-opacity="0.5"/>
<path d="M433.916 472.826C412.446 473.044 391.997 474.634 372.591 477.494C340.588 482.209 312.478 490.184 288.153 500.522C273.785 506.629 261.599 513.195 251.544 519.783C247.989 522.112 244.943 524.283 242.405 526.25C240.836 527.466 239.765 528.389 239.172 528.921C237.609 530.325 236.785 532.366 236.951 534.46C236.984 534.883 237.986 547.535 238.019 547.957C238.111 549.124 238.515 550.25 239.172 551.219C239.634 551.9 240.49 553.084 241.731 554.677C243.75 557.27 246.146 560.143 248.957 563.225C256.941 571.978 266.539 580.721 277.778 588.868C287.935 596.232 298.981 602.738 310.9 608.214C334.162 618.899 355.79 622.474 377.483 619.742C396.094 617.398 414.288 610.667 436.728 598.794C455.139 589.053 472.393 572.793 487.368 552.737C499.208 536.879 508.88 519.362 512.758 507.777C516.775 495.777 515.079 486.592 509.187 480.755C507.875 479.456 506.46 478.456 505.026 477.691C504.09 477.191 503.298 476.871 502.664 476.678C502.268 476.558 501.866 476.471 501.455 476.425C477.897 473.779 455.385 472.608 433.916 472.826ZM434.141 486.323C454.711 486.118 476.295 487.226 498.896 489.725C499.167 489.89 499.442 490.077 499.712 490.344C501.747 492.36 502.426 496.149 499.965 503.503C496.579 513.619 487.603 529.891 476.571 544.667C462.697 563.248 446.847 578.186 430.429 586.872C409.306 598.049 392.525 604.251 375.796 606.358C356.65 608.769 337.54 605.609 316.524 595.954C305.432 590.859 295.166 584.788 285.707 577.931C275.248 570.348 266.328 562.216 258.939 554.115C256.369 551.298 254.168 548.705 252.359 546.382C251.955 545.863 251.671 545.44 251.347 545.005C251.187 542.973 250.943 539.979 250.7 536.907C252.953 535.162 255.698 533.209 258.939 531.086C268.334 524.931 279.822 518.738 293.439 512.95C316.715 503.058 343.707 495.396 374.559 490.85C393.386 488.076 413.252 486.531 434.141 486.323Z" fill="black"/>
<path d="M295.828 537.582C294.96 537.458 294.03 537.512 293.129 537.75C290.319 538.494 287.33 539.358 284.186 540.365C280.927 541.41 277.56 542.58 274.065 543.852C268.889 545.735 263.733 547.743 258.853 549.757C257.144 550.462 252.556 552.446 252.471 552.484C249.062 553.992 247.532 557.961 249.04 561.369C250.548 564.778 254.516 566.336 257.924 564.828C257.988 564.799 262.349 562.921 263.998 562.241C268.712 560.295 273.695 558.345 278.676 556.533C282.015 555.318 285.236 554.204 288.32 553.215C291.253 552.275 294.016 551.477 296.587 550.797C300.19 549.844 302.349 546.133 301.396 542.53C300.681 539.828 298.432 537.952 295.828 537.582Z" fill="black"/>
<path d="M503.086 496.502C502.994 496.517 497.997 497.343 496.197 497.655C491.049 498.55 485.893 499.513 481.07 500.523C475.8 501.627 471.232 502.717 467.545 503.785C463.965 504.821 461.897 508.556 462.934 512.136C463.97 515.716 467.705 517.783 471.285 516.746C474.595 515.788 478.859 514.778 483.825 513.738C488.479 512.763 493.496 511.825 498.503 510.955C500.257 510.65 505.061 509.842 505.138 509.83C508.821 509.256 511.364 505.809 510.79 502.126C510.216 498.443 506.768 495.928 503.086 496.502Z" fill="black"/>
<path d="M471.227 366.035C470.463 365.972 469.691 366.064 468.95 366.26C456.442 369.569 444.787 375.113 434.084 382.287C427.813 386.489 422.245 390.99 417.438 395.502C415.743 397.093 414.262 398.574 412.995 399.917C412.21 400.749 411.679 401.375 411.364 401.744C408.947 404.581 409.287 408.859 412.124 411.276C414.961 413.693 419.21 413.326 421.627 410.489C421.653 410.459 422.438 409.588 422.808 409.196C423.892 408.047 425.198 406.743 426.689 405.343C430.983 401.312 435.992 397.277 441.619 393.506C450.825 387.336 460.764 382.577 471.312 379.644C471.777 379.711 472.239 379.797 472.774 379.897C474.872 380.289 476.962 380.834 478.847 381.584C480.674 382.31 482.175 383.187 483.262 384.114C486.096 386.535 490.374 386.189 492.794 383.355C495.214 380.521 494.869 376.272 492.035 373.851C489.711 371.867 486.931 370.279 483.824 369.043C481.047 367.939 478.145 367.166 475.248 366.625C474.239 366.437 473.292 366.284 472.436 366.175C471.896 366.107 471.491 366.056 471.227 366.035Z" fill="black"/>
<path d="M239.705 411.924C235.385 411.992 231.222 412.42 227.249 413.274C226.535 413.427 225.852 413.689 225.224 414.061C224.799 414.313 224.172 414.729 223.369 415.326C222.147 416.233 220.814 417.369 219.348 418.728C215.305 422.478 211.086 427.382 206.863 433.575C204.764 436.654 205.556 440.838 208.635 442.938C211.714 445.038 215.898 444.246 217.998 441.167C221.651 435.81 225.212 431.689 228.514 428.626C229.578 427.639 230.516 426.871 231.326 426.264C234.051 425.759 236.909 425.44 239.93 425.392C249.447 425.242 259.854 427.306 270.297 430.819C273.855 432.016 277.164 433.281 280.11 434.559C281.132 435.002 282.041 435.405 282.81 435.768C283.252 435.977 283.53 436.127 283.653 436.19C286.977 437.875 291.049 436.561 292.735 433.237C294.421 429.913 293.079 425.841 289.755 424.155C288.928 423.736 287.479 423.053 285.481 422.187C282.199 420.764 278.537 419.35 274.599 418.026C262.821 414.063 250.969 411.745 239.705 411.924Z" fill="black"/>
<path d="M378.888 275.551C263.043 275.551 169.129 369.465 169.129 485.311C169.129 601.156 263.043 695.07 378.888 695.07C494.733 695.07 588.647 601.155 588.647 485.311C588.647 369.465 494.734 275.551 378.888 275.551ZM378.888 289.048C487.279 289.048 575.151 376.919 575.151 485.311C575.151 593.702 487.279 681.573 378.888 681.573C270.497 681.573 182.626 593.701 182.626 485.311C182.626 376.919 270.497 289.048 378.888 289.048Z" fill="black"/>
<path d="M472.876 443.411C470.971 432.532 486.185 420.778 506.859 417.158C527.532 413.537 545.836 419.421 547.741 430.3C549.646 441.179 534.431 452.933 513.758 456.553C493.084 460.173 474.781 454.289 472.876 443.411Z" fill="#FF497F" stroke="black" stroke-width="0.01875" stroke-miterlimit="10" stroke-linejoin="round"/>
<path d="M188.429 494.105C184.614 483.74 197.489 469.461 217.185 462.213C236.882 454.964 255.941 457.489 259.756 467.854C263.57 478.219 250.696 492.497 230.999 499.746C211.303 506.995 192.243 504.469 188.429 494.105Z" fill="#FF497F" stroke="black" stroke-width="0.01875" stroke-miterlimit="10" stroke-linejoin="round"/>
<path d="M522.992 409.449C517.524 409.125 511.665 409.472 505.7 410.517C481.839 414.696 463.472 428.863 466.222 444.568C468.973 460.273 491.062 467.388 514.922 463.21C538.783 459.031 557.15 444.836 554.4 429.131C552.337 417.352 539.398 410.419 522.992 409.449ZM520.405 422.861C531.917 423.166 540.305 426.926 541.1 431.465C542.16 437.517 530.075 446.848 512.589 449.91C495.102 452.972 480.582 448.286 479.522 442.234C478.462 436.182 490.547 426.879 508.034 423.817C512.405 423.051 516.568 422.759 520.405 422.861Z" fill="black"/>
<path d="M239.592 451.315C231.929 451.216 223.373 452.733 214.848 455.87C192.115 464.237 176.584 481.481 182.091 496.444C187.597 511.407 210.588 514.455 233.321 506.089C256.054 497.722 271.585 480.477 266.079 465.515C262.637 456.163 252.362 451.48 239.592 451.315ZM237.005 464.84C245.69 464.437 252.099 466.578 253.426 470.182C255.548 475.948 245.342 487.276 228.682 493.407C212.022 499.539 196.894 497.543 194.772 491.777C192.65 486.01 202.855 474.683 219.515 468.551C225.763 466.252 231.794 465.081 237.005 464.84Z" fill="black"/>
<path d="M619.5 408.815C619.5 408.815 656.632 361.336 678.813 379.415C700.993 397.493 712.659 408.062 713.221 433.14C713.783 458.218 698.684 501.909 641.805 498.615" fill="#F3886D"/>
<path d="M698.505 396.965C650.655 418.426 640.049 467.065 637.826 482.612L641.791 498.611C698.67 501.906 713.773 458.231 713.21 433.153C712.85 417.056 707.859 406.929 698.505 396.965Z" fill="#F9B192"/>
<path d="M647.049 452.279C647.049 452.279 657.352 425.439 679.991 408.359" stroke="black" stroke-width="0.01875" stroke-miterlimit="10" stroke-linecap="round" stroke-linejoin="round"/>
<path d="M680.931 401.689C679.221 401.45 677.414 401.86 675.926 402.982C669.845 407.571 664.288 413.006 659.252 419.122C653.743 425.813 649.123 432.955 645.334 440.098C644.004 442.605 642.873 444.935 641.932 447.043C641.352 448.34 640.966 449.294 640.751 449.855C639.415 453.334 641.152 457.236 644.631 458.571C648.11 459.907 652.012 458.171 653.348 454.691C653.371 454.631 653.435 454.477 653.544 454.213C653.739 453.743 653.993 453.186 654.275 452.554C655.097 450.716 656.073 448.654 657.256 446.425C660.644 440.036 664.794 433.637 669.684 427.698C674.076 422.364 678.865 417.665 684.052 413.752C687.027 411.507 687.619 407.279 685.374 404.304C684.251 402.816 682.641 401.928 680.931 401.689Z" fill="black"/>
<path d="M660.914 428.436C660.914 428.436 673.63 432.106 679.116 439.691" stroke="black" stroke-width="0.01875" stroke-miterlimit="10" stroke-linecap="round" stroke-linejoin="round"/>
<path d="M660.124 421.735C657.513 422.048 655.219 423.886 654.444 426.571C653.411 430.152 655.475 433.89 659.055 434.923C659.135 434.946 659.337 435.007 659.674 435.119C660.276 435.319 660.961 435.564 661.699 435.851C663.804 436.67 665.91 437.644 667.828 438.774C670.449 440.319 672.46 441.996 673.649 443.64C675.833 446.66 680.048 447.341 683.068 445.157C686.088 442.973 686.771 438.759 684.586 435.739C682.159 432.382 678.78 429.574 674.689 427.162C672.085 425.627 669.331 424.347 666.591 423.282C664.935 422.638 663.625 422.2 662.795 421.961C661.9 421.703 660.994 421.631 660.124 421.735Z" fill="black"/>
<path d="M619.5 408.815C619.5 408.815 656.632 361.336 678.813 379.415C700.993 397.493 712.659 408.062 713.221 433.14C713.783 458.218 698.684 501.909 641.805 498.615" stroke="black" stroke-width="0.01875" stroke-miterlimit="10" stroke-linejoin="round"/>
<path d="M666.224 368.565C662.547 368.705 658.725 369.58 654.809 371.096C646.944 374.139 638.896 379.7 630.768 387.067C626.53 390.908 622.517 395.005 618.874 399.101C617.598 400.537 616.469 401.861 615.472 403.066C614.862 403.803 614.421 404.359 614.178 404.669L624.807 412.963C624.84 412.921 625.565 412.045 625.875 411.67C626.775 410.584 627.801 409.384 628.968 408.071C632.309 404.314 635.973 400.537 639.822 397.049C646.831 390.696 653.622 386.006 659.673 383.665C665.959 381.232 670.734 381.541 674.547 384.649C688.247 395.815 694.109 401.264 698.644 407.593C703.802 414.789 706.219 422.479 706.461 433.293C706.759 446.581 702.4 461.408 693.752 472.32C682.892 486.023 666.001 493.27 642.184 491.89L641.425 505.359C669.548 506.988 690.706 497.918 704.352 480.699C715.079 467.165 720.323 449.258 719.958 432.983C719.656 419.522 716.395 409.187 709.61 399.72C704.141 392.088 697.698 386.114 683.067 374.189C678.062 370.11 672.353 368.332 666.224 368.565Z" fill="black"/>
<path d="M611.816 389.57C611.816 389.57 643.281 497.041 643.61 519.766" stroke="black" stroke-width="0.01875" stroke-miterlimit="10" stroke-linecap="round" stroke-linejoin="round"/>
<path d="M612.576 382.877C611.705 382.776 610.827 382.84 609.933 383.102C606.356 384.149 604.302 387.876 605.349 391.453C605.364 391.503 608.997 404.124 610.298 408.718C614.015 421.841 617.712 435.324 621.18 448.365C622.095 451.806 622.995 455.163 623.851 458.458C631.915 489.487 636.752 511.744 636.869 519.867C636.924 523.594 639.975 526.557 643.702 526.503C647.429 526.449 650.42 523.397 650.366 519.67C650.225 509.964 645.346 487.456 636.926 455.056C636.063 451.735 635.148 448.343 634.226 444.877C630.738 431.76 627.024 418.222 623.289 405.034C621.981 400.418 618.3 387.741 618.284 387.685C617.498 385.003 615.188 383.18 612.576 382.877Z" fill="black"/>
<path opacity="0.203389" d="M199.23 132.503L218.937 355.848C197.8 565.909 362.91 683.604 362.91 683.604C362.91 683.604 308.867 683.916 247.464 638.475L253.104 743.078L152.263 710.385L137.528 592.967L108.518 574.548C108.518 574.548 83.1928 531.265 82.2718 524.818C81.3509 518.372 90.5602 495.809 90.5602 495.809L109.439 478.772L128.318 481.535L129.7 412.926L114.965 143.554L184.035 101.652L199.23 132.503Z" fill="black"/>
<path opacity="0.203389" d="M653.445 431.664C664.6 418.753 668.754 411.942 679.789 408.101C702.041 400.357 714.496 441.715 714.496 441.715C714.496 441.715 724.564 474.348 700.666 481.856C674.622 490.039 682.734 536.747 682.734 536.747L665.23 541.152L641.721 497.955C641.721 497.955 612.829 423.236 624.844 433.972C634.484 442.585 648.77 437.074 653.445 431.664Z" fill="black"/>
</svg>
