<svg width="1070" height="1129" viewBox="0 0 1070 1129" fill="none" xmlns="http://www.w3.org/2000/svg">
<mask id="mask0_311_10540" style="mask-type:luminance" maskUnits="userSpaceOnUse" x="0" y="0" width="1070" height="1129">
<path d="M1070 0.128418H0V1129H1070V0.128418Z" fill="white"/>
</mask>
<g mask="url(#mask0_311_10540)">
<path d="M787.025 584.605C787.025 584.605 812.939 580.061 817.396 581.785C836.505 589.173 877.867 617.185 781.082 706.86" fill="#F3886D"/>
<path d="M812.713 571.167C810.058 571.23 807.4 571.468 804.759 571.746C798.234 572.432 791.729 573.39 785.266 574.522C779.699 575.495 775.964 580.813 776.937 586.381C777.909 591.948 783.227 595.654 788.794 594.681C794.797 593.637 800.84 592.737 806.9 592.107C808.804 591.909 810.713 591.741 812.626 591.673C813.115 591.655 813.612 591.636 814.101 591.644C814.208 591.646 814.309 591.669 814.42 591.673C814.85 591.846 815.298 592.004 815.721 592.194C816.408 592.501 817.194 592.891 817.862 593.235C821.785 595.257 825.486 597.952 828.157 601.506C834.644 610.139 832.417 621.4 828.65 630.689C825.068 639.518 819.814 647.645 814.16 655.273C806.462 665.657 797.782 675.293 788.708 684.485C783.83 689.425 778.816 694.224 773.726 698.945C769.355 703.01 769.112 709.846 773.176 714.216C777.241 718.587 784.076 718.831 788.447 714.766C803.27 700.947 817.587 686.42 829.748 670.168C837.832 659.365 845.185 647.664 849.561 634.825C854.244 621.082 854.981 606.039 847.391 593.177C845.734 590.369 843.742 587.756 841.491 585.397C838.27 582.021 834.567 579.156 830.558 576.778C827.992 575.256 825.305 573.923 822.547 572.787C821.628 572.408 820.781 572.075 819.828 571.804C817.53 571.149 815.085 571.111 812.713 571.167Z" fill="black"/>
<path d="M812.694 571.158C810.038 571.221 807.409 571.459 804.769 571.736C798.244 572.423 791.739 573.381 785.275 574.513C779.709 575.486 775.973 580.804 776.946 586.371C777.919 591.938 783.208 595.644 788.775 594.672C794.778 593.628 800.82 592.728 806.881 592.098C808.784 591.9 810.694 591.732 812.607 591.664C813.095 591.646 813.593 591.627 814.082 591.635C814.192 591.637 814.314 591.659 814.429 591.664C814.857 591.835 815.281 591.996 815.702 592.185C816.388 592.492 817.203 592.882 817.871 593.226C821.794 595.248 825.496 597.943 828.167 601.497C834.653 610.129 832.426 621.391 828.659 630.679C825.078 639.509 819.824 647.636 814.169 655.264C806.471 665.648 797.791 675.283 788.717 684.475C783.839 689.416 778.826 694.215 773.735 698.936C769.364 703.001 769.093 709.836 773.157 714.207C777.222 718.578 784.057 718.85 788.428 714.785C803.251 700.966 817.596 686.411 829.758 670.159C837.842 659.355 845.194 647.655 849.57 634.816C854.253 621.073 854.99 606.029 847.4 593.168C845.743 590.36 843.751 587.747 841.5 585.388C838.279 582.011 834.577 579.147 830.568 576.768C828.002 575.247 825.315 573.914 822.556 572.778C821.637 572.399 820.791 572.066 819.838 571.794C817.539 571.14 815.066 571.102 812.694 571.158Z" fill="black"/>
<path d="M327.668 560.96C327.668 560.96 351.086 505.288 378.88 483.684C406.673 462.08 423.805 351.75 423.805 351.75L409.028 231.407C409.028 231.407 349.111 210.684 321.449 213.769C293.786 216.854 229.423 482.253 239.695 547.561C239.695 547.561 294.343 559.096 327.668 560.96Z" fill="#82D4D5"/>
<path d="M330.32 203.133C327.702 203.051 325.068 203.061 322.453 203.248C320.803 203.367 319.188 203.528 317.594 204C315.675 204.568 313.87 205.533 312.244 206.69C309.048 208.965 306.492 212.026 304.261 215.222C301.174 219.647 298.629 224.459 296.279 229.307C289.123 244.066 283.636 259.642 278.521 275.207C268.642 305.263 260.522 335.9 253.271 366.687C245.234 400.818 238.318 435.233 233.286 469.94C231.779 480.336 230.496 490.773 229.526 501.234C228.586 511.377 227.889 521.582 227.964 531.776C227.979 533.704 228.028 535.631 228.109 537.56C228.167 538.925 228.24 540.275 228.341 541.638C228.406 542.527 228.485 543.381 228.572 544.27C228.652 545.083 228.76 545.975 228.861 546.785C229.005 547.941 229.066 549.49 229.498 550.575C229.815 551.373 229.908 552.363 230.539 552.946C232.645 554.894 235.181 556.301 237.509 557.979C237.691 558.11 238.164 558.108 238.376 558.153C239.046 558.291 239.731 558.42 240.401 558.557C242.745 559.036 245.081 559.513 247.429 559.974C252.208 560.912 256.984 561.819 261.775 562.693C273.12 564.764 284.511 566.664 295.932 568.275C306.258 569.733 295.923 568.282 327.023 571.601C332.453 571.931 337.02 568.054 337.985 562.838C349.743 539.014 346.182 545.179 351.086 536.374C357.136 525.515 363.776 514.867 371.649 505.225C374.443 501.803 377.422 498.503 380.644 495.478C382.83 493.427 385.24 491.664 387.441 489.635C390.559 486.762 393.234 483.428 395.598 479.917C399.878 473.558 403.255 466.601 406.241 459.556C409.968 450.764 413.026 441.72 415.842 432.601C421.327 414.848 425.559 396.662 429.234 378.458C430.418 372.592 431.552 366.711 432.589 360.816C432.896 359.072 433.196 357.329 433.485 355.581C433.605 354.862 433.811 354.086 433.832 353.354C433.858 352.438 433.906 351.523 433.89 350.607C433.874 349.653 433.659 348.634 433.544 347.685C433.313 345.805 433.079 343.926 432.85 342.046C432.198 336.718 431.562 331.38 430.912 326.051C428.882 309.44 426.859 292.831 424.837 276.218C423.389 264.308 421.948 252.411 420.5 240.5C420.347 239.246 420.19 237.994 420.037 236.74C419.922 235.8 419.804 234.846 419.69 233.906C419.613 233.278 419.534 232.653 419.458 232.025C419.323 230.917 419.288 229.556 418.88 228.526C418.556 227.711 418.443 226.761 417.839 226.126C416.22 224.426 414.195 223.151 412.372 221.672C412.089 221.441 411.438 221.381 411.1 221.267C410.297 220.996 409.504 220.722 408.699 220.456C405.771 219.491 402.823 218.562 399.877 217.651C390.323 214.697 380.705 211.966 370.985 209.611C363.951 207.907 356.861 206.433 349.727 205.215C343.314 204.12 336.826 203.334 330.32 203.133ZM327.052 223.841C330.558 223.818 334.066 224.041 337.551 224.419C349.915 225.76 362.12 228.565 374.137 231.708C382.707 233.949 391.211 236.496 399.646 239.228C399.906 241.428 400.184 243.626 400.457 245.822C401.504 254.282 402.56 262.755 403.609 271.215C406.716 296.283 409.83 321.343 412.922 346.413C413.115 347.98 413.307 349.532 413.5 351.099C413.519 351.25 413.54 351.41 413.558 351.561C413.456 352.184 413.344 352.819 413.24 353.441C412.858 355.724 412.463 357.989 412.054 360.267C410.924 366.554 409.708 372.841 408.41 379.095C404.578 397.555 400.17 416.001 394.21 433.903C391.528 441.955 388.609 449.949 384.954 457.618C382.668 462.416 380.113 467.188 376.827 471.386C375.883 472.592 374.887 473.756 373.761 474.798C372.793 475.694 371.709 476.472 370.695 477.315C369.368 478.419 368.079 479.575 366.82 480.756C361.633 485.626 356.957 491.039 352.648 496.692C344.51 507.37 337.514 518.922 331.158 530.733C327.423 537.678 327.738 537.429 321.962 549.505C277.536 543.676 287.72 545.701 269.757 542.505C263.428 541.38 257.121 540.188 250.813 538.948C250.38 538.863 249.945 538.773 249.512 538.687C249.421 537.193 249.316 535.701 249.28 534.204C249.087 526.21 249.459 518.198 250.061 510.228C251.833 486.755 255.468 463.429 259.577 440.265C264.223 414.068 269.794 388.009 276.033 362.146C282.015 337.353 288.599 312.692 296.279 288.367C300.696 274.374 305.438 260.433 311.174 246.92C313.141 242.285 315.229 237.703 317.624 233.269C319.151 230.44 320.771 227.597 322.829 225.114C323.155 224.72 323.501 224.31 323.871 223.957C323.9 223.954 323.928 223.959 323.957 223.957C324.981 223.881 326.025 223.847 327.052 223.841Z" fill="black"/>
<path d="M327.668 560.96C327.668 560.96 351.086 505.288 378.88 483.684C406.673 462.08 423.805 351.75 423.805 351.75L409.028 231.407C409.028 231.407 349.111 210.684 321.449 213.769C293.786 216.854 229.423 482.253 239.695 547.561C239.695 547.561 294.343 559.096 327.668 560.96Z" fill="#B876D1"/>
<path d="M330.32 203.133C327.702 203.051 325.068 203.061 322.453 203.248C320.803 203.367 319.188 203.528 317.594 204C315.675 204.568 313.87 205.533 312.244 206.69C309.048 208.965 306.492 212.026 304.261 215.222C301.174 219.647 298.629 224.459 296.279 229.307C289.123 244.066 283.636 259.642 278.521 275.207C268.642 305.263 260.522 335.9 253.271 366.687C245.234 400.818 238.318 435.233 233.286 469.94C231.779 480.336 230.496 490.773 229.526 501.234C228.586 511.377 227.889 521.582 227.964 531.776C227.979 533.704 228.028 535.631 228.109 537.56C228.167 538.925 228.24 540.275 228.341 541.638C228.406 542.527 228.485 543.381 228.572 544.27C228.652 545.083 228.76 545.975 228.861 546.785C229.005 547.941 229.066 549.49 229.498 550.575C229.815 551.373 229.908 552.363 230.539 552.946C232.645 554.894 235.181 556.301 237.509 557.979C237.691 558.11 238.164 558.108 238.376 558.153C239.046 558.291 239.731 558.42 240.401 558.557C242.745 559.036 245.081 559.513 247.429 559.974C252.208 560.912 256.984 561.819 261.775 562.693C273.12 564.764 284.511 566.664 295.932 568.275C306.258 569.733 295.923 568.282 327.023 571.601C332.453 571.931 337.02 568.054 337.985 562.838C349.743 539.014 346.182 545.179 351.086 536.374C357.136 525.515 363.776 514.867 371.649 505.225C374.443 501.803 377.422 498.503 380.644 495.478C382.83 493.427 385.24 491.664 387.441 489.635C390.559 486.762 393.234 483.428 395.598 479.917C399.878 473.558 403.255 466.601 406.241 459.556C409.968 450.764 413.026 441.72 415.842 432.601C421.327 414.848 425.559 396.662 429.234 378.458C430.418 372.592 431.552 366.711 432.589 360.816C432.896 359.072 433.196 357.329 433.485 355.581C433.605 354.862 433.811 354.086 433.832 353.354C433.858 352.438 433.906 351.523 433.89 350.607C433.874 349.653 433.659 348.634 433.544 347.685C433.313 345.805 433.079 343.926 432.85 342.046C432.198 336.718 431.562 331.38 430.912 326.051C428.882 309.44 426.859 292.831 424.837 276.218C423.389 264.308 421.948 252.411 420.5 240.5C420.347 239.246 420.19 237.994 420.037 236.74C419.922 235.8 419.804 234.846 419.69 233.906C419.613 233.278 419.534 232.653 419.458 232.025C419.323 230.917 419.288 229.556 418.88 228.526C418.556 227.711 418.443 226.761 417.839 226.126C416.22 224.426 414.195 223.151 412.372 221.672C412.089 221.441 411.438 221.381 411.1 221.267C410.297 220.996 409.504 220.722 408.699 220.456C405.771 219.491 402.823 218.562 399.877 217.651C390.323 214.697 380.705 211.966 370.985 209.611C363.951 207.907 356.861 206.433 349.727 205.215C343.314 204.12 336.826 203.334 330.32 203.133ZM327.052 223.841C330.558 223.818 334.066 224.041 337.551 224.419C349.915 225.76 362.12 228.565 374.137 231.708C382.707 233.949 391.211 236.496 399.646 239.228C399.906 241.428 400.184 243.626 400.457 245.822C401.504 254.282 402.56 262.755 403.609 271.215C406.716 296.283 409.83 321.343 412.922 346.413C413.115 347.98 413.307 349.532 413.5 351.099C413.519 351.25 413.54 351.41 413.558 351.561C413.456 352.184 413.344 352.819 413.24 353.441C412.858 355.724 412.463 357.989 412.054 360.267C410.924 366.554 409.708 372.841 408.41 379.095C404.578 397.555 400.17 416.001 394.21 433.903C391.528 441.955 388.609 449.949 384.954 457.618C382.668 462.416 380.113 467.188 376.827 471.386C375.883 472.592 374.887 473.756 373.761 474.798C372.793 475.694 371.709 476.472 370.695 477.315C369.368 478.419 368.079 479.575 366.82 480.756C361.633 485.626 356.957 491.039 352.648 496.692C344.51 507.37 337.514 518.922 331.158 530.733C327.423 537.678 327.738 537.429 321.962 549.505C277.536 543.676 287.72 545.701 269.757 542.505C263.428 541.38 257.121 540.188 250.813 538.948C250.38 538.863 249.945 538.773 249.512 538.687C249.421 537.193 249.316 535.701 249.28 534.204C249.087 526.21 249.459 518.198 250.061 510.228C251.833 486.755 255.468 463.429 259.577 440.265C264.223 414.068 269.794 388.009 276.033 362.146C282.015 337.353 288.599 312.692 296.279 288.367C300.696 274.374 305.438 260.433 311.174 246.92C313.141 242.285 315.229 237.703 317.624 233.269C319.151 230.44 320.771 227.597 322.829 225.114C323.155 224.72 323.501 224.31 323.871 223.957C323.9 223.954 323.928 223.959 323.957 223.957C324.981 223.881 326.025 223.847 327.052 223.841Z" fill="black"/>
<path d="M330.307 203.143C327.688 203.062 325.083 203.07 322.469 203.259C320.819 203.377 319.174 203.538 317.581 204.01C315.662 204.579 313.885 205.513 312.259 206.671C309.064 208.947 306.478 212.036 304.248 215.232C301.16 219.657 298.616 224.441 296.265 229.289C289.109 244.047 283.653 259.622 278.536 275.188C268.657 305.244 260.508 335.882 253.258 366.669C245.222 400.799 238.305 435.242 233.273 469.95C231.766 480.346 230.483 490.783 229.513 501.243C228.573 511.388 227.905 521.564 227.98 531.756C227.994 533.686 228.043 535.642 228.125 537.57C228.182 538.936 228.256 540.285 228.356 541.648C228.422 542.54 228.472 543.361 228.559 544.251C228.638 545.063 228.747 545.957 228.848 546.767C228.992 547.922 229.082 549.472 229.513 550.556C229.83 551.355 229.894 552.344 230.526 552.927C232.633 554.875 235.197 556.282 237.524 557.96C237.707 558.092 238.151 558.089 238.364 558.133C239.033 558.272 239.718 558.431 240.388 558.568C242.732 559.046 245.068 559.495 247.416 559.956C252.194 560.893 257 561.799 261.79 562.674C273.136 564.745 284.498 566.674 295.918 568.285C306.245 569.742 295.911 568.264 327.01 571.582C332.468 571.914 337.07 568.019 338 562.761C349.697 539.059 346.204 545.148 351.102 536.355C357.151 525.495 363.792 514.877 371.666 505.235C374.46 501.813 377.408 498.512 380.631 495.488C382.817 493.438 385.257 491.674 387.457 489.646C390.576 486.772 393.221 483.41 395.585 479.899C399.865 473.54 403.241 466.612 406.228 459.567C409.955 450.774 413.042 441.702 415.859 432.583C421.342 414.829 425.576 396.673 429.25 378.469C430.434 372.602 431.539 366.721 432.575 360.827C432.883 359.082 433.182 357.339 433.472 355.591C433.592 354.872 433.828 354.097 433.848 353.364C433.875 352.448 433.921 351.534 433.906 350.617C433.89 349.663 433.675 348.643 433.559 347.696C433.33 345.815 433.095 343.936 432.865 342.056C432.213 336.728 431.549 331.39 430.898 326.062C428.869 309.451 426.845 292.842 424.824 276.229C423.376 264.318 421.935 252.421 420.486 240.511C420.334 239.257 420.176 238.004 420.024 236.75C419.909 235.81 419.791 234.857 419.676 233.916C419.601 233.289 419.551 232.663 419.474 232.036C419.34 230.928 419.304 229.567 418.895 228.536C418.572 227.721 418.459 226.771 417.854 226.136C416.236 224.435 414.182 223.161 412.359 221.682C412.075 221.452 411.453 221.363 411.116 221.248C410.313 220.977 409.52 220.704 408.715 220.438C405.786 219.473 402.84 218.544 399.894 217.633C390.339 214.679 380.692 211.976 370.972 209.622C363.939 207.917 356.876 206.444 349.742 205.226C343.33 204.131 336.813 203.344 330.307 203.143ZM327.039 223.822C330.544 223.8 334.053 224.051 337.538 224.43C349.901 225.77 362.108 228.575 374.124 231.718C382.692 233.959 391.2 236.45 399.634 239.18C399.896 241.399 400.169 243.618 400.443 245.832C401.492 254.292 402.547 262.736 403.596 271.197C406.703 296.265 409.818 321.324 412.908 346.394C413.102 347.961 413.294 349.542 413.487 351.109C413.506 351.261 413.526 351.419 413.545 351.572C413.444 352.194 413.331 352.801 413.227 353.423C412.844 355.705 412.45 357.999 412.041 360.277C410.911 366.564 409.695 372.821 408.396 379.076C404.565 397.536 400.157 416.01 394.196 433.913C391.515 441.965 388.625 449.96 384.97 457.629C382.683 462.427 380.129 467.198 376.843 471.396C375.898 472.603 374.873 473.767 373.748 474.809C372.78 475.705 371.696 476.454 370.682 477.296C369.355 478.4 368.065 479.556 366.807 480.738C361.619 485.608 356.973 491.05 352.664 496.703C344.526 507.379 337.529 518.933 331.175 530.744C327.436 537.695 327.744 537.4 321.948 549.515C277.53 543.687 287.735 545.711 269.773 542.515C263.443 541.389 257.108 540.198 250.8 538.958C250.375 538.875 249.953 538.782 249.527 538.698C249.436 537.199 249.303 535.687 249.267 534.186C249.074 526.191 249.475 518.209 250.077 510.238C251.848 486.766 255.456 463.439 259.563 440.275C264.209 414.079 269.781 388.018 276.02 362.157C282.001 337.362 288.614 312.702 296.294 288.376C300.712 274.384 305.425 260.443 311.16 246.931C313.128 242.295 315.217 237.685 317.61 233.251C319.137 230.422 320.787 227.579 322.845 225.094C323.171 224.702 323.517 224.321 323.886 223.967C323.915 223.964 323.944 223.969 323.973 223.967C324.998 223.891 326.011 223.829 327.039 223.822Z" fill="black"/>
<path d="M309.013 628.599C309.013 495.508 416.905 387.616 549.996 387.616C621.95 387.616 686.539 419.152 730.694 469.155C768.213 511.642 790.979 567.462 790.979 628.599C790.979 761.691 683.087 869.582 549.996 869.582C416.905 869.582 309.013 761.691 309.013 628.599Z" fill="#F3886D" stroke="black" stroke-width="0.0121711" stroke-miterlimit="10" stroke-linecap="round" stroke-linejoin="round"/>
<path d="M549.993 380.734C413.108 380.734 302.131 491.712 302.131 628.597C302.131 765.483 413.108 876.46 549.993 876.46C686.879 876.46 797.857 765.483 797.857 628.597C797.857 567.364 775.557 509.576 735.848 464.609C689.09 411.658 622.029 380.734 549.993 380.734ZM549.993 394.473C618.047 394.473 681.375 423.663 725.551 473.69C763.064 516.171 784.119 570.746 784.119 628.597C784.119 757.894 679.291 862.722 549.993 862.722C420.696 862.722 315.869 757.895 315.869 628.597C315.869 499.3 420.696 394.473 549.993 394.473Z" fill="black"/>
<path d="M724.443 456.738C699.404 442.928 650.765 485.93 627.36 522.395C601.934 503.177 554.248 489.626 503.169 489.626C427.885 489.626 373.326 556.803 382.563 599.415C389.563 631.71 434.9 669.582 499.177 676.551C492.6 692.063 488.736 707.981 488.736 723.202C488.736 789.629 540.553 805.832 613.622 805.832C686.692 805.833 776.067 728.392 773.619 611.128C773.582 609.325 772.756 608.002 771.421 606.963C791.149 593.291 796.426 604.128 791.137 579.485C778.277 519.549 724.443 456.738 724.443 456.738Z" fill="#F9B192"/>
<path d="M715.833 446.909C702.873 445.988 687.482 452.618 670.975 464.928C654.393 477.292 637.825 494.96 625.509 512.562C597.107 494.141 550.895 482.397 503.169 482.397C466.055 482.397 431.241 497.984 406.019 523.466C382.399 547.328 370.332 577.08 375.506 600.948C379.483 619.293 393.896 638.244 415.216 653.384C435.637 667.886 461.193 678.096 489.256 682.48C484.286 696.419 481.505 710.161 481.505 723.202C481.505 757.571 494.707 781.446 520.261 795.739C542.098 807.953 572.335 813.064 613.622 813.064C652.784 813.064 695.202 792.344 727.286 757.33C762.23 719.197 782.038 667.908 780.85 610.984C780.841 610.554 780.725 610.156 780.676 609.74C782.007 609.012 783.307 608.36 784.639 607.774C786.231 607.072 790.889 605.272 791.465 605.027C796.401 602.918 799.34 599.931 800.112 594.643C800.65 590.964 800.065 586.631 798.203 577.955C797.619 575.234 796.96 572.493 796.208 569.712C790.328 548.003 779.578 525.063 765.348 501.717C757.621 489.038 749.325 477.014 741.053 466.055C738.155 462.215 735.465 458.779 733.042 455.788C732.189 454.735 730.103 452.21 729.947 452.028C729.383 451.371 728.68 450.827 727.922 450.408C724.198 448.355 720.152 447.216 715.833 446.909ZM713.461 461.341C715.94 461.341 718.087 461.867 719.998 462.73C720.664 463.532 721.308 464.267 721.82 464.898C724.142 467.765 726.716 471.085 729.513 474.79C737.513 485.388 745.509 496.996 752.969 509.236C766.545 531.511 776.765 553.292 782.238 573.501C782.925 576.039 783.53 578.525 784.061 580.992C785.382 587.152 785.788 590.211 785.738 591.78C785.465 591.893 780.826 593.646 778.825 594.528C775.008 596.21 771.297 598.246 767.315 601.006C763.584 603.591 763.302 608.775 766.36 611.91C767.308 664.809 748.939 712.277 716.614 747.555C687.142 779.717 648.502 798.602 613.622 798.602C532.592 798.602 495.966 778.116 495.966 723.202C495.966 709.507 499.367 694.625 505.829 679.385C507.722 674.92 504.779 669.872 499.958 669.35C470.745 666.182 444.169 656.209 423.575 641.584C404.974 628.375 392.748 612.313 389.62 597.883C385.62 579.43 395.836 554.307 416.315 533.617C438.908 510.792 470.058 496.858 503.169 496.858C551.495 496.858 598.244 509.446 622.992 528.151C626.353 530.692 631.158 529.846 633.434 526.3C645.017 508.253 662.592 489.224 679.622 476.525C693.048 466.514 704.847 461.34 713.461 461.341Z" fill="black" fill-opacity="0.5"/>
<path d="M693.708 420.734C691.059 421.139 688.564 422.568 686.853 424.899C683.431 429.56 684.448 436.111 689.109 439.533C746.2 481.446 780.503 552.198 780.503 628.597C780.503 755.906 677.302 859.107 549.993 859.107C422.331 859.107 317.343 755.18 317.343 628.221C317.343 601.347 319.333 581.184 324.458 563.407C326.06 557.851 322.841 552.052 317.286 550.45C311.729 548.848 305.931 552.037 304.328 557.594C298.556 577.616 296.403 599.555 296.403 628.221C296.403 766.791 410.811 880.047 549.993 880.047C688.867 880.047 801.443 767.471 801.443 628.597C801.443 545.659 764.063 468.582 701.488 422.642C699.157 420.932 696.356 420.328 693.708 420.734Z" fill="black"/>
<path d="M744.438 608.511C738.845 597.659 752.535 582.483 775.015 574.616C797.496 566.748 820.253 569.167 825.846 580.019C831.439 590.87 817.75 606.045 795.269 613.913C790.227 615.678 785.17 616.925 780.297 617.676C763.444 620.272 748.776 616.928 744.438 608.511Z" fill="#FF497F" stroke="black" stroke-width="0.0128133" stroke-miterlimit="10" stroke-linecap="round" stroke-linejoin="round"/>
<path d="M452.167 668.84C447.537 658.175 462.017 644.478 484.508 638.245C495.052 635.325 505.484 634.562 514.069 635.674C523.8 636.936 531.158 640.606 533.618 646.271C538.248 656.935 523.769 670.633 501.276 676.865C478.784 683.098 456.797 679.505 452.167 668.84Z" fill="#FF497F" stroke="black" stroke-width="0.0128133" stroke-miterlimit="10" stroke-linecap="round" stroke-linejoin="round"/>
<path d="M718.204 527.775C710.024 527.775 702.992 533.841 702.992 541.889C702.992 549.937 710.024 555.974 718.204 555.974C726.385 555.974 733.418 549.937 733.418 541.889C733.418 533.841 726.386 527.775 718.204 527.775Z" fill="black"/>
<path d="M511.556 573.529C503.565 573.529 497.036 579.925 497.037 587.904C497.037 595.883 503.565 602.307 511.556 602.307C519.546 602.307 526.075 595.883 526.075 587.904C526.075 579.925 519.546 573.53 511.556 573.529Z" fill="black"/>
<path d="M682.024 668.337C679.049 668.005 676.003 669.438 674.445 672.212C673.911 673.174 673.385 674.111 672.681 674.96C670.321 677.808 667.285 678.047 663.889 677.1C662.191 676.627 660.569 675.93 659.03 675.075C658.567 674.819 658.115 674.553 657.671 674.266C657.533 674.177 657.4 674.07 657.266 673.977C657.247 673.963 657.23 673.964 657.208 673.947C654.288 673.877 651.326 673.266 648.444 673.745C647.508 673.901 647.068 675.047 646.42 675.741C646.009 676.18 645.746 676.892 645.495 677.448C645.402 677.65 645.325 677.851 645.235 678.055C645.209 678.111 645.173 678.172 645.148 678.228C645.135 678.256 645.105 678.342 645.119 678.315C644.927 678.724 644.735 679.151 644.54 679.559C644.34 679.975 644.139 680.389 643.932 680.802C643.529 681.614 643.148 682.347 642.718 683.145C639.365 689.373 634.971 695.746 628.72 699.37C624.103 702.047 618.72 702.54 613.622 701.018C611.852 700.491 610.142 699.754 608.532 698.85C608.081 698.596 607.634 698.324 607.202 698.04C607.052 697.941 606.914 697.825 606.768 697.722C606.751 697.71 606.525 697.552 606.595 697.606C603.436 695.126 598.865 695.662 596.384 698.82C593.904 701.979 594.442 706.549 597.599 709.031C601.064 711.742 605.269 713.702 609.457 714.959C612.718 715.939 616.115 716.48 619.522 716.492C622.381 716.503 625.232 716.155 627.997 715.422C639.185 712.456 647.647 703.813 653.65 694.28C654.448 693.014 655.15 691.683 655.878 690.375C658.082 691.301 660.348 692.069 662.704 692.487C669.829 693.751 677.065 691.968 682.399 686.963C684.633 684.867 686.365 682.385 687.865 679.732C689.942 676.033 688.614 671.339 684.916 669.262C683.99 668.743 683.015 668.448 682.024 668.337Z" fill="black"/>
<path d="M546.697 550.131C544.738 550.296 542.83 551.201 541.462 552.821C539.296 555.412 536.375 557.178 533.364 558.635C528.945 560.772 524.192 562.29 519.451 563.523C511.101 565.695 502.568 567.039 494 568.006C484.551 569.073 474.97 569.712 465.454 569.683C461.438 569.666 458.183 572.898 458.166 576.914C458.149 580.93 461.38 584.185 465.396 584.202C474.682 584.247 484.004 583.688 493.248 582.871C504.114 581.913 515.001 580.429 525.554 577.608C535.628 574.915 546.269 570.893 553.204 562.742C555.942 559.501 555.547 554.662 552.307 551.925C550.687 550.556 548.655 549.967 546.697 550.131Z" fill="black"/>
<path d="M741.285 510.393C739.331 510.605 737.465 511.574 736.136 513.227C734.501 515.278 732.642 517.195 730.41 518.607C723.524 522.96 715.398 523.163 707.619 521.527C704.237 520.817 700.92 519.755 697.728 518.433C696.647 517.986 695.569 517.499 694.518 516.987C694.134 516.8 693.767 516.607 693.39 516.408C693.281 516.351 693.179 516.293 693.071 516.234C693.021 516.208 692.877 516.12 692.927 516.147C689.436 514.162 684.993 515.405 683.006 518.895C681.021 522.386 682.235 526.801 685.726 528.787C689.484 530.923 693.551 532.596 697.641 533.964C710.322 538.208 724.849 539.381 736.889 532.575C741.261 530.104 744.961 526.747 748.11 522.857C750.768 519.552 750.231 514.699 746.925 512.041C745.272 510.712 743.239 510.18 741.285 510.393Z" fill="black"/>
<path d="M800.662 562.742C791.875 562.762 782.187 564.461 772.636 567.803C760.615 572.011 750.398 578.309 743.83 585.591C736.318 593.918 733.697 603.441 738.017 611.823C744.081 623.59 761.461 627.909 781.4 624.838C786.804 624.006 792.282 622.611 797.654 620.731C809.675 616.523 819.891 610.225 826.46 602.944C833.973 594.616 836.594 585.093 832.273 576.712C827.436 567.324 815.306 562.709 800.662 562.742ZM799.389 577.232C801.684 577.176 803.921 577.271 806.012 577.493C813.308 578.267 818.005 580.622 819.403 583.334C822.251 588.861 811.793 600.461 792.882 607.079C788.345 608.667 783.727 609.824 779.202 610.521C764.718 612.753 753.3 609.938 750.858 605.2C748.01 599.674 758.497 588.073 777.408 581.455C784.883 578.839 792.506 577.401 799.389 577.232Z" fill="black"/>
<path d="M507.362 627.961C499.48 627.837 490.953 628.966 482.576 631.288C470.555 634.619 460.139 640.044 453.191 646.616C445.182 654.192 441.855 663.264 445.526 671.72C452.044 686.73 477.647 690.919 503.198 683.839C515.218 680.508 525.635 675.054 532.583 668.481C540.591 660.905 543.918 651.833 540.247 643.377C536.627 635.039 527.279 630.102 514.998 628.511C512.541 628.193 509.99 628.003 507.362 627.961ZM506.987 642.422C509.126 642.451 511.185 642.602 513.147 642.857C520.905 643.862 525.802 646.47 526.971 649.161C527.808 651.087 526.706 654.158 522.662 657.982C517.558 662.811 509.226 667.162 499.351 669.898C489.376 672.663 479.257 673.359 471.181 672.039C464.21 670.899 459.884 668.456 458.802 665.965C457.966 664.04 459.097 660.969 463.141 657.144C468.245 652.315 476.576 647.964 486.452 645.228C493.474 643.282 500.568 642.337 506.987 642.422Z" fill="black"/>
<path d="M294.462 433.642C294.462 433.642 370.23 223.018 443.051 159.225C443.051 159.225 592.584 188.22 734.613 362.059C734.613 362.059 723.611 395.293 703.938 420.532C703.938 420.532 517.011 394.747 395.872 503.586C395.872 503.586 384.458 514.547 364.962 507.741C345.466 500.935 302.218 475.039 293.629 461.329C293.629 461.329 291.915 445.483 294.462 433.642Z" fill="#93E9CA"/>
<path d="M444.476 152.027C442.55 152.465 440.603 152.86 438.691 153.357C438.656 153.367 438.341 153.637 438.229 153.734C437.816 154.088 437.388 154.438 436.985 154.804C436.595 155.157 436.216 155.518 435.828 155.874C435.427 156.241 435.039 156.601 434.642 156.973C430.923 160.459 427.355 164.122 423.941 167.905C410.764 182.511 399.403 198.764 388.945 215.396C374.938 237.673 362.368 260.864 350.623 284.404C338.112 309.479 326.525 334.998 315.57 360.788C308.783 376.764 302.237 392.846 295.96 409.029C294.03 414.009 292.133 419.009 290.263 424.011C289.853 425.108 289.187 426.957 288.44 428.986C287.731 429.9 287.178 430.926 286.936 432.138C286.616 433.757 286.796 433.044 286.619 433.758C286.2 435.445 286.044 437.297 285.867 439.022C285.523 442.361 285.385 445.704 285.375 449.058C285.365 452.128 285.494 455.22 285.693 458.284C285.754 459.212 285.813 460.134 285.895 461.06C285.924 461.379 285.879 461.795 285.982 462.102C286.351 463.196 286.69 464.324 287.11 465.399C287.355 466.026 287.955 466.683 288.353 467.222C289.099 468.228 289.917 469.183 290.754 470.113C293.397 473.053 296.354 475.7 299.402 478.211C304.586 482.484 310.088 486.389 315.686 490.098C321.991 494.278 328.466 498.197 335.063 501.899C341.587 505.559 348.225 509.044 355.077 512.051C361.677 514.945 368.494 517.305 375.757 517.604C378.42 517.713 381.078 517.541 383.71 517.112C385.949 516.747 388.168 516.197 390.305 515.434C393.349 514.348 396.269 512.87 398.894 510.981C399.499 510.546 400.096 510.079 400.658 509.592C400.737 509.524 400.873 509.412 400.977 509.303C400.941 509.334 401.084 509.173 401.064 509.216C404.409 506.244 407.799 503.331 411.273 500.51C419.365 493.942 427.817 487.802 436.609 482.203C445.543 476.513 454.738 471.233 464.2 466.469C489.532 453.716 516.536 444.411 544.112 437.894C578.613 429.74 614.108 425.845 649.533 425.487C661.8 425.362 674.084 425.671 686.322 426.499C689.826 426.735 693.327 426.996 696.821 427.338C698.303 427.482 699.768 427.656 701.247 427.829C701.606 427.872 702.595 428.104 702.896 428.032C704.679 427.601 706.512 427.331 708.246 426.731C708.71 426.57 709.009 426.103 709.374 425.775C710.049 425.171 710.654 424.209 711.196 423.491C711.408 423.209 711.593 422.935 711.804 422.652C712.014 422.37 712.232 422.097 712.439 421.813C712.648 421.529 712.87 421.231 713.076 420.946C716.106 416.745 718.929 412.409 721.579 407.959C727.047 398.778 731.794 389.183 735.983 379.356C737.489 375.82 738.926 372.229 740.263 368.625C740.64 367.611 741.004 366.61 741.362 365.589C741.428 365.399 741.765 364.616 741.738 364.432C741.409 362.198 741.145 359.947 740.754 357.722C740.736 357.615 740.454 357.329 740.35 357.201C740.007 356.778 739.655 356.35 739.308 355.929C738.934 355.474 738.555 355.024 738.181 354.57C737.808 354.117 737.456 353.661 737.081 353.21C734.119 349.637 731.113 346.113 728.087 342.595C717.261 330.016 706.038 317.776 694.392 305.952C646.273 257.092 590.989 214.894 529.594 184.102C509.71 174.13 489.099 165.401 467.932 158.535C462.172 156.667 456.362 154.932 450.492 153.444C449.024 153.073 447.573 152.704 446.095 152.374C445.79 152.307 444.766 151.962 444.476 152.027ZM445.054 167.298C448.889 168.205 452.713 169.18 456.479 170.306C464.234 172.625 471.898 175.258 479.471 178.115C504.063 187.392 527.864 198.965 550.591 212.157C594.638 237.724 635.147 269.031 671.688 304.476C690.907 323.119 708.904 342.944 726.005 363.535C723.017 371.735 719.489 379.777 715.563 387.541C711.189 396.191 706.247 404.707 700.466 412.53C697.586 412.222 694.705 411.949 691.818 411.72C683.462 411.053 675.065 410.65 666.685 410.447C634.096 409.658 601.337 411.785 569.188 417.273C525.387 424.749 481.947 438.22 443.232 460.338C429.759 468.035 416.801 476.57 404.621 486.195C401.241 488.865 397.929 491.618 394.672 494.437C393.135 495.766 391.711 497.225 390.131 498.399C387.89 500.066 385.184 501.19 382.467 501.783C374.002 503.63 365.866 500.203 358.316 496.693C351.406 493.48 344.709 489.831 338.129 485.992C332.541 482.731 327.032 479.334 321.701 475.666C316.566 472.133 311.492 468.48 306.806 464.358C305.193 462.938 303.615 461.476 302.179 459.875C301.796 459.449 301.435 458.994 301.079 458.544C301.058 458.265 301.041 457.985 301.022 457.706C300.887 455.735 300.796 453.78 300.762 451.805C300.704 448.543 300.756 445.256 301.022 442.001C301.136 440.602 301.303 439.224 301.513 437.837C301.58 437.399 301.512 437.833 302.005 435.146C302.069 434.822 301.982 434.513 302.005 434.192C302.105 433.92 302.194 433.654 302.294 433.382C302.986 431.505 303.702 429.614 304.405 427.742C306.514 422.131 308.645 416.551 310.827 410.967C317.438 394.047 324.344 377.222 331.506 360.527C343.992 331.421 357.317 302.64 371.997 274.57C382.22 255.022 393.037 235.766 405.084 217.276C413.481 204.386 422.477 191.783 432.618 180.197C435.773 176.592 439.05 173.075 442.48 169.728C443.327 168.901 444.187 168.102 445.054 167.298Z" fill="black"/>
<path d="M669.404 419.532C588.122 401.955 489.072 448.156 441.008 472.006C426.432 479.239 419.171 486.659 418.976 485.148C408.361 402.407 449.767 326.428 518.464 309.28C587.838 291.963 660.843 340.686 689.791 420.084C690.224 421.272 683.144 422.504 669.404 419.532Z" fill="#B7F2CC"/>
<path d="M510.109 441.955L462.669 417.856L516.208 413.097L488.476 385.217L527.711 387.524L534.588 316.903L590.79 376.552L611.363 353.835L608.856 395.877L632.883 392.427L610.024 419.851L510.109 441.955Z" fill="#DFFFEA"/>
<path d="M499.93 253.997C494.626 254.003 488.849 257.106 486.943 269.529C486.943 269.529 495.935 279.798 508.375 299.203C493.202 304.487 481.795 310.049 481.795 310.049C475.967 326.472 492.786 332.203 492.786 332.203C498.254 329.05 509.683 325.217 521.65 321.531C532.024 340.188 543.27 363.462 553.378 391.551C553.378 391.551 569.809 402.446 576.833 385.102C576.833 385.102 562.74 349.094 545.829 314.532C553.88 312.387 564.744 309.47 564.744 309.47C574.343 302.336 559.394 289.976 559.394 289.976C551.673 289.266 542.909 290.189 534.115 291.973C525.795 276.903 517.404 263.844 510.052 257.092C510.052 257.092 505.234 253.992 499.93 253.997Z" fill="#FFA0CA"/>
<path d="M287.557 432.974C287.557 432.974 363.326 222.35 436.147 158.558C436.147 158.558 585.679 187.552 727.708 361.391C727.708 361.391 716.707 394.625 697.033 419.864C697.033 419.864 510.107 394.079 388.967 502.918C388.967 502.918 377.553 513.879 358.058 507.073C338.563 500.267 295.315 474.371 286.724 460.661C286.724 460.661 285.011 444.816 287.557 432.974Z" fill="#AF93E5"/>
<path d="M662.5 418.865C581.218 401.287 482.167 447.488 434.103 471.338C419.527 478.571 412.266 485.992 412.072 484.48C401.456 401.739 442.863 325.76 511.559 308.612C580.934 291.295 653.938 340.019 682.886 419.416C683.319 420.604 676.239 421.836 662.5 418.865Z" fill="#ABACE3"/>
<path d="M503.203 441.287L455.764 417.188L509.303 412.429L481.571 384.549L520.806 386.856L527.682 316.235L583.886 375.885L604.459 353.167L601.952 395.209L625.979 391.759L603.119 419.183L503.203 441.287Z" fill="#C3C4E1"/>
<path d="M493.024 253.33C487.72 253.334 481.944 256.437 480.039 268.861C480.039 268.861 489.03 279.13 501.47 298.534C486.297 303.819 474.89 309.38 474.89 309.38C469.062 325.803 485.88 331.535 485.88 331.535C491.348 328.382 502.777 324.549 514.745 320.862C525.118 339.52 536.365 362.793 546.473 390.883C546.473 390.883 562.904 401.778 569.929 384.434C569.929 384.434 555.835 348.426 538.924 313.863C546.974 311.719 557.839 308.802 557.839 308.802C567.437 301.668 552.488 289.309 552.488 289.309C544.768 288.598 536.004 289.521 527.21 291.304C518.89 276.235 510.499 263.175 503.147 256.424C503.147 256.424 498.329 253.324 493.024 253.33Z" fill="#FFD000"/>
<path d="M445.064 149.01C442.331 149.628 439.562 150.158 436.85 150.861C436.64 150.916 436.527 151.131 436.358 151.266C436.32 151.297 436.176 151.426 436.127 151.468C435.376 152.123 434.612 152.799 433.871 153.464C433.477 153.817 433.077 154.15 432.685 154.505C432.293 154.861 431.919 155.218 431.528 155.576C427.398 159.364 423.355 163.28 419.439 167.289C403.917 183.18 390.286 200.703 378.601 219.58C375.583 224.453 377.112 230.849 381.985 233.867C386.858 236.886 393.254 235.386 396.273 230.512C405.994 214.823 417.109 200.14 429.707 186.638C434.095 181.933 438.655 177.379 443.358 172.986C444.215 172.186 445.093 171.405 445.96 170.615C446.903 170.854 447.855 171.085 448.795 171.338C454.031 172.748 459.21 174.341 464.355 176.053C479.845 181.204 494.993 187.387 509.763 194.331C553.626 214.952 594.732 241.999 631.843 273.115C659.333 296.164 684.958 321.332 708.632 348.283C712.706 352.923 716.733 357.601 720.692 362.34C721.162 362.903 721.612 363.482 722.081 364.047C720.724 367.591 719.414 371.165 717.887 374.632C714.529 382.252 710.802 389.707 706.607 396.902C704.277 400.898 701.808 404.804 699.145 408.587C698.654 409.285 698.144 409.98 697.642 410.669C696.665 410.801 695.702 410.915 694.72 410.987C690.785 411.278 686.829 411.203 682.891 411.016C676.843 410.732 671.693 415.409 671.409 421.457C671.125 427.505 675.802 432.656 681.85 432.939C688.386 433.242 695.002 433.256 701.488 432.273C702.989 432.047 704.503 431.74 705.971 431.348C706.414 431.23 707.146 431.152 707.532 430.885C709.21 429.728 710.902 428.614 712.507 427.357C712.816 427.116 712.991 426.714 713.23 426.403C713.67 425.83 714.101 425.276 714.532 424.696C715.6 423.26 716.665 421.801 717.684 420.329C721.425 414.928 724.839 409.306 728.009 403.554C732.97 394.557 737.336 385.233 741.169 375.702C742.145 373.275 743.083 370.815 743.974 368.356C744.244 367.613 744.498 366.876 744.756 366.129C744.804 365.988 745.01 365.676 744.987 365.521C744.508 362.277 744.107 359.005 743.54 355.775C743.507 355.581 743.313 355.469 743.193 355.312C743.104 355.194 742.998 355.079 742.905 354.965C742.21 354.113 741.521 353.266 740.822 352.42C740.447 351.966 740.07 351.513 739.694 351.06C739.318 350.607 738.942 350.153 738.566 349.701C738.191 349.251 737.814 348.791 737.438 348.342C732.629 342.597 727.748 336.908 722.775 331.307C702.811 308.823 681.435 287.642 658.828 267.822C640.127 251.428 620.415 236.114 599.913 222.038C568.685 200.601 535.481 181.954 500.508 167.346C488.612 162.379 476.506 157.889 464.182 154.1C459.574 152.684 454.921 151.352 450.241 150.196C448.99 149.887 447.739 149.576 446.481 149.299C446.211 149.241 445.32 148.952 445.064 149.01Z" fill="black"/>
<path d="M444.456 152.046C442.53 152.484 440.584 152.851 438.672 153.348C438.637 153.357 438.322 153.627 438.209 153.724C437.796 154.079 437.398 154.429 436.995 154.794C436.604 155.148 436.225 155.509 435.838 155.864C435.437 156.232 435.02 156.62 434.623 156.992C430.904 160.478 427.364 164.141 423.951 167.924C410.774 182.53 399.384 198.783 388.926 215.415C374.918 237.693 362.379 260.855 350.633 284.394C338.122 309.469 326.534 334.988 315.579 360.777C308.792 376.755 302.246 392.836 295.97 409.02C294.039 413.999 292.143 418.999 290.272 424.002C289.857 425.111 289.196 426.929 288.421 429.034C287.729 429.939 287.155 430.965 286.917 432.157C286.597 433.777 286.776 433.064 286.6 433.777C286.18 435.464 286.054 437.287 285.876 439.013C285.533 442.351 285.396 445.723 285.384 449.078C285.374 452.147 285.474 455.211 285.674 458.274C285.734 459.203 285.823 460.124 285.906 461.051C285.933 461.369 285.889 461.815 285.992 462.121C286.36 463.215 286.7 464.314 287.12 465.39C287.365 466.016 287.965 466.673 288.364 467.211C289.109 468.218 289.927 469.202 290.764 470.133C293.408 473.072 296.365 475.719 299.412 478.231C304.596 482.503 310.097 486.379 315.695 490.089C322 494.267 328.447 498.217 335.044 501.918C341.568 505.578 348.234 509.035 355.087 512.041C361.687 514.936 368.475 517.295 375.737 517.594C378.402 517.703 381.088 517.561 383.72 517.131C385.959 516.766 388.177 516.187 390.314 515.424C393.358 514.338 396.278 512.86 398.904 510.971C399.508 510.536 400.076 510.069 400.639 509.583C400.715 509.517 400.852 509.399 400.957 509.293C400.922 509.324 401.094 509.163 401.073 509.206C404.412 506.24 407.785 503.317 411.254 500.501C419.346 493.932 427.827 487.793 436.618 482.193C445.553 476.503 454.719 471.223 464.182 466.46C489.513 453.706 516.545 444.402 544.123 437.884C578.623 429.731 614.117 425.835 649.544 425.477C661.81 425.352 674.093 425.661 686.333 426.489C689.837 426.726 693.336 427.015 696.832 427.357C698.313 427.501 699.779 427.646 701.257 427.819C701.617 427.862 702.604 428.094 702.905 428.022C704.689 427.592 706.522 427.322 708.255 426.72C708.719 426.56 709.018 426.093 709.383 425.766C710.058 425.161 710.635 424.228 711.177 423.51C711.389 423.229 711.602 422.925 711.813 422.642C712.023 422.36 712.241 422.088 712.45 421.804C712.657 421.52 712.85 421.25 713.057 420.965C716.087 416.764 718.91 412.4 721.559 407.95C727.027 398.769 731.803 389.173 735.992 379.346C737.499 375.81 738.906 372.248 740.244 368.644C740.62 367.63 741.015 366.601 741.372 365.579C741.438 365.389 741.774 364.606 741.748 364.422C741.418 362.188 741.155 359.966 740.764 357.741C740.745 357.634 740.463 357.32 740.359 357.191C740.016 356.768 739.664 356.369 739.318 355.948C738.944 355.493 738.565 355.014 738.19 354.56C737.817 354.107 737.436 353.681 737.062 353.229C734.099 349.657 731.124 346.103 728.096 342.586C717.271 330.006 706.018 317.766 694.373 305.941C646.254 257.082 590.97 214.913 529.575 184.121C509.691 174.149 489.109 165.391 467.941 158.525C462.182 156.657 456.371 154.922 450.501 153.435C449.033 153.063 447.554 152.723 446.076 152.393C445.772 152.326 444.747 151.981 444.456 152.046ZM445.064 167.317C448.899 168.224 452.723 169.17 456.488 170.296C464.245 172.616 471.907 175.248 479.481 178.105C504.072 187.382 527.845 198.955 550.572 212.147C594.618 237.714 635.157 269.022 671.698 304.467C690.918 323.109 708.913 342.935 726.014 363.525C723.027 371.725 719.47 379.767 715.544 387.531C711.171 396.179 706.254 404.699 700.475 412.52C697.586 412.212 694.695 411.941 691.799 411.71C683.442 411.044 675.075 410.64 666.694 410.438C634.105 409.648 601.317 411.776 569.169 417.263C525.367 424.739 481.956 438.21 443.242 460.328C429.769 468.025 416.811 476.589 404.631 486.214C401.251 488.884 397.91 491.608 394.653 494.427C393.117 495.757 391.691 497.244 390.111 498.418C387.871 500.085 385.193 501.18 382.476 501.773C374.012 503.621 365.875 500.193 358.327 496.683C351.416 493.47 344.719 489.821 338.139 485.982C332.551 482.722 327.042 479.324 321.711 475.656C316.575 472.124 311.473 468.471 306.787 464.348C305.174 462.929 303.596 461.466 302.159 459.865C301.784 459.446 301.439 459.005 301.089 458.564C301.068 458.284 301.051 458.005 301.031 457.725C300.896 455.755 300.805 453.771 300.771 451.796C300.715 448.533 300.766 445.275 301.031 442.021C301.145 440.622 301.284 439.214 301.494 437.826C301.561 437.389 301.493 437.823 301.986 435.137C302.049 434.82 301.963 434.526 301.986 434.211C302.089 433.929 302.2 433.655 302.304 433.373C302.995 431.496 303.683 429.605 304.386 427.732C306.494 422.121 308.655 416.541 310.836 410.958C317.447 394.037 324.353 377.241 331.516 360.546C344.002 331.44 357.326 302.63 372.007 274.561C382.23 255.012 393.047 235.757 405.094 217.266C413.491 204.377 422.457 191.774 432.599 180.187C435.754 176.583 439.031 173.094 442.461 169.747C443.31 168.918 444.195 168.124 445.064 167.317Z" fill="black"/>
<path d="M499.93 246.767C489.489 246.777 481.978 254.231 479.8 268.43C479.476 270.54 480.1 272.695 481.506 274.301C481.551 274.352 482.524 275.485 482.952 276.008C484.195 277.525 485.621 279.358 487.233 281.474C490.401 285.634 493.807 290.525 497.326 295.732C493.426 297.241 489.408 298.722 485.844 300.273C483.888 301.124 482.119 301.903 480.58 302.616C479.643 303.05 478.979 303.364 478.613 303.542C476.91 304.372 475.604 305.833 474.97 307.619C470.997 318.812 474.407 328.069 482.142 334.315C483.919 335.749 485.789 336.912 487.667 337.843C488.332 338.173 488.939 338.475 489.518 338.711C489.902 338.867 490.217 338.981 490.443 339.058C492.415 339.73 494.595 339.521 496.401 338.48C499.882 336.472 507.657 333.672 518.093 330.323C528.674 349.946 538.285 370.954 546.581 394.01C547.107 395.474 548.089 396.707 549.386 397.567C549.692 397.77 550.152 398.075 550.746 398.406C551.672 398.924 552.689 399.434 553.811 399.91C558.383 401.85 563.174 402.73 568.012 401.819C574.866 400.527 580.324 395.769 583.543 387.82C584.237 386.106 584.246 384.192 583.573 382.47C583.544 382.397 581.908 378.263 581.259 376.657C579.406 372.075 577.298 366.995 574.982 361.502C568.928 347.139 562.551 332.855 556.096 319.275C561.12 317.93 566.594 316.477 566.624 316.469C567.504 316.233 568.322 315.828 569.053 315.284C573.917 311.668 575.906 306.471 574.953 300.967C574.265 296.989 572.216 293.292 569.256 289.716C568.124 288.349 566.924 287.099 565.727 285.957C564.994 285.256 564.385 284.719 563.992 284.395C562.871 283.467 561.507 282.908 560.058 282.775C553.488 282.171 545.953 282.805 537.933 284.106C529.342 269.011 521.765 258.039 514.94 251.77C514.636 251.491 514.304 251.242 513.957 251.019C513.662 250.829 513.248 250.573 512.684 250.266C511.804 249.789 510.824 249.319 509.763 248.878C506.616 247.573 503.324 246.763 499.93 246.767ZM499.93 261.228C501.178 261.227 502.685 261.579 504.21 262.211C504.913 262.503 505.272 262.709 505.627 262.905C511.573 268.565 519.036 279.635 527.781 295.472C529.308 298.237 532.465 299.686 535.562 299.058C543.416 297.466 550.378 296.826 556.356 297.092C556.951 297.692 557.544 298.281 558.091 298.943C559.454 300.589 560.269 302.06 560.55 303.079C557.237 303.965 545.355 307.166 543.977 307.532C539.575 308.705 537.318 313.62 539.321 317.713C539.961 319.021 540.616 320.34 541.259 321.675C548.215 336.116 555.116 351.614 561.649 367.112C563.937 372.538 566.012 377.575 567.839 382.094C568.119 382.789 568.386 383.488 568.822 384.581C567.754 386.253 566.63 387.343 565.322 387.589C563.739 387.888 561.659 387.502 559.48 386.576C559.308 386.504 559.288 386.475 559.133 386.403C550.055 361.624 539.645 338.975 527.984 318.003C526.323 315.016 522.776 313.613 519.51 314.618C507.126 318.433 498.627 321.421 492.873 324.105C492.314 323.764 491.738 323.479 491.223 323.063C488.617 320.96 487.473 318.559 487.984 315.168C489.128 314.647 490.265 314.113 491.629 313.519C496.925 311.215 502.658 308.931 508.664 306.781C509.356 306.533 510.054 306.27 510.746 306.028C515.162 304.491 517 299.234 514.477 295.298C508.927 286.641 503.613 279.103 498.743 272.71C497.283 270.792 496.037 269.187 494.839 267.707C495.508 265.174 496.307 263.195 497.269 262.241C497.988 261.525 498.763 261.229 499.93 261.228Z" fill="black"/>
<path d="M354.789 720.769C354.789 720.769 300.29 689.47 278.002 699.64C240.495 716.754 205.095 786.928 228.488 811.288C251.881 835.648 266.161 839.917 294.728 846.111C323.294 852.306 376.261 839.721 404.247 807.382" fill="#F3886D"/>
<path d="M220.865 776.479C220.865 776.479 308.841 731.615 398.814 813.067L384.718 833.441L362.409 841.56L334.308 848.045L305.488 847.917L280.647 841.729C280.647 841.729 261.905 833.402 257.873 831.839C253.84 830.277 236.582 818.588 236.582 818.588L223.074 803.941L220.865 776.479Z" fill="#F9B192"/>
<path d="M281.162 755.884C275.092 756.083 269.036 756.696 263.056 757.764C259.628 758.375 256.154 759.079 252.847 760.193C249.042 761.479 247.02 765.615 248.307 769.42C249.592 773.224 253.699 775.246 257.503 773.96C257.472 773.97 257.588 773.942 257.619 773.931C257.728 773.896 257.827 773.878 257.937 773.844C258.198 773.766 258.456 773.686 258.719 773.613C259.481 773.401 260.26 773.216 261.032 773.035C263.169 772.532 265.311 772.093 267.481 771.762C274.185 770.739 280.98 770.354 287.756 770.547C307.834 771.118 327.488 776.507 345.543 785.182C349.369 787.012 353.952 785.394 355.781 781.567C357.611 777.74 355.992 773.158 352.165 771.328C344.674 767.763 336.969 764.667 329.028 762.247C313.55 757.529 297.333 755.353 281.162 755.884Z" fill="black"/>
<path d="M308.031 758.082C305.243 757.571 302.281 758.718 300.627 761.235C298.638 764.246 296.766 767.356 294.929 770.461C291.648 776.003 288.662 781.735 287.004 787.987C285.945 792.095 288.421 796.271 292.528 797.33C296.636 798.388 300.812 795.941 301.87 791.834C302.765 788.219 304.341 784.77 305.948 781.422C307.966 777.22 310.231 773.154 312.774 769.246C314.98 765.89 314.047 761.387 310.691 759.181C309.852 758.629 308.96 758.253 308.031 758.082Z" fill="black"/>
<path d="M298.053 685.371C295.562 685.255 293.058 685.286 290.504 685.545C278.253 686.786 267.157 692.632 257.648 700.208C249.342 706.827 242.142 714.762 235.841 723.288C230.396 730.656 225.632 738.528 221.64 746.773C216.681 757.018 212.776 767.954 211.141 779.253C210.14 786.179 210.008 793.314 211.431 800.193C212.539 805.55 214.627 810.707 217.851 815.145C219.394 817.27 221.222 819.149 223.057 821.017C224.509 822.494 225.983 823.953 227.483 825.383C237.305 834.759 248.092 842.606 260.714 847.77C268.698 851.036 277.053 853.208 285.443 855.145C293.918 857.101 302.376 858.78 311.067 859.367C329.724 860.628 348.57 857.63 365.962 850.777C380.763 844.946 394.044 836.531 406.279 826.424C410.945 822.566 411.613 815.646 407.754 810.981C403.895 806.315 396.975 805.676 392.31 809.534C384.293 816.174 375.745 822.067 366.395 826.685C352.515 833.543 337.26 837.45 321.769 837.82C315.728 837.965 309.669 837.608 303.692 836.721C299.181 836.052 294.717 835.038 290.272 834.031C284.22 832.661 278.2 831.178 272.34 829.115C267.702 827.481 263.207 825.444 258.979 822.925C252.876 819.288 247.36 814.748 242.204 809.881C240.63 808.396 239.095 806.884 237.576 805.34C236.571 804.319 235.545 803.324 234.742 802.13C233.476 800.25 232.694 798.059 232.226 795.854C231.117 790.634 231.534 785.132 232.457 779.918C233.935 771.563 236.883 763.494 240.526 755.854C243.907 748.768 247.993 742.021 252.645 735.696C257.599 728.96 263.2 722.646 269.651 717.301C275.907 712.119 283.194 707.55 291.372 706.369C298.951 705.274 306.357 707.329 313.497 709.666C318.944 711.451 324.813 708.49 326.598 703.043C328.384 697.595 325.423 691.727 319.975 689.941C312.753 687.571 305.522 685.721 298.053 685.371Z" fill="black"/>
<path d="M287.235 690.375C282.673 690.551 278.595 691.425 275.001 693.065C255.283 702.062 235.686 724.387 223.867 749.695C211.217 776.783 209.672 802.153 223.259 816.303C235.28 828.819 245.399 836.615 256.52 842.014C266.037 846.635 275.06 849.246 293.194 853.179C309.087 856.625 330.8 854.744 351.877 848.088C375.06 840.767 395.648 828.371 409.721 812.109L398.788 802.651C386.611 816.723 368.328 827.727 347.538 834.292C328.707 840.239 309.472 841.9 296.259 839.035C279.192 835.335 271.014 832.975 262.825 829C253.389 824.418 244.616 817.634 233.7 806.266C225.387 797.61 226.571 778.061 236.969 755.797C247.448 733.358 264.802 713.624 281.017 706.224C286.456 703.743 296.556 704.621 309.592 708.654C315.572 710.505 321.943 712.949 328.536 715.827C334.179 718.29 339.675 720.934 344.761 723.578C346.538 724.501 348.141 725.358 349.534 726.123C350.017 726.388 351.122 727.014 351.182 727.048L358.384 714.497C358.03 714.294 357.381 713.924 356.475 713.427C354.986 712.609 353.294 711.714 351.414 710.736C346.053 707.951 340.285 705.155 334.321 702.552C327.265 699.472 320.412 696.853 313.872 694.83C303.765 691.702 294.838 690.083 287.235 690.375Z" fill="black"/>
<path d="M240.675 902.804C240.675 878.828 364.436 859.392 517.103 859.392C669.771 859.392 793.532 878.828 793.532 902.804C793.532 926.776 669.771 946.221 517.103 946.221C364.436 946.221 240.675 926.776 240.675 902.804Z" fill="black" fill-opacity="0.7"/>
<path opacity="0.197261" d="M404.393 503.656C404.393 503.656 400.703 853.581 719.701 804.149L668.696 846.315L597.943 872.043L485.672 867.366L406.147 817.078L367.561 842.43L307.663 851.439L256.831 832.574L226.246 807.808L225.667 782.63L263.997 768.195L332.741 770.942C332.741 770.942 357.336 732.773 354.371 722.8L320.63 705.597L316.975 565.706L332.504 533.618L347.451 507.527L381.787 512.378L404.393 503.656Z" fill="black"/>
<path opacity="0.197261" d="M795.085 640.21L843.198 633.672L792.644 700.549L795.085 640.21Z" fill="black"/>
</g>
</svg>
