<svg width="1221" height="1288" viewBox="0 0 1221 1288" fill="none" xmlns="http://www.w3.org/2000/svg">
<mask id="mask0_311_10336" style="mask-type:luminance" maskUnits="userSpaceOnUse" x="0" y="0" width="1221" height="1288">
<path d="M1220.83 0H0V1288H1220.83V0Z" fill="white"/>
</mask>
<g mask="url(#mask0_311_10336)">
<path d="M341.136 725.83C341.136 578.242 460.779 458.598 608.367 458.598C755.955 458.598 875.599 578.242 875.599 725.83C875.599 873.417 755.955 993.061 608.367 993.061C460.779 993.061 341.136 873.417 341.136 725.83Z" fill="#F3886D"/>
<path d="M632.495 607.508C582.721 607.508 524.259 626.024 494.365 666.338C482.186 626.736 445.331 597.963 401.738 597.963C389.747 597.963 378.267 600.141 367.667 604.122C367.667 604.122 322.663 692.09 344.846 771.057C353.009 800.115 398.207 793.498 401.808 783.554C405.411 773.609 391.827 788.529 395.604 788.083C391.274 799.634 391.9 813.855 391.9 826.899C391.901 885.758 454.588 934.654 514 934.654C573.412 934.654 621.577 886.958 621.577 828.1C621.577 819.032 620.296 810.27 618.145 801.865C680.71 786.412 730.029 738.809 727.616 704.204C724.18 654.931 700.366 607.508 632.495 607.508Z" fill="#F9B192"/>
<path d="M608.359 446.637C454.173 446.637 329.185 571.657 329.187 725.842C329.187 880.028 454.173 1005.01 608.359 1005.01C762.545 1005.01 887.531 880.028 887.531 725.842C887.531 571.657 762.543 446.637 608.359 446.637ZM608.359 470.529C749.349 470.529 863.639 584.852 863.64 725.842C863.64 866.833 749.349 981.123 608.359 981.123C467.369 981.123 353.078 866.833 353.078 725.842C353.078 584.852 467.369 470.529 608.359 470.529Z" fill="black"/>
<path d="M616.411 687.101C611.009 686.59 607.152 689.851 604.629 694.659C602.918 697.919 601.814 702.092 601.396 706.504C600.978 710.918 601.285 715.223 602.352 718.747C603.927 723.944 607.082 727.872 612.483 728.383C617.884 728.895 621.709 725.634 624.231 720.827C625.942 717.566 627.079 713.393 627.498 708.98C627.916 704.567 627.575 700.262 626.508 696.737C624.933 691.541 621.811 687.613 616.411 687.101Z" fill="black"/>
<path d="M409.473 671.988C404.073 671.476 400.247 674.738 397.725 679.544C396.015 682.806 394.876 686.978 394.458 691.391C394.04 695.804 394.38 700.109 395.449 703.634C397.022 708.83 400.178 712.758 405.579 713.27C410.98 713.781 414.805 710.488 417.326 705.68C419.037 702.419 420.175 698.279 420.594 693.867C421.012 689.453 420.672 685.148 419.604 681.624C418.03 676.428 414.873 672.499 409.473 671.988Z" fill="black"/>
<path d="M476.329 828.865C475.308 828.924 474.27 829.178 473.293 829.657C469.388 831.579 467.775 836.312 469.696 840.217C471.767 844.43 474.329 848.508 477.22 852.196C479.877 855.584 482.978 858.828 486.856 860.808C488.918 861.861 491.199 862.52 493.522 862.591C497.253 862.705 501.021 861.334 504.379 859.852C511.512 856.704 518.19 852.298 524.409 847.609C528.073 844.833 528.802 839.624 526.026 835.96C523.25 832.296 518.041 831.567 514.378 834.344C511.676 836.425 508.837 838.355 505.963 840.184C504.369 841.198 502.756 842.194 501.111 843.121C499.297 844.145 497.436 845.083 495.502 845.86C495.022 846.053 494.516 846.217 494.016 846.355C493.984 846.365 493.957 846.386 493.918 846.388C493.837 846.347 493.755 846.296 493.687 846.256C493.272 846.012 492.908 845.744 492.532 845.431C491.744 844.777 491.057 843.994 490.387 843.22C489.864 842.617 489.383 842.043 488.902 841.405C488.174 840.442 487.482 839.447 486.823 838.435C485.74 836.772 484.735 835.033 483.853 833.255C482.412 830.326 479.395 828.691 476.329 828.865Z" fill="black"/>
<path d="M401.751 590.117C389.025 590.117 376.6 592.397 364.924 596.782C363.097 597.469 361.59 598.807 360.7 600.545C360.438 601.056 359.976 601.989 359.347 603.317C358.319 605.488 357.174 608 355.948 610.841C352.464 618.917 348.997 627.986 345.752 637.866C333.398 675.486 327.722 713.868 332.552 749.965C333.616 757.918 335.192 765.643 337.304 773.162C341.996 789.865 356.525 798.72 374.593 799.76C378.103 799.962 381.582 799.811 384.955 799.43C384.39 803.923 384.124 808.87 384.063 814.643C384.041 816.861 384.043 818.61 384.063 822.496C384.076 824.73 384.064 825.685 384.063 826.885C384.063 857.446 399.57 886.748 425.61 908.822C450.544 929.959 482.943 942.481 514.014 942.481C577.742 942.481 629.412 891.307 629.412 828.107C629.412 821.23 628.517 814.35 627.201 807.449C687.98 789.846 738.147 742.521 735.438 703.667C733.454 675.214 725.271 650.579 710.26 632.389C692.721 611.135 666.704 599.654 632.481 599.654C580.051 599.654 527.949 618.355 496.92 651.264C480.155 614.646 443.38 590.117 401.751 590.117ZM401.751 605.791C441.132 605.791 475.489 631.592 486.889 668.655C488.778 674.797 496.822 676.16 500.65 670.997C526.533 636.092 579.283 615.361 632.481 615.361C662.161 615.361 683.717 624.827 698.182 642.354C710.875 657.734 718.023 679.311 719.797 704.756C720.783 718.901 710.632 737.325 691.946 754.419C672.05 772.62 644.962 787.165 616.279 794.249C612.051 795.294 609.457 799.6 610.536 803.819C612.637 812.024 613.737 820.093 613.737 828.107C613.737 882.615 569.118 926.806 514.014 926.806C486.758 926.806 457.913 915.673 435.741 896.877C413.013 877.61 399.738 852.505 399.738 826.885C399.738 825.648 399.717 816.917 399.738 814.808C399.83 805.937 400.484 799.495 401.949 794.15C405.405 792.034 408.024 789.409 409.176 786.23C409.923 784.169 410.329 782.417 410.265 780.621C410.111 776.267 406.961 772.353 401.917 772.305C398.332 772.271 396.03 773.82 393.138 776.661C391.414 778.356 389.774 780.418 388.717 782.237C388.606 782.429 388.553 782.611 388.453 782.798C384.569 783.822 380.041 784.381 375.484 784.118C363.463 783.426 355.006 778.273 352.384 768.939C350.475 762.142 349.063 755.123 348.095 747.886C343.624 714.476 348.956 678.349 360.635 642.784C363.726 633.37 367.032 624.706 370.336 617.044C371.405 614.566 372.374 612.454 373.273 610.543C382.368 607.473 391.931 605.791 401.751 605.791Z" fill="black" fill-opacity="0.5"/>
<path d="M608.828 798.04C609.571 783.466 629.142 773.426 652.539 775.616C675.936 777.807 694.301 791.398 693.558 805.973C692.815 820.548 673.245 830.589 649.848 828.399C626.45 826.207 608.086 812.616 608.828 798.04Z" fill="#FF497F" stroke="black" stroke-width="0.0121711" stroke-miterlimit="10" stroke-linecap="round" stroke-linejoin="round"/>
<path d="M322.365 786.77C322.365 773.276 341.878 762.336 365.949 762.336C390.019 762.336 409.532 773.276 409.532 786.77C409.532 800.264 390.019 811.203 365.949 811.203C341.878 811.203 322.365 800.264 322.365 786.77Z" fill="#FF497F" stroke="black" stroke-width="0.0123833" stroke-miterlimit="10" stroke-linecap="round" stroke-linejoin="round"/>
<path d="M643.239 767.553C620.372 768.473 601.895 780.082 601 797.648C599.996 817.348 622.054 833.658 649.112 836.191C676.372 838.744 700.359 826.436 701.383 806.36C702.387 786.661 680.33 770.35 653.27 767.817C649.863 767.498 646.505 767.421 643.239 767.553ZM644.723 783.162C647.008 783.107 649.376 783.197 651.818 783.426C671.554 785.273 686.223 796.116 685.741 805.568C685.279 814.643 670.099 822.411 650.564 820.583C630.829 818.735 616.159 807.892 616.641 798.44C617.046 790.501 628.73 783.549 644.723 783.162Z" fill="black"/>
<path d="M365.947 754.354C338.058 754.354 314.402 767.62 314.403 786.758C314.403 805.898 338.058 819.164 365.947 819.164C393.836 819.164 417.491 805.898 417.492 786.758C417.492 767.62 393.837 754.354 365.947 754.354ZM365.947 770.325C386.198 770.325 401.553 778.909 401.553 786.758C401.553 794.608 386.199 803.225 365.947 803.225C345.695 803.225 330.341 794.608 330.341 786.758C330.341 778.909 345.695 770.325 365.947 770.325Z" fill="black"/>
<path d="M831.579 728.814C831.579 728.814 880.78 690.999 920.857 696.551C960.935 702.105 972.581 800.794 933.377 842.542C894.173 884.291 851.068 886.401 819.357 869.339" fill="#F3886D"/>
<path d="M831.579 728.814C831.579 728.814 880.78 690.999 920.857 696.551C960.935 702.105 972.581 800.794 933.377 842.542C894.173 884.291 851.068 886.401 819.357 869.339" stroke="black" stroke-width="0.0125975" stroke-miterlimit="10" stroke-linejoin="round"/>
<path d="M954.109 737.847C880.308 764.668 842.791 823.377 823.829 871.526C855.052 886.084 895.982 882.384 933.386 842.553C956.311 818.14 961.606 772.616 954.109 737.847Z" fill="#F9B192"/>
<path d="M918.847 747.919C917.767 747.881 916.654 748.037 915.58 748.447C895.52 756.16 879.269 771.018 865.421 787.089C859.547 793.906 853.875 801.017 848.955 808.571C846.579 812.218 847.586 817.117 851.232 819.493C854.879 821.87 859.778 820.83 862.154 817.184C867.602 808.861 874.048 801.099 880.832 793.853C892.319 781.585 905.63 770.02 921.52 763.989C925.814 762.348 927.978 757.559 926.338 753.265C925.107 750.044 922.089 748.033 918.847 747.919Z" fill="black"/>
<path d="M886.838 772.405C883.814 771.866 880.631 773.132 878.852 775.87C876.48 779.519 877.513 784.42 881.162 786.792C881.12 786.764 881.253 786.829 881.294 786.858C881.388 786.924 881.464 786.988 881.558 787.056C881.769 787.211 881.979 787.39 882.185 787.551C882.706 787.957 883.209 788.368 883.703 788.805C885.147 790.083 886.51 791.476 887.696 792.996C891.488 797.857 893.699 803.631 893.669 809.825C893.681 814.423 897.421 818.154 902.017 818.141C906.615 818.128 910.347 814.39 910.333 809.793C910.301 806.09 909.877 802.436 908.848 798.87C906.642 791.218 901.994 784.438 896.309 778.938C894.283 776.979 892.108 775.101 889.742 773.559C888.829 772.967 887.846 772.584 886.838 772.405Z" fill="black"/>
<path d="M910.96 679.281C899.693 679.593 887.818 682.557 875.519 687.663L884.561 709.409C897.412 704.076 909.039 701.855 918.78 703.205C930.703 704.857 942 725.338 944.883 754.618C947.995 786.222 940.45 817.797 924.787 834.476C892.474 868.886 855.884 875.615 824.931 858.961L813.778 879.718C854.308 901.526 902.49 892.665 941.979 850.612C985.965 803.771 974.463 687.142 922.015 679.875C918.395 679.374 914.716 679.177 910.96 679.281Z" fill="black"/>
<path d="M911.455 687.893C907.864 687.944 904.19 688.238 900.433 688.784C885.454 690.961 869.735 696.848 853.905 705.251C846.885 708.978 840.304 712.942 834.337 716.932C832.239 718.335 830.357 719.649 828.726 720.827C827.728 721.548 827.043 722.074 826.647 722.378C823.095 725.108 822.432 730.21 825.162 733.762C827.893 737.315 832.962 737.978 836.514 735.247C836.568 735.206 837.721 734.361 838.23 733.994C839.705 732.927 841.416 731.719 843.345 730.43C848.879 726.728 855.023 723.025 861.528 719.572C875.849 711.97 889.908 706.724 902.776 704.855C908.849 703.973 914.513 703.867 919.738 704.591C924.176 705.206 928.264 702.099 928.879 697.661C929.493 693.224 926.42 689.136 921.982 688.52C918.57 688.048 915.047 687.843 911.455 687.893Z" fill="black"/>
<path d="M454.262 534.44C454.262 534.44 406.803 485.933 485.407 432.776C564.01 379.618 829.967 447.757 829.967 447.757L838.303 483.472C838.303 483.472 847.192 529.818 827.72 554.594C808.248 579.368 599.716 616.989 454.262 534.44Z" fill="#DFFFEA"/>
<path d="M450.29 530.987C450.29 530.987 402.832 482.479 481.435 429.322C560.038 376.165 825.995 444.303 825.995 444.303L834.331 480.018C834.331 480.018 843.22 526.364 823.748 551.14C804.275 575.914 595.744 613.535 450.29 530.987Z" fill="#C3C4E1"/>
<path d="M593.212 404.662C542.745 403.878 504.379 410.475 481.015 426.276C453.513 444.875 438.288 464.665 433.694 485.048C430.139 500.819 433.172 515.459 440.327 528.276C442.086 531.429 443.967 534.225 445.871 536.659C446.551 537.529 447.197 538.304 447.784 538.968C448.166 539.4 448.474 539.719 448.676 539.925C449.188 540.45 449.754 540.883 450.392 541.245C517.002 579.048 601.595 595.2 688.48 592.592C757.874 590.509 821.01 575.795 833.874 559.428C840.482 551.021 844.565 540.329 846.612 527.913C848.686 515.334 848.564 502.099 847.106 489.569C846.873 487.555 846.601 485.731 846.348 484.124C846.192 483.133 846.064 482.392 845.985 481.978C845.965 481.877 837.604 445.977 837.603 445.977C836.938 443.131 834.758 440.894 831.927 440.169C831.849 440.149 827.445 439.044 825.69 438.618C820.688 437.404 814.944 436.047 808.531 434.592C790.222 430.438 770.254 426.293 749.264 422.415C714.182 415.935 679.874 410.911 647.627 407.863C628.225 406.029 610.034 404.923 593.212 404.662ZM594.268 420.403C610.279 420.68 627.621 421.688 646.142 423.439C677.885 426.439 711.768 431.424 746.427 437.826C767.196 441.663 786.955 445.793 805.066 449.903C811.4 451.342 817.067 452.668 821.994 453.863C822.4 453.962 822.816 454.08 823.414 454.226L830.607 484.949C830.654 485.196 830.743 485.75 830.871 486.566C831.093 487.969 831.323 489.587 831.531 491.384C832.833 502.584 832.936 514.446 831.135 525.373C829.484 535.385 826.345 543.678 821.566 549.759C818.137 554.122 802.328 560.621 779.822 565.863C753.947 571.89 721.76 575.903 687.985 576.918C604.209 579.432 522.862 564.003 459.203 528.211C458.901 527.864 458.707 527.623 458.212 526.989C456.788 525.168 455.368 523.035 454.021 520.621C448.616 510.936 446.35 500.111 448.972 488.48C452.609 472.344 465.375 455.791 489.792 439.278C510.124 425.529 546.233 419.569 594.268 420.403Z" fill="black"/>
<path d="M370.215 355.076C373.479 287.504 500.162 257.785 655.46 265.278C810.758 272.773 933.994 318.758 930.73 386.331C927.466 453.903 809.889 504.377 654.59 496.883C499.293 489.389 366.95 422.649 370.215 355.076Z" fill="#93E9CA"/>
<path d="M605.014 294.926L581.132 333.616L641.397 303.759L658.799 341.634L674.153 307.035L731.271 329.146L714.893 289.224L661.665 276.531L609.46 275.917L605.014 294.926Z" fill="#DFFFEA"/>
<path d="M381.839 392.445C417.166 445.496 528.267 490.792 654.576 496.887C765.211 502.226 856.459 478.061 901.113 439.336C666.178 505.87 418.777 407.991 381.839 392.445Z" fill="#82D4D5"/>
<path d="M539.631 480.33C539.631 480.33 488.324 435.605 495.323 386.322C502.321 337.039 563.851 286.299 658.917 291.548C753.983 296.797 809.798 333.688 815.923 395.726C822.049 457.763 759.112 490.027 759.312 494.55C759.312 494.55 861.998 496.584 871.044 396.431C880.092 296.279 693.566 260.093 653.84 264.254C614.115 268.417 439.569 274.529 429.21 371.17C418.851 467.812 539.631 480.33 539.631 480.33Z" fill="#B7F2CC"/>
<path d="M366.244 351.623C369.508 284.05 496.191 254.331 651.488 261.825C806.787 269.318 930.023 315.305 926.759 382.877C923.495 450.45 805.917 500.922 650.619 493.429C495.321 485.935 362.979 419.195 366.244 351.623Z" fill="#AF93E5"/>
<path d="M601.043 291.471L577.161 330.161L637.425 300.306L654.828 338.18L670.182 303.581L727.3 325.691L710.922 285.77L657.694 273.076L605.489 272.463L601.043 291.471Z" fill="#C2C4E0"/>
<path d="M377.868 388.991C413.195 442.042 524.296 487.339 650.605 493.434C761.24 498.772 852.488 474.607 897.142 435.883C662.207 502.417 414.806 404.538 377.868 388.991Z" fill="#B876D1"/>
<path d="M535.659 476.876C535.659 476.876 484.353 432.15 491.351 382.868C498.35 333.586 559.88 282.845 654.946 288.093C750.012 293.343 805.827 330.234 811.952 392.271C818.078 454.309 755.141 486.573 755.339 491.096C755.339 491.096 858.025 493.129 867.073 392.977C876.12 292.824 689.594 256.638 649.869 260.801C610.143 264.962 435.598 271.074 425.239 367.716C414.88 464.357 535.659 476.876 535.659 476.876Z" fill="#ABACE3"/>
<path d="M484.612 480.296C481.595 480.87 479.063 483.21 478.375 486.401C477.242 491.596 476.19 496.818 475.207 502.042C474.174 507.531 473.238 513.105 473.26 518.707C473.306 523.304 477.079 526.969 481.675 526.924C486.272 526.878 489.97 523.139 489.924 518.541C489.851 514.455 490.459 510.341 490.98 506.3C491.7 500.737 492.624 495.186 493.786 489.701C494.703 485.446 492.002 481.279 487.747 480.362C486.684 480.133 485.618 480.105 484.612 480.296Z" fill="black"/>
<path d="M523.617 491.384C519.326 490.657 515.237 493.528 514.509 497.818C513.499 503.693 512.606 509.623 511.902 515.54C511.309 520.524 510.844 525.616 511.473 530.62C512.075 535.177 516.288 538.383 520.845 537.78C525.402 537.177 528.609 532.999 528.006 528.441C527.471 524.711 527.883 520.791 528.138 517.057C528.517 511.493 529.14 505.961 530.051 500.458C530.78 496.168 527.907 492.112 523.617 491.384Z" fill="black"/>
<path d="M579.55 503.957C576.524 504.481 573.953 506.782 573.214 509.962C570.634 520.93 567.741 531.804 565.129 542.764C564.088 547.241 566.889 551.721 571.366 552.763C575.844 553.803 580.325 551.002 581.365 546.525C583.856 535.536 586.07 524.508 588.592 513.526C589.577 509.287 586.925 505.041 582.685 504.056C581.625 503.809 580.559 503.781 579.55 503.957Z" fill="black"/>
<path d="M641.919 512.998C637.582 512.625 633.778 515.823 633.404 520.159C632.419 531.241 631.089 542.277 630.072 553.356C629.677 557.937 633.081 561.971 637.662 562.365C642.242 562.759 646.276 559.389 646.671 554.808C647.564 543.718 648.154 532.6 649.079 521.512C649.453 517.176 646.254 513.372 641.919 512.998Z" fill="black"/>
<path d="M712.801 515.902C708.45 515.786 704.832 519.207 704.716 523.558C704.393 534.449 703.75 545.338 703.396 556.227C703.273 560.823 706.885 564.651 711.481 564.774C716.076 564.898 719.904 561.252 720.028 556.656C720.258 545.764 720.226 534.88 720.489 523.987C720.606 519.637 717.151 516.019 712.801 515.902Z" fill="black"/>
<path d="M763.355 510.985C759.007 511.182 755.635 514.854 755.831 519.202C756.328 530.914 756.488 542.633 756.953 554.347C757.16 558.939 761.072 562.506 765.665 562.299C770.257 562.092 773.791 558.212 773.584 553.62C772.996 541.912 772.129 530.219 771.572 518.509C771.376 514.161 767.703 510.79 763.355 510.985Z" fill="black"/>
<path d="M802.559 499.798C798.231 500.268 795.093 504.15 795.563 508.477C796.68 519.117 797.071 529.907 796.487 540.585C796.261 545.177 799.815 549.072 804.406 549.296C808.998 549.522 812.892 546.002 813.118 541.41C813.621 529.852 812.509 518.248 811.238 506.761C810.768 502.435 806.886 499.329 802.559 499.798Z" fill="black"/>
<path d="M597.996 255.968C542.061 256.704 492.405 262.837 453.527 274.118C396.73 290.596 363.77 317.759 361.987 354.669C358.402 428.884 495.403 497.45 654.194 505.112C810.892 512.673 935.351 461.8 938.976 386.744C940.759 349.831 910.46 318.598 855.753 295.666C805.045 274.412 734.522 260.821 655.844 257.024C635.969 256.065 616.642 255.723 597.996 255.968ZM597.007 272.468C615.521 272.208 634.897 272.551 655.052 273.524C813.652 281.177 925.277 327.949 922.476 385.919C921.059 415.26 894.059 442.681 846.546 462.114C796.766 482.473 729.069 492.219 654.986 488.645C580.896 485.069 509.532 467.603 456.628 441.126C405.437 415.507 377.067 384.16 378.454 355.461C380.865 305.533 467.4 274.29 597.007 272.468Z" fill="black"/>
<path d="M703.098 252.635C696.623 252.018 690.88 256.785 690.262 263.261C689.644 269.737 694.412 275.48 700.888 276.098C833.947 288.793 921.458 334.425 918.979 385.753C917.522 415.905 886.74 444.476 833.017 463.499C826.884 465.671 823.685 472.382 825.855 478.514C828.027 484.646 834.771 487.879 840.903 485.708C902.645 463.846 940.488 428.711 942.507 386.908C945.85 317.699 847.535 266.416 703.098 252.635Z" fill="black"/>
<path d="M607.6 247.124C544.178 247.404 487.698 255.256 444.848 270.026C391.561 288.393 360.096 317.162 358.291 354.504C356.352 394.64 392.464 433.015 453.725 462.179C459.681 465.016 466.827 462.494 469.663 456.537C472.5 450.579 469.978 443.467 464.02 440.631C410.516 415.16 380.8 383.591 382.15 355.658C384.708 302.682 487.992 267.074 634.46 271.346C641.056 271.538 646.578 266.358 646.77 259.763C646.962 253.169 641.781 247.647 635.187 247.455C625.863 247.182 616.66 247.084 607.6 247.124Z" fill="black"/>
<path d="M456.101 441.456C452.862 441.239 449.531 442.252 446.894 444.558C439.485 451.087 433.078 458.793 429.009 467.855C422.531 482.28 422.004 498.525 426.204 513.658C427.491 518.297 429.117 522.974 431.417 527.221C434.582 533.051 441.889 535.204 447.719 532.039C453.548 528.874 455.701 521.567 452.537 515.737C452.553 515.767 452.295 515.26 452.24 515.144C452.035 514.709 451.832 514.266 451.645 513.824C451.027 512.353 450.5 510.861 450.029 509.336C448.756 505.213 447.982 500.914 447.884 496.598C447.822 493.849 448.026 491.089 448.511 488.381C450.296 478.427 456.074 470.175 463.592 463.665C468.866 459.054 469.391 451.021 464.78 445.746C462.473 443.108 459.34 441.673 456.101 441.456Z" fill="black"/>
<path d="M843.906 468.515C842.342 468.275 840.686 468.334 839.055 468.746C832.533 470.397 828.595 477.042 830.245 483.563C830.236 483.526 830.268 483.624 830.278 483.662C830.296 483.739 830.325 483.816 830.343 483.893C830.388 484.085 830.401 484.294 830.443 484.486C830.581 485.121 830.717 485.73 830.839 486.368C831.206 488.296 831.533 490.263 831.795 492.209C832.566 497.937 832.912 503.721 832.786 509.5C832.401 526.972 828.122 544.646 816.88 558.405C812.407 563.925 813.241 572.048 818.761 576.522C824.281 580.995 832.405 580.128 836.878 574.607C842.123 568.09 846.441 560.925 849.649 553.191C856.074 537.696 857.947 520.674 857.304 504.022C857.089 498.459 856.558 492.931 855.753 487.424C855.271 484.124 854.69 480.792 853.872 477.557C852.635 472.666 848.598 469.236 843.906 468.515Z" fill="black"/>
<path d="M664.226 255.803C660.022 255.718 656.263 255.858 653.007 256.199C653.058 256.194 621.89 258.877 608.953 260.324C585.458 262.952 563.88 266.441 543.417 271.312C511.454 278.922 484.649 289.383 464.087 303.519C439.109 320.692 424.097 342.86 421.154 370.31C418.425 395.783 423.985 417.523 436.697 435.483C447.254 450.398 462.274 462.12 480.52 471.089C493.271 477.357 506.873 481.918 520.449 485.081C525.198 486.188 529.603 487.055 533.583 487.688C536.01 488.074 537.787 488.309 538.797 488.414C546.673 489.23 550.937 479.428 544.967 474.225C544.917 474.181 543.747 473.142 543.251 472.673C541.808 471.31 540.217 469.709 538.466 467.889C533.442 462.662 528.401 456.75 523.716 450.299C508.431 429.254 500.479 407.725 503.355 387.469C506.579 364.767 522.797 341.912 548.498 325.299C577.212 306.739 615.306 297.275 658.484 299.659C750.088 304.717 802.184 339.244 807.838 396.511C810.347 421.929 800.588 443.662 781.934 463.269C776.25 469.243 770.713 474.141 763.124 480.197C762.478 480.714 760.026 482.65 759.461 483.101C758.153 484.146 757.221 484.891 756.425 485.576C755.346 486.506 754.515 487.289 753.819 488.084C752.104 490.042 751.08 491.909 751.212 494.914C751.4 499.191 754.886 502.585 759.164 502.669C759.223 502.67 759.193 502.668 759.329 502.669C760.814 502.684 762.992 502.643 765.732 502.472C769.917 502.209 774.472 501.694 779.327 500.921C792.876 498.764 806.375 494.81 819.058 488.578C852.963 471.923 875.05 442.182 879.116 397.171C881.48 371.008 871.931 347.559 852.354 327.313C835.766 310.156 812.288 295.581 783.848 283.72C744.04 267.12 693.653 256.399 664.226 255.803ZM663.467 272.072C673.792 272.31 688.395 273.992 704.287 277.022C729.121 281.757 754.799 289.189 777.611 298.702C834.743 322.528 866.613 355.468 862.98 395.687C859.445 434.821 840.939 459.776 811.93 474.026C803.183 478.323 793.878 481.376 784.442 483.431C787.642 480.555 790.668 477.658 793.715 474.455C815.342 451.723 827.043 425.668 824.007 394.927C817.422 328.233 758.077 288.906 659.375 283.456C612.855 280.888 571.36 291.198 539.687 311.67C510.25 330.698 491.214 357.525 487.285 385.192C483.706 410.394 493.059 435.674 510.582 459.803C512.407 462.316 514.327 464.646 516.226 466.998C506.456 464.276 496.767 461.003 487.681 456.537C471.692 448.679 458.797 438.592 449.963 426.111C439.545 411.392 434.98 393.587 437.292 372.026C441.799 329.977 481.43 302.739 547.178 287.086C566.922 282.386 587.848 278.988 610.735 276.427C623.416 275.009 654.522 272.353 654.69 272.336C657.072 272.086 660.026 271.992 663.467 272.072Z" fill="black"/>
<path d="M640.601 157.159L639.214 186.429L598.295 185.274L597.075 228.965L637.169 230.086L635.142 257.143L693.617 259.915L695.709 231.737L731.051 232.726L732.272 189.035L697.755 188.079L699.075 159.898L640.601 157.159Z" fill="#FFA0CA"/>
<path d="M636.629 153.705L635.243 182.975L594.324 181.82L593.103 225.511L633.197 226.633L631.171 253.69L689.645 256.462L691.737 228.283L727.079 229.273L728.3 185.582L693.784 184.626L695.104 156.444L636.629 153.705Z" fill="#FFD000"/>
<path d="M641.16 145.388C634.664 145.083 629.158 150.112 628.851 156.607L628.026 174.329L598.624 173.503C592.12 173.32 586.696 178.45 586.513 184.954L585.292 228.645C585.111 235.147 590.241 240.54 596.743 240.723L624.858 241.515L624.297 253.691C623.996 260.19 629.019 265.698 635.516 266C642.015 266.302 647.524 261.278 647.826 254.78L648.947 230.625C649.254 224.042 644.085 218.5 637.496 218.316L609.184 217.524L609.744 197.361L638.883 198.186C645.298 198.368 650.69 193.41 650.994 187L651.818 169.477L686.765 171.094L686.006 187.528C685.697 194.113 690.832 199.654 697.423 199.837L720.16 200.464L719.598 220.626L696.037 219.966C689.621 219.786 684.261 224.774 683.959 231.185L682.771 256.463C682.466 262.961 687.461 268.466 693.958 268.772C700.457 269.077 705.994 264.05 706.3 257.552L706.96 243.824L730.72 244.484C737.222 244.667 742.648 239.57 742.829 233.067L744.051 189.376C744.233 182.872 739.104 177.446 732.6 177.265L710.094 176.638L710.854 160.435C711.158 153.938 706.132 148.431 699.634 148.127L641.16 145.388Z" fill="black"/>
<path d="M279.749 1032.28C279.749 1004.92 420.957 982.745 595.143 982.745C769.331 982.745 910.539 1004.92 910.539 1032.28C910.539 1059.64 769.331 1081.81 595.143 1081.81C420.957 1081.81 279.749 1059.64 279.749 1032.28Z" fill="black" fill-opacity="0.7"/>
<path opacity="0.203921" d="M933.354 386.203C933.354 386.203 639.534 474.168 390.75 394.618L444.539 445.14L520.997 472.793L570.727 484.97L650.882 548.757C571.622 549.777 488.15 541.748 444.242 509.39L447.443 531.73L490.309 553.212L554.096 573.242L607.686 580.8C607.686 580.8 706.102 599.505 733.347 619.837C754.463 635.595 795.357 647.893 813.051 694.941C698.069 978.136 427.412 917.687 427.412 917.687L496.677 970.849L560.365 989.394L629.961 990.781L704.308 975.93L763.079 941.215L827.757 873.93L865.508 881.388L905.47 864.921L942.132 822.155L960.829 735.437L883.815 769.102C843.245 764.842 848.525 714.988 848.525 714.988L878.05 692.407L859.436 644.95L861.845 643.003L824.424 563.31L831.09 551.892L831.882 551.859L832.146 550.077L842.705 531.994C842.705 531.994 837.975 532.727 834.621 533.247L843.861 470.615C902.94 450.194 933.354 386.203 933.354 386.203Z" fill="black"/>
</g>
</svg>
