<svg width="1119" height="1180" viewBox="0 0 1119 1180" fill="none" xmlns="http://www.w3.org/2000/svg">
<mask id="mask0_311_10988" style="mask-type:luminance" maskUnits="userSpaceOnUse" x="0" y="0" width="1119" height="1180">
<path d="M1118.46 0H0V1180H1118.46V0Z" fill="white"/>
</mask>
<g mask="url(#mask0_311_10988)">
<path d="M237.114 945.76C237.114 920.697 366.481 900.38 526.062 900.38C685.644 900.38 815.011 920.697 815.011 945.76C815.011 970.823 685.644 991.139 526.062 991.139C366.481 991.139 237.114 970.823 237.114 945.76Z" fill="black" fill-opacity="0.7"/>
<path d="M765.144 648.199C765.144 648.199 778.988 611.127 807.144 623.563C835.3 635.998 840.696 707.092 769.133 759.182" fill="#F3886D"/>
<path d="M765.144 648.199C765.144 648.199 778.988 611.127 807.144 623.563C835.3 635.998 840.696 707.092 769.133 759.182" stroke="black" stroke-width="0.0122978" stroke-miterlimit="10" stroke-linecap="round" stroke-linejoin="round"/>
<path d="M817.02 631.551C782.876 658.406 775.814 700.812 775.814 700.812C775.814 700.812 774.71 732.973 774.876 754.625C831.19 710.115 834.722 653.923 817.02 631.551Z" fill="#F9B192"/>
<path d="M817.02 631.551C782.876 658.406 775.814 700.812 775.814 700.812C775.814 700.812 774.71 732.973 774.876 754.625C831.19 710.115 834.722 653.923 817.02 631.551Z" fill="#F9B192"/>
<path d="M796.382 613.75C791.944 613.678 787.644 614.586 783.564 616.38C777.132 619.207 771.669 624.046 766.997 630.257C764.474 633.61 762.334 637.162 760.557 640.717C759.933 641.965 759.407 643.107 758.955 644.164C758.671 644.828 758.468 645.36 758.351 645.675C756.949 649.429 758.859 653.585 762.613 654.987C766.367 656.388 770.553 654.479 771.955 650.724C771.995 650.615 772.095 650.328 772.287 649.878C772.63 649.077 773.066 648.169 773.557 647.187C774.964 644.37 776.654 641.557 778.606 638.964C785.9 629.268 794.018 625.694 804.213 630.196C815.279 635.084 821.855 653.222 818.361 675.364C814.064 702.597 796.064 730.581 764.85 753.301C761.61 755.66 760.92 760.219 763.278 763.459C765.636 766.699 770.166 767.42 773.406 765.061C807.641 740.142 827.776 708.784 832.691 677.63C837.105 649.656 828.136 624.901 810.077 616.924C805.41 614.863 800.821 613.822 796.382 613.75Z" fill="black"/>
<path d="M317.286 496.942L265.311 498.748C265.311 498.748 223.28 390.536 269.405 278.227C315.53 165.917 492.386 110.435 563.737 151.643C563.737 151.643 573.99 175.559 552.94 215.757" fill="#ABACE3"/>
<path d="M298.665 468.41C298.665 468.41 254.13 457.712 259.743 425.983C265.356 394.254 298.05 405.203 304.195 405.683C304.195 405.683 257.253 390.38 268.468 357.264C279.682 324.149 314.929 334.219 323.643 339.968C323.643 339.968 276.297 318.178 294.795 286.661C313.292 255.145 348.752 278.832 357.024 283.738C357.024 283.738 318.185 251.369 345.144 224.872C372.103 198.376 405.241 229.896 405.241 229.896L433.082 194.611C433.082 194.611 436.161 161.279 463.702 156.959C491.243 152.639 507.485 180.523 514.531 205.397L515.089 161.238L502.977 140.351L530.985 139.725L558.869 147.381L566.531 158.793C566.531 158.793 566.423 181.579 565.286 183.941C564.148 186.305 562.132 200.727 560.752 207.9C559.371 215.071 549.735 243.234 549.735 243.234L453.921 359.451C453.921 359.451 393.318 452.646 387.717 464.869C382.114 477.091 345.447 512.74 336.789 511.721C328.132 510.702 298.665 468.41 298.665 468.41Z" fill="#C3C4E1"/>
<path d="M300.268 447.752C300.268 447.752 274.155 440.292 274.946 427.795C275.736 415.298 297.253 423.795 301.616 422.599" fill="#FFD000"/>
<path d="M307.187 386.23C307.187 386.23 273.583 374.958 287.168 357.323C300.754 339.688 319.066 363.726 319.066 363.726" fill="#FFD000"/>
<path d="M336.367 323.87C336.367 323.87 306.54 313.075 310.621 297.873C314.7 282.671 343.146 296.184 349.163 303.71" fill="#FFD000"/>
<path d="M370.891 274.549C370.891 274.549 350.361 257.445 356.707 242.973C363.051 228.5 382.417 237.989 391.041 249.206" fill="#FFD000"/>
<path d="M459.756 217.195C459.756 217.195 451.008 186.842 461.544 177.326C472.079 167.808 487.28 181.497 492.611 210.979" fill="#FFD000"/>
<path d="M495.966 131.458C493.158 131.794 490.662 133.77 489.829 136.657C488.718 140.508 490.966 144.527 494.817 145.636C495.174 145.739 496.038 146.053 497.235 146.604C499.305 147.555 501.37 148.79 503.282 150.322C508.067 154.156 511.017 159.11 511.505 165.65C511.888 170.775 511.914 177.208 511.626 184.605C511.382 190.876 510.934 197.583 510.326 204.437C509.996 208.162 509.621 211.68 509.268 214.898C509.144 216.021 508.837 218.774 508.814 218.949C508.318 222.926 511.126 226.555 515.103 227.051C519.079 227.547 522.709 224.709 523.205 220.733C523.213 220.674 523.561 217.663 523.689 216.5C524.052 213.186 524.437 209.539 524.777 205.708C525.405 198.63 525.853 191.683 526.107 185.15C526.415 177.25 526.416 170.314 525.986 164.562C525.176 153.709 520.097 145.192 512.351 138.985C509.448 136.658 506.372 134.812 503.282 133.392C502.189 132.89 501.166 132.492 500.228 132.153C499.622 131.934 499.159 131.761 498.838 131.669C497.876 131.392 496.901 131.345 495.966 131.458Z" fill="black"/>
<path d="M511.112 131.458C480.202 130.97 444.797 137.731 409.865 151.229C343.797 176.757 290.424 221.675 268.076 276.088C253.417 311.783 246.475 349.228 245.946 387.372C245.538 416.808 248.942 444.903 254.865 470.662C256.826 479.192 258.922 486.866 261.032 493.547C261.776 495.902 262.462 497.974 263.088 499.745C263.472 500.832 263.771 501.591 263.934 502.012C265.052 504.888 267.864 506.745 270.948 506.638L322.917 504.824C326.922 504.684 330.04 501.331 329.901 497.326C329.762 493.322 326.408 490.174 322.404 490.312L275.785 491.945C275.477 491.017 275.214 490.225 274.879 489.164C272.881 482.842 270.855 475.57 268.983 467.427C263.308 442.742 260.067 415.781 260.457 387.584C260.962 351.181 267.57 315.538 281.499 281.621C302.159 231.315 352.453 188.978 415.095 164.773C472.141 142.731 529.958 139.869 563.081 157.336C563.15 157.609 563.225 157.79 563.293 158.092C564.431 163.193 564.777 169.671 563.807 177.411C562.456 188.18 558.679 200.069 551.895 213.023C550.036 216.574 551.399 220.96 554.949 222.819C558.499 224.678 562.885 223.315 564.744 219.765C572.323 205.291 576.629 191.705 578.197 179.194C579.379 169.763 578.935 161.645 577.442 154.948C577.117 153.492 576.748 152.192 576.383 151.078C576.141 150.338 575.939 149.79 575.779 149.415C575.162 147.976 574.112 146.783 572.756 145.999C556.498 136.61 535.154 131.837 511.112 131.458Z" fill="black"/>
<path d="M288.09 414.309C286.048 414.44 284.179 414.797 282.406 415.428C276.959 417.365 273.454 421.821 273.065 427.974C272.732 433.228 274.937 437.93 278.839 441.972C281.646 444.879 285.29 447.415 289.601 449.68C292.687 451.303 295.933 452.694 299.185 453.883C301.144 454.599 302.709 455.093 303.66 455.364C307.512 456.465 311.508 454.229 312.609 450.376C313.709 446.523 311.503 442.497 307.65 441.397C307.523 441.36 307.218 441.268 306.773 441.125C305.998 440.877 305.117 440.593 304.174 440.248C301.486 439.266 298.801 438.123 296.343 436.832C290.601 433.814 287.683 430.783 287.636 429.032C288.73 428.738 290.592 428.688 293.26 428.972C294.545 429.108 295.872 429.272 297.734 429.576C298.049 429.627 299.835 429.949 300.334 430.03C301.351 430.194 302.167 430.301 302.903 430.393C305.357 430.698 307.073 430.748 308.92 430.242C312.785 429.182 315.058 425.187 313.999 421.323C312.939 417.458 308.945 415.185 305.08 416.244C305.533 416.12 305.727 416.091 305.806 416.093C305.576 416.088 305.201 416.066 304.687 416.002C304.157 415.936 303.52 415.839 302.661 415.699C302.2 415.625 300.437 415.333 300.092 415.277C297.986 414.932 296.411 414.691 294.801 414.521C292.362 414.261 290.132 414.179 288.09 414.309Z" fill="black"/>
<path d="M305.746 344.261C303.755 344.113 301.741 344.252 299.699 344.714C294.79 345.828 290.422 348.798 286.79 353.512C281.401 360.507 280.667 368.152 284.28 375.037C286.862 379.957 291.343 384.004 297.16 387.554C300.029 389.304 303.053 390.827 306.078 392.118C307.903 392.898 309.35 393.449 310.25 393.751C314.049 395.025 318.166 392.955 319.441 389.156C320.715 385.357 318.674 381.27 314.875 379.995C314.772 379.96 314.515 379.841 314.12 379.693C313.424 379.432 312.641 379.119 311.792 378.756C309.367 377.72 306.935 376.511 304.717 375.158C300.938 372.853 298.26 370.449 297.13 368.295C296.178 366.482 296.311 364.923 298.278 362.37C299.935 360.219 301.454 359.192 302.903 358.863C305.538 358.266 309.361 359.917 313.515 363.458C314.903 364.642 316.202 365.924 317.355 367.207C317.754 367.652 318.089 368.058 318.382 368.416C318.542 368.611 318.63 368.716 318.655 368.749C321.083 371.937 325.655 372.568 328.843 370.14C332.031 367.711 332.631 363.139 330.203 359.951C329.783 359.401 329.099 358.562 328.147 357.503C326.59 355.77 324.831 354.025 322.917 352.394C317.449 347.732 311.718 344.704 305.746 344.261Z" fill="black"/>
<path d="M321.07 282.262C319.861 282.335 318.694 282.49 317.563 282.745C311.453 284.126 306.944 288.222 305.258 294.506C303.605 300.665 305.244 306.6 309.249 311.859C312.147 315.664 316.177 319.038 321.1 322.107C324.262 324.08 327.614 325.807 330.956 327.307C332.97 328.213 334.573 328.858 335.551 329.212C339.319 330.576 343.469 328.627 344.832 324.859C346.196 321.09 344.246 316.941 340.478 315.577C340.347 315.53 340.032 315.398 339.572 315.214C338.771 314.895 337.887 314.534 336.911 314.096C334.128 312.846 331.332 311.396 328.779 309.803C321.683 305.378 318.507 301.185 319.286 298.284C319.755 296.537 322.44 295.932 328.809 297.771C335.463 299.693 343 304.081 345.134 306.749C347.636 309.88 352.223 310.4 355.352 307.899C358.483 305.396 358.974 300.84 356.472 297.711C352.242 292.421 342.14 286.523 332.83 283.834C328.658 282.628 324.694 282.04 321.07 282.262Z" fill="black"/>
<path d="M372.649 228.986C365.181 229.089 358.855 232.914 355.447 240.686C354.22 243.486 353.607 246.452 353.603 249.484C353.592 257.11 357.129 264.51 362.884 271.705C364.771 274.063 366.801 276.221 368.809 278.174C370.033 279.364 371.004 280.23 371.622 280.743C374.7 283.309 379.275 282.915 381.84 279.837C384.404 276.757 383.981 272.183 380.902 269.618C380.844 269.569 380.702 269.42 380.449 269.195C379.998 268.792 379.463 268.315 378.907 267.774C377.306 266.218 375.703 264.487 374.221 262.635C370.337 257.779 368.109 253.104 368.115 249.484C368.116 248.411 368.311 247.451 368.719 246.52C370.032 243.526 372.135 242.803 376.368 244.042C381.357 245.503 387.123 249.649 390.667 254.26C393.11 257.437 397.648 258.033 400.825 255.59C404.002 253.148 404.598 248.579 402.156 245.402C396.798 238.434 388.471 232.493 380.418 230.135C377.746 229.353 375.138 228.952 372.649 228.986Z" fill="black"/>
<path d="M475.183 166.736C470.392 166.238 465.603 167.771 461.427 171.543C455.581 176.823 453.567 185.152 453.869 195.667C454.011 200.568 454.673 205.71 455.683 210.874C456.081 212.907 456.525 214.809 456.953 216.528C457.215 217.581 457.398 218.344 457.527 218.796C458.637 222.646 462.686 224.863 466.537 223.754C470.387 222.643 472.605 218.625 471.495 214.774C471.479 214.721 471.139 213.536 471.011 213.021C470.64 211.531 470.27 209.873 469.923 208.093C469.053 203.651 468.496 199.257 468.381 195.245C468.189 188.594 469.304 183.984 471.162 182.305C473.183 180.48 475.241 180.774 478.599 184.21C483.568 189.295 487.932 199.116 490.239 211.872C490.952 215.815 494.7 218.42 498.643 217.707C502.586 216.994 505.221 213.246 504.508 209.302C501.727 193.918 496.21 181.461 488.969 174.052C484.768 169.754 479.973 167.233 475.183 166.736Z" fill="black"/>
<path d="M605.445 232.955C605.445 232.955 608.008 148.365 618.853 138.9C618.853 138.9 638.769 131.461 653.163 196.728C653.163 196.728 656.318 226.305 638.571 254.304" fill="#AF93E5"/>
<path d="M626.629 132.001C625.481 131.971 624.358 132.064 623.304 132.274C622.667 132.4 622.144 132.561 621.702 132.727C620.883 133.032 620.122 133.483 619.464 134.057C612.792 139.88 609.373 156.824 606.615 185.421C605.604 195.92 604.814 207.154 604.227 218.375C604.022 222.299 603.843 225.955 603.713 229.228C603.668 230.376 603.563 233.316 603.562 233.37C603.44 237.375 606.6 240.716 610.606 240.837C614.611 240.959 617.952 237.798 618.074 233.793C618.078 233.618 618.18 230.925 618.225 229.802C618.352 226.587 618.506 222.992 618.708 219.131C619.285 208.106 620.046 197.076 621.036 186.813C622.143 175.333 623.477 165.553 624.997 158.032C625.819 153.958 626.682 150.63 627.566 148.176C627.71 147.775 627.85 147.581 627.99 147.238C628.452 147.455 628.818 147.508 629.38 147.904C633.316 150.677 637.654 156.76 641.957 167.101C645.361 175.285 648.516 185.738 651.359 198.543C651.374 198.737 651.368 198.872 651.389 199.237C651.663 204.008 651.443 210.19 650.331 217.226C648.7 227.55 645.426 237.671 640.143 247.125C639.403 248.449 638.63 249.769 637.815 251.056C635.669 254.44 636.668 258.917 640.052 261.063C643.437 263.207 647.944 262.21 650.089 258.825C651.048 257.312 651.94 255.756 652.81 254.2C658.983 243.154 662.777 231.39 664.661 219.463C665.946 211.332 666.229 204.139 665.9 198.391C665.853 197.56 665.789 196.947 665.749 196.577C665.72 196.311 665.687 196.053 665.629 195.791C662.586 181.998 659.145 170.66 655.35 161.539C650.076 148.863 644.166 140.592 637.724 136.053C633.865 133.333 630.072 132.092 626.629 132.001Z" fill="black"/>
<path d="M276.343 849.236C276.343 849.236 506.579 1004.27 766.28 842.417C766.28 842.417 798.662 647.453 725.228 523.85C725.228 523.85 764.667 522.213 771.753 517.353C778.841 512.492 780.86 492.228 804.21 478.817C804.21 478.817 807.06 460.053 802.935 440.781C802.935 440.781 814.481 423.36 813.419 416.372C813.419 416.372 715.867 264.058 577.169 210.864C577.169 210.864 477.039 185.567 390.382 256.503C303.724 327.441 298.799 419.843 298.799 484.915C298.799 549.987 331.857 659.948 276.343 849.236Z" fill="#AF93E5"/>
<path d="M459.896 382.683L457.779 383.923L450.311 388.276C450.311 388.276 430.762 466.935 486.137 498.018C541.512 529.102 567.945 508.025 567.945 508.025L615.651 520.723C615.651 520.723 629.714 591.404 746.556 579.494C748.298 579.316 749.638 579.002 751.302 578.798L747.432 561.022L740.812 541.523L729.142 524.048C729.142 524.048 684.713 520.347 676.659 516.369C668.606 512.391 649.388 496.458 647.486 489.916L563.229 465.912C563.229 465.912 546.358 500.414 504.457 482.207C450.655 458.828 456.026 387.823 456.026 387.823L459.896 382.683Z" fill="#B876D1"/>
<path d="M364.815 280.65C302.865 347.462 298.788 427.013 298.788 484.928C298.789 550.001 331.87 659.938 276.356 849.225C276.356 849.225 292.471 859.921 320.465 872.716C323.402 860.104 370.769 652.206 335.339 496.809C316.027 412.111 358.435 321.792 364.846 287.815C365.29 285.459 365.205 283.075 364.815 280.65Z" fill="#B876D1"/>
<path d="M696.356 374.961C649.099 379.964 650.206 407.443 650.206 407.443L636.874 483.053L649.278 493.876C649.278 493.876 662.739 510.379 681.73 517.869C700.721 525.359 703.506 522.347 725.243 523.837C725.243 523.837 764.653 522.227 771.739 517.367C778.827 512.507 780.859 492.233 804.209 478.821C804.209 478.821 807.064 460.061 802.939 440.789C802.939 440.789 814.492 423.349 813.429 416.362C813.429 416.362 791.437 387.477 777.181 368.885C758.366 366.395 702.263 374.335 696.356 374.961Z" fill="#ABACE3"/>
<path d="M801.336 399.129C771.5 411.356 747.886 405.327 747.886 405.327C747.886 405.327 725.427 395.977 715.598 402.062C705.769 408.147 701.087 431.085 701.087 431.085C697.343 449.339 738.998 467.122 738.998 467.122C710.447 502.694 713.27 519.06 713.27 519.06C713.27 519.06 727.651 527.892 725.242 523.837C725.242 523.837 764.652 522.227 771.739 517.367C778.826 512.507 780.859 492.233 804.209 478.821C804.209 478.821 807.064 460.061 802.938 440.789C802.938 440.789 814.491 423.349 813.429 416.362C813.429 416.362 808.592 409.179 801.336 399.129Z" fill="#C3C4E1"/>
<path d="M479.742 298.843C479.742 298.843 504.288 303.483 518.957 299.564" stroke="black" stroke-width="0.0122978" stroke-miterlimit="10" stroke-linecap="round" stroke-linejoin="round"/>
<path d="M481.092 291.718C477.155 290.974 473.371 293.555 472.627 297.492C471.883 301.43 474.463 305.243 478.402 305.987C478.842 306.07 479.606 306.178 480.668 306.35C482.413 306.632 484.354 306.934 486.443 307.196C492.642 307.974 498.854 308.408 504.733 308.376C510.828 308.343 516.227 307.788 520.817 306.562C524.688 305.528 526.991 301.575 525.956 297.704C524.922 293.832 520.969 291.53 517.099 292.564C513.874 293.425 509.631 293.868 504.673 293.894C499.499 293.922 493.879 293.481 488.257 292.776C486.346 292.536 484.577 292.306 482.997 292.05C482.449 291.961 481.158 291.73 481.092 291.718Z" fill="black"/>
<path d="M749.161 479.963L808.162 475.696" stroke="black" stroke-width="0.0122978" stroke-miterlimit="10" stroke-linecap="round" stroke-linejoin="round"/>
<path d="M807.628 468.455L748.645 472.717C744.649 473.007 741.645 476.49 741.934 480.487C742.224 484.483 745.676 487.487 749.674 487.199L808.687 482.935C812.683 482.647 815.687 479.163 815.398 475.166C815.11 471.169 811.625 468.166 807.628 468.455Z" fill="black"/>
<path d="M751.147 448.363C751.147 448.363 727.627 390.645 721.096 426.4" stroke="black" stroke-width="0.0122978" stroke-miterlimit="10" stroke-linecap="round" stroke-linejoin="round"/>
<path d="M729.449 407.476C728.079 407.33 726.667 407.44 725.186 407.839C718.942 409.523 715.727 415.479 713.97 425.102C713.249 429.044 715.862 432.817 719.805 433.537C723.747 434.257 727.519 431.644 728.24 427.702C728.571 425.882 728.976 425.034 729.358 423.893C729.516 424.068 729.584 424.089 729.751 424.285C731.857 426.761 734.273 430.461 736.765 435.018C738.682 438.524 740.546 442.322 742.267 446.113C742.87 447.443 743.398 448.669 743.869 449.771C744.033 450.153 744.424 451.053 744.444 451.101C745.956 454.812 750.165 456.604 753.876 455.092C757.587 453.58 759.379 449.341 757.867 445.63C757.744 445.33 757.513 444.786 757.202 444.058C756.69 442.86 756.128 441.528 755.479 440.097C753.619 436.002 751.601 431.919 749.492 428.065C746.567 422.716 743.676 418.246 740.816 414.884C737.228 410.665 733.557 407.915 729.449 407.476Z" fill="black"/>
<path d="M734.512 524.681C734.512 524.681 690.079 520.976 682.025 516.998C673.971 513.02 654.761 497.092 652.858 490.551L568.606 466.547C568.606 466.547 551.739 501.04 509.84 482.833C456.038 459.454 461.415 388.466 461.415 388.466" stroke="black" stroke-width="0.0122978" stroke-miterlimit="10" stroke-linecap="round" stroke-linejoin="round"/>
<path d="M461.955 381.235C457.959 380.932 454.488 383.92 454.185 387.917C454.161 388.245 454.126 388.806 454.095 389.579C453.876 394.951 454.036 401.697 454.881 409.321C456.122 420.521 458.65 431.588 462.741 442.001C471.226 463.6 485.597 480.222 506.941 489.496C531.179 500.029 550.876 495.94 565.137 482.633C567.747 480.197 569.911 477.626 571.788 475.015L647.822 496.661C650.285 500.64 654.621 505.171 660.368 510.205C666.915 515.94 674.153 521.207 678.81 523.507C683.101 525.627 692.42 527.32 706.744 529.1C712.693 529.839 719.07 530.508 725.427 531.126C727.651 531.341 733.812 531.903 733.923 531.911C737.916 532.244 741.42 529.285 741.753 525.291C742.086 521.298 739.095 517.794 735.102 517.461C735.003 517.452 729.003 516.917 726.819 516.705C720.582 516.1 714.333 515.4 708.528 514.679C696.353 513.166 687.392 511.565 685.249 510.507C681.938 508.871 675.602 504.267 669.921 499.292C664.304 494.371 660.165 489.7 659.824 488.529C659.127 486.132 657.236 484.255 654.836 483.571L570.609 459.566C567.23 458.604 563.627 460.188 562.084 463.345C562.069 463.376 561.984 463.556 561.811 463.86C561.482 464.434 561.065 465.102 560.572 465.824C559.131 467.934 557.338 470.076 555.221 472.052C550.88 476.102 545.736 478.971 539.712 480.215C532.014 481.804 523.122 480.672 512.745 476.163C495.226 468.552 483.388 454.916 476.225 436.681C472.64 427.556 470.411 417.725 469.301 407.718C468.543 400.873 468.385 394.866 468.575 390.183C468.601 389.582 468.624 389.168 468.636 389.005C468.939 385.008 465.951 381.537 461.955 381.235Z" fill="black"/>
<path d="M281.717 849.867C281.717 849.867 511.953 1004.9 771.655 843.049C771.655 843.049 804.037 648.085 730.602 524.482C730.602 524.482 770.041 522.844 777.129 517.984C784.215 513.124 786.235 492.86 809.584 479.448C809.584 479.448 812.434 460.684 808.309 441.412C808.309 441.412 819.855 423.992 818.793 417.005C818.793 417.005 721.241 264.689 582.544 211.496C582.544 211.496 482.413 186.198 395.756 257.135C309.099 328.073 304.173 420.474 304.173 485.547C304.174 550.619 337.232 660.58 281.717 849.867Z" stroke="black" stroke-width="0.0122978" stroke-miterlimit="10" stroke-linecap="round" stroke-linejoin="round"/>
<mask id="mask1_311_10988" style="mask-type:luminance" maskUnits="userSpaceOnUse" x="224" y="119" width="617" height="813">
<path d="M840.96 119.631H224.776V931.326H840.96V119.631Z" fill="white"/>
<path d="M431.198 134.232C430.177 134.374 429.046 134.692 427.812 135.23C424.11 136.843 412.891 145.928 402.991 160.836C402.638 161.368 402.312 161.984 401.964 162.529C347.061 186.071 296.454 226.082 274.777 278.863C228.652 391.172 270.696 499.376 270.696 499.376L304.526 498.197C304.527 498.228 304.524 498.256 304.526 498.288C305.669 520.417 309.285 547.155 311.691 579.521C312.941 596.37 313.774 614.91 313.837 634.967C286.03 624.129 264.669 635.404 249.321 649.357C246.562 651.866 244.411 654.78 242.822 658.034C242.345 659.01 242.021 660.085 241.643 661.117C241.39 661.806 241.066 662.461 240.856 663.173C240.628 663.951 240.522 664.788 240.343 665.592C238.883 672.147 238.96 679.475 240.434 687.208C240.692 688.562 241.064 689.947 241.401 691.319C241.403 691.329 241.398 691.34 241.401 691.349C241.403 691.359 241.398 691.371 241.401 691.379C242.14 694.387 243.005 697.427 244.092 700.48C244.315 701.108 244.61 701.725 244.847 702.354C244.859 702.384 244.866 702.415 244.878 702.445C244.916 702.546 244.96 702.645 244.999 702.747C245.562 704.221 246.086 705.689 246.722 707.161C247.192 708.25 247.846 709.311 248.354 710.396C249.433 712.707 250.564 714.985 251.801 717.258C252.368 718.298 252.805 719.375 253.403 720.402C253.786 721.061 254.278 721.654 254.673 722.307C254.692 722.338 254.715 722.367 254.733 722.398C256.301 724.99 257.979 727.478 259.721 729.955C259.822 730.098 259.923 730.238 260.024 730.379C260.609 731.204 261.083 732.11 261.687 732.919C261.869 733.162 262.077 733.371 262.261 733.614C265.08 737.345 268.05 740.935 271.179 744.225C274.513 747.73 278.167 750.59 282.003 752.932C283.92 754.103 285.874 755.157 287.868 756.076C291.855 757.915 295.955 759.262 300.051 760.249C300.929 760.46 301.806 760.584 302.682 760.762C297.772 788.374 291.107 817.886 281.73 849.856C281.73 849.856 296.115 859.558 321.758 871.563C322.987 872.138 324.558 872.761 325.839 873.347C404.701 909.391 579.977 962.498 771.642 843.054C771.642 843.054 777.976 804.822 778.686 751.572C814.211 721.909 827.118 687.702 826.423 661.783C826.414 661.441 826.405 661.093 826.392 660.754C826.311 658.751 826.149 656.813 825.908 654.92C825.828 654.278 825.735 653.644 825.636 653.015C825.357 651.246 825.022 649.529 824.609 647.876C824.479 647.357 824.327 646.871 824.185 646.364C823.706 644.661 823.23 642.994 822.613 641.436C822.481 641.104 822.297 640.824 822.159 640.499C818.749 632.44 813.578 626.415 807.134 623.569C788.59 615.378 776.391 628.569 770.13 638.595C769.411 634.528 768.814 630.476 767.983 626.411C764.757 610.627 760.597 594.917 755.438 579.611C755.84 579.548 756.242 579.484 756.677 579.431L752.807 561.654L746.186 542.154L734.517 524.68L733.701 524.256C736.039 524.15 742.075 523.906 751.205 523.047C761.951 522.03 773.57 520.429 777.114 517.999C780.651 515.573 782.948 509.278 787.242 501.945C787.248 501.934 787.265 501.926 787.272 501.915C789.426 498.24 792.063 494.319 795.646 490.457C799.231 486.594 803.745 482.806 809.583 479.453C809.583 479.453 812.439 460.692 808.313 441.42C808.313 441.42 817.153 428.066 818.652 420.047C818.867 418.901 818.937 417.866 818.804 416.993C818.804 416.993 814.032 409.923 806.922 400.063C806.914 400.051 806.901 400.044 806.892 400.033C806.826 399.94 806.778 399.854 806.711 399.761C804.835 397.162 803.714 395.489 801.391 392.384C775.094 357.26 720.489 292.05 648.9 245.849C660.943 220.9 658.543 197.357 658.543 197.357C644.15 132.09 624.23 139.523 624.23 139.523C615.292 147.322 612.089 203.721 611.2 224.173C601.857 219.529 592.311 215.253 582.54 211.505C582.54 211.505 580.973 211.091 578.066 210.538C575.279 210.008 571.124 209.365 566.064 208.754C566.073 208.708 566.115 208.588 566.124 208.543C567.504 201.371 569.521 186.932 570.659 184.568C571.796 182.206 571.898 159.415 571.898 159.415L570.507 157.329C570.467 157.13 570.428 156.823 570.386 156.634C569.755 153.764 569.117 152.28 569.117 152.28C568.142 151.717 567.077 151.236 566.064 150.708L564.25 148.018L536.346 140.37L532.567 140.46C521.769 138.863 510.083 138.425 497.829 139.039C497.592 138.961 496.802 138.647 496.802 138.647L496.923 139.13C478.874 140.109 459.677 143.471 440.267 148.925L440.479 140.792C440.479 140.792 438.344 133.239 431.198 134.232Z" fill="black"/>
</mask>
<g mask="url(#mask1_311_10988)">
<path d="M431.198 134.232C430.177 134.374 429.046 134.692 427.812 135.23C424.11 136.843 412.891 145.928 402.991 160.836C402.638 161.368 402.312 161.984 401.964 162.529C347.061 186.071 296.454 226.082 274.777 278.863C228.652 391.172 270.696 499.376 270.696 499.376L304.526 498.197C304.527 498.228 304.524 498.256 304.526 498.288C305.669 520.417 309.285 547.155 311.691 579.521C312.941 596.37 313.774 614.91 313.837 634.967C286.03 624.129 264.669 635.404 249.321 649.357C246.562 651.866 244.411 654.78 242.822 658.034C242.345 659.01 242.021 660.085 241.643 661.117C241.39 661.806 241.066 662.461 240.856 663.173C240.628 663.951 240.522 664.788 240.343 665.592C238.883 672.147 238.96 679.475 240.434 687.208C240.692 688.562 241.064 689.947 241.401 691.319C241.403 691.329 241.398 691.34 241.401 691.349C241.403 691.359 241.398 691.371 241.401 691.379C242.14 694.387 243.005 697.427 244.092 700.48C244.315 701.108 244.61 701.725 244.847 702.354C244.859 702.384 244.866 702.415 244.878 702.445C244.916 702.546 244.96 702.645 244.999 702.747C245.562 704.221 246.086 705.689 246.722 707.161C247.192 708.25 247.846 709.311 248.354 710.396C249.433 712.707 250.564 714.985 251.801 717.258C252.368 718.298 252.805 719.375 253.403 720.402C253.786 721.061 254.278 721.654 254.673 722.307C254.692 722.338 254.715 722.367 254.733 722.398C256.301 724.99 257.979 727.478 259.721 729.955C259.822 730.098 259.923 730.238 260.024 730.379C260.609 731.204 261.083 732.11 261.687 732.919C261.869 733.162 262.077 733.371 262.261 733.614C265.08 737.345 268.05 740.935 271.179 744.225C274.513 747.73 278.167 750.59 282.003 752.932C283.92 754.103 285.874 755.157 287.868 756.076C291.855 757.915 295.955 759.262 300.051 760.249C300.929 760.46 301.806 760.584 302.682 760.762C297.772 788.374 291.107 817.886 281.73 849.856C281.73 849.856 296.115 859.558 321.758 871.563C322.987 872.138 324.558 872.761 325.839 873.347C404.701 909.391 579.977 962.498 771.642 843.054C771.642 843.054 777.976 804.822 778.686 751.572C814.211 721.909 827.118 687.702 826.423 661.783C826.414 661.441 826.405 661.093 826.392 660.754C826.311 658.751 826.149 656.813 825.908 654.92C825.828 654.278 825.735 653.644 825.636 653.015C825.357 651.246 825.022 649.529 824.609 647.876C824.479 647.357 824.327 646.871 824.185 646.364C823.706 644.661 823.23 642.994 822.613 641.436C822.481 641.104 822.297 640.824 822.159 640.499C818.749 632.44 813.578 626.415 807.134 623.569C788.59 615.378 776.391 628.569 770.13 638.595C769.411 634.528 768.814 630.476 767.983 626.411C764.757 610.627 760.597 594.917 755.438 579.611C755.84 579.548 756.242 579.484 756.677 579.431L752.807 561.654L746.186 542.154L734.517 524.68L733.701 524.256C736.039 524.15 742.075 523.906 751.205 523.047C761.951 522.03 773.57 520.429 777.114 517.999C780.651 515.573 782.948 509.278 787.242 501.945C787.248 501.934 787.265 501.926 787.272 501.915C789.426 498.24 792.063 494.319 795.646 490.457C799.231 486.594 803.745 482.806 809.583 479.453C809.583 479.453 812.439 460.692 808.313 441.42C808.313 441.42 817.153 428.066 818.652 420.047C818.867 418.901 818.937 417.866 818.804 416.993C818.804 416.993 814.032 409.923 806.922 400.063C806.914 400.051 806.901 400.044 806.892 400.033C806.826 399.94 806.778 399.854 806.711 399.761C804.835 397.162 803.714 395.489 801.391 392.384C775.094 357.26 720.489 292.05 648.9 245.849C660.943 220.9 658.543 197.357 658.543 197.357C644.15 132.09 624.23 139.523 624.23 139.523C615.292 147.322 612.089 203.721 611.2 224.173C601.857 219.529 592.311 215.253 582.54 211.505C582.54 211.505 580.973 211.091 578.066 210.538C575.279 210.008 571.124 209.365 566.064 208.754C566.073 208.708 566.115 208.588 566.124 208.543C567.504 201.371 569.521 186.932 570.659 184.568C571.796 182.206 571.898 159.415 571.898 159.415L570.507 157.329C570.467 157.13 570.428 156.823 570.386 156.634C569.755 153.764 569.117 152.28 569.117 152.28C568.142 151.717 567.077 151.236 566.064 150.708L564.25 148.018L536.346 140.37L532.567 140.46C521.769 138.863 510.083 138.425 497.829 139.039C497.592 138.961 496.802 138.647 496.802 138.647L496.923 139.13C478.874 140.109 459.677 143.471 440.267 148.925L440.479 140.792C440.479 140.792 438.344 133.239 431.198 134.232Z" stroke="black" stroke-width="0.0245956" stroke-miterlimit="10" stroke-linecap="round" stroke-linejoin="round"/>
</g>
<path d="M542.825 199.873C532.675 199.705 522.016 200.167 510.961 201.414C480.74 204.824 451.175 213.765 423.409 229.44C412.229 235.75 401.448 243.08 391.151 251.51C350.243 284.996 324.474 325.06 310.522 371.44C300.079 406.153 296.918 439.083 296.918 485.536C296.918 493.92 297.421 503.272 298.46 515.284C298.87 520.035 299.345 525.031 300.032 531.943C299.961 531.232 301.432 545.728 301.846 549.961C306.434 596.953 307.919 631.2 305.746 672.612C302.861 727.601 293.162 785.082 274.758 847.838C273.868 850.871 275.038 854.113 277.66 855.879C278.523 856.46 280.128 857.503 282.466 858.933C286.312 861.283 290.856 863.898 296.01 866.702C310.683 874.684 327.581 882.638 346.499 890.072C401.95 911.861 462.974 924.697 527.709 924.022C611.188 923.152 694.468 899.692 775.492 849.198C777.261 848.095 778.476 846.295 778.818 844.24C778.879 843.871 778.969 843.182 779.119 842.184C779.368 840.541 779.669 838.601 779.966 836.409C780.811 830.17 781.659 823.022 782.445 815.066C784.859 790.652 786.225 764.136 786.012 736.492C785.737 700.63 782.794 665.72 776.641 632.766C769.533 594.701 758.314 560.475 742.539 530.975C746.82 530.669 751.147 530.37 755.176 529.947C768.459 528.551 776.942 526.906 781.236 523.961C783.504 522.406 785.241 520.311 787.011 517.431C788.164 515.553 792.145 508.002 792.18 507.938C794.371 503.952 796.44 500.748 798.922 497.72C802.749 493.049 807.356 489.099 813.191 485.748C815.109 484.646 816.426 482.733 816.759 480.548C816.9 479.614 817.109 477.992 817.303 475.801C818.222 465.403 817.93 454.068 815.913 442.969C816.009 442.813 816.051 442.774 816.154 442.606C817.461 440.48 818.767 438.242 819.993 435.955C820.937 434.195 821.773 432.475 822.533 430.815C825.251 424.886 826.621 420.133 825.98 415.911C825.827 414.906 825.44 413.956 824.891 413.1C824.809 412.971 823.66 411.206 823.168 410.47C821.771 408.38 820.112 405.962 818.21 403.244C812.792 395.503 806.448 386.878 799.225 377.607C778.597 351.134 755.058 324.665 728.934 299.941C683.612 257.045 635.431 223.994 585.15 204.71C584.882 204.607 584.612 204.538 584.335 204.468C583.68 204.303 582.506 204.045 580.858 203.712C578.175 203.172 575.062 202.609 571.576 202.11C562.599 200.824 552.976 200.041 542.825 199.873ZM542.553 214.385C552.091 214.54 561.12 215.297 569.521 216.5C572.73 216.96 575.566 217.434 577.985 217.922C578.818 218.089 579.533 218.238 580.132 218.375C580.182 218.386 580.179 218.395 580.223 218.405C628.421 236.944 674.993 268.883 718.958 310.492C744.511 334.676 767.594 360.597 787.796 386.526C794.863 395.595 801.049 404.015 806.328 411.558C808.17 414.189 809.767 416.507 811.105 418.512C811.204 418.659 811.301 418.818 811.438 419.025C811.379 419.303 811.353 419.53 811.256 419.872C810.873 421.222 810.215 422.888 809.352 424.769C808.727 426.134 808.014 427.584 807.206 429.092C806.124 431.109 804.956 433.119 803.789 435.018C803.382 435.682 802.31 437.312 802.248 437.407C801.169 439.033 800.811 441.031 801.219 442.939C803.454 453.38 803.71 464.494 802.821 474.532C802.799 474.784 802.784 474.957 802.761 475.196C796.849 479.027 791.878 483.437 787.705 488.529C784.588 492.333 782.068 496.218 779.482 500.924C779.232 501.38 775.503 508.446 774.645 509.843C773.846 511.144 773.28 511.807 773.013 511.989C772.587 512.281 770.254 513.023 766.846 513.682C763.316 514.365 758.826 514.981 753.634 515.526C748.54 516.061 743.066 516.482 737.581 516.827C735.659 516.947 730.378 517.215 730.295 517.219C724.807 517.447 721.564 523.472 724.37 528.194C742.252 558.293 754.723 594.467 762.371 635.426C768.355 667.474 771.231 701.527 771.501 736.583C771.71 763.679 770.36 789.717 767.994 813.645C767.225 821.423 766.398 828.405 765.575 834.474C765.406 835.726 765.2 837.029 764.971 838.586C687.145 886.435 607.45 908.678 527.558 909.511C464.827 910.165 405.601 897.734 351.789 876.589C333.45 869.382 317.097 861.649 302.934 853.944C298.041 851.283 293.796 848.807 290.176 846.598C307.894 784.83 317.395 727.901 320.257 673.368C322.474 631.106 320.919 596.191 316.266 548.54C315.851 544.287 314.41 529.795 314.483 530.521C313.801 523.667 313.346 518.693 312.94 514.014C311.934 502.383 311.429 493.432 311.429 485.536C311.429 440.38 314.483 408.702 324.429 375.642C337.572 331.951 361.737 294.357 400.342 262.756C409.99 254.858 420.085 247.98 430.544 242.077C456.522 227.412 484.193 219.036 512.563 215.836C522.963 214.662 533.016 214.228 542.553 214.385Z" fill="black"/>
<path d="M542.825 199.873C532.675 199.705 522.016 200.167 510.961 201.414C480.74 204.824 451.175 213.765 423.409 229.44C412.229 235.75 401.448 243.08 391.151 251.51C350.243 284.996 324.474 325.06 310.522 371.44C300.079 406.153 296.918 439.083 296.918 485.536C296.918 493.92 297.421 503.272 298.46 515.284C298.87 520.035 299.345 525.031 300.032 531.943C299.961 531.232 301.432 545.728 301.846 549.961C306.434 596.953 307.919 631.2 305.746 672.612C302.861 727.601 293.162 785.082 274.758 847.838C273.868 850.871 275.038 854.113 277.66 855.879C278.523 856.46 280.128 857.503 282.466 858.933C286.312 861.283 290.856 863.898 296.01 866.702C310.683 874.684 327.581 882.638 346.499 890.072C401.95 911.861 462.974 924.697 527.709 924.022C611.188 923.152 694.468 899.692 775.492 849.198C777.261 848.095 778.476 846.295 778.818 844.24C778.879 843.871 778.969 843.182 779.119 842.184C779.368 840.541 779.669 838.601 779.966 836.409C780.811 830.17 781.659 823.022 782.445 815.066C784.859 790.652 786.225 764.136 786.012 736.492C785.737 700.63 782.794 665.72 776.641 632.766C769.533 594.701 758.314 560.475 742.539 530.975C746.82 530.669 751.147 530.37 755.176 529.947C768.459 528.551 776.942 526.906 781.236 523.961C783.504 522.406 785.241 520.311 787.011 517.431C788.164 515.553 792.145 508.002 792.18 507.938C794.371 503.952 796.44 500.748 798.922 497.72C802.749 493.049 807.356 489.099 813.191 485.748C815.109 484.646 816.426 482.733 816.759 480.548C816.9 479.614 817.109 477.992 817.303 475.801C818.222 465.403 817.93 454.068 815.913 442.969C816.009 442.813 816.051 442.774 816.154 442.606C817.461 440.48 818.767 438.242 819.993 435.955C820.937 434.195 821.773 432.475 822.533 430.815C825.251 424.886 826.621 420.133 825.98 415.911C825.827 414.906 825.44 413.956 824.891 413.1C824.809 412.971 823.66 411.206 823.168 410.47C821.771 408.38 820.112 405.962 818.21 403.244C812.792 395.503 806.448 386.878 799.225 377.607C778.597 351.134 755.058 324.665 728.934 299.941C683.612 257.045 635.431 223.994 585.15 204.71C584.882 204.607 584.612 204.538 584.335 204.468C583.68 204.303 582.506 204.045 580.858 203.712C578.175 203.172 575.062 202.609 571.576 202.11C562.599 200.824 552.976 200.041 542.825 199.873ZM542.553 214.385C552.091 214.54 561.12 215.297 569.521 216.5C572.73 216.96 575.566 217.434 577.985 217.922C578.818 218.089 579.533 218.238 580.132 218.375C580.182 218.386 580.179 218.395 580.223 218.405C628.421 236.944 674.993 268.883 718.958 310.492C744.511 334.676 767.594 360.597 787.796 386.526C794.863 395.595 801.049 404.015 806.328 411.558C808.17 414.189 809.767 416.507 811.105 418.512C811.204 418.659 811.301 418.818 811.438 419.025C811.379 419.303 811.353 419.53 811.256 419.872C810.873 421.222 810.215 422.888 809.352 424.769C808.727 426.134 808.014 427.584 807.206 429.092C806.124 431.109 804.956 433.119 803.789 435.018C803.382 435.682 802.31 437.312 802.248 437.407C801.169 439.033 800.811 441.031 801.219 442.939C803.454 453.38 803.71 464.494 802.821 474.532C802.799 474.784 802.784 474.957 802.761 475.196C796.849 479.027 791.878 483.437 787.705 488.529C784.588 492.333 782.068 496.218 779.482 500.924C779.232 501.38 775.503 508.446 774.645 509.843C773.846 511.144 773.28 511.807 773.013 511.989C772.587 512.281 770.254 513.023 766.846 513.682C763.316 514.365 758.826 514.981 753.634 515.526C748.54 516.061 743.066 516.482 737.581 516.827C735.659 516.947 730.378 517.215 730.295 517.219C724.807 517.447 721.564 523.472 724.37 528.194C742.252 558.293 754.723 594.467 762.371 635.426C768.355 667.474 771.231 701.527 771.501 736.583C771.71 763.679 770.36 789.717 767.994 813.645C767.225 821.423 766.398 828.405 765.575 834.474C765.406 835.726 765.2 837.029 764.971 838.586C687.145 886.435 607.45 908.678 527.558 909.511C464.827 910.165 405.601 897.734 351.789 876.589C333.45 869.382 317.097 861.649 302.934 853.944C298.041 851.283 293.796 848.807 290.176 846.598C307.894 784.83 317.395 727.901 320.257 673.368C322.474 631.106 320.919 596.191 316.266 548.54C315.851 544.287 314.41 529.795 314.483 530.521C313.801 523.667 313.346 518.693 312.94 514.014C311.934 502.383 311.429 493.432 311.429 485.536C311.429 440.38 314.483 408.702 324.429 375.642C337.572 331.951 361.737 294.357 400.342 262.756C409.99 254.858 420.085 247.98 430.544 242.077C456.522 227.412 484.193 219.036 512.563 215.836C522.963 214.662 533.016 214.228 542.553 214.385Z" fill="black"/>
<path d="M435.653 119.818C433.612 119.536 431.469 119.535 429.214 119.848C426.8 120.184 424.388 120.901 422.018 121.934C414.107 125.383 401.818 137.139 392.24 150.987C331.034 178.171 282.74 221.29 261.365 273.337C246.34 309.92 239.23 348.269 238.69 387.281C238.275 417.335 241.743 446 247.791 472.294C249.797 481.02 251.941 488.862 254.109 495.724C254.878 498.159 255.602 500.316 256.256 502.163C256.665 503.321 256.973 504.153 257.162 504.643C259.397 510.395 265.023 514.078 271.19 513.863L291.113 513.168C291.396 516.666 291.536 519.365 291.93 523.537C292.436 528.907 294.39 548.472 294.62 550.837C295.714 562.068 296.526 571.259 297.22 580.586C298.096 592.391 298.612 604.411 298.944 616.531C289.981 615.621 281.231 616.419 272.762 618.95C260.679 622.561 249.797 629.331 239.568 638.631C235.476 642.351 232.184 646.721 229.773 651.662C229.16 652.914 228.809 653.836 228.261 655.41C228.239 655.472 228.067 656.003 228.019 656.136C228.031 656.102 227.665 657.007 227.535 657.345C227.318 657.912 227.108 658.462 226.93 659.068C226.749 659.686 226.608 660.296 226.477 660.912C226.398 661.282 226.181 662.398 226.175 662.424C224.277 670.945 224.331 680.258 226.175 689.935C226.397 691.105 226.613 692.027 227.021 693.654C227.044 693.745 227.229 694.481 227.293 694.742C227.295 694.749 227.291 694.766 227.293 694.772C227.296 694.797 227.29 694.777 227.293 694.802C227.296 694.828 227.29 694.807 227.293 694.833C228.212 698.573 229.216 702.006 230.407 705.354C230.618 705.945 230.8 706.401 231.072 707.047C231.096 707.104 231.219 707.327 231.254 707.41C231.26 707.423 231.284 707.47 231.284 707.47C231.31 707.545 231.281 707.497 231.314 707.59C231.389 707.789 232.297 710.199 232.493 710.705C232.798 711.487 233.096 712.206 233.401 712.911C233.822 713.888 234.159 714.538 234.791 715.723C234.806 715.752 235.17 716.443 235.214 716.539C236.47 719.232 237.725 721.748 239.053 724.188C239.114 724.299 239.434 724.95 239.447 724.974C240.028 726.18 240.342 726.792 240.867 727.695C241.134 728.154 241.396 728.567 241.684 728.995C241.856 729.251 242.359 729.993 242.379 730.023C242.357 729.989 242.694 730.507 242.802 730.658C244.304 733.1 245.885 735.512 247.851 738.306C247.934 738.424 248.161 738.727 248.184 738.76C248.178 738.751 248.449 739.201 248.456 739.214C249.099 740.252 249.459 740.797 250.058 741.601C250.419 742.085 250.645 742.341 251.025 742.781C254.207 746.963 257.403 750.805 260.669 754.239C264.778 758.558 269.369 762.216 274.425 765.303C276.839 766.779 279.315 768.117 281.802 769.264C283.153 769.887 284.552 770.383 285.943 770.927C281.148 795.645 275.253 820.383 267.804 845.782C266.026 851.845 268.37 858.362 273.609 861.895C274.19 862.287 275.213 862.951 276.662 863.86C278.997 865.325 281.754 866.981 284.885 868.788C293.737 873.898 303.997 879.287 315.601 884.721C316.367 885.078 316.922 885.299 318.261 885.869C318.297 885.884 319.477 886.385 319.803 886.534C343.709 897.461 369.873 907.067 398.044 914.62C432.733 923.92 468.802 929.642 505.912 931.006C597.72 934.379 689.821 911.148 779.331 855.365C782.871 853.159 785.27 849.533 785.952 845.419C786.019 845.016 786.128 844.306 786.285 843.272C786.539 841.59 786.829 839.609 787.132 837.377C787.987 831.043 788.846 823.815 789.64 815.761C791.417 797.762 792.524 778.31 792.966 758.139C825.139 729.206 841.788 693.926 840.914 661.396C840.91 661.209 840.894 660.433 840.884 660.186C840.784 657.747 840.603 655.393 840.309 653.082C840.219 652.361 840.109 651.633 839.977 650.784C839.618 648.508 839.186 646.376 838.677 644.345C838.557 643.863 838.456 643.485 838.284 642.894C838.267 642.834 838.184 642.515 838.163 642.44C837.343 639.527 836.87 638.015 836.108 636.092C835.927 635.634 835.736 635.206 835.533 634.792C835.421 634.563 835.231 634.19 835.23 634.187C835.306 634.33 835.377 634.485 835.533 634.853C830.714 623.463 823.026 614.727 813.01 610.304C801.128 605.056 789.456 605.417 779.15 610.485C776.772 600.47 774.082 590.616 771.017 581.008C771.186 579.487 771.212 577.94 770.866 576.353L766.997 558.577C766.881 558.043 766.719 557.492 766.543 556.975L759.923 537.474C759.832 537.208 759.665 536.979 759.56 536.719C772.055 535.287 780.131 533.534 785.318 529.977C788.577 527.742 790.926 524.929 793.178 521.27C794.439 519.221 798.6 511.298 799.708 509.389C799.759 509.314 799.743 509.348 799.798 509.268C801.847 505.774 803.844 502.932 806.268 500.319C809.178 497.184 812.637 494.438 816.819 492.036C820.652 489.834 823.258 486.006 823.924 481.636C823.974 481.302 824.05 480.786 824.136 480.094C824.267 479.016 824.409 477.79 824.529 476.436C825.429 466.27 825.218 455.296 823.5 444.359C824.471 442.722 825.451 441.089 826.372 439.371C827.382 437.487 828.328 435.642 829.154 433.839C830.977 429.859 832.249 426.21 832.903 422.713C833.402 420.044 833.549 417.483 833.144 414.823C832.821 412.696 832.05 410.649 830.847 408.867C830.682 408.623 828.391 405.28 827.461 403.939C824.811 400.12 821.857 395.963 818.694 391.575C818.671 391.547 818.685 391.57 818.663 391.545C818.58 391.422 818.56 391.383 818.482 391.272C817.934 390.512 814.299 385.404 813.01 383.684C795.799 360.694 775.449 336.571 752.515 313.122C725.449 285.448 696.766 260.821 666.747 240.323C669.268 233.052 671.094 225.672 672.129 218.284C673.226 210.442 673.432 203.529 673.126 197.938C673.077 197.038 673.022 196.343 672.975 195.882C672.918 195.326 672.823 194.765 672.702 194.219C669.572 180.023 666.005 168.276 662.031 158.726C656.273 144.889 649.592 135.518 641.897 130.097C635.089 125.302 628.032 123.955 621.913 125.169C620.883 125.373 619.96 125.627 619.162 125.925C617.524 126.536 616.004 127.436 614.688 128.585C609.479 133.131 606.765 139.786 604.409 149.839C602.789 156.745 601.427 165.359 600.266 175.446C599.293 183.903 598.569 192.968 597.939 202.171C594.535 200.726 591.133 199.266 587.751 197.968C587.263 197.782 586.744 197.617 586.239 197.485C585.887 197.392 585.363 197.258 584.637 197.092C584.14 196.978 583.477 196.847 582.914 196.729C583.262 194.708 583.54 192.98 583.73 192.013C583.917 191.057 584.061 190.296 584.183 189.805C584.219 189.661 584.249 189.579 584.244 189.594C584.144 189.911 584.001 190.3 583.73 190.863C585.602 186.972 585.833 183.85 586.179 172.543C586.266 169.677 586.32 166.612 586.36 163.564C586.374 162.499 586.421 159.544 586.421 159.483C586.433 156.595 585.573 153.783 583.972 151.381L583.881 151.26C583.396 149.496 582.916 147.604 582.46 146.544C581.224 143.669 579.092 141.275 576.383 139.711C576.207 139.609 576.001 139.499 575.839 139.409C573.909 136.814 571.23 134.885 568.099 134.027L540.196 126.379C538.833 126.005 537.406 125.83 535.993 125.865L532.879 125.925C522.446 124.503 511.269 124.069 499.503 124.535C496.984 124.04 494.561 124.203 492.308 124.957C479.216 125.886 465.618 127.907 451.736 131.065C451.288 130.306 450.959 129.54 450.406 128.797C446.852 124.02 441.778 120.665 435.653 119.818ZM431.208 134.239C438.355 133.245 440.49 140.799 440.49 140.799L440.278 148.931C459.688 143.478 478.884 140.116 496.933 139.136L496.813 138.652C496.813 138.652 497.603 138.967 497.84 139.046C510.093 138.432 521.78 138.87 532.577 140.466L536.356 140.376L564.261 148.025L566.075 150.715C567.087 151.242 568.153 151.724 569.128 152.287C569.128 152.287 569.765 153.77 570.397 156.641C570.439 156.828 570.477 157.136 570.518 157.336L571.909 159.422C571.909 159.422 571.807 182.212 570.67 184.575C569.532 186.939 567.515 201.377 566.135 208.549C566.126 208.594 566.083 208.714 566.075 208.761C571.134 209.372 575.289 210.015 578.076 210.545C580.984 211.098 582.551 211.512 582.551 211.512C592.322 215.26 601.867 219.536 611.211 224.18C612.1 203.727 615.303 147.329 624.241 139.53C624.241 139.53 644.16 132.097 658.554 197.364C658.554 197.364 660.954 220.906 648.911 245.856C720.5 292.055 775.105 357.266 801.401 392.391C803.725 395.496 804.845 397.169 806.722 399.768C806.789 399.861 806.836 399.947 806.903 400.04C806.912 400.051 806.924 400.058 806.933 400.07C814.043 409.929 818.815 417 818.815 417C818.947 417.873 818.878 418.908 818.663 420.053C817.164 428.073 808.324 441.427 808.324 441.427C812.449 460.699 809.593 479.46 809.593 479.46C803.756 482.812 799.242 486.601 795.657 490.464C792.073 494.325 789.437 498.247 787.283 501.921C787.276 501.933 787.258 501.941 787.253 501.952C782.958 509.284 780.662 515.579 777.125 518.005C773.581 520.435 761.961 522.037 751.216 523.054C742.085 523.913 736.05 524.157 733.711 524.263L734.528 524.687L746.197 542.16L752.818 561.66L756.688 579.436C756.252 579.49 755.851 579.554 755.448 579.618C760.608 594.923 764.768 610.634 767.994 626.417C768.825 630.482 769.422 634.534 770.141 638.601C776.402 628.576 788.6 615.385 807.145 623.575C813.589 626.421 818.761 632.446 822.17 640.505C822.307 640.831 822.492 641.11 822.624 641.443C823.241 643.001 823.717 644.668 824.196 646.371C824.338 646.877 824.49 647.363 824.619 647.882C825.033 649.535 825.367 651.252 825.647 653.022C825.746 653.65 825.838 654.284 825.919 654.927C826.16 656.819 826.321 658.758 826.402 660.761C826.416 661.099 826.425 661.447 826.433 661.789C827.129 687.709 814.222 721.915 778.697 751.578C777.987 804.828 771.653 843.06 771.653 843.06C579.988 962.505 404.712 909.398 325.85 873.353C324.57 872.768 322.998 872.145 321.768 871.569C296.126 859.565 281.741 849.863 281.741 849.863C291.117 817.893 297.783 788.379 302.693 760.769C301.817 760.591 300.94 760.466 300.062 760.255C295.966 759.268 291.866 757.922 287.878 756.083C285.884 755.163 283.931 754.11 282.014 752.939C278.178 750.596 274.524 747.737 271.19 744.232C268.061 740.942 265.091 737.351 262.271 733.62C262.088 733.377 261.88 733.169 261.698 732.925C261.094 732.116 260.62 731.21 260.035 730.386C259.934 730.244 259.833 730.104 259.732 729.962C257.99 727.485 256.312 724.996 254.744 722.405C254.726 722.373 254.702 722.345 254.684 722.314C254.288 721.661 253.797 721.068 253.414 720.409C252.816 719.381 252.379 718.305 251.812 717.265C250.574 714.991 249.443 712.714 248.365 710.402C247.857 709.316 247.203 708.257 246.733 707.168C246.097 705.695 245.573 704.228 245.01 702.753C244.971 702.652 244.926 702.552 244.889 702.452C244.877 702.422 244.869 702.391 244.858 702.361C244.621 701.732 244.326 701.114 244.102 700.486C243.016 697.433 242.151 694.394 241.412 691.386C241.409 691.376 241.414 691.365 241.412 691.356C241.409 691.346 241.414 691.335 241.412 691.326C241.075 689.953 240.703 688.569 240.444 687.215C238.971 679.482 238.894 672.154 240.353 665.598C240.532 664.793 240.639 663.958 240.867 663.18C241.077 662.468 241.401 661.813 241.654 661.124C242.032 660.091 242.356 659.016 242.833 658.04C244.421 654.786 246.573 651.872 249.332 649.364C264.679 635.411 286.04 624.134 313.848 634.973C313.785 614.917 312.952 596.376 311.701 579.527C309.295 547.162 305.68 520.423 304.536 498.293C304.534 498.262 304.537 498.234 304.536 498.203L270.706 499.382C270.706 499.382 228.663 391.179 274.788 278.869C296.465 226.088 347.071 186.078 401.975 162.536C402.323 161.991 402.649 161.374 403.002 160.843C412.902 145.934 424.121 136.85 427.822 135.236C429.057 134.698 430.188 134.38 431.208 134.239Z" fill="black"/>
<path d="M431.802 263.171L435.093 140.154C435.093 140.154 432.308 130.282 422.437 134.585C412.565 138.888 349.285 196.347 399.909 275.573" fill="#AF93E5"/>
<path d="M429.601 259.068C429.601 259.068 432.083 185.697 414.815 191.537C397.548 197.376 398.86 246.594 409.653 261.292C420.447 275.989 422.251 275.062 429.601 259.068Z" fill="#ABACE3"/>
<path d="M437.176 263.802L440.468 140.785C440.468 140.785 437.683 130.913 427.811 135.216C417.939 139.519 354.659 196.978 405.283 276.205" stroke="black" stroke-width="0.0122978" stroke-miterlimit="10" stroke-linecap="round" stroke-linejoin="round"/>
<path d="M433.597 126.892C430.913 126.704 427.999 127.213 424.92 128.555C420.779 130.361 414.032 135.976 407.627 143.067C399.509 152.055 392.35 162.789 387.19 174.72C373.215 207.042 375.456 243.007 399.162 280.109C401.321 283.485 405.823 284.474 409.199 282.315C412.577 280.158 413.565 275.686 411.407 272.309C390.35 239.355 388.423 208.478 400.524 180.494C405.022 170.088 411.288 160.634 418.39 152.771C421.206 149.654 424.011 146.96 426.553 144.851C428.513 143.224 430.163 142.102 430.725 141.858C432.437 141.111 432.446 141.143 432.932 141.797C433.02 141.916 433.095 142.053 433.174 142.19L429.909 263.602C429.802 267.608 432.977 270.963 436.983 271.069C440.989 271.176 444.313 268 444.421 263.995L447.716 140.981C447.735 140.25 447.642 139.508 447.444 138.804C447.3 138.295 447.062 137.628 446.718 136.839C446.17 135.582 445.466 134.325 444.572 133.121C441.86 129.472 438.07 127.208 433.597 126.892Z" fill="black"/>
<path d="M521.552 594.855L681.485 591.751C681.485 591.751 719.994 593.342 743.576 666.623C767.158 739.903 718.02 838.367 651.525 858.231C585.029 878.095 534.174 876.626 487.535 858.782C440.896 840.937 411.105 784.938 407.138 769.456C403.171 753.972 393.392 692.254 413.232 658.114C433.071 623.972 476.09 598.918 521.552 594.855Z" fill="#F3886D" stroke="black" stroke-width="0.0122978" stroke-miterlimit="10" stroke-linecap="round" stroke-linejoin="round"/>
<path d="M681.489 591.766L653.343 592.309L614.132 625.384L574.952 593.821L521.562 594.849C476.101 598.911 433.079 623.984 413.24 658.124C405.274 671.833 402.189 689.944 401.48 707.766L421.856 714.689L453.6 721.219C453.6 721.219 451.622 823.451 552.641 837.371C653.659 851.291 718.88 803.95 722.061 728.384L745.823 716.957C745.823 716.957 748.302 716.666 749.058 716.594C750.191 699.464 748.679 682.445 743.587 666.62C720.004 593.34 681.489 591.766 681.489 591.766Z" fill="#F9B192"/>
<path d="M456.674 641.516L515.008 638.895" stroke="black" stroke-width="0.0122978" stroke-miterlimit="10" stroke-linecap="round" stroke-linejoin="round"/>
<path d="M678.941 639.487L715.885 640.445" stroke="black" stroke-width="0.0122978" stroke-miterlimit="10" stroke-linecap="round" stroke-linejoin="round"/>
<path d="M574.59 761.98C574.59 761.98 610.247 746.471 617.797 740.56C617.797 740.56 629.016 749.322 634.258 750.016" stroke="black" stroke-width="0.0122978" stroke-miterlimit="10" stroke-linecap="round" stroke-linejoin="round"/>
<path d="M681.349 584.486L521.421 587.6C521.253 587.603 521.076 587.614 520.907 587.63C473.146 591.898 428.02 618.236 406.963 654.473C397.286 671.125 393.422 694.119 393.993 720.923C394.393 739.695 397.128 759.66 400.1 771.26C402.828 781.908 412.933 800.957 425.556 817.606C442.447 839.883 462.553 856.991 484.932 865.553C534.804 884.636 587.705 884.875 653.596 865.19C724.799 843.921 775.047 740.696 750.49 664.389C744.14 644.657 736.353 628.724 727.393 616.23C717.952 603.064 707.644 594.289 697.191 589.142C693.407 587.279 689.839 586.006 686.579 585.241C685.384 584.962 684.312 584.764 683.344 584.636C682.687 584.55 682.142 584.531 681.772 584.516C681.626 584.51 681.495 584.483 681.349 584.486ZM681.198 598.997C681.184 598.996 681.255 598.996 681.258 598.997C681.268 598.999 681.273 599.006 681.44 599.027C681.936 599.093 682.534 599.221 683.254 599.39C685.462 599.908 688.003 600.803 690.782 602.171C699.078 606.257 707.543 613.456 715.602 624.695C723.648 635.915 730.769 650.484 736.674 668.834C758.8 737.588 712.659 832.402 649.454 851.284C586.484 870.095 536.842 869.882 490.131 852.009C470.62 844.545 452.494 829.134 437.104 808.838C425.562 793.616 416.354 776.234 414.157 767.662C411.461 757.137 408.88 738.28 408.505 720.621C407.985 696.241 411.443 675.64 419.509 661.759C438.065 629.826 478.853 606.02 522.057 602.111L681.198 598.997Z" fill="black"/>
<path d="M681.349 584.516L653.203 585.06C651.539 585.092 649.94 585.68 648.669 586.753L614.022 615.988L579.498 588.174C578.17 587.105 576.515 586.538 574.811 586.571L521.421 587.6C521.253 587.603 521.076 587.615 520.907 587.63C473.153 591.897 428.023 618.231 406.963 654.473C399.01 668.16 395.085 686.11 394.235 707.47C394.107 710.682 396.089 713.6 399.133 714.635L419.509 721.558C419.795 721.655 420.09 721.739 420.386 721.8L446.536 727.181C446.552 727.444 446.549 727.542 446.566 727.816C446.854 732.166 447.389 736.908 448.229 741.964C450.577 756.089 454.888 770.176 461.653 783.383C478.53 816.332 507.825 838.533 551.653 844.573C652.264 858.436 722.992 812.604 728.874 733.168L747.86 724.037C748.709 723.941 749.626 723.839 749.765 723.825C753.305 723.486 756.06 720.632 756.295 717.084C757.536 698.312 755.685 680.531 750.49 664.389C744.139 644.654 736.356 628.723 727.393 616.23C717.951 603.069 707.645 594.284 697.191 589.142C693.406 587.281 689.84 586.035 686.579 585.272C685.385 584.992 684.314 584.794 683.344 584.667C682.687 584.581 682.142 584.531 681.772 584.516C681.627 584.51 681.494 584.513 681.349 584.516ZM681.198 599.027C681.184 599.027 681.256 599.026 681.258 599.027C681.268 599.03 681.273 599.036 681.44 599.058C681.937 599.123 682.564 599.221 683.284 599.39C685.493 599.907 688.003 600.805 690.782 602.171C699.077 606.252 707.544 613.462 715.602 624.695C723.65 635.913 730.768 650.482 736.674 668.834C740.786 681.611 742.438 695.766 741.964 710.765L718.928 721.83C716.513 722.991 714.929 725.412 714.817 728.089C711.747 800.976 648.297 843.228 553.619 830.182C514.659 824.814 489.351 805.636 474.562 776.762C468.536 764.998 464.678 752.345 462.56 739.607C461.801 735.039 461.304 730.736 461.048 726.848C460.955 725.442 460.895 724.191 460.867 723.07C460.848 722.334 460.863 721.778 460.867 721.407C460.867 721.352 460.867 721.33 460.867 721.347C460.934 717.85 458.487 714.825 455.062 714.121L423.742 707.682L409.14 702.724C410.305 685.985 413.585 671.955 419.509 661.759C438.069 629.82 478.861 606.019 522.057 602.111L572.453 601.144L609.578 631.043C612.283 633.222 616.144 633.162 618.799 630.922L656.014 599.511L681.198 599.027Z" fill="black" fill-opacity="0.5"/>
<path d="M514.68 631.648L456.361 634.278C452.358 634.458 449.259 637.833 449.439 641.836C449.619 645.839 452.994 648.939 456.997 648.759L515.345 646.129C519.348 645.949 522.447 642.574 522.267 638.571C522.088 634.567 518.683 631.468 514.68 631.648Z" fill="black"/>
<path d="M679.142 632.222C675.136 632.118 671.778 635.29 671.675 639.296C671.57 643.302 674.743 646.629 678.749 646.734L715.693 647.701C719.699 647.805 723.026 644.632 723.129 640.626C723.234 636.621 720.092 633.293 716.086 633.19L679.142 632.222Z" fill="black"/>
<path d="M617.801 733.318C616.223 733.319 614.639 733.832 613.327 734.86C611.28 736.463 605.411 739.644 597.213 743.627C596.104 744.166 594.947 744.698 593.767 745.26C588.944 747.557 583.771 749.949 578.59 752.274C576.776 753.088 571.779 755.292 571.697 755.327C568.023 756.926 566.35 761.205 567.948 764.881C569.547 768.555 573.797 770.228 577.472 768.629C577.564 768.589 582.672 766.343 584.516 765.515C589.789 763.149 595.062 760.729 599.994 758.381C601.209 757.803 602.418 757.213 603.562 756.658C609.674 753.688 614.003 751.361 617.499 749.281C618.513 749.992 619.511 750.72 620.552 751.397C621.629 752.096 622.674 752.736 623.696 753.332C627.361 755.47 630.426 756.819 633.311 757.201C637.283 757.728 640.917 754.946 641.443 750.974C641.969 747.002 639.188 743.338 635.215 742.811C634.772 742.753 633.114 742.042 631.013 740.816C630.203 740.344 629.334 739.792 628.443 739.214C626.966 738.254 625.479 737.229 624.059 736.191C623.562 735.827 622.345 734.885 622.275 734.829C620.962 733.804 619.38 733.317 617.801 733.318Z" fill="black"/>
<path d="M681.349 584.486L521.421 587.6C521.253 587.603 521.076 587.614 520.907 587.63C473.146 591.898 428.02 618.236 406.963 654.473C397.286 671.125 393.422 694.119 393.993 720.923C394.393 739.695 397.128 759.66 400.1 771.26C402.828 781.908 412.933 800.957 425.556 817.606C442.447 839.883 462.553 856.991 484.932 865.553C534.804 884.636 587.705 884.875 653.596 865.19C724.799 843.921 775.047 740.696 750.49 664.389C744.14 644.657 736.353 628.724 727.393 616.23C717.952 603.064 707.644 594.289 697.191 589.142C693.407 587.279 689.839 586.006 686.579 585.241C685.384 584.962 684.312 584.764 683.344 584.636C682.687 584.55 682.142 584.531 681.772 584.516C681.626 584.51 681.495 584.483 681.349 584.486ZM681.198 598.997C681.184 598.996 681.255 598.996 681.258 598.997C681.268 598.999 681.273 599.006 681.44 599.027C681.936 599.093 682.534 599.221 683.254 599.39C685.462 599.908 688.003 600.803 690.782 602.171C699.078 606.257 707.543 613.456 715.602 624.695C723.648 635.915 730.769 650.484 736.674 668.834C758.8 737.588 712.659 832.402 649.454 851.284C586.484 870.095 536.842 869.882 490.131 852.009C470.62 844.545 452.494 829.134 437.104 808.838C425.562 793.616 416.354 776.234 414.157 767.662C411.461 757.137 408.88 738.28 408.505 720.621C407.985 696.241 411.443 675.64 419.509 661.759C438.065 629.826 478.853 606.02 522.057 602.111L681.198 598.997Z" fill="black"/>
<path d="M521.552 594.855L681.485 591.751C681.485 591.751 719.994 593.342 743.576 666.623C767.158 739.903 718.02 838.367 651.525 858.231C585.029 878.095 534.174 876.626 487.535 858.782C440.896 840.937 411.105 784.938 407.138 769.456C403.171 753.972 393.392 692.254 413.232 658.114C433.071 623.972 476.09 598.918 521.552 594.855Z" stroke="black" stroke-width="0.0122978" stroke-miterlimit="10" stroke-linecap="round" stroke-linejoin="round"/>
<path d="M386.427 703.329C387.769 691.324 408.042 683.734 431.709 686.378C455.377 689.021 473.475 700.897 472.134 712.903C470.794 724.909 450.52 732.497 426.853 729.854C403.186 727.21 385.086 715.334 386.427 703.329Z" fill="#FF497F" stroke="black" stroke-width="0.0122978" stroke-miterlimit="10" stroke-linecap="round" stroke-linejoin="round"/>
<path d="M422.502 678.598C399.661 678.541 380.902 687.359 379.209 702.512C377.275 719.829 398.905 734.036 426.039 737.067C453.173 740.098 477.404 731.015 479.338 713.698C481.273 696.38 459.642 682.204 432.509 679.173C429.117 678.793 425.765 678.607 422.502 678.598ZM423.197 693.109C425.709 693.137 428.296 693.302 430.907 693.593C441.344 694.76 450.804 697.927 457.329 702.21C462.81 705.806 465.213 709.452 464.917 712.095C464.622 714.739 461.473 717.779 455.334 720.076C448.024 722.813 438.109 723.813 427.672 722.647C417.234 721.48 407.774 718.313 401.249 714.03C395.768 710.434 393.335 706.788 393.631 704.145C393.926 701.501 397.105 698.461 403.244 696.164C408.726 694.111 415.662 693.026 423.197 693.109Z" fill="black"/>
<path d="M698.244 717.036C697.936 704.96 716.984 694.677 740.792 694.069C764.598 693.46 784.147 702.756 784.456 714.833C784.764 726.909 765.716 737.193 741.909 737.801C718.103 738.41 698.553 729.113 698.244 717.036Z" fill="#FF497F" stroke="black" stroke-width="0.0122978" stroke-miterlimit="10" stroke-linecap="round" stroke-linejoin="round"/>
<path d="M740.604 686.821C713.31 687.519 690.548 699.816 690.994 717.235C691.439 734.654 714.792 745.746 742.086 745.049C769.38 744.351 792.141 732.054 791.696 714.635C791.251 697.216 767.897 686.124 740.604 686.821ZM740.967 701.333C751.467 701.065 761.278 702.908 768.327 706.261C774.247 709.076 777.147 712.368 777.216 715.028C777.283 717.688 774.549 721.105 768.781 724.219C761.912 727.926 752.222 730.268 741.723 730.537C731.223 730.805 721.442 728.961 714.393 725.609C708.473 722.794 705.573 719.501 705.505 716.842C705.436 714.183 708.14 710.765 713.909 707.652C720.777 703.944 730.468 701.601 740.967 701.333Z" fill="black"/>
<path d="M241.643 661.117C233.2 684.184 248.844 720.746 271.179 744.225C297.847 772.261 344.765 759.795 344.765 759.795L345.883 748.488C345.782 748.261 345.714 748.081 345.611 747.853C311.366 671.854 255.398 662.318 241.643 661.117Z" fill="#F9B192"/>
<path d="M328.626 716.679C328.626 716.679 312.972 687.253 277.897 671.363" stroke="black" stroke-width="0.0122978" stroke-miterlimit="10" stroke-linecap="round" stroke-linejoin="round"/>
<path d="M342.066 784.473C342.066 784.473 358.399 659.919 355.504 629.187" stroke="black" stroke-width="0.0122978" stroke-miterlimit="10" stroke-linecap="round" stroke-linejoin="round"/>
<path d="M311.207 697.492C311.207 697.492 298.142 699.376 292.022 705.85" stroke="black" stroke-width="0.0122978" stroke-miterlimit="10" stroke-linecap="round" stroke-linejoin="round"/>
<path d="M344.761 759.806C344.761 759.806 297.852 772.251 271.183 744.216C244.515 716.18 227.25 669.429 249.325 649.36C271.401 629.292 305.872 614.582 354.159 663.589" stroke="black" stroke-width="0.0122978" stroke-miterlimit="10" stroke-linecap="round" stroke-linejoin="round"/>
<path d="M291.899 623.303C274.362 623.364 258.861 630.866 244.435 643.982C231.667 655.59 229.051 674.308 234.972 695.739C240.139 714.439 251.65 734.208 265.93 749.22C274.36 758.083 284.968 763.856 297.16 766.996C310.934 770.545 325.409 770.525 339.001 768.357C341.025 768.034 342.86 767.68 344.473 767.329C345.474 767.111 346.192 766.928 346.619 766.815C350.492 765.788 352.817 761.83 351.789 757.957C350.761 754.084 346.774 751.76 342.901 752.787C342.68 752.845 342.17 752.98 341.389 753.15C340.033 753.444 338.453 753.747 336.703 754.027C324.91 755.907 312.348 755.946 300.788 752.968C291.092 750.471 282.885 745.978 276.451 739.213C263.778 725.89 253.484 708.209 248.969 691.869C244.357 675.176 246.192 661.994 254.2 654.714C266.194 643.81 278.475 637.861 291.93 637.815C308.964 637.755 327.855 647.244 348.977 668.681C351.789 671.536 356.402 671.554 359.256 668.742C362.111 665.93 362.129 661.347 359.317 658.493C335.661 634.485 313.258 623.23 291.899 623.303Z" fill="black"/>
<path d="M344.761 759.806C344.761 759.806 297.852 772.251 271.183 744.216C244.515 716.18 227.25 669.429 249.325 649.36C271.401 629.292 305.872 614.582 354.159 663.589" fill="#F3886D"/>
<path d="M344.761 759.806C344.761 759.806 297.852 772.251 271.183 744.216C244.515 716.18 227.25 669.429 249.325 649.36C271.401 629.292 305.872 614.582 354.159 663.589" stroke="black" stroke-width="0.0122978" stroke-miterlimit="10" stroke-linecap="round" stroke-linejoin="round"/>
<path d="M241.643 661.117C233.2 684.184 248.844 720.746 271.179 744.225C297.847 772.261 344.765 759.795 344.765 759.795L345.883 748.488C345.782 748.261 345.714 748.081 345.611 747.853C311.366 671.854 255.398 662.318 241.643 661.117Z" fill="#F9B192"/>
<path d="M278.083 664.117C275.256 664.045 272.521 665.642 271.281 668.379C269.628 672.03 271.259 676.309 274.909 677.963C284.424 682.274 292.993 687.923 300.637 694.56C307.168 700.232 312.666 706.305 317.143 712.367C318.697 714.471 320.003 716.416 321.074 718.141C321.438 718.729 321.731 719.22 321.98 719.653C322.115 719.889 322.201 720.035 322.222 720.076C324.104 723.614 328.509 724.951 332.047 723.069C335.585 721.187 336.922 716.812 335.04 713.274C334.737 712.704 334.198 711.765 333.408 710.493C332.136 708.444 330.605 706.177 328.813 703.751C323.732 696.871 317.509 689.994 310.129 683.587C301.464 676.062 291.741 669.665 280.894 664.752C279.982 664.338 279.025 664.14 278.083 664.117Z" fill="black"/>
<path d="M310.159 690.297C309.26 690.427 307.842 690.718 306.047 691.144C303.069 691.851 300.098 692.779 297.251 693.986C293.05 695.764 289.484 697.997 286.76 700.879C284.006 703.79 284.12 708.375 287.032 711.127C289.944 713.88 294.527 713.736 297.281 710.825C298.436 709.603 300.396 708.411 302.903 707.348C304.929 706.49 307.16 705.795 309.403 705.262C310.193 705.075 310.906 704.897 311.55 704.779C311.911 704.712 312.162 704.699 312.246 704.688C316.211 704.116 318.954 700.43 318.382 696.465C317.81 692.498 314.125 689.726 310.159 690.297Z" fill="black"/>
<path d="M291.899 623.303C274.362 623.364 258.861 630.866 244.435 643.982C231.667 655.59 229.051 674.308 234.972 695.739C240.139 714.439 251.65 734.208 265.93 749.22C274.36 758.083 284.968 763.856 297.16 766.996C310.934 770.545 325.409 770.525 339.001 768.357C341.025 768.034 342.86 767.68 344.473 767.329C345.474 767.111 346.192 766.928 346.619 766.815C350.492 765.788 352.817 761.83 351.789 757.957C350.761 754.084 346.774 751.76 342.901 752.787C342.68 752.845 342.17 752.98 341.389 753.15C340.033 753.444 338.453 753.747 336.703 754.027C324.91 755.907 312.348 755.946 300.788 752.968C291.092 750.471 282.885 745.978 276.451 739.213C263.778 725.89 253.484 708.209 248.969 691.869C244.357 675.176 246.192 661.994 254.2 654.714C266.194 643.81 278.475 637.861 291.93 637.815C308.964 637.755 327.855 647.244 348.977 668.681C351.789 671.536 356.402 671.554 359.256 668.742C362.111 665.93 362.129 661.347 359.317 658.493C335.661 634.485 313.258 623.23 291.899 623.303Z" fill="black"/>
<path d="M354.812 621.973C350.823 622.348 347.906 625.875 348.282 629.863C349.33 640.989 347.753 666.992 344.201 702.723C343.457 710.203 342.633 717.976 341.752 726.001C340.248 739.701 338.617 753.426 337.005 766.512C336.441 771.092 334.865 783.485 334.859 783.533C334.338 787.507 337.143 791.145 341.117 791.666C345.09 792.187 348.728 789.381 349.25 785.408C349.257 785.354 350.86 772.898 351.426 768.296C353.045 755.151 354.662 741.372 356.173 727.604C357.059 719.53 357.872 711.676 358.621 704.144C362.281 667.336 363.905 640.948 362.733 628.503C362.357 624.513 358.801 621.598 354.812 621.973Z" fill="black"/>
<path opacity="0.201073" d="M360.683 296.755C360.683 296.755 337.165 442.565 407.718 550.746C418.579 567.398 447.552 623.164 447.552 623.164C428.23 823.312 561.016 870.681 561.016 870.681C509.201 887.846 462.932 838.362 461.989 847.813C459.169 876.042 454.392 899.72 448.531 915.703L278.126 849.164L295.437 785.329V760.986L263.519 740.97L236.667 660.662C236.667 660.662 287.322 657.661 319.239 702.561L351.697 685.25L351.157 664.152L330.059 644.136L309.502 626.825L308.961 589.499L300.847 505.648L263.519 501.862C263.519 501.862 244.586 454.256 245.127 443.437C245.667 432.617 253.782 373.111 253.782 373.111L313.289 375.815L332.223 336.866L360.683 296.755Z" fill="black"/>
<path opacity="0.201073" d="M776.972 689.346L824.824 661.581L822.643 702.852C822.643 702.852 802.721 734.26 799.173 738.566C795.625 742.873 781.808 754.069 781.808 754.069C781.808 754.069 776.312 740.588 776.903 735.595C777.493 730.6 780.694 717.81 780.694 717.81L777.1 702.529L776.972 689.346Z" fill="black"/>
<path opacity="0.201073" d="M459.875 394.918C461.691 383.902 425.694 449.593 540.457 524.836C636.214 587.618 662.465 580.602 749.734 565.537L741.774 528.826L694.183 524.095L665.782 513.559L652.835 493.689L625.628 485.427L565.471 469.018L544.787 487.885L498.979 476.765L468.661 447.272C468.661 447.272 458.06 405.933 459.875 394.918Z" fill="black"/>
</g>
</svg>
