<svg width="800" height="800" viewBox="0 0 800 800" fill="none" xmlns="http://www.w3.org/2000/svg">
<path d="M183.961 514.15C183.961 514.15 171.086 479.67 144.898 491.236C118.711 502.802 113.692 568.924 180.251 617.371" fill="#F3886D"/>
<path d="M183.961 514.15C183.961 514.15 171.086 479.67 144.898 491.236C118.711 502.802 113.692 568.924 180.251 617.371" stroke="black" stroke-width="0.01875" stroke-miterlimit="10" stroke-linecap="round" stroke-linejoin="round"/>
<path d="M135.712 498.664C167.468 523.641 174.036 563.082 174.036 563.082C174.036 563.082 175.063 592.994 174.908 613.132C122.532 571.734 119.247 519.472 135.712 498.664Z" fill="#F9B192"/>
<path d="M135.712 498.664C167.468 523.641 174.036 563.082 174.036 563.082C174.036 563.082 175.063 592.994 174.908 613.132C122.532 571.734 119.247 519.472 135.712 498.664Z" fill="#F9B192"/>
<path d="M154.907 482.109C159.035 482.042 163.034 482.887 166.829 484.555C172.811 487.184 177.892 491.685 182.238 497.461C184.584 500.58 186.575 503.883 188.227 507.19C188.807 508.351 189.297 509.412 189.717 510.395C189.981 511.013 190.17 511.508 190.28 511.801C191.583 515.293 189.806 519.158 186.315 520.462C182.823 521.765 178.93 519.989 177.626 516.497C177.588 516.395 177.496 516.129 177.317 515.71C176.999 514.965 176.593 514.121 176.136 513.207C174.827 510.587 173.255 507.971 171.441 505.559C164.657 496.541 157.106 493.217 147.625 497.405C137.333 501.951 131.217 518.82 134.466 539.413C138.462 564.742 155.204 590.77 184.234 611.901C187.247 614.094 187.89 618.335 185.696 621.348C183.503 624.362 179.29 625.032 176.277 622.839C144.436 599.662 125.709 570.497 121.138 541.522C117.033 515.504 125.374 492.48 142.17 485.061C146.511 483.144 150.779 482.175 154.907 482.109Z" fill="black"/>
<path d="M600.498 373.47L648.838 375.149C648.838 375.149 687.93 274.505 645.03 170.05C602.131 65.5947 437.644 13.9932 371.282 52.3184C371.282 52.3184 361.747 74.5618 381.325 111.95" fill="#ABACE3"/>
<path d="M617.817 346.933C617.817 346.933 659.237 336.982 654.016 307.472C648.796 277.962 618.389 288.145 612.674 288.592C612.674 288.592 656.332 274.359 645.902 243.559C635.472 212.76 602.69 222.125 594.585 227.473C594.585 227.473 638.62 207.206 621.416 177.894C604.212 148.582 571.233 170.612 563.539 175.175C563.539 175.175 599.662 145.07 574.588 120.426C549.514 95.7832 518.694 125.098 518.694 125.098L492.8 92.2814C492.8 92.2814 489.936 61.281 464.321 57.263C438.707 53.245 423.601 79.179 417.048 102.313L416.528 61.2421L427.794 41.8159L401.744 41.2344L375.81 48.3546L368.684 58.9684C368.684 58.9684 368.784 80.1605 369.842 82.3584C370.9 84.5564 372.775 97.9703 374.059 104.64C375.343 111.31 384.306 137.504 384.306 137.504L473.419 245.593C473.419 245.593 529.783 332.271 534.993 343.639C540.203 355.006 574.306 388.162 582.358 387.214C590.41 386.267 617.817 346.933 617.817 346.933Z" fill="#C3C4E1"/>
<path d="M616.326 327.719C616.326 327.719 640.612 320.781 639.878 309.158C639.143 297.535 619.13 305.437 615.073 304.325" fill="#FFD000"/>
<path d="M609.891 270.502C609.891 270.502 641.144 260.018 628.509 243.616C615.874 227.214 598.842 249.571 598.842 249.571" fill="#FFD000"/>
<path d="M582.752 212.502C582.752 212.502 610.493 202.461 606.698 188.323C602.903 174.184 576.446 186.752 570.851 193.751" fill="#FFD000"/>
<path d="M550.642 166.63C550.642 166.63 569.735 150.723 563.835 137.262C557.934 123.801 539.922 132.627 531.901 143.059" fill="#FFD000"/>
<path d="M467.992 113.286C467.992 113.286 476.129 85.0564 466.33 76.205C456.531 67.3536 442.393 80.0855 437.436 107.504" fill="#FFD000"/>
<path d="M434.313 33.545C436.924 33.8582 439.247 35.6954 440.021 38.3812C441.054 41.9623 438.963 45.6997 435.382 46.7322C435.05 46.828 434.246 47.1204 433.132 47.632C431.207 48.5163 429.287 49.6654 427.509 51.0905C423.058 54.6567 420.315 59.2634 419.861 65.3462C419.505 70.1124 419.481 76.0959 419.748 82.9761C419.975 88.8078 420.392 95.0461 420.957 101.422C421.264 104.885 421.613 108.158 421.941 111.15C422.056 112.195 422.343 114.755 422.363 114.918C422.825 118.616 420.213 121.992 416.515 122.454C412.816 122.915 409.441 120.275 408.979 116.577C408.972 116.522 408.648 113.722 408.529 112.641C408.19 109.558 407.833 106.165 407.517 102.602C406.933 96.02 406.516 89.5585 406.28 83.4822C405.994 76.1348 405.993 69.6846 406.392 64.334C407.145 54.2406 411.869 46.319 419.073 40.5463C421.774 38.3824 424.635 36.6644 427.509 35.3445C428.525 34.8778 429.477 34.5067 430.349 34.1917C430.913 33.9876 431.343 33.8281 431.642 33.7418C432.537 33.4836 433.443 33.4405 434.313 33.545Z" fill="black"/>
<path d="M420.226 33.5444C448.975 33.0908 481.903 39.3796 514.393 51.9334C575.84 75.6765 625.481 117.452 646.265 168.06C659.9 201.259 666.355 236.085 666.848 271.562C667.227 298.939 664.061 325.069 658.553 349.026C656.729 356.96 654.78 364.097 652.817 370.311C652.125 372.502 651.487 374.429 650.905 376.075C650.547 377.087 650.269 377.793 650.118 378.184C649.078 380.86 646.462 382.586 643.594 382.486L595.26 380.799C591.535 380.67 588.635 377.551 588.764 373.826C588.894 370.101 592.013 367.174 595.738 367.303L639.095 368.821C639.383 367.958 639.627 367.222 639.939 366.234C641.796 360.354 643.681 353.59 645.422 346.018C650.7 323.059 653.715 297.983 653.351 271.758C652.881 237.901 646.737 204.751 633.781 173.205C614.566 126.418 567.789 87.0418 509.528 64.5302C456.472 44.0293 402.698 41.3671 371.892 57.6132C371.828 57.8667 371.757 58.0352 371.695 58.3162C370.636 63.0604 370.315 69.0852 371.217 76.2835C372.472 86.3002 375.986 97.3572 382.295 109.406C384.024 112.708 382.757 116.787 379.455 118.516C376.154 120.245 372.074 118.978 370.345 115.676C363.296 102.214 359.291 89.5785 357.833 77.9424C356.733 69.1707 357.146 61.6213 358.536 55.3919C358.838 54.0374 359.18 52.8282 359.52 51.7928C359.746 51.1042 359.932 50.5952 360.082 50.2463C360.656 48.9073 361.632 47.7977 362.894 47.069C378.014 38.3367 397.866 33.8971 420.226 33.5444Z" fill="black"/>
<path d="M627.651 296.615C629.551 296.737 631.289 297.069 632.938 297.656C638.004 299.458 641.264 303.603 641.626 309.325C641.935 314.211 639.885 318.585 636.255 322.343C633.644 325.047 630.255 327.406 626.246 329.513C623.376 331.022 620.357 332.316 617.332 333.422C615.511 334.088 614.055 334.547 613.171 334.8C609.587 335.823 605.872 333.744 604.848 330.16C603.824 326.576 605.876 322.832 609.459 321.809C609.577 321.775 609.861 321.688 610.275 321.556C610.995 321.325 611.816 321.062 612.693 320.741C615.192 319.827 617.689 318.765 619.975 317.563C625.316 314.756 628.03 311.937 628.073 310.309C627.057 310.036 625.325 309.989 622.843 310.253C621.648 310.38 620.413 310.532 618.682 310.815C618.389 310.863 616.728 311.161 616.264 311.237C615.318 311.39 614.559 311.489 613.874 311.574C611.592 311.858 609.996 311.904 608.278 311.434C604.684 310.449 602.569 306.733 603.554 303.139C604.54 299.544 608.255 297.43 611.849 298.415C611.429 298.3 611.248 298.273 611.174 298.274C611.388 298.27 611.737 298.25 612.215 298.19C612.708 298.129 613.301 298.038 614.099 297.909C614.528 297.84 616.167 297.568 616.489 297.515C618.448 297.195 619.913 296.971 621.409 296.812C623.678 296.571 625.752 296.494 627.651 296.615Z" fill="black"/>
<path d="M611.231 231.466C613.082 231.329 614.955 231.458 616.854 231.888C621.42 232.924 625.483 235.686 628.86 240.071C633.873 246.577 634.556 253.687 631.194 260.09C628.793 264.665 624.627 268.43 619.216 271.731C616.547 273.359 613.734 274.776 610.921 275.977C609.224 276.702 607.878 277.215 607.041 277.495C603.508 278.681 599.679 276.755 598.493 273.221C597.308 269.688 599.206 265.887 602.739 264.702C602.836 264.669 603.074 264.558 603.442 264.421C604.089 264.178 604.817 263.887 605.607 263.549C607.863 262.586 610.124 261.461 612.187 260.203C615.701 258.058 618.193 255.823 619.244 253.82C620.129 252.134 620.005 250.683 618.176 248.309C616.635 246.308 615.222 245.353 613.874 245.047C611.424 244.492 607.868 246.028 604.004 249.321C602.713 250.422 601.506 251.615 600.433 252.808C600.062 253.221 599.75 253.6 599.477 253.933C599.329 254.113 599.248 254.211 599.224 254.242C596.966 257.207 592.713 257.794 589.749 255.535C586.784 253.277 586.225 249.025 588.483 246.06C588.873 245.547 589.51 244.768 590.395 243.782C591.844 242.17 593.48 240.547 595.26 239.03C600.346 234.694 605.676 231.879 611.231 231.466Z" fill="black"/>
<path d="M596.978 173.802C598.102 173.871 599.188 174.014 600.24 174.252C605.922 175.536 610.115 179.345 611.684 185.19C613.221 190.919 611.697 196.439 607.972 201.33C605.276 204.869 601.529 208.006 596.95 210.861C594.009 212.696 590.891 214.302 587.784 215.698C585.91 216.539 584.419 217.14 583.51 217.469C580.005 218.738 576.146 216.925 574.878 213.42C573.609 209.916 575.422 206.056 578.927 204.788C579.049 204.744 579.342 204.622 579.77 204.451C580.515 204.153 581.337 203.818 582.244 203.41C584.833 202.248 587.433 200.899 589.808 199.418C596.407 195.302 599.361 191.402 598.637 188.705C598.201 187.079 595.704 186.516 589.78 188.227C583.591 190.014 576.581 194.095 574.596 196.578C572.269 199.489 568.004 199.973 565.093 197.646C562.182 195.319 561.725 191.081 564.052 188.17C567.985 183.251 577.381 177.765 586.04 175.264C589.921 174.144 593.607 173.596 596.978 173.802Z" fill="black"/>
<path d="M549.007 124.254C555.953 124.35 561.837 127.907 565.006 135.136C566.147 137.74 566.717 140.498 566.721 143.318C566.732 150.411 563.442 157.293 558.089 163.985C556.334 166.179 554.446 168.185 552.578 170.002C551.44 171.108 550.537 171.914 549.963 172.392C547.099 174.778 542.845 174.412 540.459 171.548C538.073 168.685 538.467 164.43 541.331 162.045C541.385 161.999 541.517 161.861 541.752 161.651C542.173 161.276 542.669 160.832 543.186 160.329C544.675 158.882 546.166 157.272 547.545 155.549C551.157 151.034 553.23 146.686 553.224 143.318C553.223 142.321 553.042 141.428 552.662 140.563C551.441 137.777 549.485 137.104 545.548 138.257C540.908 139.615 535.546 143.472 532.249 147.761C529.977 150.715 525.756 151.269 522.801 148.998C519.846 146.726 519.292 142.477 521.564 139.522C526.546 133.041 534.291 127.515 541.781 125.323C544.266 124.595 546.691 124.222 549.007 124.254Z" fill="black"/>
<path d="M453.644 66.3561C458.099 65.8935 462.554 67.3188 466.437 70.8268C471.875 75.7383 473.749 83.4853 473.467 93.2649C473.335 97.8229 472.719 102.606 471.78 107.408C471.41 109.299 470.997 111.068 470.599 112.666C470.355 113.645 470.186 114.355 470.064 114.775C469.032 118.356 465.267 120.419 461.685 119.387C458.104 118.354 456.042 114.617 457.074 111.036C457.088 110.986 457.405 109.883 457.524 109.405C457.869 108.019 458.212 106.477 458.536 104.822C459.344 100.69 459.863 96.6028 459.97 92.8712C460.148 86.6853 459.112 82.3979 457.383 80.8368C455.504 79.1389 453.59 79.4124 450.466 82.6082C445.844 87.3376 441.786 96.4725 439.641 108.336C438.978 112.004 435.492 114.426 431.824 113.763C428.157 113.1 425.706 109.614 426.369 105.946C428.956 91.6374 434.088 80.0512 440.822 73.1606C444.728 69.1635 449.188 66.8187 453.644 66.3561Z" fill="black"/>
<path d="M332.49 127.946C332.49 127.946 330.106 49.2717 320.02 40.4689C320.02 40.4689 301.497 33.5501 288.11 94.2523C288.11 94.2523 285.175 121.761 301.681 147.802" fill="#AF93E5"/>
<path d="M312.789 34.0521C313.856 34.0238 314.901 34.1104 315.882 34.3051C316.474 34.4226 316.96 34.5732 317.372 34.7269C318.133 35.0111 318.841 35.4299 319.453 35.9641C325.658 41.3798 328.839 57.1389 331.403 83.7363C332.344 93.5009 333.078 103.949 333.624 114.385C333.815 118.035 333.981 121.435 334.102 124.479C334.145 125.547 334.241 128.281 334.243 128.331C334.356 132.057 331.417 135.163 327.691 135.276C323.966 135.389 320.859 132.45 320.746 128.725C320.741 128.562 320.647 126.058 320.606 125.013C320.487 122.023 320.344 118.679 320.156 115.088C319.619 104.834 318.911 94.5754 317.991 85.0297C316.961 74.3534 315.721 65.2577 314.307 58.2615C313.542 54.4733 312.739 51.3778 311.917 49.0951C311.783 48.7228 311.654 48.5417 311.524 48.2235C311.093 48.4243 310.753 48.474 310.23 48.8421C306.569 51.4216 302.535 57.0787 298.533 66.6969C295.367 74.3084 292.433 84.0304 289.789 95.9394C289.774 96.1206 289.78 96.2455 289.76 96.5861C289.506 101.022 289.71 106.772 290.745 113.316C292.262 122.918 295.307 132.332 300.22 141.125C300.909 142.357 301.627 143.584 302.385 144.78C304.38 147.928 303.453 152.092 300.305 154.087C297.157 156.082 292.965 155.154 290.969 152.006C290.077 150.599 289.248 149.152 288.439 147.704C282.698 137.431 279.169 126.49 277.417 115.397C276.222 107.835 275.958 101.145 276.264 95.7988C276.308 95.0259 276.368 94.456 276.404 94.1118C276.431 93.8639 276.463 93.6242 276.517 93.3807C279.346 80.5517 282.547 70.008 286.077 61.5232C290.981 49.7349 296.478 42.0418 302.47 37.8199C306.059 35.2912 309.587 34.1368 312.789 34.0521Z" fill="black"/>
<path d="M638.576 701.127C638.576 701.127 424.442 845.311 182.902 694.785C182.902 694.785 152.785 513.456 221.084 398.497C221.084 398.497 184.403 396.974 177.811 392.454C171.22 387.934 169.342 369.087 147.625 356.613C147.625 356.613 144.975 339.161 148.811 321.237C148.811 321.237 138.073 305.035 139.06 298.536C139.06 298.536 229.79 156.873 358.788 107.4C358.788 107.4 451.915 83.8712 532.512 149.847C613.109 215.824 617.691 301.763 617.691 362.285C617.69 422.806 586.944 525.077 638.576 701.127Z" fill="#AF93E5"/>
<path d="M467.86 267.203L469.828 268.356L476.774 272.404C476.774 272.404 494.957 345.563 443.454 374.472C391.951 403.382 367.367 383.779 367.367 383.779L322.997 395.589C322.997 395.589 309.917 461.327 201.247 450.25C199.626 450.085 198.381 449.792 196.832 449.603L200.432 433.07L206.589 414.934L217.443 398.682C217.443 398.682 258.765 395.24 266.255 391.54C273.746 387.84 291.62 373.021 293.389 366.937L371.753 344.611C371.753 344.611 387.445 376.7 426.415 359.767C476.454 338.022 471.459 271.983 471.459 271.983L467.86 267.203Z" fill="#B876D1"/>
<path d="M556.291 172.305C613.909 234.444 617.7 308.433 617.7 362.297C617.7 422.819 586.932 525.067 638.564 701.117C638.564 701.117 623.576 711.064 597.54 722.965C594.808 711.235 550.753 517.877 583.706 373.348C601.666 294.573 562.225 210.57 556.263 178.969C555.849 176.778 555.929 174.56 556.291 172.305Z" fill="#B876D1"/>
<path d="M247.936 260.021C291.888 264.675 290.858 290.232 290.858 290.232L303.258 360.555L291.722 370.621C291.722 370.621 279.202 385.969 261.54 392.935C243.877 399.902 241.287 397.101 221.07 398.486C221.07 398.486 184.416 396.989 177.825 392.469C171.233 387.948 169.343 369.092 147.626 356.618C147.626 356.618 144.971 339.171 148.807 321.246C148.807 321.246 138.063 305.026 139.05 298.527C139.05 298.527 159.505 271.663 172.764 254.37C190.263 252.055 242.442 259.439 247.936 260.021Z" fill="#ABACE3"/>
<path d="M150.297 282.5C178.047 293.872 200.01 288.264 200.01 288.264C200.01 288.264 220.898 279.568 230.04 285.227C239.181 290.887 243.536 312.22 243.536 312.22C247.019 329.198 208.276 345.737 208.276 345.737C234.831 378.822 232.205 394.043 232.205 394.043C232.205 394.043 218.829 402.257 221.07 398.486C221.07 398.486 184.416 396.989 177.825 392.469C171.233 387.948 169.343 369.092 147.626 356.618C147.626 356.618 144.971 339.171 148.807 321.246C148.807 321.246 138.063 305.026 139.05 298.527C139.05 298.527 143.549 291.846 150.297 282.5Z" fill="#C3C4E1"/>
<path d="M449.4 189.227C449.4 189.227 426.572 193.542 412.928 189.897" stroke="black" stroke-width="0.01875" stroke-miterlimit="10" stroke-linecap="round" stroke-linejoin="round"/>
<path d="M448.147 182.6C451.809 181.907 455.328 184.308 456.02 187.97C456.712 191.632 454.312 195.179 450.65 195.871C450.24 195.949 449.529 196.049 448.541 196.209C446.919 196.471 445.113 196.752 443.17 196.996C437.405 197.719 431.627 198.122 426.159 198.093C420.491 198.062 415.469 197.546 411.2 196.406C407.6 195.444 405.459 191.768 406.42 188.167C407.382 184.566 411.058 182.425 414.659 183.387C417.657 184.188 421.603 184.599 426.215 184.624C431.027 184.65 436.255 184.24 441.483 183.584C443.261 183.361 444.906 183.147 446.376 182.909C446.885 182.827 448.086 182.611 448.147 182.6Z" fill="black"/>
<path d="M198.824 357.678L143.949 353.711" stroke="black" stroke-width="0.01875" stroke-miterlimit="10" stroke-linecap="round" stroke-linejoin="round"/>
<path d="M144.445 346.977L199.303 350.941C203.021 351.21 205.814 354.45 205.545 358.167C205.277 361.885 202.065 364.678 198.347 364.41L143.461 360.445C139.744 360.176 136.95 356.936 137.219 353.219C137.488 349.501 140.728 346.708 144.445 346.977Z" fill="black"/>
<path d="M196.977 328.291C196.977 328.291 218.853 274.608 224.928 307.863" stroke="black" stroke-width="0.01875" stroke-miterlimit="10" stroke-linecap="round" stroke-linejoin="round"/>
<path d="M217.159 290.263C218.433 290.127 219.747 290.229 221.124 290.6C226.931 292.166 229.921 297.706 231.555 306.656C232.225 310.322 229.795 313.831 226.129 314.5C222.462 315.17 218.954 312.74 218.284 309.074C217.975 307.381 217.599 306.593 217.244 305.531C217.096 305.694 217.033 305.714 216.878 305.896C214.919 308.199 212.673 311.64 210.355 315.878C208.571 319.139 206.838 322.672 205.237 326.197C204.676 327.434 204.185 328.575 203.747 329.6C203.595 329.955 203.231 330.792 203.213 330.837C201.806 334.288 197.891 335.955 194.44 334.548C190.989 333.142 189.322 329.199 190.728 325.748C190.842 325.469 191.057 324.963 191.347 324.285C191.823 323.171 192.345 321.933 192.95 320.602C194.679 316.793 196.556 312.996 198.517 309.411C201.238 304.437 203.926 300.279 206.587 297.152C209.924 293.228 213.338 290.671 217.159 290.263Z" fill="black"/>
<path d="M212.448 399.271C212.448 399.271 253.775 395.825 261.266 392.125C268.756 388.425 286.623 373.612 288.393 367.528L366.752 345.202C366.752 345.202 382.439 377.283 421.409 360.349C471.449 338.605 466.447 272.582 466.447 272.582" stroke="black" stroke-width="0.01875" stroke-miterlimit="10" stroke-linecap="round" stroke-linejoin="round"/>
<path d="M465.945 265.856C469.661 265.574 472.89 268.353 473.171 272.07C473.194 272.376 473.226 272.897 473.255 273.616C473.459 278.612 473.31 284.887 472.524 291.977C471.37 302.394 469.018 312.687 465.214 322.372C457.322 342.461 443.956 357.92 424.105 366.546C401.562 376.342 383.242 372.539 369.979 360.163C367.551 357.897 365.539 355.506 363.793 353.077L293.076 373.209C290.785 376.91 286.752 381.124 281.407 385.806C275.318 391.14 268.587 396.039 264.256 398.178C260.264 400.15 251.597 401.724 238.275 403.38C232.742 404.068 226.81 404.69 220.898 405.264C218.83 405.464 213.1 405.986 212.997 405.995C209.283 406.305 206.024 403.551 205.714 399.837C205.405 396.123 208.186 392.864 211.9 392.555C211.992 392.547 217.573 392.049 219.604 391.852C225.405 391.289 231.217 390.639 236.616 389.968C247.939 388.56 256.273 387.072 258.266 386.087C261.346 384.566 267.239 380.283 272.522 375.656C277.746 371.08 281.597 366.735 281.914 365.646C282.562 363.416 284.32 361.671 286.553 361.034L364.889 338.709C368.032 337.813 371.383 339.288 372.818 342.224C372.833 342.252 372.91 342.42 373.072 342.702C373.378 343.236 373.765 343.858 374.224 344.529C375.565 346.492 377.232 348.484 379.201 350.322C383.238 354.088 388.022 356.756 393.626 357.913C400.786 359.392 409.055 358.339 418.707 354.146C435 347.066 446.011 334.384 452.673 317.424C456.007 308.937 458.08 299.794 459.112 290.487C459.818 284.121 459.964 278.533 459.787 274.178C459.764 273.619 459.742 273.234 459.731 273.082C459.449 269.366 462.228 266.137 465.945 265.856Z" fill="black"/>
<path d="M633.578 701.713C633.578 701.713 419.444 845.897 177.905 695.371C177.905 695.371 147.787 514.042 216.086 399.083C216.086 399.083 179.405 397.56 172.814 393.04C166.222 388.52 164.344 369.673 142.628 357.199C142.628 357.199 139.977 339.747 143.814 321.823C143.814 321.823 133.075 305.621 134.063 299.122C134.063 299.122 224.792 157.459 353.79 107.986C353.79 107.986 446.918 84.4572 527.515 150.433C608.112 216.41 612.693 302.349 612.693 362.871C612.693 423.392 581.947 525.663 633.578 701.713Z" stroke="black" stroke-width="0.01875" stroke-miterlimit="10" stroke-linecap="round" stroke-linejoin="round"/>
<mask id="mask0_415_8979" style="mask-type:luminance" maskUnits="userSpaceOnUse" x="111" y="21" width="578" height="758">
<path d="M111.942 21.043H688.041V778.979H111.942V21.043Z" fill="white"/>
<path d="M494.551 36.1267C495.501 36.2586 496.553 36.5543 497.701 37.0546C501.144 38.5554 511.578 47.0045 520.785 60.8704C521.113 61.3644 521.417 61.9373 521.741 62.445C572.805 84.34 619.872 121.553 640.033 170.643C682.933 275.098 643.829 375.734 643.829 375.734L612.365 374.637C612.364 374.667 612.367 374.693 612.365 374.722C611.301 395.304 607.939 420.172 605.701 450.274C604.538 465.945 603.763 483.189 603.705 501.843C629.568 491.762 649.434 502.25 663.708 515.227C666.275 517.56 668.276 520.27 669.754 523.296C670.197 524.204 670.499 525.204 670.85 526.164C671.085 526.805 671.387 527.414 671.581 528.076C671.794 528.8 671.893 529.578 672.059 530.326C673.417 536.423 673.346 543.238 671.975 550.43C671.735 551.69 671.388 552.978 671.075 554.254C671.073 554.263 671.077 554.273 671.075 554.282C671.073 554.291 671.077 554.302 671.075 554.31C670.388 557.108 669.583 559.935 668.573 562.774C668.365 563.358 668.091 563.932 667.87 564.517C667.859 564.545 667.852 564.574 667.842 564.602C667.806 564.696 667.765 564.788 667.729 564.883C667.205 566.254 666.717 567.619 666.127 568.988C665.689 570.002 665.081 570.987 664.608 571.997C663.605 574.147 662.554 576.265 661.403 578.379C660.875 579.346 660.468 580.348 659.912 581.304C659.556 581.916 659.099 582.468 658.732 583.075C658.714 583.104 658.693 583.13 658.675 583.159C657.217 585.57 655.657 587.884 654.036 590.189C653.943 590.321 653.848 590.451 653.755 590.582C653.21 591.35 652.769 592.192 652.208 592.944C652.039 593.172 651.845 593.365 651.674 593.591C649.052 597.061 646.29 600.4 643.379 603.46C640.279 606.72 636.88 609.38 633.313 611.558C631.53 612.648 629.712 613.627 627.858 614.483C624.149 616.193 620.336 617.445 616.527 618.363C615.711 618.56 614.894 618.675 614.08 618.841C618.646 644.521 624.845 671.969 633.566 701.704C633.566 701.704 620.187 710.727 596.338 721.893C595.195 722.428 593.733 723.007 592.542 723.552C519.196 757.075 356.177 806.468 177.917 695.378C177.917 695.378 172.026 659.819 171.365 610.293C138.325 582.705 126.319 550.89 126.967 526.783C126.975 526.466 126.983 526.142 126.995 525.827C127.071 523.964 127.221 522.161 127.445 520.4C127.52 519.803 127.607 519.213 127.698 518.629C127.958 516.983 128.269 515.387 128.654 513.849C128.774 513.366 128.916 512.914 129.048 512.443C129.493 510.859 129.936 509.309 130.51 507.86C130.632 507.551 130.804 507.291 130.932 506.988C134.103 499.492 138.913 493.889 144.906 491.242C162.154 483.624 173.499 495.893 179.322 505.217C179.991 501.435 180.546 497.666 181.319 493.885C184.32 479.206 188.189 464.594 192.988 450.359C192.613 450.299 192.239 450.24 191.835 450.19L195.434 433.657L201.592 415.521L212.445 399.269L213.204 398.875C211.03 398.776 205.416 398.549 196.924 397.75C186.93 396.805 176.123 395.315 172.827 393.055C169.538 390.799 167.402 384.944 163.408 378.124C163.402 378.114 163.386 378.107 163.38 378.096C161.376 374.678 158.924 371.031 155.591 367.439C152.257 363.847 148.058 360.323 142.629 357.204C142.629 357.204 139.973 339.757 143.81 321.832C143.81 321.832 135.588 309.411 134.193 301.953C133.994 300.888 133.929 299.925 134.053 299.113C134.053 299.113 138.491 292.537 145.103 283.367C145.111 283.356 145.123 283.35 145.131 283.339C145.193 283.253 145.237 283.173 145.3 283.086C147.045 280.669 148.087 279.113 150.249 276.225C174.706 243.557 225.492 182.907 292.075 139.938C280.873 116.733 283.105 94.8367 283.105 94.8367C296.493 34.1344 315.019 41.0473 315.019 41.0473C323.331 48.3016 326.311 100.756 327.138 119.777C335.828 115.459 344.706 111.481 353.794 107.996C353.794 107.996 355.251 107.611 357.955 107.096C360.547 106.603 364.411 106.006 369.118 105.437C369.109 105.394 369.07 105.282 369.062 105.241C367.777 98.5701 365.902 85.1408 364.844 82.9429C363.786 80.745 363.691 59.5488 363.691 59.5488L364.985 57.6087C365.023 57.4229 365.058 57.1368 365.097 56.962C365.685 54.2925 366.278 52.913 366.278 52.913C367.185 52.3894 368.175 51.941 369.118 51.4509L370.805 48.9484L396.758 41.8346L400.272 41.9189C410.314 40.4341 421.184 40.0261 432.58 40.5974C432.801 40.5243 433.536 40.2319 433.536 40.2319L433.423 40.6818C450.21 41.5929 468.065 44.7193 486.116 49.7919L485.919 42.2282C485.919 42.2282 487.905 35.2029 494.551 36.1267Z" fill="black"/>
</mask>
<g mask="url(#mask0_415_8979)">
<path d="M494.551 36.1267C495.501 36.2586 496.553 36.5543 497.701 37.0546C501.144 38.5554 511.578 47.0045 520.785 60.8704C521.113 61.3644 521.417 61.9373 521.741 62.445C572.805 84.34 619.872 121.553 640.033 170.643C682.933 275.098 643.829 375.734 643.829 375.734L612.365 374.637C612.364 374.667 612.367 374.693 612.365 374.722C611.301 395.304 607.939 420.172 605.701 450.274C604.538 465.945 603.763 483.189 603.705 501.843C629.568 491.762 649.434 502.25 663.708 515.227C666.275 517.56 668.276 520.27 669.754 523.296C670.197 524.204 670.499 525.204 670.85 526.164C671.085 526.805 671.387 527.414 671.581 528.076C671.794 528.8 671.893 529.578 672.059 530.326C673.417 536.423 673.346 543.238 671.975 550.43C671.735 551.69 671.388 552.978 671.075 554.254C671.073 554.263 671.077 554.273 671.075 554.282C671.073 554.291 671.077 554.302 671.075 554.31C670.388 557.108 669.583 559.935 668.573 562.774C668.365 563.358 668.091 563.932 667.87 564.517C667.859 564.545 667.852 564.574 667.842 564.602C667.806 564.696 667.765 564.788 667.729 564.883C667.205 566.254 666.717 567.619 666.127 568.988C665.689 570.002 665.081 570.987 664.608 571.997C663.605 574.147 662.554 576.265 661.403 578.379C660.875 579.346 660.468 580.348 659.912 581.304C659.556 581.916 659.099 582.468 658.732 583.075C658.714 583.104 658.693 583.13 658.675 583.159C657.217 585.57 655.657 587.884 654.036 590.189C653.943 590.321 653.848 590.451 653.755 590.582C653.21 591.35 652.769 592.192 652.208 592.944C652.039 593.172 651.845 593.365 651.674 593.591C649.052 597.061 646.29 600.4 643.379 603.46C640.279 606.72 636.88 609.38 633.313 611.558C631.53 612.648 629.712 613.627 627.858 614.483C624.149 616.193 620.336 617.445 616.527 618.363C615.711 618.56 614.894 618.675 614.08 618.841C618.646 644.521 624.845 671.969 633.566 701.704C633.566 701.704 620.187 710.727 596.338 721.893C595.195 722.428 593.733 723.007 592.542 723.552C519.196 757.075 356.177 806.468 177.917 695.378C177.917 695.378 172.026 659.819 171.365 610.293C138.325 582.705 126.319 550.89 126.967 526.783C126.975 526.466 126.983 526.142 126.995 525.827C127.071 523.964 127.221 522.161 127.445 520.4C127.52 519.803 127.607 519.213 127.698 518.629C127.958 516.983 128.269 515.387 128.654 513.849C128.774 513.366 128.916 512.914 129.048 512.443C129.493 510.859 129.936 509.309 130.51 507.86C130.632 507.551 130.804 507.291 130.932 506.988C134.103 499.492 138.913 493.889 144.906 491.242C162.154 483.624 173.499 495.893 179.322 505.217C179.991 501.435 180.546 497.666 181.319 493.885C184.32 479.206 188.189 464.594 192.988 450.359C192.613 450.299 192.239 450.24 191.835 450.19L195.434 433.657L201.592 415.521L212.445 399.269L213.204 398.875C211.03 398.776 205.416 398.549 196.924 397.75C186.93 396.805 176.123 395.315 172.827 393.055C169.538 390.799 167.402 384.944 163.408 378.124C163.402 378.114 163.386 378.107 163.38 378.096C161.376 374.678 158.924 371.031 155.591 367.439C152.257 363.847 148.058 360.323 142.629 357.204C142.629 357.204 139.973 339.757 143.81 321.832C143.81 321.832 135.588 309.411 134.193 301.953C133.994 300.888 133.929 299.925 134.053 299.113C134.053 299.113 138.491 292.537 145.103 283.367C145.111 283.356 145.123 283.35 145.131 283.339C145.193 283.253 145.237 283.173 145.3 283.086C147.045 280.669 148.087 279.113 150.249 276.225C174.706 243.557 225.492 182.907 292.075 139.938C280.873 116.733 283.105 94.8367 283.105 94.8367C296.493 34.1344 315.019 41.0473 315.019 41.0473C323.331 48.3016 326.311 100.756 327.138 119.777C335.828 115.459 344.706 111.481 353.794 107.996C353.794 107.996 355.251 107.611 357.955 107.096C360.547 106.603 364.411 106.006 369.118 105.437C369.109 105.394 369.07 105.282 369.062 105.241C367.777 98.5701 365.902 85.1408 364.844 82.9429C363.786 80.745 363.691 59.5488 363.691 59.5488L364.985 57.6087C365.023 57.4229 365.058 57.1368 365.097 56.962C365.685 54.2925 366.278 52.913 366.278 52.913C367.185 52.3894 368.175 51.941 369.118 51.4509L370.805 48.9484L396.758 41.8346L400.272 41.9189C410.314 40.4341 421.184 40.0261 432.58 40.5974C432.801 40.5243 433.536 40.2319 433.536 40.2319L433.423 40.6818C450.21 41.5929 468.065 44.7193 486.116 49.7919L485.919 42.2282C485.919 42.2282 487.905 35.2029 494.551 36.1267Z" stroke="black" stroke-width="0.0375" stroke-miterlimit="10" stroke-linecap="round" stroke-linejoin="round"/>
</g>
<path d="M390.732 97.1773C400.172 97.0213 410.085 97.4511 420.368 98.6113C448.475 101.783 475.973 110.099 501.797 124.677C512.194 130.546 522.222 137.363 531.799 145.203C569.846 176.348 593.812 213.61 606.789 256.746C616.501 289.032 619.442 319.659 619.442 362.863C619.442 370.66 618.974 379.359 618.008 390.531C617.626 394.95 617.184 399.597 616.546 406.024C616.612 405.363 615.243 418.846 614.859 422.782C610.591 466.488 609.211 498.34 611.232 536.856C613.915 587.999 622.935 641.461 640.052 699.827C640.88 702.648 639.792 705.664 637.353 707.307C636.55 707.846 635.057 708.816 632.882 710.146C629.306 712.331 625.08 714.764 620.286 717.372C606.639 724.795 590.922 732.194 573.329 739.108C521.755 759.374 464.999 771.312 404.79 770.684C327.151 769.875 249.695 748.055 174.337 701.093C172.691 700.067 171.561 698.393 171.244 696.481C171.187 696.139 171.103 695.498 170.963 694.569C170.731 693.041 170.451 691.237 170.175 689.199C169.39 683.396 168.601 676.747 167.87 669.346C165.625 646.641 164.354 621.979 164.552 596.269C164.809 562.914 167.545 530.447 173.268 499.797C179.879 464.393 190.313 432.562 204.985 405.124C201.003 404.84 196.979 404.562 193.232 404.168C180.877 402.87 172.988 401.34 168.994 398.601C166.885 397.154 165.269 395.207 163.624 392.527C162.551 390.781 158.848 383.757 158.816 383.698C156.778 379.991 154.853 377.011 152.545 374.195C148.986 369.851 144.701 366.177 139.274 363.06C137.491 362.036 136.265 360.257 135.956 358.224C135.824 357.355 135.63 355.847 135.45 353.809C134.595 344.138 134.866 333.596 136.743 323.273C136.653 323.127 136.614 323.092 136.518 322.936C135.303 320.959 134.089 318.877 132.947 316.75C132.069 315.113 131.292 313.512 130.585 311.97C128.057 306.455 126.783 302.034 127.38 298.108C127.522 297.173 127.882 296.289 128.392 295.493C128.469 295.373 129.537 293.732 129.995 293.047C131.294 291.103 132.837 288.854 134.606 286.326C139.645 279.127 145.545 271.105 152.264 262.482C171.448 237.861 193.342 213.243 217.638 190.248C259.791 150.352 304.602 119.612 351.367 101.677C351.616 101.581 351.867 101.517 352.126 101.452C352.735 101.298 353.826 101.057 355.359 100.749C357.855 100.246 360.75 99.7223 363.991 99.258C372.342 98.0619 381.291 97.3333 390.732 97.1773ZM390.985 110.674C382.114 110.82 373.717 111.523 365.903 112.643C362.918 113.07 360.281 113.511 358.03 113.964C357.256 114.12 356.591 114.259 356.034 114.386C355.988 114.396 355.991 114.405 355.95 114.414C311.122 131.656 267.807 161.361 226.917 200.061C203.151 222.554 181.683 246.662 162.893 270.777C156.32 279.212 150.567 287.043 145.657 294.059C143.944 296.506 142.459 298.662 141.214 300.526C141.122 300.663 141.032 300.812 140.905 301.004C140.959 301.263 140.983 301.474 141.073 301.791C141.43 303.047 142.043 304.597 142.845 306.346C143.427 307.616 144.089 308.965 144.841 310.367C145.847 312.242 146.933 314.112 148.018 315.878C148.398 316.495 149.394 318.012 149.452 318.1C150.455 319.612 150.788 321.47 150.408 323.245C148.33 332.955 148.093 343.292 148.918 352.628C148.939 352.863 148.953 353.024 148.974 353.247C154.473 356.81 159.096 360.91 162.977 365.647C165.876 369.185 168.22 372.799 170.625 377.175C170.858 377.599 174.326 384.171 175.124 385.47C175.867 386.68 176.394 387.296 176.642 387.466C177.038 387.738 179.208 388.427 182.378 389.041C185.66 389.676 189.837 390.249 194.666 390.756C199.404 391.254 204.495 391.645 209.596 391.965C211.384 392.077 216.296 392.327 216.373 392.331C221.477 392.542 224.493 398.146 221.884 402.537C205.252 430.532 193.653 464.177 186.54 502.271C180.974 532.078 178.299 563.749 178.048 596.354C177.854 621.555 179.11 645.771 181.31 668.026C182.025 675.26 182.795 681.753 183.559 687.398C183.717 688.563 183.908 689.775 184.122 691.223C256.505 735.726 330.626 756.412 404.931 757.188C463.275 757.795 518.36 746.234 568.408 726.567C585.464 719.865 600.674 712.672 613.847 705.507C618.397 703.031 622.345 700.729 625.712 698.674C609.233 641.227 600.396 588.279 597.735 537.559C595.673 498.252 597.119 465.78 601.447 421.461C601.833 417.505 603.173 404.027 603.106 404.702C603.739 398.327 604.163 393.701 604.54 389.35C605.475 378.532 605.945 370.207 605.945 362.863C605.946 320.866 603.105 291.403 593.855 260.655C581.631 220.019 559.156 185.054 523.251 155.663C514.277 148.317 504.888 141.921 495.161 136.43C471 122.791 445.263 115.001 418.877 112.024C409.205 110.932 399.855 110.529 390.985 110.674Z" fill="black"/>
<path d="M390.732 97.1773C400.172 97.0213 410.085 97.4511 420.368 98.6113C448.475 101.783 475.973 110.099 501.797 124.677C512.194 130.546 522.222 137.363 531.799 145.203C569.846 176.348 593.812 213.61 606.789 256.746C616.501 289.032 619.442 319.659 619.442 362.863C619.442 370.66 618.974 379.359 618.008 390.531C617.626 394.95 617.184 399.597 616.546 406.024C616.612 405.363 615.243 418.846 614.859 422.782C610.591 466.488 609.211 498.34 611.232 536.856C613.915 587.999 622.935 641.461 640.052 699.827C640.88 702.648 639.792 705.664 637.353 707.307C636.55 707.846 635.057 708.816 632.882 710.146C629.306 712.331 625.08 714.764 620.286 717.372C606.639 724.795 590.922 732.194 573.329 739.108C521.755 759.374 464.999 771.312 404.79 770.684C327.151 769.875 249.695 748.055 174.337 701.093C172.691 700.067 171.561 698.393 171.244 696.481C171.187 696.139 171.103 695.498 170.963 694.569C170.731 693.041 170.451 691.237 170.175 689.199C169.39 683.396 168.601 676.747 167.87 669.346C165.625 646.641 164.354 621.979 164.552 596.269C164.809 562.914 167.545 530.447 173.268 499.797C179.879 464.393 190.313 432.562 204.985 405.124C201.003 404.84 196.979 404.562 193.232 404.168C180.877 402.87 172.988 401.34 168.994 398.601C166.885 397.154 165.269 395.207 163.624 392.527C162.551 390.781 158.848 383.757 158.816 383.698C156.778 379.991 154.853 377.011 152.545 374.195C148.986 369.851 144.701 366.177 139.274 363.06C137.491 362.036 136.265 360.257 135.956 358.224C135.824 357.355 135.63 355.847 135.45 353.809C134.595 344.138 134.866 333.596 136.743 323.273C136.653 323.127 136.614 323.092 136.518 322.936C135.303 320.959 134.089 318.877 132.947 316.75C132.069 315.113 131.292 313.512 130.585 311.97C128.057 306.455 126.783 302.034 127.38 298.108C127.522 297.173 127.882 296.289 128.392 295.493C128.469 295.373 129.537 293.732 129.995 293.047C131.294 291.103 132.837 288.854 134.606 286.326C139.645 279.127 145.545 271.105 152.264 262.482C171.448 237.861 193.342 213.243 217.638 190.248C259.791 150.352 304.602 119.612 351.367 101.677C351.616 101.581 351.867 101.517 352.126 101.452C352.735 101.298 353.826 101.057 355.359 100.749C357.855 100.246 360.75 99.7223 363.991 99.258C372.342 98.0619 381.291 97.3333 390.732 97.1773ZM390.985 110.674C382.114 110.82 373.717 111.523 365.903 112.643C362.918 113.07 360.281 113.511 358.03 113.964C357.256 114.12 356.591 114.259 356.034 114.386C355.988 114.396 355.991 114.405 355.95 114.414C311.122 131.656 267.807 161.361 226.917 200.061C203.151 222.554 181.683 246.662 162.893 270.777C156.32 279.212 150.567 287.043 145.657 294.059C143.944 296.506 142.459 298.662 141.214 300.526C141.122 300.663 141.032 300.812 140.905 301.004C140.959 301.263 140.983 301.474 141.073 301.791C141.43 303.047 142.043 304.597 142.845 306.346C143.427 307.616 144.089 308.965 144.841 310.367C145.847 312.242 146.933 314.112 148.018 315.878C148.398 316.495 149.394 318.012 149.452 318.1C150.455 319.612 150.788 321.47 150.408 323.245C148.33 332.955 148.093 343.292 148.918 352.628C148.939 352.863 148.953 353.024 148.974 353.247C154.473 356.81 159.096 360.91 162.977 365.647C165.876 369.185 168.22 372.799 170.625 377.175C170.858 377.599 174.326 384.171 175.124 385.47C175.867 386.68 176.394 387.296 176.642 387.466C177.038 387.738 179.208 388.427 182.378 389.041C185.66 389.676 189.837 390.249 194.666 390.756C199.404 391.254 204.495 391.645 209.596 391.965C211.384 392.077 216.296 392.327 216.373 392.331C221.477 392.542 224.493 398.146 221.884 402.537C205.252 430.532 193.653 464.177 186.54 502.271C180.974 532.078 178.299 563.749 178.048 596.354C177.854 621.555 179.11 645.771 181.31 668.026C182.025 675.26 182.795 681.753 183.559 687.398C183.717 688.563 183.908 689.775 184.122 691.223C256.505 735.726 330.626 756.412 404.931 757.188C463.275 757.795 518.36 746.234 568.408 726.567C585.464 719.865 600.674 712.672 613.847 705.507C618.397 703.031 622.345 700.729 625.712 698.674C609.233 641.227 600.396 588.279 597.735 537.559C595.673 498.252 597.119 465.78 601.447 421.461C601.833 417.505 603.173 404.027 603.106 404.702C603.739 398.327 604.163 393.701 604.54 389.35C605.475 378.532 605.945 370.207 605.945 362.863C605.946 320.866 603.105 291.403 593.855 260.655C581.631 220.019 559.156 185.054 523.251 155.663C514.277 148.317 504.888 141.921 495.161 136.43C471 122.791 445.263 115.001 418.877 112.024C409.205 110.932 399.855 110.529 390.985 110.674Z" fill="black"/>
<path d="M490.409 22.7212C492.308 22.4586 494.301 22.4577 496.398 22.7493C498.643 23.0613 500.887 23.7288 503.09 24.6894C510.448 27.8968 521.877 38.8312 530.786 51.7107C587.712 76.9929 632.628 117.097 652.509 165.504C666.482 199.529 673.095 235.196 673.597 271.48C673.984 299.432 670.758 326.093 665.133 350.548C663.267 358.663 661.273 365.956 659.257 372.339C658.541 374.603 657.868 376.61 657.26 378.328C656.88 379.405 656.594 380.179 656.417 380.634C654.338 385.984 649.107 389.409 643.37 389.21L624.841 388.563C624.578 391.816 624.447 394.327 624.081 398.207C623.611 403.201 621.793 421.398 621.579 423.598C620.561 434.043 619.806 442.591 619.161 451.266C618.346 462.245 617.867 473.425 617.558 484.698C625.893 483.851 634.032 484.593 641.908 486.947C653.146 490.306 663.267 496.602 672.782 505.252C676.587 508.712 679.649 512.776 681.892 517.371C682.461 518.536 682.787 519.393 683.298 520.857C683.318 520.915 683.478 521.409 683.523 521.532C683.511 521.501 683.852 522.343 683.972 522.657C684.174 523.184 684.369 523.696 684.535 524.259C684.704 524.835 684.835 525.402 684.957 525.975C685.029 526.318 685.232 527.356 685.238 527.381C687.003 535.306 686.953 543.967 685.238 552.968C685.03 554.056 684.83 554.914 684.45 556.426C684.429 556.511 684.257 557.196 684.197 557.439C684.196 557.445 684.199 557.461 684.197 557.467C684.195 557.49 684.2 557.471 684.197 557.495C684.195 557.518 684.2 557.499 684.197 557.523C683.343 561.002 682.409 564.194 681.301 567.308C681.105 567.858 680.936 568.282 680.683 568.882C680.66 568.936 680.546 569.144 680.514 569.22C680.509 569.233 680.486 569.276 680.486 569.276C680.461 569.346 680.489 569.301 680.458 569.389C680.388 569.573 679.544 571.814 679.361 572.285C679.078 573.012 678.801 573.681 678.518 574.337C678.125 575.246 677.812 575.851 677.224 576.952C677.21 576.979 676.872 577.622 676.83 577.711C675.662 580.216 674.495 582.556 673.26 584.825C673.203 584.929 672.905 585.534 672.894 585.556C672.353 586.677 672.061 587.247 671.572 588.087C671.324 588.514 671.08 588.898 670.813 589.296C670.653 589.535 670.186 590.224 670.167 590.252C670.187 590.221 669.874 590.702 669.773 590.843C668.376 593.114 666.905 595.357 665.077 597.956C665 598.065 664.789 598.347 664.768 598.378C664.773 598.37 664.522 598.789 664.515 598.799C663.916 599.766 663.582 600.273 663.025 601.021C662.69 601.471 662.479 601.709 662.125 602.118C659.166 606.008 656.193 609.581 653.155 612.773C649.334 616.792 645.064 620.194 640.362 623.066C638.116 624.437 635.814 625.682 633.501 626.749C632.244 627.329 630.943 627.79 629.649 628.295C634.109 651.285 639.592 674.293 646.519 697.915C648.173 703.555 645.993 709.616 641.121 712.902C640.58 713.266 639.629 713.884 638.281 714.73C636.109 716.092 633.545 717.631 630.633 719.312C622.4 724.065 612.858 729.078 602.065 734.131C601.353 734.464 600.836 734.669 599.591 735.199C599.557 735.214 598.46 735.679 598.157 735.818C575.924 745.979 551.589 754.914 525.388 761.94C493.125 770.589 459.578 775.911 425.063 777.179C339.676 780.316 254.016 758.71 170.766 706.829C167.473 704.777 165.242 701.405 164.608 697.578C164.546 697.203 164.444 696.542 164.299 695.581C164.062 694.016 163.792 692.175 163.511 690.098C162.715 684.208 161.917 677.485 161.178 669.994C159.525 653.254 158.496 635.163 158.085 616.402C128.162 589.492 112.677 556.681 113.49 526.425C113.494 526.251 113.509 525.529 113.518 525.3C113.611 523.03 113.778 520.841 114.052 518.692C114.136 518.021 114.238 517.345 114.361 516.555C114.696 514.438 115.097 512.455 115.57 510.566C115.682 510.118 115.776 509.766 115.936 509.216C115.952 509.161 116.029 508.863 116.048 508.795C116.811 506.085 117.251 504.679 117.96 502.89C118.129 502.465 118.306 502.066 118.495 501.681C118.599 501.468 118.775 501.121 118.776 501.118C118.706 501.252 118.639 501.395 118.495 501.737C122.976 491.145 130.127 483.02 139.442 478.905C150.493 474.025 161.349 474.36 170.934 479.074C173.146 469.759 175.648 460.595 178.498 451.659C178.342 450.243 178.317 448.805 178.639 447.329L182.238 430.796C182.346 430.299 182.496 429.787 182.66 429.306L188.817 411.17C188.902 410.922 189.056 410.709 189.155 410.467C177.533 409.134 170.022 407.504 165.198 404.196C162.167 402.117 159.982 399.501 157.888 396.098C156.715 394.193 152.845 386.823 151.814 385.048C151.767 384.979 151.781 385.01 151.73 384.936C149.824 381.685 147.967 379.043 145.713 376.613C143.006 373.696 139.789 371.143 135.9 368.908C132.335 366.861 129.91 363.3 129.292 359.236C129.245 358.926 129.174 358.446 129.095 357.802C128.972 356.8 128.841 355.659 128.73 354.4C127.892 344.944 128.088 334.739 129.686 324.567C128.783 323.044 127.871 321.525 127.014 319.927C126.075 318.175 125.196 316.458 124.428 314.782C122.732 311.08 121.549 307.686 120.941 304.434C120.477 301.952 120.34 299.57 120.716 297.096C121.017 295.118 121.734 293.214 122.853 291.556C123.006 291.329 125.137 288.22 126.002 286.973C128.467 283.421 131.213 279.554 134.156 275.473C134.178 275.448 134.164 275.469 134.184 275.445C134.262 275.33 134.28 275.295 134.353 275.192C134.864 274.485 138.244 269.735 139.442 268.134C155.45 246.752 174.377 224.316 195.706 202.507C220.88 176.768 247.556 153.864 275.477 134.799C273.132 128.036 271.434 121.173 270.472 114.301C269.45 107.008 269.26 100.578 269.544 95.3777C269.589 94.5404 269.641 93.8945 269.684 93.4657C269.737 92.9486 269.825 92.4267 269.937 91.9192C272.849 78.7161 276.167 67.7905 279.863 58.9088C285.219 46.0388 291.432 37.3231 298.589 32.2813C304.921 27.8212 311.483 26.5693 317.175 27.698C318.133 27.8879 318.991 28.1237 319.734 28.401C321.257 28.9694 322.671 29.8063 323.895 30.8754C328.74 35.1029 331.264 41.2929 333.456 50.6422C334.961 57.066 336.228 65.0778 337.308 74.458C338.213 82.3239 338.887 90.7553 339.473 99.3142C342.638 97.9715 345.802 96.6124 348.948 95.4058C349.401 95.2321 349.885 95.0798 350.354 94.9559C350.681 94.8696 351.169 94.7452 351.845 94.5904C352.307 94.4847 352.923 94.3633 353.447 94.253C353.123 92.3735 352.865 90.7668 352.688 89.8666C352.514 88.9779 352.38 88.2697 352.266 87.814C352.233 87.68 352.206 87.6029 352.21 87.6171C352.303 87.9124 352.436 88.2741 352.688 88.7981C350.946 85.1793 350.732 82.2748 350.411 71.7587C350.329 69.0927 350.279 66.2429 350.242 63.4077C350.229 62.4174 350.186 59.6691 350.186 59.6118C350.174 56.9266 350.974 54.3104 352.463 52.0762L352.548 51.9637C352.998 50.3241 353.445 48.5638 353.869 47.5774C355.018 44.9045 357.001 42.6777 359.521 41.2227C359.684 41.1285 359.876 41.0256 360.027 40.9415C361.822 38.5288 364.313 36.7346 367.225 35.9366L393.178 28.8228C394.445 28.4754 395.773 28.3132 397.086 28.3448L399.982 28.401C409.686 27.0783 420.082 26.6749 431.024 27.1076C433.368 26.6479 435.621 26.7997 437.716 27.5012C449.892 28.3646 462.54 30.245 475.451 33.181C475.868 32.4761 476.174 31.7634 476.688 31.0722C479.993 26.629 484.713 23.5091 490.409 22.7212ZM494.543 36.1334C487.896 35.2096 485.91 42.235 485.91 42.235L486.107 49.7987C468.056 44.7261 450.202 41.5996 433.414 40.6885L433.527 40.2386C433.527 40.2386 432.792 40.5311 432.571 40.6041C421.175 40.0328 410.305 40.4408 400.263 41.9257L396.749 41.8413L370.796 48.9551L369.109 51.4576C368.166 51.9477 367.176 52.3962 366.269 52.9197C366.269 52.9197 365.676 54.2992 365.088 56.9687C365.05 57.1436 365.014 57.4296 364.976 57.6154L363.682 59.5555C363.682 59.5555 363.777 80.7517 364.835 82.9496C365.893 85.1475 367.769 98.5768 369.053 105.248C369.061 105.289 369.1 105.401 369.109 105.444C364.403 106.013 360.539 106.61 357.946 107.103C355.242 107.618 353.785 108.003 353.785 108.003C344.697 111.489 335.819 115.466 327.129 119.784C326.302 100.763 323.323 48.3084 315.01 41.054C315.01 41.054 296.484 34.1412 283.096 94.8434C283.096 94.8434 280.865 116.74 292.066 139.945C225.483 182.914 174.697 243.564 150.24 276.232C148.078 279.12 147.036 280.676 145.291 283.093C145.228 283.18 145.184 283.26 145.122 283.346C145.114 283.357 145.102 283.363 145.094 283.374C138.482 292.544 134.044 299.12 134.044 299.12C133.92 299.932 133.985 300.895 134.184 301.96C135.579 309.419 143.801 321.839 143.801 321.839C139.964 339.764 142.62 357.211 142.62 357.211C148.049 360.33 152.248 363.854 155.582 367.446C158.915 371.038 161.367 374.685 163.371 378.103C163.377 378.114 163.393 378.121 163.399 378.131C167.393 384.951 169.529 390.806 172.818 393.062C176.114 395.322 186.921 396.812 196.915 397.757C205.407 398.556 211.021 398.783 213.196 398.882L212.436 399.276L201.583 415.528L195.425 433.664L191.826 450.197C192.23 450.247 192.604 450.306 192.979 450.366C188.18 464.601 184.311 479.213 181.31 493.892C180.537 497.673 179.982 501.442 179.314 505.224C173.49 495.9 162.145 483.631 144.897 491.249C138.904 493.896 134.094 499.499 130.923 506.995C130.795 507.298 130.623 507.558 130.501 507.867C129.927 509.316 129.484 510.867 129.039 512.45C128.907 512.921 128.765 513.373 128.645 513.856C128.26 515.394 127.949 516.99 127.689 518.636C127.598 519.22 127.511 519.81 127.436 520.407C127.212 522.168 127.062 523.971 126.986 525.834C126.974 526.149 126.966 526.473 126.958 526.79C126.31 550.897 138.316 582.711 171.356 610.299C172.017 659.826 177.908 695.385 177.908 695.385C356.168 806.474 519.187 757.082 592.533 723.559C593.724 723.014 595.186 722.435 596.329 721.9C620.178 710.734 633.557 701.711 633.557 701.711C624.837 671.976 618.637 644.528 614.071 618.848C614.885 618.682 615.702 618.567 616.518 618.37C620.327 617.451 624.141 616.2 627.849 614.49C629.703 613.633 631.521 612.655 633.304 611.565C636.871 609.387 640.27 606.727 643.37 603.467C646.281 600.407 649.043 597.068 651.665 593.598C651.836 593.372 652.03 593.179 652.199 592.951C652.76 592.198 653.201 591.357 653.746 590.589C653.839 590.458 653.934 590.328 654.027 590.195C655.648 587.891 657.208 585.577 658.666 583.166C658.684 583.137 658.705 583.111 658.723 583.082C659.09 582.475 659.547 581.923 659.904 581.311C660.459 580.355 660.866 579.352 661.394 578.385C662.545 576.271 663.596 574.154 664.599 572.004C665.072 570.994 665.68 570.008 666.118 568.995C666.709 567.625 667.197 566.26 667.72 564.89C667.756 564.795 667.797 564.703 667.833 564.609C667.843 564.581 667.85 564.552 667.861 564.523C668.082 563.938 668.356 563.365 668.564 562.781C669.574 559.942 670.379 557.115 671.066 554.317C671.068 554.309 671.064 554.297 671.066 554.289C671.069 554.281 671.064 554.269 671.066 554.26C671.379 552.984 671.726 551.697 671.966 550.437C673.337 543.245 673.408 536.43 672.05 530.333C671.884 529.585 671.785 528.807 671.572 528.083C671.378 527.422 671.076 526.812 670.841 526.171C670.49 525.211 670.188 524.211 669.745 523.303C668.267 520.277 666.266 517.567 663.699 515.234C649.425 502.257 629.559 491.769 603.696 501.85C603.755 483.196 604.529 465.952 605.692 450.281C607.93 420.179 611.293 395.311 612.356 374.729C612.358 374.7 612.355 374.674 612.356 374.644L643.82 375.741C643.82 375.741 682.924 275.105 640.024 170.65C619.863 121.56 572.796 84.3467 521.733 62.4517C521.408 61.944 521.105 61.3711 520.777 60.8771C511.569 47.0112 501.135 38.5621 497.692 37.0613C496.544 36.5611 495.492 36.2654 494.543 36.1334Z" fill="black"/>
<path d="M493.991 156.049L490.93 41.6347C490.93 41.6347 493.52 32.4534 502.701 36.4555C511.882 40.4576 570.737 93.8979 523.653 167.585" fill="#AF93E5"/>
<path d="M496.038 152.233C496.038 152.233 493.729 83.9943 509.789 89.425C525.849 94.8557 524.629 140.632 514.59 154.302C504.552 167.971 502.873 167.109 496.038 152.233Z" fill="#ABACE3"/>
<path d="M488.992 156.637L485.931 42.2226C485.931 42.2226 488.521 33.0413 497.702 37.0434C506.884 41.0455 565.739 94.4858 518.655 168.173" stroke="black" stroke-width="0.01875" stroke-miterlimit="10" stroke-linecap="round" stroke-linejoin="round"/>
<path d="M492.321 29.301C494.818 29.1252 497.527 29.5991 500.391 30.8474C504.243 32.5265 510.518 37.749 516.474 44.344C524.025 52.7044 530.684 62.6873 535.482 73.7834C548.481 103.845 546.397 137.295 524.347 171.802C522.341 174.943 518.153 175.862 515.012 173.855C511.872 171.848 510.953 167.689 512.96 164.548C532.544 133.899 534.336 105.182 523.082 79.1539C518.897 69.476 513.07 60.6832 506.465 53.3698C503.846 50.4705 501.237 47.9648 498.873 46.003C497.049 44.4898 495.516 43.4474 494.992 43.2193C493.4 42.525 493.392 42.5541 492.94 43.1631C492.858 43.2733 492.788 43.4013 492.715 43.5286L495.752 156.45C495.851 160.176 492.898 163.296 489.172 163.395C485.446 163.495 482.355 160.541 482.255 156.816L479.19 42.4039C479.172 41.7243 479.259 41.0339 479.443 40.3794C479.577 39.9066 479.798 39.286 480.118 38.5517C480.628 37.3826 481.282 36.2139 482.114 35.0932C484.636 31.6996 488.161 29.5938 492.321 29.301Z" fill="black"/>
<path d="M410.516 464.535L261.767 461.648C261.767 461.648 225.952 463.128 204.019 531.284C182.086 599.439 227.788 691.017 289.633 709.492C351.477 727.966 398.776 726.601 442.153 710.004C485.53 693.407 513.238 641.325 516.928 626.925C520.617 612.525 529.712 555.123 511.261 523.369C492.809 491.616 452.797 468.313 410.516 464.535Z" fill="#F3886D" stroke="black" stroke-width="0.01875" stroke-miterlimit="10" stroke-linecap="round" stroke-linejoin="round"/>
<path d="M261.764 461.66L287.942 462.166L324.41 492.927L360.851 463.572L410.507 464.528C452.789 468.306 492.802 491.625 511.253 523.379C518.662 536.128 521.532 552.973 522.191 569.548L503.24 575.987L473.716 582.061C473.716 582.061 475.556 677.143 381.602 690.089C287.648 703.036 226.989 659.005 224.03 588.725L201.929 578.096C201.929 578.096 199.624 577.826 198.921 577.759C197.867 561.828 199.273 545.998 204.01 531.28C225.943 463.125 261.764 461.66 261.764 461.66Z" fill="#F9B192"/>
<path d="M470.857 507.932L416.603 505.494" stroke="black" stroke-width="0.01875" stroke-miterlimit="10" stroke-linecap="round" stroke-linejoin="round"/>
<path d="M264.133 506.045L229.773 506.936" stroke="black" stroke-width="0.01875" stroke-miterlimit="10" stroke-linecap="round" stroke-linejoin="round"/>
<path d="M361.188 619.974C361.188 619.974 328.024 605.548 321.002 600.051C321.002 600.051 310.567 608.2 305.691 608.846" stroke="black" stroke-width="0.01875" stroke-miterlimit="10" stroke-linecap="round" stroke-linejoin="round"/>
<path d="M261.894 454.891L410.637 457.787C410.794 457.79 410.959 457.801 411.115 457.815C455.536 461.784 497.507 486.281 517.091 519.984C526.091 535.472 529.685 556.857 529.154 581.787C528.782 599.246 526.238 617.814 523.474 628.603C520.937 638.506 511.539 656.224 499.799 671.707C484.088 692.428 465.388 708.339 444.575 716.302C398.19 734.05 348.989 734.272 287.706 715.965C221.482 696.182 174.749 600.177 197.588 529.206C203.494 510.854 210.736 496.036 219.07 484.415C227.851 472.17 237.438 464.008 247.16 459.221C250.679 457.488 253.997 456.305 257.029 455.594C258.141 455.333 259.137 455.15 260.038 455.031C260.649 454.951 261.156 454.933 261.5 454.919C261.636 454.913 261.757 454.888 261.894 454.891ZM262.034 468.387C262.047 468.387 261.981 468.387 261.978 468.387C261.969 468.39 261.965 468.395 261.809 468.415C261.348 468.476 260.791 468.596 260.122 468.753C258.068 469.235 255.705 470.067 253.121 471.34C245.405 475.139 237.531 481.835 230.036 492.287C222.553 502.723 215.93 516.274 210.438 533.34C189.86 597.285 232.773 685.47 291.558 703.031C350.124 720.526 396.295 720.328 439.739 703.705C457.885 696.762 474.744 682.431 489.058 663.553C499.792 649.396 508.357 633.229 510.399 625.257C512.907 615.469 515.307 597.93 515.657 581.505C516.14 558.831 512.924 539.67 505.422 526.76C488.164 497.06 450.228 474.918 410.046 471.283L262.034 468.387Z" fill="black"/>
<path d="M261.895 454.919L288.072 455.425C289.62 455.455 291.107 456.002 292.29 457L324.513 484.19L356.624 458.321C357.858 457.327 359.397 456.8 360.982 456.831L410.638 457.787C410.795 457.79 410.959 457.801 411.116 457.815C455.53 461.784 497.505 486.276 517.092 519.984C524.489 532.714 528.139 549.408 528.93 569.274C529.049 572.261 527.205 574.976 524.375 575.938L505.423 582.377C505.158 582.467 504.882 582.545 504.608 582.602L480.286 587.607C480.271 587.851 480.275 587.942 480.258 588.197C479.991 592.243 479.493 596.653 478.711 601.357C476.527 614.493 472.518 627.596 466.227 639.878C450.53 670.524 423.284 691.171 382.52 696.788C288.946 709.682 223.164 667.056 217.693 593.174L200.035 584.683C199.245 584.593 198.392 584.498 198.264 584.486C194.972 584.171 192.409 581.516 192.191 578.216C191.036 560.757 192.758 544.219 197.589 529.206C203.496 510.851 210.735 496.035 219.071 484.415C227.852 472.174 237.438 464.003 247.161 459.221C250.68 457.49 253.998 456.332 257.03 455.622C258.142 455.362 259.138 455.178 260.039 455.059C260.65 454.979 261.157 454.933 261.501 454.919C261.636 454.913 261.759 454.916 261.895 454.919ZM262.035 468.415C262.048 468.415 261.982 468.415 261.979 468.415C261.97 468.418 261.966 468.423 261.81 468.444C261.349 468.504 260.764 468.596 260.095 468.753C258.041 469.234 255.706 470.069 253.122 471.34C245.406 475.135 237.532 481.84 230.037 492.287C222.552 502.721 215.932 516.271 210.439 533.34C206.615 545.225 205.078 558.389 205.518 572.339L226.944 582.63C229.189 583.71 230.663 585.961 230.768 588.45C233.623 656.241 292.635 695.538 380.692 683.404C416.928 678.411 440.465 660.574 454.221 633.72C459.825 622.779 463.414 611.012 465.383 599.163C466.089 594.917 466.551 590.914 466.789 587.298C466.875 585.989 466.931 584.826 466.958 583.783C466.975 583.099 466.961 582.582 466.958 582.236C466.957 582.186 466.958 582.165 466.958 582.18C466.895 578.929 469.171 576.115 472.357 575.46L501.487 569.471L515.068 564.86C513.984 549.292 510.933 536.242 505.423 526.76C488.162 497.055 450.222 474.918 410.047 471.283L363.175 470.384L328.646 498.192C326.131 500.219 322.54 500.163 320.07 498.08L285.457 468.865L262.035 468.415Z" fill="black" fill-opacity="0.5"/>
<path d="M416.908 498.755L471.148 501.201C474.871 501.368 477.754 504.507 477.587 508.23C477.419 511.954 474.28 514.837 470.557 514.669L416.29 512.223C412.566 512.056 409.683 508.916 409.851 505.194C410.018 501.47 413.185 498.587 416.908 498.755Z" fill="black"/>
<path d="M263.947 499.289C267.673 499.192 270.796 502.143 270.892 505.868C270.989 509.594 268.039 512.689 264.313 512.785L229.953 513.685C226.227 513.782 223.132 510.831 223.036 507.106C222.939 503.38 225.861 500.285 229.587 500.189L263.947 499.289Z" fill="black"/>
<path d="M320.998 593.314C322.466 593.315 323.939 593.792 325.16 594.748C327.063 596.238 332.522 599.198 340.147 602.902C341.178 603.403 342.254 603.898 343.352 604.42C347.838 606.556 352.649 608.782 357.467 610.944C359.155 611.701 363.802 613.751 363.878 613.784C367.296 615.27 368.851 619.251 367.365 622.669C365.878 626.087 361.925 627.642 358.507 626.155C358.422 626.118 353.671 624.029 351.956 623.259C347.052 621.059 342.148 618.808 337.56 616.624C336.431 616.086 335.306 615.538 334.242 615.021C328.557 612.259 324.531 610.095 321.279 608.16C320.336 608.822 319.408 609.499 318.44 610.128C317.438 610.779 316.466 611.373 315.515 611.928C312.107 613.916 309.257 615.171 306.574 615.527C302.879 616.017 299.5 613.429 299.01 609.735C298.52 606.04 301.108 602.633 304.802 602.143C305.214 602.088 306.756 601.427 308.711 600.287C309.464 599.848 310.273 599.335 311.101 598.797C312.474 597.905 313.857 596.951 315.178 595.985C315.64 595.647 316.772 594.77 316.837 594.72C318.059 593.766 319.53 593.313 320.998 593.314Z" fill="black"/>
<path d="M261.894 454.891L410.637 457.787C410.794 457.79 410.959 457.801 411.115 457.815C455.536 461.784 497.507 486.281 517.091 519.984C526.091 535.472 529.685 556.857 529.154 581.787C528.782 599.246 526.238 617.814 523.474 628.603C520.937 638.506 511.539 656.224 499.799 671.707C484.088 692.428 465.388 708.339 444.575 716.302C398.19 734.05 348.989 734.272 287.706 715.965C221.482 696.182 174.749 600.177 197.588 529.206C203.494 510.854 210.736 496.036 219.07 484.415C227.851 472.17 237.438 464.008 247.16 459.221C250.679 457.488 253.997 456.305 257.029 455.594C258.141 455.333 259.137 455.15 260.038 455.031C260.649 454.951 261.156 454.933 261.5 454.919C261.636 454.913 261.757 454.888 261.894 454.891ZM262.034 468.387C262.047 468.387 261.981 468.387 261.978 468.387C261.969 468.39 261.965 468.395 261.809 468.415C261.348 468.476 260.791 468.596 260.122 468.753C258.068 469.235 255.705 470.067 253.121 471.34C245.405 475.139 237.531 481.835 230.036 492.287C222.553 502.723 215.93 516.274 210.438 533.34C189.86 597.285 232.773 685.47 291.558 703.031C350.124 720.526 396.295 720.328 439.739 703.705C457.885 696.762 474.744 682.431 489.058 663.553C499.792 649.396 508.357 633.229 510.399 625.257C512.907 615.469 515.307 597.93 515.657 581.505C516.14 558.831 512.924 539.67 505.422 526.76C488.164 497.06 450.228 474.918 410.046 471.283L262.034 468.387Z" fill="black"/>
<path d="M410.516 464.535L261.767 461.648C261.767 461.648 225.952 463.128 204.019 531.284C182.086 599.439 227.788 691.017 289.633 709.492C351.477 727.966 398.776 726.601 442.153 710.004C485.53 693.407 513.238 641.325 516.928 626.925C520.617 612.525 529.712 555.123 511.261 523.369C492.809 491.616 452.797 468.313 410.516 464.535Z" stroke="black" stroke-width="0.01875" stroke-miterlimit="10" stroke-linecap="round" stroke-linejoin="round"/>
<path d="M536.191 565.423C534.944 554.257 516.088 547.198 494.076 549.657C472.064 552.116 455.231 563.161 456.478 574.327C457.725 585.493 476.581 592.551 498.593 590.093C520.605 587.634 537.438 576.589 536.191 565.423Z" fill="#FF497F" stroke="black" stroke-width="0.01875" stroke-miterlimit="10" stroke-linecap="round" stroke-linejoin="round"/>
<path d="M502.64 542.422C523.884 542.368 541.33 550.57 542.904 564.663C544.703 580.769 524.586 593.983 499.35 596.801C474.114 599.62 451.577 591.173 449.778 575.066C447.979 558.96 468.096 545.775 493.333 542.956C496.487 542.603 499.605 542.429 502.64 542.422ZM501.993 555.918C499.657 555.944 497.25 556.097 494.823 556.368C485.115 557.452 476.317 560.399 470.248 564.382C465.15 567.726 462.916 571.117 463.19 573.576C463.465 576.035 466.394 578.862 472.104 580.999C478.902 583.544 488.123 584.474 497.831 583.389C507.539 582.305 516.337 579.358 522.406 575.376C527.504 572.031 529.767 568.64 529.492 566.181C529.217 563.722 526.261 560.896 520.551 558.758C515.452 556.849 509.001 555.841 501.993 555.918Z" fill="black"/>
<path d="M246.18 578.171C246.467 566.939 228.75 557.375 206.608 556.809C184.467 556.243 166.284 564.89 165.997 576.122C165.71 587.353 183.427 596.917 205.569 597.483C227.71 598.049 245.893 589.403 246.18 578.171Z" fill="#FF497F" stroke="black" stroke-width="0.01875" stroke-miterlimit="10" stroke-linecap="round" stroke-linejoin="round"/>
<path d="M206.783 550.07C232.167 550.718 253.338 562.155 252.924 578.356C252.51 594.557 230.789 604.874 205.405 604.225C180.02 603.576 158.85 592.139 159.264 575.938C159.678 559.737 181.398 549.421 206.783 550.07ZM206.445 563.566C196.68 563.317 187.554 565.032 180.999 568.149C175.493 570.768 172.795 573.83 172.732 576.304C172.669 578.777 175.212 581.955 180.577 584.851C186.965 588.3 195.977 590.478 205.742 590.728C215.508 590.978 224.605 589.262 231.161 586.145C236.667 583.526 239.364 580.464 239.427 577.991C239.491 575.517 236.976 572.339 231.611 569.443C225.223 565.994 216.211 563.816 206.445 563.566Z" fill="black"/>
<path d="M670.849 526.162C678.701 547.616 664.151 581.62 643.378 603.458C618.575 629.534 574.939 617.939 574.939 617.939L573.899 607.423C573.993 607.212 574.057 607.045 574.152 606.833C606.002 536.148 658.056 527.279 670.849 526.162Z" fill="#F9B192"/>
<path d="M589.95 577.839C589.95 577.839 604.509 550.471 637.131 535.693" stroke="black" stroke-width="0.01875" stroke-miterlimit="10" stroke-linecap="round" stroke-linejoin="round"/>
<path d="M577.449 640.893C577.449 640.893 562.258 525.05 564.95 496.467" stroke="black" stroke-width="0.01875" stroke-miterlimit="10" stroke-linecap="round" stroke-linejoin="round"/>
<path d="M606.15 559.994C606.15 559.994 618.301 561.746 623.994 567.766" stroke="black" stroke-width="0.01875" stroke-miterlimit="10" stroke-linecap="round" stroke-linejoin="round"/>
<path d="M574.945 617.952C574.945 617.952 618.573 629.527 643.376 603.452C668.18 577.376 684.237 533.895 663.706 515.23C643.174 496.564 611.113 482.884 566.205 528.463" stroke="black" stroke-width="0.01875" stroke-miterlimit="10" stroke-linecap="round" stroke-linejoin="round"/>
<path d="M624.109 490.994C640.419 491.05 654.836 498.028 668.254 510.227C680.129 521.023 682.562 538.431 677.054 558.365C672.249 575.757 661.543 594.143 648.262 608.105C640.421 616.348 630.554 621.717 619.216 624.639C606.405 627.939 592.943 627.921 580.301 625.904C578.418 625.604 576.712 625.275 575.212 624.948C574.281 624.746 573.613 624.576 573.215 624.469C569.613 623.514 567.451 619.834 568.407 616.232C569.363 612.63 573.071 610.467 576.674 611.423C576.879 611.477 577.354 611.603 578.08 611.761C579.341 612.035 580.81 612.316 582.438 612.576C593.406 614.325 605.09 614.361 615.842 611.591C624.859 609.27 632.492 605.09 638.477 598.798C650.264 586.406 659.837 569.964 664.036 554.766C668.326 539.24 666.619 526.98 659.171 520.209C648.016 510.067 636.594 504.534 624.08 504.491C608.237 504.436 590.667 513.261 571.022 533.199C568.406 535.854 564.117 535.871 561.462 533.255C558.807 530.639 558.79 526.379 561.406 523.724C583.407 501.395 604.243 490.926 624.109 490.994Z" fill="black"/>
<path d="M574.945 617.952C574.945 617.952 618.573 629.527 643.376 603.452C668.18 577.376 684.237 533.895 663.706 515.23C643.174 496.564 611.113 482.884 566.205 528.463" fill="#F3886D"/>
<path d="M574.945 617.952C574.945 617.952 618.573 629.527 643.376 603.452C668.18 577.376 684.237 533.895 663.706 515.23C643.174 496.564 611.113 482.884 566.205 528.463" stroke="black" stroke-width="0.01875" stroke-miterlimit="10" stroke-linecap="round" stroke-linejoin="round"/>
<path d="M670.849 526.162C678.701 547.616 664.151 581.62 643.378 603.458C618.575 629.534 574.939 617.939 574.939 617.939L573.899 607.423C573.993 607.212 574.057 607.045 574.152 606.833C606.002 536.148 658.056 527.279 670.849 526.162Z" fill="#F9B192"/>
<path d="M636.959 528.953C639.588 528.887 642.132 530.372 643.286 532.918C644.824 536.313 643.307 540.294 639.912 541.831C631.062 545.84 623.092 551.095 615.983 557.268C609.909 562.543 604.795 568.191 600.631 573.829C599.186 575.786 597.972 577.595 596.976 579.2C596.636 579.747 596.363 580.202 596.132 580.606C596.006 580.825 595.928 580.961 595.907 580.999C594.157 584.29 590.059 585.533 586.769 583.783C583.479 582.032 582.235 577.963 583.985 574.673C584.267 574.143 584.769 573.269 585.504 572.086C586.687 570.18 588.111 568.072 589.778 565.816C594.503 559.417 600.292 553.02 607.154 547.061C615.214 540.063 624.257 534.114 634.344 529.544C635.193 529.159 636.083 528.975 636.959 528.953Z" fill="black"/>
<path d="M607.125 553.304C607.962 553.425 609.281 553.695 610.949 554.091C613.72 554.749 616.483 555.612 619.132 556.735C623.038 558.389 626.355 560.465 628.889 563.145C631.449 565.854 631.344 570.117 628.636 572.677C625.927 575.238 621.664 575.104 619.104 572.396C618.029 571.26 616.206 570.151 613.874 569.163C611.99 568.365 609.915 567.717 607.828 567.223C607.094 567.048 606.431 566.883 605.832 566.773C605.496 566.711 605.263 566.699 605.185 566.688C601.496 566.157 598.946 562.729 599.477 559.04C600.009 555.351 603.437 552.773 607.125 553.304Z" fill="black"/>
<path d="M624.109 490.994C640.419 491.05 654.836 498.028 668.254 510.227C680.129 521.023 682.562 538.431 677.054 558.365C672.249 575.757 661.543 594.143 648.262 608.105C640.421 616.348 630.554 621.717 619.216 624.639C606.405 627.939 592.943 627.921 580.301 625.904C578.418 625.604 576.712 625.275 575.212 624.948C574.281 624.746 573.613 624.576 573.215 624.469C569.613 623.514 567.451 619.834 568.407 616.232C569.363 612.63 573.071 610.467 576.674 611.423C576.879 611.477 577.354 611.603 578.08 611.761C579.341 612.035 580.81 612.316 582.438 612.576C593.406 614.325 605.09 614.361 615.842 611.591C624.859 609.27 632.492 605.09 638.477 598.798C650.264 586.406 659.837 569.964 664.036 554.766C668.326 539.24 666.619 526.98 659.171 520.209C648.016 510.067 636.594 504.534 624.08 504.491C608.237 504.436 590.667 513.261 571.022 533.199C568.406 535.854 564.117 535.871 561.462 533.255C558.807 530.639 558.79 526.379 561.406 523.724C583.407 501.395 604.243 490.926 624.109 490.994Z" fill="black"/>
<path d="M565.595 489.757C569.306 490.106 572.018 493.385 571.669 497.096C570.694 507.443 572.161 531.628 575.465 564.86C576.156 571.817 576.923 579.046 577.742 586.51C579.141 599.252 580.658 612.017 582.157 624.188C582.681 628.448 584.147 639.974 584.153 640.019C584.638 643.714 582.028 647.098 578.333 647.582C574.637 648.067 571.254 645.458 570.769 641.762C570.762 641.712 569.272 630.127 568.745 625.847C567.239 613.621 565.736 600.806 564.33 588.001C563.506 580.492 562.749 573.186 562.052 566.181C558.649 531.947 557.138 507.405 558.228 495.83C558.578 492.12 561.885 489.407 565.595 489.757Z" fill="black"/>
<path opacity="0.201073" d="M560.135 187.283C560.135 187.283 582.008 322.895 516.389 423.511C506.289 438.998 479.341 490.864 479.341 490.864C497.312 677.015 373.812 721.071 373.812 721.071C422.003 737.035 465.036 691.012 465.914 699.802C468.537 726.058 472.98 748.079 478.43 762.945L636.919 701.059L620.818 641.689V619.047L650.503 600.431L675.477 525.739C675.477 525.739 628.365 522.948 598.68 564.709L568.492 548.608L568.995 528.986L588.617 510.37L607.737 494.269L608.24 459.553L615.787 381.567L650.503 378.045C650.503 378.045 668.113 333.769 667.61 323.706C667.107 313.643 659.56 258.298 659.56 258.298L604.215 260.814L586.605 224.588L560.135 187.283Z" fill="black"/>
<path opacity="0.201073" d="M172.958 552.419L128.452 526.596L130.481 564.981C130.481 564.981 149.01 594.191 152.31 598.197C155.61 602.203 168.461 612.616 168.461 612.616C168.461 612.616 173.572 600.078 173.023 595.433C172.473 590.787 169.496 578.893 169.496 578.893L172.839 564.68L172.958 552.419Z" fill="black"/>
<path opacity="0.201073" d="M467.88 278.581C466.192 268.336 499.672 329.433 392.934 399.414C303.874 457.805 279.459 451.28 198.293 437.268L205.697 403.125L249.959 398.724L276.374 388.925L288.417 370.444L313.72 362.761L369.67 347.5L388.907 365.047L431.512 354.705L459.71 327.274C459.71 327.274 469.569 288.827 467.88 278.581Z" fill="black"/>
</svg>
