<svg width="1210" height="1277" viewBox="0 0 1210 1277" fill="none" xmlns="http://www.w3.org/2000/svg">
<mask id="mask0_311_10640" style="mask-type:luminance" maskUnits="userSpaceOnUse" x="0" y="0" width="1210" height="1277">
<path d="M1210 0.425293H0V1277H1210V0.425293Z" fill="white"/>
</mask>
<g mask="url(#mask0_311_10640)">
<path d="M262.749 957.621C262.749 930.508 402.703 908.528 575.346 908.528C747.988 908.528 887.942 930.508 887.942 957.621C887.942 984.735 747.988 1006.71 575.346 1006.71C402.703 1006.71 262.749 984.735 262.749 957.621Z" fill="black" fill-opacity="0.7"/>
<path d="M825.687 576.02C825.687 576.02 842.487 535.716 869.384 528.387C896.281 521.06 938.157 621.581 846.196 700.182" fill="#F3886D"/>
<path d="M825.687 576.02C825.687 576.02 842.487 535.716 869.384 528.387C896.281 521.06 938.157 621.581 846.196 700.182" stroke="black" stroke-width="0.0122978" stroke-miterlimit="10" stroke-linejoin="round"/>
<path d="M897.547 557.345C860.086 605.99 850.188 671.391 850.188 671.391L862.943 684.049C905.252 638.138 907.728 588.072 897.547 557.345Z" fill="#F9B192"/>
<path d="M595.471 206.765C565.724 206.765 541.603 230.886 541.603 260.632C541.603 274.299 546.874 286.944 555.7 296.609C550.499 303.84 544.835 311.233 537.972 319.144C521.876 337.702 502.556 349.811 470.303 363.919C467.688 365.062 453.6 371.051 452.837 371.376C426.234 382.686 412.381 389.55 398.152 399.732C379.103 413.365 365.243 430.153 356.322 451.997C343.021 484.562 344.496 514.714 356.942 541.515C338.446 575.874 327.215 613.669 324.236 653.01C314.712 648.711 304.92 646.837 294.375 647.516C277.112 648.627 263.087 658.897 252.543 675.054C244.653 687.147 238.865 702.432 235.765 717.671C229.15 750.196 258.455 795.042 299.347 818.701C314.801 827.643 331.926 832.71 349.878 834.727C358.617 835.708 366.642 835.695 374.31 835.349C426.451 909.754 511.448 955.315 604.301 955.316C756.541 955.315 880.556 834.12 884.987 682.708C911.725 648.277 922.301 609.475 917.694 573.567C913.287 539.222 895.03 511.309 871.512 511.915C869.331 511.971 867.241 512.299 865.167 512.864C856.832 515.134 849.362 519.567 842.436 525.456C840.938 523.058 839.324 520.767 837.759 518.423C861.977 465.365 833.023 401.945 775.028 373.96C722.924 348.817 679.519 325.071 661.341 309.626C656.012 305.099 649.446 297.213 642.175 286.993C646.684 279.043 649.337 270.067 649.337 260.632C649.338 230.886 625.216 206.765 595.471 206.765ZM595.471 222.856C616.332 222.856 633.247 239.77 633.246 260.632C633.246 270.853 629.146 280.095 622.551 286.895C631.65 300.637 641.821 314.142 650.941 321.891C674.693 342.072 733.68 371.874 768.029 388.449C819.339 413.207 847.343 471.85 819.149 519.503C826.671 529.919 833.428 540.929 839.394 552.406C846.847 542.179 856.973 531.781 869.386 528.399C870.227 528.171 871.072 528.029 871.937 528.006C896.104 527.383 928.145 605.848 869.092 677.082C867.626 822.102 749.668 939.223 604.301 939.224C511.347 939.224 429.653 891.279 382.388 818.831C370.678 820.111 337.153 821.987 307.393 804.768C271.01 783.717 246.657 744.832 251.53 720.876C256.403 696.921 270.618 665.172 295.422 663.575C311.378 662.547 324.937 669.324 339.673 683.264C339.576 680.299 339.445 677.357 339.445 674.367C339.445 626.075 352.45 580.826 375.03 541.841C363.677 521.685 356.767 493.423 371.202 458.08C402.014 382.641 494.981 393.27 550.139 329.675C562.148 315.83 570.758 303.985 577.383 293.6C565.707 287.174 557.694 274.901 557.694 260.632C557.694 239.77 574.609 222.856 595.471 222.856Z" fill="black"/>
<path d="M871.741 520.156C870.25 520.195 868.787 520.413 867.326 520.811C854.28 524.365 843.056 534.015 832.984 547.859C831.233 550.265 830.99 553.46 832.362 556.101C851.276 592.498 861.308 632.748 861.308 674.367C861.308 674.594 861.305 674.836 861.275 675.414C861.275 675.419 861.215 676.543 861.21 677.05C861.134 684.44 870.392 687.807 875.11 682.118C903.124 648.346 914.038 609.889 909.517 574.613C905.585 543.931 889.741 519.693 871.741 520.156ZM872.133 535.856C874.899 535.784 879.239 538.915 883.418 545.308C888.505 553.092 892.349 564.13 893.949 576.608C897.126 601.398 891.378 628.153 876.124 653.435C873.435 618.472 864.023 584.709 848.552 553.517C855.879 544.378 863.573 538.132 871.447 535.986C871.74 535.907 871.957 535.861 872.133 535.856Z" fill="black"/>
<path d="M339.452 674.353C339.452 528.075 458.035 409.492 604.313 409.492C750.592 409.492 869.173 528.075 869.173 674.353C869.173 820.632 750.592 939.214 604.313 939.214C458.035 939.214 339.452 820.632 339.452 674.353Z" fill="#F3886D" stroke="black" stroke-width="0.0122978" stroke-miterlimit="10" stroke-linecap="round" stroke-linejoin="round"/>
<path d="M865.495 718.129C865.698 716.908 865.929 715.692 866.115 714.466C866.605 711.255 866.986 707.999 867.359 704.752C867.497 703.54 867.661 702.339 867.784 701.122C868.097 698.018 868.332 694.902 868.536 691.767C868.623 690.424 868.731 689.093 868.798 687.744C869.019 683.317 869.158 678.85 869.158 674.368C869.158 646.24 864.787 619.114 856.664 593.681C849.602 590.34 841.964 588.289 833.868 587.924C823.746 587.469 813.013 589.471 802.175 594.204C771.362 607.661 748.029 639.676 739.935 674.923C709.542 643.469 651.279 630.89 591.023 646.894C512.565 667.734 460.641 729.001 475.078 783.738C489.128 837.002 560.835 864.296 636.975 846.534C616.425 870.429 604.833 893.961 607.67 910.54C609.193 919.437 616.304 929.378 626.902 938.178C704.005 931.656 771.73 892.19 815.814 833.811C818.75 823.102 821.027 812.814 822.224 803.917C830.757 797.977 839.267 789.548 847.343 779.682C855.773 760.256 861.906 739.629 865.495 718.129Z" fill="#F9B192"/>
<path d="M604.301 401.629C453.687 401.629 331.596 523.754 331.596 674.368C331.596 824.981 453.687 947.074 604.301 947.074C754.915 947.074 877.007 824.981 877.007 674.368C877.007 523.754 754.916 401.629 604.301 401.629ZM604.301 417.328C746.245 417.328 861.308 532.424 861.308 674.368C861.308 816.311 746.245 931.375 604.301 931.375C462.357 931.375 347.295 816.311 347.295 674.368C347.295 532.424 462.357 417.328 604.301 417.328Z" fill="black"/>
<path d="M604.301 401.629C453.687 401.629 331.596 523.754 331.596 674.368C331.596 824.981 453.687 947.074 604.301 947.074C754.915 947.074 877.007 824.981 877.007 674.368C877.007 523.754 754.916 401.629 604.301 401.629ZM604.301 417.328C746.245 417.328 861.308 532.424 861.308 674.368C861.308 816.311 746.245 931.375 604.301 931.375C462.357 931.375 347.295 816.311 347.295 674.368C347.295 532.424 462.357 417.328 604.301 417.328Z" fill="black"/>
<path d="M661.145 715.153C658.086 715.117 655.152 716.883 653.851 719.863C648.361 732.442 639.324 740.632 627.457 745.406C616.905 749.651 605.602 750.728 595.994 749.985C595.114 749.917 594.528 749.854 594.293 749.822C589.999 749.225 586.026 752.232 585.43 756.526C584.834 760.82 587.841 764.761 592.134 765.357C592.675 765.432 593.577 765.525 594.783 765.619C606.591 766.531 620.168 765.249 633.312 759.96C648.834 753.716 661.021 742.686 668.242 726.142C669.976 722.168 668.16 717.541 664.187 715.807C663.193 715.374 662.165 715.164 661.145 715.153Z" fill="black"/>
<path d="M803.842 672.046C801.867 671.682 799.741 672.059 797.955 673.289C794.386 675.749 793.501 680.643 795.961 684.212C796.131 684.459 796.397 684.85 796.778 685.357C797.382 686.158 798.083 687.032 798.871 687.974C801.108 690.644 803.683 693.319 806.525 695.823C812.612 701.189 819.207 705.113 826.344 706.911C835.655 709.257 845.046 707.713 853.818 701.711C857.396 699.263 858.328 694.364 855.879 690.787C853.431 687.209 848.532 686.311 844.955 688.759C835.876 694.971 826.624 692.627 816.893 684.049C814.687 682.105 812.664 679.998 810.907 677.9C810.299 677.173 809.781 676.495 809.337 675.905C809.19 675.709 808.878 675.314 808.88 675.316C807.65 673.532 805.818 672.41 803.842 672.046Z" fill="black"/>
<path d="M639.657 745.7C634.533 745.7 630.66 748.91 628.308 753.517C626.566 756.931 625.659 761.191 625.658 765.619C625.658 770.046 626.565 774.306 628.308 777.72C630.66 782.327 634.533 785.537 639.657 785.537C644.781 785.537 648.654 782.327 651.006 777.72C652.749 774.306 653.656 770.046 653.655 765.619C653.655 761.191 652.749 756.931 651.006 753.517C648.654 748.91 644.781 745.7 639.657 745.7Z" fill="black"/>
<path d="M827.26 692.782C818.7 692.782 813.622 701.077 813.622 710.083C813.622 719.089 818.7 727.417 827.26 727.418C835.822 727.418 840.932 719.089 840.932 710.083C840.932 701.077 835.822 692.782 827.26 692.782Z" fill="black"/>
<path d="M769.01 841.629C765.988 841.162 762.837 842.492 761.128 845.258C755.394 854.544 750.44 859.081 746.639 860.173C744.825 860.694 743.403 860.286 741.929 859.126C741.512 858.797 741.12 858.457 740.818 858.113C740.677 857.952 740.639 857.879 740.687 857.949C737.629 853.466 731.062 853.368 727.866 857.753C717.268 872.293 708.086 879.135 700.589 880.222C695.731 880.926 691.475 879.086 687.604 875.283C686.351 874.052 685.253 872.721 684.334 871.391C684.02 870.936 683.729 870.505 683.516 870.149C683.41 869.971 683.382 869.881 683.386 869.887C681.364 866.051 676.591 864.594 672.755 866.617C668.92 868.638 667.464 873.378 669.485 877.213C669.609 877.448 669.788 877.77 670.041 878.194C670.427 878.84 670.899 879.54 671.415 880.287C672.869 882.393 674.571 884.494 676.583 886.469C683.661 893.422 692.535 897.252 702.845 895.757C713.485 894.215 724.245 886.678 735.257 873.419C739.825 875.983 745.137 876.922 750.956 875.251C759.107 872.909 766.873 865.806 774.473 853.501C776.751 849.812 775.61 844.986 771.921 842.708C770.999 842.139 770.018 841.784 769.01 841.629Z" fill="black"/>
<path d="M672.363 774.58L650.679 810.165L664.088 818.342L685.773 782.757L672.363 774.58Z" fill="#FF0000" fill-opacity="0.5"/>
<path d="M720.932 751.392L678.938 821.318L692.413 829.429L734.408 759.471L720.932 751.392Z" fill="#FF0000" fill-opacity="0.5"/>
<path d="M753.344 747.499L714.456 815.037L728.062 822.855L766.949 755.349L753.344 747.499Z" fill="#FF0000" fill-opacity="0.5"/>
<path d="M778.986 746.028L745.985 805.063L759.69 812.717L792.69 753.681L778.986 746.028Z" fill="#FF0000" fill-opacity="0.5"/>
<path d="M795.405 760.713L778.594 791.784L792.396 799.242L809.207 768.17L795.405 760.713Z" fill="#FF0000" fill-opacity="0.5"/>
<path d="M834.228 580.075C822.686 579.556 810.758 581.889 799.036 587.009C770.089 599.651 746.841 627.638 735.847 660.795C701.134 633.184 645.014 624.427 588.995 639.307C506.809 661.137 451.764 726.109 467.49 785.733C481.446 838.639 546.114 867.529 618.332 857.818C604.259 878.002 597.35 896.841 599.919 911.849C601.783 922.745 609.818 934.199 621.898 944.229C623.482 945.544 625.502 946.168 627.556 945.994C705.313 939.419 775.689 900.007 822.093 838.554C822.693 837.76 823.105 836.831 823.369 835.873C826.154 825.713 828.139 816.535 829.42 808.301C837.425 802.28 845.493 794.346 853.426 784.654C853.885 784.093 854.249 783.487 854.538 782.822C863.282 762.674 869.578 741.422 873.246 719.438C873.246 719.438 873.76 716.349 873.868 715.644C874.3 712.804 874.613 710.255 875.143 705.635C875.183 705.278 875.533 702.583 875.601 701.907C875.897 698.968 876.117 695.921 876.354 692.291C876.377 691.934 876.611 688.876 876.648 688.137C876.89 683.27 877.008 678.74 877.008 674.368C877.008 645.836 872.647 617.889 864.153 591.294C863.492 589.222 861.999 587.515 860.033 586.584C851.835 582.705 843.169 580.478 834.228 580.075ZM833.508 595.774C839.223 596.032 844.76 597.471 850.155 599.634C857.436 623.629 861.308 648.719 861.309 674.368C861.309 678.461 861.179 682.731 860.949 687.352C860.918 687.961 860.744 690.853 860.719 691.245C860.494 694.701 860.243 697.603 859.967 700.337C859.914 700.868 859.621 703.457 859.574 703.87C859.066 708.302 858.76 710.693 858.365 713.289C858.281 713.84 857.803 716.493 857.743 716.854C857.743 716.854 848.652 756.218 840.507 775.529C832.784 784.842 825.086 792.362 817.744 797.475C815.937 798.732 814.734 800.691 814.44 802.871C813.394 810.645 811.392 819.985 808.651 830.181C765.579 886.573 701.047 922.983 629.583 929.969C621.577 922.748 616.453 915.261 615.421 909.232C613.162 896.03 623.108 874.683 642.927 851.637C647.878 845.88 642.569 837.157 635.176 838.882C562.429 855.851 495.398 830.011 482.666 781.743C469.521 731.902 518.31 674.335 593.05 654.483C649.492 639.491 705.354 650.452 734.277 680.386C738.606 684.867 746.194 682.762 747.588 676.69C755.362 642.841 777.63 613.49 805.315 601.4C814.881 597.222 824.416 595.365 833.508 595.774Z" fill="black" fill-opacity="0.5"/>
<path d="M562.528 857.338C561.007 846.361 576.153 834.285 596.355 830.367C616.559 826.449 634.17 832.17 635.691 843.147C637.212 854.123 622.066 866.199 601.863 870.117C581.659 874.037 564.049 868.315 562.528 857.338Z" fill="#FF497F" stroke="black" stroke-width="0.0122978" stroke-miterlimit="10" stroke-linejoin="round"/>
<path d="M823.455 774.685C821.934 763.708 837.08 751.633 857.283 747.714C877.487 743.795 895.098 749.517 896.619 760.494C898.139 771.471 882.994 783.545 862.79 787.465C842.587 791.383 824.977 785.661 823.455 774.685Z" fill="#FF497F" stroke="black" stroke-width="0.0122978" stroke-miterlimit="10" stroke-linejoin="round"/>
<path d="M612.249 821.351C606.749 821.065 600.855 821.494 594.849 822.659C571.08 827.269 552.491 842.092 554.751 858.407C557.084 875.244 579.333 882.493 603.353 877.834C627.122 873.223 645.711 858.368 643.45 842.054C641.702 829.425 628.75 822.207 612.249 821.351ZM610.188 837.016C614.054 837.123 617.594 837.679 620.589 838.652C625.333 840.193 627.65 842.298 627.916 844.212C628.213 846.361 626.376 849.674 622.029 853.141C616.76 857.341 609.016 860.722 600.376 862.396C591.786 864.063 583.602 863.786 577.613 861.841C572.87 860.3 570.552 858.162 570.287 856.248C569.989 854.099 571.826 850.818 576.174 847.351C581.442 843.151 589.219 839.738 597.858 838.063C602.154 837.23 606.323 836.911 610.188 837.016Z" fill="black"/>
<path d="M873.18 738.702C867.68 738.416 861.786 738.845 855.78 740.01C832.012 744.62 813.422 759.444 815.683 775.758C818.016 792.596 840.265 799.844 864.284 795.186C888.054 790.575 906.642 775.719 904.383 759.405C902.633 746.776 889.682 739.559 873.18 738.702ZM871.121 754.335C874.986 754.441 878.526 754.997 881.521 755.971C886.264 757.511 888.582 759.649 888.847 761.564C889.145 763.712 887.307 767.026 882.96 770.492C877.691 774.692 869.947 778.072 861.309 779.748C852.718 781.415 844.534 781.137 838.545 779.192C833.802 777.651 831.484 775.513 831.219 773.6C830.92 771.45 832.758 768.17 837.106 764.704C842.375 760.502 850.151 757.089 858.789 755.415C863.085 754.581 867.254 754.229 871.121 754.335Z" fill="black"/>
<path d="M387.807 818.212C387.807 818.212 343.78 825.808 307.397 804.757C271.013 783.706 246.666 744.835 251.539 720.879C256.412 696.923 270.619 665.186 295.422 663.588C320.227 661.991 339.174 679.005 365.893 712.992" fill="#F3886D"/>
<path d="M387.807 818.212C387.807 818.212 343.78 825.808 307.397 804.757C271.013 783.706 246.666 744.835 251.539 720.879C256.412 696.923 270.619 665.186 295.422 663.588C320.227 661.991 339.174 679.005 365.893 712.992" stroke="black" stroke-width="0.0122978" stroke-miterlimit="10" stroke-linejoin="round"/>
<path d="M260.198 694.547C256.156 703.208 253.235 712.498 251.531 720.877C246.658 744.832 271.01 783.717 307.393 804.768C335.561 821.065 367.727 820.188 381.081 818.962C350.701 729.399 296.878 702.278 260.198 694.547Z" fill="#F9B192"/>
<path d="M295.52 702.463C292.51 703.008 289.986 705.308 289.273 708.481C288.323 712.71 290.996 716.916 295.226 717.868C295.214 717.864 295.361 717.899 295.683 717.998C296.339 718.199 297.117 718.478 298.038 718.848C300.813 719.964 303.978 721.586 307.425 723.787C317.572 730.264 327.842 740.209 337.548 754.433C338.656 756.057 339.769 757.746 340.851 759.47C343.156 763.142 347.973 764.227 351.644 761.922C355.316 759.618 356.435 754.769 354.13 751.097C352.942 749.205 351.753 747.36 350.532 745.569C339.63 729.593 327.796 718.157 315.863 710.541C311.583 707.809 307.558 705.767 303.893 704.294C302.56 703.758 301.365 703.314 300.295 702.986C299.582 702.766 299.039 702.646 298.66 702.561C297.603 702.322 296.524 702.28 295.52 702.463Z" fill="black"/>
<path d="M325.578 724.18C322.776 724.303 319.922 724.908 316.976 725.945C312.714 727.447 308.37 729.801 303.992 732.748C301.406 734.489 298.975 736.325 296.73 738.178C295.368 739.303 294.349 740.207 293.754 740.762C290.583 743.717 290.407 748.677 293.361 751.849C296.317 755.021 301.277 755.197 304.449 752.241C304.521 752.174 304.689 752.034 304.972 751.784C305.47 751.343 306.054 750.85 306.705 750.312C308.579 748.766 310.628 747.199 312.757 745.766C316.12 743.501 319.337 741.762 322.176 740.762C323.757 740.205 325.165 739.896 326.297 739.846C330.628 739.654 333.979 736 333.786 731.669C333.595 727.338 329.909 723.987 325.578 724.18Z" fill="black"/>
<path d="M294.931 655.758C280.625 656.679 268.694 665.394 259.445 679.568C252.175 690.713 246.75 705.021 243.845 719.307C238.057 747.757 265.318 789.464 303.469 811.539C304.311 812.025 305.167 812.512 306.019 812.978C319.719 820.45 334.275 824.864 349.127 826.779C359.731 828.147 369.469 828.12 377.744 827.27C379.917 827.047 381.495 826.82 382.421 826.649C386.684 825.862 389.489 821.786 388.701 817.523C387.914 813.261 383.839 810.424 379.576 811.211C379.578 811.211 379.042 811.305 378.791 811.342C378.038 811.452 377.172 811.564 376.142 811.67C369.003 812.402 360.478 812.413 351.154 811.211C338.143 809.534 325.429 805.691 313.542 799.208C312.805 798.806 312.047 798.387 311.318 797.965C278.393 778.915 255.009 743.133 259.216 722.447C264.93 694.36 279.193 672.501 295.913 671.425C315.472 670.165 331.711 682.205 359.724 717.834C362.403 721.243 367.338 721.855 370.745 719.176C374.153 716.496 374.733 711.562 372.054 708.153C357.025 689.038 345.701 676.886 334.605 668.644C321.768 659.109 309.054 654.849 294.931 655.758Z" fill="black"/>
<path d="M406.537 577.132C406.537 577.132 340.406 533.534 371.217 458.096C402.029 382.657 494.975 393.271 550.134 329.676C602.932 268.803 596.153 242.26 596.153 242.26C596.153 242.26 627.187 301.726 650.94 321.907C674.691 342.088 733.672 371.888 768.021 388.464C825.39 416.146 853.851 486.214 806.922 535.886C759.995 585.559 548.138 659.652 406.537 577.132Z" fill="#93E9CA"/>
<path d="M826.77 454.744C793.217 504.661 766.716 555.509 620.654 584.818C503.892 608.247 412.768 558.597 367.932 526.044C379.251 559.008 406.525 577.132 406.525 577.132C548.127 659.652 759.99 585.561 806.917 535.889C830.149 511.298 834.851 481.715 826.77 454.744Z" fill="#82D4D5"/>
<path d="M596.157 242.251C596.157 242.251 602.937 268.802 550.139 329.675C527.591 355.673 498.753 369.208 470.401 381.351C515.592 428.305 635.799 467.406 746.312 377.721C712.546 360.856 670.316 338.354 650.941 321.891C627.188 301.71 596.157 242.251 596.157 242.251Z" fill="#B7F2CC"/>
<path d="M596.157 242.251C596.157 242.251 602.514 267.778 553.312 325.914C586.937 343.334 606.842 356.06 650.581 321.531C626.874 301.068 596.157 242.251 596.157 242.251Z" fill="#DFFFEA"/>
<path d="M407.566 577.11C407.566 577.11 341.434 533.513 372.246 458.074C403.057 382.635 496.004 393.249 551.163 329.654C603.961 268.781 597.181 242.239 597.181 242.239C597.181 242.239 628.216 301.704 651.968 321.886C675.72 342.066 734.701 371.867 769.049 388.443C826.418 416.125 854.879 486.192 807.952 535.865C761.023 585.537 549.166 659.631 407.566 577.11Z" fill="#AF93E5"/>
<path d="M597.185 242.229C597.185 242.23 603.966 268.781 551.168 329.654C528.619 355.651 499.782 369.186 471.429 381.33C516.621 428.284 636.827 467.384 747.34 377.699C713.574 360.835 671.344 338.332 651.968 321.869C628.216 301.689 597.185 242.229 597.185 242.229Z" fill="#ABACE3"/>
<path d="M597.185 242.229C597.185 242.23 603.543 267.757 554.34 325.892C587.966 343.313 607.87 356.039 651.609 321.509C627.903 301.047 597.185 242.229 597.185 242.229Z" fill="#C3C4E1"/>
<path d="M827.827 451.5C794.274 501.416 767.773 552.264 621.712 581.574C504.949 605.004 413.825 555.352 368.99 522.8C380.308 555.764 407.583 573.887 407.583 573.887C549.185 656.409 761.047 582.317 807.974 532.645C831.206 508.055 835.908 478.47 827.827 451.5Z" fill="#B876D1"/>
<path d="M595.994 234.369C591.464 234.553 587.095 238.568 588.537 244.213C588.491 244.035 588.492 243.986 588.504 244.083C588.655 245.288 588.633 247.22 588.242 249.905C587.637 254.055 586.255 259.006 583.925 264.819C577.423 281.032 564.723 300.903 544.22 324.54C527.15 344.221 506.874 356.918 473.606 371.474C470.963 372.631 456.801 378.641 456.043 378.964C429.979 390.049 416.548 396.743 402.961 406.469C385.129 419.236 372.25 434.795 363.942 455.137C354.86 477.375 353.069 498.527 357.499 518.325C361.08 534.33 368.522 548.699 378.659 561.334C383.743 567.669 389.2 573.156 394.654 577.818C396.577 579.463 398.358 580.893 399.984 582.103C400.998 582.856 401.749 583.37 402.208 583.673C402.329 583.753 402.444 583.829 402.568 583.902C468.679 622.43 554.257 630.642 643.68 613.795C716.903 600.001 785.89 569.602 812.641 541.286C836.863 515.648 843.894 483.239 834.097 451.604C824.939 422.038 801.78 396.029 771.431 381.384C718.624 355.902 674.944 332.026 656.01 315.938C652.15 312.659 647.793 307.923 643.025 301.94C638.304 296.014 633.288 288.967 628.111 281.074C622.028 271.797 616.034 261.837 610.385 251.867C608.407 248.375 606.593 245.123 605.021 242.219C604.473 241.205 603.203 238.773 603.124 238.62C601.507 235.521 598.711 234.258 595.994 234.369ZM600.278 265.669C605.041 273.863 609.954 282.019 614.996 289.708C620.419 297.977 625.674 305.377 630.728 311.719C636.076 318.431 641.131 323.849 645.871 327.877C666.243 345.186 710.415 369.402 764.595 395.546C791.101 408.336 811.244 430.937 819.084 456.249C827.231 482.553 821.494 509.039 801.226 530.492C777.136 555.991 711.034 585.121 640.769 598.358C554.824 614.549 473.051 606.757 410.647 570.46C410.389 570.285 410.012 570.011 409.339 569.512C407.992 568.51 406.47 567.287 404.825 565.881C400.082 561.826 395.358 557.016 390.925 551.49C382.199 540.614 375.822 528.376 372.806 514.891C369.077 498.227 370.624 480.332 378.496 461.057C385.636 443.577 396.6 430.334 412.118 419.225C424.487 410.371 437.148 404.072 462.192 393.42C462.94 393.101 477.19 387.011 479.886 385.833C515.105 370.422 537.132 356.631 556.059 334.811C577.641 309.928 591.311 288.63 598.512 270.673C599.223 268.902 599.71 267.319 600.278 265.669Z" fill="black"/>
<path d="M557.702 260.631C557.702 239.77 574.613 222.858 595.475 222.858C616.336 222.858 633.247 239.77 633.247 260.631C633.247 281.492 616.336 298.404 595.475 298.404C574.613 298.404 557.702 281.492 557.702 260.631Z" fill="#FFA0CA"/>
<path d="M558.73 260.608C558.73 239.747 575.642 222.836 596.503 222.836C617.364 222.836 634.276 239.747 634.276 260.608C634.276 281.47 617.364 298.381 596.503 298.381C575.642 298.381 558.73 281.47 558.73 260.608Z" fill="#FFD000"/>
<path d="M595.471 215.007C570.274 215.007 549.846 235.436 549.846 260.633C549.846 285.828 570.274 306.257 595.471 306.257C620.667 306.257 641.096 285.828 641.096 260.633C641.096 235.436 620.667 215.007 595.471 215.007ZM595.471 230.706C611.997 230.706 625.397 244.106 625.397 260.633C625.397 277.158 611.997 290.558 595.471 290.558C578.944 290.558 565.545 277.158 565.545 260.633C565.545 244.106 578.945 230.706 595.471 230.706Z" fill="black"/>
<path opacity="0.202659" d="M834.079 479.215C598.67 663.609 359.216 510.025 359.216 510.025L369.093 552.543L360.917 558.855L338.971 614.522L335.275 672.575L355.193 699.885C359.916 719.118 311.988 718.79 311.988 718.79L266.427 764.676L309.306 804.481L379.919 827.08L425.38 873.621L492.266 917.48L556.467 949.075L639.902 943.711L705.184 927.652L750.646 897.17C697.275 898.094 651.594 887.024 612.617 868.528C603.509 864.206 578.161 869.592 569.773 864.517C562.954 860.392 572.976 845.924 566.616 841.371C492.31 788.168 460.766 746.516 442.137 704.003C437.69 693.857 502.356 651.371 511.44 650.085C520.524 648.799 613.246 639.51 613.246 639.51L721.734 611.479L781.03 575.013L825.772 522.878L834.079 479.215Z" fill="black"/>
</g>
</svg>
