<svg width="800" height="800" viewBox="0 0 800 800" fill="none" xmlns="http://www.w3.org/2000/svg">
<path d="M156.034 566.33C156.034 566.33 120.343 563.047 106.504 584.099C92.6643 605.151 98.2246 682.116 212.798 681.735" fill="#F3886D"/>
<path d="M148.187 556.019C141.027 556.18 133.296 557.171 125.693 559.422C113.89 562.915 104.284 569.063 98.0523 578.542C87.4426 594.681 88.4819 623.798 102.973 646.418C121.449 675.258 158.232 692.038 212.83 691.857L212.773 671.612C164.639 671.772 134.427 658.01 120.013 635.509C114.498 626.9 111.604 617.276 111.268 607.925C110.989 600.15 112.57 593.271 114.952 589.648C118.233 584.657 123.871 581.068 131.457 578.823C139.032 576.581 147.233 576 154.092 576.349C154.417 576.365 155.104 576.405 155.104 576.405L156.96 556.244C156.573 556.209 155.957 556.174 155.132 556.132C152.895 556.018 150.574 555.966 148.187 556.019Z" fill="black"/>
<path d="M562.806 384.232C562.806 384.232 567 355.125 586.306 311.506C605.611 267.888 640.026 209.759 700.467 151.715C700.467 151.715 694.988 144.695 682.959 141.014C670.931 137.332 652.354 136.99 626.157 150.345C626.157 150.345 627.594 140.785 626.308 127.364C625.022 113.943 621.014 96.662 610.124 81.2212C610.124 81.2212 602.044 81.0474 590.334 84.8426C578.624 88.6378 563.284 96.4021 548.761 112.279C548.761 112.279 546.341 98.8535 541.9 84.3261C537.459 69.7987 530.997 54.1688 522.911 49.7585C522.911 49.7585 513.484 50.882 500.651 57.3426C487.818 63.8033 471.58 75.6011 457.96 96.9497C457.96 96.9497 456.203 87.298 450.589 75.4838C444.974 63.6696 435.5 49.693 420.066 41.043C420.066 41.043 411.903 43.4189 401.327 52.0914C390.751 60.764 377.762 75.7331 368.111 100.92C368.111 100.92 362.955 90.7615 354.221 78.8715C345.488 66.9815 333.177 53.3595 318.867 46.4316C318.867 46.4316 310.368 50.8493 301.215 61.7743C292.062 72.6992 282.254 90.1313 279.635 116.16C279.635 116.16 271.969 111.499 258.423 106.424C244.877 101.349 225.451 95.8606 201.932 94.2064C201.932 94.2064 216.335 110.157 231.685 146.529C247.034 182.902 263.329 239.696 267.112 321.384C267.112 321.384 300.536 325.89 354.209 335.999C407.883 346.108 481.806 361.82 562.806 384.232Z" fill="#AF93E5"/>
<path d="M261.578 242.32C261.578 242.32 299.032 147.906 350.139 148.598C401.246 149.291 448.056 204.799 451.515 269.855C451.515 269.855 471.573 278.539 495.55 291.738C530.452 310.95 573.658 339.73 575.401 365.224C578.34 408.232 546.472 388.883 546.472 388.883L360.648 348.771L277.139 352.566L264.315 316.061L261.578 242.32Z" fill="#ABACE3"/>
<path d="M280.281 249.579L307.052 225.996L299.768 191.143L336.347 195.876L351.745 159.273L370.336 193.539L396.314 181.655L392.621 216.393L423.458 231.332L387.794 253.494L415.844 296.915L368.21 281.386L353.537 322.872L337.253 281.599L297.964 303.338L316.019 260.904L280.281 249.579Z" fill="#C3C4E1"/>
<path d="M630.566 144.588C630.566 144.588 558.855 221.723 528.724 343.452C498.593 465.181 566.086 383.225 566.086 383.225L591.602 303.777L625.196 240.508C625.196 240.508 650.392 208.873 656.831 202.434C663.27 195.995 692.105 161.281 692.105 161.281L703.023 147.843L685.666 136.645L658.79 138.045L630.566 144.588Z" fill="#B876D1"/>
<path d="M536.147 317.082C533.487 325.644 530.969 334.387 528.724 343.457C524.437 360.777 522.279 373.601 521.469 383.497L546.466 388.895C546.466 388.895 551.426 391.791 557.235 392.804C562.313 387.653 566.092 383.215 566.092 383.215L573.993 358.64C569.473 344.75 554.357 330.258 536.147 317.082Z" fill="#AF93E5"/>
<path d="M358.518 201.781C358.518 201.781 334.746 206.152 330.162 214.041C325.578 221.929 326.217 244.956 330.055 251.459C333.893 257.962 347.858 272.673 358.412 269.901C358.412 269.901 393.165 242.611 358.518 201.781Z" fill="#FFD000"/>
<path d="M357.383 198.698C356.793 198.649 356.182 198.672 355.584 198.782C354.564 198.97 352.863 199.305 350.691 199.823C347.074 200.686 343.458 201.725 340.035 202.916C331.491 205.888 325.485 209.294 322.574 214.303C316.963 223.959 317.188 249.606 322.489 258.589C325.138 263.077 330.371 268.916 335.817 273.182C343.414 279.133 351.096 282.08 358.424 280.155C359.323 279.919 360.167 279.492 360.898 278.918C361.115 278.748 361.441 278.494 361.854 278.131C362.493 277.57 363.192 276.908 363.935 276.163C366.019 274.072 368.103 271.633 370.036 268.852C375.603 260.844 378.965 251.603 378.978 241.268C378.993 228.228 373.577 214.709 361.995 201.06C360.815 199.669 359.154 198.845 357.383 198.698ZM353.981 213.01C361.735 223.083 365.407 232.5 365.397 241.24C365.388 248.563 362.963 255.209 358.874 261.092C357.421 263.181 355.862 265.026 354.319 266.574C354.143 266.751 354.005 266.866 353.841 267.024C348.545 266.961 338.428 258.812 334.214 251.672C331.397 246.898 331.2 226.517 334.327 221.136C334.581 220.698 335.591 219.82 337.279 218.859C339.155 217.789 341.604 216.737 344.477 215.737C347.424 214.713 350.634 213.803 353.841 213.038C353.892 213.026 353.931 213.022 353.981 213.01Z" fill="black"/>
<path d="M419.523 34.5188C418.18 34.3654 416.797 34.4711 415.474 34.8562C414.946 35.0099 414.196 35.2694 413.224 35.6435C411.761 36.207 410.128 36.9264 408.36 37.8086C403.485 40.2413 398.328 43.5253 393.092 47.8185C382.531 56.4791 373.044 68.0531 365.143 82.7409C363.734 80.6548 362.32 78.5604 360.785 76.4706C348.966 60.3797 335.963 47.7774 321.645 40.8453C318.724 39.4313 315.301 39.4892 312.422 40.9859C311.926 41.2438 311.191 41.6698 310.257 42.2512C308.824 43.1429 307.243 44.2137 305.561 45.4848C300.876 49.0249 296.165 53.444 291.643 58.8407C281.474 70.9776 273.94 86.1567 270.02 104.42C266.993 103.088 263.781 101.78 260.32 100.483C242.504 93.8086 222.557 89.1541 200.935 87.6334C191.707 86.9844 186.412 97.8915 192.612 104.757C192.637 104.785 192.744 104.956 192.978 105.235C193.421 105.766 193.968 106.409 194.58 107.204C196.397 109.561 198.45 112.481 200.71 115.976C207.286 126.145 214.024 138.832 220.505 154.189C239.216 198.527 251.892 255.262 255.146 325.539C255.376 330.498 259.111 334.576 264.031 335.239C264.083 335.246 268.274 335.832 269.992 336.083C274.916 336.802 280.68 337.687 287.228 338.726C305.965 341.699 327.224 345.372 350.606 349.776C417.432 362.362 487.791 378.273 558.369 397.801C564.336 399.452 570.392 395.494 571.275 389.366C571.294 389.233 571.346 388.891 571.444 388.326C571.617 387.324 571.835 386.118 572.118 384.727C572.943 380.677 574.065 375.964 575.521 370.611C579.715 355.188 585.763 337.95 593.994 319.353C617.601 266.014 653.987 212.622 705.875 162.793C709.675 159.143 710.1 153.224 706.859 149.071C706.221 148.253 705.211 147.129 703.822 145.838C701.69 143.855 699.154 141.92 696.174 140.13C692.615 137.991 688.634 136.213 684.252 134.872C670.294 130.6 653.895 131.378 635.243 138.161C635.159 135.514 635.092 132.894 634.821 130.063C633.056 111.638 627.494 94.0994 616.826 78.9731C614.945 76.3071 611.905 74.685 608.643 74.6148C608.582 74.6136 608.565 74.616 608.475 74.6148C606.77 74.5963 604.292 74.7362 601.136 75.1491C596.283 75.7839 591.002 76.9477 585.446 78.7482C574.238 82.3808 563.297 88.1927 552.998 96.4062C552.02 92.5843 551.163 88.7377 550.018 84.9903C543.651 64.1616 536.5 50.0795 526.118 44.4163C524.244 43.3946 522.107 42.9828 519.988 43.2353C519.461 43.2981 518.649 43.4291 517.598 43.629C515.977 43.9373 514.174 44.3439 512.171 44.8943C506.585 46.4293 500.56 48.6963 494.316 51.8394C481.884 58.0983 470.222 66.9974 459.872 78.7763C459.298 77.435 458.798 76.1055 458.157 74.7554C450.297 58.2174 438.96 44.4904 423.375 35.756C422.173 35.0823 420.865 34.6723 419.523 34.5188ZM417.442 56.2539C426.864 62.7294 434.184 72.1628 439.599 83.5563C441.809 88.206 443.52 92.8556 444.801 97.2216C445.243 98.7289 445.597 100.069 445.869 101.243C446.021 101.897 446.124 102.307 446.15 102.452C447.823 111.643 459.881 114.039 464.905 106.163C475.793 89.0967 489.126 77.4706 503.567 70.2003C508.553 67.6903 513.281 65.9035 517.598 64.7174C517.928 64.6265 518.157 64.6008 518.47 64.5205C522.024 68.7271 526.48 78.3022 530.363 91.0075C532.223 97.0906 533.859 103.45 535.256 109.678C535.745 111.858 536.166 113.86 536.521 115.639C536.644 116.255 536.929 117.7 536.943 117.776C538.452 126.147 548.888 129.17 554.629 122.893C566.091 110.364 578.8 102.504 591.801 98.2901C595.793 96.9961 599.513 96.2017 602.936 95.7032C609.357 106.541 613.12 118.886 614.379 132.032C615.021 138.726 614.979 144.835 614.548 149.971C614.483 150.746 614.418 151.435 614.351 151.995C614.316 152.294 614.301 152.462 614.295 152.501C613.053 160.768 621.665 166.983 629.113 163.186C649.756 152.663 665.867 150.741 678.235 154.526C680.023 155.073 681.65 155.745 683.184 156.494C633.868 205.811 598.525 258.353 575.211 311.03C566.55 330.599 560.158 348.814 555.698 365.213C554.675 368.972 554.016 372.008 553.279 375.223C485.67 356.85 418.42 341.645 354.402 329.588C330.82 325.146 309.36 321.428 290.434 318.425C284.633 317.504 279.699 316.766 275.138 316.091C273.837 293.616 271.591 272.459 268.496 252.598C262.126 211.71 252.163 176.313 239.456 146.203C233.742 132.663 227.776 121.08 221.826 111.14C232.884 113.227 243.408 116.077 253.122 119.716C258.705 121.808 263.626 123.976 267.827 126.071C269.269 126.79 270.506 127.438 271.539 128.011C272.116 128.331 272.454 128.553 272.579 128.629C279.039 132.557 287.4 128.391 288.156 120.869C290.236 100.193 297.242 84.1674 307.389 72.0561C310.727 68.0723 314.165 64.8536 317.511 62.2711C326.629 67.9854 335.714 77.033 344.223 88.6175C347.829 93.5267 351.085 98.513 353.896 103.267C354.874 104.921 355.708 106.419 356.426 107.738C356.672 108.19 357.223 109.219 357.242 109.256C361.274 117.2 372.809 116.59 375.996 108.272C383.8 87.9062 394.294 73.4185 406.139 63.7051C410.118 60.4424 413.939 58.0128 417.442 56.2539Z" fill="black"/>
<path d="M149.016 526.204C149.016 401.911 251.144 301.152 377.126 301.152C503.107 301.152 605.236 401.911 605.236 526.204C605.236 650.496 503.107 751.255 377.126 751.255C251.144 751.255 149.016 650.496 149.016 526.204Z" fill="#F3886D"/>
<path d="M438.84 343.084C393.744 343.084 348.438 373.786 325.862 412.929C312.556 378.854 278.46 356.075 247.104 356.075C207.107 356.075 155.525 432.546 155.525 482.886C155.524 511.123 174.389 524.765 198.011 531.305C195.582 539.731 194.13 548.483 194.13 557.539C194.13 618.8 258.038 712.215 339.443 697.987C413.294 685.08 438.84 615.539 438.84 554.277C438.84 550.524 438.613 546.833 438.221 543.199C496.039 538.656 541.133 501.676 541.133 445.827C541.133 386.127 502.361 343.084 438.84 343.084Z" fill="#F9B192"/>
<path d="M451.859 407.585C449.701 407.23 446.909 408.547 445.139 409.385C442.873 410.458 440.68 411.686 438.503 412.928C435.614 414.577 432.745 416.265 429.899 417.989C424.898 421.018 419.945 424.109 415.025 427.268C411.848 429.304 410.908 433.539 412.944 436.715C414.98 439.892 419.215 440.804 422.392 438.768C429.034 434.521 435.759 430.385 442.609 426.481C444.775 425.246 446.959 424.029 449.188 422.91C449.308 422.849 449.434 422.801 449.554 422.741C451.607 424.94 453.532 427.259 455.346 429.658C460.907 437.012 465.401 445.076 468.927 453.586C470.46 457.265 474.696 459.028 478.375 457.495C482.053 455.961 483.788 451.725 482.255 448.047C479.661 441.858 476.647 435.857 473.088 430.164C470.914 426.686 468.523 423.34 465.975 420.126C463.703 417.262 461.282 414.524 458.692 411.944C458.031 411.285 457.357 410.632 456.668 410.004C456.413 409.772 456.154 409.418 455.852 409.244C455.097 408.81 454.378 408.287 453.575 407.951C453.033 407.725 452.439 407.681 451.859 407.585ZM446.714 419.873C446.72 419.89 446.78 419.934 446.798 419.957C446.769 419.94 446.743 419.918 446.714 419.901C446.705 419.896 446.71 419.863 446.714 419.873Z" fill="black"/>
<path d="M234.901 403.819C234.357 403.724 233.815 403.863 233.27 403.959C230.325 404.478 227.762 406.29 225.566 408.233C223.372 410.175 221.418 412.364 219.549 414.616C215.713 419.236 212.206 424.159 208.836 429.125C205.795 433.606 202.846 438.16 200.035 442.79C198.075 446.014 199.089 450.193 202.313 452.153C205.537 454.114 209.744 453.1 211.704 449.876C216.858 441.424 222.388 433.105 228.659 425.441C230.408 423.304 232.24 421.176 234.283 419.312C234.415 419.191 234.569 419.093 234.704 418.974C234.743 419 234.778 419.032 234.817 419.058C236.579 420.248 238.244 421.547 239.85 422.939C244.587 427.043 248.605 431.837 251.941 437.138C254.071 440.506 258.526 441.519 261.894 439.388C265.262 437.257 266.275 432.802 264.144 429.434C258.793 421.017 251.95 413.551 243.702 407.896C242.433 407.026 241.133 406.18 239.794 405.421C239.31 405.147 238.714 404.68 238.163 404.55C237.083 404.295 235.994 404.008 234.901 403.819Z" fill="black"/>
<path d="M252.84 501.384C252.84 501.384 303.163 474.661 365.052 498.886C365.052 498.886 351.405 621.331 305.479 654.531C305.479 654.531 255.349 624.164 252.84 501.384Z" fill="#AC3A34"/>
<path d="M344.814 589.705C315.957 591.409 296.826 613.936 285.682 633.062C296.335 648.922 305.477 654.544 305.477 654.544C322.912 641.941 335.663 616.45 344.814 589.705Z" fill="#FF5A51"/>
<path d="M438.841 336.279C396.617 336.279 352.769 361.943 326.763 399.009C310.256 369.397 278.33 349.269 247.105 349.269C225.468 349.269 201.082 367.802 180.747 396.676C161.29 424.303 148.721 457.123 148.721 482.885C148.721 509.722 163.861 526.761 189.886 535.747C188.229 543.043 187.327 550.295 187.327 557.538C187.327 590.406 204.355 630.593 231.191 660.59C261.551 694.526 300.393 711.71 340.625 704.678C377.269 698.274 404.801 678.264 422.701 647.712C438.004 621.593 445.645 588.591 445.645 554.276C445.645 552.619 445.445 550.895 445.364 549.215C505.381 541.942 547.938 501.491 547.938 445.826C547.938 380.936 504.727 336.279 438.841 336.279ZM438.841 349.888C497.119 349.888 534.329 388.343 534.329 445.826C534.329 495.868 494.584 531.951 437.688 536.421C433.87 536.721 431.064 540.121 431.474 543.929C431.857 547.484 432.036 550.912 432.036 554.276C432.036 586.324 424.958 616.959 410.976 640.823C395.043 668.018 370.861 685.597 338.263 691.294C303.129 697.435 268.776 682.234 241.313 651.536C216.603 623.915 200.936 586.875 200.936 557.538C200.936 549.531 202.152 541.456 204.535 533.188C205.582 529.555 203.455 525.761 199.811 524.752C175.157 517.926 162.33 504.93 162.33 482.885C162.33 434.277 212.61 362.878 247.105 362.878C276.527 362.878 307.579 384.781 319.537 415.402C321.61 420.711 328.893 421.268 331.74 416.33C354.027 377.687 397.803 349.888 438.841 349.888Z" fill="black" fill-opacity="0.401653"/>
<path d="M377.121 294.355C247.407 294.355 142.225 398.148 142.225 526.215C142.225 654.281 247.407 758.046 377.121 758.046C506.835 758.046 612.018 654.281 612.018 526.215C612.018 398.148 506.835 294.355 377.121 294.355ZM377.121 307.936C499.37 307.936 598.437 405.695 598.437 526.215C598.437 646.734 499.37 744.465 377.121 744.465C254.872 744.465 155.806 646.734 155.806 526.215C155.806 405.695 254.872 307.936 377.121 307.936Z" fill="black"/>
<path d="M263.799 314.896C262.469 315.034 261.148 315.432 259.903 316.115C183.639 357.943 135.258 437.764 135.258 526.04C135.258 540.559 136.554 554.785 139.04 568.592C139.197 569.461 139.443 570.301 139.609 571.167C140.942 570.64 142.447 570.428 143.818 570.092C146.49 569.436 149.081 568.567 151.752 567.912C154.154 567.323 156.428 567.944 158.776 567.714C159.122 567.68 159.46 567.608 159.8 567.544C159.731 567.183 159.64 566.829 159.573 566.467C157.117 553.365 155.847 539.851 155.847 526.04C155.847 445.309 200.072 372.321 269.828 334.063C274.808 331.331 276.639 325.093 273.895 320.135C271.837 316.417 267.79 314.484 263.799 314.896ZM560.894 377.549C558.286 377.197 555.538 377.821 553.273 379.53C548.741 382.949 547.848 389.373 551.282 393.884C580.026 431.645 595.845 477.638 595.845 526.04C595.845 647 497.35 745.052 375.846 745.052C311.264 745.052 253.226 717.318 212.98 673.199C211.104 675.256 208.867 676.976 205.956 677.871C201.43 679.261 196.188 679.357 191.424 679.74C192.031 680.461 192.571 681.234 193.187 681.948C237.31 733.13 302.781 765.55 375.846 765.55C508.722 765.55 616.434 658.32 616.434 526.04C616.434 473.129 599.124 422.777 567.691 381.485C565.974 379.229 563.503 377.901 560.894 377.549Z" fill="black"/>
<path d="M413.386 516.556C414.928 504.422 434.903 496.675 458.001 499.252C481.1 501.83 498.575 513.755 497.033 525.889C495.492 538.022 475.517 545.769 452.418 543.192C429.32 540.615 411.845 528.69 413.386 516.556Z" fill="#FF497F"/>
<path d="M132.86 519.212C131.726 507.034 149.537 495.127 172.643 492.618C195.749 490.109 215.4 497.948 216.534 510.126C217.669 522.305 199.858 534.211 176.752 536.72C153.646 539.229 133.995 531.39 132.86 519.212Z" fill="#FF497F"/>
<path d="M181.562 486.034C178.436 486.021 175.229 486.187 171.973 486.54C145.983 489.363 125.219 503.237 126.76 519.776C128.312 536.431 151.353 545.633 177.4 542.804C203.391 539.982 224.154 526.107 222.614 509.569C221.256 494.995 203.442 486.126 181.562 486.034ZM180.662 498.265C197.294 498.146 209.811 503.955 210.439 510.694C211.167 518.512 196.3 528.462 176.079 530.657C155.914 532.847 139.652 526.352 138.935 518.651C138.207 510.832 153.074 500.883 173.295 498.687C175.816 498.414 178.286 498.283 180.662 498.265Z" fill="black"/>
<path d="M449.104 492.643C427.213 492.654 409.153 501.366 407.321 515.784C405.212 532.378 425.708 546.367 451.747 549.272C477.729 552.171 500.997 543.143 503.09 526.665C505.198 510.071 484.731 496.082 458.692 493.177C455.444 492.815 452.231 492.641 449.104 492.643ZM449.919 504.874C452.312 504.898 454.787 505.042 457.314 505.324C477.472 507.573 491.946 517.446 490.971 525.119C489.982 532.909 473.311 539.38 453.097 537.125C432.938 534.876 418.465 525.003 419.44 517.33C420.306 510.514 433.173 504.707 449.919 504.874Z" fill="black"/>
<path d="M309.133 481.957C294.026 482.21 279.934 484.653 267.153 488.565C262.395 490.021 258.136 491.573 254.444 493.148C253.133 493.707 251.976 494.247 250.986 494.723C250.362 495.022 249.93 495.228 249.664 495.369C247.4 496.572 245.984 498.964 246.037 501.527C247.132 555.099 257.106 595.835 273.142 625.442C279.214 636.652 285.781 645.517 292.403 652.267C294.775 654.685 296.977 656.664 299.011 658.256C299.752 658.836 300.439 659.335 301.035 659.746C301.435 660.021 301.748 660.206 301.963 660.337C304.298 661.751 307.259 661.627 309.471 660.027C328.302 646.415 342.856 619.438 354.234 582.844C359.9 564.621 364.408 545.143 367.871 525.68C369.083 518.873 370.085 512.551 370.88 506.869C371.159 504.875 371.704 500.552 371.752 500.149C371.781 499.902 371.797 499.738 371.808 499.643C372.149 496.587 370.397 493.678 367.534 492.558C348.05 484.931 328.443 481.634 309.133 481.957ZM309.386 495.538C325.334 495.271 341.477 497.876 357.608 503.523C357.538 504.04 357.489 504.432 357.412 504.986C356.639 510.506 355.668 516.655 354.487 523.29C351.117 542.234 346.751 561.173 341.272 578.795C331.588 609.94 319.498 633.216 305.394 645.715C304.32 644.777 303.317 643.972 302.104 642.735C296.366 636.886 290.557 629.064 285.093 618.975C270.573 592.169 261.314 554.891 259.815 505.66C263.071 504.272 266.843 502.864 271.118 501.555C282.738 497.999 295.621 495.769 309.386 495.538Z" fill="black"/>
<path d="M344.42 582.928C329.465 583.811 316.058 589.709 304.24 599.658C294.769 607.631 286.661 617.867 279.805 629.632C278.495 631.881 278.579 634.698 280.03 636.858C284.98 644.227 290.04 650.13 294.933 654.713C296.69 656.359 298.302 657.736 299.769 658.846C300.713 659.561 301.436 660.048 301.906 660.337C304.245 661.775 307.244 661.665 309.47 660.055C326.652 647.634 340.266 624.012 351.253 591.898C352.817 587.327 349.242 582.644 344.42 582.928ZM334.382 598.449C326.019 619.938 316.303 636.127 305.393 645.8C304.979 645.435 304.654 645.202 304.212 644.787C300.888 641.674 297.416 637.529 293.921 632.753C304.948 615.176 318.425 602.963 334.382 598.449Z" fill="black"/>
<path d="M578.296 540.625C578.296 540.625 621.841 512.307 639.34 516.886C656.84 521.465 692.778 542.075 697.506 571.278C702.234 600.481 643.702 721.564 551.975 664.67" fill="#F3886D"/>
<path d="M632.533 508.812C623.953 509.438 615.417 512.713 607.596 516.125C600.85 519.067 594.296 522.437 587.877 526.031C583.232 528.632 578.625 531.319 574.158 534.219C570.625 536.512 569.615 541.248 571.908 544.781C574.202 548.314 578.907 549.325 582.44 547.031C587.513 543.738 592.785 540.701 598.096 537.812C604.21 534.487 610.456 531.367 616.908 528.75C620.8 527.172 624.774 525.766 628.877 524.844C631.153 524.332 633.566 523.894 635.908 524.062C637.833 524.201 639.703 524.92 641.502 525.562C644.035 526.466 646.512 527.532 648.94 528.688C658.43 533.204 667.413 539.204 674.908 546.594C680.316 551.926 685.073 558.157 687.846 565.281C688.881 567.942 689.772 570.851 689.94 573.719C690.256 579.123 688.754 584.933 687.221 590.062C684.39 599.535 680.251 608.626 675.377 617.219C673.124 621.191 670.704 625.064 668.096 628.812C654.401 648.491 634.776 666.482 610.408 670.719C606.926 671.324 603.38 671.642 599.846 671.656C594.516 671.677 589.188 671.035 584.002 669.812C574.087 667.476 564.844 663.115 556.19 657.812C552.395 655.49 547.418 656.674 545.096 660.469C542.774 664.264 543.988 669.209 547.783 671.531C557.905 677.716 568.729 682.721 580.314 685.438C587.606 687.147 595.108 687.943 602.596 687.656C607.427 687.471 612.254 686.808 616.971 685.75C649.277 678.505 674.197 652.044 689.69 624C695.147 614.121 699.74 603.671 702.752 592.781C704.538 586.324 705.945 579.455 705.502 572.719C705.3 569.647 704.608 566.596 703.721 563.656C702.08 558.221 699.542 553.1 696.408 548.375C687.283 534.617 673.234 523.847 658.658 516.375C654.769 514.381 650.748 512.618 646.627 511.156C644.314 510.336 641.957 509.515 639.533 509.094C637.234 508.694 634.857 508.643 632.533 508.812Z" fill="black"/>
<path d="M698.509 570.697C599.682 575.735 559.914 624.129 543.889 664.02C639.896 720.682 701.521 602.525 698.509 570.697Z" fill="#F9B192"/>
<path d="M663.728 567.154C655.017 568.16 646.331 569.611 637.832 571.794C621.322 576.032 605.423 582.756 591.437 592.573C585.798 596.531 580.472 600.991 575.748 606.013C573.354 608.558 570.992 611.246 569.14 614.223C567.151 617.43 568.127 621.654 571.333 623.643C574.54 625.632 578.764 624.656 580.753 621.45C580.736 621.476 580.877 621.276 580.893 621.253C580.951 621.168 580.974 621.114 581.034 621.028C581.196 620.795 581.371 620.553 581.54 620.325C582.015 619.682 582.493 619.057 583.002 618.441C584.55 616.566 586.234 614.791 587.979 613.099C593.027 608.203 598.713 603.976 604.737 600.361C623.093 589.347 644.232 583.866 665.359 581.494C669.319 581.043 672.164 577.469 671.714 573.509C671.263 569.549 667.688 566.703 663.728 567.154Z" fill="black"/>
<path d="M617.503 583.378C613.764 583.89 611.142 587.344 611.654 591.082C612.318 596.029 612.936 600.978 613.566 605.929C614.132 610.377 614.739 614.845 615.703 619.228C616.581 623.116 620.448 625.561 624.335 624.683C628.223 623.805 630.64 619.939 629.762 616.051C628.939 612.523 628.426 608.903 627.794 605.338C626.842 599.974 625.962 594.621 625.207 589.227C624.695 585.488 621.241 582.866 617.503 583.378Z" fill="black"/>
<path d="M637.157 502.764C633.607 502.604 628.667 503.193 621.327 504.339C615.009 505.325 607.831 506.682 605.074 507.376L609.967 526.918C612.001 526.406 618.687 525.146 624.448 524.246C627.834 523.718 630.806 523.32 633.108 523.093C634.267 522.979 635.227 522.913 635.892 522.897C644.675 525.204 656.924 531.515 666.962 539.542C678.984 549.157 686.731 560.073 688.556 570.838C689.431 575.996 686.743 587.6 680.964 600.446C674.189 615.505 664.191 630.396 652.424 642.201C638.985 655.683 623.88 664.597 607.802 667.788C589.431 671.433 569.809 667.674 548.867 655.275L538.604 672.596C563.7 687.455 588.358 692.166 611.738 687.527C632.054 683.495 650.617 672.571 666.708 656.428C693.315 629.734 711.942 588.302 708.407 567.463C705.634 551.111 695.074 536.256 679.53 523.825C667.128 513.905 652.01 506.117 640.278 503.186C639.365 502.958 638.34 502.818 637.157 502.764Z" fill="black"/>
<path d="M632.404 509.57C627.085 509.952 621.775 511.542 616.827 513.281C608.487 516.213 600.484 520.077 592.702 524.247C586.534 527.552 580.438 531.063 574.566 534.876C571.387 536.939 570.478 541.173 572.541 544.352C574.605 547.53 578.866 548.44 582.045 546.376C588.066 542.467 594.34 538.921 600.687 535.579C606.883 532.316 613.228 529.223 619.807 526.806C623.15 525.578 626.539 524.473 630.042 523.797C632.093 523.402 634.25 523.108 636.34 523.319C638.553 523.544 640.859 524.508 642.92 525.288C646.511 526.646 649.995 528.259 653.38 530.068C665.374 536.475 677.194 545.57 684.563 557.173C686.829 560.742 688.636 564.594 689.764 568.673C690.213 570.296 690.62 571.964 690.72 573.65C690.858 575.97 690.604 578.335 690.242 580.624C689.724 583.897 688.941 587.122 687.993 590.296C685.147 599.826 680.97 608.985 676.071 617.627C673.807 621.62 671.354 625.498 668.732 629.267C654.916 649.13 635.114 667.252 610.528 671.529C606.988 672.144 603.408 672.426 599.815 672.456C594.438 672.502 589.046 671.805 583.816 670.573C573.818 668.217 564.482 663.829 555.755 658.482C552.34 656.393 547.89 657.485 545.801 660.9C543.712 664.314 544.777 668.764 548.191 670.854C558.239 676.995 568.997 681.962 580.498 684.66C587.722 686.354 595.154 687.137 602.571 686.853C607.354 686.669 612.13 686.016 616.799 684.969C648.874 677.777 673.621 651.45 689.005 623.616C694.711 613.291 699.486 602.298 702.446 590.858C703.958 585.01 705.121 578.846 704.723 572.779C704.548 570.117 703.98 567.469 703.261 564.906C701.746 559.502 699.339 554.387 696.316 549.666C687.31 535.601 673.018 524.623 658.301 517.077C654.013 514.879 649.574 512.922 645.001 511.397C642.62 510.604 640.225 509.875 637.718 509.626C635.953 509.45 634.177 509.442 632.404 509.57Z" fill="black"/>
<path opacity="0.196343" d="M246.314 715.142C246.314 715.142 503.567 715.046 589.794 440.426L607.158 517.561C607.158 517.561 572.86 587.174 600.512 593.751L655.112 577.176L688.748 592.678L669.525 646.251L634.779 673.74L588.323 680.171L554.169 671.083L507.556 719.465L413.7 756.337L340.892 753.937L290.96 735.754L246.314 715.142Z" fill="black"/>
<path opacity="0.196343" d="M128.949 658.918L170.196 630.689L206.051 682.094L128.949 658.918Z" fill="black"/>
</svg>
