<svg width="1211" height="1277" viewBox="0 0 1211 1277" fill="none" xmlns="http://www.w3.org/2000/svg">
<mask id="mask0_311_9680" style="mask-type:luminance" maskUnits="userSpaceOnUse" x="0" y="0" width="1211" height="1277">
<path d="M1210.4 0H0V1277H1210.4V0Z" fill="white"/>
</mask>
<g mask="url(#mask0_311_9680)">
<path d="M257.403 1064.79C257.403 1037.67 397.403 1015.68 570.104 1015.68C742.804 1015.68 882.804 1037.67 882.804 1064.79C882.804 1091.91 742.804 1113.91 570.104 1113.91C397.403 1113.91 257.403 1091.91 257.403 1064.79Z" fill="black" fill-opacity="0.7"/>
<path d="M307.893 824.82C307.893 824.82 266.363 821 250.259 845.496C234.157 869.991 240.626 959.546 373.941 959.103" fill="#F3886D"/>
<path d="M298.76 812.823C290.429 813.009 281.433 814.164 272.587 816.782C258.854 820.846 247.675 828 240.425 839.03C228.081 857.809 229.29 891.689 246.151 918.009C267.648 951.566 310.449 971.092 373.978 970.88L373.912 947.324C317.904 947.51 282.75 931.497 265.977 905.315C259.56 895.297 256.193 884.099 255.803 873.219C255.477 864.171 257.317 856.169 260.088 851.952C263.906 846.144 270.468 841.969 279.293 839.357C288.108 836.748 297.651 836.071 305.631 836.477C306.01 836.497 306.81 836.543 306.808 836.543L308.968 813.084C308.519 813.044 307.802 813.003 306.842 812.953C304.239 812.822 301.537 812.761 298.76 812.823Z" fill="black"/>
<path d="M781.203 612.933C781.203 612.933 786.084 579.064 808.547 528.311C831.01 477.557 871.054 409.92 941.383 342.381C941.383 342.381 935.007 334.212 921.011 329.929C907.015 325.646 885.399 325.247 854.917 340.787C854.917 340.787 856.589 329.663 855.093 314.047C853.597 298.431 848.932 278.323 836.261 260.356C836.261 260.356 826.861 260.154 813.234 264.57C799.609 268.986 781.759 278.02 764.861 296.494C764.861 296.494 762.045 280.873 756.878 263.969C751.71 247.065 744.191 228.878 734.783 223.747C734.783 223.747 723.813 225.055 708.88 232.572C693.949 240.089 675.054 253.817 659.207 278.658C659.207 278.658 657.163 267.427 650.63 253.681C644.096 239.934 633.073 223.671 615.114 213.606C615.114 213.606 605.615 216.37 593.309 226.462C581.003 236.553 565.89 253.971 554.66 283.277C554.66 283.277 548.661 271.457 538.499 257.622C528.337 243.787 514.012 227.937 497.361 219.876C497.361 219.876 487.473 225.016 476.822 237.728C466.172 250.44 454.76 270.724 451.712 301.01C451.712 301.01 442.792 295.587 427.03 289.681C411.268 283.776 388.665 277.39 361.298 275.466C361.298 275.466 378.058 294.025 395.918 336.347C413.779 378.669 432.739 444.754 437.141 539.803C437.141 539.803 476.032 545.048 538.485 556.81C600.939 568.573 686.954 586.855 781.203 612.933Z" fill="#AF93E5"/>
<path d="M430.701 447.808C430.701 447.808 474.282 337.949 533.749 338.755C593.215 339.56 647.683 404.149 651.708 479.846C651.708 479.846 675.046 489.951 702.947 505.308C743.557 527.664 793.832 561.151 795.859 590.815C799.279 640.858 762.198 618.345 762.198 618.345L545.977 571.671L448.808 576.088L433.886 533.61L430.701 447.808Z" fill="#ABACE3"/>
<path d="M452.465 456.253L483.615 428.813L475.14 388.259L517.703 393.766L535.618 351.176L557.25 391.047L587.478 377.218L583.181 417.638L619.062 435.021L577.564 460.809L610.202 511.332L554.776 493.263L537.704 541.536L518.756 493.51L473.041 518.806L494.049 469.43L452.465 456.253Z" fill="#C3C4E1"/>
<path d="M860.049 334.089C860.049 334.089 776.607 423.841 741.547 565.482C706.487 707.123 785.021 611.76 785.021 611.76L814.71 519.318L853.8 445.698C853.8 445.698 883.117 408.889 890.609 401.396C898.101 393.904 931.653 353.512 931.653 353.512L944.358 337.877L924.161 324.846L892.89 326.475L860.049 334.089Z" fill="#B876D1"/>
<path d="M750.183 534.8C747.088 544.762 744.158 554.935 741.546 565.488C736.557 585.642 734.047 600.563 733.104 612.077L762.19 618.359C762.19 618.359 767.962 621.729 774.721 622.907C780.629 616.914 785.027 611.751 785.027 611.751L794.22 583.155C788.96 566.993 771.372 550.13 750.183 534.8Z" fill="#AF93E5"/>
<path d="M543.499 400.639C543.499 400.639 515.837 405.724 510.504 414.903C505.17 424.082 505.914 450.876 510.379 458.442C514.846 466.008 531.094 483.127 543.375 479.901C543.375 479.901 583.813 448.146 543.499 400.639Z" fill="#FFD000"/>
<path d="M542.177 397.051C541.49 396.995 540.778 397.022 540.083 397.15C538.897 397.368 536.917 397.758 534.39 398.36C530.18 399.364 525.973 400.573 521.99 401.96C512.049 405.418 505.06 409.38 501.672 415.21C495.143 426.446 495.406 456.287 501.575 466.74C504.656 471.961 510.745 478.756 517.082 483.72C525.922 490.645 534.861 494.074 543.387 491.834C544.433 491.559 545.416 491.062 546.266 490.395C546.518 490.196 546.897 489.9 547.379 489.479C548.122 488.825 548.935 488.055 549.8 487.188C552.224 484.756 554.65 481.917 556.899 478.681C563.377 469.363 567.289 458.61 567.304 446.586C567.321 431.412 561.02 415.682 547.542 399.8C546.169 398.182 544.237 397.222 542.177 397.051ZM538.218 413.705C547.24 425.425 551.513 436.383 551.501 446.553C551.492 455.074 548.669 462.807 543.911 469.651C542.221 472.082 540.406 474.23 538.611 476.032C538.407 476.237 538.245 476.371 538.054 476.555C531.893 476.482 520.121 466.999 515.218 458.691C511.94 453.137 511.709 429.422 515.349 423.16C515.645 422.651 516.82 421.63 518.784 420.511C520.967 419.266 523.816 418.041 527.159 416.879C530.587 415.686 534.324 414.628 538.054 413.738C538.114 413.723 538.159 413.719 538.218 413.705Z" fill="black"/>
<path d="M614.482 206.016C612.92 205.837 611.31 205.96 609.77 206.409C609.157 206.586 608.284 206.889 607.153 207.325C605.451 207.98 603.55 208.817 601.493 209.844C595.821 212.675 589.82 216.495 583.727 221.491C571.439 231.568 560.4 245.035 551.207 262.125C549.567 259.698 547.922 257.261 546.135 254.83C532.384 236.106 517.254 221.443 500.593 213.377C497.195 211.731 493.212 211.799 489.862 213.54C489.285 213.841 488.43 214.336 487.343 215.012C485.675 216.05 483.836 217.296 481.879 218.775C476.427 222.895 470.945 228.036 465.683 234.316C453.852 248.438 445.086 266.101 440.524 287.351C437.002 285.801 433.263 284.279 429.237 282.77C408.506 275.004 385.296 269.588 360.138 267.819C349.4 267.064 343.239 279.755 350.454 287.743C350.482 287.776 350.608 287.975 350.879 288.299C351.395 288.917 352.03 289.664 352.743 290.59C354.857 293.333 357.246 296.73 359.876 300.798C367.528 312.629 375.368 327.391 382.909 345.261C404.681 396.851 419.43 462.867 423.217 544.639C423.484 550.41 427.831 555.155 433.556 555.926C433.615 555.935 438.492 556.616 440.492 556.909C446.222 557.746 452.927 558.775 460.547 559.983C482.349 563.443 507.085 567.717 534.292 572.842C612.048 587.487 693.917 606 776.04 628.723C782.982 630.643 790.029 626.038 791.058 618.908C791.08 618.753 791.139 618.354 791.253 617.697C791.455 616.531 791.709 615.129 792.039 613.509C792.999 608.798 794.304 603.314 795.997 597.085C800.878 579.138 807.916 559.081 817.493 537.441C844.962 475.378 887.3 413.253 947.674 355.272C952.097 351.025 952.591 344.138 948.82 339.306C948.077 338.354 946.902 337.046 945.286 335.543C942.806 333.236 939.855 330.984 936.387 328.902C932.246 326.413 927.614 324.344 922.515 322.784C906.274 317.813 887.192 318.718 865.489 326.611C865.391 323.53 865.314 320.482 864.999 317.189C862.945 295.749 856.472 275.342 844.06 257.742C841.871 254.64 838.333 252.752 834.539 252.67C834.467 252.669 834.448 252.671 834.342 252.67C832.358 252.648 829.476 252.812 825.803 253.292C820.157 254.03 814.011 255.385 807.547 257.48C794.505 261.706 781.774 268.469 769.791 278.026C768.652 273.579 767.656 269.103 766.323 264.743C758.914 240.507 750.594 224.122 738.513 217.532C736.333 216.343 733.847 215.864 731.381 216.158C730.768 216.231 729.822 216.383 728.6 216.616C726.714 216.974 724.616 217.448 722.285 218.088C715.786 219.874 708.774 222.512 701.51 226.17C687.044 233.452 673.475 243.807 661.431 257.512C660.763 255.951 660.182 254.405 659.436 252.834C650.29 233.591 637.099 217.618 618.965 207.455C617.566 206.671 616.045 206.194 614.482 206.016ZM612.061 231.306C623.024 238.841 631.542 249.817 637.842 263.075C640.414 268.484 642.405 273.895 643.895 278.975C644.409 280.729 644.821 282.287 645.138 283.654C645.314 284.415 645.435 284.892 645.465 285.061C647.411 295.754 661.442 298.544 667.288 289.38C679.957 269.521 695.471 255.993 712.274 247.534C718.076 244.613 723.577 242.534 728.6 241.154C728.985 241.048 729.251 241.019 729.614 240.924C733.749 245.82 738.934 256.961 743.454 271.745C745.618 278.823 747.521 286.222 749.146 293.469C749.716 296.006 750.205 298.334 750.619 300.405C750.761 301.122 751.093 302.803 751.109 302.892C752.865 312.632 765.008 316.149 771.689 308.846C785.025 294.267 799.813 285.122 814.941 280.219C819.586 278.713 823.915 277.789 827.897 277.209C835.369 289.818 839.747 304.182 841.213 319.479C841.959 327.269 841.91 334.377 841.409 340.353C841.333 341.255 841.258 342.057 841.18 342.708C841.139 343.057 841.122 343.252 841.115 343.298C839.669 352.917 849.69 360.148 858.357 355.73C882.376 343.485 901.123 341.249 915.514 345.653C917.594 346.29 919.487 347.071 921.272 347.943C863.889 405.327 822.766 466.463 795.638 527.757C785.56 550.527 778.121 571.722 772.932 590.804C771.742 595.177 770.975 598.71 770.118 602.451C691.449 581.072 613.199 563.381 538.708 549.351C511.269 544.183 486.299 539.856 464.277 536.362C457.527 535.291 451.786 534.431 446.479 533.646C444.965 507.494 442.351 482.877 438.751 459.767C431.339 412.191 419.745 371.003 404.96 335.969C398.312 320.214 391.369 306.736 384.447 295.17C397.313 297.599 409.558 300.915 420.861 305.149C427.358 307.583 433.083 310.106 437.973 312.543C439.65 313.38 441.089 314.134 442.291 314.801C442.962 315.173 443.356 315.432 443.502 315.52C451.018 320.091 460.746 315.242 461.627 306.49C464.047 282.432 472.199 263.786 484.005 249.693C487.889 245.058 491.89 241.312 495.783 238.307C506.392 244.956 516.964 255.484 526.865 268.964C531.06 274.676 534.849 280.477 538.12 286.009C539.258 287.934 540.229 289.677 541.064 291.212C541.351 291.737 541.991 292.934 542.014 292.978C546.705 302.22 560.127 301.512 563.835 291.833C572.917 268.136 585.126 251.279 598.908 239.976C603.538 236.18 607.984 233.353 612.061 231.306Z" fill="black"/>
<path d="M299.726 778.129C299.726 633.505 418.56 516.264 565.15 516.264C711.74 516.264 830.573 633.505 830.573 778.129C830.573 922.753 711.74 1039.99 565.15 1039.99C418.56 1039.99 299.726 922.753 299.726 778.129Z" fill="#F3886D"/>
<path d="M636.959 565.055C584.486 565.055 531.769 600.779 505.501 646.325C490.018 606.677 450.344 580.171 413.859 580.171C367.32 580.171 307.299 669.151 307.299 727.726C307.299 760.581 329.25 776.455 356.735 784.065C353.909 793.869 352.22 804.054 352.22 814.59C352.221 885.872 426.582 994.569 521.303 978.013C607.234 962.994 636.959 882.077 636.959 810.795C636.959 806.428 636.695 802.132 636.239 797.904C703.514 792.619 755.985 749.589 755.985 684.605C755.985 615.139 710.87 565.055 636.959 565.055Z" fill="#F9B192"/>
<path d="M652.107 640.109C649.595 639.696 646.347 641.227 644.287 642.203C641.651 643.451 639.099 644.879 636.566 646.325C633.204 648.244 629.865 650.208 626.555 652.214C620.736 655.738 614.972 659.335 609.247 663.011C605.551 665.381 604.457 670.308 606.826 674.004C609.195 677.7 614.123 678.762 617.819 676.393C625.548 671.451 633.373 666.638 641.343 662.095C643.864 660.658 646.405 659.242 648.999 657.94C649.138 657.87 649.284 657.813 649.424 657.743C651.814 660.302 654.052 663 656.164 665.792C662.634 674.349 667.864 683.733 671.967 693.635C673.751 697.915 678.679 699.967 682.96 698.182C687.24 696.398 689.258 691.47 687.474 687.189C684.456 679.988 680.949 673.005 676.809 666.381C674.278 662.334 671.497 658.44 668.53 654.701C665.888 651.368 663.071 648.182 660.057 645.18C659.288 644.414 658.504 643.654 657.702 642.923C657.406 642.653 657.104 642.241 656.752 642.039C655.874 641.534 655.037 640.925 654.102 640.534C653.472 640.272 652.781 640.22 652.107 640.109ZM646.119 654.407C646.127 654.426 646.197 654.478 646.218 654.505C646.184 654.485 646.153 654.459 646.119 654.439C646.109 654.433 646.115 654.395 646.119 654.407Z" fill="black"/>
<path d="M399.66 635.725C399.027 635.615 398.397 635.777 397.762 635.888C394.335 636.492 391.353 638.601 388.798 640.861C386.245 643.121 383.971 645.669 381.796 648.288C377.333 653.663 373.253 659.392 369.331 665.17C365.793 670.384 362.362 675.684 359.091 681.071C356.81 684.822 357.99 689.685 361.741 691.966C365.492 694.247 370.388 693.067 372.669 689.316C378.666 679.482 385.1 669.802 392.397 660.884C394.432 658.397 396.564 655.921 398.94 653.752C399.095 653.611 399.274 653.498 399.431 653.359C399.476 653.39 399.517 653.428 399.562 653.458C401.612 654.841 403.55 656.353 405.419 657.972C410.931 662.749 415.606 668.327 419.487 674.494C421.967 678.413 427.15 679.592 431.069 677.112C434.988 674.633 436.166 669.449 433.686 665.53C427.46 655.736 419.497 647.048 409.901 640.468C408.424 639.456 406.912 638.472 405.353 637.589C404.789 637.271 404.096 636.727 403.456 636.576C402.199 636.278 400.931 635.945 399.66 635.725Z" fill="black"/>
<path d="M420.533 749.251C420.533 749.251 479.089 718.156 551.101 746.343C551.101 746.343 535.222 888.818 481.783 927.448C481.783 927.448 423.453 892.115 420.533 749.251Z" fill="#AC3A34"/>
<path d="M527.552 852.019C493.975 854.001 471.715 880.214 458.748 902.468C471.143 920.923 481.781 927.464 481.781 927.464C502.068 912.799 516.906 883.139 527.552 852.019Z" fill="#FF5A51"/>
<path d="M636.959 557.138C587.828 557.138 536.807 587 506.548 630.129C487.34 595.673 450.192 572.253 413.859 572.253C388.683 572.253 360.308 593.817 336.647 627.414C314.007 659.561 299.381 697.75 299.382 727.725C299.382 758.953 316.998 778.779 347.28 789.234C345.353 797.723 344.303 806.162 344.303 814.59C344.303 852.835 364.116 899.595 395.342 934.498C430.668 973.985 475.864 993.981 522.678 985.799C565.315 978.347 597.35 955.064 618.18 919.514C635.985 889.123 644.877 850.722 644.877 810.795C644.877 808.866 644.643 806.86 644.549 804.905C714.384 796.443 763.902 749.375 763.902 684.604C763.902 609.099 713.622 557.138 636.959 557.138ZM636.959 572.973C704.77 572.973 748.067 617.719 748.067 684.604C748.067 742.832 701.82 784.818 635.618 790.019C631.174 790.367 627.91 794.324 628.387 798.755C628.832 802.891 629.042 806.88 629.042 810.795C629.042 848.085 620.805 883.73 604.536 911.498C585.996 943.142 557.859 963.596 519.929 970.226C479.048 977.371 439.075 959.683 407.12 923.964C378.368 891.824 360.138 848.726 360.138 814.59C360.138 805.273 361.552 795.878 364.326 786.256C365.545 782.029 363.07 777.616 358.829 776.441C330.142 768.499 315.216 753.376 315.217 727.725C315.217 671.167 373.722 588.088 413.859 588.088C448.094 588.088 484.226 613.573 498.139 649.204C500.552 655.382 509.025 656.029 512.339 650.283C538.272 605.32 589.208 572.973 636.959 572.973Z" fill="black" fill-opacity="0.401653"/>
<path d="M565.144 508.356C414.212 508.356 291.825 629.128 291.825 778.143C291.825 927.158 414.212 1047.9 565.144 1047.9C716.077 1047.9 838.465 927.158 838.465 778.143C838.465 629.128 716.077 508.356 565.144 508.356ZM565.144 524.159C707.391 524.159 822.662 637.91 822.662 778.143C822.662 918.377 707.391 1032.09 565.144 1032.09C422.898 1032.09 307.627 918.377 307.627 778.143C307.627 637.91 422.898 524.159 565.144 524.159Z" fill="black"/>
<path d="M433.284 532.257C431.736 532.417 430.199 532.88 428.751 533.674C340.011 582.344 283.717 675.223 283.717 777.938C283.717 794.833 285.224 811.385 288.117 827.451C288.299 828.462 288.586 829.441 288.779 830.448C290.33 829.835 292.082 829.587 293.676 829.196C296.786 828.434 299.8 827.422 302.908 826.66C305.704 825.974 308.351 826.697 311.082 826.429C311.484 826.39 311.877 826.306 312.273 826.232C312.192 825.811 312.087 825.401 312.009 824.98C309.151 809.735 307.674 794.009 307.674 777.938C307.674 684.002 359.133 599.076 440.299 554.559C446.094 551.381 448.225 544.121 445.031 538.351C442.637 534.025 437.928 531.778 433.284 532.257ZM778.978 605.158C775.942 604.749 772.745 605.475 770.109 607.464C764.837 611.442 763.797 618.916 767.793 624.166C801.238 668.102 819.646 721.619 819.646 777.938C819.646 918.684 705.039 1032.78 563.659 1032.78C488.513 1032.78 420.982 1000.51 374.152 949.171C371.969 951.564 369.367 953.566 365.979 954.606C360.713 956.224 354.613 956.335 349.07 956.781C349.776 957.619 350.406 958.52 351.122 959.35C402.462 1018.9 478.643 1056.63 563.659 1056.63C718.27 1056.63 843.603 931.857 843.603 777.938C843.603 716.373 823.461 657.785 786.887 609.737C784.888 607.112 782.013 605.568 778.978 605.158Z" fill="black"/>
<path d="M607.341 766.905C609.135 752.787 632.376 743.773 659.254 746.771C686.13 749.77 706.464 763.646 704.67 777.764C702.876 791.882 679.635 800.897 652.757 797.898C625.881 794.9 605.547 781.023 607.341 766.905Z" fill="#FF497F"/>
<path d="M280.927 769.995C279.607 755.824 300.331 741.97 327.217 739.051C354.103 736.131 376.968 745.252 378.288 759.423C379.609 773.593 358.883 787.448 331.998 790.366C305.113 793.286 282.247 784.165 280.927 769.995Z" fill="#FF497F"/>
<path d="M337.596 731.39C333.959 731.375 330.228 731.568 326.439 731.979C296.197 735.263 272.037 751.408 273.83 770.651C275.636 790.031 302.446 800.737 332.754 797.446C362.996 794.162 387.156 778.018 385.363 758.774C383.784 741.817 363.055 731.497 337.596 731.39ZM336.549 745.622C355.901 745.483 370.466 752.242 371.196 760.083C372.044 769.181 354.745 780.758 331.216 783.313C307.753 785.86 288.831 778.303 287.997 769.342C287.149 760.245 304.448 748.668 327.977 746.113C330.909 745.794 333.784 745.642 336.549 745.622Z" fill="black"/>
<path d="M648.9 739.079C623.429 739.092 602.415 749.229 600.283 766.005C597.83 785.314 621.679 801.59 651.976 804.971C682.209 808.344 709.282 797.839 711.718 778.666C714.172 759.357 690.356 743.081 660.058 739.701C656.278 739.279 652.54 739.077 648.9 739.079ZM649.85 753.311C652.633 753.338 655.514 753.506 658.454 753.834C681.91 756.451 698.751 767.939 697.617 776.867C696.466 785.931 677.068 793.462 653.547 790.837C630.091 788.221 613.25 776.732 614.384 767.804C615.392 759.873 630.364 753.116 649.85 753.311Z" fill="black"/>
<path d="M486.034 726.646C468.455 726.94 452.058 729.783 437.187 734.335C431.65 736.029 426.695 737.835 422.399 739.667C420.873 740.318 419.526 740.946 418.375 741.499C417.649 741.848 417.146 742.088 416.837 742.252C414.203 743.652 412.555 746.435 412.616 749.418C413.891 811.753 425.496 859.152 444.156 893.603C451.221 906.646 458.861 916.961 466.567 924.815C469.328 927.628 471.89 929.931 474.256 931.783C475.117 932.458 475.917 933.039 476.611 933.518C477.076 933.837 477.441 934.053 477.691 934.205C480.408 935.851 483.852 935.706 486.427 933.845C508.337 918.005 525.274 886.615 538.513 844.036C545.105 822.832 550.35 800.168 554.38 777.522C555.789 769.601 556.957 762.244 557.881 755.633C558.206 753.313 558.84 748.283 558.896 747.815C558.929 747.527 558.948 747.335 558.961 747.225C559.357 743.67 557.319 740.285 553.988 738.98C531.317 730.106 508.503 726.269 486.034 726.646ZM486.328 742.449C504.885 742.138 523.669 745.169 542.439 751.741C542.357 752.342 542.299 752.797 542.209 753.442C541.31 759.865 540.181 767.02 538.807 774.74C534.885 796.783 529.805 818.82 523.43 839.325C512.162 875.565 498.094 902.647 481.683 917.192C480.434 916.1 479.267 915.163 477.854 913.723C471.178 906.918 464.419 897.817 458.06 886.077C441.167 854.887 430.393 811.511 428.647 754.227C432.436 752.612 436.825 750.973 441.8 749.45C455.321 745.311 470.312 742.717 486.328 742.449Z" fill="black"/>
<path d="M527.095 844.134C509.692 845.161 494.093 852.024 480.341 863.6C469.322 872.877 459.887 884.787 451.91 898.477C450.385 901.095 450.483 904.372 452.172 906.885C457.932 915.46 463.819 922.328 469.512 927.661C471.556 929.576 473.432 931.178 475.14 932.471C476.238 933.302 477.079 933.868 477.626 934.204C480.348 935.879 483.837 935.75 486.427 933.877C506.42 919.425 522.261 891.937 535.044 854.57C536.864 849.252 532.705 843.802 527.095 844.134ZM515.414 862.194C505.683 887.197 494.377 906.034 481.683 917.29C481.201 916.865 480.824 916.594 480.308 916.112C476.441 912.489 472.402 907.666 468.334 902.109C481.165 881.656 496.847 867.446 515.414 862.194Z" fill="black"/>
<path d="M799.225 794.909C799.225 794.909 849.892 761.959 870.255 767.287C890.617 772.615 932.433 796.596 937.935 830.577C943.437 864.557 875.33 1005.45 768.599 939.245" fill="#F3886D"/>
<path d="M862.166 758.779C855.977 759.224 849.831 761.04 844.073 763.065C834.369 766.476 825.024 771.004 815.969 775.857C808.792 779.703 801.7 783.789 794.867 788.225C791.168 790.625 790.142 795.551 792.543 799.25C794.944 802.949 799.87 804.007 803.569 801.606C810.575 797.058 817.876 792.899 825.261 789.01C832.47 785.213 839.853 781.648 847.508 778.834C851.399 777.405 855.375 776.121 859.45 775.333C861.837 774.874 864.314 774.532 866.746 774.778C869.321 775.038 872.036 776.161 874.435 777.068C878.612 778.649 882.667 780.525 886.606 782.63C900.562 790.086 914.315 800.668 922.889 814.169C925.526 818.321 927.629 822.803 928.942 827.551C929.464 829.439 929.938 831.379 930.054 833.342C930.214 836.041 929.919 838.76 929.497 841.423C928.895 845.232 927.951 848.985 926.848 852.678C923.537 863.766 918.71 874.456 913.008 884.512C910.374 889.158 907.52 893.672 904.469 898.056C888.393 921.169 865.352 942.222 836.745 947.198C832.625 947.914 828.427 948.274 824.246 948.31C817.99 948.363 811.715 947.552 805.63 946.119C793.997 943.378 783.167 938.272 773.011 932.05C769.038 929.619 763.828 930.857 761.397 934.83C758.966 938.804 760.238 944.014 764.211 946.445C775.902 953.591 788.42 959.371 801.803 962.51C810.208 964.481 818.854 965.392 827.486 965.061C833.051 964.849 838.575 964.088 844.007 962.87C881.33 954.501 910.126 923.868 928.025 891.48C934.665 879.467 940.221 866.676 943.665 853.365C945.425 846.56 946.777 839.387 946.315 832.327C946.112 829.231 945.45 826.149 944.613 823.167C942.851 816.879 940.05 810.927 936.532 805.433C926.053 789.068 909.457 776.295 892.331 767.515C887.343 764.957 882.177 762.68 876.856 760.905C874.085 759.982 871.265 759.135 868.349 758.844C866.295 758.64 864.228 758.63 862.166 758.779Z" fill="black"/>
<path d="M939.103 829.901C824.11 835.763 777.837 892.074 759.19 938.49C870.901 1004.42 942.607 866.935 939.103 829.901Z" fill="#F9B192"/>
<path d="M898.632 825.779C888.496 826.949 878.389 828.638 868.499 831.178C849.288 836.109 830.789 843.933 814.516 855.355C807.953 859.962 801.757 865.152 796.259 870.995C793.474 873.955 790.726 877.084 788.571 880.548C786.256 884.279 787.392 889.194 791.123 891.509C794.854 893.822 799.768 892.687 802.083 888.956C802.064 888.986 802.229 888.754 802.247 888.727C802.314 888.628 802.341 888.566 802.41 888.465C802.598 888.194 802.803 887.913 802.999 887.647C803.551 886.9 804.109 886.172 804.701 885.455C806.501 883.273 808.461 881.208 810.491 879.239C816.366 873.543 822.981 868.624 829.991 864.419C851.35 851.603 875.946 845.225 900.529 842.465C905.137 841.941 908.447 837.781 907.924 833.173C907.399 828.566 903.24 825.254 898.632 825.779Z" fill="black"/>
<path d="M844.845 844.657C840.495 845.253 837.444 849.271 838.04 853.621C838.811 859.378 839.532 865.136 840.264 870.896C840.922 876.072 841.629 881.271 842.751 886.371C843.772 890.895 848.272 893.74 852.794 892.719C857.318 891.697 860.13 887.198 859.11 882.674C858.152 878.569 857.555 874.357 856.819 870.209C855.711 863.968 854.687 857.739 853.809 851.463C853.213 847.112 849.194 844.062 844.845 844.657Z" fill="black"/>
<path d="M867.714 750.857C863.584 750.669 857.836 751.355 849.295 752.689C841.944 753.836 833.592 755.415 830.384 756.222L836.077 778.961C838.443 778.365 846.223 776.899 852.926 775.853C856.866 775.237 860.326 774.775 863.003 774.511C864.351 774.379 865.468 774.301 866.242 774.282C876.462 776.968 890.715 784.31 902.394 793.651C916.383 804.839 925.397 817.54 927.521 830.065C928.54 836.067 925.411 849.57 918.688 864.516C910.805 882.039 899.172 899.366 885.48 913.102C869.842 928.789 852.266 939.162 833.557 942.874C812.181 947.116 789.349 942.742 764.982 928.315L753.04 948.469C782.242 965.758 810.932 971.24 838.137 965.842C861.777 961.151 883.377 948.44 902.1 929.656C933.06 898.596 954.732 850.386 950.62 826.139C947.392 807.112 935.105 789.826 917.019 775.362C902.588 763.819 884.997 754.758 871.346 751.348C870.283 751.082 869.091 750.918 867.714 750.857Z" fill="black"/>
<path d="M862.185 758.773C855.996 759.218 849.817 761.068 844.06 763.092C834.356 766.504 825.043 770.999 815.988 775.852C808.811 779.698 801.719 783.783 794.885 788.219C791.187 790.62 790.128 795.546 792.53 799.245C794.93 802.944 799.889 804.002 803.588 801.601C810.595 797.053 817.894 792.927 825.279 789.037C832.489 785.24 839.872 781.642 847.527 778.83C851.418 777.401 855.361 776.115 859.436 775.329C861.822 774.868 864.333 774.526 866.765 774.773C869.339 775.033 872.023 776.155 874.421 777.062C878.599 778.643 882.652 780.52 886.592 782.625C900.547 790.08 914.301 800.663 922.875 814.164C925.513 818.317 927.615 822.799 928.928 827.545C929.45 829.433 929.923 831.374 930.041 833.336C930.2 836.035 929.906 838.788 929.484 841.45C928.882 845.26 927.97 849.011 926.866 852.705C923.556 863.794 918.696 874.451 912.994 884.506C910.36 889.153 907.505 893.666 904.455 898.051C888.379 921.163 865.338 942.25 836.731 947.225C832.61 947.942 828.445 948.27 824.265 948.305C818.008 948.357 811.734 947.546 805.649 946.113C794.015 943.372 783.152 938.266 772.998 932.044C769.025 929.613 763.846 930.885 761.415 934.858C758.984 938.831 760.224 944.008 764.196 946.439C775.888 953.585 788.406 959.365 801.789 962.504C810.194 964.475 818.841 965.387 827.472 965.056C833.037 964.843 838.595 964.082 844.026 962.864C881.349 954.496 910.144 923.863 928.044 891.474C934.684 879.462 940.24 866.67 943.684 853.359C945.443 846.554 946.796 839.381 946.333 832.322C946.13 829.225 945.469 826.145 944.632 823.161C942.87 816.873 940.068 810.922 936.551 805.429C926.072 789.064 909.442 776.289 892.317 767.509C887.329 764.951 882.164 762.674 876.842 760.901C874.072 759.976 871.285 759.129 868.368 758.839C866.314 758.634 864.248 758.626 862.185 758.773Z" fill="black"/>
<path opacity="0.196343" d="M412.94 997.973C412.94 997.973 712.275 997.862 812.606 678.319L832.81 768.071C832.81 768.071 792.903 849.072 825.078 856.725L888.608 837.438L927.746 855.476L905.38 917.813L864.95 949.798L810.895 957.282L771.154 946.707L716.916 1003L607.707 1045.91L522.989 1043.11L464.889 1021.96L412.94 997.973Z" fill="black"/>
<path opacity="0.196343" d="M276.377 932.553L324.371 899.707L366.091 959.521L276.377 932.553Z" fill="black"/>
</g>
</svg>
