<svg width="1143" height="1206" viewBox="0 0 1143 1206" fill="none" xmlns="http://www.w3.org/2000/svg">
<mask id="mask0_311_10233" style="mask-type:luminance" maskUnits="userSpaceOnUse" x="0" y="0" width="1143" height="1206">
<path d="M1143 0.111816H0V1206H1143V0.111816Z" fill="white"/>
</mask>
<g mask="url(#mask0_311_10233)">
<path d="M273.944 961.134C273.944 931.118 422.567 906.787 605.904 906.787C789.24 906.787 937.864 931.118 937.864 961.134C937.864 991.146 789.24 1015.48 605.904 1015.48C422.567 1015.48 273.944 991.146 273.944 961.134Z" fill="black" fill-opacity="0.7"/>
<path d="M292.018 645.811C292.018 645.811 263.604 624.512 244.214 648.425C224.822 672.337 216.049 732.879 310.202 766.107" fill="#F3886D"/>
<path d="M292.018 645.811C292.018 645.811 263.604 624.512 244.214 648.425C224.822 672.337 216.049 732.879 310.202 766.107" stroke="black" stroke-width="0.0122978" stroke-miterlimit="10" stroke-linejoin="round"/>
<path d="M233.163 671.999C226.813 700.687 239.416 741.121 310.217 766.107L300.979 705.119C272.666 683.766 244.283 674.914 233.163 671.999Z" fill="#F9B192"/>
<path d="M292.018 645.811C292.018 645.811 263.604 624.512 244.214 648.425C224.822 672.337 216.049 732.879 310.202 766.107" stroke="black" stroke-width="0.0122978" stroke-miterlimit="10" stroke-linejoin="round"/>
<path d="M264.924 629.673C262.377 629.815 259.818 630.238 257.293 630.939C250.179 632.913 243.799 637.161 238.447 643.761C225.549 659.668 220.359 683.579 227.572 706.046C236.524 733.932 262.92 757.269 307.745 773.089L312.658 759.124C271.883 744.734 249.084 724.532 241.691 701.504C236.06 683.966 240.13 665.227 249.971 653.091C253.403 648.86 257.172 646.352 261.279 645.213C267.364 643.525 274.335 644.826 281.33 648.148C283.065 648.972 284.633 649.836 286.026 650.712C286.823 651.214 287.362 651.576 287.571 651.732L296.469 639.868C295.948 639.478 295.093 638.896 293.935 638.169C292.07 636.997 289.982 635.826 287.695 634.74C280.254 631.205 272.566 629.245 264.924 629.673Z" fill="black"/>
<path d="M288.898 695.712L261.733 682.452" stroke="black" stroke-width="0.0122978" stroke-miterlimit="10" stroke-linecap="round" stroke-linejoin="round"/>
<path d="M262.144 675.058C259.258 674.902 256.416 676.438 255.069 679.198C253.273 682.878 254.787 687.319 258.467 689.115L285.655 702.369C289.335 704.166 293.776 702.651 295.572 698.971C297.37 695.29 295.823 690.849 292.144 689.053L264.986 675.799C264.066 675.35 263.106 675.11 262.144 675.058Z" fill="black"/>
<path d="M692.362 169.362L689.984 205.448C682.543 204.293 675.157 203.322 667.832 202.513L680.097 255.344C715.376 258.924 751.846 265.768 789.096 277.032C789.096 277.032 791.074 277.111 791.29 277.125C782.363 249.268 772.934 220.876 762.958 192.008C738.789 182.489 715.276 175.08 692.362 169.362Z" fill="#B7F2CC"/>
<path d="M585.464 154.718C570.234 154.367 555.352 154.782 540.851 155.892L537.298 204.274C528.884 205.406 520.63 206.721 512.489 208.167L521.016 260.194C569.614 252.459 623.277 249.578 680.096 255.344L667.831 202.513C661.295 201.791 654.808 201.196 648.367 200.721L632.208 158.147C616.269 156.183 600.693 155.068 585.464 154.718Z" fill="#93E9CA"/>
<path d="M339.105 219.938C312.417 235.308 288.312 252.017 267.211 268.722C267.211 268.722 268.725 301.366 271.227 351.213C271.227 351.213 313.676 323.884 381.617 297.887C381.109 292.261 377.569 253.645 377.569 253.645L377.105 249.505C368.036 253.447 359.283 257.421 351.216 261.369L339.105 219.938Z" fill="#DFFFEA"/>
<path d="M752.113 267.331C755.524 276.366 765.164 312.561 777.849 362.365C790.38 364.275 802.957 366.41 815.634 369.069L819.743 370.058C810.876 339.91 801.566 309.196 791.443 277.588L789.095 277.032C776.673 273.276 764.349 270.163 752.113 267.331Z" fill="#93E9CA"/>
<path d="M630.324 252.316C623.391 252.199 616.528 252.23 609.717 252.347L608.42 254.479C611.138 262.909 619.514 302.468 630.17 354.888C677.166 352.697 726.821 354.588 777.85 362.366C765.166 312.561 755.525 276.367 752.115 267.331C710.101 257.61 669.266 252.974 630.324 252.316Z" fill="#DFFFEA"/>
<path d="M603.57 252.532C548.096 254.045 497.019 262.942 452.367 274.87C455.928 303.004 459.049 327.853 465.621 378.832C514.332 367.065 570.015 357.695 630.17 354.888C619.514 302.468 611.138 262.909 608.42 254.479L603.57 252.532Z" fill="#93E9CA"/>
<path d="M470.626 166.829C444.61 173.038 420.248 181.494 397.219 191.175L394.932 241.997C388.506 244.568 382.416 247.189 376.395 249.814L377.522 253.49C377.547 253.575 377.576 253.717 377.584 253.806L381.617 297.887C420.318 283.078 467.39 268.73 521.016 260.194L512.489 208.167C503.558 209.752 494.772 211.5 486.228 213.45L470.626 166.829Z" fill="#B7F2CC"/>
<path d="M452.367 274.87C390.421 291.418 341.292 313.572 310.001 329.833C311.685 363.792 313.346 397.46 315.037 428.853C348.369 414.399 400.612 394.539 465.621 378.833C459.048 327.853 455.928 303.004 452.367 274.87Z" fill="#82D4D5"/>
<path d="M310 329.833C296.126 337.044 285.363 343.179 279.136 346.98C278.319 347.479 273.752 350.828 271.319 352.541C272.596 377.937 274.605 414.828 276.325 447.421C276.912 447.042 278.448 445.931 278.734 445.784C284.72 442.708 297.352 436.522 315.037 428.853C313.345 397.46 311.684 363.793 310 329.833Z" fill="#93E9CA"/>
<path d="M390.977 400.058C331.741 419.592 291.272 439.34 278.735 445.783C278.448 445.931 276.912 447.042 276.325 447.42C278.236 483.652 279.908 515.527 282.195 555.771C308.924 546.074 348.511 532.784 401.822 518.449C396.488 460.644 394.759 441.606 390.977 400.058Z" fill="#B7F2CC"/>
<path d="M538.102 364.281C481.91 373.122 431.98 386.537 390.978 400.058C394.759 441.606 396.488 460.644 401.822 518.449C446.58 506.414 499.359 494.37 557.844 484.495L538.102 364.281Z" fill="#DFFFEA"/>
<path d="M670.457 353.993C623.815 353.783 579.314 357.796 538.102 364.281L557.844 484.495C610.836 475.546 668.196 468.423 728.881 465.123L703.268 354.92C692.24 354.394 681.27 354.041 670.457 353.993Z" fill="#B7F2CC"/>
<path d="M703.268 354.92L728.881 465.123C766.9 463.057 806.081 462.437 846.036 463.764C837.873 433.397 829.224 402.292 819.744 370.058L815.635 369.069C777.413 361.052 739.811 356.66 703.268 354.92Z" fill="#93E9CA"/>
<path d="M810.104 463.022C806.703 463.005 803.358 463.077 799.971 463.085L831.36 598.005C846.994 595.832 862.541 593.665 878.414 591.516C868.915 551.353 858.07 508.539 846.036 463.764C833.999 463.364 821.992 463.086 810.104 463.022Z" fill="#B7F2CC"/>
<path d="M799.97 463.084C749.222 463.208 700.028 466.203 653.248 471.179C664 525.674 671.39 562.862 682.351 619.415C729.965 612.301 779.955 605.149 831.36 598.005L799.97 463.084Z" fill="#82D4D5"/>
<path d="M653.248 471.179C590.846 477.817 532.797 487.887 481.191 499.108C489.168 560.711 492.604 587.321 500.439 647.653C555.187 638.842 615.884 629.345 682.351 619.415C671.39 562.862 664 525.674 653.248 471.179Z" fill="#B7F2CC"/>
<path d="M481.192 499.108C416.225 513.235 361.637 529.107 321.433 542.208C324.377 592.044 327.144 635.652 329.805 676.016C371.407 668.842 428.612 659.214 500.44 647.653C492.605 587.321 489.168 560.711 481.192 499.108Z" fill="#82D4D5"/>
<path d="M321.433 542.208C304.993 547.565 293.491 551.674 282.195 555.771C284.641 598.808 287.229 641.359 289.888 682.905C300.993 680.939 309.059 679.593 329.805 676.016C327.144 635.652 324.377 592.043 321.433 542.208Z" fill="#93E9CA"/>
<path d="M415.262 661.618C353.661 671.884 313.007 678.812 289.888 682.905C292.439 722.761 295.004 759.21 297.55 792.028C324.604 796.6 370.236 802.487 428.825 803.613C424.854 763.523 419.961 711.298 415.262 661.618Z" fill="#93E9CA"/>
<path d="M582.498 634.646C516.688 644.901 464.086 653.513 415.262 661.65C419.96 711.317 424.856 763.532 428.825 803.613C480.438 804.606 541.503 801.852 608.11 790.761L582.498 634.646Z" fill="#C3C4E1"/>
<path d="M762.031 607.706C698.29 616.883 638.261 625.957 582.498 634.646L608.11 790.76C666.563 781.027 729.067 764.793 792.649 739.382L762.031 607.706Z" fill="#93E9CA"/>
<path d="M878.414 591.516C838.801 596.878 799.914 602.251 762.031 607.705L792.649 739.382C828.274 725.143 864.212 708.065 899.979 687.446C893.509 657.253 886.434 625.431 878.414 591.516Z" fill="#DFFFEA"/>
<path d="M899.979 687.446C885.824 695.607 871.65 703.167 857.467 710.278L878.785 801.945C891.403 790.634 903.871 778.411 916.137 765.211C911.359 741.2 905.846 714.826 899.979 687.446Z" fill="#93E9CA"/>
<path d="M857.466 710.278C808.101 735.03 758.795 753.659 710.868 767.465C718.71 808.39 734.935 892.475 735.028 892.962C783.489 872.954 832.178 843.722 878.785 801.945L857.466 710.278Z" fill="#B7F2CC"/>
<path d="M710.838 767.466C643.231 786.938 578.496 796.941 520.367 801.204C525.265 838.842 536.835 927.812 536.835 927.812L539.06 930.995C599.679 930.803 667.111 921.005 735.028 892.962C734.935 892.476 718.68 808.393 710.838 767.466Z" fill="#82D4D5"/>
<path d="M338.331 797.681C342.802 858.155 346.158 900.027 346.21 900.624C387.283 913.902 456.579 931.255 539.059 930.994L536.835 927.812C536.835 927.812 525.264 838.841 520.367 801.203C445.808 806.669 382.756 802.806 338.331 797.681Z" fill="#B7F2CC"/>
<path d="M297.55 792.028C300.57 830.945 303.521 865.428 306.232 885.918C306.232 885.918 321.142 892.521 346.21 900.624C346.159 900.027 342.802 858.156 338.332 797.681C321.97 795.794 308.308 793.846 297.55 792.028Z" fill="#DFFFEA"/>
<path d="M691.027 163.329L688.648 199.414C681.207 198.26 673.821 197.289 666.496 196.479L678.761 249.311C714.04 252.891 750.51 259.734 787.76 270.999C787.76 270.999 789.738 271.077 789.954 271.092C781.027 243.234 771.598 214.842 761.622 185.975C737.452 176.455 713.941 169.046 691.027 163.329Z" fill="#ABACE3"/>
<path d="M584.128 148.685C568.898 148.334 554.016 148.748 539.515 149.858L535.962 198.241C527.548 199.373 519.294 200.688 511.153 202.133L519.68 254.161C568.278 246.425 621.941 243.545 678.76 249.311L666.495 196.479C659.958 195.757 653.472 195.162 647.031 194.688L630.872 152.113C614.933 150.15 599.357 149.035 584.128 148.685Z" fill="#AF93E5"/>
<path d="M337.769 213.904C311.081 229.275 286.976 245.984 265.875 262.688C265.875 262.688 267.389 295.333 269.891 345.179C269.891 345.179 312.34 317.851 380.281 291.854C379.773 286.228 376.233 247.611 376.233 247.611L375.77 243.472C366.7 247.414 357.946 251.388 349.88 255.336L337.769 213.904Z" fill="#C3C4E1"/>
<path d="M750.777 261.298C754.188 270.333 763.829 306.527 776.513 356.332C789.044 358.242 801.621 360.377 814.298 363.036L818.407 364.025C809.54 333.877 800.23 303.162 790.107 271.555L787.759 270.999C775.337 267.243 763.013 264.129 750.777 261.298Z" fill="#AF93E5"/>
<path d="M628.989 246.283C622.055 246.166 615.192 246.197 608.381 246.314L607.084 248.446C609.801 256.876 618.178 296.435 628.834 348.855C675.83 346.663 725.485 348.555 776.514 356.332C763.83 306.527 754.189 270.333 750.779 261.298C708.765 251.576 667.93 246.941 628.989 246.283Z" fill="#C3C4E1"/>
<path d="M602.234 246.499C546.76 248.011 495.683 256.908 451.031 268.836C454.592 296.97 457.713 321.819 464.285 372.799C512.996 361.031 568.679 351.661 628.834 348.855C618.178 296.434 609.801 256.875 607.084 248.445L602.234 246.499Z" fill="#AF93E5"/>
<path d="M469.29 160.795C443.273 167.004 418.912 175.46 395.883 185.141L393.596 235.964C387.17 238.534 381.08 241.155 375.059 243.78L376.186 247.457C376.211 247.542 376.239 247.683 376.248 247.772L380.281 291.853C418.982 277.044 466.054 262.697 519.681 254.161L511.153 202.133C502.222 203.719 493.436 205.467 484.892 207.416L469.29 160.795Z" fill="#ABACE3"/>
<path d="M451.031 268.836C389.085 285.384 339.956 307.537 308.665 323.8C310.349 357.759 312.01 391.426 313.701 422.819C347.033 408.365 399.276 388.505 464.285 372.799C457.712 321.819 454.592 296.97 451.031 268.836Z" fill="#B876D1"/>
<path d="M308.664 323.8C294.79 331.01 284.027 337.146 277.8 340.946C276.983 341.444 272.416 344.794 269.983 346.507C271.26 371.904 273.269 408.794 274.989 441.387C275.576 441.008 277.112 439.897 277.398 439.75C283.384 436.674 296.016 430.488 313.701 422.819C312.009 391.427 310.348 357.759 308.664 323.8Z" fill="#AF93E5"/>
<path d="M389.641 394.024C330.405 413.558 289.936 433.307 277.399 439.75C277.112 439.897 275.577 441.008 274.989 441.387C276.9 477.618 278.572 509.493 280.859 549.737C307.588 540.04 347.175 526.75 400.486 512.415C395.152 454.61 393.423 435.573 389.641 394.024Z" fill="#ABACE3"/>
<path d="M536.766 358.247C480.574 367.089 430.644 380.503 389.642 394.024C393.423 435.572 395.152 454.61 400.486 512.415C445.243 500.381 498.024 488.337 556.508 478.461L536.766 358.247Z" fill="#C3C4E1"/>
<path d="M669.121 347.959C622.479 347.75 577.978 351.763 536.766 358.247L556.508 478.462C609.5 469.513 666.86 462.389 727.545 459.09L701.932 348.887C690.904 348.361 679.933 348.008 669.121 347.959Z" fill="#ABACE3"/>
<path d="M701.932 348.887L727.545 459.09C765.564 457.022 804.745 456.404 844.7 457.73C836.538 427.364 827.888 396.259 818.408 364.025L814.299 363.036C776.078 355.017 738.475 350.627 701.932 348.887Z" fill="#AF93E5"/>
<path d="M808.768 456.989C805.367 456.971 802.022 457.042 798.635 457.051L830.024 591.971C845.658 589.798 861.206 587.631 877.078 585.483C867.579 545.32 856.734 502.505 844.7 457.73C832.663 457.331 820.656 457.052 808.768 456.989Z" fill="#ABACE3"/>
<path d="M798.634 457.051C747.886 457.175 698.692 460.169 651.912 465.145C662.664 519.641 670.054 556.829 681.015 613.382C728.63 606.268 778.619 599.115 830.024 591.972L798.634 457.051Z" fill="#B876D1"/>
<path d="M479.856 493.074C414.889 507.201 360.301 523.072 320.097 536.174C323.041 586.009 325.808 629.618 328.469 669.982C370.071 662.808 427.276 653.179 499.104 641.619C491.269 581.287 487.832 554.677 479.856 493.074Z" fill="#B876D1"/>
<path d="M320.097 536.174C303.657 541.531 292.154 545.64 280.859 549.737C283.305 592.774 285.893 635.326 288.552 676.872C299.657 674.905 307.723 673.559 328.469 669.982C325.808 629.618 323.041 586.01 320.097 536.174Z" fill="#AF93E5"/>
<path d="M413.926 655.584C352.325 665.85 311.671 672.778 288.552 676.872C291.103 716.727 293.668 753.177 296.214 785.994C323.268 790.567 368.9 796.453 427.489 797.579C423.519 757.489 418.625 705.265 413.926 655.584Z" fill="#AF93E5"/>
<path d="M760.695 601.672C696.954 610.85 636.925 619.923 581.162 628.613L606.774 784.727C665.227 774.993 727.73 758.76 791.313 733.348L760.695 601.672Z" fill="#AF93E5"/>
<path d="M877.078 585.482C837.465 590.843 798.578 596.217 760.695 601.672L791.313 733.348C826.938 719.11 862.876 702.032 898.643 681.412C892.172 651.218 885.098 619.397 877.078 585.482Z" fill="#C3C4E1"/>
<path d="M898.643 681.413C884.487 689.573 870.314 697.133 856.131 704.245L877.449 795.911C890.067 784.6 902.535 772.378 914.801 759.177C910.023 735.167 904.511 708.792 898.643 681.413Z" fill="#AF93E5"/>
<path d="M856.13 704.245C806.765 728.997 757.459 747.626 709.532 761.432C717.374 802.356 733.599 886.442 733.692 886.929C782.152 866.92 830.841 837.689 877.449 795.911L856.13 704.245Z" fill="#ABACE3"/>
<path d="M709.502 761.432C641.895 780.905 577.159 790.908 519.031 795.17C523.929 832.808 535.499 921.779 535.499 921.779L537.724 924.961C598.343 924.769 665.775 914.972 733.692 886.929C733.599 886.442 717.344 802.359 709.502 761.432Z" fill="#B876D1"/>
<path d="M336.995 791.647C341.466 852.122 344.822 893.993 344.874 894.59C385.947 907.867 455.243 925.222 537.723 924.961L535.499 921.778C535.499 921.778 523.928 832.808 519.031 795.17C444.472 800.636 381.42 796.771 336.995 791.647Z" fill="#ABACE3"/>
<path d="M296.214 785.994C299.234 824.911 302.185 859.395 304.896 879.884C304.896 879.884 319.806 886.488 344.874 894.591C344.823 893.993 341.466 852.122 336.996 791.647C320.634 789.76 306.972 787.812 296.214 785.994Z" fill="#C3C4E1"/>
<path d="M690.878 162.102C687.733 162.75 685.205 165.409 684.977 168.868L683.123 197.044C678.312 196.376 673.509 195.668 668.634 195.129C663.552 194.568 659.445 199.202 660.601 204.182L672.866 257.012C673.584 260.102 676.2 262.408 679.354 262.729C715.802 266.426 751.634 273.454 786.963 284.139C787.565 284.321 788.187 284.423 788.817 284.447C788.884 284.45 790.815 284.51 790.794 284.51C796.022 284.869 799.962 279.861 798.363 274.87C789.221 246.339 779.76 217.929 769.97 189.599C769.262 187.551 767.692 185.913 765.676 185.119C741.874 175.744 718.093 168.137 694.154 162.164C693.031 161.884 691.927 161.886 690.878 162.102ZM699.158 178.847C718.51 184.008 737.776 190.231 757.057 197.693C764.977 220.682 772.644 243.747 780.135 266.868C749.2 258.186 717.901 252.144 686.151 248.64L677.47 211.287C681.263 211.786 685.086 212.188 688.84 212.77C693.14 213.438 697.08 210.285 697.367 205.942L699.158 178.847Z" fill="#626262"/>
<path d="M585.649 147.303C570.348 146.951 555.214 147.366 540.295 148.508C536.637 148.787 533.735 151.677 533.466 155.336L530.346 197.848C524.043 198.765 517.752 199.711 511.191 200.875C507.197 201.584 504.51 205.369 505.166 209.372L513.693 261.4C514.353 265.427 518.159 268.158 522.189 267.517C573.958 259.276 626.568 257.372 679.354 262.728C684.412 263.242 688.475 258.629 687.325 253.675L675.06 200.845C674.348 197.779 671.762 195.474 668.633 195.129C663.639 194.577 658.652 194.182 653.649 193.77L639.128 155.521C638.152 152.95 635.834 151.13 633.104 150.794C617.124 148.826 601.328 147.664 585.649 147.303ZM585.278 162.133C599.025 162.45 612.93 163.476 626.925 165.067L641.446 203.347C642.468 206.041 644.936 207.893 647.81 208.105C652.476 208.45 657.149 208.935 661.806 209.403L670.58 247.095C622.411 243.04 574.448 244.839 527.163 251.822L521.016 214.315C526.827 213.352 532.655 212.385 538.286 211.627C541.762 211.159 544.424 208.328 544.681 204.83L547.771 162.967C560.147 162.201 572.628 161.841 585.278 162.133Z" fill="#626262"/>
<path d="M471.675 159.476C470.775 159.346 469.829 159.408 468.895 159.63C443.924 165.59 419.398 173.815 394.344 184.346C391.704 185.457 389.931 187.974 389.803 190.835L387.732 236.992C383.412 238.768 379.333 240.442 373.428 243.017C369.972 244.524 368.214 248.372 369.319 251.977L370.246 255.004L374.231 298.567C374.679 303.46 379.683 306.563 384.272 304.808C428.358 287.938 474.145 275.165 522.189 267.517C526.246 266.871 529.002 263.044 528.337 258.99L519.81 206.962C519.142 202.883 515.261 200.153 511.19 200.876C504.151 202.125 497.683 203.503 491.201 204.893C487.949 195.175 478.091 165.744 477.669 164.481C476.755 161.75 474.377 159.863 471.675 159.476ZM465.775 175.758C469.137 185.805 478.764 214.547 479.183 215.798C480.393 219.414 484.148 221.528 487.864 220.679C493.694 219.35 500.075 218.146 506.401 216.941L512.519 254.139C469.37 261.501 428.071 273.02 388.134 287.723L385.044 254.202C389.445 252.314 393.889 250.404 397.681 248.888C400.383 247.806 402.215 245.245 402.346 242.338L404.416 196.272C425.035 187.811 445.317 180.995 465.775 175.758Z" fill="#626262"/>
<path d="M338.671 212.523C337.567 212.588 336.436 212.912 335.396 213.511C309.63 228.351 285.195 245.032 262.607 262.913C260.735 264.395 259.684 266.677 259.795 269.062C259.798 269.126 262.716 329.77 263.811 351.584C264.098 357.278 270.448 360.54 275.243 357.453C275.299 357.417 276.415 356.71 276.911 356.403C278.342 355.518 280.041 354.477 282.009 353.314C287.661 349.97 294.302 346.247 301.843 342.222C323.437 330.698 347.992 319.157 375.066 308.391C378.115 307.179 381.186 305.989 384.272 304.808C387.372 303.622 389.298 300.513 388.999 297.208C388.792 294.909 384.952 252.81 384.952 252.81L384.489 248.671C383.934 243.713 378.714 240.719 374.139 242.708C367.335 245.664 361.71 248.328 355.911 251.05C352.803 240.423 346.513 218.906 346.209 217.868C345.199 214.41 341.983 212.328 338.671 212.523ZM334.685 231.246C337.934 242.359 343.815 262.433 344.108 263.438C345.398 267.853 350.328 270.063 354.458 268.043C359.249 265.697 365.147 263.087 370.741 260.565C371.437 268.178 373.008 285.016 373.737 293.006C372.355 293.546 370.971 294.066 369.597 294.613C341.988 305.591 316.923 317.379 294.862 329.153C288.485 332.556 283.146 335.591 278.054 338.545C276.822 313.489 275.023 276.678 274.81 272.244C293.588 257.575 313.666 243.817 334.685 231.246Z" fill="#626262"/>
<path d="M630.447 244.901C623.834 244.789 617.013 244.805 609.592 244.933C607.05 244.976 604.704 246.314 603.382 248.485L602.085 250.617C600.964 252.458 600.713 254.713 601.374 256.765C603.751 264.138 611.195 298.748 622.908 356.371C623.637 359.954 626.857 362.474 630.509 362.303C679.502 360.019 728.425 362.324 776.736 369.688C781.985 370.487 786.358 365.688 785.047 360.543C771.247 306.356 762.422 273.598 759.064 264.706C758.189 262.387 756.195 260.661 753.781 260.101C712.609 250.575 671.344 245.593 630.447 244.901ZM630.199 259.731C668.715 260.382 707.572 265.041 746.366 273.727C749.747 284.054 757.301 312.296 767.9 353.653C724.284 347.692 680.27 345.613 636.162 347.319C627.102 302.888 620.783 273.171 617.44 259.762C621.742 259.737 626.169 259.663 630.199 259.731Z" fill="#626262"/>
<path d="M751.68 259.917C746.899 260.177 743.33 265.108 745.161 269.958C748.219 278.057 757.088 310.937 770.651 364.189C771.385 367.074 773.794 369.239 776.737 369.688C790.716 371.818 802.651 373.924 814.12 376.331L818.013 377.257C823.558 378.592 828.458 373.429 826.849 367.958C817.082 334.748 807.939 304.747 798.518 275.334C797.725 272.858 795.671 270.958 793.142 270.359L790.794 269.803C779.384 266.365 767.57 263.293 753.781 260.102C753.06 259.936 752.364 259.879 751.68 259.917ZM763.112 277.65C770.997 279.623 778.521 281.62 785.604 283.738C793.387 308.139 801.073 333.375 809.053 360.265C801.156 358.73 792.84 357.268 783.812 355.847C774.528 319.492 767.468 292.667 763.112 277.65Z" fill="#626262"/>
<path d="M630.447 244.901C623.834 244.789 617.013 244.805 609.592 244.933C607.05 244.976 604.704 246.314 603.382 248.485L602.085 250.617C600.964 252.458 600.713 254.713 601.374 256.765C603.751 264.138 611.195 298.748 622.908 356.371C623.637 359.954 626.857 362.474 630.509 362.303C679.502 360.019 728.425 362.324 776.736 369.688C781.985 370.487 786.358 365.688 785.047 360.543C771.247 306.356 762.422 273.598 759.064 264.706C758.189 262.387 756.195 260.661 753.781 260.101C712.609 250.575 671.344 245.593 630.447 244.901ZM630.199 259.731C668.715 260.382 707.572 265.041 746.366 273.727C749.747 284.054 757.301 312.296 767.9 353.653C724.284 347.692 680.27 345.613 636.162 347.319C627.102 302.888 620.783 273.171 617.44 259.762C621.742 259.737 626.169 259.663 630.199 259.731Z" fill="#626262"/>
<path d="M603.352 245.118C551.246 246.538 500.118 254.434 450.451 267.702C446.867 268.659 444.548 272.118 445.013 275.796C445.363 278.565 453.466 342.559 458.267 379.791C458.832 384.168 463.06 387.068 467.35 386.031C520.861 373.104 575.371 364.876 630.509 362.303C635.052 362.092 638.335 357.863 637.43 353.406C625.482 294.631 618.106 260.39 615.463 252.192C614.787 250.095 613.214 248.41 611.168 247.589C610.562 247.346 606.924 245.886 606.318 245.643C605.377 245.265 604.365 245.09 603.352 245.118ZM602.147 260.01C604.724 269.069 611.256 299.411 621.178 348C570.77 350.886 520.96 358.479 471.954 369.874C467.444 334.762 461.654 289.15 460.553 280.462C506.653 268.605 553.992 261.451 602.147 260.01Z" fill="#626262"/>
<path d="M471.675 159.476C470.775 159.346 469.829 159.408 468.895 159.63C443.924 165.59 419.398 173.815 394.344 184.346C391.704 185.457 389.931 187.974 389.803 190.835L387.732 236.992C383.412 238.768 379.333 240.442 373.428 243.017C369.972 244.524 368.214 248.372 369.319 251.977L370.246 255.004L374.231 298.567C374.679 303.46 379.683 306.563 384.272 304.808C428.358 287.938 474.145 275.165 522.189 267.517C526.246 266.871 529.002 263.044 528.337 258.99L519.81 206.962C519.142 202.883 515.261 200.153 511.19 200.876C504.151 202.125 497.683 203.503 491.201 204.893C487.949 195.175 478.091 165.744 477.669 164.481C476.755 161.75 474.377 159.863 471.675 159.476ZM465.775 175.758C469.137 185.805 478.764 214.547 479.183 215.798C480.393 219.414 484.148 221.528 487.864 220.679C493.694 219.35 500.075 218.146 506.401 216.941L512.519 254.139C469.37 261.501 428.071 273.02 388.134 287.723L385.044 254.202C389.445 252.314 393.889 250.404 397.681 248.888C400.383 247.806 402.215 245.245 402.346 242.338L404.416 196.272C425.035 187.811 445.317 180.995 465.775 175.758Z" fill="#626262"/>
<path d="M453.663 267.579C452.634 267.397 451.535 267.413 450.45 267.702C396.684 282.066 348.439 301.494 306.57 323.252C303.997 324.59 302.441 327.308 302.584 330.204C304.011 358.974 306.731 412.747 307.621 429.254C307.898 434.413 313.23 437.705 317.971 435.65C361.371 416.83 411.816 399.448 467.349 386.031C471.027 385.143 473.456 381.628 472.973 377.875C468.174 340.658 460.069 276.712 459.719 273.943C459.296 270.601 456.748 268.125 453.663 267.579ZM446.093 284.355C447.421 294.832 453.01 338.926 457.432 373.334C407.62 385.732 362.085 401.212 321.925 418.039C320.877 398.056 318.968 360.62 317.661 334.344C355.491 315.022 398.475 297.685 446.093 284.355Z" fill="#626262"/>
<path d="M310.247 322.418C309.028 322.374 307.769 322.629 306.57 323.251C294.017 329.776 282.792 336.057 275.273 340.646C274.583 341.067 274.001 341.497 270.206 344.23C270.198 344.237 267.777 345.977 267.056 346.485C264.975 347.95 263.776 350.37 263.904 352.911C264.652 367.804 268.501 440.096 268.909 447.822C269.209 453.508 275.553 456.744 280.34 453.662C280.665 453.452 280.93 453.249 281.669 452.734C281.669 452.734 282.141 452.404 282.38 452.24C290.852 447.894 303.371 441.981 317.971 435.649C320.816 434.415 322.618 431.546 322.451 428.451C321.562 411.963 318.841 358.229 317.415 329.462C317.214 325.415 313.903 322.55 310.247 322.418ZM303.172 341.912C304.575 369.999 306.486 407.444 307.374 424.187C298.038 428.307 289.987 432.046 283.121 435.402C282.158 417.272 279.784 372.482 278.95 356.186C280.843 354.83 282.908 353.368 282.998 353.313C288.048 350.231 295.288 346.178 303.172 341.912Z" fill="#626262"/>
<path d="M392.028 392.705C390.939 392.549 389.792 392.64 388.66 393.014C341.147 408.682 302.276 425.358 275.336 439.203C274.87 439.441 274.629 439.593 274.068 439.975C273.845 440.127 272.407 441.116 272.308 441.18C270.071 442.62 268.769 445.165 268.91 447.822C268.988 449.319 273.426 532.384 274.779 556.203C275.061 561.162 280.06 564.446 284.728 562.753C319.141 550.269 357.847 537.956 403.737 525.617C407.222 524.68 409.537 521.364 409.205 517.769C406.019 483.24 400.675 424.808 398.361 399.378C398.037 395.815 395.293 393.172 392.028 392.705ZM384.458 410.192C386.859 436.534 390.932 480.976 393.881 512.981C354.258 523.783 319.951 534.588 289.084 545.514C287.477 516.528 284.354 458.376 283.987 451.468C308.434 439.031 342.852 424.357 384.458 410.192Z" fill="#626262"/>
<path d="M536.957 356.959C485.496 365.056 435.955 377.417 388.659 393.014C385.383 394.095 383.279 397.302 383.592 400.738C385.907 426.172 391.249 484.596 394.436 519.129C394.859 523.708 399.295 526.811 403.736 525.617C452.558 512.49 504.881 500.969 559.078 491.817C563.103 491.138 565.826 487.319 565.164 483.29C565.01 482.351 545.576 364.016 545.422 363.077C544.761 359.055 540.983 356.325 536.957 356.959ZM531.982 372.901C534.078 385.661 547.303 466.067 549.346 478.502C500.364 486.99 453.035 497.379 408.401 509.118C405.358 476.068 401.201 430.458 398.916 405.372C441.54 391.601 485.976 380.534 531.982 372.901Z" fill="#626262"/>
<path d="M670.487 346.578C625.863 346.378 581.262 349.988 536.958 356.959C532.892 357.599 530.111 361.426 530.779 365.486L550.52 485.7C551.186 489.754 555.027 492.501 559.079 491.817C616.249 482.164 672.698 475.615 729.281 472.538C733.883 472.288 737.152 467.944 736.109 463.456L710.497 353.252C709.745 350.021 706.921 347.663 703.607 347.506C691.603 346.933 680.763 346.625 670.487 346.578ZM670.426 361.408C678.742 361.446 687.879 361.787 697.335 362.18L719.672 458.327C667.892 461.468 616.186 467.445 563.96 476.03L546.658 370.584C587.764 364.476 629.103 361.222 670.426 361.408Z" fill="#626262"/>
<path d="M703.607 347.505C698.694 347.271 694.925 351.797 696.038 356.588L721.65 466.792C722.465 470.298 725.687 472.734 729.282 472.538C768.57 470.403 807.401 469.904 845.788 471.179C850.765 471.345 854.495 466.659 853.203 461.849C844.324 428.816 835.74 398.188 826.849 367.958C826.1 365.413 824.053 363.481 821.473 362.86L817.148 361.809C780.028 354.022 742.232 349.345 703.607 347.505ZM712.752 362.984C747.077 365.066 780.743 369.348 813.811 376.268C821.362 402.054 828.72 428.371 836.241 456.133C802.726 455.286 768.888 455.721 734.719 457.43L712.752 362.984Z" fill="#626262"/>
<path d="M810.134 455.608C808.459 455.599 804.161 455.638 804.079 455.639C802.006 455.66 801.082 455.667 799.939 455.67C795.172 455.682 791.661 460.111 792.74 464.753L824.13 599.673C824.999 603.409 828.581 605.886 832.379 605.358C833.495 605.203 868.622 600.329 879.402 598.87C883.744 598.282 886.651 594.081 885.643 589.817C876.095 549.448 865.217 506.549 853.203 461.849C852.356 458.698 849.543 456.458 846.283 456.349C833.209 455.915 821.371 455.668 810.134 455.608ZM809.3 470.438C809.483 470.438 809.952 470.438 810.073 470.438C819.453 470.488 829.65 470.739 840.288 471.055C850.925 510.811 860.573 549.015 869.237 585.307C857.267 586.95 843.627 588.813 837.045 589.725L809.3 470.438Z" fill="#626262"/>
<path d="M799.939 455.67C750.871 455.79 701.618 458.568 652.475 463.796C648.144 464.256 645.144 468.328 645.987 472.601C646.292 474.146 669.882 594.122 675.059 620.836C675.815 624.734 679.505 627.325 683.432 626.737C729.103 619.914 778.531 612.842 832.379 605.358C836.697 604.758 839.577 600.583 838.588 596.336C838.343 595.282 807.444 462.471 807.199 461.416C806.417 458.052 803.393 455.661 799.939 455.67ZM794.099 470.593C796.6 481.341 819.059 577.836 822.307 591.794C774.278 598.492 729.709 604.909 688.283 611.073C682.158 579.626 664.519 490.16 662.083 477.791C706.085 473.353 750.185 470.892 794.099 470.593Z" fill="#626262"/>
<path d="M652.475 463.796C593.916 470.024 536.102 479.566 479.616 491.849C475.853 492.666 473.344 496.248 473.838 500.066C475.182 510.441 489.517 621.135 493.086 648.611C493.625 652.76 497.483 655.641 501.614 654.976C561.515 645.335 621.557 635.982 683.433 626.737C687.607 626.113 690.446 622.137 689.642 617.994C684.462 591.264 660.812 471.3 660.508 469.758C659.765 465.99 656.294 463.389 652.475 463.796ZM647.316 479.367C649.435 490.128 667.297 581.034 673.577 613.267C616.966 621.754 561.755 630.307 506.804 639.126C502.647 607.093 491.691 522.389 489.44 505.01C541.138 493.987 593.894 485.288 647.316 479.367Z" fill="#626262"/>
<path d="M479.616 491.848C421.791 504.422 367.984 519.249 319.145 535.163C315.939 536.208 313.818 539.274 314.017 542.64C316.733 588.61 319.456 631.561 322.42 676.51C322.71 680.902 326.733 684.086 331.071 683.337C380.598 674.798 437.593 665.279 501.613 654.976C505.569 654.339 508.309 650.669 507.793 646.696C504.224 619.22 489.888 508.525 488.544 498.151C487.987 493.842 483.861 490.925 479.616 491.848ZM474.888 508.192C477.305 526.858 488.081 610.076 492.159 641.505C434.349 650.832 382.474 659.465 336.663 667.334C334.039 627.31 331.646 588.464 329.217 547.552C373.89 533.18 422.704 519.8 474.888 508.192Z" fill="#626262"/>
<path d="M322.543 534.885C321.44 534.714 320.299 534.787 319.144 535.163C304.904 539.804 294.567 543.381 279.661 548.788C276.581 549.905 274.593 552.933 274.779 556.203C277.153 597.982 279.722 640.408 282.471 683.368C282.754 687.78 286.83 690.967 291.184 690.197C293.266 689.828 324.17 684.527 331.07 683.337C334.81 682.693 337.437 679.308 337.187 675.521C334.226 630.604 331.56 587.71 328.846 541.775C328.63 538.138 325.853 535.396 322.543 534.885ZM314.634 552.403C317.015 592.365 319.41 630.571 321.987 669.836C313.566 671.288 304.203 672.914 296.807 674.192C294.38 636.001 292.078 598.18 289.949 560.93C298.612 557.815 306.588 555.095 314.634 552.403Z" fill="#626262"/>
<path d="M414.055 654.296C355.371 664.075 313.102 671.274 288.589 675.614C284.871 676.272 282.23 679.599 282.471 683.368C285.005 722.948 287.596 759.5 290.165 792.614C290.428 796.007 292.958 798.782 296.312 799.35C333.532 805.641 378.372 810.062 428.668 811.028C433.108 811.114 436.645 807.291 436.207 802.871C433.473 775.265 430.96 748.864 425.116 686.983C425.112 686.949 423.321 668.064 422.644 660.908C422.239 656.625 418.298 653.589 414.055 654.296ZM408.648 670.268C410.138 686 417.487 763.617 420.635 795.889C376.994 794.693 337.792 790.883 304.531 785.539C302.262 755.971 300.007 723.722 297.765 689.084C321.054 684.988 358.567 678.63 408.648 670.268Z" fill="#626262"/>
<path d="M581.354 627.324C522.782 636.45 472.558 644.577 414.055 654.326C410.216 654.966 407.509 658.485 407.876 662.359C408.545 669.429 418.702 776.707 421.439 804.354C421.809 808.094 424.911 810.955 428.668 811.027C487.919 812.166 548.2 808.259 609.314 798.083C613.347 797.411 616.093 793.59 615.432 789.556C615.231 788.336 590.019 634.661 589.819 633.441C589.16 629.423 585.377 626.697 581.354 627.324ZM576.38 643.142C578.579 656.55 597.359 771.03 599.582 784.581C544.164 793.36 489.45 796.857 435.558 796.167C432.989 770.103 430.536 744.651 425.116 687.261C425.104 687.142 424.077 676.151 423.293 667.859C476.227 659.055 523.429 651.418 576.38 643.142Z" fill="#626262"/>
<path d="M760.979 600.353C701.085 608.977 641.624 617.933 581.354 627.324C577.285 627.958 574.509 631.787 575.175 635.851L600.787 791.965C601.451 796.014 605.268 798.756 609.314 798.083C672.351 787.586 734.771 770.502 795.397 746.271C798.798 744.912 800.706 741.28 799.877 737.713C799.637 736.685 769.498 607.066 769.259 606.037C768.387 602.287 764.79 599.804 760.979 600.353ZM756.345 616.048C759.155 628.13 781.305 723.333 783.965 734.778C728.571 756.444 671.693 772.058 614.227 782.109L591.024 640.825C646.442 632.215 701.247 624.007 756.345 616.048Z" fill="#626262"/>
<path d="M877.424 584.164C833.998 590.04 796.263 595.272 760.979 600.353C756.679 600.972 753.816 605.142 754.8 609.374L785.417 741.05C786.446 745.474 791.179 747.957 795.396 746.271C832.768 731.335 868.839 713.961 903.685 693.872C906.473 692.265 907.912 689.049 907.238 685.902C900.111 652.643 893.103 621.365 885.642 589.817C884.764 586.104 881.205 583.652 877.424 584.164ZM872.696 599.796C879.153 627.293 885.332 654.805 891.543 683.647C861.283 700.821 830.072 715.909 797.868 729.155L771.082 613.947C802.174 609.493 835.359 604.863 872.696 599.796Z" fill="#626262"/>
<path d="M899.669 680.032C898.52 680.077 897.359 680.392 896.27 681.02C882.728 688.828 868.749 696.306 854.129 703.636C851.066 705.172 849.459 708.609 850.236 711.947L871.554 803.613C872.831 809.105 879.528 811.238 883.727 807.476C896.68 795.864 909.308 783.446 921.573 770.246C923.194 768.502 923.861 766.093 923.396 763.758C918.88 741.067 913.541 715.316 907.238 685.902C906.447 682.213 903.115 679.896 899.669 680.032ZM894.756 698.848C899.744 722.28 904.295 743.976 908.072 762.863C899.905 771.538 891.549 779.75 883.077 787.703L865.992 714.233C875.84 709.216 885.398 704.08 894.756 698.848Z" fill="#626262"/>
<path d="M857.435 702.863C856.33 702.865 855.202 703.099 854.129 703.635C807.155 727.188 758.609 745.989 708.828 760.329C705.144 761.389 702.854 765.091 703.576 768.856C706.018 781.6 727.906 895.242 727.736 894.353C728.616 898.966 733.528 901.614 737.869 899.822C789.912 878.333 838.684 847.851 883.727 807.475C885.741 805.669 886.626 802.912 886.013 800.276C885.847 799.56 864.862 709.326 864.696 708.61C863.88 705.106 860.749 702.857 857.435 702.863ZM852.337 720.906C855.619 735.018 868.781 791.716 870.535 799.257C830.115 834.901 786.671 862.389 740.558 882.458C738.09 869.65 723.195 792.346 719.394 772.563C764.803 759.105 809.214 741.935 852.337 720.906Z" fill="#626262"/>
<path d="M711.887 760.112C710.879 759.967 709.845 760.027 708.797 760.329C646.383 778.306 583.009 789.185 519.81 793.819C515.563 794.131 512.464 797.938 513.013 802.161C514.641 814.669 529.335 927.652 529.48 928.77C529.635 929.955 530.063 931.097 530.747 932.076L532.971 935.259C534.363 937.25 536.659 938.417 539.089 938.41C607.488 938.194 674.306 926.066 737.869 899.821C741.122 898.479 742.978 895.029 742.318 891.572C742.509 892.571 720.569 778.813 718.128 766.076C717.512 762.863 714.909 760.55 711.887 760.112ZM705.059 776.734C709.259 798.577 724.913 879.728 726.562 888.266C668.015 911.583 606.641 922.735 543.755 923.456C542.927 917.098 531.549 829.775 528.708 807.938C587.679 803.144 646.723 792.973 705.059 776.734Z" fill="#626262"/>
<path d="M339.196 790.328C334.574 789.795 330.604 793.598 330.947 798.238C332.909 824.77 338.723 900.087 338.825 901.274C339.082 904.245 341.085 906.752 343.924 907.668C368.985 915.77 396.359 922.829 425.765 928.183C462.637 934.896 500.569 938.531 539.089 938.41C545.076 938.391 548.574 931.637 545.145 926.732L543.94 925.032C543.524 921.836 529.323 812.571 527.72 800.245C527.213 796.345 523.734 793.532 519.811 793.819C455.233 798.554 394.704 796.731 339.196 790.328ZM346.395 805.961C398.302 811.446 454.393 812.969 513.909 809.02C516.598 829.689 527.677 914.99 528.77 923.395C465.651 922.501 406.337 911.712 353.223 895.002C352.679 888.074 348.604 835.375 346.395 805.961Z" fill="#626262"/>
<path d="M298.785 784.705C294.029 783.901 289.792 787.805 290.166 792.614C293.712 838.32 296.419 868.287 298.878 886.876C299.217 889.437 300.872 891.638 303.234 892.684C303.75 892.912 304.714 893.34 306.108 893.92C308.399 894.875 311.081 895.946 314.14 897.133C322.845 900.513 332.816 904.078 343.924 907.668C348.97 909.299 354.049 905.26 353.594 899.975C353.497 898.852 347.675 823.639 345.715 797.125C345.453 793.576 342.731 790.735 339.196 790.328C323.791 788.55 310.096 786.617 298.785 784.705ZM305.705 800.77C313.537 801.969 322.056 803.126 331.41 804.262C333.387 830.689 336.919 876.452 337.96 889.842C331.599 887.642 324.891 885.41 319.516 883.323C317.087 882.38 315.064 881.545 313.152 880.759C311.046 863.909 308.627 837.696 305.705 800.77Z" fill="#626262"/>
<mask id="mask1_311_10233" style="mask-type:luminance" maskUnits="userSpaceOnUse" x="216" y="139" width="719" height="807">
<path d="M934.907 139.767H216.908V945.879H934.907V139.767Z" fill="white"/>
<path d="M585.464 154.718C570.235 154.367 555.353 154.782 540.851 155.892L537.298 204.274C519.655 206.649 502.56 209.723 486.228 213.45L470.626 166.829C444.61 173.038 420.249 181.494 397.219 191.175L394.932 241.997C379.098 248.331 364.446 254.894 351.216 261.369L339.105 219.938C312.417 235.308 288.312 252.017 267.211 268.722C267.211 268.722 276.512 466.764 287.293 642.896C278.425 638.027 258.805 630.445 244.225 648.426C225.944 670.97 217.166 726.036 295.11 760.112C298.972 813.7 302.797 859.947 306.232 885.918C306.232 885.918 655.933 1045.24 916.138 765.211C908.683 727.75 899.887 685.731 889.66 640.27C913.133 625.091 920.474 597.649 920.061 579.251C919.444 551.696 906.648 540.075 882.276 520.21C875.749 514.89 868.033 514.833 860.248 517.46C835.261 419.455 803.65 309.767 762.958 192.008C738.788 182.488 715.276 175.079 692.362 169.362L689.983 205.448C675.905 203.263 662.026 201.729 648.367 200.721L632.209 158.147C616.27 156.183 600.693 155.068 585.464 154.718Z" fill="black"/>
</mask>
<g mask="url(#mask1_311_10233)">
<path d="M585.464 154.718C570.235 154.367 555.353 154.782 540.851 155.892L537.298 204.274C519.655 206.649 502.56 209.723 486.228 213.45L470.626 166.829C444.61 173.038 420.249 181.494 397.219 191.175L394.932 241.997C379.098 248.331 364.446 254.894 351.216 261.369L339.105 219.938C312.417 235.308 288.312 252.017 267.211 268.722C267.211 268.722 276.512 466.764 287.293 642.896C278.425 638.027 258.805 630.445 244.225 648.426C225.944 670.97 217.166 726.036 295.11 760.112C298.972 813.7 302.797 859.947 306.232 885.918C306.232 885.918 655.933 1045.24 916.138 765.211C908.683 727.75 899.887 685.731 889.66 640.27C913.133 625.091 920.474 597.649 920.061 579.251C919.444 551.696 906.648 540.075 882.276 520.21C875.749 514.89 868.033 514.833 860.248 517.46C835.261 419.455 803.65 309.767 762.958 192.008C738.788 182.488 715.276 175.079 692.362 169.362L689.983 205.448C675.905 203.263 662.026 201.729 648.367 200.721L632.209 158.147C616.27 156.183 600.693 155.068 585.464 154.718Z" stroke="black" stroke-width="0.0245956" stroke-miterlimit="10" stroke-linejoin="round"/>
</g>
<path d="M585.465 154.719C570.236 154.368 555.353 154.783 540.852 155.892L537.299 204.275C519.655 206.65 502.56 209.723 486.229 213.45L470.627 166.83C444.611 173.038 420.249 181.494 397.22 191.175L394.933 241.998C379.099 248.331 364.447 254.895 351.217 261.369L339.106 219.938C312.418 235.309 288.313 252.018 267.212 268.722C267.212 268.722 290.642 768.049 306.233 885.919C306.233 885.919 655.934 1045.24 916.138 765.211C888.155 624.585 842.998 423.636 762.958 192.009C738.789 182.489 715.277 175.08 692.363 169.363L689.984 205.448C675.906 203.263 662.027 201.729 648.368 200.722L632.209 158.147C616.27 156.184 600.694 155.069 585.465 154.719Z" stroke="black" stroke-width="0.0122978" stroke-miterlimit="10" stroke-linejoin="round"/>
<path d="M585.804 139.889C570.258 139.531 554.873 139.932 539.708 141.093C532.393 141.653 526.59 147.494 526.052 154.81L523.365 191.453C514.111 192.882 505.028 194.495 496.115 196.303L484.684 162.133C482.246 154.849 474.668 150.618 467.197 152.401C441.813 158.459 416.883 166.837 391.472 177.519C386.191 179.738 382.646 184.773 382.389 190.495L380.535 231.988C373.766 234.808 367.109 237.676 360.608 240.638L353.347 215.768C350.652 206.548 340.014 202.291 331.69 207.085C305.602 222.11 280.873 239.001 258.004 257.105C254.259 260.07 252.188 264.662 252.412 269.433C252.427 269.748 256.018 343.46 257.355 369.812C261.178 445.104 265.209 520.4 269.312 590.682C269.952 601.639 270.594 611.983 271.227 622.536C270.279 622.45 269.347 622.289 268.385 622.258C254.838 621.814 242.302 627.255 232.701 639.096C219.258 655.674 213.266 680.076 219.199 703.574C225.871 729.994 246.577 752.806 280.99 769.752C285.028 824.852 288.498 864.975 291.526 887.865C292.196 892.932 295.432 897.301 300.084 899.42C301.005 899.84 302.679 900.562 305.058 901.552C308.934 903.164 313.449 904.949 318.59 906.866C333.18 912.305 349.84 917.72 368.331 922.777C420.849 937.139 477.555 945.806 536.402 945.887C612.23 945.991 686.039 931.748 755.729 900.254C817.893 872.161 875.347 830.914 927.013 775.313C930.253 771.826 931.619 766.976 930.689 762.306C923.153 724.433 914.943 685.692 906.158 646.294C915.426 638.266 922.56 628.238 927.445 616.79C932.669 604.547 935.164 591.113 934.891 578.911C934.526 562.668 930.47 549.872 922.131 538.222C915.609 529.112 908.201 522.217 891.638 508.717C885.481 503.7 878.545 501.276 871.215 500.994C844.172 396.245 813.249 292.106 776.985 187.158C775.57 183.063 772.427 179.787 768.395 178.199C744.291 168.705 720.198 161.016 695.946 154.966C686.976 152.727 678.172 159.149 677.563 168.374L676.235 188.641C670.513 187.934 664.743 187.344 658.964 186.818L646.081 152.895C644.129 147.751 639.492 144.114 634.032 143.441C617.807 141.443 601.73 140.255 585.804 139.889ZM585.464 154.719C600.693 155.068 616.27 156.184 632.209 158.147L648.367 200.721C662.026 201.729 675.905 203.263 689.983 205.448L692.362 169.362C715.276 175.08 738.788 182.489 762.958 192.008C803.65 309.768 835.261 419.456 860.248 517.461C868.033 514.833 875.749 514.89 882.276 520.21C906.648 540.075 919.443 551.697 920.061 579.251C920.474 597.649 913.133 625.091 889.66 640.27C899.887 685.731 908.683 727.75 916.137 765.211C655.933 1045.24 306.232 885.918 306.232 885.918C302.797 859.947 298.972 813.7 295.11 760.112C217.166 726.037 225.944 670.971 244.225 648.426C258.805 630.446 278.424 638.028 287.293 642.896C276.512 466.765 267.211 268.722 267.211 268.722C288.312 252.018 312.417 235.308 339.105 219.938L351.216 261.369C364.446 254.895 379.098 248.331 394.932 241.998L397.219 191.175C420.249 181.494 444.61 173.038 470.626 166.829L486.228 213.45C502.56 209.723 519.655 206.649 537.298 204.275L540.851 155.892C555.353 154.783 570.235 154.368 585.464 154.719Z" fill="black"/>
<path d="M585.65 147.304C570.348 146.952 555.215 147.367 540.295 148.508C536.637 148.788 533.736 151.678 533.467 155.337L530.347 197.849C516.939 199.786 503.885 202.164 491.202 204.893L477.67 164.482C476.451 160.839 472.632 158.739 468.896 159.63C443.926 165.59 419.399 173.815 394.346 184.347C391.705 185.457 389.932 187.974 389.804 190.835L387.734 236.992C376.762 241.474 366.169 246.177 355.912 251.019L346.21 217.869C344.863 213.259 339.559 211.115 335.397 213.512C309.631 228.351 285.197 245.032 262.608 262.914C260.735 264.396 259.684 266.676 259.796 269.062C259.811 269.377 263.404 343.077 264.739 369.41C268.557 444.652 272.598 519.865 276.696 590.096C279.952 645.903 283.11 696.223 286.119 739.722C290.899 808.817 295.188 858.977 298.879 886.876C299.214 889.41 300.848 891.594 303.173 892.654C303.403 892.759 303.804 892.946 304.409 893.21C305.395 893.64 306.563 894.137 307.9 894.693C311.692 896.271 316.133 898.03 321.186 899.915C335.572 905.278 352.038 910.644 370.309 915.64C422.228 929.839 478.261 938.392 536.402 938.472C611.221 938.575 684.026 924.522 752.7 893.489C813.968 865.801 870.581 825.124 921.575 770.246C923.195 768.502 923.863 766.093 923.398 763.759C906.236 677.515 888.135 596.335 866.241 510.88C838.804 403.788 807.106 297.064 769.971 189.599C769.263 187.552 767.692 185.914 765.676 185.12C741.875 175.744 718.094 168.138 694.154 162.164C689.669 161.045 685.282 164.256 684.978 168.868L683.124 197.045C673.38 195.69 663.567 194.587 653.65 193.77L639.129 155.521C638.153 152.95 635.835 151.131 633.105 150.795C617.125 148.826 601.33 147.665 585.65 147.304ZM585.279 162.134C599.026 162.45 612.931 163.476 626.926 165.068L641.446 203.347C642.469 206.042 644.937 207.893 647.811 208.106C661.678 209.128 675.332 210.674 688.84 212.77C693.141 213.439 697.081 210.286 697.367 205.943L699.159 178.848C718.502 184.005 737.755 190.236 757.026 197.693C793.537 303.655 824.815 408.963 851.875 514.588C873.37 598.491 891.219 678.295 908.104 762.863C859.131 814.899 805.029 853.576 746.584 879.987C679.94 910.104 609.233 923.742 536.433 923.642C479.702 923.564 424.923 915.207 374.202 901.336C356.375 896.461 340.359 891.225 326.376 886.011C321.499 884.193 317.209 882.515 313.585 881.007C313.447 880.95 313.292 880.863 313.121 880.79C309.587 852.647 305.477 804.6 300.918 738.702C297.913 695.263 294.748 645.019 291.494 589.262C287.399 519.073 283.354 443.845 279.539 368.638C278.254 343.329 275.082 277.804 274.811 272.245C293.589 257.575 313.667 243.817 334.687 231.246L344.109 263.439C345.4 267.853 350.329 270.064 354.46 268.043C368.122 261.357 382.624 254.91 397.682 248.888C400.384 247.806 402.216 245.246 402.347 242.338L404.417 196.273C425.036 187.811 445.319 180.995 465.776 175.758L479.184 215.799C480.394 219.414 484.149 221.528 487.865 220.679C503.994 217 520.881 213.97 538.286 211.627C541.763 211.16 544.425 208.328 544.682 204.83L547.772 162.967C560.148 162.202 572.629 161.842 585.279 162.134Z" fill="black"/>
<path d="M329.643 636.553C329.643 513.359 429.51 413.492 552.704 413.492C675.897 413.492 775.765 513.359 775.765 636.553C775.765 759.746 675.897 859.614 552.704 859.614C429.51 859.614 329.643 759.746 329.643 636.553Z" fill="#F3886D" stroke="black" stroke-width="0.0122978" stroke-miterlimit="10" stroke-linejoin="round"/>
<path d="M627.296 480.942C616.966 481.071 606.349 482.552 595.751 485.514C555.681 496.715 526.612 526.146 517.833 559.54C500.577 537 469.331 521.235 434.014 520.21C381.194 518.677 339.43 550.599 340.71 591.517C341.501 616.798 358.561 639.584 383.932 653.678C379.722 670.97 379.003 688.745 382.604 706.231C398.264 782.281 487.478 824.205 581.879 799.875C676.28 775.545 740.122 694.167 724.461 618.117C723.076 611.391 721.05 604.947 718.56 598.777C725.854 581.592 727.692 562.764 722.577 544.463C711.594 505.173 672.056 480.383 627.296 480.942Z" fill="#F9B192"/>
<path d="M404.153 689.987C404.153 689.987 490.771 612.167 686.545 634.159C686.545 634.159 699.728 638.176 692.788 658.906C685.849 679.636 654.894 732.429 612.797 754.703C570.701 776.975 531.989 788.259 481.102 764.882C430.214 741.504 405.325 704.825 405.325 704.825L404.153 689.987Z" fill="white" stroke="black" stroke-width="0.0122978" stroke-miterlimit="10" stroke-linejoin="round"/>
<path d="M416.812 717.143C416.812 717.143 440.849 706.51 460.392 701.34" stroke="black" stroke-width="0.0122978" stroke-miterlimit="10" stroke-linecap="round" stroke-linejoin="round"/>
<path d="M690.308 656.182C690.308 656.182 666.074 659.96 652.188 663.98" stroke="black" stroke-width="0.0122978" stroke-miterlimit="10" stroke-linecap="round" stroke-linejoin="round"/>
<path d="M594.027 549.555C594.027 549.555 617.005 522.586 653.581 512.908C653.581 512.908 665.37 513.867 672.22 519.717" stroke="black" stroke-width="0.0122978" stroke-miterlimit="10" stroke-linecap="round" stroke-linejoin="round"/>
<path d="M451.424 575.979C451.424 575.979 416.777 558.408 387.668 564.66C387.668 564.66 379.7 569.386 369.811 583.889" stroke="black" stroke-width="0.0122978" stroke-miterlimit="10" stroke-linecap="round" stroke-linejoin="round"/>
<path d="M329.643 636.553C329.643 513.359 429.51 413.492 552.704 413.492C675.897 413.492 775.765 513.359 775.765 636.553C775.765 759.746 675.897 859.614 552.704 859.614C429.51 859.614 329.643 759.746 329.643 636.553Z" stroke="black" stroke-width="0.0122978" stroke-miterlimit="10" stroke-linejoin="round"/>
<path d="M552.714 406.083C425.426 406.083 322.234 509.273 322.234 636.562C322.234 763.85 425.426 867.042 552.714 867.042C680.003 867.042 783.193 763.85 783.193 636.562C783.193 509.273 680.003 406.083 552.714 406.083ZM552.714 420.913C671.812 420.913 768.363 517.463 768.363 636.562C768.363 755.66 671.812 852.212 552.714 852.212C433.616 852.212 337.064 755.66 337.064 636.562C337.064 517.463 433.616 420.913 552.714 420.913Z" fill="black"/>
<path d="M627.203 473.527C616.065 473.666 604.801 475.286 593.743 478.378C556.95 488.662 527.843 513.929 514.898 545.173C495.112 525.853 465.74 513.71 434.23 512.795C377.526 511.149 331.865 546.061 333.295 591.763C334.105 617.646 350.221 641.46 375.715 657.262C372.262 674.284 371.958 691.271 375.344 707.713C391.949 788.354 485.562 832.344 583.733 807.042C681.671 781.802 748.257 696.938 731.722 616.634C730.491 610.657 728.677 604.738 726.469 598.87C733.613 580.502 734.9 561.009 729.713 542.454C717.96 500.407 675.98 472.918 627.203 473.527ZM627.388 488.356C669.792 487.826 705.608 511.296 715.44 546.471C719.963 562.651 718.589 579.72 711.733 595.872C710.964 597.681 710.936 599.735 711.67 601.557C714.093 607.564 715.955 613.549 717.201 619.6C731.984 691.394 670.893 769.289 580.025 792.707C489.395 816.065 404.579 776.208 389.864 704.747C386.579 688.794 387.059 672.161 391.132 655.438C391.92 652.196 390.465 648.811 387.548 647.19C363.575 633.873 348.807 613.068 348.125 591.269C346.994 555.133 384.865 526.204 433.798 527.625C466.058 528.562 495.594 542.71 511.932 564.05C515.681 568.947 523.433 567.389 525.001 561.425C533.325 529.76 561.122 502.891 597.76 492.651C607.578 489.906 617.538 488.48 627.388 488.356Z" fill="black" fill-opacity="0.5"/>
<path d="M613.176 622.845C589.586 623.084 567.117 624.831 545.794 627.973C510.629 633.154 479.743 641.917 453.015 653.276C437.227 659.986 423.838 667.202 412.789 674.44C408.883 676.999 405.537 679.385 402.749 681.546C401.024 682.882 399.847 683.895 399.195 684.48C397.478 686.024 396.573 688.266 396.754 690.567C396.791 691.031 397.892 704.933 397.929 705.397C398.03 706.679 398.473 707.916 399.195 708.981C399.704 709.729 400.644 711.03 402.007 712.78C404.226 715.63 406.858 718.786 409.947 722.173C418.719 731.79 429.266 741.397 441.614 750.349C452.775 758.441 464.912 765.589 478.01 771.605C503.568 783.347 527.334 787.274 551.17 784.273C571.618 781.697 591.61 774.301 616.266 761.256C636.497 750.552 655.455 732.686 671.909 710.649C684.919 693.225 695.546 673.978 699.807 661.247C704.221 648.062 702.358 637.97 695.884 631.557C694.442 630.129 692.887 629.03 691.311 628.189C690.282 627.641 689.412 627.29 688.716 627.077C688.281 626.945 687.839 626.85 687.387 626.799C661.503 623.891 636.767 622.604 613.176 622.845ZM613.423 637.674C636.026 637.449 659.742 638.667 684.576 641.413C684.873 641.594 685.176 641.799 685.471 642.092C687.709 644.308 688.454 648.471 685.75 656.551C682.029 667.666 672.167 685.546 660.045 701.782C644.801 722.198 627.385 738.611 609.345 748.156C586.136 760.436 567.697 767.251 549.316 769.567C528.278 772.216 507.281 768.743 484.189 758.135C472.002 752.536 460.72 745.867 450.328 738.331C438.834 730 429.034 721.064 420.915 712.163C418.092 709.068 415.672 706.219 413.685 703.667C413.241 703.097 412.93 702.631 412.573 702.152C412.397 699.921 412.129 696.631 411.862 693.255C414.338 691.338 417.354 689.192 420.915 686.86C431.239 680.096 443.861 673.291 458.823 666.932C484.398 656.063 514.056 647.643 547.957 642.648C568.642 639.6 590.471 637.903 613.423 637.674Z" fill="black"/>
<path d="M461.449 693.996C460.495 693.861 459.473 693.92 458.483 694.182C455.396 694.999 452.112 695.948 448.658 697.055C445.076 698.203 441.376 699.489 437.536 700.886C431.849 702.955 426.183 705.161 420.822 707.375C418.944 708.149 413.902 710.33 413.808 710.371C410.063 712.028 408.382 716.389 410.039 720.134C411.695 723.879 416.057 725.591 419.802 723.934C419.872 723.903 424.663 721.839 426.476 721.092C431.655 718.954 437.129 716.811 442.603 714.82C446.271 713.485 449.811 712.26 453.2 711.174C456.423 710.141 459.457 709.265 462.283 708.517C466.242 707.47 468.613 703.393 467.566 699.434C466.781 696.465 464.309 694.404 461.449 693.996Z" fill="black"/>
<path d="M689.178 648.858C689.077 648.874 683.587 649.782 681.609 650.125C675.953 651.107 670.287 652.166 664.988 653.277C659.197 654.49 654.178 655.688 650.126 656.86C646.193 657.999 643.921 662.102 645.059 666.036C646.198 669.97 650.302 672.242 654.236 671.103C657.873 670.05 662.558 668.941 668.015 667.797C673.129 666.726 678.642 665.694 684.143 664.739C686.07 664.404 691.349 663.516 691.434 663.503C695.48 662.872 698.275 659.084 697.644 655.037C697.013 650.991 693.225 648.227 689.178 648.858Z" fill="black"/>
<path d="M654.174 505.504C653.335 505.435 652.486 505.535 651.672 505.751C637.929 509.387 625.122 515.479 613.362 523.362C606.472 527.979 600.353 532.924 595.072 537.882C593.209 539.63 591.583 541.257 590.19 542.732C589.327 543.647 588.744 544.335 588.398 544.741C585.743 547.858 586.115 552.559 589.233 555.214C592.35 557.871 597.019 557.466 599.675 554.349C599.703 554.316 600.565 553.359 600.973 552.928C602.163 551.666 603.598 550.233 605.236 548.696C609.955 544.266 615.459 539.833 621.642 535.688C631.756 528.909 642.677 523.681 654.267 520.457C654.779 520.531 655.286 520.625 655.874 520.735C658.179 521.166 660.475 521.765 662.547 522.589C664.554 523.387 666.204 524.35 667.397 525.37C670.512 528.029 675.212 527.649 677.871 524.535C680.531 521.421 680.151 516.752 677.037 514.093C674.484 511.912 671.43 510.167 668.015 508.81C664.964 507.596 661.776 506.747 658.592 506.152C657.483 505.946 656.443 505.778 655.503 505.658C654.909 505.583 654.464 505.527 654.174 505.504Z" fill="black"/>
<path d="M399.783 555.925C395.035 556 390.461 556.471 386.096 557.408C385.312 557.576 384.561 557.864 383.871 558.273C383.404 558.551 382.715 559.008 381.832 559.663C380.49 560.661 379.025 561.907 377.414 563.402C372.972 567.522 368.337 572.91 363.697 579.715C361.389 583.098 362.259 587.695 365.642 590.003C369.027 592.309 373.624 591.439 375.931 588.056C379.944 582.171 383.857 577.643 387.486 574.277C388.655 573.193 389.685 572.35 390.575 571.682C393.569 571.127 396.71 570.777 400.03 570.724C410.487 570.558 421.921 572.827 433.397 576.687C437.306 578.002 440.942 579.392 444.179 580.796C445.301 581.283 446.301 581.725 447.145 582.124C447.631 582.355 447.937 582.52 448.071 582.588C451.724 584.44 456.199 582.996 458.051 579.344C459.903 575.691 458.428 571.217 454.776 569.365C453.868 568.904 452.275 568.154 450.08 567.202C446.474 565.638 442.45 564.084 438.124 562.629C425.181 558.276 412.159 555.729 399.783 555.925Z" fill="black"/>
<path d="M552.714 406.083C425.426 406.083 322.234 509.273 322.234 636.562C322.234 763.85 425.426 867.042 552.714 867.042C680.003 867.042 783.193 763.85 783.193 636.562C783.193 509.273 680.003 406.083 552.714 406.083ZM552.714 420.913C671.812 420.913 768.363 517.463 768.363 636.562C768.363 755.66 671.812 852.212 552.714 852.212C433.616 852.212 337.064 755.66 337.064 636.562C337.064 517.463 433.616 420.913 552.714 420.913Z" fill="black"/>
<path d="M655.987 590.525C653.894 578.571 670.611 565.657 693.327 561.678C716.042 557.7 736.154 564.166 738.247 576.118C740.34 588.072 723.623 600.987 700.907 604.965C678.192 608.944 658.08 602.478 655.987 590.525Z" fill="#FF497F" stroke="black" stroke-width="0.0122978" stroke-miterlimit="10" stroke-linejoin="round"/>
<path d="M343.441 646.227C339.251 634.837 353.397 619.148 375.04 611.184C396.681 603.218 417.624 605.994 421.815 617.383C426.007 628.771 411.859 644.46 390.218 652.425C368.575 660.39 347.633 657.615 343.441 646.227Z" fill="#FF497F" stroke="black" stroke-width="0.0122978" stroke-miterlimit="10" stroke-linejoin="round"/>
<path d="M711.052 553.206C705.044 552.851 698.606 553.233 692.052 554.38C665.834 558.972 645.653 574.538 648.675 591.794C651.696 609.051 675.968 616.869 702.186 612.278C728.403 607.687 748.584 592.09 745.563 574.833C743.296 561.89 729.079 554.272 711.052 553.206ZM708.21 567.943C720.86 568.278 730.076 572.41 730.949 577.397C732.113 584.047 718.835 594.299 699.621 597.665C680.408 601.029 664.453 595.88 663.288 589.23C662.124 582.58 675.402 572.358 694.616 568.994C699.42 568.152 703.994 567.831 708.21 567.943Z" fill="black"/>
<path d="M399.659 599.209C391.24 599.1 381.838 600.767 372.471 604.215C347.492 613.407 330.427 632.356 336.477 648.797C342.529 665.237 367.791 668.587 392.769 659.393C417.747 650.201 434.812 631.252 428.762 614.812C424.98 604.536 413.691 599.391 399.659 599.209ZM396.817 614.07C406.359 613.628 413.402 615.981 414.86 619.94C417.191 626.276 405.976 638.723 387.672 645.46C369.366 652.197 352.743 650.004 350.411 643.668C348.08 637.332 359.293 624.885 377.599 618.149C384.464 615.622 391.09 614.335 396.817 614.07Z" fill="black"/>
<path d="M817.094 552.509C817.094 552.509 857.894 500.34 882.266 520.204C906.638 540.069 919.456 551.682 920.074 579.237C920.692 606.792 904.1 654.799 841.602 651.18" fill="#F3886D"/>
<path d="M903.902 539.489C851.326 563.069 839.671 616.514 837.229 633.597L841.586 651.176C904.084 654.796 920.678 606.806 920.061 579.251C919.664 561.564 914.18 550.437 903.902 539.489Z" fill="#F9B192"/>
<path d="M847.364 600.267C847.364 600.267 858.685 570.777 883.561 552.009" stroke="black" stroke-width="0.0122978" stroke-miterlimit="10" stroke-linecap="round" stroke-linejoin="round"/>
<path d="M884.593 544.679C882.713 544.416 880.727 544.867 879.093 546.101C872.411 551.142 866.306 557.113 860.772 563.834C854.719 571.187 849.642 579.034 845.479 586.883C844.019 589.637 842.775 592.197 841.741 594.513C841.104 595.939 840.679 596.987 840.443 597.603C838.976 601.426 840.884 605.713 844.707 607.181C848.53 608.648 852.817 606.74 854.284 602.917C854.31 602.85 854.381 602.681 854.5 602.392C854.714 601.875 854.994 601.264 855.304 600.569C856.206 598.549 857.279 596.284 858.579 593.834C862.302 586.814 866.861 579.783 872.235 573.257C877.06 567.396 882.323 562.234 888.022 557.933C891.291 555.467 891.941 550.822 889.474 547.552C888.241 545.918 886.471 544.942 884.593 544.679Z" fill="black"/>
<path d="M862.6 574.069C862.6 574.069 876.571 578.101 882.599 586.435" stroke="black" stroke-width="0.0122978" stroke-miterlimit="10" stroke-linecap="round" stroke-linejoin="round"/>
<path d="M861.731 566.708C858.862 567.052 856.341 569.071 855.49 572.022C854.355 575.956 856.622 580.062 860.557 581.198C860.644 581.223 860.866 581.291 861.237 581.414C861.897 581.633 862.651 581.902 863.461 582.218C865.775 583.117 868.088 584.188 870.196 585.431C873.076 587.128 875.286 588.969 876.592 590.775C878.991 594.093 883.623 594.844 886.942 592.444C890.26 590.044 891.01 585.412 888.61 582.094C885.942 578.405 882.23 575.321 877.735 572.671C874.873 570.985 871.847 569.578 868.837 568.407C867.018 567.7 865.578 567.219 864.666 566.955C863.682 566.671 862.687 566.594 861.731 566.708Z" fill="black"/>
<path d="M817.094 552.509C817.094 552.509 857.894 500.34 882.266 520.204C906.638 540.069 919.456 551.682 920.074 579.237C920.692 606.792 904.1 654.799 841.602 651.18" stroke="black" stroke-width="0.0122978" stroke-miterlimit="10" stroke-linejoin="round"/>
<path d="M868.436 508.285C864.395 508.438 860.195 509.4 855.892 511.065C847.251 514.41 838.408 520.519 829.477 528.614C824.819 532.834 820.41 537.336 816.408 541.837C815.005 543.415 813.765 544.87 812.67 546.193C811.999 547.003 811.515 547.614 811.248 547.955L822.927 557.068C822.964 557.022 823.759 556.06 824.101 555.647C825.088 554.454 826.216 553.135 827.499 551.693C831.169 547.565 835.195 543.415 839.425 539.582C847.126 532.602 854.589 527.448 861.237 524.876C868.144 522.202 873.391 522.541 877.581 525.957C892.633 538.225 899.075 544.214 904.058 551.168C909.725 559.075 912.38 567.524 912.647 579.406C912.974 594.006 908.184 610.299 898.682 622.288C886.749 637.346 868.189 645.307 842.02 643.792L841.185 658.591C872.088 660.38 895.336 650.415 910.33 631.496C922.115 616.624 927.877 596.948 927.477 579.066C927.145 564.275 923.562 552.919 916.107 542.517C910.097 534.13 903.019 527.567 886.942 514.464C881.443 509.982 875.169 508.028 868.436 508.285Z" fill="black"/>
<path d="M808.651 531.365C808.651 531.365 843.225 649.453 843.587 674.422" stroke="black" stroke-width="0.0122978" stroke-miterlimit="10" stroke-linecap="round" stroke-linejoin="round"/>
<path d="M809.486 524.01C808.529 523.9 807.565 523.97 806.582 524.257C802.652 525.408 800.396 529.503 801.547 533.433C801.562 533.488 805.555 547.356 806.984 552.403C811.068 566.823 815.131 581.637 818.94 595.965C819.946 599.747 820.934 603.436 821.875 607.057C830.736 641.151 836.051 665.607 836.18 674.533C836.239 678.628 839.593 681.883 843.688 681.824C847.782 681.764 851.069 678.411 851.01 674.316C850.855 663.651 845.494 638.92 836.241 603.319C835.293 599.67 834.289 595.943 833.275 592.134C829.443 577.722 825.362 562.846 821.257 548.356C819.821 543.284 815.776 529.355 815.758 529.294C814.895 526.345 812.356 524.342 809.486 524.01Z" fill="black"/>
<path opacity="0.203389" d="M355.309 248.905L376.962 494.312C353.738 725.123 535.157 854.445 535.157 854.445C535.157 854.445 475.775 854.788 408.307 804.858L414.504 919.793L303.701 883.872L287.511 754.855L255.636 734.616C255.636 734.616 227.809 687.057 226.797 679.974C225.785 672.891 235.904 648.099 235.904 648.099L256.648 629.379L277.392 632.414L278.909 557.028L262.719 261.048L338.612 215.006L355.309 248.905Z" fill="black"/>
<path opacity="0.203389" d="M854.393 577.617C866.65 563.431 871.216 555.947 883.34 551.728C907.79 543.218 921.476 588.661 921.476 588.661C921.476 588.661 932.538 624.518 906.279 632.768C877.663 641.759 886.575 693.081 886.575 693.081L867.342 697.92L841.511 650.457C841.511 650.457 809.765 568.358 822.967 580.153C833.559 589.617 849.257 583.562 854.393 577.617Z" fill="black"/>
</g>
</svg>
